<svg xmlns="http://www.w3.org/2000/svg" xmlns:xlink="http://www.w3.org/1999/xlink" width="75.902" height="290.441" viewBox="0 0 75.902 290.441">
  <defs>
    <clipPath id="clip-path">
      <path id="Clip_6" data-name="Clip 6" d="M0,0H-39.539V43.654H0Z" transform="translate(0.241 -0.038) rotate(-180)" fill="none"/>
    </clipPath>
  </defs>
  <g id="Group_8" data-name="Group 8" transform="translate(75.451 -0.038) rotate(180)">
    <path id="Fill_1" data-name="Fill 1" d="M-74.133,153.171c.563-2.233,2.7-7.827,2.278-12.595-.335-3.776-1.549-10-1.594-18.767s2.8-13.235,3.768-20.155,1.4-19.089,1.82-26.248A106.017,106.017,0,0,1-65.468,59.56h0c.615-3.02,1.909-5.6,5.266-6.59,1.245-.367,3.473-.863,5.85-1.547h0l.028-.008c.749-.216,1.511-.451,2.263-.705.357-.129.753-.277,1.215-.455,0,.005,0,.013,0,.02a15.061,15.061,0,0,0,4.582-2.5c1.943-1.745,2.024-5.995,1.8-8.975-.024-.106-.048-.212-.071-.317-.017-.281-.038-.548-.06-.8l-.032-.053c-.033-.43-1-.519-1.032-.8a20.781,20.781,0,0,1-2.093-2.21C-55.511,29.9-63.4,23-50.568,5.877-47.742,2.1-44.407,0-37.638,0S-26.4,2.665-23.664,6.65c11.43,16.675,4.569,23.916-2.85,28.549a19.3,19.3,0,0,1-2.242,2.21c-.069.518-1.887.484-1.947,1.246,0,0,0,0,0,.007-.006.07-.011.141-.016.213,0,0,0,.007,0,.01q-.008.1-.014.208c0,.008,0,.015,0,.022,0,.067-.008.134-.012.2,0,.011,0,.021,0,.032,0,.063-.007.127-.01.19,0,.017,0,.034,0,.051,0,.06-.006.121-.008.182,0,.019,0,.039,0,.059,0,.059,0,.118-.006.178,0,.022,0,.045,0,.068,0,.056,0,.113-.005.17l0,.08c0,.054,0,.108,0,.162,0,.03,0,.059,0,.089l0,.157c0,.032,0,.065,0,.1,0,.05,0,.1,0,.151,0,.035,0,.069,0,.1s0,.1,0,.147,0,.073,0,.109,0,.094,0,.141,0,.078,0,.117l0,.137c0,.04,0,.08,0,.12s0,.089.005.134,0,.083.005.124,0,.085.007.128,0,.086.007.13.005.083.008.125.006.088.01.132.006.082.009.124l.011.132.011.122c0,.044.009.087.013.131s.009.083.014.124.01.085.015.127.01.083.015.125.011.083.017.124.012.085.018.128.012.079.018.119.013.087.021.13.012.075.019.113.016.09.024.135l.02.1c.009.047.018.093.028.139s.013.064.02.1c.011.049.021.1.032.146.006.028.013.057.02.085.012.051.024.1.037.152l.019.074q.021.081.043.16c.006.02.012.041.017.061.016.057.033.114.051.17l.014.045q.029.091.059.181l.01.029c.022.064.045.128.069.191l0,.012a4.773,4.773,0,0,0,1.084,1.756l-.008,0c.036.035.072.071.109.1A15.116,15.116,0,0,0-24.3,50.284s0-.011,0-.015c.394.154.774.295,1.143.425.553.188,1.112.366,1.668.532q.371.106.732.2c0,.005,0,.01,0,.016,2.352.674,4.55,1.164,5.784,1.528,2.919.86,4.339,3.139,5.163,5.626a15.905,15.905,0,0,1,.567,1.957l.019,0A92.811,92.811,0,0,1-7.285,75.4c.428,7.158.885,19.326,1.866,26.245s3.833,11.384,3.8,20.148-1.232,14.993-1.561,18.769c-.414,4.768,1.733,10.359,2.3,12.591,1.157,4.552.94,5.527.626,5.942s-2.457,8.1-2.88,8.981-5.211,5.121-5.543,5.2-.7-1.059.263-1.972a18.384,18.384,0,0,0,3.36-3.862c.48-1.087.33-2.607,1.077-4.969s-1.272-7.291-1.972-4.7a39.861,39.861,0,0,0-.662,5.18c-.186,1.537-1.121,4.175-1.3.865s-.908-6.79-1.008-8.643c0-.084-.009-.167-.014-.249h0c-.1-1.71-.178-2.9,1.231-7.727a13.359,13.359,0,0,0,.138-5.517c-.454-2.167.071-4.637-1.679-11.449-1.362-5.3-3.131-12.094-3.066-18.337.038-3.667-.642-6.165-2.092-12.237-1.221-5.11-2.5-9.971-3.714-16.065-.42.73-.808,1.274-1.053,1.632a37.938,37.938,0,0,0,.753,4.78c.959,3.951,2.512,8,3.177,13.2.118.689.223,1.386.309,2.093.367,3.013.814,7.331,1.22,11.725h0l0,.038c.084.909.166,1.82.245,2.724q.064.694.124,1.383c.021.2.041.373.059.516l-.013,0c.245,2.813.448,5.507.57,7.8.055.925.1,1.754.121,2.458l-.018,0c.009.31.015.608.018.89l-.048.009a86.515,86.515,0,0,1-.4,18.236c-2.59,21.03-8,42.215-7.335,49.5s3.006,18.286.624,28.257-3.626,19.372-5.294,25.426-1.589,6.8-1.656,9.079c-.1,3.48.858,9.5,1.194,11.949s1.748,3.845,2.892,5.833.4,3.679-.773,3.878a56.346,56.346,0,0,1-5.633,1.658c-5.128,1.06-5.37-.768-5.7-1.094-.74-.729-.336-2.85-.135-5.966.287-4.428.04-7.987.471-10.607.013-.077.025-.152.038-.226.008-.048.017-.1.026-.142l.014-.074c.01-.053.02-.105.03-.156,0-.017.006-.034.01-.05.012-.061.024-.119.036-.178,0-.006,0-.013,0-.02.012-.058.024-.115.036-.171l0-.021c.139-.643.282-1.177.4-1.75h0c.012-.056.024-.113.035-.17a16.513,16.513,0,0,0,.3-3.6c-.019-3.433.841-20.616-.471-31.057-1.49-11.862.42-23.5.636-28.287s-1.869-22.887-2.412-30.775c-.366-5.31-1.183-18.927-1.532-29.23a3.773,3.773,0,0,1,.057-.748.817.817,0,0,1-.375.036,1.8,1.8,0,0,1-.422-.058,3.721,3.721,0,0,1,.064.77c-.349,10.3-1.166,23.921-1.532,29.23-.544,7.888-2.629,25.986-2.412,30.775s2.126,16.426.636,28.287c-1.311,10.441-.451,27.623-.471,31.057s.538,4.11.942,6.563c.431,2.62.184,6.179.471,10.607.2,3.116.605,5.237-.135,5.966-.33.325-.572,2.154-5.7,1.094a56.315,56.315,0,0,1-5.633-1.658c-1.177-.2-1.917-1.889-.774-3.878s2.556-3.381,2.892-5.833,1.295-8.468,1.194-11.949c-.066-2.281.013-3.025-1.655-9.079s-2.912-15.456-5.294-25.426-.041-20.972.624-28.257-4.341-28.47-6.931-49.5a92.094,92.094,0,0,1-.06-23.791c.08-1.683.175-3.565.286-5.528h0c.05-1.094.177-3.02.288-4.786h0c.281-4.364.614-8.66.964-11.683.765-6.6,3.652-13.215,4.226-20.088-.205-.292-.545-.764-.928-1.412-1.249,6-2.6,10.8-3.8,15.854-1.44,6.075-2.116,8.574-2.071,12.241.077,6.243-1.68,13.039-3.033,18.343-1.739,6.815-1.208,9.284-1.659,11.452a13.374,13.374,0,0,0,.148,5.517c1.486,5.054,1.833,6.134,1.736,7.988s-.819,5.335-.993,8.645-1.113.673-1.3-.863a39.8,39.8,0,0,0-.671-5.179c-.706-2.591-3.22,2.325-2.468,4.687s.6,3.881,1.086,4.967a18.4,18.4,0,0,0,3.367,3.856c.962.912.6,2.055.267,1.972s-5.128-4.311-5.553-5.2-2.581-8.562-2.9-8.976-.533-1.388.615-5.943" transform="translate(0 -3) rotate(-180)" fill="#fff" stroke="#6d7278" stroke-miterlimit="10" stroke-width="1"/>
    <path id="Fill_3" data-name="Fill 3" d="M-20,0A19.755,19.755,0,0,1,0,19.5,19.275,19.275,0,0,1-7.265,34.536,20.231,20.231,0,0,1-20,39,19.755,19.755,0,0,1-40,19.5,19.755,19.755,0,0,1-20,0Z" transform="translate(17 -96) rotate(-180)" fill="#fff" stroke="#02bfaf" stroke-miterlimit="10" stroke-width="3"/>
    <g id="Group_7" data-name="Group 7" transform="translate(17)">
      <path id="Clip_6-2" data-name="Clip 6" d="M0,0H-39.539V43.654H0Z" transform="translate(0.241 -0.038) rotate(-180)" fill="none"/>
      <g id="Group_7-2" data-name="Group 7" clip-path="url(#clip-path)">
        <path id="Fill_5" data-name="Fill 5" d="M-22.839.541A15.568,15.568,0,0,1-6.962,5.394c14.116,16.137,4.341,38.433-7.863,38.26A4.865,4.865,0,0,0-12.4,41.567a5.267,5.267,0,0,1-2.611.464,14.143,14.143,0,0,0,7-8.866c.676-2.26,2.536-8.34-.865-9.387-2.115-.652-5.692,1.108-8.788-2.042-.484-.493.5,1.941,1.321,2.39,0,0-4.66-.864-6.223-3.129a3.851,3.851,0,0,0,2.823,2.665,8.045,8.045,0,0,1-5.1-3.68,7.22,7.22,0,0,0,1.336,3.767,7.729,7.729,0,0,1-2.58-5.708,3.09,3.09,0,0,0-1.07,1.543,12.859,12.859,0,0,0-.137,4.259,7.87,7.87,0,0,1-.645-3.629A3.966,3.966,0,0,1-29.731,22.3a4.878,4.878,0,0,0,.843-1.977c.143-1.328-.227-2.928.858-4.831.483-.848-1.639.811-2.368,3.621-1.393,5.371-2.019,19.355,4.994,21.006a2.421,2.421,0,0,1-1.488-.29,8.383,8.383,0,0,0,5.2,1.4s-3.256,1.369-8.128-1.543c-5.682-3.4-13.883-5.183-7.24-24.642,1.616-4.734,6.815-16.355,14.223-14.5" transform="translate(0.241 -0.037) rotate(-180)" fill="#fff" stroke="#6d7278" stroke-miterlimit="10" stroke-width="1"/>
      </g>
    </g>
  </g>
</svg>
