<svg xmlns="http://www.w3.org/2000/svg" width="73.698" height="290.105" viewBox="0 0 73.698 290.105">
  <g id="Group_12" data-name="Group 12" transform="translate(0.452 0.512)">
    <g id="Group_11" data-name="Group 11">
      <g id="Group_4" data-name="Group 4" transform="translate(0 5.299)">
        <path id="Fill_2" data-name="Fill 2" d="M71.955,151.563c-.545-2.207-2.613-7.735-2.2-12.446.323-3.732,1.5-9.885,1.539-18.546s-2.708-13.079-3.646-19.917-3.113-18.619-3.515-25.694c-.3-5.313-1.106-11.679-1.569-14.594-.433-3.442-1.407-6.386-4.247-7.529-1.176-.473-3.35-1.077-5.675-1.849.006-.057-2.028-.647-3.376-1.238a15.562,15.562,0,0,1-4.429-2.543c-1.879-1.725-1.957-5.924-1.745-8.869l.069-.314c.016-.278.036-.541.058-.79l.031-.053c.032-.425.064-.775.094-1.058a22.793,22.793,0,0,0,2.041-2.542C52.893,28.928,61.406,22.73,49,5.807,46.267,2.08,43.041,0,36.5,0S25.623,2.633,22.981,6.572c-11.054,16.478-2.779,22.461,4.4,27.04a21.917,21.917,0,0,0,2.212,2.659c.048.365.1.807.146,1.3a0,0,0,0,1,0,0c.006.062.012.126.017.19l0,.018c.005.06.01.12.015.181,0,.011,0,.021,0,.032,0,.059.01.119.014.179,0,.013,0,.025,0,.037,0,.059.009.119.013.179,0,.015,0,.028,0,.043,0,.058.008.116.012.175,0,.018,0,.035,0,.053,0,.056.007.113.01.17,0,.021,0,.041,0,.061,0,.054.006.109.009.164,0,.024,0,.049,0,.074,0,.052,0,.1.007.156,0,.027,0,.055,0,.083,0,.05,0,.1.005.152,0,.03,0,.061,0,.091,0,.048,0,.1,0,.145,0,.033,0,.067,0,.1l0,.139,0,.109c0,.045,0,.09,0,.134s0,.077,0,.116,0,.087,0,.13v.246c0,.043,0,.086,0,.129s0,.08,0,.121,0,.087,0,.131l0,.121c0,.045,0,.089,0,.133s0,.079,0,.118,0,.09-.006.136,0,.077-.006.116,0,.092-.008.139,0,.076-.007.113-.006.093-.01.14-.006.076-.009.113-.008.092-.012.138-.007.077-.01.115-.008.09-.013.135-.008.078-.012.117-.01.087-.015.131-.009.079-.014.118-.011.085-.016.128-.011.081-.017.121-.012.081-.017.122-.013.084-.019.125-.012.076-.019.115-.015.087-.023.13-.012.07-.019.105l-.026.137-.02.1c-.01.048-.02.1-.031.144-.006.028-.012.056-.019.083q-.018.077-.037.153c-.006.024-.012.047-.018.071-.013.054-.028.108-.042.161l-.016.057c-.016.058-.033.115-.05.172l-.012.041c-.019.061-.038.122-.059.182l-.008.025q-.033.1-.068.194l0,.006a4.732,4.732,0,0,1-1.05,1.738l.009,0c-.035.035-.07.07-.106.1a18.491,18.491,0,0,1-4.447,2.813c-.885.364-2.275.967-3.376,1.419-1.652.617-3.165,1.088-4.192,1.4-2.823.849-4.2,3.1-4.993,5.558a15.958,15.958,0,0,0-.559,1.982H10.48A89.066,89.066,0,0,0,8.7,74.554C8.277,81.628,6.261,93.6,5.3,100.437s-3.72,11.246-3.7,19.907,1.175,14.818,1.488,18.55c.4,4.713-1.688,10.235-2.238,12.44-1.124,4.5-.915,5.46-.612,5.871s2.367,8,2.775,8.878,5.034,5.066,5.355,5.149.675-1.045-.253-1.949a18.077,18.077,0,0,1-3.246-3.82c-.463-1.076-.316-2.576-1.036-4.912s1.237-7.2,1.913-4.64a40.322,40.322,0,0,1,.634,5.119c.178,1.519,1.079,4.127,1.256.856s.885-6.709.985-8.54c0-.083.01-.165.014-.246.1-1.689.175-2.866-1.182-7.637a13.492,13.492,0,0,1-.127-5.452c.442-2.141-.064-4.583,1.637-11.312,1.323-5.237,3.041-11.948,2.985-18.118-.033-3.624.628-6.091,2.037-12.091,1.18-5.023,2.988-9.789,4.507-15.759.491.8.93,1.358,1.133,1.68H19.8c.016.15.03.3.044.449a72.656,72.656,0,0,1-1.876,19.2c-.747,3.462-2.749,9.029-4.556,14.4-.324.938-.594,1.714-.774,2.332-.918,2.813-1.72,5.474-2.184,7.633a20.017,20.017,0,0,0-.584,3.639h.01a62.964,62.964,0,0,0,0,17.242c2.505,20.782,10.567,41.718,9.923,48.917S16.9,216.3,19.2,226.155s3.506,19.144,5.12,25.126,1.537,6.718,1.6,8.972c.1,3.439-.83,9.384-1.155,11.808s-1.691,3.8-2.8,5.765-.39,3.635.748,3.832a53.455,53.455,0,0,0,5.447,1.638c4.96,1.048,5.193-.759,5.512-1.081.716-.721.325-2.817.13-5.9-.278-4.376-.038-7.892-.456-10.482-.012-.076-.024-.15-.037-.223s-.02-.117-.031-.174l-.007-.039c-.011-.062-.023-.124-.035-.184l0-.021c-.171-.883-.355-1.538-.5-2.28a16.671,16.671,0,0,1-.293-3.565c.018-3.393-.813-20.373.455-30.69,1.441-11.722-.406-23.222-.615-27.955s1.807-22.617,2.333-30.412c.354-5.247,1.144-18.7,1.482-28.886a3.391,3.391,0,0,0-.072-.77.792.792,0,0,0,.385.041,1.71,1.71,0,0,0,.419-.061,3.323,3.323,0,0,0-.078.789c.338,10.183,1.128,23.639,1.482,28.886.526,7.8,2.542,25.68,2.333,30.412s-2.056,16.232-.615,27.955c1.268,10.318.437,27.3.455,30.69s-.52,4.061-.911,6.485c-.417,2.589-.178,6.106-.455,10.482-.2,3.079-.586,5.175.13,5.9.319.321.553,2.128,5.512,1.081a53.55,53.55,0,0,0,5.448-1.638c1.138-.2,1.854-1.867.748-3.832s-2.471-3.341-2.8-5.765-1.252-8.369-1.154-11.808c.064-2.254-.013-2.99,1.6-8.972s2.816-15.274,5.12-25.126.04-20.725-.6-27.924,7.321-28.135,9.825-48.917c1.629-13.519-.241-21.232-1.747-24.973-.342-1.029-.718-2.1-1.113-3.2l0,0c-.018-.047-.039-.1-.061-.158q-.192-.532-.389-1.069c-.183-.509-.391-1.086-.6-1.627-1.988-5.345-4.133-10.831-4.864-14.218a59.9,59.9,0,0,1-.71-19.759c.183-.271.537-.759.941-1.455,1.563,6,3.464,10.785,4.635,15.832,1.393,6,2.047,8.472,2,12.1-.073,6.17,1.626,12.886,2.935,18.126,1.682,6.734,1.169,9.175,1.605,11.317a13.489,13.489,0,0,1-.143,5.452c-1.436,4.995-1.772,6.061-1.678,7.893s.792,5.272.961,8.543,1.076.665,1.259-.853a40.262,40.262,0,0,1,.648-5.118c.682-2.561,3.115,2.3,2.388,4.631s-.584,3.835-1.05,4.909a18.07,18.07,0,0,1-3.256,3.811c-.93.9-.579,2.031-.258,1.948s4.958-4.261,5.37-5.134,2.495-8.461,2.8-8.871.516-1.372-.6-5.873" transform="translate(0 0.195)" fill="#fff" stroke="#6d7278" stroke-miterlimit="10" stroke-width="1"/>
      </g>
      <path id="Fill_9" data-name="Fill 9" d="M22.307.207C6.821-1.9,3.141,12.409,1.6,27.464.442,38.761-.192,50.827.052,54.789c.5,8.175,2.993,14.432,7.533,18.685,3.489,3.267,8.5,2.746,8.5,2.746a12.267,12.267,0,0,1-7.3-6.186c1.094,2.218,6.223,4.071,8.57,3.842a11.813,11.813,0,0,1-6.845-5.023c-3.226-5.036-2.855-7.5-2.855-7.5,1.651,2.947,6.054,3.081,6.054,3.081-4.093-2.009-4.54-5.09-4.54-5.09.739,1.3,3.781,2.08,3.164,1.473C5.865,54.454,14.52,54.789,8,47.2c-.929-1.08.14.34,2.451,1.532,3.457,1.783,4.566,1.13,4.566,1.13-4.093-2.378-4.356-5.741-4.356-5.741.813,2.294,4.828,3.994,4.511,3.581-4.283-5.576-2.964-9.523-2.907-16.023.061-6.891.693-14.424,2.442-19.288,2.167-6.028,7.027-4.947,9.7-4.822,5.353.251,6.48,6.319,6.914,15.806.26,5.691,2.27,9.309-.275,20.426-1.959,8.556,3.44,11.05,1.513,17.011a14.138,14.138,0,0,1-3.779,6.121c5.433-3.214,5.275-6.6,5.43-6.657.187-.068.384.106.561.216l-.561-.216a18.516,18.516,0,0,1-6.872,15.949s5.84-1.851,8.553-6.308c-1.956,6.734-6.978,7.97-6.565,7.939,2.924-.218,6.8-.9,9.631-6.6,6.5-13.059,2.993-44.2-1.651-60.073C33.382-2.214,22.307.207,22.307.207Z" transform="translate(15 0)" fill="#fff" stroke="#6d7278" stroke-miterlimit="10" stroke-width="1"/>
    </g>
  </g>
</svg>
