<svg xmlns="http://www.w3.org/2000/svg" xmlns:xlink="http://www.w3.org/1999/xlink" width="69.732" height="288.859" viewBox="0 0 69.732 288.859">
  <defs>
    <clipPath id="clip-path">
      <path id="Clip_3" data-name="Clip 3" d="M0,0H-69.732V284.486H0Z" transform="translate(0 -0.195) rotate(-180)" fill="none"/>
    </clipPath>
    <clipPath id="clip-path-2">
      <path id="Clip_12" data-name="Clip 12" d="M0,0H-39.735V55.041H0Z" transform="translate(0.026 -0.141) rotate(-180)" fill="none"/>
    </clipPath>
  </defs>
  <g id="Group_15" data-name="Group 15" transform="translate(69.732 -0.141) rotate(180)">
    <path id="Fill_1" data-name="Fill 1" d="M0,26H-12V0H0Z" transform="translate(34 -33) rotate(-180)" fill="#fff"/>
    <g id="Group_14" data-name="Group 14">
      <g id="Group_4" data-name="Group 4" transform="translate(0 -4.318)">
        <path id="Clip_3-2" data-name="Clip 3" d="M0,0H-69.732V284.486H0Z" transform="translate(0 -0.195) rotate(-180)" fill="none"/>
        <g id="Group_4-2" data-name="Group 4" clip-path="url(#clip-path)">
          <path id="Fill_2" data-name="Fill 2" d="M-69.022,152.144c.487-2.229,2.418-7.833,1.864-12.545-.438-3.731-1.809-9.866-2.109-18.548s2.356-13.193,3.1-20.078.82-18.954,1.018-26.059A103.542,103.542,0,0,1-63.611,61a12.858,12.858,0,0,1,.275-1.488c.034-.173.06-.3.075-.368l.023,0a9.146,9.146,0,0,1,6.185-6.634c1.221-.364,3.405-.856,5.734-1.533h0l.028-.008c.734-.214,1.482-.447,2.218-.7.35-.128.738-.274,1.191-.451,0,.005,0,.013,0,.02a14.709,14.709,0,0,0,4.492-2.482c1.9-1.73-.369-5.942-.584-8.9-.023-.105,1.046-.6,1.023-.7-.017-.279,1.224-.156,1.2-.406-.01-.018-1.531-.248-1.541-.266-.032-.427-.908-.564-.938-.847-.789-.842.047-1.149-.528-1.976-7.616-4.669-9.966-15.579-2.857-28.433C-45.362,1.755-41.573,0-34.937,0s11.021,2.642,13.7,6.592c11.2,16.528,2.817,22.53-4.456,27.122a22.043,22.043,0,0,1-2.243,2.668c-.068.513-.144,1.18-.2,1.935,0,0,0,0,0,.007q-.009.1-.015.211v.01c0,.068-.009.137-.014.206,0,.007,0,.015,0,.022l-.012.2c0,.011,0,.022,0,.032,0,.062-.007.126-.01.189,0,.017,0,.034,0,.051,0,.059-.006.12-.008.18,0,.02,0,.039,0,.058,0,.058,0,.117-.007.176,0,.023,0,.045,0,.067,0,.056,0,.112-.005.168,0,.026,0,.052,0,.079,0,.053,0,.107,0,.161,0,.029,0,.058,0,.088,0,.051,0,.1,0,.155v.1c0,.05,0,.1,0,.15v.1c0,.048,0,.1,0,.146v.108c0,.047,0,.093,0,.14s0,.077,0,.116,0,.09,0,.136,0,.079,0,.119,0,.088,0,.133,0,.082.006.123,0,.085.006.127,0,.086.007.129.005.082.008.124.006.087.009.131.006.082.009.122.007.087.011.131l.011.122c0,.043.008.086.012.129s.009.082.013.123.009.084.014.126.01.082.015.124.01.083.016.124.011.084.017.127l.017.117c.007.044.013.087.02.13s.012.075.019.112.015.089.023.134.013.069.019.1.018.093.027.139l.02.1c.011.048.021.1.032.145.006.028.013.056.019.084.012.051.024.1.036.151l.019.074c.014.053.028.106.042.159.005.02.011.04.017.06.016.056.032.113.049.169l.014.045c.019.06.038.12.058.179l.01.029c.022.064.044.127.067.19l0,.012a4.737,4.737,0,0,0,1.063,1.74l-.009,0c.035.035.071.07.108.1a14.777,14.777,0,0,0,4.521,2.493s0-.011,0-.015c.387.154.761.293,1.124.422.541.186,1.087.361,1.631.526.243.07.483.137.719.2,0,0,0,.01,0,.016,2.305.668,4.46,1.154,5.67,1.514,3.4,1.011,5.5,4,6.477,6.968a8.549,8.549,0,0,1,.424,1.609H-5.82A111.463,111.463,0,0,1-4.587,74.913c.2,7.105.269,19.174,1.018,26.059s3.4,11.4,3.1,20.078S-2.136,135.867-2.574,139.6c-.554,4.712,1.378,10.316,1.865,12.545.992,4.546.75,5.5.429,5.906S-2.938,166-3.38,166.86s-5.265,4.915-5.593,4.988-.65-1.07.319-1.946a18.185,18.185,0,0,0,3.412-3.724c.5-1.063.4-2.572,1.209-4.891s-1.021-7.262-1.788-4.714a39.977,39.977,0,0,0-.809,5.112c-.23,1.517-1.227,4.1-1.3.818s-.679-6.754-.72-8.594c0-.068,0-.134,0-.2-.043-1.723-.1-2.882,1.444-7.664a13.4,13.4,0,0,0,.306-5.462c-.378-2.161.213-4.592-1.292-11.394-1.171-5.293-2.694-12.077-2.437-18.261.151-3.632-.438-6.127-1.672-12.188-1.06-5.21-2.445-10.164-3.606-16.425a14.938,14.938,0,0,1-1.138,2.2c-2.27,6.678-5.174,13.135-4.192,19.143l.007.041c.038.228.081.456.13.683.8,3.658,3.713,9,6.267,14.033.026-.01,1.674,3.208,1.6,3.244a25.641,25.641,0,0,1,2.586,7.4c1.294,4.415,2.18,11.1,1.009,20.713-2.539,20.846-9.03,41.846-8.378,49.067s2.947,18.127.612,28.01-3.555,19.2-5.19,25.2-1.558,6.739-1.623,9c-.1,3.449.841,9.413,1.17,11.844s1.714,3.811,2.835,5.782.4,3.647-.758,3.843a54.64,54.64,0,0,1-5.522,1.643c-5.028,1.051-5.264-.762-5.588-1.084-.725-.723-.33-2.826-.132-5.914.281-4.389.039-7.917.462-10.513q.019-.115.038-.224c.008-.048.017-.094.025-.141,0-.024.009-.05.013-.073.01-.053.019-.1.029-.155l.009-.05.035-.176,0-.02c.012-.057.023-.114.035-.169l0-.021c.136-.637.276-1.166.4-1.734h0l.035-.168a16.567,16.567,0,0,0,.3-3.573c-.019-3.4.824-20.435-.462-30.784-1.461-11.758.411-23.293.623-28.04s-1.832-22.686-2.365-30.505c-.359-5.263-1.16-18.761-1.5-28.975a3.7,3.7,0,0,1,.062-.769.8.8,0,0,1-.379.039,1.747,1.747,0,0,1-.411-.057,3.712,3.712,0,0,1,.066.788c-.342,10.214-1.143,23.711-1.5,28.975-.533,7.819-2.577,25.758-2.365,30.505s2.084,16.282.624,28.04c-1.286,10.349-.443,27.381-.462,30.784s.527,4.074.923,6.505c.423,2.6.18,6.124.462,10.513.2,3.088.593,5.191-.132,5.914-.324.323-.56,2.135-5.588,1.084a54.61,54.61,0,0,1-5.522-1.643c-1.154-.2-1.879-1.872-.758-3.843s2.505-3.351,2.835-5.782,1.269-8.395,1.171-11.844c-.065-2.261.013-3-1.623-9s-2.855-15.32-5.19-25.2-.041-20.789.611-28.01-5.838-28.221-8.377-49.067c-1.171-9.613-.285-16.3,1.009-20.713a25.628,25.628,0,0,1,2.585-7.392,14.408,14.408,0,0,1,1.6-3.247c2.555-5.036,5.47-10.376,6.268-14.034,1.348-6.18-1.552-12.912-4.04-19.843a14.667,14.667,0,0,1-1.159-2.192c-1.159,6.245-2.541,11.19-3.6,16.391-1.234,6.061-1.823,8.556-1.672,12.188.257,6.184-1.266,12.968-2.437,18.261-1.5,6.8-.913,9.234-1.291,11.394a13.4,13.4,0,0,0,.306,5.462c1.6,4.965,1.975,6.024,1.934,7.864s-.647,5.309-.721,8.594-1.071.7-1.3-.818a39.977,39.977,0,0,0-.809-5.112c-.767-2.548-3.087,2.4-2.282,4.714s.705,3.828,1.209,4.891a18.179,18.179,0,0,0,3.412,3.724c.969.876.647,2.019.319,1.946s-5.151-4.124-5.593-4.988-2.779-8.409-3.1-8.811-.563-1.36.429-5.906" transform="translate(0 -0.195) rotate(-180)" fill="#fff" stroke="#6d7278" stroke-miterlimit="10" stroke-width="1"/>
        </g>
      </g>
      <path id="Fill_7" data-name="Fill 7" d="M0,0-36.565.532-17.831,31.1Z" transform="translate(17.268 -71.885) rotate(-180)" fill="#fff" stroke="#02bfaf" stroke-miterlimit="10" stroke-width="3"/>
      <path id="Fill_9" data-name="Fill 9" d="M-36.565,31.1,0,30.567-18.734,0Z" transform="translate(16.447 -103.405) rotate(-180)" fill="#fff" stroke="#02bfaf" stroke-miterlimit="10" stroke-width="3"/>
      <g id="Group_13" data-name="Group 13" transform="translate(15.333)">
        <path id="Clip_12-2" data-name="Clip 12" d="M0,0H-39.735V55.041H0Z" transform="translate(0.026 -0.141) rotate(-180)" fill="none"/>
        <g id="Group_13-2" data-name="Group 13" clip-path="url(#clip-path-2)">
          <path id="Fill_11" data-name="Fill 11" d="M-20.471,8.724c-1.273-1.815-2.649,2.765-5.194,6.883-3.154,5.1-6.028,8.418-5.568,14.514.269,3.57,1.713,9.124,6.186,12.927.045.039.088.079.132.119a7.261,7.261,0,0,1-2.677-1.04s.348,5.362,2.61,8.847c1.731,2.666-2.53,3.677-4.11,3.745-2.151.092-7,.508-8.754-2.988-2.811-5.6-2.171-12.355-.134-24.011.81-4.635.091-10.562,3.989-18.249C-30.215,2.028-24.7-1.521-19.774.614c0,0,6-3.095,13.386,5.869,4.146,5.03,6.159,12.078,6.211,25.292.035,8.828,1.821,18.782-6.735,21.67-.758.256-3.578,2.387-7.159,1.28-.763-.236.079-.628.281-1.706a10.593,10.593,0,0,0-.683-4.249c-1.365-4.322,1.654-8.81,4.123-11.979C-8.3,34.164-5.96,31.616-7.138,23.878-7.9,18.9-15.58,15.7-20.471,8.724Z" transform="translate(0.026 -0.14) rotate(-180)" fill="#fff" stroke="#6d7278" stroke-miterlimit="10" stroke-width="1"/>
        </g>
      </g>
    </g>
  </g>
</svg>
