<svg xmlns="http://www.w3.org/2000/svg" xmlns:xlink="http://www.w3.org/1999/xlink" width="68.887" height="308.543" viewBox="0 0 68.887 308.543">
  <defs>
    <clipPath id="clip-path">
      <path id="Clip_2" data-name="Clip 2" d="M0,0H-68.887V285.471H0Z" transform="translate(0 -0.206) rotate(-180)" fill="none"/>
    </clipPath>
  </defs>
  <g id="Group_10" data-name="Group 10" transform="translate(68.887 0.543) rotate(180)">
    <g id="Group_3" data-name="Group 3" transform="translate(0 -6)">
      <path id="Clip_2-2" data-name="Clip 2" d="M0,0H-68.887V285.471H0Z" transform="translate(0 -0.206) rotate(-180)" fill="none"/>
      <g id="Group_3-2" data-name="Group 3" clip-path="url(#clip-path)">
        <path id="Fill_1" data-name="Fill 1" d="M-68.163,152.67c.5-2.237,2.466-7.86,1.9-12.588-.447-3.744-1.845-9.9-2.151-18.613s2.4-13.239,3.166-20.147-1.279-16.852-1.685-26.149a94.173,94.173,0,0,1,.041-12.907c.466-3.833,2.7-7.391,6.8-8.59,1.141-.335,3.6-.938,6.335-1.725a18.841,18.841,0,0,0,3.46-1.064c2.982-.988,5.792-2.147,7.164-3.372,1.942-1.736,2.023-5.963,1.8-8.927l-.071-.316c-.017-.28-.037-.545-.059-.8l-.032-.053c-.033-.428-.066-.781-.1-1.065A23.091,23.091,0,0,1-43.7,33.8c-7.766-4.685-16.566-10.923-3.742-27.956C-44.617,2.094-41.282,0-34.516,0s11.239,2.651,13.969,6.615C-9.121,23.2-17.674,29.223-25.091,33.831a22.206,22.206,0,0,1-2.287,2.676c-.049.368-.1.813-.151,1.314a0,0,0,0,1,0,0q-.009.094-.018.191c0,.006,0,.012,0,.018-.006.06-.011.121-.016.183,0,.011,0,.021,0,.032-.005.06-.01.12-.015.181,0,.012,0,.024,0,.037,0,.06-.009.12-.014.18l0,.044-.012.176c0,.018,0,.035,0,.053l-.01.171c0,.021,0,.041,0,.062,0,.055-.006.11-.009.165,0,.025,0,.049,0,.074,0,.052-.005.1-.007.157,0,.028,0,.056,0,.084,0,.05,0,.1-.006.152,0,.031,0,.061,0,.092,0,.048,0,.1,0,.146s0,.068,0,.1,0,.093,0,.14l0,.11c0,.045,0,.09,0,.135s0,.077,0,.116,0,.087,0,.131,0,.081,0,.122,0,.084,0,.126,0,.086,0,.129l0,.122c0,.044,0,.088,0,.132s0,.081,0,.122,0,.089,0,.134,0,.08,0,.119,0,.091.006.136l.006.117c0,.047.005.093.008.14s.005.076.007.114.006.094.01.141.006.076.009.114.007.093.012.139.007.077.011.116.008.09.013.135.008.079.013.118l.015.132c0,.04.01.079.015.119s.011.086.017.129l.017.122c.006.041.012.082.018.123l.02.126.02.116c.007.044.015.088.023.131l.02.106.028.138.02.1c.011.049.021.1.032.145l.02.084c.012.052.024.1.037.154l.018.071q.021.082.044.162c.005.019.011.038.016.057.017.058.034.116.051.172l.013.041c.02.062.04.123.061.184l.008.024q.034.1.071.2l0,.006a4.744,4.744,0,0,0,1.085,1.75l-.009,0c.036.035.072.071.11.1,1.335,1.193,4.032,2.322,6.924,3.293.167.051,2.257.686,3.985,1.225,2.621.747,4.949,1.32,6.05,1.643a11.244,11.244,0,0,1,7.093,7.309,6.773,6.773,0,0,1,.347,1.3c.311.849.067,3.841-.639,12.792-.335,4.249-1.116,10.325-1.529,16a62.787,62.787,0,0,0-.081,10.246c.763,6.908,3.471,11.435,3.166,20.147s-1.7,14.868-2.151,18.613c-.565,4.728,1.405,10.352,1.9,12.588,1.012,4.561.765,5.523.438,5.926S-3,166.57-3.447,167.437s-5.368,4.932-5.7,5.005-.664-1.074.325-1.953a18.361,18.361,0,0,0,3.479-3.737c.514-1.066.412-2.581,1.233-4.908s-1.041-7.287-1.823-4.73a39.466,39.466,0,0,0-.824,5.129c-.235,1.522-1.252,4.116-1.327.821s-.693-6.778-.735-8.624c0-.068,0-.134,0-.2-.044-1.729-.1-2.892,1.472-7.691a13.226,13.226,0,0,0,.312-5.481c-.386-2.168.218-4.608-1.317-11.433-1.194-5.312-2.747-12.119-2.485-18.325.154-3.645-.447-6.148-1.7-12.23-.959-4.636-.752-9.071-.8-14.4-.067.107-.127.2-.178.279h-.12c-2.087,6.637-4.409,13.09-3.377,19.051.043.244.09.488.143.73.712,3.215,1.873,8.395,2.922,13.569.223.978.378,1.857.5,2.5l.059.305c.037.184.073.353.109.5l-.011.006a90.1,90.1,0,0,1,1.667,11.3l-.01,0a61.711,61.711,0,0,1,0,17.354c-2.589,20.918-6.283,41.991-5.618,49.236s3.005,18.189.624,28.107-3.625,19.269-5.293,25.29-1.589,6.762-1.655,9.031c-.1,3.461.857,9.445,1.193,11.885s1.748,3.824,2.891,5.8.4,3.659-.773,3.857a56.357,56.357,0,0,1-5.631,1.649c-5.127,1.055-5.368-.764-5.7-1.088-.74-.726-.337-2.835-.135-5.934.287-4.4.039-7.944.471-10.55q.019-.115.038-.224c.011-.06.021-.117.032-.175,0-.013.005-.026.007-.039q.018-.095.036-.185c0-.007,0-.014,0-.021.176-.888.367-1.547.52-2.295a16.322,16.322,0,0,0,.3-3.588c-.019-3.415.841-20.506-.47-30.891-1.49-11.8.419-23.374.636-28.137s-1.868-22.765-2.412-30.611c-.366-5.282-1.183-18.826-1.532-29.075a4.087,4.087,0,0,1,.054-.769.813.813,0,0,1-.377.036,1.839,1.839,0,0,1-.407-.053,4.186,4.186,0,0,1,.055.787c-.349,10.249-1.166,23.793-1.532,29.075-.544,7.846-2.627,25.847-2.411,30.611s2.125,16.338.636,28.137c-1.311,10.385-.451,27.476-.47,30.891s.538,4.088.941,6.528c.431,2.606.184,6.145.471,10.55.2,3.1.605,5.209-.134,5.934-.33.324-.571,2.143-5.7,1.088a56.377,56.377,0,0,1-5.631-1.649c-1.176-.2-1.916-1.879-.773-3.857s2.555-3.363,2.891-5.8,1.294-8.424,1.193-11.885c-.066-2.269.013-3.01-1.655-9.031s-2.91-15.373-5.292-25.29-.041-20.861.624-28.107-2.625-28.318-5.214-49.236a61.756,61.756,0,0,1,0-17.343,109.488,109.488,0,0,1,1.6-11.787l-.04-.019c.12-.538.341-2.291.63-3.462l.034.015c.921-4.974,1.929-9.872,2.61-12.946,1.366-6.162-.841-12.873-2.991-19.781h-.135l-.059-.091c-.191,5.242-.2,9.626-1.146,14.208-1.258,6.082-1.859,8.585-1.705,12.23.262,6.205-1.291,13.013-2.485,18.325-1.535,6.825-.931,9.265-1.317,11.433a13.227,13.227,0,0,0,.312,5.481c1.635,4.982,2.014,6.045,1.972,7.891s-.66,5.328-.735,8.624-1.092.7-1.327-.821a39.409,39.409,0,0,0-.825-5.129c-.782-2.556-3.148,2.4-2.327,4.73s.719,3.841,1.233,4.908a18.359,18.359,0,0,0,3.479,3.737c.989.879.66,2.026.325,1.953s-5.252-4.138-5.7-5.005S-68.274,159-68.6,158.6s-.574-1.365.438-5.926" transform="translate(0 -0.206) rotate(-180)" fill="#fff" stroke="#6d7278" stroke-miterlimit="10" stroke-width="1"/>
      </g>
    </g>
    <path id="Fill_4" data-name="Fill 4" d="M0,.544A.6.6,0,0,0-.541,0,.424.424,0,0,0-1,.437.6.6,0,0,0-.432,1,.437.437,0,0,0,0,.544" transform="translate(49 -307) rotate(-180)"/>
    <g id="Fill_6" data-name="Fill 6">
      <path id="Fill_6-2" data-name="Fill 6" d="M0,0H-32l17.16,49Z" transform="translate(18 -84) rotate(-180)" fill="#fff" stroke="#979797" stroke-miterlimit="10" stroke-width="1"/>
      <path id="Fill_6-3" data-name="Fill 6" d="M0,0H-32l17.16,49Z" transform="translate(18 -84) rotate(-180)" fill="none" stroke="#02bfaf" stroke-miterlimit="10" stroke-width="3"/>
    </g>
    <path id="Fill_8" data-name="Fill 8" d="M47,43.076c-5.562-4.007-4.379-7.606-3.529-10.35,3.667-11.839-.689-16.527-2.1-21.873C37.538-3.657,21.563.574,21.563.574,6.143-1.275,8.326,11.043,5.434,15.516c-9.8,15.152.486,21.24-2.628,27.605-2.225,4.548-4.046,9.627-1.731,11.8,2.132,2,3.33,1.73,4.635,3.032C7.777,60.018,6.761,63,6.761,63c2.682-4.756,2.553-5.977,1.03-8.112C4.4,50.133,10.716,51.334,11.705,46.8c.375-1.718-1.483,6.28-1.483,6.28C8,59.255,15.166,61.475,15.166,61.475c.082-1.245-4.573-1.606-1.221-5.979,1.465-1.912,3.119-2.364,3.981-4.055a8.315,8.315,0,0,0-.185-8.5,4.2,4.2,0,0,1,2.06,2.481c.494,1.746-.865,3.681-.865,3.681,3.585-3.221,4.264-6.38,1.051-12.046-2.4-4.224-6.118-5.9-4.656-11.117C16.762,20.835,22.4,18,22.267,12.8c.346,2.172,3.274,4.8,3.274,4.8-1.383-3.034.151-5.569.5-5.659.288-.074.274,1.341.742,2.41a13.078,13.078,0,0,1,.989,3.943c.35-1.57.964-1.576,1.38-2.689a9.328,9.328,0,0,0,.329-2.869,11.681,11.681,0,0,1,1.236,5.5c1.442-2.13,1.25-5.956,1.421-6.01.908-.283-.5,1.39.361,3.23a13.409,13.409,0,0,1,1.123,3.483,7.79,7.79,0,0,0,1.811-3.256c-.442,5.479,1.849,7.309,2.721,9.682,1.9,5.158-4.574,11.386-6.072,13.011C28.8,41.934,24.807,50.34,30,54.418c1.789,1.405,2.194,3.916,5.686,4.584A4.92,4.92,0,0,1,34.2,57.318a2.961,2.961,0,0,1-.123-2.52,6.089,6.089,0,0,0,2.244,1.861c1.191.609,1.992,1.742,3.393,2.342,0,0-1.891-2.211-1.99-3.564-.148-2.025,1.182-3.772-1.456-6.486,1.256-.027,1.241,1.43,2.095,2.091a4.067,4.067,0,0,0,2.174.993.924.924,0,0,1-.495-1.16c.683-3.057-1.4-4.123-1.761-7.485-.019-.18-.031-.358-.039-.534.759.7,1.565.993,2.264,1.644,2.41,2.247,1.977,4.5,1.977,4.5,1.823-2.578,2.769-4.229-1.3-8.4-1.875-1.922-.556-4.954-.556-4.954C39.969,42,47,43.076,47,43.076Z" transform="translate(58) rotate(-180)" fill="#fff" stroke="#6d7278" stroke-miterlimit="10" stroke-width="1"/>
  </g>
</svg>
