<svg xmlns="http://www.w3.org/2000/svg" xmlns:xlink="http://www.w3.org/1999/xlink" width="68.887" height="290.52" viewBox="0 0 68.887 290.52">
  <defs>
    <clipPath id="clip-path">
      <path id="Clip_2" data-name="Clip 2" d="M0,0H-68.887V285.8H0Z" transform="translate(0 -0.196) rotate(-180)" fill="none"/>
    </clipPath>
  </defs>
  <g id="Group_7" data-name="Group 7" transform="translate(68.887 0.52) rotate(180)">
    <g id="Group_3" data-name="Group 3" transform="translate(0 -4)">
      <path id="Clip_2-2" data-name="Clip 2" d="M0,0H-68.887V285.8H0Z" transform="translate(0 -0.196) rotate(-180)" fill="none"/>
      <g id="Group_3-2" data-name="Group 3" clip-path="url(#clip-path)">
        <path id="Fill_1" data-name="Fill 1" d="M-66.262,140.245c-.447-3.749-1.845-9.912-2.151-18.634s2.4-13.254,3.166-20.171.836-19.042,1.038-26.18A102.486,102.486,0,0,1-62.648,61.3c.469-3.817,1.5-7.353,5.58-8.548,1.245-.365,3.471-.86,5.847-1.54l.028-.008c.748-.215,1.51-.449,2.261-.7.358-.128.753-.276,1.215-.454,0,.005,0,.013,0,.02a15.066,15.066,0,0,0,4.581-2.493c1.942-1.738,2.023-5.97,1.8-8.937l-.071-.316c-.017-.28-.037-.546-.059-.8l-.032-.053c-.033-.428-.066-.782-.1-1.066a23.079,23.079,0,0,1-2.11-2.561c-7.766-4.69-16.566-10.936-3.742-27.989C-44.617,2.1-41.283,0-34.516,0s11.239,2.654,13.969,6.623c11.425,16.6,2.873,22.634-4.544,27.247a22.172,22.172,0,0,1-2.287,2.68c-.075.565-.161,1.315-.222,2.164v.01c-.005.07-.01.141-.014.213v.015c0,.069-.008.138-.013.208,0,.008,0,.016,0,.025,0,.066-.007.133-.011.2l0,.038c0,.063-.006.126-.008.19,0,.017,0,.034,0,.052,0,.06,0,.121-.007.183,0,.021,0,.041,0,.062,0,.059,0,.118,0,.178l0,.069c0,.057,0,.115,0,.172,0,.026,0,.052,0,.078,0,.055,0,.11,0,.166,0,.029,0,.058,0,.086,0,.053,0,.107,0,.16v.093c0,.053,0,.105,0,.158v.1c0,.051,0,.1,0,.153l0,.1c0,.049,0,.1,0,.148s0,.071,0,.107,0,.1.006.145,0,.075.005.112,0,.093.007.14,0,.077.007.116.005.091.008.137.006.078.008.118.007.09.011.135.006.079.01.119.008.09.012.135.008.077.012.116l.015.137.013.113c.005.046.011.092.017.138s.01.073.015.109.013.094.02.14.01.07.016.105.015.1.023.143l.016.1.027.147c.005.031.011.061.017.092.01.051.019.1.03.152.005.028.012.055.017.082.012.053.023.106.035.159.006.024.011.048.017.071.013.055.027.11.04.165l.016.061q.023.087.047.172l.014.048q.026.092.054.182l.01.032c.02.065.041.129.063.192,0,.006,0,.011.006.017q.035.1.073.2a4.748,4.748,0,0,0,1.086,1.755l-.009,0c.036.035.072.071.11.1a15.135,15.135,0,0,0,4.61,2.5s0-.011,0-.015c.394.154.773.293,1.142.423.553.188,1.112.364,1.669.53q.371.105.731.2c0,.005,0,.01,0,.015,2.351.671,4.548,1.16,5.781,1.522,2.919.856,4.338,3.126,5.162,5.6a15.9,15.9,0,0,1,.766,3.014,111.787,111.787,0,0,1,1.252,13.9c.2,7.138.275,19.263,1.038,26.18s3.471,11.448,3.166,20.171-1.7,14.886-2.151,18.634c-.565,4.734,1.405,10.364,1.9,12.6,1.012,4.567.765,5.529.438,5.933s-2.71,7.983-3.161,8.852-5.368,4.938-5.7,5.011-.663-1.075.325-1.955a18.374,18.374,0,0,0,3.479-3.741c.514-1.068.412-2.584,1.233-4.913s-1.04-7.3-1.823-4.736a39.73,39.73,0,0,0-.825,5.135c-.234,1.524-1.251,4.121-1.326.822s-.692-6.786-.735-8.634c0-.068,0-.134,0-.2-.044-1.731-.1-2.9,1.472-7.7a13.268,13.268,0,0,0,.312-5.488c-.386-2.171.218-4.614-1.317-11.447-1.194-5.318-2.747-12.133-2.485-18.346.154-3.649-.447-6.156-1.705-12.244-1-4.817-2.051-9.417-3.021-15.022-.177.266-.333.489-.456.668a69.309,69.309,0,0,0-.351,20.024c.41,3.316,1.625,8.6,2.8,13.844.3,1.3.535,2.389.709,3.121l-.012.006a78.322,78.322,0,0,1,1.945,11.249l-.01,0a61.88,61.88,0,0,1,0,17.374c-2.589,20.942-6.989,42.04-6.324,49.294s3.005,18.211.624,28.139-3.625,19.291-5.292,25.32-1.589,6.77-1.655,9.041c-.1,3.465.857,9.456,1.193,11.9s1.748,3.829,2.891,5.809.4,3.664-.773,3.861a56.351,56.351,0,0,1-5.631,1.651c-5.127,1.056-5.368-.765-5.7-1.089-.74-.727-.337-2.839-.135-5.941.287-4.409.039-7.953.471-10.562.013-.077.025-.152.038-.225s.021-.117.032-.175c0-.013.005-.026.007-.039l.036-.185c0-.007,0-.014,0-.021.176-.889.366-1.549.52-2.3a16.406,16.406,0,0,0,.3-3.592c-.019-3.419.841-20.53-.47-30.927-1.49-11.812.419-23.4.635-28.169s-1.867-22.792-2.411-30.646c-.366-5.288-1.183-18.848-1.532-29.109a3.951,3.951,0,0,1,.057-.771.819.819,0,0,1-.38.037,1.823,1.823,0,0,1-.41-.054,4.027,4.027,0,0,1,.058.789c-.349,10.261-1.166,23.821-1.532,29.109-.544,7.855-2.627,25.877-2.411,30.646s2.125,16.357.636,28.169c-1.311,10.4-.451,27.508-.47,30.927s.538,4.093.941,6.535c.431,2.609.184,6.152.471,10.562.2,3.1.6,5.215-.135,5.941-.33.324-.571,2.145-5.7,1.089a56.332,56.332,0,0,1-5.631-1.651c-1.176-.2-1.916-1.881-.773-3.861s2.555-3.367,2.891-5.809,1.294-8.434,1.193-11.9c-.066-2.271.013-3.013-1.655-9.041s-2.91-15.391-5.292-25.32-.041-20.885.624-28.139-3.332-28.351-5.921-49.294a61.2,61.2,0,0,1,.064-17.754l-.078-.018c.2-5.694,4.037-20.878,4.846-27.824A77.8,77.8,0,0,0-52.965,84.7c-.071-.1-.151-.215-.239-.343-1.021,5.522-2.15,10.074-3.135,14.839-1.258,6.089-1.859,8.6-1.705,12.244.262,6.213-1.291,13.028-2.485,18.346-1.535,6.833-.931,9.276-1.317,11.447a13.268,13.268,0,0,0,.312,5.488c1.635,4.988,2.014,6.052,1.972,7.9s-.659,5.334-.735,8.634-1.092.7-1.326-.822a39.613,39.613,0,0,0-.825-5.135c-.782-2.559-3.149,2.407-2.327,4.736s.719,3.846,1.233,4.913a18.372,18.372,0,0,0,3.479,3.741c.989.88.66,2.028.325,1.955s-5.252-4.143-5.7-5.011-2.834-8.448-3.161-8.852-.574-1.366.438-5.933C-67.667,150.609-65.7,144.979-66.262,140.245Z" transform="translate(0 -0.196) rotate(-180)" fill="#fff" stroke="#6d7278" stroke-miterlimit="10" stroke-width="1"/>
      </g>
    </g>
    <path id="Fill_4" data-name="Fill 4" d="M0,69H-29V0H0Z" transform="translate(20 -76) rotate(-180)" fill="#fff" stroke="#02bfaf" stroke-miterlimit="10" stroke-width="3"/>
    <path id="Fill_6" data-name="Fill 6" d="M-26.481,15.6c-3.254,5.1-6.22,8.412-5.746,14.5a18.783,18.783,0,0,0,6.383,12.918c.046.039.091.079.137.119a7.645,7.645,0,0,1-2.762-1.04s.359,5.358,2.693,8.841c1.786,2.664-2.61,3.675-4.24,3.743-2.219.092-7.223.507-9.033-2.986-2.9-5.6-2.24-12.346-.138-23.993.835-4.631.093-10.554,4.116-18.235C-31.177,2.026-25.487-1.52-20.4.613c0,0,6.188-3.092,13.812,5.865C-2.314,11.5-.237,18.547-.183,31.751-.147,40.572,1.7,50.519-7.133,53.4c-.782.256-3.692,2.386-7.387,1.279-.787-.236.082-.628.29-1.7a10.281,10.281,0,0,0-.7-4.245c-1.409-4.318,1.706-8.8,4.254-11.97,2.113-2.625,4.531-5.171,3.315-12.9-.783-4.978-8.711-8.176-13.757-15.143C-22.436,6.9-23.855,11.48-26.481,15.6Z" transform="translate(14 0) rotate(-180)" fill="#fff" stroke="#6d7278" stroke-miterlimit="10" stroke-width="1"/>
  </g>
</svg>
