<svg id="header" xmlns="http://www.w3.org/2000/svg" width="279" height="58" viewBox="0 0 279 58">
  <g id="logo">
    <path id="Shape" d="M0,36.712V18.288a18.5,18.5,0,0,1,37,0V36.712a18.5,18.5,0,0,1-37,0Z" transform="translate(122 1)" fill="#02bfaf"/>
    <g id="Group" transform="translate(6 17)">
      <path id="Path" d="M13.516,17.477a1.861,1.861,0,0,1-1.853,1.852H1.853A1.861,1.861,0,0,1,0,17.477V1.852A1.832,1.832,0,0,1,1.853,0,1.861,1.861,0,0,1,3.707,1.852V15.626h7.956A1.861,1.861,0,0,1,13.516,17.477Z" transform="translate(0.362 0.226)" fill="#fd5c48"/>
      <path id="Shape-2" data-name="Shape" d="M0,9.8A9.739,9.739,0,0,1,9.538,0a9.747,9.747,0,0,1,9.584,9.8,9.747,9.747,0,0,1-9.584,9.8A9.739,9.739,0,0,1,0,9.8Z" transform="translate(19.393 0.09)" fill="#fd5c48"/>
      <path id="Path-2" data-name="Path" d="M3.978,9.845a5.93,5.93,0,0,0,5.651,6.187,5.011,5.011,0,0,0,2.486-.768,1.988,1.988,0,0,1,.995-.316A1.861,1.861,0,0,1,14.963,16.8a2.011,2.011,0,0,1-.859,1.581A9.227,9.227,0,0,1,9.538,19.6,9.728,9.728,0,0,1,0,9.845,9.72,9.72,0,0,1,9.538,0,9.729,9.729,0,0,1,14.1,1.219,1.945,1.945,0,0,1,14.963,2.8,1.861,1.861,0,0,1,13.11,4.652a1.542,1.542,0,0,1-.995-.316,5.154,5.154,0,0,0-2.486-.768A6.1,6.1,0,0,0,3.978,9.845Z" transform="translate(45.432 0.045)" fill="#fd5c48"/>
      <path id="Shape-3" data-name="Shape" d="M11.98,17.568V14.542H3.707v3.026a1.854,1.854,0,0,1-3.707,0V7.045C0,2.71,3.752,0,7.775,0c4.2,0,7.911,2.71,7.911,7.045V17.568a1.854,1.854,0,0,1-3.706,0Z" transform="translate(69.029 0.226)" fill="#fd5c48"/>
      <path id="Path-3" data-name="Path" d="M13.516,17.477h0a1.861,1.861,0,0,1-1.853,1.852H1.853A1.861,1.861,0,0,1,0,17.477H0V1.852A1.861,1.861,0,0,1,1.853,0,1.891,1.891,0,0,1,3.707,1.852V15.626h7.956A1.891,1.891,0,0,1,13.516,17.477Z" transform="translate(94.751 0.226)" fill="#fd5c48"/>
    </g>
    <g id="Group-2" data-name="Group" transform="translate(166 17)">
      <path id="Shape-4" data-name="Shape" d="M11.98,17.568V14.542H3.707v3.026a1.854,1.854,0,0,1-3.707,0V7.045C0,2.71,3.752,0,7.775,0c4.2,0,7.911,2.71,7.911,7.045V17.568a1.854,1.854,0,0,1-3.706,0Z" transform="translate(0.407 0.226)" fill="#fd5c48"/>
      <g id="Path-4" data-name="Path">
        <path id="Path-5" data-name="Path" d="M24.868,2.416,19.579,18.177A1.788,1.788,0,0,1,17.816,19.4a1.847,1.847,0,0,1-1.763-1.219L12.481,7.61,8.91,18.177A1.788,1.788,0,0,1,7.147,19.4a1.847,1.847,0,0,1-1.763-1.219L.1,2.416a1.816,1.816,0,0,1,1.13-2.3A1.887,1.887,0,0,1,3.576,1.242l3.616,10.7,3.616-10.7a.044.044,0,0,1,.045-.045c.045-.09.045-.181.09-.226a.1.1,0,0,1,.09-.09c.045-.045.09-.135.136-.181l.09-.09L11.4.474c.045-.045.09-.045.136-.09a.235.235,0,0,1,.181-.09c.045-.045.09-.045.136-.09.045,0,.09-.045.136-.045h.045c.045,0,.136-.045.181-.045a.272.272,0,0,0,.181-.045h.362a.342.342,0,0,1,.181.045c.09.045.136,0,.181.045h.045c.045,0,.09.045.136.045s.09.045.136.09.136.045.181.09.09.045.136.09l.136.135.09.09c.045.045.09.135.136.181,0,.045.045.045.09.09.045.09.09.135.09.226a.044.044,0,0,0,.045.045l3.616,10.7,3.616-10.7A1.814,1.814,0,0,1,23.918.113,1.942,1.942,0,0,1,24.868,2.416Z" transform="translate(26.44 0.203)"/>
        <path id="Path-6" data-name="Path" d="M24.868,2.416,19.579,18.177A1.788,1.788,0,0,1,17.816,19.4a1.847,1.847,0,0,1-1.763-1.219L12.481,7.61,8.91,18.177A1.788,1.788,0,0,1,7.147,19.4a1.847,1.847,0,0,1-1.763-1.219L.1,2.416a1.816,1.816,0,0,1,1.13-2.3A1.887,1.887,0,0,1,3.576,1.242l3.616,10.7,3.616-10.7a.044.044,0,0,1,.045-.045c.045-.09.045-.181.09-.226a.1.1,0,0,1,.09-.09c.045-.045.09-.135.136-.181l.09-.09L11.4.474c.045-.045.09-.045.136-.09a.235.235,0,0,1,.181-.09c.045-.045.09-.045.136-.09.045,0,.09-.045.136-.045h.045c.045,0,.136-.045.181-.045a.272.272,0,0,0,.181-.045h.362a.342.342,0,0,1,.181.045c.09.045.136,0,.181.045h.045c.045,0,.09.045.136.045s.09.045.136.09.136.045.181.09.09.045.136.09l.136.135.09.09c.045.045.09.135.136.181,0,.045.045.045.09.09.045.09.09.135.09.226a.044.044,0,0,0,.045.045l3.616,10.7,3.616-10.7A1.814,1.814,0,0,1,23.918.113,1.942,1.942,0,0,1,24.868,2.416Z" transform="translate(26.44 0.203)" fill="#fd5c48"/>
      </g>
      <path id="Shape-5" data-name="Shape" d="M11.98,17.568V14.542H3.707v3.026a1.854,1.854,0,0,1-3.707,0V7.045C0,2.71,3.752,0,7.775,0c4.2,0,7.911,2.71,7.911,7.045V17.568a1.854,1.854,0,0,1-3.706,0Z" transform="translate(61.57 0.226)" fill="#fd5c48"/>
      <path id="Path-7" data-name="Path" d="M15.958,1.671a1.459,1.459,0,0,1-.316.994L9.855,10.613v7a1.854,1.854,0,0,1-3.707,0v-7L.316,2.71A1.625,1.625,0,0,1,0,1.716,1.716,1.716,0,0,1,1.718,0,1.6,1.6,0,0,1,3.164.723L7.956,7.181,12.748.723A1.647,1.647,0,0,1,14.195,0,1.718,1.718,0,0,1,15.958,1.671Z" transform="translate(87.201 0.226)" fill="#fd5c48"/>
    </g>
  </g>
</svg>
