<svg xmlns="http://www.w3.org/2000/svg" width="64.668" height="73.3" viewBox="0 0 64.668 73.3">
  <g id="Group_2" data-name="Group 2" transform="translate(-0.333)">
    <path id="Fill_1" data-name="Fill 1" d="M1.2,73.3a1.2,1.2,0,0,1-1.051-.623,1.173,1.173,0,0,1-.1-.9l1.132-5.6a1.184,1.184,0,0,1,.643-.74l6.145-2.845v-38.6a24.15,24.15,0,0,1,48.3,0V62.548l6.246,2.89a1.188,1.188,0,0,1,.643.74l1.316,4.487.147-.2a1.185,1.185,0,0,1-.807,1.473,2.506,2.506,0,0,0-.3.154,2.1,2.1,0,0,1-.474.226c-.286,0-.426.42-.519.7-.047.139-.084.249-.121.249-.022,0-.044-.039-.067-.118l-1.312-5.787L47.5,61.105a16.126,16.126,0,0,1-30.662,0L3.321,67.361l-.982,5.087A1.2,1.2,0,0,1,1.2,73.3ZM23.123,52.341l-1.44,6.022a1.182,1.182,0,0,1-.657.8L19.01,60.1a13.764,13.764,0,0,0,26.316,0l-2.021-.932a1.185,1.185,0,0,1-.657-.8l-1.495-6.276a14.516,14.516,0,0,1-9.169,3.569A14.409,14.409,0,0,1,23.123,52.341ZM32.117,2.372a21.715,21.715,0,0,0-21.76,21.621V61.487l9.136-4.23L21.1,50.513a26.924,26.924,0,0,1-7.072-16.762.716.716,0,0,0-.081.023.444.444,0,0,1-.137.029,1.192,1.192,0,0,1-1.169-.95,1.174,1.174,0,0,1,.174-.892,15.873,15.873,0,0,1,8.357-5.575l1.49-10.129a1.192,1.192,0,0,1,1.068-1.008c.04,0,.08-.006.12-.006a1.177,1.177,0,0,1,1.119.789c1.216,3.393,2.807,7.8,3.427,9.456l7.435.247,1.906-6.946a1.182,1.182,0,0,1,1.1-.873.8.8,0,0,1,.081,0,1.245,1.245,0,0,1,1.091.773L43.178,27.1c1.434.513,6.218,2.3,7.557,3.715a1.166,1.166,0,0,1-.767,1.976,28.643,28.643,0,0,1-2.013,9.688,25.114,25.114,0,0,1-4.8,7.736l0,.006a.04.04,0,0,1,0,.015l1.675,7.017,9.04,4.185V23.993A21.716,21.716,0,0,0,32.117,2.372ZM24.339,21.315h0l-.906,6.172a1.193,1.193,0,0,1-.877.975,15.222,15.222,0,0,0-6.243,3.231.48.48,0,0,0,.016.07.354.354,0,0,1,.017.1c0,11.212,7.454,21.424,15.639,21.424S47.621,43.072,47.621,31.86a.819.819,0,0,1,.04-.221l.015-.054a48.231,48.231,0,0,0-5.813-2.429,1.2,1.2,0,0,1-.726-.7l-2.061-5.486-1.183,4.3a1.172,1.172,0,0,1-1.114.876l-.078,0-9.169-.306a1.187,1.187,0,0,1-1.03-.658C26.388,26.953,25.66,24.981,24.339,21.315Z" transform="translate(0.333)" fill="#ccc"/>
  </g>
</svg>
