<svg xmlns="http://www.w3.org/2000/svg" xmlns:xlink="http://www.w3.org/1999/xlink" width="219.628" height="296" viewBox="0 0 219.628 296">
  <defs>
    <clipPath id="clip-path">
      <path id="Clip_2" data-name="Clip 2" d="M0,0H42.56V6.528H0Z" transform="translate(0.145 0.228)" fill="none"/>
    </clipPath>
    <clipPath id="clip-path-2">
      <path id="Clip_5" data-name="Clip 5" d="M0,0H39.725V35.625H0Z" transform="translate(0 0.243)" fill="none"/>
    </clipPath>
    <clipPath id="clip-path-3">
      <path id="Clip_82" data-name="Clip 82" d="M0,0H11.924V245.878H0Z" transform="translate(0 0.059)" fill="none"/>
    </clipPath>
    <clipPath id="clip-path-4">
      <path id="Clip_115" data-name="Clip 115" d="M0,0H11.55V245.746H0Z" transform="translate(0.078 0.059)" fill="none"/>
    </clipPath>
  </defs>
  <g id="Group_4" data-name="Group 4" transform="translate(-683.999 -436)">
    <g id="Group_45" data-name="Group 45" transform="translate(684.5 435.5)">
      <g id="Group_3" data-name="Group 3" transform="translate(38.5 0.5)">
        <path id="Clip_2-2" data-name="Clip 2" d="M0,0H42.56V6.528H0Z" transform="translate(0.145 0.228)" fill="none"/>
        <g id="Group_3-2" data-name="Group 3" clip-path="url(#clip-path)">
          <path id="Fill_1" data-name="Fill 1" d="M21.257,6.528c-7.771,0-15.723-1.8-21.1-5.836A.371.371,0,0,1,.092.145.438.438,0,0,1,.679.086c4.942,3.708,12.743,5.767,21.4,5.64C30.373,5.609,37.769,3.505,41.865.1a.439.439,0,0,1,.589.031.371.371,0,0,1-.033.549C37.954,4.393,29.713,6.528,21.257,6.528" transform="translate(0.145 0.228)"/>
        </g>
      </g>
      <g id="Group_6" data-name="Group 6" transform="translate(0.5 0.5)">
        <path id="Clip_5-2" data-name="Clip 5" d="M0,0H39.725V35.625H0Z" transform="translate(0 0.243)" fill="none"/>
        <g id="Group_6-2" data-name="Group 6" clip-path="url(#clip-path-2)">
          <path id="Fill_4" data-name="Fill 4" d="M.422,35.625a.406.406,0,0,1-.074-.007.414.414,0,0,1-.341-.479l.1-.548c1.5-8.345,3.367-18.73,8.458-22.862,4.9-3.979,10.909-5.458,16.717-6.887C29.934,3.7,34.747,2.513,39.094.055a.426.426,0,0,1,.575.152.41.41,0,0,1-.155.565c-4.448,2.515-9.319,3.714-14.03,4.874C19.505,7.117,13.857,8.507,9.1,12.368,4.247,16.305,2.333,26.957.934,34.735l-.1.548a.419.419,0,0,1-.414.342" transform="translate(0 0.243)"/>
        </g>
      </g>
      <path id="Fill_7" data-name="Fill 7" d="M1.254,133a.443.443,0,0,1-.077-.007.416.416,0,0,1-.333-.485,117.58,117.58,0,0,1,5.393-17.94c.694-1.929,1.412-3.924,2.081-5.893a90.7,90.7,0,0,0,2.915-10.432c.322-1.524.5-3.124.664-4.671a41.4,41.4,0,0,1,.824-5.381,17.262,17.262,0,0,1,.653-1.965,9.745,9.745,0,0,0,.789-2.99,7.507,7.507,0,0,0-1.231-3.858,12.38,12.38,0,0,1-1.135-2.61,30.017,30.017,0,0,1-.705-5.147c-.091-1.138-.185-2.315-.356-3.389-.761-4.764-1.7-9.58-2.615-14.239q-.316-1.612-.63-3.225a141.126,141.126,0,0,1-1.872-19.2C5.063,20.9,4.489,9.88.041.595A.417.417,0,0,1,.793.237c4.52,9.435,5.1,20.543,5.657,31.286A140.542,140.542,0,0,0,8.309,50.61q.312,1.612.629,3.224C9.851,58.5,10.8,63.323,11.558,68.1c.177,1.107.272,2.3.364,3.454a29.458,29.458,0,0,0,.681,5,11.575,11.575,0,0,0,1.066,2.433A8.25,8.25,0,0,1,15,83.271a10.517,10.517,0,0,1-.842,3.248,16.568,16.568,0,0,0-.623,1.869,40.766,40.766,0,0,0-.8,5.273c-.17,1.567-.346,3.188-.677,4.752a91.384,91.384,0,0,1-2.942,10.526c-.671,1.977-1.391,3.975-2.086,5.908a116.93,116.93,0,0,0-5.358,17.812.417.417,0,0,1-.409.339" transform="translate(17.5 7.5)"/>
      <path id="Fill_9" data-name="Fill 9" d="M18.8,10a.41.41,0,0,1-.273-.1C12.663,4.668,6.887,1.778.347.8A.4.4,0,0,1,0,.342.411.411,0,0,1,.469,0c6.584.983,12.4,3.848,18.276,9,.336-.412.676-.778,1.006-1.134a14.975,14.975,0,0,0,1.5-1.8.41.41,0,0,1,.566-.109.4.4,0,0,1,.111.56,15.847,15.847,0,0,1-1.577,1.9,18.541,18.541,0,0,0-1.228,1.419.409.409,0,0,1-.287.159L18.8,10" transform="translate(1.5 35.5)"/>
      <path id="Fill_11" data-name="Fill 11" d="M38.586,36a.414.414,0,0,1-.407-.343l-.1-.549c-1.373-7.8-3.252-18.484-8.016-22.432C25.506,8.9,20.106,7.505,14.388,6.034,9.622,4.808,4.695,3.539.2.768A.415.415,0,0,1,.629.061C5.021,2.767,9.887,4.019,14.593,5.23c5.809,1.5,11.3,2.907,16,6.806,5,4.143,6.831,14.559,8.3,22.928l.1.549a.415.415,0,0,1-.335.481.391.391,0,0,1-.072.007" transform="translate(80.5 0.5)"/>
      <path id="Fill_13" data-name="Fill 13" d="M12.784,133a.407.407,0,0,1-.4-.339,119.6,119.6,0,0,0-5.2-17.825c-.917-2.627-1.866-5.343-2.712-8.044q-.515-1.645-1.018-3.285c-.743-2.413-1.511-4.908-2.329-7.34A20.6,20.6,0,0,1,.3,87.792a23.179,23.179,0,0,0-.109-4.4C.1,82.456.016,81.486,0,80.433A10.808,10.808,0,0,1,1.259,76a13.551,13.551,0,0,0,1.093-3.088c.2-1.132.3-2.357.405-3.541s.207-2.379.4-3.539c.661-4.015,1.432-8.076,2.177-12q.306-1.609.609-3.218a144.788,144.788,0,0,0,1.8-19.087C8.287,20.78,8.847,9.672,13.231.237a.4.4,0,0,1,.539-.2.421.421,0,0,1,.19.554C9.646,9.881,9.09,20.9,8.552,31.566a145.465,145.465,0,0,1-1.815,19.2q-.3,1.61-.61,3.22c-.745,3.922-1.514,7.978-2.174,11.982-.186,1.128-.29,2.321-.391,3.474-.1,1.2-.213,2.445-.414,3.613a14.386,14.386,0,0,1-1.154,3.288A10.043,10.043,0,0,0,.809,80.419c.015,1.022.1,1.975.184,2.9A23.873,23.873,0,0,1,1.1,87.87a19.747,19.747,0,0,0,.79,8.025c.822,2.443,1.592,4.943,2.336,7.362q.5,1.638,1.016,3.281c.842,2.687,1.788,5.4,2.7,8.017a120.253,120.253,0,0,1,5.235,17.953.407.407,0,0,1-.4.492" transform="translate(89.5 8.5)"/>
      <path id="Fill_15" data-name="Fill 15" d="M3.2,10l-.039,0a.409.409,0,0,1-.287-.159A18.541,18.541,0,0,0,1.647,8.419,15.847,15.847,0,0,1,.07,6.52.4.4,0,0,1,.18,5.96a.41.41,0,0,1,.566.109,14.975,14.975,0,0,0,1.5,1.8c.33.356.67.722,1.006,1.134C9.129,3.852,14.947.987,21.531,0A.41.41,0,0,1,22,.342.4.4,0,0,1,21.653.8C15.113,1.778,9.337,4.668,3.475,9.9A.41.41,0,0,1,3.2,10" transform="translate(97.5 35.5)"/>
      <path id="Fill_17" data-name="Fill 17" d="M23.073,25C17,25,10.6,22.815,6.484,18.865A22.207,22.207,0,0,1,.171.353.414.414,0,0,1,.633,0,.4.4,0,0,1,1,.45,21.4,21.4,0,0,0,7.069,18.3c6.106,5.866,17.458,7.7,24.789,4C38.9,18.741,43.386,8.951,41.862.47A.4.4,0,0,1,42.2.006a.415.415,0,0,1,.48.327C44.288,9.282,39.7,19.24,32.241,23.005A20.488,20.488,0,0,1,23.073,25" transform="translate(38.5 0.5)"/>
      <path id="Fill_19" data-name="Fill 19" d="M38.451,8A84.126,84.126,0,0,1,23.628,6.863c-3.289-.648-6.652-1.43-9.9-2.186l-1.7-.394c-3.439-.8-6.844-1.9-10.137-2.96L.288.807A.414.414,0,1,1,.543.02l1.6.517C5.421,1.6,8.81,2.691,12.213,3.479l1.7.394c3.245.754,6.6,1.534,9.876,2.179,6.054,1.193,15.972,1.366,22.061.843,1.227-.105,2.792-.219,4.6-.351,6.9-.5,17.333-1.264,20.584-2.48a56.322,56.322,0,0,1,6.753-1.9A56.328,56.328,0,0,0,84.44.3a.417.417,0,0,1,.534.242.413.413,0,0,1-.244.532,56.9,56.9,0,0,1-6.747,1.9A55.652,55.652,0,0,0,71.33,4.838C67.968,6.1,57.88,6.831,50.515,7.369c-1.809.131-3.371.245-4.593.35C43.79,7.9,41.191,8,38.451,8" transform="translate(17.5 139.5)"/>
      <path id="Fill_21" data-name="Fill 21" d="M7.122,4h0A25.373,25.373,0,0,1,.189,2.991.261.261,0,0,1,0,2.741V.259a.259.259,0,0,1,.089-.2A.262.262,0,0,1,.259,0L.3,0A51.193,51.193,0,0,0,7.113.471,43.167,43.167,0,0,0,13.546,0a.261.261,0,0,1,.3.246c.015.406.044.795.072,1.17l0,.059v.01c.03.4.061.811.077,1.243a.26.26,0,0,1-.184.257A22.876,22.876,0,0,1,7.122,4ZM.521.555v1.99a24.784,24.784,0,0,0,6.6.938,22.334,22.334,0,0,0,6.35-.931c-.016-.327-.039-.644-.062-.951L13.4,1.517,13.4,1.435c-.021-.285-.043-.578-.059-.877A44,44,0,0,1,7.109.989,51.535,51.535,0,0,1,.521.555Z" transform="translate(53.5 9.5)"/>
      <path id="Fill_23" data-name="Fill 23" d="M26.3,4A90.322,90.322,0,0,1,.173.479a.241.241,0,0,1-.161-.3A.251.251,0,0,1,.326.018c14.917,4.67,36.933,4.667,52.35-.007a.251.251,0,0,1,.312.158.241.241,0,0,1-.164.3A94.272,94.272,0,0,1,26.3,4" transform="translate(34.5 49.5)"/>
      <path id="Fill_25" data-name="Fill 25" d="M.245,10A.253.253,0,0,1,0,9.76a.26.26,0,0,1,.221-.289C7.446,8.729,18.429,5.817,25.609.052a.234.234,0,0,1,.343.055A.28.28,0,0,1,25.9.478C18.64,6.308,7.555,9.25.268,10H.245" transform="translate(50.5 56.5)"/>
      <path id="Fill_27" data-name="Fill 27" d="M9.738,6a.3.3,0,0,1-.06-.006L6.744,5.369A14.408,14.408,0,0,1,2.359,3.921,4.363,4.363,0,0,1,0,.231.265.265,0,0,1,.278,0a.25.25,0,0,1,.25.252A3.891,3.891,0,0,0,2.644,3.515,13.775,13.775,0,0,0,6.862,4.9L9.8,5.522a.242.242,0,0,1,.2.29A.259.259,0,0,1,9.738,6" transform="translate(33.5 87.5)"/>
      <path id="Fill_29" data-name="Fill 29" d="M.239,2a.263.263,0,0,1-.2-.085.163.163,0,0,1,.071-.256A16.883,16.883,0,0,1,9.8.165c.13.018.216.115.192.215a.239.239,0,0,1-.278.149A16.289,16.289,0,0,0,.369,1.97.287.287,0,0,1,.239,2" transform="translate(31.5 95.5)"/>
      <path id="Fill_31" data-name="Fill 31" d="M12.911,14a.263.263,0,0,1-.217-.112,8.971,8.971,0,0,0-4.871-3.179c-1.054-.333-2.161-.572-3.231-.8-.9-.195-1.828-.4-2.729-.652A3.109,3.109,0,0,1,.374,8.484a1.261,1.261,0,0,1-.06-1.723A1.819,1.819,0,0,1,1.005,6.4,69.668,69.668,0,0,0,9.328,2.883,15.582,15.582,0,0,0,13.55.079.266.266,0,0,1,13.919.07a.248.248,0,0,1,.01.358A16.028,16.028,0,0,1,9.567,3.333,70.221,70.221,0,0,1,1.182,6.875a1.424,1.424,0,0,0-.5.249A.771.771,0,0,0,.764,8.147a2.631,2.631,0,0,0,1.246.62c.886.252,1.806.451,2.7.644,1.082.234,2.2.476,3.279.817a9.466,9.466,0,0,1,5.143,3.378.248.248,0,0,1-.072.351.26.26,0,0,1-.145.043" transform="translate(75.5 88.5)"/>
      <path id="Fill_33" data-name="Fill 33" d="M14.556,5A102.233,102.233,0,0,1,.213,3.994.254.254,0,0,1,0,3.707a.248.248,0,0,1,.277-.219A103.293,103.293,0,0,0,44.685.01a.245.245,0,0,1,.305.172A.257.257,0,0,1,44.823.5,103.852,103.852,0,0,1,14.556,5" transform="translate(36.5 133.5)"/>
      <path id="Fill_35" data-name="Fill 35" d="M16.02,3A56.43,56.43,0,0,1,.177.749a.235.235,0,0,1-.166-.3A.253.253,0,0,1,.326.3,56.38,56.38,0,0,0,32.669.012a.256.256,0,0,1,.318.151.235.235,0,0,1-.16.3A56.477,56.477,0,0,1,16.02,3" transform="translate(50.5 140.5)"/>
      <path id="Fill_37" data-name="Fill 37" d="M4.72,11a.268.268,0,0,1-.279-.227A17.75,17.75,0,0,0,.064.4.228.228,0,0,1,.1.057.3.3,0,0,1,.5.09,18.228,18.228,0,0,1,5,10.734.259.259,0,0,1,4.742,11H4.72" transform="translate(18.5 32.5)"/>
      <path id="Fill_39" data-name="Fill 39" d="M.261,9a.279.279,0,0,1-.052-.005.248.248,0,0,1-.2-.292A18.146,18.146,0,0,1,4.545.083a.269.269,0,0,1,.368-.02.24.24,0,0,1,.021.35A17.662,17.662,0,0,0,.515,8.8.257.257,0,0,1,.261,9" transform="translate(98.5 32.5)"/>
      <path id="Fill_41" data-name="Fill 41" d="M8.751,2A26.815,26.815,0,0,1,.184.589.312.312,0,0,1,.009.218.25.25,0,0,1,.32.011,26.261,26.261,0,0,0,15.692.464a.256.256,0,0,1,.3.225.307.307,0,0,1-.189.36A26.688,26.688,0,0,1,8.751,2" transform="translate(53.5 15.5)"/>
      <path id="Fill_43" data-name="Fill 43" d="M3.819,1A17.091,17.091,0,0,1,.2.615.269.269,0,0,1,0,.3.248.248,0,0,1,.3.087,16.731,16.731,0,0,0,7.7.006a.25.25,0,0,1,.3.2A.271.271,0,0,1,7.8.532,17.161,17.161,0,0,1,3.819,1" transform="translate(58.5 20.5)"/>
    </g>
    <g id="Group_189" data-name="Group 189" transform="translate(818 456)">
      <path id="Fill_1-2" data-name="Fill 1" d="M33.584,4q-2.531,0-5.022-.034c-3.338-.037-6.917-.1-10.462-.329-1.275-.075-2.562-.178-3.932-.315A93.248,93.248,0,0,1,.327.859.436.436,0,0,1,.542.014a92.4,92.4,0,0,0,13.713,2.44c1.358.136,2.634.238,3.9.313,3.527.225,7.091.29,10.419.327,10.955.13,22.594.018,33.887-2.825a.436.436,0,0,1,.211.846C52.995,3.552,43.094,4,33.584,4" transform="translate(12)"/>
      <path id="Fill_3" data-name="Fill 3" d="M.429,16a.414.414,0,0,1-.154-.03A.447.447,0,0,1,.029,15.4c1.052-2.814,1.935-5.537,2.789-8.17C3.6,4.823,4.334,2.552,5.17.286A.424.424,0,0,1,5.724.029.447.447,0,0,1,5.972.6c-.83,2.25-1.563,4.512-2.34,6.908-.857,2.643-1.743,5.375-2.8,8.208a.43.43,0,0,1-.4.283" transform="translate(6)"/>
      <path id="Fill_5" data-name="Fill 5" d="M4.537,15a.464.464,0,0,1-.435-.277A119.761,119.761,0,0,1,.011.513.424.424,0,0,1,.364.01.466.466,0,0,1,.916.331a119.27,119.27,0,0,0,4.056,14.1.412.412,0,0,1-.276.541A.509.509,0,0,1,4.537,15" transform="translate(74)"/>
      <path id="Fill_7-2" data-name="Fill 7" d="M2.583,1H2.568Q1.48.958.393.889A.436.436,0,0,1,0,.418.422.422,0,0,1,.443,0Q1.52.068,2.6.11A.434.434,0,0,1,3,.571.43.43,0,0,1,2.583,1" transform="translate(36 20)"/>
      <path id="Fill_9-2" data-name="Fill 9" d="M2.574,1h0C1.852.995,1.135.982.415.96A.459.459,0,0,1,0,.468.454.454,0,0,1,.425,0H.437c.714.022,1.425.035,2.14.04A.456.456,0,0,1,3,.523.455.455,0,0,1,2.574,1" transform="translate(41 20)"/>
      <path id="Fill_11-2" data-name="Fill 11" d="M.374,1A.413.413,0,0,1,0,.566.419.419,0,0,1,.364.109C1.085.086,1.839.05,2.606,0A.409.409,0,0,1,3,.422a.424.424,0,0,1-.353.469C1.873.94,1.112.976.384,1Z" transform="translate(47 20)"/>
      <path id="Fill_13-2" data-name="Fill 13" d="M.445,6a.442.442,0,0,1-.033-.882c2.4-.178,4.819-.433,7.2-.758a106.866,106.866,0,0,0,12.36-2.435c2.184-.566,4.35-1.206,6.439-1.9A.447.447,0,0,1,26.977.3.441.441,0,0,1,26.7.86c-2.108.7-4.294,1.348-6.5,1.92A107.865,107.865,0,0,1,7.736,5.235C5.335,5.563,2.894,5.82.479,6H.445" transform="translate(52 15)"/>
      <path id="Fill_15-2" data-name="Fill 15" d="M.508,1A.5.5,0,0,1,0,.507a.5.5,0,0,1,.505-.5Q1,.007,1.486,0h.006A.5.5,0,0,1,2,.49a.5.5,0,0,1-.5.5C1.169,1,.839,1,.51,1Z" transform="translate(44 20)"/>
      <path id="Fill_17-2" data-name="Fill 17" d="M28.555,6H28.52c-2.413-.183-4.812-.429-7.129-.73A141.466,141.466,0,0,1,.322.872.445.445,0,1,1,.57.017a140.6,140.6,0,0,0,20.937,4.37c2.3.3,4.684.543,7.081.725A.444.444,0,0,1,28.555,6" transform="translate(6 15)"/>
      <path id="Fill_19-2" data-name="Fill 19" d="M18.671,4h-.025A76.033,76.033,0,0,1,.218.614a.312.312,0,0,1-.2-.4A.332.332,0,0,1,.441.019a75.345,75.345,0,0,0,18.254,3.35.321.321,0,0,1,.3.338A.324.324,0,0,1,18.671,4" transform="translate(10 6)"/>
      <path id="Fill_21-2" data-name="Fill 21" d="M18.682,5l-.04,0A81.73,81.73,0,0,1,.211.625.323.323,0,0,1,.019.213.318.318,0,0,1,.427.019,81.132,81.132,0,0,0,18.72,4.358.323.323,0,0,1,18.682,5" transform="translate(9 11)"/>
      <path id="Fill_23-2" data-name="Fill 23" d="M.316,17a.316.316,0,0,1-.049,0A.322.322,0,0,1,0,16.627C.355,14.338.641,12.132.917,10c.425-3.284.827-6.385,1.434-9.621l.322,0L2.362.321,2.377.247A.316.316,0,0,1,2.758.009.323.323,0,0,1,2.991.4L2.968.514c-.6,3.2-1,6.3-1.425,9.57C1.267,12.221.98,14.431.628,16.727A.318.318,0,0,1,.316,17" transform="translate(27 3)"/>
      <path id="Fill_25-2" data-name="Fill 25" d="M3.711,17a.3.3,0,0,1-.278-.24l-.175-.688c-.311-1.22-.627-2.459-.939-3.743A114.616,114.616,0,0,1,0,.388.331.331,0,0,1,.244,0,.293.293,0,0,1,.574.282a114.146,114.146,0,0,0,2.3,11.865c.312,1.282.627,2.519.938,3.736l.175.688a.346.346,0,0,1-.2.416A.265.265,0,0,1,3.711,17" transform="translate(56 3)"/>
      <path id="Fill_27-2" data-name="Fill 27" d="M.339,4A.327.327,0,0,1,0,3.753.3.3,0,0,1,.29,3.424c.5-.063,1-.123,1.494-.183l.436-.052c1-.119,2-.239,2.974-.363,1.231-.151,2.311-.3,3.3-.443,1.418-.21,2.691-.433,3.892-.68A44.012,44.012,0,0,0,18.529.023a.364.364,0,0,1,.445.155.276.276,0,0,1-.181.379,44.736,44.736,0,0,1-6.245,1.711c-1.214.249-2.5.474-3.933.687-1,.148-2.085.294-3.322.445-.976.124-1.974.243-2.977.364l-.436.052C1.386,3.875.887,3.934.389,4a.438.438,0,0,1-.05,0" transform="translate(57 5)"/>
      <path id="Fill_29-2" data-name="Fill 29" d="M.338,5a.331.331,0,0,1-.333-.253.31.31,0,0,1,.276-.353c.747-.117,1.481-.242,2.2-.367.672-.117,1.329-.238,1.976-.364,1.487-.282,2.909-.579,4.348-.908.927-.212,1.8-.426,2.667-.651,2.338-.6,4.65-1.279,7.07-2.085A.351.351,0,0,1,18.979.2a.3.3,0,0,1-.2.393c-2.437.811-4.765,1.5-7.118,2.1-.873.227-1.753.442-2.686.655-1.449.332-2.88.631-4.375.914-.65.126-1.312.248-1.989.366C1.886,4.752,1.148,4.878.4,5A.4.4,0,0,1,.338,5" transform="translate(58 10)"/>
      <path id="Fill_31-2" data-name="Fill 31" d="M.32,15a.256.256,0,0,1-.252-.226A9.508,9.508,0,0,1,1.427,8.652c.176-.28.368-.551.559-.823A7.956,7.956,0,0,0,3.029,6.05a8.059,8.059,0,0,0,.373-2.3c.015-.228.03-.454.05-.68a4.855,4.855,0,0,1,1.113-3,.252.252,0,0,1,.36,0,.262.262,0,0,1,0,.366,4.386,4.386,0,0,0-.967,2.677c-.02.222-.035.445-.05.668a8.607,8.607,0,0,1-.4,2.446A8.459,8.459,0,0,1,2.4,8.131c-.186.264-.372.527-.543.8A8.969,8.969,0,0,0,.573,14.71.259.259,0,0,1,.352,15L.32,15" transform="translate(10 1)"/>
      <path id="Fill_33-2" data-name="Fill 33" d="M.259,15a.262.262,0,0,1-.16-.053.248.248,0,0,1-.044-.354,7.656,7.656,0,0,0,1.68-4.426c.013-.287.01-.58.008-.873a5.467,5.467,0,0,1,.424-2.676,5.592,5.592,0,0,1,.947-1.2A6.083,6.083,0,0,0,3.9,4.472a6.052,6.052,0,0,0,.651-1.934,5.194,5.194,0,0,1,1-2.451A.264.264,0,0,1,5.91.061a.247.247,0,0,1,.028.355,4.771,4.771,0,0,0-.884,2.228,6.521,6.521,0,0,1-.714,2.09A6.556,6.556,0,0,1,3.5,5.755a5.155,5.155,0,0,0-.868,1.094A5.041,5.041,0,0,0,2.26,9.29c0,.3,0,.6-.008.9A8.164,8.164,0,0,1,.463,14.9a.263.263,0,0,1-.2.1" transform="translate(13 2)"/>
      <path id="Fill_35-2" data-name="Fill 35" d="M.259,15a.255.255,0,0,1-.253-.241A5.411,5.411,0,0,1,1.167,11.4c.283-.408.594-.8.9-1.18A16.744,16.744,0,0,0,3.217,8.639a8.182,8.182,0,0,0,1.19-3.7c.025-.351.028-.712.029-1.062A13.093,13.093,0,0,1,4.5,2.441,3.663,3.663,0,0,1,5.578.064a.253.253,0,0,1,.359.023.258.258,0,0,1-.023.361A3.249,3.249,0,0,0,5,2.5a12.771,12.771,0,0,0-.058,1.378c0,.358-.005.728-.031,1.1A8.7,8.7,0,0,1,3.649,8.909,17.083,17.083,0,0,1,2.46,10.535c-.3.373-.6.759-.876,1.153A4.926,4.926,0,0,0,.513,14.73a.255.255,0,0,1-.24.27H.259" transform="translate(16 3)"/>
      <path id="Fill_37-2" data-name="Fill 37" d="M.254,16a.25.25,0,0,1-.185-.083.274.274,0,0,1,.011-.375,4.024,4.024,0,0,0,.877-3.028C.937,12.1.89,11.666.844,11.252A11.743,11.743,0,0,1,.74,9,11.982,11.982,0,0,1,2.146,4.847,9.391,9.391,0,0,0,3.482.282.255.255,0,1,1,3.99.249,9.937,9.937,0,0,1,2.6,5.085,11.592,11.592,0,0,0,1.247,9.043a11.245,11.245,0,0,0,.1,2.148c.047.424.1.861.116,1.3a4.532,4.532,0,0,1-1.036,3.44A.249.249,0,0,1,.254,16" transform="translate(21 3)"/>
      <path id="Fill_39-2" data-name="Fill 39" d="M.231,16a.221.221,0,0,1-.184-.1.294.294,0,0,1,.044-.373,4.376,4.376,0,0,0,1.237-2.709,16.459,16.459,0,0,0,.082-2.539c0-.25-.01-.5-.011-.751a28.981,28.981,0,0,1,.707-6.563A4.653,4.653,0,0,1,3.655.035a.215.215,0,0,1,.315.1A.289.289,0,0,1,3.884.5,4.131,4.131,0,0,0,2.553,3.1,28.406,28.406,0,0,0,1.86,9.52c0,.247.007.5.012.743A17.027,17.027,0,0,1,1.784,12.9,4.917,4.917,0,0,1,.37,15.946.211.211,0,0,1,.231,16" transform="translate(25 3)"/>
      <path id="Fill_41-2" data-name="Fill 41" d="M2.707,16a.165.165,0,0,1-.048-.007.271.271,0,0,1-.163-.317,7.146,7.146,0,0,0-.6-3.76c-.074-.193-.152-.381-.229-.565l-.136-.323A10.281,10.281,0,0,1,.4,6.578,8.009,8.009,0,0,1,.528,5.522c.03-.176.063-.353.1-.532C.7,4.6.769,4.228.8,3.846A5.741,5.741,0,0,0,.043.424.307.307,0,0,1,.087.053a.191.191,0,0,1,.3.054,6.365,6.365,0,0,1,.844,3.8c-.037.414-.113.817-.187,1.207-.033.174-.066.348-.1.522a7.4,7.4,0,0,0-.12.976,9.833,9.833,0,0,0,1.088,4.176l.137.325c.08.191.161.384.236.582a7.711,7.711,0,0,1,.625,4.1A.232.232,0,0,1,2.707,16" transform="translate(58 3)"/>
      <path id="Fill_43-2" data-name="Fill 43" d="M2.747,16a.182.182,0,0,1-.038,0,.265.265,0,0,1-.19-.306A3.814,3.814,0,0,0,1.827,13.4a7.32,7.32,0,0,1-.717-1.638,7.24,7.24,0,0,1-.086-2.309c.022-.316.045-.643.048-.957A7.619,7.619,0,0,0,.765,6.267C.686,6,.592,5.734.5,5.469A8.076,8.076,0,0,1,.035,3.776,8.364,8.364,0,0,1,.646.171a.222.222,0,0,1,.3-.153.282.282,0,0,1,.132.345A7.779,7.779,0,0,0,.49,3.7,7.509,7.509,0,0,0,.924,5.266c.1.275.2.549.277.829a8.253,8.253,0,0,1,.331,2.412c0,.332-.027.668-.05.993a6.663,6.663,0,0,0,.069,2.114,6.889,6.889,0,0,0,.666,1.507,4.3,4.3,0,0,1,.757,2.655A.243.243,0,0,1,2.747,16" transform="translate(62 3)"/>
      <path id="Fill_45" data-name="Fill 45" d="M2,16a.371.371,0,0,1-.137-.027.241.241,0,0,1-.142-.346c1.045-1.772.836-4.159-.57-6.549-.072-.123-.147-.245-.221-.367A6.939,6.939,0,0,1,.16,7.175,6.375,6.375,0,0,1,.477,3.539,6.425,6.425,0,0,0,.848.31.266.266,0,0,1,1.092,0a.313.313,0,0,1,.366.2,6.849,6.849,0,0,1-.376,3.45,5.967,5.967,0,0,0-.32,3.388,6.524,6.524,0,0,0,.723,1.43c.076.124.152.249.225.374,1.491,2.535,1.7,5.089.57,7.005A.322.322,0,0,1,2,16" transform="translate(65 3)"/>
      <path id="Fill_47" data-name="Fill 47" d="M4.749,15a.246.246,0,0,1-.144-.047,6.3,6.3,0,0,1-2.456-4.482,10.229,10.229,0,0,1,.117-1.383c.046-.352.094-.716.109-1.069a5.862,5.862,0,0,0-.7-3.028h0a.239.239,0,0,1-.013-.025c-.169-.307-.372-.608-.569-.9A9.173,9.173,0,0,1,.329,2.793,2.691,2.691,0,0,1,.382.1.247.247,0,0,1,.732.049.257.257,0,0,1,.786.405a2.265,2.265,0,0,0,0,2.172,8.56,8.56,0,0,0,.721,1.2c.2.3.415.615.6.946h0l.013.025a6.3,6.3,0,0,1,.762,3.292c-.015.378-.065.753-.113,1.116a9.719,9.719,0,0,0-.113,1.274,5.743,5.743,0,0,0,2.245,4.107.257.257,0,0,1,.059.355.248.248,0,0,1-.2.107" transform="translate(67 3)"/>
      <path id="Fill_49" data-name="Fill 49" d="M5.75,15a.246.246,0,0,1-.072-.011,4.83,4.83,0,0,1-2.64-3.225,11.857,11.857,0,0,1-.1-2.1c0-.425.009-.865-.017-1.29A8.847,8.847,0,0,0,1.4,3.954c-.105-.153-.216-.3-.327-.453A7.382,7.382,0,0,1,.3,2.287,2.443,2.443,0,0,1,.209.138.244.244,0,0,1,.548.031a.267.267,0,0,1,.1.353A1.942,1.942,0,0,0,.745,2.056a6.883,6.883,0,0,0,.726,1.127c.114.154.227.309.336.466a9.4,9.4,0,0,1,1.608,4.69c.027.445.022.894.018,1.328a11.264,11.264,0,0,0,.1,2,4.359,4.359,0,0,0,2.291,2.817.263.263,0,0,1,.167.325A.251.251,0,0,1,5.75,15" transform="translate(70 1)"/>
      <path id="Fill_51" data-name="Fill 51" d="M3.809,15A3.793,3.793,0,0,1,.354,12.991c-.739-1.565-.167-3.374.328-4.6a22.574,22.574,0,0,1,1.06-2.253A.344.344,0,0,1,1.769,6.1,22.143,22.143,0,0,1,6.522.08a.316.316,0,0,1,.452.031.332.332,0,0,1-.031.462A21.5,21.5,0,0,0,2.307,6.456a.3.3,0,0,1-.028.043A21.684,21.684,0,0,0,1.273,8.643C.562,10.4.453,11.695.93,12.706a3.373,3.373,0,0,0,4.351,1.312.381.381,0,0,1,.073-.033A5.82,5.82,0,0,0,8.206,9.836a15.831,15.831,0,0,0,.135-3.3C8.281,4.549,8.068,2.322,8,1.59a.324.324,0,0,1,.287-.357.319.319,0,0,1,.35.293c.07.738.285,2.981.346,4.994a16.407,16.407,0,0,1-.149,3.452,6.463,6.463,0,0,1-3.244,4.621c-.012.006-.063.031-.076.035a4.018,4.018,0,0,1-1.7.373" transform="translate(34 15)"/>
      <path id="Fill_53" data-name="Fill 53" d="M5.419,18A5.452,5.452,0,0,1,.2,14.239a7.716,7.716,0,0,1,.49-4.831A19.387,19.387,0,0,1,1.829,6.9,19.657,19.657,0,0,1,7.955.057.322.322,0,0,1,8.4.142.328.328,0,0,1,8.32.595,19,19,0,0,0,2.4,7.216,18.758,18.758,0,0,0,1.3,9.637a7.106,7.106,0,0,0-.473,4.424,4.809,4.809,0,0,0,6.233,2.99,6.237,6.237,0,0,0,3.233-2.809,6.341,6.341,0,0,0,.624-1.449,10.471,10.471,0,0,0,.32-1.568,18.132,18.132,0,0,0,.041-3.8c-.057-.8-.141-1.615-.223-2.4-.1-.93-.2-1.89-.25-2.817a.326.326,0,0,1,.3-.344.321.321,0,0,1,.341.307c.051.911.151,1.864.247,2.786.082.794.168,1.615.225,2.424a18.75,18.75,0,0,1-.045,3.934,11.178,11.178,0,0,1-.339,1.664,7.008,7.008,0,0,1-.685,1.594,6.894,6.894,0,0,1-3.574,3.1,5.52,5.52,0,0,1-1.032.27A5.288,5.288,0,0,1,5.419,18" transform="translate(33 13)"/>
      <path id="Fill_55" data-name="Fill 55" d="M.862,18a.909.909,0,0,1-.652-.25.883.883,0,0,1-.17-.866A2.229,2.229,0,0,1,.5,16.05c.063-.082.127-.164.185-.251C2.415,13.207,3.379,9.846,3.632,5.526c.1-1.588.1-3.151.1-4.884A.347.347,0,0,1,4.088.308h0a.347.347,0,0,1,.358.334c0,1.743,0,3.316-.1,4.922-.26,4.435-1.259,7.9-3.053,10.59-.066.1-.138.193-.21.286a1.66,1.66,0,0,0-.345.591c-.039.157-.021.246,0,.27a.2.2,0,0,0,.141.031c.516-.022,1.145-.843,1.447-1.238a9.3,9.3,0,0,0,1.128-1.966C5.343,9.857,5.309,5.055,5.275.411V.336A.346.346,0,0,1,5.63,0h0A.347.347,0,0,1,5.99.332V.407c.034,4.71.069,9.58-1.872,13.975a9.9,9.9,0,0,1-1.191,2.079c-.44.575-1.15,1.5-2.012,1.537H.862" transform="translate(35 30)"/>
      <path id="Fill_57" data-name="Fill 57" d="M.334,14h0A.326.326,0,0,1,0,13.681c.009-1.413.053-2.56.138-3.611C.47,5.886,1.534,2.637,3.393.134A.345.345,0,0,1,3.859.058.308.308,0,0,1,3.939.5C2.152,2.906,1.126,6.052.8,10.118.72,11.154.677,12.287.668,13.685A.326.326,0,0,1,.334,14" transform="translate(38 15)"/>
      <path id="Fill_59" data-name="Fill 59" d="M.289,14h0A.315.315,0,0,1,0,13.664,44.346,44.346,0,0,1,.643,5.61,19.667,19.667,0,0,1,2.462.163a.268.268,0,0,1,.4-.115.365.365,0,0,1,.1.459A18.943,18.943,0,0,0,1.208,5.755a43.593,43.593,0,0,0-.629,7.913A.314.314,0,0,1,.289,14" transform="translate(40 15)"/>
      <path id="Fill_61" data-name="Fill 61" d="M2.6,4a3,3,0,0,1-.982-.163A2.471,2.471,0,0,1,.2,2.665,1.743,1.743,0,0,1,.313.858,2.512,2.512,0,0,1,2.389,0c.087,0,.173,0,.257.008A3.323,3.323,0,0,1,4.075.417a1.912,1.912,0,0,1,.636.575,1.857,1.857,0,0,1-.453,2.462,2.44,2.44,0,0,1-.806.421A2.924,2.924,0,0,1,2.6,4ZM2.389.61a1.992,1.992,0,0,0-1.558.6A1.143,1.143,0,0,0,.768,2.4a1.869,1.869,0,0,0,1.068.866,2.352,2.352,0,0,0,.767.126,2.254,2.254,0,0,0,.656-.094,1.8,1.8,0,0,0,.592-.308,1.274,1.274,0,0,0,.332-1.66A1.3,1.3,0,0,0,3.75.941,2.682,2.682,0,0,0,2.6.617C2.528.613,2.457.61,2.389.61Z" transform="translate(40 12)"/>
      <path id="Fill_63" data-name="Fill 63" d="M6.131,20l-.054,0c-.769-.047-1.523-1.068-2.223-2.165-.044-.069-.08-.127-.108-.166a19.485,19.485,0,0,1-1.812-3.494A27.522,27.522,0,0,1,.207,6.539l-.05-.619C0,3.887-.007,1.859,0,.32A.335.335,0,0,1,.349,0h0A.334.334,0,0,1,.7.323c-.01,1.529,0,3.541.152,5.551l.05.613a26.925,26.925,0,0,0,1.687,7.464A18.87,18.87,0,0,0,4.335,17.33c.028.04.066.1.114.176.961,1.5,1.44,1.837,1.673,1.851.022,0,.063,0,.132-.077.11-.132.038-.371-.076-.538A27.281,27.281,0,0,1,1.409,4.649c-.048-1.01-.041-2.1.022-3.434A.339.339,0,0,1,1.792.909a.331.331,0,0,1,.33.335C2.061,2.556,2.054,3.629,2.1,4.62A26.677,26.677,0,0,0,6.762,18.4,1.043,1.043,0,0,1,6.8,19.676.851.851,0,0,1,6.131,20" transform="translate(45 31)"/>
      <path id="Fill_65" data-name="Fill 65" d="M2.415,16H2.389a.328.328,0,0,1-.3-.351l.056-.824c.09-1.425.184-2.9.2-4.344.04-4.065-.646-7.226-2.1-9.66C.212.761.184.716.156.671L.144.651C.115.6.086.554.054.5A.324.324,0,0,1,.15.053.33.33,0,0,1,.6.148C.646.21.681.267.717.329l0,.006C.755.39.788.446.818.5,2.324,3.028,3.04,6.3,3,10.486c-.014,1.462-.108,2.945-.2,4.379l-.056.835a.328.328,0,0,1-.328.3" transform="translate(45 14)"/>
      <path id="Fill_67" data-name="Fill 67" d="M2.574,14H2.16c0-.077,0-.164,0-.25v-.116c.024-2.064.022-4.275-.147-6.481-.035-.4-.072-.8-.126-1.2A13.3,13.3,0,0,0,.757,1.738L.625,1.455A9.957,9.957,0,0,0,.052.5.31.31,0,0,1,.214.042.466.466,0,0,1,.778.175,10.5,10.5,0,0,1,1.4,1.2l.136.293a13.828,13.828,0,0,1,1.18,4.383c.055.408.092.818.129,1.227.17,2.231.172,4.457.148,6.531l0,.122c0,.074,0,.148,0,.222Z" transform="translate(44 15)"/>
      <path id="Fill_69" data-name="Fill 69" d="M6.588,19a5.875,5.875,0,0,1-2.617-.657,7.608,7.608,0,0,1-.779-.458,6.724,6.724,0,0,1-.633-.478A9.066,9.066,0,0,1,.026,13.988.311.311,0,0,1,.2,13.575a.332.332,0,0,1,.429.167,8.441,8.441,0,0,0,2.358,3.187,6.1,6.1,0,0,0,.576.437,7.028,7.028,0,0,0,.712.419,5.068,5.068,0,0,0,2.439.582c2.5-.09,4.286-2.413,4.573-4.606.269-2.021-.412-4.288-2.023-6.741a.669.669,0,0,1-.05-.079A21.827,21.827,0,0,0,2.988.917.246.246,0,0,1,2.959.9L2.451.579A.308.308,0,0,1,2.358.142a.334.334,0,0,1,.453-.09l.477.3a.324.324,0,0,1,.038.021A22.457,22.457,0,0,1,9.782,6.629a.777.777,0,0,1,.051.078c1.679,2.555,2.393,4.963,2.1,7.133-.321,2.454-2.354,5.054-5.2,5.157l-.15,0" transform="translate(43 14)"/>
      <path id="Fill_71" data-name="Fill 71" d="M5.3,17a4.063,4.063,0,0,1-2.93-1.45A9.981,9.981,0,0,1,0,10.26a.331.331,0,0,1,.267-.378.323.323,0,0,1,.363.278,9.309,9.309,0,0,0,2.2,4.936,3.285,3.285,0,0,0,2.8,1.217c1.572-.226,2.611-1.964,2.71-3.513A9.121,9.121,0,0,0,6.937,7.96,25.9,25.9,0,0,0,1.28.927L.892.592A.341.341,0,0,1,.841.126.31.31,0,0,1,1.289.072l.4.348a26.535,26.535,0,0,1,5.8,7.209,9.735,9.735,0,0,1,1.5,5.214c-.114,1.789-1.294,3.842-3.257,4.126A2.942,2.942,0,0,1,5.3,17" transform="translate(44 14)"/>
      <path id="Fill_73" data-name="Fill 73" d="M2.34,2A2.711,2.711,0,0,1,.068.7.47.47,0,0,1,.2.072.416.416,0,0,1,.791.209a1.85,1.85,0,0,0,1.731.872.429.429,0,0,1,.475.4.448.448,0,0,1-.379.5A2.369,2.369,0,0,1,2.34,2" transform="translate(41 13)"/>
      <path id="Fill_75" data-name="Fill 75" d="M3.571,3a15.3,15.3,0,0,1-1.726-.084.31.31,0,0,1-.3-.279.314.314,0,0,1,.341-.281h0a.4.4,0,0,1,.048,0A32.267,32.267,0,0,0,8.6,2.09c.157-.018.355-.034.574-.053a6.1,6.1,0,0,0,2.019-.37c.216-.14.147-.515-.19-1.065A43.907,43.907,0,0,1,.3,1.367.3.3,0,0,1,0,1.056.334.334,0,0,1,.382.809,42.963,42.963,0,0,0,11.1.007a.376.376,0,0,1,.378.138c.238.353.961,1.426.136,1.963A6.076,6.076,0,0,1,9.239,2.6c-.208.017-.4.032-.546.05A46.382,46.382,0,0,1,3.571,3" transform="translate(44 11)"/>
      <path id="Fill_77" data-name="Fill 77" d="M8.445,3A47.245,47.245,0,0,1,3.31,2.646c-.149-.017-.333-.032-.537-.049A6.1,6.1,0,0,1,.387,2.109C-.442,1.574.283.5.522.145A.374.374,0,0,1,.9.008a43.044,43.044,0,0,0,10.718.8.335.335,0,0,1,.38.247.3.3,0,0,1-.3.311A43.988,43.988,0,0,1,1,.6c-.338.55-.406.925-.19,1.065a6.119,6.119,0,0,0,2.029.37c.215.018.41.034.566.052a34.15,34.15,0,0,0,6.665.271.339.339,0,0,1,.386.24.3.3,0,0,1-.292.316A15.522,15.522,0,0,1,8.445,3" transform="translate(29 11)"/>
      <path id="Fill_79" data-name="Fill 79" d="M11.206,1A103.081,103.081,0,0,1,.226.415.222.222,0,0,1,0,.181.251.251,0,0,1,.3,0,102.676,102.676,0,0,0,20.71.143.253.253,0,0,1,21,.326c.017.114-.086.217-.229.231C17.595.852,14.4,1,11.206,1" transform="translate(32 8)"/>
      <g id="Group_83" data-name="Group 83" transform="translate(0 14)">
        <path id="Clip_82-2" data-name="Clip 82" d="M0,0H11.924V245.878H0Z" transform="translate(0 0.059)" fill="none"/>
        <g id="Group_83-2" data-name="Group 83" clip-path="url(#clip-path-3)">
          <path id="Fill_81" data-name="Fill 81" d="M11.463,245.878a.511.511,0,0,1-.068,0c-3.107-.439-5.705-4.377-5.653-7.293.015-.852.1-1.718.192-2.555a12.084,12.084,0,0,0-.222-5.385A12.484,12.484,0,0,0,4.469,228.3c-.282-.452-.573-.919-.828-1.4a21.331,21.331,0,0,1-1.815-5.8c-2.986-14.432-1.18-27.218.912-42.024.392-2.78.8-5.654,1.183-8.616.123-.929.271-1.836.443-2.7.1-.5.2-1,.308-1.5a29.276,29.276,0,0,0,.914-7.913c-.061-.871-.2-1.764-.341-2.627a16.142,16.142,0,0,1-.258-5.179,16.88,16.88,0,0,1,.859-2.925,9.884,9.884,0,0,0,.876-4.161,75.209,75.209,0,0,1-.36-10.529,15.384,15.384,0,0,0-.4-3.706,16.792,16.792,0,0,1-.419-3.731l.036-1.027a66.249,66.249,0,0,0,.009-6.99c-.3-4.379-.654-8.882-1.072-13.767-.507-5.944-1.08-11.983-1.633-17.824q-.337-3.56-.671-7.12C.989,65.618-.4,50.73.107,36.261A121.858,121.858,0,0,1,6.533.3.468.468,0,0,1,7.116.022a.433.433,0,0,1,.293.553A121.015,121.015,0,0,0,1.03,36.29c-.5,14.416.881,29.276,2.1,42.387q.332,3.559.671,7.118c.554,5.843,1.127,11.884,1.634,17.831.418,4.889.768,9.4,1.073,13.78a67.032,67.032,0,0,1-.008,7.078l-.037,1.026a15.9,15.9,0,0,0,.405,3.547,16.277,16.277,0,0,1,.414,3.9,74.474,74.474,0,0,0,.358,10.415,10.657,10.657,0,0,1-.922,4.516,16.209,16.209,0,0,0-.821,2.778,15.269,15.269,0,0,0,.259,4.913c.14.882.284,1.792.348,2.7a29.9,29.9,0,0,1-.93,8.141c-.1.5-.208,1-.307,1.5-.168.845-.313,1.735-.433,2.645-.385,2.965-.792,5.842-1.185,8.624-2.08,14.728-3.876,27.449-.92,41.739A20.66,20.66,0,0,0,4.466,226.5c.241.455.524.909.8,1.348a13.33,13.33,0,0,1,1.324,2.508,12.9,12.9,0,0,1,.266,5.752c-.085.819-.174,1.666-.188,2.483-.044,2.494,2.307,6.051,4.866,6.413a.442.442,0,0,1,.389.5.455.455,0,0,1-.456.373" transform="translate(0 0.059)"/>
        </g>
      </g>
      <path id="Fill_84" data-name="Fill 84" d="M12.179,16A42.813,42.813,0,0,1,.354,14.452a.447.447,0,0,1-.3-.407C-.1,9.445.107,4.349.305.423A.441.441,0,0,1,.461.105.434.434,0,0,1,.743,0,.429.429,0,0,1,.8,0,95.523,95.523,0,0,0,12.16.817a51.277,51.277,0,0,0,9.322-.81A.425.425,0,0,1,21.561,0a.436.436,0,0,1,.281.1A.446.446,0,0,1,22,.445c0,1.615-.057,3.35-.117,5.188-.093,2.842-.188,5.781-.072,8.377a.443.443,0,0,1-.251.423C18.852,15.728,14.964,16,12.179,16ZM1.159.943C.98,4.579.791,9.316.923,13.7A43.157,43.157,0,0,0,12.179,15.11a22.794,22.794,0,0,0,8.741-1.362c-.1-2.552-.005-5.4.085-8.145.053-1.636.1-3.182.114-4.627a52.521,52.521,0,0,1-8.959.731A95.2,95.2,0,0,1,1.159.943Z" transform="translate(8 259)"/>
      <path id="Fill_86" data-name="Fill 86" d="M.262,12H.252A.264.264,0,0,1,0,11.724L.476.254A.254.254,0,0,1,.749,0,.264.264,0,0,1,1,.276L.525,11.747A.264.264,0,0,1,.262,12" transform="translate(9 260)"/>
      <path id="Fill_88" data-name="Fill 88" d="M.247,12H.224A.255.255,0,0,1,0,11.718C.325,7.925.5,4.069.508.258A.252.252,0,0,1,.754,0h0A.253.253,0,0,1,1,.26c-.013,3.826-.184,7.7-.509,11.5A.251.251,0,0,1,.247,12" transform="translate(13 261)"/>
      <path id="Fill_90" data-name="Fill 90" d="M.41,12H.393c-.226-.006-.4-.126-.393-.267C.264,7.909.662,4.04,1.183.235,1.2.094,1.413-.015,1.625,0S2.018.138,2,.279c-.52,3.8-.917,7.659-1.179,11.476C.81,11.892.628,12,.41,12" transform="translate(15 261)"/>
      <path id="Fill_92" data-name="Fill 92" d="M.257,13H.246A.269.269,0,0,1,0,12.714L.486.263A.255.255,0,0,1,.754,0,.268.268,0,0,1,1,.286L.514,12.737A.265.265,0,0,1,.257,13" transform="translate(18 261)"/>
      <path id="Fill_94" data-name="Fill 94" d="M.419,13c-.223,0-.406-.119-.408-.268A55.658,55.658,0,0,1,1.187.235C1.218.086,1.42-.02,1.648,0S2.027.161,2,.31A55.288,55.288,0,0,0,.828,12.725c0,.15-.177.273-.4.275Z" transform="translate(21 261)"/>
      <path id="Fill_96" data-name="Fill 96" d="M.294,13H.285A.282.282,0,0,1,0,12.72L.412.263A.284.284,0,0,1,.706,0H.715A.282.282,0,0,1,1,.28L.588,12.737A.284.284,0,0,1,.294,13" transform="translate(24 261)"/>
      <path id="Fill_98" data-name="Fill 98" d="M.307,12H.282A.279.279,0,0,1,0,11.714,86.676,86.676,0,0,0,.324.273.285.285,0,0,1,.621,0,.288.288,0,0,1,.937.256a86.971,86.971,0,0,1-.325,11.5A.292.292,0,0,1,.307,12" transform="translate(27 261)"/>
      <path id="Fill_100" data-name="Fill 100" d="M.439,196a.439.439,0,0,1-.33-.149.434.434,0,0,1,.041-.615c1.5-1.3,1.358-2.944,1.185-5.025-.041-.492-.083-1-.1-1.525-.023-.584-.063-1.172-.1-1.761a17.206,17.206,0,0,1,.378-6.458,17.2,17.2,0,0,1,1.025-2.362A14.245,14.245,0,0,0,3.6,175.552c.555-2.041.806-7.132,1.072-12.523a129.284,129.284,0,0,1,1.106-13.812c1.293-6.981.015-15.941-1.22-24.606a132.835,132.835,0,0,1-1.574-14.635,34.831,34.831,0,0,1,.8-9.312c.123-.486.263-.968.4-1.45.2-.7.414-1.422.562-2.138a28.3,28.3,0,0,0,.368-5.97C4.972,74.639,6.333,58,7.649,41.914,8.759,28.352,9.906,14.327,10.143.477a.433.433,0,0,1,.445-.429c.882.013,1.947,0,2.976-.021s2.106-.034,3-.022A.438.438,0,0,1,17,.446a.445.445,0,0,1-.446.43C15.67.864,14.607.882,13.578.9c-.872.014-1.765.031-2.565.026-.254,13.738-1.39,27.626-2.489,41.061C7.21,58.054,5.85,74.671,6,91.1a28.943,28.943,0,0,1-.386,6.153c-.155.75-.37,1.489-.578,2.2-.137.472-.275.945-.4,1.421a34,34,0,0,0-.776,9.077,132.378,132.378,0,0,0,1.564,14.534c1.245,8.735,2.533,17.767,1.214,24.887a129.064,129.064,0,0,0-1.093,13.7c-.268,5.439-.522,10.576-1.1,12.708a15.194,15.194,0,0,1-1.127,2.71,16.281,16.281,0,0,0-.976,2.242A16.57,16.57,0,0,0,2,186.868c.04.6.081,1.193.1,1.785.02.5.061,1,.1,1.486.178,2.141.347,4.162-1.481,5.753A.44.44,0,0,1,.439,196" transform="translate(29 64)"/>
      <path id="Fill_102" data-name="Fill 102" d="M11.134,4A19.2,19.2,0,0,1,.115.495.278.278,0,0,1,.044.119.255.255,0,0,1,.4.045,18.639,18.639,0,0,0,12.719,3.39a.271.271,0,0,1,.043.54Q11.948,4,11.134,4" transform="translate(17 166)"/>
      <path id="Fill_104" data-name="Fill 104" d="M.259,5a.254.254,0,0,1-.176-.071.273.273,0,0,1-.013-.378c2-2.218,5.036-2.86,8.238-3.369L15.7,0a.259.259,0,0,1,.3.223.266.266,0,0,1-.216.305L8.387,1.71C5.279,2.2,2.333,2.822.449,4.915A.254.254,0,0,1,.259,5" transform="translate(9 173)"/>
      <path id="Fill_106" data-name="Fill 106" d="M15.19,5A27.274,27.274,0,0,1,.115.47.252.252,0,0,1,.048.111.274.274,0,0,1,.42.046a26.753,26.753,0,0,0,16.3,4.395A.269.269,0,0,1,17,4.683a.262.262,0,0,1-.251.273Q15.969,5,15.19,5" transform="translate(5 240)"/>
      <path id="Fill_108" data-name="Fill 108" d="M.267,4a.268.268,0,0,1-.241-.146.251.251,0,0,1,.126-.342A39.336,39.336,0,0,1,14.721,0,.271.271,0,0,1,15,.244a.262.262,0,0,1-.255.268A38.782,38.782,0,0,0,.382,3.974.275.275,0,0,1,.267,4" transform="translate(7 246)"/>
      <path id="Fill_110" data-name="Fill 110" d="M11.163,6A14.165,14.165,0,0,1,.059.456.29.29,0,0,1,.1.061.262.262,0,0,1,.48.106,13.525,13.525,0,0,0,12.7,5.341a.274.274,0,0,1,.3.245.279.279,0,0,1-.235.313,12.682,12.682,0,0,1-1.6.1" transform="translate(18 234)"/>
      <path id="Fill_112" data-name="Fill 112" d="M14.736,32a39.013,39.013,0,0,1-10.5-1.439c-2.2-.613-4.611-2.1-4.192-4.264a4.409,4.409,0,0,1,1.534-2.255,71.757,71.757,0,0,1,7.066-5.515c2.025-1.449,4.12-2.946,6.027-4.592,3.482-3,7.659-7.81,7.788-13.678A.27.27,0,0,1,22.737,0,.265.265,0,0,1,23,.269c-.134,6.06-4.409,10.992-7.971,14.064C13.1,15.993,11,17.5,8.963,18.954A71.164,71.164,0,0,0,1.95,24.426,3.976,3.976,0,0,0,.575,26.4C.2,28.34,2.794,29.61,4.386,30.054a38.493,38.493,0,0,0,13.87,1.259.261.261,0,0,1,.292.238.265.265,0,0,1-.243.287Q16.518,32,14.736,32" transform="translate(3 193)"/>
      <g id="Group_116" data-name="Group 116" transform="translate(74 14)">
        <path id="Clip_115-2" data-name="Clip 115" d="M0,0H11.55V245.746H0Z" transform="translate(0.078 0.059)" fill="none"/>
        <g id="Group_116-2" data-name="Group 116" clip-path="url(#clip-path-4)">
          <path id="Fill_114" data-name="Fill 114" d="M.444,245.746a.437.437,0,0,1-.065-.871c2.5-.366,3.768-3.909,3.727-6.325-.014-.817-.1-1.665-.181-2.484a13.362,13.362,0,0,1,.256-5.752,13.52,13.52,0,0,1,1.273-2.506c.264-.439.536-.894.769-1.349a21.274,21.274,0,0,0,1.67-5.577c3.338-16.757.876-32.346-1.976-50.4l-.123-.778c-.13-.826-.313-1.783-.507-2.8a38.759,38.759,0,0,1-1.03-8.673c.062-.907.2-1.817.336-2.7a15.858,15.858,0,0,0,.249-4.913,23.161,23.161,0,0,0-.691-2.841,11.335,11.335,0,0,1-.555-6.039c.818-3.77.441-7.08.042-10.585a54.3,54.3,0,0,1-.472-6.572.387.387,0,0,1,0-.045c.91-8.329,1.832-16.085,2.722-23.584C10.914,58.687,14.231,30.761,3.865.578A.436.436,0,0,1,4.144.023.445.445,0,0,1,4.707.3c10.43,30.37,7.1,58.374,2.068,100.763-.89,7.491-1.81,15.238-2.719,23.554a53.631,53.631,0,0,0,.466,6.447c.408,3.578.792,6.957-.056,10.866a10.5,10.5,0,0,0,.54,5.616,23.851,23.851,0,0,1,.714,2.946,16.736,16.736,0,0,1-.248,5.179c-.132.864-.268,1.757-.327,2.627a38.218,38.218,0,0,0,1.017,8.453c.2,1.02.379,1.985.512,2.824l.123.777c2.864,18.133,5.337,33.793,1.969,50.7a21.953,21.953,0,0,1-1.748,5.8c-.246.483-.526.95-.8,1.4a12.641,12.641,0,0,0-1.2,2.343,12.533,12.533,0,0,0-.214,5.384c.084.837.171,1.7.185,2.555.054,3.141-1.646,6.789-4.485,7.206a.475.475,0,0,1-.066,0" transform="translate(0.078 0.059)"/>
        </g>
      </g>
      <path id="Fill_117" data-name="Fill 117" d="M9.822,17h0c-2.789,0-6.683-.293-9.394-1.677a.436.436,0,0,1-.238-.407C.3,12.155.209,9.021.117,5.99V5.969l0-.069C.055,3.961,0,2.13,0,.437A.433.433,0,0,1,.16.1.444.444,0,0,1,.524.008,48.2,48.2,0,0,0,9.841.871,89.568,89.568,0,0,0,21.2,0a.452.452,0,0,1,.058,0A.441.441,0,0,1,21.7.417c.2,4.189.405,9.626.25,14.532a.434.434,0,0,1-.288.4A40.317,40.317,0,0,1,9.822,17ZM.881.966C.891,2.517.942,4.18,1,5.941l0,.076c.088,2.923.18,5.946.08,8.651a21.44,21.44,0,0,0,8.743,1.457,40.484,40.484,0,0,0,11.255-1.5c.133-4.7-.057-9.785-.237-13.69a89.548,89.548,0,0,1-11,.814A49.273,49.273,0,0,1,.881.966Z" transform="translate(55 259)"/>
      <path id="Fill_119" data-name="Fill 119" d="M.738,13a.264.264,0,0,1-.262-.254L0,.275A.264.264,0,0,1,.252,0,.263.263,0,0,1,.524.255L1,12.725A.265.265,0,0,1,.748,13Z" transform="translate(74 261)"/>
      <path id="Fill_121" data-name="Fill 121" d="M.753,14a.26.26,0,0,1-.245-.256C.184,9.286.013,4.757,0,.282,0,.128.11-.02.246,0A.264.264,0,0,1,.492.28C.5,4.741.676,9.255,1,13.7a.27.27,0,0,1-.225.3H.753" transform="translate(71 261)"/>
      <path id="Fill_123" data-name="Fill 123" d="M1.59,14c-.219,0-.4-.116-.41-.265C.919,9.277.522,4.756,0,.3-.016.145.152.012.378,0S.8.1.818.255C1.34,4.719,1.737,9.248,2,13.713c.008.152-.168.28-.394.287Z" transform="translate(68 261)"/>
      <path id="Fill_125" data-name="Fill 125" d="M.743,14a.265.265,0,0,1-.257-.262L0,.284A.267.267,0,0,1,.247,0,.272.272,0,0,1,.514.262L1,13.716A.268.268,0,0,1,.753,14Z" transform="translate(65 261)"/>
      <path id="Fill_127" data-name="Fill 127" d="M1.581,14H1.575c-.225,0-.406-.124-.4-.273A64.549,64.549,0,0,0,0,.305C-.026.157.132.022.356,0S.785.089.813.237a64.8,64.8,0,0,1,1.176,13.5c0,.148-.185.267-.408.267" transform="translate(61 261)"/>
      <path id="Fill_129" data-name="Fill 129" d="M.706,14a.284.284,0,0,1-.294-.263L0,.278A.281.281,0,0,1,.286,0a.276.276,0,0,1,.3.263L1,13.723A.281.281,0,0,1,.714,14Z" transform="translate(59 261)"/>
      <path id="Fill_131" data-name="Fill 131" d="M.692,13a.293.293,0,0,1-.306-.245A102.737,102.737,0,0,1,.063.257.289.289,0,0,1,.369,0h.01a.285.285,0,0,1,.3.273A102.33,102.33,0,0,0,1,12.715.281.281,0,0,1,.716,13H.692" transform="translate(57 261)"/>
      <path id="Fill_133" data-name="Fill 133" d="M11.566,196a.432.432,0,0,1-.286-.108c-2.39-2.1-2.555-5.251-2.471-7.436.023-.592.062-1.188.1-1.784a16.727,16.727,0,0,0-.336-6.131,16.439,16.439,0,0,0-.964-2.241A15.244,15.244,0,0,1,6.5,175.592c-.572-2.129-.822-7.261-1.088-12.694a130.277,130.277,0,0,0-1.081-13.691c-1.356-7.4-.346-16.769.631-25.826.522-4.834,1.014-9.4,1.112-13.409a9.444,9.444,0,0,0-.636-3.274,9.075,9.075,0,0,1-.473-5.375c.037-.159.08-.332.125-.515.27-1.093.68-2.744.29-3.587-1.847-4-1.37-6.082-.987-7.756a7.153,7.153,0,0,0,.24-1.511c.146-16.44-1.1-32.2-2.315-47.444C1.292,27.617.234,14.285,0,.443A.435.435,0,0,1,.427,0H.434A.435.435,0,0,1,.868.428C1.1,14.242,2.159,27.561,3.181,40.441,4.393,55.7,5.645,71.483,5.5,87.962a7.9,7.9,0,0,1-.263,1.7c-.353,1.544-.794,3.466.929,7.193.518,1.122.083,2.88-.235,4.164-.045.179-.087.348-.123.5a8.245,8.245,0,0,0,.453,4.907,10.272,10.272,0,0,1,.679,3.565c-.1,4.044-.594,8.628-1.117,13.481-.97,9-1.973,18.3-.64,25.575a130.485,130.485,0,0,1,1.094,13.8c.263,5.385.51,10.471,1.059,12.509a14.294,14.294,0,0,0,1.055,2.551A17.423,17.423,0,0,1,9.4,180.276a17.38,17.38,0,0,1,.374,6.453c-.039.588-.079,1.176-.1,1.759-.125,3.234.546,5.315,2.175,6.747a.437.437,0,0,1,.04.615.431.431,0,0,1-.326.149" transform="translate(45 64)"/>
      <path id="Fill_135" data-name="Fill 135" d="M5.553,2A18.649,18.649,0,0,1,.189,1.215.277.277,0,0,1,.01.876.256.256,0,0,1,.33.687,18.262,18.262,0,0,0,12.645.019a.255.255,0,0,1,.337.154.281.281,0,0,1-.145.357A18.753,18.753,0,0,1,5.553,2" transform="translate(54 168)"/>
      <path id="Fill_137" data-name="Fill 137" d="M15.741,5a.254.254,0,0,1-.19-.085C13.666,2.822,10.721,2.2,7.613,1.709L.22.532A.267.267,0,0,1,0,.226.261.261,0,0,1,.3,0L7.692,1.181c3.2.509,6.24,1.151,8.238,3.37a.273.273,0,0,1-.013.378A.254.254,0,0,1,15.741,5" transform="translate(57 173)"/>
      <path id="Fill_139" data-name="Fill 139" d="M1.809,5Q1.031,5,.252,4.955A.262.262,0,0,1,0,4.683a.268.268,0,0,1,.283-.242A26.763,26.763,0,0,0,16.58.046a.274.274,0,0,1,.373.065.252.252,0,0,1-.068.359A27.278,27.278,0,0,1,1.809,5" transform="translate(63 240)"/>
      <path id="Fill_141" data-name="Fill 141" d="M14.733,4a.275.275,0,0,1-.115-.026A38.792,38.792,0,0,0,.255.512.262.262,0,0,1,0,.244.261.261,0,0,1,.279,0,39.344,39.344,0,0,1,14.848,3.512a.251.251,0,0,1,.126.342A.268.268,0,0,1,14.733,4" transform="translate(62 246)"/>
      <path id="Fill_143" data-name="Fill 143" d="M1.836,6a12.681,12.681,0,0,1-1.6-.1A.279.279,0,0,1,0,5.586a.276.276,0,0,1,.3-.245A13.524,13.524,0,0,0,12.52.107.261.261,0,0,1,12.9.061a.29.29,0,0,1,.043.4A14.169,14.169,0,0,1,1.836,6" transform="translate(54 234)"/>
      <path id="Fill_145" data-name="Fill 145" d="M8.354,3a12.248,12.248,0,0,1-4.086-.878L.168.7A.23.23,0,0,1,.017.394.273.273,0,0,1,.355.258l4.1,1.423a11.121,11.121,0,0,0,4.185.841,11.434,11.434,0,0,0,4.506-1.409L13.6.9c.657-.309,1.343-.605,2.038-.881a.275.275,0,0,1,.345.121.228.228,0,0,1-.135.311c-.684.271-1.359.563-2.006.867l-.446.212A11.881,11.881,0,0,1,8.663,2.994C8.56,3,8.456,3,8.354,3" transform="translate(58 159)"/>
      <path id="Fill_147" data-name="Fill 147" d="M7.138,3a6.192,6.192,0,0,1-1.1-.093A33.6,33.6,0,0,1,.156.541.291.291,0,0,1,.025.164.263.263,0,0,1,.38.026,34.325,34.325,0,0,0,6.134,2.348a10.118,10.118,0,0,0,3.873-.318L15.68.822a.265.265,0,0,1,.315.222.283.283,0,0,1-.21.334L10.112,2.585A14.38,14.38,0,0,1,7.138,3" transform="translate(9 158)"/>
      <path id="Fill_149" data-name="Fill 149" d="M2.108,32a3.357,3.357,0,0,1-2-.63.26.26,0,0,1-.06-.361.257.257,0,0,1,.359-.059c1.776,1.278,4.356-.01,6.026-1.5,3.64-3.25,5.841-7.434,6.037-11.481a26.757,26.757,0,0,0-1.435-8.415C10.181,6.528,9.3,3.4,9.654.229a.258.258,0,1,1,.512.058c-.345,3.067.523,6.148,1.363,9.128A27.14,27.14,0,0,1,12.984,18c-.2,4.184-2.467,8.5-6.21,11.842A7.612,7.612,0,0,1,2.108,32" transform="translate(65 194)"/>
      <path id="Fill_151" data-name="Fill 151" d="M.26,2a.259.259,0,0,1-.25-.188A.256.256,0,0,1,.191,1.5,54.351,54.351,0,0,1,7.707,0,.254.254,0,0,1,8,.225a.257.257,0,0,1-.224.287A53.837,53.837,0,0,0,.329,1.991.279.279,0,0,1,.26,2" transform="translate(45 62)"/>
      <path id="Fill_153" data-name="Fill 153" d="M11.74,3a.331.331,0,0,1-.1-.015A48.185,48.185,0,0,0,.233.419.227.227,0,0,1,0,.189.254.254,0,0,1,.287,0a48.772,48.772,0,0,1,11.55,2.593.2.2,0,0,1,.145.273A.267.267,0,0,1,11.74,3" transform="translate(45 65)"/>
      <path id="Fill_155" data-name="Fill 155" d="M9.733,3a.245.245,0,0,1-.144-.047A13.181,13.181,0,0,0,2.545.6C1.7.572.96.579.28.617A.286.286,0,0,1,0,.341.284.284,0,0,1,.254.035C.945,0,1.7-.01,2.558.014A13.692,13.692,0,0,1,9.878,2.464a.308.308,0,0,1,.08.4A.262.262,0,0,1,9.733,3" transform="translate(30 62)"/>
      <path id="Fill_157" data-name="Fill 157" d="M.265,5a.263.263,0,0,1-.232-.141.275.275,0,0,1,.1-.369C2.9,2.924,8.345.26,13.722,0A.265.265,0,0,1,14,.259a.269.269,0,0,1-.252.284C8.477.8,3.118,3.424.393,4.966A.257.257,0,0,1,.265,5" transform="translate(25 64)"/>
      <path id="Fill_159" data-name="Fill 159" d="M7.078,19a42.132,42.132,0,0,1-6.461-.675l-.258-.041a.425.425,0,1,1,.134-.839l.257.04c3.322.528,7.872,1.251,10.717-.14,2.482-1.213,3.191-3.3,4.011-5.719.1-.287.2-.577.3-.871a49.023,49.023,0,0,0,2.009-8.37c.116-.651.236-1.326.368-2.037A.426.426,0,0,1,18.993.5c-.132.709-.252,1.382-.367,2.031a50.44,50.44,0,0,1-2.043,8.5c-.1.291-.2.579-.3.863-.845,2.489-1.643,4.841-4.444,6.21A10.968,10.968,0,0,1,7.078,19" transform="translate(2 19)"/>
      <path id="Fill_161" data-name="Fill 161" d="M11.8,19a10.745,10.745,0,0,1-4.724-.9C4.3,16.732,3.512,14.381,2.678,11.892c-.1-.284-.191-.571-.292-.862a51.037,51.037,0,0,1-2.018-8.5C.255,1.879.137,1.207.007.5A.429.429,0,0,1,.369.006.446.446,0,0,1,.886.352c.13.71.248,1.384.362,2.033a49.678,49.678,0,0,0,1.984,8.377c.1.293.2.583.3.87.81,2.418,1.509,4.506,3.954,5.716,2.794,1.384,7.277.663,10.549.136l.448-.072a.443.443,0,0,1,.514.35.428.428,0,0,1-.366.49l-.447.072A41.082,41.082,0,0,1,11.8,19" transform="translate(65 19)"/>
      <path id="Fill_163" data-name="Fill 163" d="M.328,3a.509.509,0,0,1-.123-.015c-.167-.043-.249-.166-.181-.274A10.752,10.752,0,0,1,2.416.079.463.463,0,0,1,2.876.046c.142.072.165.2.052.3a10.336,10.336,0,0,0-2.3,2.527A.364.364,0,0,1,.328,3" transform="translate(23 20)"/>
      <path id="Fill_165" data-name="Fill 165" d="M.251,11a.2.2,0,0,1-.033,0,.268.268,0,0,1-.216-.3A27.344,27.344,0,0,1,3.54.126.238.238,0,0,1,3.885.043.286.286,0,0,1,3.96.419,26.783,26.783,0,0,0,.5,10.763.258.258,0,0,1,.251,11" transform="translate(25 19)"/>
      <path id="Fill_167" data-name="Fill 167" d="M.306,5A.356.356,0,0,1,.16,4.969a.23.23,0,0,1-.122-.342A7.855,7.855,0,0,0,1.386.252.283.283,0,0,1,1.692,0h0A.283.283,0,0,1,2,.251,8.286,8.286,0,0,1,.576,4.868.321.321,0,0,1,.306,5" transform="translate(29 20)"/>
      <path id="Fill_169" data-name="Fill 169" d="M.578,3h0C.342,3,.157,2.887.159,2.75A15.1,15.1,0,0,0,0,.268C-.018.132.152.013.383,0S.816.09.836.226A15.3,15.3,0,0,1,1,2.756C.994,2.891.807,3,.578,3" transform="translate(56 21)"/>
      <path id="Fill_171" data-name="Fill 171" d="M1.687,10H1.666a.266.266,0,0,1-.243-.286A16.989,16.989,0,0,0,1.2,5.359C1.076,4.71.917,4.056.762,3.422L.008.33A.267.267,0,0,1,.2.008.265.265,0,0,1,.52.2L1.271,3.28c.16.656.321,1.319.443,1.983a17.564,17.564,0,0,1,.236,4.492A.265.265,0,0,1,1.687,10" transform="translate(58 20)"/>
      <path id="Fill_173" data-name="Fill 173" d="M.7,4H.686a.259.259,0,0,1-.268-.251A9.832,9.832,0,0,0,.009.3a.239.239,0,0,1,.2-.291A.287.287,0,0,1,.555.179,10.268,10.268,0,0,1,.982,3.773.267.267,0,0,1,.7,4" transform="translate(61 20)"/>
      <path id="Fill_175" data-name="Fill 175" d="M.34,3a.384.384,0,0,1-.152-.031.284.284,0,0,1-.152-.4A7.212,7.212,0,0,1,2.461.057a.371.371,0,0,1,.475.068.278.278,0,0,1-.078.418A6.581,6.581,0,0,0,.645,2.834.347.347,0,0,1,.34,3" transform="translate(8 16)"/>
      <path id="Fill_177" data-name="Fill 177" d="M.251,6a.229.229,0,0,1-.078-.014.269.269,0,0,1-.16-.336A23.743,23.743,0,0,1,2.54.12.242.242,0,0,1,2.887.045a.277.277,0,0,1,.071.369,23.252,23.252,0,0,0-2.469,5.4A.253.253,0,0,1,.251,6" transform="translate(10 17)"/>
      <path id="Fill_179" data-name="Fill 179" d="M.346,4a.471.471,0,0,1-.131-.019c-.176-.052-.261-.2-.189-.324A11.346,11.346,0,0,0,1.312.214.338.338,0,0,1,1.7,0c.189.019.321.145.295.28A11.752,11.752,0,0,1,.666,3.845.367.367,0,0,1,.346,4" transform="translate(15 18)"/>
      <path id="Fill_181" data-name="Fill 181" d="M.709,3H.7C.543,3,.42,2.9.425,2.786A6.321,6.321,0,0,0,.01.263C-.032.152.057.038.209.007A.309.309,0,0,1,.559.152,6.641,6.641,0,0,1,.994,2.8c0,.113-.131.2-.285.2" transform="translate(70 19)"/>
      <path id="Fill_183" data-name="Fill 183" d="M2.712,7a.284.284,0,0,1-.283-.23A18.18,18.18,0,0,0,.039.414a.269.269,0,0,1,.1-.376.294.294,0,0,1,.393.1A18.728,18.728,0,0,1,3,6.68.276.276,0,0,1,2.76,7a.284.284,0,0,1-.048,0" transform="translate(72 18)"/>
      <path id="Fill_185" data-name="Fill 185" d="M1.578,8A5.194,5.194,0,0,1,.192,7.816a.288.288,0,0,1-.185-.343.252.252,0,0,1,.3-.209A6.145,6.145,0,0,0,5.91,5.63,15.032,15.032,0,0,0,9.522.16.239.239,0,0,1,9.858.029a.3.3,0,0,1,.116.379A15.558,15.558,0,0,1,6.221,6.077,7.125,7.125,0,0,1,1.578,8" transform="translate(6 27)"/>
      <path id="Fill_187" data-name="Fill 187" d="M8.693,8a8.475,8.475,0,0,1-6.23-2.314C1.183,4.457-.222,2.287.029.214A.253.253,0,0,1,.312,0,.244.244,0,0,1,.536.269C.32,2.051,1.53,4.1,2.825,5.346,5.195,7.622,8.019,7.679,10.717,7.4A.252.252,0,0,1,11,7.613a.245.245,0,0,1-.226.266A20.459,20.459,0,0,1,8.693,8" transform="translate(70 26)"/>
    </g>
    <g id="Group_161" data-name="Group 161" transform="translate(684 635.5)">
      <path id="Fill_1-3" data-name="Fill 1" d="M30.109,45a28.411,28.411,0,0,1-6.93-.94.379.379,0,0,1-.267-.264c-.1-.349-.167-.7-.235-1.041l-.011-.057-.043-.22-.131.208-.037.06,0,.008a11.812,11.812,0,0,1-.683,1.02.38.38,0,0,1-.291.141h-.1a19.393,19.393,0,0,1-2.174-.176c-.706-.082-1.451-.159-2.12-.17q-.535,0-1.076,0a31.952,31.952,0,0,1-7.2-.618,12.292,12.292,0,0,1-7.141-4.275,7.541,7.541,0,0,1-.813-8.138.378.378,0,0,1,.328-.19.4.4,0,0,1,.058,0c.357.057.767.123,1.175.19l.077.013c.365.06.726.119,1.045.169a.377.377,0,0,1,.3.479c-.736,2.478,1.245,5.253,3.586,6.505,2.448,1.308,5.392,1.406,7.989,1.492h.022c2.811.094,5.718.191,8.715.191a77.189,77.189,0,0,0,14.712-1.19l.574-.11c2.831-.536,5.758-1.091,7.726-3.021.447-.438.866-.931,1.271-1.407l0-.006.009-.01a15.742,15.742,0,0,1,1.89-1.972c2.3-1.907,5.336-2.367,8.273-2.812l.079-.012a27.81,27.81,0,0,0,8.238-2.185,9.944,9.944,0,0,0,5.435-6c1.39-5.128-.932-10.84-3.648-16.249l-.176-.354c-.686-1.385-1.4-2.818-2.707-3.206a2.723,2.723,0,0,0-.769-.107A4.693,4.693,0,0,0,62.333,1.8a16.828,16.828,0,0,0-1.568,1.4l-.006.006A19.3,19.3,0,0,1,59.3,4.539a5.968,5.968,0,0,1-3.53,1.013,6.126,6.126,0,0,1-1.258-.122.377.377,0,1,1,.158-.737,5.252,5.252,0,0,0,1.083.1,5.311,5.311,0,0,0,3.078-.848,18.767,18.767,0,0,0,1.4-1.273l.006-.006A17.306,17.306,0,0,1,61.879,1.2,5.442,5.442,0,0,1,65.058,0a3.452,3.452,0,0,1,.979.138c1.628.479,2.447,2.132,3.169,3.591l.176.353c2.782,5.545,5.156,11.416,3.7,16.783-.07.254-.149.5-.237.732a17.022,17.022,0,0,1,1.1,6.9,6.892,6.892,0,0,1-3.983,5.691.375.375,0,0,1-.153.032.378.378,0,0,1-.362-.274c-.069-.239-.141-.462-.2-.65-.007.033-.012.066-.018.1l-.006.038c-.025.15-.054.323-.1.483a3.091,3.091,0,0,1-1.835,1.954,8.935,8.935,0,0,1-2.522.634l-.046,0a.371.371,0,0,1-.322-.188c-.128-.219-.277-.435-.434-.663l-.013-.019-.013-.019c-.086-.125-.176-.254-.262-.384a1.23,1.23,0,0,0-.19.488c-.015.084-.028.17-.04.254a2.279,2.279,0,0,1-.35,1.073,2.114,2.114,0,0,1-.966.662,9.082,9.082,0,0,1-3.5.643c-.342,0-.7-.015-1.065-.045a.383.383,0,0,1-.261-.138,5.132,5.132,0,0,0-3.96-1.789,4.878,4.878,0,0,0-2.712.787,10.366,10.366,0,0,0-1.889,1.777l-.011.012c-.223.249-.5.558-.778.841A5.4,5.4,0,0,1,44.3,41.566h-.015a.378.378,0,0,1-.353-.249,3.876,3.876,0,0,0-.436-.841,9.573,9.573,0,0,0-.374,1.84.381.381,0,0,1-.182.282A16.652,16.652,0,0,1,34.9,44.73h-.021a.383.383,0,0,1-.357-.282c-.092-.352-.2-.692-.3-1.021-.019-.061-.039-.123-.058-.185a.007.007,0,0,1,0,0l-.006.01a7.611,7.611,0,0,1-.844,1.342.381.381,0,0,1-.223.138A15.266,15.266,0,0,1,30.109,45ZM22.8,41.179a.376.376,0,0,1,.363.277c.1.357.17.717.239,1.065l.006.032c.059.3.113.567.179.835a28.284,28.284,0,0,0,6.554.856,14.636,14.636,0,0,0,2.659-.22,6.989,6.989,0,0,0,.687-1.119l.014-.026c.127-.244.259-.5.452-.8a.375.375,0,0,1,.318-.176.386.386,0,0,1,.059,0,.375.375,0,0,1,.308.277c.088.34.189.663.3,1.021l.019.061c.071.227.145.462.213.7A15.869,15.869,0,0,0,42.4,42.043a9.768,9.768,0,0,1,.626-2.478.377.377,0,0,1,.284-.232.357.357,0,0,1,.067-.006.378.378,0,0,1,.28.126A5.189,5.189,0,0,1,44.54,40.8a4.739,4.739,0,0,0,2.875-1.524c.26-.266.513-.546.757-.816a11.1,11.1,0,0,1,2.042-1.913,5.607,5.607,0,0,1,3.12-.906,5.951,5.951,0,0,1,4.45,1.934c.285.02.569.03.842.03a8.373,8.373,0,0,0,3.222-.586,1.449,1.449,0,0,0,.642-.41,1.68,1.68,0,0,0,.214-.733c.013-.089.027-.19.044-.286a1.412,1.412,0,0,1,.973-1.237.39.39,0,0,1,.082-.009.374.374,0,0,1,.326.187c.127.218.272.429.447.681l.049.072c.1.145.2.294.3.445a7.972,7.972,0,0,0,2.066-.545A2.383,2.383,0,0,0,68.4,33.728c.035-.134.059-.276.082-.414a1.818,1.818,0,0,1,.631-1.321.378.378,0,0,1,.216-.068.377.377,0,0,1,.362.274c.07.242.145.47.218.69l.022.066c.028.084.056.168.084.254l.034.1a6.166,6.166,0,0,0,3.153-4.89,15.149,15.149,0,0,0-.819-5.8,11.568,11.568,0,0,1-5.126,4.725A28.421,28.421,0,0,1,58.8,29.6l-.079.012c-2.836.43-5.768.875-7.9,2.648a14.88,14.88,0,0,0-1.782,1.862l-.024.028c-.416.488-.846.994-1.322,1.461-2.131,2.09-5.172,2.667-8.113,3.225L39,38.947a77.93,77.93,0,0,1-14.852,1.2c-3.022,0-5.941-.1-8.765-.193-2.682-.089-5.721-.19-8.32-1.58-2.376-1.27-4.605-4.144-4.056-6.969l-.461-.074H2.539l-.256-.042c-.309-.051-.619-.1-.906-.148A6.9,6.9,0,0,0,2.26,38.23a11.55,11.55,0,0,0,6.709,3.993,31.472,31.472,0,0,0,7.132.6l.92,0h.054a19.851,19.851,0,0,1,2.207.175h.006c.677.079,1.377.16,1.995.169.159-.221.345-.517.524-.8l.006-.01a11.882,11.882,0,0,1,.688-1.028A.378.378,0,0,1,22.8,41.179Z" transform="translate(46 33.5)"/>
      <path id="Fill_3-2" data-name="Fill 3" d="M.406,2a.456.456,0,0,1-.32-.121.27.27,0,0,1,.07-.441C.953.956,1.665.509,2.334.073A.491.491,0,0,1,2.9.112a.269.269,0,0,1-.049.443c-.676.44-1.4.891-2.2,1.379A.483.483,0,0,1,.406,2" transform="translate(71 48.5)"/>
      <path id="Fill_5-2" data-name="Fill 5" d="M.392,2A.39.39,0,0,1,.11,1.88.4.4,0,0,1,.12,1.323Q.732.728,1.328.119A.39.39,0,0,1,1.882.112a.4.4,0,0,1,.006.557q-.6.62-1.224,1.22A.391.391,0,0,1,.392,2" transform="translate(77 43.5)"/>
      <path id="Fill_7-3" data-name="Fill 7" d="M.324,3a.282.282,0,0,1-.211-.1.525.525,0,0,1-.036-.6C.531,1.6.984.879,1.424.159A.275.275,0,0,1,1.879.094a.524.524,0,0,1,.049.6c-.444.727-.9,1.453-1.358,2.157A.3.3,0,0,1,.324,3" transform="translate(82 37.5)"/>
      <path id="Fill_9-3" data-name="Fill 9" d="M13.457,8,13.41,8a.369.369,0,0,1-.323-.411c.222-1.735.357-3.4-.424-4.752A4.748,4.748,0,0,0,8.371.74a5.68,5.68,0,0,0-4.5,2.139C2.89,4.417,1.811,5.955.669,7.451a.375.375,0,0,1-.521.072.365.365,0,0,1-.073-.515c1.129-1.481,2.2-3,3.172-4.523C4.349.771,6.6.08,8.339.006a5.443,5.443,0,0,1,4.969,2.463c.894,1.544.745,3.42.517,5.209A.37.37,0,0,1,13.457,8" transform="translate(85 29.5)"/>
      <path id="Fill_11-3" data-name="Fill 11" d="M.445,2A.454.454,0,0,1,.13,1.876a.411.411,0,0,1,0-.6l.084-.084C.539.858.85.539,1.155.215L1.225.14A.46.46,0,0,1,1.853.109a.412.412,0,0,1,.033.6l-.07.075c-.309.327-.622.65-.937.972-.05.051-.085.087-.12.12A.454.454,0,0,1,.445,2" transform="translate(80 41.5)"/>
      <path id="Fill_13-3" data-name="Fill 13" d="M.435,2a.423.423,0,0,1-.327-.156.479.479,0,0,1,.039-.65Q.656.718,1.158.231l.1-.1a.419.419,0,0,1,.616,0,.48.48,0,0,1,0,.651c-.028.03-.058.059-.088.088L1.75.908c-.342.331-.683.656-1.027.977A.419.419,0,0,1,.435,2" transform="translate(75 45.5)"/>
      <path id="Fill_15-3" data-name="Fill 15" d="M.372,13a.368.368,0,0,1-.237-.086.382.382,0,0,1-.05-.532A9.6,9.6,0,0,1,4.654,9.617c.168-.06.333-.12.495-.18a69.587,69.587,0,0,0,10.81-5.122C17.058,3.676,18.153,3,19.215,2.3,20.3,1.587,21.373.838,22.409.072a.369.369,0,0,1,.52.083.381.381,0,0,1-.082.527c-1.047.774-2.133,1.53-3.227,2.248-1.073.706-2.18,1.393-3.29,2.039A70.288,70.288,0,0,1,5.4,10.146q-.246.091-.5.182A9,9,0,0,0,.659,12.863.37.37,0,0,1,.372,13" transform="translate(47 51.5)"/>
      <path id="Fill_17-3" data-name="Fill 17" d="M.369,7a.379.379,0,0,1-.261-.1.337.337,0,0,1-.043-.446.263.263,0,0,1,.021-.028l.488-.578c.886-1.051,1.8-2.138,2.778-3.122a18.212,18.212,0,0,1,2.44-2.1,3.2,3.2,0,0,1,4.021.3c.265.258.526.519.786.779a15.53,15.53,0,0,0,3.739,3.045,6.017,6.017,0,0,0,1.379.509A6.484,6.484,0,0,0,20.05,4.8a5.588,5.588,0,0,0,.6-.345l.243.265-.212-.287A5.814,5.814,0,0,0,23.263.314.363.363,0,0,1,23.669,0,.356.356,0,0,1,24,.388,6.517,6.517,0,0,1,21.106,5l-.034.023a6.333,6.333,0,0,1-.68.39,7.266,7.266,0,0,1-4.856.517,6.759,6.759,0,0,1-1.553-.574,16.315,16.315,0,0,1-3.921-3.178c-.258-.258-.516-.516-.779-.771a2.428,2.428,0,0,0-3.052-.222A17.447,17.447,0,0,0,3.89,3.2c-.956.965-1.863,2.04-2.739,3.08l-.48.568a.347.347,0,0,1-.04.046A.379.379,0,0,1,.369,7" transform="translate(91 37.5)"/>
      <path id="Fill_19-3" data-name="Fill 19" d="M.347,4a.345.345,0,0,1-.31-.225.444.444,0,0,1,.154-.547A26.3,26.3,0,0,0,4.442.085a.313.313,0,0,1,.486.074.457.457,0,0,1-.063.572A27,27,0,0,1,.5,3.957.3.3,0,0,1,.347,4" transform="translate(81 49.5)"/>
      <path id="Fill_21-3" data-name="Fill 21" d="M6.061,2A11.586,11.586,0,0,1,.157.583.291.291,0,0,1,.074.132.431.431,0,0,1,.61.063C2.789,1.409,6.338,1.6,8.718,1.094A27.484,27.484,0,0,0,12.469.058a.412.412,0,0,1,.5.174.307.307,0,0,1-.206.422A28.774,28.774,0,0,1,8.906,1.72,13.923,13.923,0,0,1,6.061,2" transform="translate(66 53.5)"/>
      <path id="Fill_23-3" data-name="Fill 23" d="M.347,4a.35.35,0,0,1-.263-.117A.331.331,0,0,1,.12,3.406,25.78,25.78,0,0,0,2.34,1.3C2.675.944,3.015.559,3.381.127L3.407.1A.353.353,0,0,1,3.9.1a.331.331,0,0,1,0,.478l0,0q-.525.624-1.041,1.177a26.306,26.306,0,0,1-2.28,2.16A.351.351,0,0,1,.347,4" transform="translate(87 45.5)"/>
      <path id="Fill_25-3" data-name="Fill 25" d="M10.141,21c-.146,0-.29,0-.434-.01C6.918,20.861,3.7,19.3.136,16.356a.373.373,0,0,1-.049-.527.378.378,0,0,1,.53-.049c3.385,2.8,6.541,4.342,9.125,4.462a12.583,12.583,0,0,0,6.287-1.652,44.146,44.146,0,0,0,9.578-7.181c1.175-1.063,2.39-2.162,3.7-3.253l.168-.139a23.2,23.2,0,0,0,2.85-2.645,3.875,3.875,0,0,0,.911-2.692A2.175,2.175,0,0,0,31.615.745L31.589.739A.375.375,0,0,1,31.3.374.381.381,0,0,1,31.761.01,2.911,2.911,0,0,1,33.982,2.6a4.614,4.614,0,0,1-1.063,3.225,23.587,23.587,0,0,1-2.964,2.764l-.167.139c-1.3,1.082-2.506,2.176-3.675,3.234a44.77,44.77,0,0,1-9.74,7.292A13.743,13.743,0,0,1,10.141,21" transform="translate(63 39.5)"/>
      <path id="Fill_27-3" data-name="Fill 27" d="M36.629,10a.37.37,0,0,1-.368-.323c-.482-3.925-4.831-5.493-7.38-6.077-2.923-.671-5.933-.43-9.552.137-.491.077-.983.157-1.474.238a40.255,40.255,0,0,1-8.286.773C4.812,4.532,1.611,3.122.053.556A.365.365,0,0,1,.18.053.373.373,0,0,1,.689.178C2.111,2.52,5.11,3.811,9.6,4.015a39.753,39.753,0,0,0,8.131-.764c.494-.08.987-.161,1.48-.239a26.238,26.238,0,0,1,9.836-.128c2.738.629,7.412,2.335,7.949,6.7a.368.368,0,0,1-.323.409l-.045,0" transform="translate(50 61.5)"/>
      <path id="Fill_29-3" data-name="Fill 29" d="M.384,21a.382.382,0,0,1-.373-.279.366.366,0,0,1,.281-.444c2.481-.585,4.319-3.377,5.211-5.8A27.111,27.111,0,0,0,6.648,9.55c.152-.911.309-1.853.516-2.772.066-.295.128-.586.189-.874.479-2.255.931-4.385,3.039-5.834a.4.4,0,0,1,.536.084.357.357,0,0,1-.087.512C8.978,1.947,8.574,3.848,8.106,6.049c-.062.291-.124.585-.191.883-.2.9-.358,1.833-.509,2.734a27.657,27.657,0,0,1-1.177,5.06c-.466,1.261-2.256,5.44-5.753,6.264A.4.4,0,0,1,.384,21" transform="translate(102 41.5)"/>
      <path id="Fill_31-3" data-name="Fill 31" d="M9.6,19A19.241,19.241,0,0,1,.191,16.549a.381.381,0,0,1-.144-.513.366.366,0,0,1,.5-.147c5.506,3.112,12.543,3.149,17.51.091,4.548-2.8,7.645-8.075,9.207-15.68a.368.368,0,0,1,.438-.292.377.377,0,0,1,.286.447c-1.605,7.818-4.818,13.259-9.549,16.171A16.9,16.9,0,0,1,9.6,19" transform="translate(79 42.5)"/>
      <path id="Fill_33-3" data-name="Fill 33" d="M6.627,7A.37.37,0,0,1,6.3,6.8,14.009,14.009,0,0,0,.215.757.408.408,0,0,1,.036.228a.364.364,0,0,1,.5-.191A14.782,14.782,0,0,1,6.953,6.41a.409.409,0,0,1-.145.54A.351.351,0,0,1,6.627,7" transform="translate(85 54.5)"/>
      <path id="Fill_35-3" data-name="Fill 35" d="M7.617,8a.384.384,0,0,1-.346-.22A14.979,14.979,0,0,0,.222.738.388.388,0,0,1,.036.223.381.381,0,0,1,.545.036a15.546,15.546,0,0,1,7.417,7.41.388.388,0,0,1-.18.516A.377.377,0,0,1,7.617,8" transform="translate(87 52.5)"/>
      <path id="Fill_37-3" data-name="Fill 37" d="M7.637,8A.363.363,0,0,1,7.3,7.772,12.106,12.106,0,0,0,.22.713.375.375,0,0,1,.029.225.361.361,0,0,1,.506.03,12.776,12.776,0,0,1,7.972,7.486a.374.374,0,0,1-.2.486A.352.352,0,0,1,7.637,8" transform="translate(89 51.5)"/>
      <path id="Fill_39-3" data-name="Fill 39" d="M8.619,9a.382.382,0,0,1-.368-.288C7.38,5.357,4.46,2.454.24.745a.388.388,0,0,1-.213-.5.379.379,0,0,1,.5-.215c4.447,1.8,7.533,4.894,8.465,8.488A.383.383,0,0,1,8.619,9" transform="translate(91 48.5)"/>
      <path id="Fill_41-3" data-name="Fill 41" d="M7.643,8a.357.357,0,0,1-.337-.239A11.75,11.75,0,0,0,.244.7.357.357,0,0,1,.471.018,12.49,12.49,0,0,1,7.98,7.525a.357.357,0,0,1-.219.455A.352.352,0,0,1,7.643,8" transform="translate(94 46.5)"/>
      <path id="Fill_43-3" data-name="Fill 43" d="M1.2,3A1.244,1.244,0,0,1,.51,2.8,1.4,1.4,0,0,1,.1,1.139.265.265,0,0,1,.446.951a.32.32,0,0,1,.166.394c-.049.158-.183.693.171.927a.839.839,0,0,0,.549.1,1.446,1.446,0,0,0,1.016-.623.738.738,0,0,0,.08-.591A.694.694,0,0,0,1.85.614.3.3,0,0,1,1.61.273.286.286,0,0,1,1.911,0,1.262,1.262,0,0,1,2.948.985,1.423,1.423,0,0,1,2.8,2.1a1.967,1.967,0,0,1-1.414.894A1.709,1.709,0,0,1,1.2,3" transform="translate(79 53.5)"/>
      <path id="Fill_45-2" data-name="Fill 45" d="M1.259,3a1.261,1.261,0,0,1-.9-.407A1.265,1.265,0,0,1,.009,1.569,1.283,1.283,0,0,1,.1,1.237a.274.274,0,0,1,.362-.154.288.288,0,0,1,.149.373.727.727,0,0,0-.048.184.689.689,0,0,0,.2.554.7.7,0,0,0,.557.232A1.591,1.591,0,0,0,2.416,1.4a.76.76,0,0,0-.07-.571.473.473,0,0,0-.437-.26A1.083,1.083,0,0,0,1.443.7.274.274,0,0,1,1.074.564a.289.289,0,0,1,.133-.38A1.606,1.606,0,0,1,1.912,0a1.022,1.022,0,0,1,.941.6,1.348,1.348,0,0,1,.084,1,2.121,2.121,0,0,1-1.569,1.4A1.053,1.053,0,0,1,1.259,3" transform="translate(86 49.5)"/>
      <path id="Fill_47-2" data-name="Fill 47" d="M1.283,3a1.364,1.364,0,0,1-.895-.322A1.245,1.245,0,0,1,.161,1.152a.3.3,0,0,1,.4-.125.292.292,0,0,1,.127.4.674.674,0,0,0,.095.819.778.778,0,0,0,.6.166,1.147,1.147,0,0,0,.838-.564,1.205,1.205,0,0,0,.1-1.062c-.08-.2-.574-.25-.873-.143A.3.3,0,0,1,1.071.464.292.292,0,0,1,1.249.088c.524-.187,1.4-.1,1.63.478a1.788,1.788,0,0,1-.14,1.576,1.739,1.739,0,0,1-1.275.847A1.471,1.471,0,0,1,1.283,3" transform="translate(91 44.5)"/>
      <path id="Fill_49-2" data-name="Fill 49" d="M8.6,8a.39.39,0,0,1-.39-.31c-.049-.274-.1-.514-.166-.732s-.127-.423-.2-.614A10.236,10.236,0,0,0,2.972,1.2l-.085-.046c-.133-.072-.331-.178-.528-.268A2.039,2.039,0,0,0,1.994.748a2.906,2.906,0,0,0-1,.727l.1.048c1.975.914,4.629,2.436,6.056,4.492a.359.359,0,0,1-.116.515.412.412,0,0,1-.548-.109C5.163,4.506,2.636,3.063.748,2.19.573,2.108.4,2.03.228,1.956a.381.381,0,0,1-.209-.222.352.352,0,0,1,.03-.295A3.642,3.642,0,0,1,1.849.014a1.411,1.411,0,0,1,.855.2c.215.1.431.214.576.292l.08.043A11.008,11.008,0,0,1,8.594,6.1c.08.208.152.429.219.672a8.156,8.156,0,0,1,.181.8.375.375,0,0,1-.324.429A.449.449,0,0,1,8.6,8" transform="translate(73 46.5)"/>
      <path id="Fill_51-2" data-name="Fill 51" d="M11.812,5a.412.412,0,0,1-.229-.069A23.417,23.417,0,0,0,1.229,2.065c-.131,0-.254,0-.377,0-.16,0-.312,0-.464.006H.377a.378.378,0,0,1-.349-.213.321.321,0,0,1,.093-.38A10.929,10.929,0,0,1,1.917.209,2.973,2.973,0,0,1,3.047,0,1.515,1.515,0,0,1,3.3.029C3.921.134,6.09.6,6.953.878a15.872,15.872,0,0,1,5.914,3.054.335.335,0,0,1,.107.194L13,4.253a.334.334,0,0,1-.208.355l-.811.357A.406.406,0,0,1,11.812,5ZM3.056.682h0A2.336,2.336,0,0,0,2.289.8a7.057,7.057,0,0,0-.906.581A24.2,24.2,0,0,1,11.835,4.268l.219-.1A15.862,15.862,0,0,0,6.7,1.522C5.879,1.259,3.744.8,3.163.7L3.14.7C3.1.689,3.074.685,3.056.683Z" transform="translate(69 50.5)"/>
      <path id="Fill_53-2" data-name="Fill 53" d="M12.035,7a.383.383,0,0,1-.191-.051l-.174-.1c-.3-.174-.519-.3-.866-.5-.167-.1-.333-.19-.494-.279l-.094-.053a34.565,34.565,0,0,0-9.26-3.8C.746,2.178.536,2.135.315,2.093a.389.389,0,0,1-.292-.25.4.4,0,0,1,.063-.382c.091-.113.173-.229.263-.358A2.285,2.285,0,0,1,1.675.012.344.344,0,0,1,1.763,0L1.8,0A5.372,5.372,0,0,1,2.526.12,27.513,27.513,0,0,1,9.882,3.549c.579.37,1.116.732,1.6,1.077.145.1.294.21.442.322.31.228.78.619.935.747A.406.406,0,0,1,13,5.98a.4.4,0,0,1-.106.3l-.583.6A.377.377,0,0,1,12.035,7ZM1.8.787a1.489,1.489,0,0,0-.743.658l.032.007.032.007A35.143,35.143,0,0,1,10.561,5.32l.032.018c.215.121.4.224.589.333.307.172.52.295.785.448l.078-.082c-.081-.065-.362-.3-.583-.459-.133-.1-.273-.2-.427-.31-.457-.329-.984-.684-1.564-1.057A26.764,26.764,0,0,0,2.36.884,4.875,4.875,0,0,0,1.8.788h0Z" transform="translate(75 44.5)"/>
      <path id="Fill_55-2" data-name="Fill 55" d="M9.618,9a.381.381,0,0,1-.326-.187c-.167-.279-.733-1.181-.841-1.341A23.068,23.068,0,0,0,4.551,3,22.737,22.737,0,0,0,2.238,1.177c-.063-.043-.128-.093-.2-.145S1.926.942,1.865.9,1.658.765,1.613.8a3.278,3.278,0,0,0-.668.786L.979,1.6a25.594,25.594,0,0,1,6.09,4.688.4.4,0,0,1-.041.554.376.376,0,0,1-.54-.042A24.985,24.985,0,0,0,.607,2.287L.2,2.06A.393.393,0,0,1,.009,1.8a.4.4,0,0,1,.068-.319c.064-.087.13-.184.2-.284A4.049,4.049,0,0,1,1.183.146a.942.942,0,0,1,1.11.1c.07.049.14.1.208.154s.11.085.162.121A23.518,23.518,0,0,1,5.055,2.41,23.857,23.857,0,0,1,9.082,7.029c.112.165.686,1.079.862,1.373a.4.4,0,0,1-.125.54.374.374,0,0,1-.2.058" transform="translate(78 41.5)"/>
      <path id="Fill_57-2" data-name="Fill 57" d="M12.073,7a.4.4,0,0,1-.208-.059c-.305-.188-.615-.373-.923-.55-.194-.117-.4-.238-.659-.379a34.26,34.26,0,0,0-9.4-3.686C.682,2.28.5,2.241.313,2.208A.387.387,0,0,1,.029,1.98a.369.369,0,0,1,.039-.356A6.04,6.04,0,0,1,1.482.075.4.4,0,0,1,1.716,0a.408.408,0,0,1,.119.018c.169.053.344.11.536.175C5.5,1.223,9.992,2.913,12.883,5.675a.368.368,0,0,1,.065.456,2.776,2.776,0,0,1-.31.394l-.01.011a2.41,2.41,0,0,0-.218.27.389.389,0,0,1-.244.181A.37.37,0,0,1,12.073,7ZM1.792.8h0a4.507,4.507,0,0,0-.748.79l.009,0A35.089,35.089,0,0,1,10.67,5.357c.23.129.454.255.674.39.188.107.395.228.633.372L12,6.089l.047-.054c.015-.016.03-.033.044-.05C9.3,3.46,5.065,1.877,2.119.906L1.792.8Z" transform="translate(80 39.5)"/>
      <path id="Fill_59-2" data-name="Fill 59" d="M8.618,9a.382.382,0,0,1-.356-.238c-.074-.186-.153-.373-.234-.557A16.678,16.678,0,0,0,4.6,3.073,16.946,16.946,0,0,0,2.366,1.194c-.127-.09-.255-.178-.384-.263C1.922.889,1.87.856,1.817.821L1.744.774,1.735.768c-.027.023-.062.053-.092.08L1.6.889a3.638,3.638,0,0,0-.715.867q.128.08.255.163A22.466,22.466,0,0,1,6.965,7.063a.37.37,0,0,1-.082.523A.386.386,0,0,1,6.349,7.5,21.713,21.713,0,0,0,.714,2.544c-.18-.119-.357-.228-.533-.335a.37.37,0,0,1-.147-.474A4.356,4.356,0,0,1,1.084.335L1.127.3A.754.754,0,0,1,2.168.151L2.238.2c.06.039.121.078.18.119.127.084.262.176.4.271A17.638,17.638,0,0,1,5.145,2.551,17.409,17.409,0,0,1,8.73,7.91c.084.191.166.386.244.58a.372.372,0,0,1-.217.484A.383.383,0,0,1,8.618,9" transform="translate(83 36.5)"/>
      <path id="Fill_61-2" data-name="Fill 61" d="M.232,13A.232.232,0,0,1,.1,12.574,10.014,10.014,0,0,0,3.7,8.365,10.022,10.022,0,0,0,3.7.327.231.231,0,1,1,4.121.137a10.5,10.5,0,0,1,0,8.417,10.481,10.481,0,0,1-3.76,4.408A.225.225,0,0,1,.232,13" transform="translate(113 45.5)"/>
      <path id="Fill_63-2" data-name="Fill 63" d="M3.263,2A5.036,5.036,0,0,1,.081.864.22.22,0,0,1,.052.551.225.225,0,0,1,.368.522,4.579,4.579,0,0,0,3.58,1.545,4.564,4.564,0,0,0,6.608.074.225.225,0,0,1,6.925.057a.22.22,0,0,1,.017.314,5.019,5.019,0,0,1-3.33,1.617Q3.438,2,3.263,2" transform="translate(105 40.5)"/>
      <path id="Fill_65-2" data-name="Fill 65" d="M.237,2A.236.236,0,0,1,.05,1.618,4.369,4.369,0,0,1,4.843.235a.236.236,0,1,1-.159.444,3.887,3.887,0,0,0-4.26,1.23A.237.237,0,0,1,.237,2" transform="translate(108 34.5)"/>
      <path id="Fill_67-2" data-name="Fill 67" d="M7.642,4a.214.214,0,0,1-.095-.023.244.244,0,0,1-.108-.315,1.82,1.82,0,0,0-.46-1.907A4.3,4.3,0,0,0,4.947.559,5.049,5.049,0,0,0,.369,2.016a.214.214,0,0,1-.315-.025.248.248,0,0,1,.024-.334A5.45,5.45,0,0,1,5.013.089,4.715,4.715,0,0,1,7.287,1.411a2.283,2.283,0,0,1,.558,2.452.223.223,0,0,1-.2.137" transform="translate(89 30.5)"/>
      <path id="Fill_69-2" data-name="Fill 69" d="M6.767,3A9.963,9.963,0,0,1,1.649,1.579L.834,1.03A9.45,9.45,0,0,1,.071.391.23.23,0,0,1,.056.074.212.212,0,0,1,.363.058a9.039,9.039,0,0,0,.718.6l.8.537a9.379,9.379,0,0,0,7.836.862.216.216,0,0,1,.275.141.226.226,0,0,1-.136.285A9.349,9.349,0,0,1,6.767,3" transform="translate(53 61.5)"/>
      <path id="Fill_71-2" data-name="Fill 71" d="M3.776,4a.222.222,0,0,1-.194-.12A8.246,8.246,0,0,0,.128.456.248.248,0,0,1,.022.136.219.219,0,0,1,.32.023,8.711,8.711,0,0,1,3.97,3.64a.249.249,0,0,1-.082.328A.21.21,0,0,1,3.776,4" transform="translate(84 64.5)"/>
      <path id="Fill_73-2" data-name="Fill 73" d="M1.123,3Q.666,3,.208,2.974A.214.214,0,0,1,0,2.751a.216.216,0,0,1,.234-.2A15.548,15.548,0,0,0,7.722,1.112,15.258,15.258,0,0,0,9.652.038.228.228,0,0,1,9.96.09.2.2,0,0,1,9.9.383,15.659,15.659,0,0,1,7.919,1.488,15.966,15.966,0,0,1,1.123,3" transform="translate(89 59.5)"/>
      <path id="Fill_75-2" data-name="Fill 75" d="M11.15,4a26.453,26.453,0,0,1-4.006-.29A12.915,12.915,0,0,1,.077.437.27.27,0,0,1,.053.087.2.2,0,0,1,.364.059,12.5,12.5,0,0,0,7.2,3.218a29.173,29.173,0,0,0,7.555.08A.23.23,0,0,1,15,3.52a.242.242,0,0,1-.2.272A32.8,32.8,0,0,1,11.15,4" transform="translate(53 67.5)"/>
      <path id="Fill_77-2" data-name="Fill 77" d="M.233,4a.233.233,0,0,1-.209-.137A.252.252,0,0,1,.13,3.535,17.3,17.3,0,0,1,4.8,2.007c.606-.121,1.217-.23,1.829-.337A22.9,22.9,0,0,0,12.669.022a.23.23,0,0,1,.309.12.25.25,0,0,1-.114.326A23.219,23.219,0,0,1,6.7,2.154c-.608.108-1.216.215-1.819.336A16.849,16.849,0,0,0,.337,3.974.227.227,0,0,1,.233,4" transform="translate(98 61.5)"/>
      <path id="Fill_79-2" data-name="Fill 79" d="M6.685,3A9.81,9.81,0,0,1,.078.425.253.253,0,0,1,.056.083.218.218,0,0,1,.376.059,9.367,9.367,0,0,0,6.685,2.517h.088a.242.242,0,0,1,0,.483H6.685" transform="translate(66 56.5)"/>
      <path id="Fill_81-2" data-name="Fill 81" d="M43.893,45a15.282,15.282,0,0,1-2.977-.265.367.367,0,0,1-.222-.138,7.691,7.691,0,0,1-.846-1.342l0-.007,0-.006-.034.109-.023.074-.012.04c-.1.318-.2.647-.29.983a.376.376,0,0,1-.353.283H39.1A16.661,16.661,0,0,1,31.058,42.6a.38.38,0,0,1-.183-.282,9.573,9.573,0,0,0-.374-1.84,3.856,3.856,0,0,0-.437.841.377.377,0,0,1-.353.249H29.7a5.393,5.393,0,0,1-3.65-1.76c-.274-.28-.536-.57-.78-.842l-.011-.012a10.359,10.359,0,0,0-1.888-1.776,4.877,4.877,0,0,0-2.712-.787,5.126,5.126,0,0,0-3.959,1.79.381.381,0,0,1-.262.137c-.364.03-.721.044-1.063.044a9.113,9.113,0,0,1-3.5-.641,2.132,2.132,0,0,1-.965-.663,2.27,2.27,0,0,1-.351-1.073l0-.011c-.012-.081-.024-.165-.039-.245a1.229,1.229,0,0,0-.19-.488c-.08.121-.162.241-.242.358l-.031.046-.007.01c-.16.231-.312.45-.441.672a.372.372,0,0,1-.319.188.364.364,0,0,1-.049,0,8.934,8.934,0,0,1-2.522-.634,3.091,3.091,0,0,1-1.835-1.954c-.041-.154-.07-.321-.1-.483-.007-.048-.015-.095-.023-.14-.051.157-.131.394-.2.651a.379.379,0,0,1-.363.273.38.38,0,0,1-.152-.032A6.9,6.9,0,0,1,.05,28.5a17.017,17.017,0,0,1,1.1-6.9c-.09-.238-.169-.484-.236-.732-1.455-5.369.919-11.24,3.7-16.784l.175-.351C5.516,2.271,6.336.617,7.963.137A3.458,3.458,0,0,1,8.941,0a5.448,5.448,0,0,1,3.181,1.2A17.438,17.438,0,0,1,13.768,2.67a18.79,18.79,0,0,0,1.4,1.278,5.321,5.321,0,0,0,3.08.847,5.274,5.274,0,0,0,1.081-.1.371.371,0,0,1,.08-.009.38.38,0,0,1,.368.3.377.377,0,0,1-.29.446,6.14,6.14,0,0,1-1.261.123A5.96,5.96,0,0,1,14.7,4.539,19.492,19.492,0,0,1,13.242,3.21l-.016-.016A16.734,16.734,0,0,0,11.668,1.8,4.694,4.694,0,0,0,8.946.752,2.714,2.714,0,0,0,8.177.86c-1.312.387-2.021,1.819-2.707,3.2l-.178.355C2.578,9.83.256,15.543,1.645,20.669a9.941,9.941,0,0,0,5.435,6,27.76,27.76,0,0,0,8.238,2.185l.076.012c2.939.446,5.978.906,8.277,2.813a15.977,15.977,0,0,1,1.895,1.979c.406.477.827.971,1.279,1.415,1.968,1.93,4.9,2.486,7.728,3.023l.572.108A77.212,77.212,0,0,0,49.864,39.4c3,0,5.906-.1,8.717-.191H58.6c2.6-.087,5.541-.186,7.983-1.492,2.341-1.252,4.323-4.028,3.587-6.505a.377.377,0,0,1,.3-.48c.253-.039.528-.084.819-.131l.351-.057c.467-.077.825-.135,1.127-.183a.4.4,0,0,1,.055,0,.382.382,0,0,1,.331.189,7.542,7.542,0,0,1-.813,8.138A12.3,12.3,0,0,1,65.2,42.957a32.1,32.1,0,0,1-7.228.617l-1.053,0H56.9a18.984,18.984,0,0,0-2.1.169H54.8a19.627,19.627,0,0,1-2.194.175h-.079a.383.383,0,0,1-.29-.141,11.65,11.65,0,0,1-.678-1.012l-.01-.016-.123-.2-.046-.073c-.015.071-.029.142-.044.221l-.01.051c-.069.342-.139.695-.236,1.045a.379.379,0,0,1-.267.265A28.443,28.443,0,0,1,43.893,45Zm-4.162-3.1a.373.373,0,0,1,.319.177c.193.307.325.559.453.8l.012.023a6.941,6.941,0,0,0,.688,1.122,14.673,14.673,0,0,0,2.661.219,28.239,28.239,0,0,0,6.553-.856c.066-.265.118-.524.179-.834.071-.357.144-.726.247-1.1a.377.377,0,0,1,.658-.136,11.764,11.764,0,0,1,.684,1.021l0,.008.013.021c.176.282.359.573.517.792.617-.008,1.315-.089,1.99-.168h.009a20.27,20.27,0,0,1,2.209-.175h.031l.972,0a31.328,31.328,0,0,0,7.1-.6,11.556,11.556,0,0,0,6.709-3.993,6.909,6.909,0,0,0,.884-7.085c-.3.047-.616.1-.86.139l-.236.038-.012,0-.523.085c.549,2.824-1.68,5.7-4.056,6.969-2.6,1.39-5.639,1.491-8.32,1.58-2.819.095-5.734.192-8.758.192A77.956,77.956,0,0,1,35,38.947l-.569-.108h-.006c-2.94-.558-5.981-1.134-8.111-3.224-.477-.468-.907-.973-1.323-1.461l-.01-.012a14.992,14.992,0,0,0-1.794-1.878c-2.139-1.773-5.071-2.218-7.906-2.648l-.078-.011a28.414,28.414,0,0,1-8.459-2.254,11.561,11.561,0,0,1-5.126-4.725,15.131,15.131,0,0,0-.82,5.8,6.166,6.166,0,0,0,3.153,4.89l.024-.074c.031-.1.062-.19.094-.283l.017-.053c.074-.226.151-.458.223-.706a.377.377,0,0,1,.579-.2,1.823,1.823,0,0,1,.631,1.321l0,.026c.022.129.044.263.077.388a2.384,2.384,0,0,0,1.409,1.457,7.924,7.924,0,0,0,2.065.545c.114-.177.235-.353.348-.517l.022-.033c.154-.223.3-.434.425-.649a.377.377,0,0,1,.407-.178,1.41,1.41,0,0,1,.973,1.237c.017.09.03.183.043.274v.009l0,.016a1.656,1.656,0,0,0,.212.721,1.449,1.449,0,0,0,.642.41,8.36,8.36,0,0,0,3.217.586c.273,0,.558-.01.847-.031a5.953,5.953,0,0,1,4.451-1.933,5.605,5.605,0,0,1,3.118.905,11.141,11.141,0,0,1,2.034,1.9l.007.008c.245.273.5.554.758.818A4.733,4.733,0,0,0,29.46,40.8a5.214,5.214,0,0,1,.886-1.349.377.377,0,0,1,.28-.125.364.364,0,0,1,.066.006.375.375,0,0,1,.285.231,9.776,9.776,0,0,1,.625,2.479,15.879,15.879,0,0,0,7.227,1.922c.076-.27.16-.534.233-.767.1-.328.21-.667.3-1.019a.378.378,0,0,1,.309-.277A.389.389,0,0,1,39.731,41.9Z" transform="translate(0 3.5)"/>
      <path id="Fill_83" data-name="Fill 83" d="M2.594,2a.484.484,0,0,1-.249-.067C1.541,1.446.821,1,.144.554A.268.268,0,0,1,.1.111.491.491,0,0,1,.666.074C1.336.51,2.048.957,2.844,1.439a.27.27,0,0,1,.07.441A.456.456,0,0,1,2.594,2" transform="translate(45 18.5)"/>
      <path id="Fill_85" data-name="Fill 85" d="M1.608,2a.391.391,0,0,1-.272-.111Q.715,1.287.112.669A.4.4,0,0,1,.118.112.391.391,0,0,1,.672.119q.6.611,1.208,1.2A.394.394,0,0,1,1.608,2" transform="translate(41 14.5)"/>
      <path id="Fill_87" data-name="Fill 87" d="M1.676,3a.3.3,0,0,1-.246-.15C.964,2.134.507,1.408.071.694a.523.523,0,0,1,.05-.6A.275.275,0,0,1,.577.16c.431.708.884,1.427,1.346,2.137a.524.524,0,0,1-.036.6.281.281,0,0,1-.21.1" transform="translate(36 8.5)"/>
      <path id="Fill_89" data-name="Fill 89" d="M.544,8a.37.37,0,0,1-.369-.322C-.054,5.889-.2,4.013.691,2.469A5.455,5.455,0,0,1,5.661.005C7.4.08,9.652.77,10.753,2.485c.976,1.521,2.043,3.042,3.172,4.523a.365.365,0,0,1-.073.515.375.375,0,0,1-.521-.072c-1.141-1.5-2.22-3.035-3.207-4.572A5.68,5.68,0,0,0,5.629.74,4.746,4.746,0,0,0,1.338,2.835C.557,4.182.691,5.851.913,7.586A.369.369,0,0,1,.591,8L.544,8" transform="translate(21 0.5)"/>
      <path id="Fill_91" data-name="Fill 91" d="M1.555,2a.454.454,0,0,1-.314-.124c-.04-.038-.08-.079-.12-.12C.807,1.433.493,1.111.184.784L.112.706A.411.411,0,0,1,.15.106.459.459,0,0,1,.777.143L.845.215c.306.324.616.643.927.962.032.033.065.067.1.1a.411.411,0,0,1,0,.6A.454.454,0,0,1,1.555,2" transform="translate(38 11.5)"/>
      <path id="Fill_93" data-name="Fill 93" d="M1.565,2a.421.421,0,0,1-.288-.115Q.761,1.4.253.911L.216.875C.186.846.156.817.127.786a.48.48,0,0,1,0-.652.419.419,0,0,1,.616,0l.1.1c.331.321.669.643,1.008.959a.481.481,0,0,1,.039.651A.424.424,0,0,1,1.565,2" transform="translate(43 16.5)"/>
      <path id="Fill_95" data-name="Fill 95" d="M22.628,13a.37.37,0,0,1-.287-.137A9,9,0,0,0,18.1,10.329c-.17-.062-.338-.122-.5-.183A70.294,70.294,0,0,1,6.67,4.97c-1.1-.643-2.212-1.329-3.29-2.039C2.286,2.213,1.2,1.457.153.683A.381.381,0,0,1,.071.155.369.369,0,0,1,.591.072C1.627.838,2.7,1.587,3.784,2.3S5.947,3.679,7.041,4.315a69.574,69.574,0,0,0,10.81,5.122c.161.06.327.12.5.18a9.6,9.6,0,0,1,4.568,2.765.382.382,0,0,1-.05.532.368.368,0,0,1-.237.086" transform="translate(50 21.5)"/>
      <path id="Fill_97" data-name="Fill 97" d="M23.631,7a.379.379,0,0,1-.261-.1.347.347,0,0,1-.04-.046l-.475-.562C21.977,5.247,21.069,4.17,20.11,3.2a17.392,17.392,0,0,0-2.341-2.015,2.428,2.428,0,0,0-3.052.222c-.262.255-.521.513-.779.772A16.329,16.329,0,0,1,10.018,5.36a6.755,6.755,0,0,1-1.554.575,7.262,7.262,0,0,1-4.856-.518,6.147,6.147,0,0,1-.68-.39L2.875,4.99A6.5,6.5,0,0,1,0,.388.356.356,0,0,1,.331,0,.363.363,0,0,1,.737.314,5.81,5.81,0,0,0,3.318,4.429l.052.036a5.5,5.5,0,0,0,.579.33,6.48,6.48,0,0,0,4.334.46,5.993,5.993,0,0,0,1.38-.51A15.547,15.547,0,0,0,13.4,1.7c.261-.261.521-.522.787-.78a3.2,3.2,0,0,1,4.021-.3,18.111,18.111,0,0,1,2.439,2.1c.979.986,1.9,2.076,2.783,3.129l.482.572a.3.3,0,0,1,.021.027.338.338,0,0,1-.043.446.379.379,0,0,1-.261.1" transform="translate(5 7.5)"/>
      <path id="Fill_99" data-name="Fill 99" d="M4.653,4A.3.3,0,0,1,4.5,3.957,26.971,26.971,0,0,1,.135.731.457.457,0,0,1,.072.159.313.313,0,0,1,.558.085a26.26,26.26,0,0,0,4.25,3.143.444.444,0,0,1,.154.547A.345.345,0,0,1,4.653,4" transform="translate(34 20.5)"/>
      <path id="Fill_101" data-name="Fill 101" d="M6.939,2a13.921,13.921,0,0,1-2.845-.28A28.785,28.785,0,0,1,.235.654.307.307,0,0,1,.03.231a.412.412,0,0,1,.5-.174A27.526,27.526,0,0,0,4.282,1.094c2.379.506,5.929.314,8.109-1.032a.431.431,0,0,1,.536.07.291.291,0,0,1-.083.451A11.584,11.584,0,0,1,6.939,2" transform="translate(41 24.5)"/>
      <path id="Fill_103" data-name="Fill 103" d="M3.653,4a.353.353,0,0,1-.227-.082A26.386,26.386,0,0,1,1.145,1.757C.8,1.388.452,1,.08.556A.333.333,0,0,1,.113.089.352.352,0,0,1,.59.1l0,0c.388.455.729.84,1.065,1.2a25.765,25.765,0,0,0,2.221,2.1.332.332,0,0,1,.036.477A.351.351,0,0,1,3.653,4" transform="translate(29 15.5)"/>
      <path id="Fill_105" data-name="Fill 105" d="M23.858,21a13.737,13.737,0,0,1-6.231-1.744,44.754,44.754,0,0,1-9.742-7.293C6.716,10.905,5.508,9.811,4.212,8.73l-.163-.136A23.523,23.523,0,0,1,1.081,5.827,4.61,4.61,0,0,1,.018,2.6,2.909,2.909,0,0,1,2.239.009.381.381,0,0,1,2.7.373a.376.376,0,0,1-.293.366L2.385.745A2.174,2.174,0,0,0,.767,2.68a3.872,3.872,0,0,0,.912,2.691A23.151,23.151,0,0,0,4.532,8.02l.163.136c1.307,1.091,2.522,2.19,3.7,3.252a44.144,44.144,0,0,0,9.58,7.182,12.572,12.572,0,0,0,6.286,1.652c2.584-.12,5.74-1.662,9.125-4.462a.378.378,0,0,1,.53.049.373.373,0,0,1-.049.528C30.3,19.3,27.082,20.861,24.293,20.99,24.149,21,24,21,23.858,21" transform="translate(23 10.5)"/>
      <path id="Fill_107" data-name="Fill 107" d="M.371,10,.326,10A.368.368,0,0,1,0,9.589C.54,5.22,5.214,3.514,7.952,2.885a26.239,26.239,0,0,1,9.836.128c.494.077.987.158,1.482.239a39.725,39.725,0,0,0,8.128.763c4.493-.2,7.491-1.495,8.913-3.837A.372.372,0,0,1,36.82.053a.365.365,0,0,1,.127.5c-1.558,2.566-4.759,3.976-9.515,4.192a40.338,40.338,0,0,1-8.283-.773q-.739-.121-1.477-.238c-3.619-.567-6.628-.808-9.553-.137-2.549.585-6.9,2.152-7.38,6.077A.37.37,0,0,1,.371,10" transform="translate(33 32.5)"/>
      <path id="Fill_109" data-name="Fill 109" d="M10.616,21a.4.4,0,0,1-.092-.011c-3.5-.823-5.287-5-5.753-6.263a27.709,27.709,0,0,1-1.177-5.06c-.151-.9-.306-1.834-.509-2.734-.067-.3-.129-.592-.191-.883-.468-2.2-.872-4.1-2.734-5.385A.357.357,0,0,1,.072.153.4.4,0,0,1,.608.069C2.715,1.519,3.167,3.649,3.647,5.9c.061.288.123.579.189.874.207.919.364,1.862.517,2.773A27.145,27.145,0,0,0,5.5,14.482c.893,2.418,2.731,5.21,5.211,5.795a.366.366,0,0,1,.281.444.382.382,0,0,1-.373.279" transform="translate(7 12.5)"/>
      <path id="Fill_111" data-name="Fill 111" d="M18.4,19a16.9,16.9,0,0,1-8.841-2.374C4.826,13.714,1.613,8.273.008.455A.377.377,0,0,1,.294.008.37.37,0,0,1,.733.3C2.294,7.906,5.391,13.181,9.94,15.981c4.967,3.058,12,3.021,17.51-.091a.366.366,0,0,1,.5.147.381.381,0,0,1-.144.513A19.246,19.246,0,0,1,18.4,19" transform="translate(13 13.5)"/>
      <path id="Fill_113" data-name="Fill 113" d="M.373,7a.351.351,0,0,1-.181-.05.409.409,0,0,1-.145-.54A14.784,14.784,0,0,1,6.468.038a.364.364,0,0,1,.5.191.408.408,0,0,1-.179.528A14.01,14.01,0,0,0,.7,6.8.37.37,0,0,1,.373,7" transform="translate(28 24.5)"/>
      <path id="Fill_115" data-name="Fill 115" d="M.383,8a.377.377,0,0,1-.165-.038.388.388,0,0,1-.18-.516A15.549,15.549,0,0,1,7.455.036a.383.383,0,0,1,.509.188.389.389,0,0,1-.186.515A14.98,14.98,0,0,0,.729,7.78.384.384,0,0,1,.383,8" transform="translate(25 23.5)"/>
      <path id="Fill_117-2" data-name="Fill 117" d="M.363,8a.352.352,0,0,1-.14-.029.374.374,0,0,1-.2-.486A12.775,12.775,0,0,1,7.494.03a.361.361,0,0,1,.477.2A.375.375,0,0,1,7.78.713,12.1,12.1,0,0,0,.7,7.772.363.363,0,0,1,.363,8" transform="translate(23 21.5)"/>
      <path id="Fill_119-2" data-name="Fill 119" d="M.381,9a.382.382,0,0,1-.1-.013.387.387,0,0,1-.272-.471C.945,4.922,4.03,1.828,8.477.028a.379.379,0,0,1,.5.215.388.388,0,0,1-.213.5C4.54,2.453,1.62,5.357.749,8.712A.382.382,0,0,1,.381,9" transform="translate(20 19.5)"/>
      <path id="Fill_121-2" data-name="Fill 121" d="M.357,8a.352.352,0,0,1-.118-.02A.357.357,0,0,1,.02,7.525,12.491,12.491,0,0,1,7.529.018.357.357,0,0,1,7.756.7,11.753,11.753,0,0,0,.694,7.761.357.357,0,0,1,.357,8" transform="translate(18 17.5)"/>
      <path id="Fill_123-2" data-name="Fill 123" d="M1.8,3a1.625,1.625,0,0,1-.182-.01A1.965,1.965,0,0,1,.2,2.1,1.423,1.423,0,0,1,.052.985,1.262,1.262,0,0,1,1.089,0a.285.285,0,0,1,.3.272A.3.3,0,0,1,1.15.614a.7.7,0,0,0-.578.548.74.74,0,0,0,.081.592,1.447,1.447,0,0,0,1.015.622.84.84,0,0,0,.549-.1c.354-.234.221-.768.171-.926A.32.32,0,0,1,2.554.951a.265.265,0,0,1,.347.188A1.4,1.4,0,0,1,2.49,2.8,1.243,1.243,0,0,1,1.8,3" transform="translate(38 23.5)"/>
      <path id="Fill_125-2" data-name="Fill 125" d="M1.741,3a1.06,1.06,0,0,1-.11-.006A2.122,2.122,0,0,1,.063,1.6,1.343,1.343,0,0,1,.148.6,1.02,1.02,0,0,1,1.087,0a1.6,1.6,0,0,1,.707.184.289.289,0,0,1,.132.38A.272.272,0,0,1,1.557.7,1.083,1.083,0,0,0,1.089.571a.472.472,0,0,0-.434.26.756.756,0,0,0-.07.571,1.59,1.59,0,0,0,1.1,1.024.7.7,0,0,0,.557-.232.685.685,0,0,0,.2-.552.721.721,0,0,0-.048-.185.288.288,0,0,1,.149-.373.275.275,0,0,1,.362.154,1.278,1.278,0,0,1,.086.334,1.263,1.263,0,0,1-.348,1.022,1.26,1.26,0,0,1-.9.408" transform="translate(31 19.5)"/>
      <path id="Fill_127-2" data-name="Fill 127" d="M1.717,3a1.471,1.471,0,0,1-.18-.011A1.74,1.74,0,0,1,.261,2.141,1.788,1.788,0,0,1,.122.566C.353-.009,1.228-.1,1.75.088a.292.292,0,0,1,.178.375.3.3,0,0,1-.381.175C1.249.532.753.584.674.782a1.206,1.206,0,0,0,.1,1.061,1.149,1.149,0,0,0,.839.564.779.779,0,0,0,.6-.166.675.675,0,0,0,.1-.819.291.291,0,0,1,.127-.395.3.3,0,0,1,.4.126,1.245,1.245,0,0,1-.228,1.526A1.365,1.365,0,0,1,1.717,3" transform="translate(26 14.5)"/>
      <path id="Fill_129-2" data-name="Fill 129" d="M.4,8A.449.449,0,0,1,.33,7.995a.375.375,0,0,1-.324-.429,8.169,8.169,0,0,1,.182-.8c.065-.235.139-.463.221-.675A11.007,11.007,0,0,1,5.641.552L5.712.514c.144-.077.364-.2.583-.3a1.416,1.416,0,0,1,.856-.2,3.645,3.645,0,0,1,1.8,1.425.351.351,0,0,1,.029.295.379.379,0,0,1-.209.222c-.172.075-.345.152-.521.234-1.886.874-4.414,2.316-5.742,4.231a.413.413,0,0,1-.548.109.358.358,0,0,1-.116-.515C3.272,3.959,5.926,2.437,7.9,1.522L8,1.475a2.9,2.9,0,0,0-1-.727,2.057,2.057,0,0,0-.364.139c-.2.092-.4.2-.536.273L6.029,1.2A10.238,10.238,0,0,0,1.154,6.339q-.113.293-.2.616c-.062.219-.116.459-.166.735A.39.39,0,0,1,.4,8" transform="translate(38 17.5)"/>
      <path id="Fill_131-2" data-name="Fill 131" d="M1.187,5a.4.4,0,0,1-.164-.035L.212,4.608A.334.334,0,0,1,0,4.253l.023-.128a.334.334,0,0,1,.106-.193A15.884,15.884,0,0,1,6.047.879C6.916.6,9.083.135,9.7.031L9.768.018A.817.817,0,0,1,9.9,0a.133.133,0,0,1,.029,0,2.99,2.99,0,0,1,1.155.208,10.919,10.919,0,0,1,1.8,1.265.319.319,0,0,1,.093.381.382.382,0,0,1-.348.212h-.012c-.14,0-.283-.006-.436-.006-.127,0-.259,0-.4,0A23.417,23.417,0,0,0,1.416,4.931.407.407,0,0,1,1.187,5ZM9.954.685A1.027,1.027,0,0,0,9.845.7H9.838c-.582.1-2.719.56-3.541.823A15.845,15.845,0,0,0,.947,4.172l.218.1A24.226,24.226,0,0,1,11.617,1.387,7.113,7.113,0,0,0,10.71.8,2.336,2.336,0,0,0,9.954.685Z" transform="translate(38 20.5)"/>
      <path id="Fill_133-2" data-name="Fill 133" d="M.968,7a.38.38,0,0,1-.275-.118l-.582-.6A.4.4,0,0,1,.141,5.7c.1-.082.6-.5.945-.755.13-.1.274-.2.441-.321.483-.347,1.019-.709,1.592-1.075A27.449,27.449,0,0,1,10.479.12,5.153,5.153,0,0,1,11.2,0l.033,0a.378.378,0,0,1,.091.012A2.278,2.278,0,0,1,12.65,1.1l.018.025c.078.111.158.226.246.335a.4.4,0,0,1,.063.382.388.388,0,0,1-.291.25c-.23.044-.44.087-.642.131A34.376,34.376,0,0,0,2.813,6l-.046.026c-.186.1-.377.211-.565.319-.339.19-.563.32-.823.47l-.221.128A.383.383,0,0,1,.968,7ZM11.2.788a4.671,4.671,0,0,0-.557.1A26.68,26.68,0,0,0,3.53,4.212c-.577.37-1.1.724-1.561,1.053-.147.1-.286.2-.425.31-.2.149-.455.354-.588.463l.079.082L1.072,6.1c.254-.147.454-.263.752-.43.191-.111.387-.221.571-.323l.046-.025a35.061,35.061,0,0,1,9.437-3.86l.064-.014A1.488,1.488,0,0,0,11.2.788Z" transform="translate(32 15.5)"/>
      <path id="Fill_135-2" data-name="Fill 135" d="M.382,9a.375.375,0,0,1-.2-.058A.4.4,0,0,1,.057,8.4C.231,8.109.805,7.2.921,7.025A23.826,23.826,0,0,1,4.946,2.41,23.383,23.383,0,0,1,7.337.524c.05-.035.1-.076.159-.118S7.635.3,7.708.249a.941.941,0,0,1,1.109-.1,4.042,4.042,0,0,1,.908,1.048c.068.1.135.2.2.284a.4.4,0,0,1,.068.32.391.391,0,0,1-.192.262l-.083.046c-.105.059-.214.119-.324.181A24.989,24.989,0,0,0,3.511,6.8a.375.375,0,0,1-.539.042.4.4,0,0,1-.041-.554A25.58,25.58,0,0,1,9.019,1.6l.036-.02A3.259,3.259,0,0,0,8.387.8c-.042-.029-.16.04-.251.1-.063.043-.123.09-.182.135s-.129.1-.19.141A22.556,22.556,0,0,0,5.449,3a23.04,23.04,0,0,0-3.9,4.467C1.441,7.634.875,8.535.708,8.813A.38.38,0,0,1,.382,9" transform="translate(32 12.5)"/>
      <path id="Fill_137-2" data-name="Fill 137" d="M.927,7a.37.37,0,0,1-.095-.012.383.383,0,0,1-.244-.181,2.256,2.256,0,0,0-.209-.26L.361,6.527a2.888,2.888,0,0,1-.31-.394.369.369,0,0,1,.065-.456C3.006,2.915,7.5,1.224,10.631.193c.189-.064.376-.124.535-.174A.391.391,0,0,1,11.286,0a.4.4,0,0,1,.232.076,6.068,6.068,0,0,1,1.414,1.548.372.372,0,0,1,.04.356.388.388,0,0,1-.284.228c-.182.034-.372.074-.564.118a34.3,34.3,0,0,0-9.4,3.685c-.22.123-.436.244-.652.375-.3.172-.606.354-.932.554A.39.39,0,0,1,.927,7ZM11.208.8h0l-.04.013c-.095.031-.19.062-.285.094C7.937,1.877,3.7,3.46.906,5.985c.014.017.028.033.042.049.027.031.051.057.074.085.221-.133.437-.259.641-.376.222-.136.462-.271.668-.385a35.015,35.015,0,0,1,9.616-3.766l.008,0A4.416,4.416,0,0,0,11.208.8Z" transform="translate(27 10.5)"/>
      <path id="Fill_139-2" data-name="Fill 139" d="M.382,9a.386.386,0,0,1-.139-.025A.372.372,0,0,1,.026,8.49C.1,8.3.186,8.1.27,7.909A17.408,17.408,0,0,1,3.855,2.552,17.67,17.67,0,0,1,6.188.587C6.32.493,6.455.4,6.59.311,6.642.275,6.7.236,6.763.2L6.832.152A.753.753,0,0,1,7.873.3l.044.039a4.341,4.341,0,0,1,1.049,1.4.37.37,0,0,1-.147.474c-.176.106-.353.215-.527.33A21.723,21.723,0,0,0,2.651,7.5a.386.386,0,0,1-.533.081.37.37,0,0,1-.082-.523A22.474,22.474,0,0,1,7.87,1.916c.082-.053.165-.107.249-.159A3.623,3.623,0,0,0,7.4.889L7.358.848c-.03-.027-.065-.057-.092-.08L7.255.775,7.183.822c-.052.034-.1.067-.156.1-.135.091-.264.179-.391.268A16.968,16.968,0,0,0,4.4,3.074,16.668,16.668,0,0,0,.972,8.2c-.081.185-.16.372-.234.559A.382.382,0,0,1,.382,9" transform="translate(28 6.5)"/>
      <path id="Fill_141-2" data-name="Fill 141" d="M4.768,13a.225.225,0,0,1-.127-.038A10.485,10.485,0,0,1,.882,8.554,10.494,10.494,0,0,1,.88.137.231.231,0,1,1,1.3.326a10.023,10.023,0,0,0,0,8.038A10.018,10.018,0,0,0,4.9,12.574.232.232,0,0,1,4.768,13" transform="translate(2 16.5)"/>
      <path id="Fill_143-2" data-name="Fill 143" d="M3.737,2c-.117,0-.233,0-.35-.012A5.019,5.019,0,0,1,.058.371.22.22,0,0,1,.075.057.225.225,0,0,1,.392.074,4.566,4.566,0,0,0,3.42,1.545,4.591,4.591,0,0,0,6.632.523a.226.226,0,0,1,.316.029.22.22,0,0,1-.029.313A5.038,5.038,0,0,1,3.737,2" transform="translate(8 11.5)"/>
      <path id="Fill_145-2" data-name="Fill 145" d="M4.763,2a.237.237,0,0,1-.187-.091A3.884,3.884,0,0,0,.317.68.236.236,0,1,1,.157.236,4.366,4.366,0,0,1,4.95,1.619.236.236,0,0,1,4.763,2" transform="translate(7 5.5)"/>
      <path id="Fill_147-2" data-name="Fill 147" d="M.358,4a.223.223,0,0,1-.2-.137A2.284,2.284,0,0,1,.713,1.41,4.719,4.719,0,0,1,2.986.088,5.452,5.452,0,0,1,7.922,1.656a.247.247,0,0,1,.024.334.213.213,0,0,1-.315.025A5.055,5.055,0,0,0,3.053.558a4.3,4.3,0,0,0-2.032,1.2,1.821,1.821,0,0,0-.46,1.908.244.244,0,0,1-.108.315A.214.214,0,0,1,.358,4" transform="translate(23 0.5)"/>
      <path id="Fill_149-2" data-name="Fill 149" d="M3.231,3A9.342,9.342,0,0,1,.148,2.484.226.226,0,0,1,.012,2.2a.216.216,0,0,1,.275-.141,9.38,9.38,0,0,0,7.847-.868L8.928.654a8.884,8.884,0,0,0,.709-.6.211.211,0,0,1,.306.016.23.23,0,0,1-.015.317,9.584,9.584,0,0,1-.754.633l-.813.549A9.985,9.985,0,0,1,3.231,3" transform="translate(57 32.5)"/>
      <path id="Fill_151-2" data-name="Fill 151" d="M.224,4a.21.21,0,0,1-.112-.032A.249.249,0,0,1,.03,3.64,8.712,8.712,0,0,1,3.68.023a.218.218,0,0,1,.3.114.248.248,0,0,1-.106.32A8.244,8.244,0,0,0,.418,3.88.222.222,0,0,1,.224,4" transform="translate(32 35.5)"/>
      <path id="Fill_153-2" data-name="Fill 153" d="M8.877,3a15.967,15.967,0,0,1-6.8-1.512A15.648,15.648,0,0,1,.1.383.2.2,0,0,1,.04.09.228.228,0,0,1,.348.038a15.2,15.2,0,0,0,1.93,1.074A15.561,15.561,0,0,0,9.765,2.555a.21.21,0,1,1,.027.419c-.3.018-.611.026-.915.026" transform="translate(21 29.5)"/>
      <path id="Fill_155-2" data-name="Fill 155" d="M3.852,4A32.85,32.85,0,0,1,.2,3.792.242.242,0,0,1,0,3.52.229.229,0,0,1,.242,3.3,29.192,29.192,0,0,0,7.8,3.218,12.5,12.5,0,0,0,14.636.059a.2.2,0,0,1,.311.028.27.27,0,0,1-.025.35A12.92,12.92,0,0,1,7.856,3.711a26.422,26.422,0,0,1-4,.289" transform="translate(52 38.5)"/>
      <path id="Fill_157-2" data-name="Fill 157" d="M12.767,4a.227.227,0,0,1-.1-.026A16.858,16.858,0,0,0,8.117,2.49c-.6-.121-1.21-.229-1.819-.336A23.225,23.225,0,0,1,.136.468.25.25,0,0,1,.022.143.229.229,0,0,1,.331.022,22.886,22.886,0,0,0,6.376,1.67c.611.108,1.222.216,1.828.337a17.3,17.3,0,0,1,4.666,1.527.251.251,0,0,1,.1.329A.232.232,0,0,1,12.767,4" transform="translate(9 32.5)"/>
      <path id="Fill_159-2" data-name="Fill 159" d="M.315,3H.225a.242.242,0,0,1,0-.483H.315A9.365,9.365,0,0,0,6.624.059a.218.218,0,0,1,.321.024.253.253,0,0,1-.023.341A9.809,9.809,0,0,1,.315,3" transform="translate(47 27.5)"/>
    </g>
  </g>
</svg>
