<svg xmlns="http://www.w3.org/2000/svg" xmlns:xlink="http://www.w3.org/1999/xlink" width="172.753" height="238.847" viewBox="0 0 172.753 238.847">
  <defs>
    <clipPath id="clip-path">
      <path id="Clip_160" data-name="Clip 160" d="M0,0H44.515V30.821H0Z" transform="translate(0.227 0.153)" fill="none"/>
    </clipPath>
    <clipPath id="clip-path-2">
      <path id="Clip_179" data-name="Clip 179" d="M0,0H28.738V195.228H0Z" transform="translate(0.015 0.42)" fill="none"/>
    </clipPath>
  </defs>
  <g id="Group_263" data-name="Group 263" transform="translate(0 -0.153)">
    <path id="Fill_1" data-name="Fill 1" d="M2.983,6A2.991,2.991,0,0,1,.975,5.23a3.122,3.122,0,0,1-.89-2.976A3.036,3.036,0,0,1,2.264.121,3.293,3.293,0,0,1,3.141,0,2.793,2.793,0,0,1,5.209.859a3.089,3.089,0,0,1,.683,2.879A3.124,3.124,0,0,1,3.9,5.852,2.9,2.9,0,0,1,2.983,6ZM3.143.756h0a2.614,2.614,0,0,0-.693.1A2.291,2.291,0,0,0,.789,2.444a2.324,2.324,0,0,0,.667,2.218,2.269,2.269,0,0,0,1.521.582,2.219,2.219,0,0,0,.7-.114,2.4,2.4,0,0,0,1.511-1.6,2.33,2.33,0,0,0-.5-2.142A2.086,2.086,0,0,0,3.143.757Z" transform="translate(84 37)"/>
    <path id="Fill_3" data-name="Fill 3" d="M.5,1a.5.5,0,1,0,0-1,.5.5,0,0,0,0,1" transform="translate(85 39)"/>
    <path id="Fill_5" data-name="Fill 5" d="M.5,1a.5.5,0,0,0,0-1,.5.5,0,1,0,0,1" transform="translate(87 39)"/>
    <path id="Fill_7" data-name="Fill 7" d="M.5,1a.5.5,0,1,0,0-1,.5.5,0,0,0,0,1" transform="translate(85 40)"/>
    <path id="Fill_9" data-name="Fill 9" d="M.5,1a.5.5,0,1,0,0-1,.5.5,0,1,0,0,1" transform="translate(87 40)"/>
    <path id="Fill_11" data-name="Fill 11" d="M.476,2H.464C.2,2-.006,1.843,0,1.659L.048.325C.054.141.268,0,.536,0s.47.157.464.341L.952,1.675C.946,1.856.734,2,.476,2" transform="translate(86 36)"/>
    <path id="Fill_13" data-name="Fill 13" d="M.476,2H.464C.2,2-.006,1.843,0,1.659L.048.325C.054.141.283.005.536,0s.47.158.464.341L.952,1.675C.946,1.856.734,2,.476,2" transform="translate(86 42)"/>
    <path id="Fill_15" data-name="Fill 15" d="M1.975.988A2.53,2.53,0,0,1,.838.6C.308.341-.081.093.014.019A2.3,2.3,0,0,1,1.226.358c.555.274.867.569.75.63" transform="translate(86 40)"/>
    <path id="Fill_17" data-name="Fill 17" d="M1.977.016c.11.1-.176.739-.747,1.3S.073,2.1.007,1.958.373,1.376.9.856s.966-.946,1.079-.84" transform="translate(86 39)"/>
    <path id="Fill_19" data-name="Fill 19" d="M2.741,6c-.095,0-.186,0-.28-.013A2.765,2.765,0,0,1,.126,4.147a3.052,3.052,0,0,1,.694-2.9A3.372,3.372,0,0,1,3.323,0a2.618,2.618,0,0,1,.451.039A2.717,2.717,0,0,1,5.882,1.924a3.157,3.157,0,0,1-.6,2.838A3.345,3.345,0,0,1,2.741,6ZM3.319.764a2.618,2.618,0,0,0-1.93.986A2.287,2.287,0,0,0,.839,3.905a2,2,0,0,0,1.7,1.32c.069.007.14.01.21.01A2.577,2.577,0,0,0,4.7,4.278a2.41,2.41,0,0,0,.465-2.13A1.985,1.985,0,0,0,3.646.792,1.886,1.886,0,0,0,3.319.764Z" transform="translate(100 35)"/>
    <path id="Fill_21" data-name="Fill 21" d="M.754.894A.471.471,0,1,0,.246.106.471.471,0,1,0,.754.894" transform="translate(102 38)"/>
    <path id="Fill_23" data-name="Fill 23" d="M.754.894A.471.471,0,1,0,.246.106.471.471,0,1,0,.754.894" transform="translate(103 37)"/>
    <path id="Fill_25" data-name="Fill 25" d="M.753.893A.47.47,0,1,0,.247.107.47.47,0,1,0,.753.893" transform="translate(103 39)"/>
    <path id="Fill_27" data-name="Fill 27" d="M.753.893A.47.47,0,1,0,.247.106.47.47,0,1,0,.753.893" transform="translate(104 38)"/>
    <path id="Fill_29" data-name="Fill 29" d="M2,.767c-.025.25-.478.282-1.018.177S0,.629,0,.374.461-.08,1.026.032s1,.489.973.735" transform="translate(103 38)"/>
    <path id="Fill_31" data-name="Fill 31" d="M.872,0c.15.011.2.513-.037,1.09s-.656.962-.786.9.039-.5.257-1.036S.716-.013.872,0" transform="translate(103 37)"/>
    <path id="Fill_33" data-name="Fill 33" d="M3.135,6A3.206,3.206,0,0,1,.661,4.79,3.093,3.093,0,0,1,.145,1.955,2.888,2.888,0,0,1,2.3.047,2.644,2.644,0,0,1,2.8,0a3.194,3.194,0,0,1,2.4,1.168,2.981,2.981,0,0,1,.653,2.947A2.926,2.926,0,0,1,3.463,5.981,2.87,2.87,0,0,1,3.135,6ZM2.8.742a1.845,1.845,0,0,0-.358.034A2.157,2.157,0,0,0,.85,2.188a2.372,2.372,0,0,0,.4,2.146,2.441,2.441,0,0,0,1.884.925,2.149,2.149,0,0,0,.248-.014A2.174,2.174,0,0,0,5.148,3.865,2.255,2.255,0,0,0,4.63,1.651,2.453,2.453,0,0,0,2.8.742Z" transform="translate(66 35)"/>
    <path id="Fill_35" data-name="Fill 35" d="M.233.9A.481.481,0,1,1,.767.1.481.481,0,1,1,.233.9" transform="translate(70 37)"/>
    <path id="Fill_37" data-name="Fill 37" d="M.233.9A.481.481,0,1,1,.767.1.481.481,0,1,1,.233.9" transform="translate(68 36)"/>
    <path id="Fill_39" data-name="Fill 39" d="M.235.9A.479.479,0,1,1,.766.1.479.479,0,1,1,.235.9" transform="translate(69 38)"/>
    <path id="Fill_41" data-name="Fill 41" d="M.234.9A.48.48,0,1,1,.766.1.48.48,0,1,1,.234.9" transform="translate(68 37)"/>
    <path id="Fill_43" data-name="Fill 43" d="M0,.794C-.026.557.4.171.97.044S2,.094,2,.336,1.562.8,1.022.923.028,1.035,0,.794" transform="translate(68 37)"/>
    <path id="Fill_45" data-name="Fill 45" d="M.151,0C.316-.009.5.433.709.966S1.093,1.942.945,2s-.572-.339-.8-.917S-.007.007.151,0" transform="translate(69 37)"/>
    <path id="Fill_47" data-name="Fill 47" d="M2.982,6A2.99,2.99,0,0,1,.975,5.23a3.121,3.121,0,0,1-.89-2.975A3.038,3.038,0,0,1,2.264.121,3.3,3.3,0,0,1,3.141,0,2.8,2.8,0,0,1,5.209.859,3.091,3.091,0,0,1,3.9,5.852,2.9,2.9,0,0,1,2.982,6ZM3.143.756h0a2.61,2.61,0,0,0-.693.1A2.291,2.291,0,0,0,.789,2.444a2.327,2.327,0,0,0,.667,2.219,2.268,2.268,0,0,0,1.52.582,2.216,2.216,0,0,0,.7-.114,2.4,2.4,0,0,0,1.511-1.6,2.326,2.326,0,0,0-.5-2.141A2.086,2.086,0,0,0,3.143.757Z" transform="translate(84 62)"/>
    <path id="Fill_49" data-name="Fill 49" d="M.5,1a.5.5,0,1,0,0-1,.5.5,0,0,0,0,1" transform="translate(85 64)"/>
    <path id="Fill_51" data-name="Fill 51" d="M.5,1a.5.5,0,1,0,0-1,.5.5,0,0,0,0,1" transform="translate(87 64)"/>
    <path id="Fill_53" data-name="Fill 53" d="M.5,1a.5.5,0,1,0,0-1,.5.5,0,0,0,0,1" transform="translate(85 65)"/>
    <path id="Fill_55" data-name="Fill 55" d="M.5,1a.5.5,0,1,0,0-1,.5.5,0,0,0,0,1" transform="translate(87 65)"/>
    <path id="Fill_57" data-name="Fill 57" d="M.476,2H.464C.2,2-.006,1.843,0,1.659L.048.325C.055.141.294,0,.536,0,.8,0,1.006.158,1,.341L.952,1.675C.946,1.856.734,2,.476,2" transform="translate(86 61)"/>
    <path id="Fill_59" data-name="Fill 59" d="M.476,2H.465C.2,2-.006,1.843,0,1.659L.047.325C.054.144.266,0,.524,0H.535C.8,0,1.006.157,1,.341L.953,1.675C.946,1.856.734,2,.476,2" transform="translate(86 67)"/>
    <path id="Fill_61" data-name="Fill 61" d="M1.975.988A2.531,2.531,0,0,1,.837.6C.308.341-.081.093.014.019A2.3,2.3,0,0,1,1.226.358c.555.273.867.569.75.63" transform="translate(86 65)"/>
    <path id="Fill_63" data-name="Fill 63" d="M1.977.016c.11.1-.176.74-.747,1.3S.073,2.1.007,1.958.373,1.376.9.856s.966-.946,1.079-.84" transform="translate(86 64)"/>
    <path id="Fill_65" data-name="Fill 65" d="M2.982,6A2.99,2.99,0,0,1,.975,5.23,3.116,3.116,0,0,1,.086,2.255,3.035,3.035,0,0,1,2.264.121,3.3,3.3,0,0,1,3.142,0,2.791,2.791,0,0,1,5.209.859a3.092,3.092,0,0,1-1.3,4.993A2.914,2.914,0,0,1,2.982,6ZM3.143.756h0a2.6,2.6,0,0,0-.693.1A2.29,2.29,0,0,0,.789,2.444a2.324,2.324,0,0,0,.667,2.218,2.266,2.266,0,0,0,1.521.582,2.221,2.221,0,0,0,.7-.113,2.4,2.4,0,0,0,1.51-1.6,2.325,2.325,0,0,0-.5-2.141A2.083,2.083,0,0,0,3.144.757Z" transform="translate(84 90)"/>
    <path id="Fill_67" data-name="Fill 67" d="M.5,1a.5.5,0,1,0,0-1,.5.5,0,1,0,0,1" transform="translate(85 92)"/>
    <path id="Fill_69" data-name="Fill 69" d="M.5,1a.5.5,0,0,0,0-1,.5.5,0,0,0,0,1" transform="translate(87 92)"/>
    <path id="Fill_71" data-name="Fill 71" d="M.5,1a.5.5,0,1,0,0-1,.5.5,0,1,0,0,1" transform="translate(85 93)"/>
    <path id="Fill_73" data-name="Fill 73" d="M.5,1a.5.5,0,1,0,0-1,.5.5,0,1,0,0,1" transform="translate(87 93)"/>
    <path id="Fill_75" data-name="Fill 75" d="M.476,2H.465C.2,2-.006,1.843,0,1.659L.047.325C.053.141.243-.006.535,0,.8,0,1.006.158,1,.342L.953,1.675C.946,1.856.734,2,.476,2" transform="translate(86 89)"/>
    <path id="Fill_77" data-name="Fill 77" d="M.476,2H.465C.2,2-.006,1.843,0,1.659L.047.325C.054.144.266,0,.524,0H.535C.8,0,1.006.157,1,.341L.953,1.675C.946,1.856.734,2,.476,2" transform="translate(86 95)"/>
    <path id="Fill_79" data-name="Fill 79" d="M1.975.988A2.531,2.531,0,0,1,.837.6C.308.341-.081.093.014.019A2.3,2.3,0,0,1,1.225.358c.555.273.868.569.75.63" transform="translate(86 92)"/>
    <path id="Fill_81" data-name="Fill 81" d="M1.977.016c.11.1-.176.74-.747,1.3S.072,2.1.007,1.958.373,1.376.9.856s.966-.946,1.079-.84" transform="translate(86 92)"/>
    <path id="Fill_83" data-name="Fill 83" d="M2.982,6A2.99,2.99,0,0,1,.975,5.23,3.118,3.118,0,0,1,.086,2.254,3.035,3.035,0,0,1,2.264.121,3.309,3.309,0,0,1,3.142,0,2.79,2.79,0,0,1,5.209.859a3.091,3.091,0,0,1,.683,2.879A3.124,3.124,0,0,1,3.905,5.852,2.914,2.914,0,0,1,2.982,6ZM3.143.756h0a2.6,2.6,0,0,0-.693.1A2.29,2.29,0,0,0,.789,2.444a2.325,2.325,0,0,0,.667,2.218,2.266,2.266,0,0,0,1.521.583,2.214,2.214,0,0,0,.7-.114,2.4,2.4,0,0,0,1.51-1.6,2.325,2.325,0,0,0-.5-2.141A2.081,2.081,0,0,0,3.143.757Z" transform="translate(83 118)"/>
    <path id="Fill_85" data-name="Fill 85" d="M.5,1a.5.5,0,0,0,0-1,.5.5,0,1,0,0,1" transform="translate(85 119)"/>
    <path id="Fill_87" data-name="Fill 87" d="M.5,1a.5.5,0,0,0,0-1,.5.5,0,0,0,0,1" transform="translate(87 119)"/>
    <path id="Fill_89" data-name="Fill 89" d="M.5,1a.5.5,0,0,0,0-1,.5.5,0,1,0,0,1" transform="translate(85 121)"/>
    <path id="Fill_91" data-name="Fill 91" d="M.5,1a.5.5,0,1,0,0-1,.5.5,0,1,0,0,1" transform="translate(87 121)"/>
    <path id="Fill_93" data-name="Fill 93" d="M.476,2H.465C.2,2-.006,1.843,0,1.659L.047.325C.054.144.266,0,.524,0H.535C.8,0,1.006.157,1,.341L.953,1.675C.946,1.856.734,2,.476,2" transform="translate(86 116)"/>
    <path id="Fill_95" data-name="Fill 95" d="M.476,2H.464C.2,2-.006,1.843,0,1.659L.048.325C.054.141.277,0,.536,0s.47.157.464.341L.952,1.675C.946,1.856.734,2,.476,2" transform="translate(86 123)"/>
    <path id="Fill_97" data-name="Fill 97" d="M1.975.988A2.533,2.533,0,0,1,.837.6C.308.341-.081.093.015.019A2.3,2.3,0,0,1,1.225.358c.555.274.868.569.75.63" transform="translate(86 120)"/>
    <path id="Fill_99" data-name="Fill 99" d="M1.977.016c.11.1-.176.74-.747,1.3S.073,2.1.007,1.958.374,1.376.9.856s.965-.946,1.079-.84" transform="translate(85 120)"/>
    <path id="Fill_101" data-name="Fill 101" d="M2.982,6A2.99,2.99,0,0,1,.975,5.23,3.118,3.118,0,0,1,.086,2.254,3.036,3.036,0,0,1,2.264.121,3.3,3.3,0,0,1,3.142,0,2.793,2.793,0,0,1,5.209.859a3.091,3.091,0,0,1,.683,2.879A3.124,3.124,0,0,1,3.9,5.852,2.9,2.9,0,0,1,2.982,6ZM3.142.756h0a2.6,2.6,0,0,0-.692.1A2.292,2.292,0,0,0,.789,2.444a2.327,2.327,0,0,0,.667,2.219,2.267,2.267,0,0,0,1.52.582,2.211,2.211,0,0,0,.7-.114,2.4,2.4,0,0,0,1.511-1.6,2.325,2.325,0,0,0-.5-2.141A2.084,2.084,0,0,0,3.143.757Z" transform="translate(83 145)"/>
    <path id="Fill_103" data-name="Fill 103" d="M.5,1a.5.5,0,0,0,0-1,.5.5,0,1,0,0,1" transform="translate(85 147)"/>
    <path id="Fill_105" data-name="Fill 105" d="M.5,1a.5.5,0,0,0,0-1,.5.5,0,0,0,0,1" transform="translate(87 147)"/>
    <path id="Fill_107" data-name="Fill 107" d="M.5,1a.5.5,0,0,0,0-1,.5.5,0,1,0,0,1" transform="translate(85 148)"/>
    <path id="Fill_109" data-name="Fill 109" d="M.5,1a.5.5,0,1,0,0-1,.5.5,0,1,0,0,1" transform="translate(87 148)"/>
    <path id="Fill_111" data-name="Fill 111" d="M.476,2H.465C.2,2-.006,1.843,0,1.659L.047.326C.053.142.242-.01.535,0,.8.005,1.006.158,1,.342L.953,1.675C.946,1.856.734,2,.476,2" transform="translate(86 144)"/>
    <path id="Fill_113" data-name="Fill 113" d="M.476,2H.464C.2,2-.006,1.843,0,1.659L.048.325C.054.141.28.006.536,0s.47.157.464.341L.952,1.675C.946,1.856.734,2,.476,2" transform="translate(86 150)"/>
    <path id="Fill_115" data-name="Fill 115" d="M1.975.988A2.533,2.533,0,0,1,.837.6C.308.341-.081.093.014.019A2.3,2.3,0,0,1,1.225.358c.555.274.868.569.75.63" transform="translate(85 148)"/>
    <path id="Fill_117" data-name="Fill 117" d="M1.977.016c.11.1-.176.74-.747,1.3S.073,2.1.007,1.958.374,1.376.9.856s.966-.946,1.079-.84" transform="translate(85 147)"/>
    <path id="Fill_119" data-name="Fill 119" d="M2.982,6A3,3,0,0,1,.975,5.23,3.118,3.118,0,0,1,.086,2.254,3.033,3.033,0,0,1,2.264.121,3.293,3.293,0,0,1,3.141,0,2.8,2.8,0,0,1,5.209.859a3.091,3.091,0,0,1,.683,2.879A3.124,3.124,0,0,1,3.9,5.852,2.9,2.9,0,0,1,2.982,6ZM3.144.756a2.628,2.628,0,0,0-.694.1A2.292,2.292,0,0,0,.789,2.444a2.327,2.327,0,0,0,.667,2.219,2.27,2.27,0,0,0,1.521.581,2.216,2.216,0,0,0,.705-.114,2.4,2.4,0,0,0,1.511-1.6,2.33,2.33,0,0,0-.5-2.142A2.084,2.084,0,0,0,3.144.756Z" transform="translate(83 173)"/>
    <path id="Fill_121" data-name="Fill 121" d="M.5,1a.5.5,0,0,0,0-1,.5.5,0,1,0,0,1" transform="translate(85 175)"/>
    <path id="Fill_123" data-name="Fill 123" d="M.5,1a.5.5,0,0,0,0-1,.5.5,0,0,0,0,1" transform="translate(87 175)"/>
    <path id="Fill_125" data-name="Fill 125" d="M.5,1a.5.5,0,0,0,0-1,.5.5,0,1,0,0,1" transform="translate(85 176)"/>
    <path id="Fill_127" data-name="Fill 127" d="M.5,1a.5.5,0,1,0,0-1,.5.5,0,1,0,0,1" transform="translate(87 176)"/>
    <path id="Fill_129" data-name="Fill 129" d="M.476,2H.464C.2,2-.007,1.842,0,1.658L.048.325C.054.144.266,0,.524,0H.536C.8,0,1.006.157,1,.341L.952,1.676C.945,1.857.734,2,.476,2" transform="translate(86 172)"/>
    <path id="Fill_131" data-name="Fill 131" d="M.476,2H.464C.2,2-.006,1.843,0,1.659L.048.325C.054.141.283,0,.536,0s.47.157.464.341L.952,1.675C.946,1.856.734,2,.476,2" transform="translate(86 178)"/>
    <path id="Fill_133" data-name="Fill 133" d="M1.975.988A2.531,2.531,0,0,1,.837.6C.308.341-.081.093.015.019A2.3,2.3,0,0,1,1.225.358c.555.274.868.569.75.63" transform="translate(85 175)"/>
    <path id="Fill_135" data-name="Fill 135" d="M1.977.016c.11.1-.176.739-.747,1.3S.073,2.1.007,1.958.374,1.376.9.856s.966-.946,1.079-.84" transform="translate(85 175)"/>
    <path id="Fill_137" data-name="Fill 137" d="M2.982,6A2.99,2.99,0,0,1,.975,5.23a3.122,3.122,0,0,1-.89-2.976A3.038,3.038,0,0,1,2.263.121,3.29,3.29,0,0,1,3.14,0,2.8,2.8,0,0,1,5.209.859a3.091,3.091,0,0,1,.683,2.879A3.124,3.124,0,0,1,3.9,5.852,2.9,2.9,0,0,1,2.982,6ZM3.143.757a2.613,2.613,0,0,0-.693.1A2.291,2.291,0,0,0,.789,2.444a2.327,2.327,0,0,0,.667,2.219,2.27,2.27,0,0,0,1.521.581,2.217,2.217,0,0,0,.7-.113,2.4,2.4,0,0,0,1.512-1.6,2.331,2.331,0,0,0-.5-2.142A2.087,2.087,0,0,0,3.143.757Z" transform="translate(83 201)"/>
    <path id="Fill_139" data-name="Fill 139" d="M.5,1a.5.5,0,1,0,0-1,.5.5,0,0,0,0,1" transform="translate(85 202)"/>
    <path id="Fill_141" data-name="Fill 141" d="M.5,1a.5.5,0,0,0,0-1,.5.5,0,0,0,0,1" transform="translate(87 202)"/>
    <path id="Fill_143" data-name="Fill 143" d="M.5,1a.5.5,0,0,0,0-1,.5.5,0,0,0,0,1" transform="translate(85 204)"/>
    <path id="Fill_145" data-name="Fill 145" d="M.5,1a.5.5,0,1,0,0-1,.5.5,0,1,0,0,1" transform="translate(87 204)"/>
    <path id="Fill_147" data-name="Fill 147" d="M.476,2H.464C.2,2-.006,1.843,0,1.659L.048.325C.054.141.271,0,.536,0s.47.158.464.341L.952,1.675C.946,1.856.734,2,.476,2" transform="translate(86 199)"/>
    <path id="Fill_149" data-name="Fill 149" d="M.476,2H.464C.2,2-.006,1.843,0,1.659L.048.325C.054.141.286,0,.536,0s.47.158.464.341L.952,1.675C.946,1.856.734,2,.476,2" transform="translate(86 206)"/>
    <path id="Fill_151" data-name="Fill 151" d="M1.975.988A2.53,2.53,0,0,1,.838.6C.308.341-.081.093.014.019A2.3,2.3,0,0,1,1.226.358c.555.274.867.569.75.63" transform="translate(85 203)"/>
    <path id="Fill_153" data-name="Fill 153" d="M1.977.016c.11.1-.176.739-.747,1.3S.073,2.1.007,1.958.373,1.376.9.856s.966-.946,1.079-.84" transform="translate(85 203)"/>
    <path id="Fill_155" data-name="Fill 155" d="M.534,16a.509.509,0,0,1-.247-.064.572.572,0,0,1-.227-.755C2.5,10.287,7.118,3.688,15.255.045a.526.526,0,0,1,.7.3.57.57,0,0,1-.282.735A30.725,30.725,0,0,0,1.009,15.7a.533.533,0,0,1-.474.3" transform="translate(70 30)"/>
    <path id="Fill_157" data-name="Fill 157" d="M15.462,16a.536.536,0,0,1-.48-.3A30.728,30.728,0,0,0,.323,1.065.562.562,0,0,1,.045.334.531.531,0,0,1,.755.047,31.8,31.8,0,0,1,15.94,15.191a.563.563,0,0,1-.234.747.52.52,0,0,1-.245.061" transform="translate(87 30)"/>
    <g id="Group_161" data-name="Group 161" transform="translate(64)">
      <path id="Clip_160-2" data-name="Clip 160" d="M0,0H44.515V30.821H0Z" transform="translate(0.227 0.153)" fill="none"/>
      <g id="Group_161-2" data-name="Group 161" clip-path="url(#clip-path)">
        <path id="Fill_159" data-name="Fill 159" d="M21.03,30.821a.548.548,0,0,1-.275-.074C11.78,25.509,5.1,18.763.888,10.7A9.482,9.482,0,0,1,.115,5.3,5.348,5.348,0,0,1,2.727,1.875,12.562,12.562,0,0,1,6.707.486C10.126-.226,14.05,0,17.844.208,19.51.3,21.084.39,22.617.4c1.772.016,3.5-.076,5.168-.165A36.982,36.982,0,0,1,37.858.613a12.559,12.559,0,0,1,3.968,1.42,5.347,5.347,0,0,1,2.585,3.444,9.487,9.487,0,0,1-.817,5.394C39.54,18.49,32.808,24.921,23.012,30.532a.546.546,0,1,1-.543-.947C32.08,24.08,38.675,17.791,42.629,10.36a8.5,8.5,0,0,0,.707-4.683,4.262,4.262,0,0,0-2.082-2.713A11.6,11.6,0,0,0,37.627,1.68a36.153,36.153,0,0,0-9.782-.351c-1.689.091-3.435.184-5.237.167-1.559-.015-3.219-.108-4.824-.2-3.724-.21-7.575-.426-10.852.257A11.587,11.587,0,0,0,3.291,2.81a4.265,4.265,0,0,0-2.1,2.7,8.5,8.5,0,0,0,.669,4.688c4.111,7.88,10.655,14.478,19.45,19.61a.546.546,0,0,1-.276,1.017" transform="translate(0.227 0.153)"/>
      </g>
    </g>
    <path id="Fill_162" data-name="Fill 162" d="M14.448,43a.552.552,0,0,1-.419-.19A77.11,77.11,0,0,1,5.444,30.35,56.541,56.541,0,0,1,1.73,23.121q-.136-.342-.277-.687C.484,20.045-.518,17.575.3,15.071A32.668,32.668,0,0,1,10.368.126.554.554,0,0,1,11.145.2a.543.543,0,0,1-.072.771,31.568,31.568,0,0,0-9.719,14.44c-.7,2.126.229,4.409,1.124,6.617q.142.349.28.694A55.713,55.713,0,0,0,6.4,29.807,76.091,76.091,0,0,0,14.867,42.1a.544.544,0,0,1-.059.772.55.55,0,0,1-.359.132" transform="translate(56 3)"/>
    <path id="Fill_164" data-name="Fill 164" d="M.551,43a.546.546,0,0,1-.362-.137.557.557,0,0,1-.052-.783l.037-.042c3.507-4.042,6.819-7.86,9.332-12.206a56.838,56.838,0,0,0,3.7-7.158q.14-.348.285-.7c.911-2.232,1.854-4.54,1.176-6.7A30.783,30.783,0,0,0,5.232.98.558.558,0,0,1,5.166.2.548.548,0,0,1,5.942.131a31.9,31.9,0,0,1,9.771,14.8c.8,2.547-.222,5.044-1.209,7.459-.095.232-.189.464-.281.695a57.78,57.78,0,0,1-3.766,7.3A82.965,82.965,0,0,1,1,42.768l-.037.043A.549.549,0,0,1,.551,43" transform="translate(102 3)"/>
    <path id="Fill_166" data-name="Fill 166" d="M.551,4a.553.553,0,0,1-.528-.4.564.564,0,0,1,.372-.7A65.922,65.922,0,0,1,38.6,2.759a.564.564,0,0,1,.377.7.552.552,0,0,1-.682.385A64.857,64.857,0,0,0,.707,3.977.539.539,0,0,1,.551,4" transform="translate(67 11)"/>
    <path id="Fill_168" data-name="Fill 168" d="M6.411,6A39.414,39.414,0,0,1,.219,5.555.257.257,0,0,1,0,5.263a33.594,33.594,0,0,0,.346-5A.258.258,0,0,1,.607,0h0a.258.258,0,0,1,.26.255A34.514,34.514,0,0,1,.554,5.087a60.269,60.269,0,0,0,13.551.032c.046-.762.115-1.481.182-2.178.072-.758.147-1.541.192-2.375a.27.27,0,0,1,.274-.242A.258.258,0,0,1,15,.593c-.046.845-.122,1.633-.195,2.4s-.147,1.545-.193,2.382a.259.259,0,0,1-.24.242C11.509,5.829,8.906,6,6.411,6" transform="translate(80 12)"/>
    <path id="Fill_170" data-name="Fill 170" d="M2.524,1h0L.474.991A.486.486,0,0,1,0,.494.486.486,0,0,1,.476,0h0L2.526.009A.486.486,0,0,1,3,.506.486.486,0,0,1,2.524,1" transform="translate(85 30)"/>
    <path id="Fill_172" data-name="Fill 172" d="M8.554,67a.544.544,0,0,1-.541-.54C7.79,49.154,5.4,32.552.017,10.945a.55.55,0,0,1,.241-.6A73.957,73.957,0,0,1,28.38.005a.547.547,0,0,1,.157,1.083A72.9,72.9,0,0,0,1.164,11.067C6.5,32.573,8.873,49.154,9.095,66.446A.545.545,0,0,1,8.561,67Z" transform="translate(28 16)"/>
    <path id="Fill_174" data-name="Fill 174" d="M13.775,195a21.271,21.271,0,0,1-10.358-3.006.552.552,0,0,1-.283-.449C2.4,179.36.039,124.673,0,117.505a31.173,31.173,0,0,1,.392-4.538A21.936,21.936,0,0,0,.643,106.9,27.355,27.355,0,0,1,.8,99.74c.378-2.886.93-5.406,1.463-7.842.445-2.033.905-4.136,1.277-6.489,1.414-8.943,5.532-36.985,6.289-42.39.038-.273.075-.554.113-.839a25.013,25.013,0,0,1,.985-4.893,10.327,10.327,0,0,1,.8-1.633c.6-1.054,1.067-1.887.7-3.059-.352-1.131.262-2.443.8-3.6a9.666,9.666,0,0,0,.624-1.535c.612-2.4,1.265-4.964,1.935-7.486C18.32,10.437,22.484,3.746,28.163.086a.542.542,0,0,1,.752.168.554.554,0,0,1-.166.76C23.306,4.522,19.3,11,16.837,20.257c-.669,2.517-1.321,5.073-1.932,7.475a10.407,10.407,0,0,1-.695,1.733c-.457.975-.974,2.08-.75,2.8a4.61,4.61,0,0,1-.8,3.935,9.547,9.547,0,0,0-.718,1.459,24.217,24.217,0,0,0-.93,4.667c-.038.288-.076.571-.115.846-.757,5.407-4.877,33.462-6.291,42.409-.377,2.385-.841,4.5-1.289,6.553-.553,2.525-1.074,4.91-1.446,7.749a26.263,26.263,0,0,0-.152,6.878,23.163,23.163,0,0,1-.253,6.357,30.232,30.232,0,0,0-.382,4.38c.038,7.1,2.36,60.917,3.114,73.674,6.726,3.635,12.6,3.614,19-.059a.542.542,0,0,1,.742.207.554.554,0,0,1-.2.75A19.809,19.809,0,0,1,13.775,195" transform="translate(0 26)"/>
    <path id="Fill_176" data-name="Fill 176" d="M3.153,136a.552.552,0,0,1-.555-.545c-.078-8.675-.246-16.882-.408-24.818-.263-12.836-.511-24.961-.4-38.726,0-.59.018-1.208.031-1.845.069-3.276.147-6.989-.84-9.8C.162,57.945-.54,55.5.587,53.408a9.28,9.28,0,0,1,.527-.834,2.9,2.9,0,0,0,.71-1.616A4.253,4.253,0,0,0,1.39,49.4a3.487,3.487,0,0,1-.1-3.186,7.655,7.655,0,0,1,1.534-2.049,8.624,8.624,0,0,0,1-1.192A10.643,10.643,0,0,0,5,38.917c.091-.594.186-1.207.317-1.792C6.326,32.6,7.281,28.617,8.237,24.937,10.4,16.6,12.988,8.331,15.923.361a.558.558,0,0,1,.711-.328.547.547,0,0,1,.332.7c-2.923,7.936-5.5,16.17-7.654,24.473-.953,3.669-1.9,7.643-2.91,12.151-.123.549-.21,1.118-.3,1.721a11.43,11.43,0,0,1-1.335,4.475,9.578,9.578,0,0,1-1.128,1.358,6.851,6.851,0,0,0-1.329,1.74,2.424,2.424,0,0,0,.106,2.318,5.282,5.282,0,0,1,.521,1.932,3.78,3.78,0,0,1-.9,2.284,8.31,8.31,0,0,0-.467.734c-.917,1.7-.276,3.889.459,5.981,1.053,3,.973,6.816.9,10.184-.013.632-.026,1.245-.031,1.83-.108,13.749.14,25.866.4,38.695.162,7.94.331,16.149.408,24.831a.552.552,0,0,1-.55.554Z" transform="translate(21 82)"/>
    <g id="Group_180" data-name="Group 180" transform="translate(144 26)">
      <path id="Clip_179-2" data-name="Clip 179" d="M0,0H28.738V195.228H0Z" transform="translate(0.015 0.42)" fill="none"/>
    </g>
    <path id="Fill_181" data-name="Fill 181" d="M12.319,136H12.31a.543.543,0,0,1-.528-.558c.144-8.677.372-16.881.592-24.816.356-12.813.692-24.917.7-38.652,0-.585-.008-1.2-.015-1.83-.042-3.366-.089-7.181.953-10.168.727-2.085,1.364-4.263.491-5.973a8.427,8.427,0,0,0-.445-.737,3.847,3.847,0,0,1-.852-2.29,5.4,5.4,0,0,1,.519-1.926,2.5,2.5,0,0,0,.12-2.316,6.848,6.848,0,0,0-1.272-1.75,9.48,9.48,0,0,1-1.08-1.366,11.727,11.727,0,0,1-1.255-4.482c-.085-.6-.165-1.173-.28-1.723-.935-4.507-1.824-8.486-2.717-12.164C5.22,16.935,2.794,8.687.031.733a.552.552,0,0,1,.326-.7.532.532,0,0,1,.685.333c2.775,7.987,5.21,16.27,7.238,24.618.9,3.69,1.788,7.681,2.725,12.2.122.586.209,1.2.292,1.794a10.9,10.9,0,0,0,1.109,4.065,8.573,8.573,0,0,0,.957,1.2A7.629,7.629,0,0,1,14.83,46.3a3.587,3.587,0,0,1-.124,3.183,4.35,4.35,0,0,0-.431,1.55,2.948,2.948,0,0,0,.674,1.621,9.606,9.606,0,0,1,.5.837c1.073,2.1.375,4.536-.432,6.85-.977,2.8-.932,6.512-.891,9.785.007.637.015,1.255.015,1.844,0,13.751-.34,25.862-.7,38.683-.22,7.932-.448,16.133-.592,24.8a.543.543,0,0,1-.537.54" transform="translate(136 82)"/>
    <path id="Fill_183" data-name="Fill 183" d="M19.833,67h-.012a.546.546,0,0,1-.532-.559c.439-20.958,4.352-38.891,8.541-55.148A73.245,73.245,0,0,0,.46,1.088.547.547,0,0,1,.626.006a74.316,74.316,0,0,1,28.12,10.572.55.55,0,0,1,.236.6c-4.21,16.3-8.167,34.272-8.606,55.284a.545.545,0,0,1-.543.536" transform="translate(116 16)"/>
    <path id="Fill_185" data-name="Fill 185" d="M4.45,156q-1.974,0-3.92-.076a.55.55,0,0,1-.53-.569.543.543,0,0,1,.574-.525c3.1.121,6.287.1,9.461-.078A70.347,70.347,0,0,0,29.5,150.863a73.157,73.157,0,0,0,32.388-22.7c-.272-12.883-2.276-22.376-5.641-34.389-.254-.9-.525-1.811-.8-2.72a49.316,49.316,0,0,1-2.1-9c-.141-1.355-.189-2.737-.237-4.073a35.473,35.473,0,0,0-.654-6.647,10.949,10.949,0,0,0-.925-2.317,7.851,7.851,0,0,1-1.125-4.174,9.879,9.879,0,0,1,.243-1.368,7.236,7.236,0,0,0,.231-1.447,6.793,6.793,0,0,0-1.154-3.324l-.159-.276A9.84,9.84,0,0,1,48.14,55a5.041,5.041,0,0,1,.844-3.219,6.34,6.34,0,0,0,.689-1.615,14.729,14.729,0,0,0-.062-4.239c-.088-.848-.172-1.648-.182-2.388-.068-4.706.051-9.472.356-14.166A200.343,200.343,0,0,1,53.92.429.552.552,0,0,1,55,.666a199.228,199.228,0,0,0-4.112,28.78c-.3,4.666-.421,9.4-.353,14.08.01.691.091,1.468.177,2.29a15.453,15.453,0,0,1,.043,4.579,7.242,7.242,0,0,1-.795,1.9,4.072,4.072,0,0,0-.726,2.545,9.044,9.044,0,0,0,1.3,3.045l.161.279a7.7,7.7,0,0,1,1.3,3.887,8.21,8.21,0,0,1-.258,1.667,8.784,8.784,0,0,0-.219,1.217,6.907,6.907,0,0,0,1.019,3.607A11.924,11.924,0,0,1,53.542,71.1a36.293,36.293,0,0,1,.682,6.85c.047,1.318.095,2.681.231,4a48.6,48.6,0,0,0,2.056,8.8c.274.915.548,1.828.8,2.739,3.405,12.159,5.427,21.761,5.685,34.86a.546.546,0,0,1-.123.354,74.251,74.251,0,0,1-33,23.195A71.463,71.463,0,0,1,10.1,155.845c-1.884.1-3.773.155-5.646.155" transform="translate(82 83)"/>
    <path id="Fill_187" data-name="Fill 187" d="M55.446,155h-.038c-10.112-.681-21.194-2.99-26.951-5.616-4.885-2.228-12.021-5.679-17.578-9.9-3.431-2.608-10.934-9-10.879-10.989.368-13.139,2.479-22.753,6-34.92.264-.913.547-1.826.83-2.743A48.688,48.688,0,0,0,8.97,82.02c.148-1.321.207-2.687.265-4.008a36.36,36.36,0,0,1,.741-6.867,11.954,11.954,0,0,1,1.033-2.551,6.918,6.918,0,0,0,1.053-3.61,8.787,8.787,0,0,0-.21-1.223,8.21,8.21,0,0,1-.245-1.673A7.708,7.708,0,0,1,12.944,58.2l.164-.279a9.058,9.058,0,0,0,1.334-3.043,4.079,4.079,0,0,0-.708-2.559,7.269,7.269,0,0,1-.783-1.915,15.473,15.473,0,0,1,.081-4.593c.093-.824.181-1.6.2-2.3.107-4.683.027-9.436-.239-14.126A196.038,196.038,0,0,0,8.949.664.55.55,0,0,1,9.376.012a.555.555,0,0,1,.658.423A197.163,197.163,0,0,1,14.1,29.328c.268,4.718.349,9.5.241,14.212-.017.741-.107,1.543-.2,2.392a14.775,14.775,0,0,0-.1,4.252,6.372,6.372,0,0,0,.679,1.626,5.044,5.044,0,0,1,.822,3.235,9.87,9.87,0,0,1-1.472,3.429l-.162.276a6.8,6.8,0,0,0-1.187,3.325,7.255,7.255,0,0,0,.22,1.452A9.817,9.817,0,0,1,13.17,64.9,7.863,7.863,0,0,1,12,69.08a11,11,0,0,0-.948,2.317,35.614,35.614,0,0,0-.713,6.663c-.058,1.34-.119,2.725-.271,4.082a49.494,49.494,0,0,1-2.18,9.009c-.282.91-.563,1.818-.825,2.724C3.57,105.957,1.474,115.5,1.11,128.522c.016.958,4.936,5.9,10.446,10.088,5.467,4.156,12.53,7.57,17.366,9.776,5.648,2.576,16.57,4.845,26.561,5.517a.549.549,0,0,1-.037,1.1" transform="translate(27 82)"/>
    <path id="Fill_189" data-name="Fill 189" d="M11.589,3A30.3,30.3,0,0,1,.347,1.042.535.535,0,0,1,.041.337a.561.561,0,0,1,.726-.3C7.55,2.727,14.979,2.033,21.351,1a.555.555,0,0,1,.642.444.544.544,0,0,1-.458.623A62.326,62.326,0,0,1,11.589,3" transform="translate(148 199)"/>
    <path id="Fill_191" data-name="Fill 191" d="M10.721,3A59.643,59.643,0,0,1,.461,1.958.557.557,0,1,1,.653.86C7.014,1.976,14.434,2.751,21.237.04a.557.557,0,0,1,.412,1.035A29.283,29.283,0,0,1,10.721,3" transform="translate(2 199)"/>
    <path id="Fill_193" data-name="Fill 193" d="M1.113,207a.527.527,0,0,1-.5-.539C-.553,143.4.2,74,.8,18.235Q.9,9.114.991.545A.519.519,0,0,1,1.5,0,.53.53,0,0,1,2,.557q-.089,8.555-.189,17.691C1.207,74,.455,143.394,1.617,206.439a.531.531,0,0,1-.494.561h-.01" transform="translate(81 32)"/>
    <path id="Fill_195" data-name="Fill 195" d="M.922,207H.91a.534.534,0,0,1-.5-.562C1.4,157.488.885,104.219.432,57.221.236,36.969.052,17.84,0,.551A.532.532,0,0,1,.51,0a.535.535,0,0,1,.513.548c.052,17.284.236,36.411.432,56.662.453,47.006.967,100.285-.022,149.252A.531.531,0,0,1,.922,207" transform="translate(90 32)"/>
    <path id="Fill_197" data-name="Fill 197" d="M15.457,14a.553.553,0,0,1-.17-.027C9.646,12.145,5.162,10.219.415,8.179L.4,8.171a.535.535,0,0,1-.324-.446A35.1,35.1,0,0,1,.386.458.544.544,0,0,1,.924,0C4.378.014,7.746.047,11,.079h.113C15.4.121,19.44.16,23.54.16c2.467,0,4.726-.014,6.908-.043h.008a.553.553,0,0,1,.382.155A.528.528,0,0,1,31,.653V.671a70.224,70.224,0,0,1-.282,7.175.535.535,0,0,1-.335.447c-5.27,2.127-9.7,3.9-14.742,5.675A.56.56,0,0,1,15.457,14ZM1.4,1.069a34.508,34.508,0,0,0-.265,6.253C5.46,9.181,9.934,11.1,15.449,12.9c4.915-1.739,9.345-3.507,14.213-5.471.218-2.537.236-4.024.247-6.239-2.044.025-4.124.036-6.359.036-4.117,0-8.173-.039-12.468-.08h-.09l-.4,0H10.59C7.6,1.113,4.512,1.083,1.4,1.069Z" transform="translate(99 68)"/>
    <path id="Fill_201" data-name="Fill 201" d="M4.974,5A45.006,45.006,0,0,1,.3,4.7.335.335,0,0,1,0,4.36C.005,3.8.006,3.075.007,2.374v-.3c0-.644,0-1.248.008-1.742a.334.334,0,0,1,.1-.24A.319.319,0,0,1,.341,0H.362L.821.017l.043,0c1.5.053,3.056.107,4.614.107C6.63.126,7.666.1,8.643.035h.014a.343.343,0,0,1,.234.09A.339.339,0,0,1,9,.37C9,.987,9,1.632,8.991,2.256v.132c-.007.665-.014,1.351-.008,2.005a.339.339,0,0,1-.287.338A25.589,25.589,0,0,1,4.974,5ZM.681.688c0,.5,0,1.094,0,1.682s0,1.183-.006,1.688a41.347,41.347,0,0,0,4.3.265A24.8,24.8,0,0,0,8.311,4.1c0-.507,0-1.034.008-1.543l0-.179,0-.185c0-.483.01-.983.009-1.466C7.433.778,6.5.8,5.47.8,3.9.8,2.336.747.824.694H.8Z" transform="translate(103 70)"/>
    <path id="Fill_203" data-name="Fill 203" d="M7,.278A12.925,12.925,0,0,1,3.5.485,12.9,12.9,0,0,1,0,.209,12.939,12.939,0,0,1,3.5,0,12.912,12.912,0,0,1,7,.278" transform="translate(104 71.757)"/>
    <path id="Fill_205" data-name="Fill 205" d="M6,.123A8.037,8.037,0,0,1,3,.489,8.019,8.019,0,0,1,0,.184,11.843,11.843,0,0,1,3,.007,11.837,11.837,0,0,1,6,.123" transform="translate(104 72.755)"/>
    <path id="Fill_207" data-name="Fill 207" d="M21,.074A11.577,11.577,0,0,1,17.939.6c-1.9.2-4.528.378-7.436.4S4.965.884,3.065.708A11.606,11.606,0,0,1,0,.231,13.571,13.571,0,0,1,3.083.167C4.982.2,7.6.253,10.5.232s5.518-.11,7.417-.176A13.609,13.609,0,0,1,21,.074" transform="translate(104 91)"/>
    <path id="Fill_209" data-name="Fill 209" d="M8,.527C8,.8,6.208,1.014,4,1S0,.749,0,.473,1.792-.014,4,0,8,.25,8,.527" transform="translate(110 86)"/>
    <path id="Fill_211" data-name="Fill 211" d="M.017,10c-.039-.006-.035-.413.3-1.049A4.775,4.775,0,0,1,2.541,7.016,7.254,7.254,0,0,1,4.5,6.44,17.717,17.717,0,0,1,6.8,6.276c.8-.019,1.627-.022,2.463-.106a5.952,5.952,0,0,0,1.213-.222,1.045,1.045,0,0,0,.736-.616.971.971,0,0,0-.288-.884,2.086,2.086,0,0,0-.975-.519c-.384-.107-.813-.181-1.224-.278s-.812-.193-1.2-.3A29.057,29.057,0,0,1,3.486,1.939,12.344,12.344,0,0,1,.056.011C.113-.1,1.442.593,3.686,1.427A36.575,36.575,0,0,0,7.694,2.656q.574.141,1.18.267c.4.088.815.15,1.269.269a2.785,2.785,0,0,1,1.33.721,2.028,2.028,0,0,1,.439.719,1.536,1.536,0,0,1,.033.92,1.5,1.5,0,0,1-.516.755,2.327,2.327,0,0,1-.714.376,6.435,6.435,0,0,1-1.384.247c-.889.079-1.735.064-2.527.064a19.286,19.286,0,0,0-2.218.088,7.146,7.146,0,0,0-1.833.442A4.91,4.91,0,0,0,.564,9.114c-.378.533-.484.9-.547.885" transform="translate(154 128)"/>
    <path id="Fill_213" data-name="Fill 213" d="M.129,12A5.886,5.886,0,0,1,.047,9.624a12.89,12.89,0,0,1,1.61-5.579A8.485,8.485,0,0,1,6.4.26,5.812,5.812,0,0,1,8.308.007c.454.026.7.1.692.142,0,.132-1,.064-2.4.61A8.771,8.771,0,0,0,2.371,4.406,15.624,15.624,0,0,0,.62,9.685,8.582,8.582,0,0,1,.129,12" transform="translate(153 137)"/>
    <path id="Fill_215" data-name="Fill 215" d="M10.315,16c-.061.013-.175-.368-.432-1.027a13.426,13.426,0,0,0-1.351-2.654,13.891,13.891,0,0,0-1.25-1.628,14.646,14.646,0,0,0-1.725-1.6,13.009,13.009,0,0,0-2.21-1.37,13.648,13.648,0,0,0-1.273-.54,5.027,5.027,0,0,1-1.406-.72,1.8,1.8,0,0,1-.557-.719A1.547,1.547,0,0,1,.041,4.81a2.375,2.375,0,0,1,1-1.3,7.893,7.893,0,0,1,1.254-.694q.613-.293,1.21-.55A32.7,32.7,0,0,1,7.835.745,14.332,14.332,0,0,1,12,.024c.022.117-1.557.429-4.006,1.229A40.634,40.634,0,0,0,3.791,2.9q-.578.265-1.175.562A7.411,7.411,0,0,0,1.484,4.1a1.688,1.688,0,0,0-.7.878.874.874,0,0,0,.374.9,4.429,4.429,0,0,0,1.19.6,13.9,13.9,0,0,1,1.339.581A13,13,0,0,1,6,8.547a14.138,14.138,0,0,1,1.765,1.738A13.035,13.035,0,0,1,9,12.042a10.633,10.633,0,0,1,1.173,2.843A2.655,2.655,0,0,1,10.315,16" transform="translate(10 124)"/>
    <path id="Fill_217" data-name="Fill 217" d="M.005,2.759c-.065-.067.455-.783,1.631-1.518A8.411,8.411,0,0,1,6.787.036a8.538,8.538,0,0,1,4.861,2.157c1.03.945,1.418,1.747,1.343,1.8-.1.082-.633-.571-1.685-1.34A9.4,9.4,0,0,0,6.716.857a9.28,9.28,0,0,0-4.823.9c-1.167.559-1.806,1.1-1.888,1" transform="translate(5 136)"/>
    <path id="Fill_219" data-name="Fill 219" d="M15,.057a5.179,5.179,0,0,1-2.041,1.037,15.57,15.57,0,0,1-2.412.637A18.259,18.259,0,0,1,7.5,2a18.226,18.226,0,0,1-3.048-.283,15.514,15.514,0,0,1-2.409-.648A5.178,5.178,0,0,1,0,.022,10.264,10.264,0,0,1,2.2.555a23,23,0,0,0,2.365.471A23.325,23.325,0,0,0,7.5,1.24a23.378,23.378,0,0,0,2.936-.2A23.032,23.032,0,0,0,12.8.58,10.3,10.3,0,0,1,15,.057" transform="translate(151 217)"/>
    <path id="Fill_221" data-name="Fill 221" d="M15,1.267a4.929,4.929,0,0,1-2.111,1.057,13.469,13.469,0,0,1-2.458.558,15.5,15.5,0,0,1-3.073.072,15.7,15.7,0,0,1-3.033-.58,13.98,13.98,0,0,1-2.364-.96A5.214,5.214,0,0,1,0,.021c.057-.12.845.3,2.154.817a20.063,20.063,0,0,0,2.331.751,19.927,19.927,0,0,0,2.923.491,19.706,19.706,0,0,0,2.954,0,19.329,19.329,0,0,0,2.4-.358A9.242,9.242,0,0,1,15,1.267" transform="translate(5 215)"/>
    <path id="Fill_223" data-name="Fill 223" d="M.173,19a3.64,3.64,0,0,1,.15-1.331A12.613,12.613,0,0,1,1.61,14.245a15.02,15.02,0,0,1,3.423-4.226A13.886,13.886,0,0,1,9.269,7.5c.543-.223,1.1-.363,1.593-.584A2.486,2.486,0,0,0,12.017,6a1.185,1.185,0,0,0,.089-1.212,2.359,2.359,0,0,0-1.012-.914,8.374,8.374,0,0,0-1.371-.562c-1.9-.654-3.617-1.22-5.062-1.69A37.744,37.744,0,0,1,0,.016,26.2,26.2,0,0,1,4.817,1.1c1.47.4,3.212.917,5.131,1.537a8.841,8.841,0,0,1,1.494.586,3.055,3.055,0,0,1,1.34,1.222,1.942,1.942,0,0,1,.214,1,2.1,2.1,0,0,1-.327.97,3.227,3.227,0,0,1-1.494,1.208c-.571.254-1.133.39-1.636.6a14.646,14.646,0,0,0-1.486.651,14.673,14.673,0,0,0-2.561,1.7,15.484,15.484,0,0,0-3.406,3.949A15.249,15.249,0,0,0,.615,17.749,5.753,5.753,0,0,1,.173,19" transform="translate(44 135)"/>
    <path id="Fill_225" data-name="Fill 225" d="M6.291,25c-.135-.024.188-1.55.126-4.021a21.169,21.169,0,0,0-2.43-9.237,23.474,23.474,0,0,0-1.46-2.35c-.519-.742-1.039-1.467-1.469-2.21A8.121,8.121,0,0,1,.12,4.919a4.617,4.617,0,0,1,.018-2.16A3.806,3.806,0,0,1,1.954.258C2.656-.074,3.1,0,3.1.03c.014.07-.4.114-.977.486A3.664,3.664,0,0,0,.7,2.873a4.216,4.216,0,0,0,.075,1.9,7.883,7.883,0,0,0,.934,2.057c.424.694.944,1.393,1.477,2.138a22.125,22.125,0,0,1,1.524,2.423,19.524,19.524,0,0,1,2.282,9.591A10.144,10.144,0,0,1,6.291,25" transform="translate(124 137)"/>
    <path id="Fill_227" data-name="Fill 227" d="M45,0a10.206,10.206,0,0,1-1.239,1.636l-.7.847c-.265.3-.568.616-.886.96-.646.679-1.356,1.482-2.229,2.278L38.6,7c-.471.441-.995.86-1.52,1.315-1.039.924-2.234,1.806-3.475,2.754a68.83,68.83,0,0,1-8.64,5.325,68.519,68.519,0,0,1-9.37,3.868c-1.493.448-2.9.9-4.258,1.193-.674.157-1.32.335-1.95.457l-1.817.338c-1.153.238-2.214.338-3.14.462-.463.055-.894.116-1.292.151l-1.092.068A10.034,10.034,0,0,1,0,22.968a10.216,10.216,0,0,1,2.01-.343l1.079-.136c.393-.057.818-.139,1.276-.215.913-.164,1.961-.3,3.1-.573l1.79-.384c.622-.136,1.257-.327,1.921-.5,1.334-.321,2.724-.789,4.195-1.25a74.148,74.148,0,0,0,9.241-3.88,74.432,74.432,0,0,0,8.574-5.212c1.239-.922,2.436-1.774,3.482-2.668.529-.44,1.057-.843,1.534-1.268l1.368-1.227c.889-.763,1.62-1.532,2.292-2.178.331-.327.648-.624.927-.909l.747-.8A10.33,10.33,0,0,1,45,0" transform="translate(95 210)"/>
    <path id="Fill_229" data-name="Fill 229" d="M41,21.986a8.877,8.877,0,0,1-1.857-.246l-.988-.177c-.359-.072-.746-.165-1.163-.259-.833-.2-1.789-.395-2.822-.7l-1.629-.454c-.566-.161-1.143-.363-1.747-.554-1.212-.371-2.475-.855-3.811-1.348a81.308,81.308,0,0,1-8.4-3.857,80.765,80.765,0,0,1-7.84-4.853C9.6,8.7,8.5,7.923,7.533,7.124c-.489-.395-.972-.762-1.414-1.141l-1.265-1.1c-.817-.687-1.5-1.368-2.116-1.949-.3-.294-.592-.562-.847-.819L1.209,1.4A8.445,8.445,0,0,1,0,0,8.68,8.68,0,0,1,1.423,1.191l.726.668.887.77c.641.548,1.345,1.2,2.179,1.854L6.5,5.535c.449.364.938.718,1.432,1.1.979.771,2.079,1.526,3.222,2.338a90.777,90.777,0,0,0,7.8,4.757,91.5,91.5,0,0,0,8.3,3.874c1.316.507,2.559,1.008,3.752,1.4.595.2,1.162.416,1.719.59l1.6.5c1.016.335,1.956.568,2.773.8l1.143.319.968.24A8.872,8.872,0,0,1,41,21.986" transform="translate(32 209)"/>
    <path id="Fill_231" data-name="Fill 231" d="M6,.261A9.55,9.55,0,0,1,3,.483a9.573,9.573,0,0,1-3-.26A9.544,9.544,0,0,1,3,0a9.551,9.551,0,0,1,3,.26" transform="translate(84 13.758)"/>
    <path id="Fill_233" data-name="Fill 233" d="M10,.863c-.01.244-2.246.106-5,.017S.006.77,0,.525,2.236-.081,5.007.016s5,.615,4.993.847" transform="translate(82 15)"/>
    <path id="Fill_235" data-name="Fill 235" d="M38,4c-.047.029-.323-.45-1.041-1.118A8.911,8.911,0,0,0,33.3.947,17.159,17.159,0,0,0,27.068.6c-1.186.1-2.433.258-3.738.377s-2.665.183-4.056.192c-2.782.015-5.422-.175-7.811-.4a29.06,29.06,0,0,0-6.3-.208A9.366,9.366,0,0,0,1.225,1.9C.4,2.437.041,2.865,0,2.83-.013,2.818.064,2.7.234,2.5a5.688,5.688,0,0,1,.86-.778A8.971,8.971,0,0,1,5.109.174a27.531,27.531,0,0,1,6.4.087c2.383.2,5.007.367,7.759.352C20.647.6,21.988.546,23.279.435S25.822.178,27.024.089A24.313,24.313,0,0,1,30.46.041a12.677,12.677,0,0,1,2.958.532,8.561,8.561,0,0,1,3.7,2.157,5.591,5.591,0,0,1,.708.91c.131.227.19.35.173.359" transform="translate(68 4)"/>
    <path id="Fill_237" data-name="Fill 237" d="M0,14a17.162,17.162,0,0,1,2.046-1.918c1.284-1.153,3.018-2.786,4.813-4.717s3.3-3.792,4.363-5.166A17.339,17.339,0,0,1,13,0a11.64,11.64,0,0,1-1.45,2.445A47.328,47.328,0,0,1,7.271,7.769,46.483,46.483,0,0,1,2.3,12.4,11.01,11.01,0,0,1,0,14" transform="translate(97 15)"/>
    <path id="Fill_239" data-name="Fill 239" d="M14,15a12.85,12.85,0,0,1-2.572-1.69,43.839,43.839,0,0,1-5.46-4.944A42.6,42.6,0,0,1,1.458,2.625,11.8,11.8,0,0,1,.005,0a21.083,21.083,0,0,1,1.807,2.4,61.658,61.658,0,0,0,4.6,5.582A63.117,63.117,0,0,0,11.7,13,21.684,21.684,0,0,1,14,15" transform="translate(63 13)"/>
    <path id="Fill_241" data-name="Fill 241" d="M.012,6A9.583,9.583,0,0,1,2.091,2.579,8.6,8.6,0,0,1,5,.011,31.669,31.669,0,0,1,2.479,2.978,31.779,31.779,0,0,1,.012,6" transform="translate(75 36)"/>
    <path id="Fill_243" data-name="Fill 243" d="M4.989,4.995A19.4,19.4,0,0,1,2.463,2.536,19.324,19.324,0,0,1,.005.011,8.253,8.253,0,0,1,2.856,2.148,8.219,8.219,0,0,1,4.989,4.995" transform="translate(93 36)"/>
    <path id="Fill_245" data-name="Fill 245" d="M18,.026a19.776,19.776,0,0,1-2.768.707A53.165,53.165,0,0,0,8.7,2.767a52.721,52.721,0,0,0-6.186,2.89A19.446,19.446,0,0,1,0,6.994,10.745,10.745,0,0,1,2.3,5.307,37.546,37.546,0,0,1,15.143.335,11.026,11.026,0,0,1,18,.026" transform="translate(32 21)"/>
    <path id="Fill_247" data-name="Fill 247" d="M17,7.993a15.918,15.918,0,0,1-2.426-1.351C13.1,5.775,11.036,4.629,8.69,3.526S4.162,1.582,2.569,1.01A15.543,15.543,0,0,1,0,.017,10.142,10.142,0,0,1,2.684.593a43.626,43.626,0,0,1,6.23,2.369,44.848,44.848,0,0,1,5.859,3.3A11.039,11.039,0,0,1,17,7.993" transform="translate(122 20)"/>
    <path id="Fill_249" data-name="Fill 249" d="M5.984,0c.094.06-.223.7-.811,1.675S3.732,3.973,2.847,5.448A32.828,32.828,0,0,0,.824,9.327C.383,10.352.178,11.02.057,11c-.1-.015-.094-.74.223-1.855A17.654,17.654,0,0,1,2.144,5.052,35.746,35.746,0,0,1,4.7,1.367C5.406.469,5.89-.055,5.984,0" transform="translate(136 72)"/>
    <path id="Fill_251" data-name="Fill 251" d="M4.921,10c-.123.017-.311-.579-.666-1.51A36.915,36.915,0,0,0,2.676,4.922C1.309,2.182-.169.146.016.008S2.032,1.754,3.442,4.58a16.119,16.119,0,0,1,1.39,3.758c.218,1.005.2,1.648.089,1.661" transform="translate(32 73)"/>
    <path id="Fill_253" data-name="Fill 253" d="M.02,12A6.831,6.831,0,0,1,.743,9.8,19.121,19.121,0,0,1,3.6,4.93,18.435,18.435,0,0,1,7.849,1.084,5.967,5.967,0,0,1,10,.011c.062.1-.684.607-1.811,1.5A24.969,24.969,0,0,0,4.226,5.391a27.185,27.185,0,0,0-2.974,4.63A7.043,7.043,0,0,1,.02,12" transform="translate(147 60)"/>
    <path id="Fill_255" data-name="Fill 255" d="M5,4.9c-.021.115-.547.127-1.381.054-.417-.036-.911-.094-1.457-.171-.276-.042-.548-.071-.882-.145a1.73,1.73,0,0,1-1.028-.6A1.286,1.286,0,0,1,.006,3.4a1.429,1.429,0,0,1,.088-.618,2.455,2.455,0,0,1,.552-.853,4.169,4.169,0,0,1,.643-.534c.193-.14.363-.27.506-.4A1.919,1.919,0,0,0,2.331.331c.082-.185.1-.32.164-.33s.152.111.162.386A1.651,1.651,0,0,1,2.234,1.4c-.268.364-.717.684-1,1.039a1.9,1.9,0,0,0-.349.6.515.515,0,0,0,.052.495c.179.274.835.36,1.368.481s1.021.237,1.424.348c.807.223,1.3.418,1.274.533" transform="translate(152 55)"/>
    <path id="Fill_257" data-name="Fill 257" d="M.006,5.994A12.851,12.851,0,0,1,4,2.269,12.9,12.9,0,0,1,9,.017c.062.16-2.2,1.067-4.676,2.724C1.839,4.382.132,6.112.006,5.994" transform="translate(150 64)"/>
    <path id="Fill_259" data-name="Fill 259" d="M11.989,15a13.8,13.8,0,0,1-1.653-2.306C9.36,11.248,7.981,9.274,6.362,7.172A64.828,64.828,0,0,0,1.992,2C1.39,1.376.884.9.53.567S-.025.054,0,.01s.273.069.7.32A13.894,13.894,0,0,1,2.353,1.6a38.477,38.477,0,0,1,4.6,5.1,51.173,51.173,0,0,1,3.834,5.7A8.916,8.916,0,0,1,11.989,15" transform="translate(15 59)"/>
    <path id="Fill_261" data-name="Fill 261" d="M0,5.388a4.892,4.892,0,0,1,1.856.36l.9.264c.321.09.687.229.979.276.324.043.425-.032.45-.178a.831.831,0,0,0-.077-.385,2.993,2.993,0,0,0-.26-.476C2.128,2.452.892.1,1.09,0S2.848,2.088,4.572,4.885a2.016,2.016,0,0,1,.417,1.332.932.932,0,0,1-.582.7,1.434,1.434,0,0,1-.817.046,7.911,7.911,0,0,1-1.074-.372L1.65,6.24C.594,5.8-.039,5.484,0,5.388" transform="translate(13 62)"/>
  </g>
</svg>
