<svg id="Group_321" data-name="Group 321" xmlns="http://www.w3.org/2000/svg" width="94" height="111" viewBox="0 0 94 111">
  <path id="Fill_1" data-name="Fill 1" d="M17.759,12h-.033c-.682-.045-1.368-.091-2.054-.14C10.5,11.494,5.3,11.028.457,10.579A.511.511,0,0,1,0,10.037,80.678,80.678,0,0,1,1.211.993l.1-.566A.5.5,0,0,1,1.865,0C6.959.657,12.722,1.218,18.53,1.625A.512.512,0,0,1,19,2.156a.507.507,0,0,1-.5.5h0c-5.681-.4-11.286-.937-16.281-1.567L2.2,1.17C1.677,4.243,1.22,6.921,1.035,9.6c4.7.435,9.716.881,14.706,1.233q1.027.073,2.05.14A.515.515,0,0,1,17.759,12" transform="translate(5)" fill="#020303"/>
  <path id="Fill_3" data-name="Fill 3" d="M15.475,2h0C10.555,1.99,5.656,1.806.5,1.437.209,1.416-.014,1.078,0,.681S.26-.02.553,0c5.14.367,10.021.551,14.923.561.29,0,.525.323.524.72S15.764,2,15.475,2" transform="translate(26 11)" fill="#020303"/>
  <path id="Fill_5" data-name="Fill 5" d="M14.49,2h0C10.346,1.97,5.5,1.751.481,1.364A.642.642,0,0,1,0,.644C.017.267.256-.012.539,0c5,.385,9.829.6,13.953.633.282,0,.508.309.507.687S14.77,2,14.49,2" transform="translate(27 2)" fill="#020303"/>
  <path id="Fill_7" data-name="Fill 7" d="M8.879,12c-2.844,0-5.638-.042-8.339-.125a.525.525,0,0,1-.505-.506C.028,11.182.023,11,.02,10.82c-.049-1.828,0-3.363.055-4.847C.123,4.532.174,3.042.131,1.3c0-.2-.01-.4-.018-.6l0-.044A.533.533,0,0,1,.265.26.5.5,0,0,1,.653.106C9.366.458,18.742.422,27.768,0a.525.525,0,0,1,.544.5.526.526,0,0,1-.5.553c-8.863.413-18.062.457-26.645.127,0,.031,0,.061,0,.091.044,1.771-.008,3.277-.058,4.733S1.013,9,1.061,10.782c0,.017,0,.033,0,.05,3.487.1,7.125.133,10.819.094,5.469-.054,11.042-.257,16.566-.6a.529.529,0,0,1,.065,1.056c-5.542.347-11.134.551-16.62.605Q10.378,12,8.879,12" transform="translate(41 2)" fill="#020303"/>
  <path id="Fill_9" data-name="Fill 9" d="M1.235,13A.54.54,0,0,1,1.2,11.923c5.566-.431,10.855-1,15.729-1.693-.218-2.913-.627-5.636-1.1-8.764l-.049-.327c-4.706.6-9.827,1.072-15.23,1.405A.54.54,0,0,1,.489,1.468C6.061,1.124,11.331.632,16.152,0a.523.523,0,0,1,.578.452l.126.843c.5,3.331.932,6.208,1.143,9.358a.535.535,0,0,1-.447.571C12.523,11.957,7.046,12.552,1.275,13l-.039,0" transform="translate(71)" fill="#020303"/>
  <path id="Fill_11" data-name="Fill 11" d="M3.832,46A5.3,5.3,0,0,1,.478,44.859a.508.508,0,0,1-.19-.392L0,.513A.513.513,0,0,1,.513,0h0a.513.513,0,0,1,.516.506l.287,43.706a4.6,4.6,0,0,0,3.823.6,5.923,5.923,0,0,0,4.024-3.471c.857-2.1.821-4.631.789-6.867L9.477.523A.513.513,0,0,1,9.986.006a.521.521,0,0,1,.524.5l.478,33.952c.033,2.333.07,4.977-.864,7.263A6.953,6.953,0,0,1,5.4,45.8a6.383,6.383,0,0,1-1.567.2" transform="translate(43 12)" fill="#020303"/>
  <path id="Fill_13" data-name="Fill 13" d="M4.64,13a.337.337,0,0,1-.052,0c-1.463-.143-2.592-.23-3.355-.258a1.347,1.347,0,0,1-1.15-1.121,4.217,4.217,0,0,1-.055-1.353L.536,3.079A6.263,6.263,0,0,1,.849,1.266,1.737,1.737,0,0,1,2.359,0h.016A18.564,18.564,0,0,1,4.922.262L5.213.3l.012,0,.331.048a.522.522,0,0,1,.354.212.478.478,0,0,1,.076.392A62.081,62.081,0,0,0,5.16,12.476a.488.488,0,0,1-.16.387A.529.529,0,0,1,4.64,13ZM2.362.994h0c-.145,0-.392.235-.538.616a5.407,5.407,0,0,0-.25,1.522v.015l-.508,7.185a3.444,3.444,0,0,0,.028,1.052.651.651,0,0,0,.209.367c.639.02,1.582.087,2.8.2A68.648,68.648,0,0,1,4.859,1.258l-.048-.007-.049-.007a17.688,17.688,0,0,0-2.4-.249Z" transform="translate(23 1)" fill="#020303"/>
  <path id="Fill_15" data-name="Fill 15" d="M1.35,13a.534.534,0,0,1-.363-.139.474.474,0,0,1-.153-.38A63.555,63.555,0,0,0,.013.892.465.465,0,0,1,.094.507.529.529,0,0,1,.451.3C.656.279.861.252,1.066.226l.037,0A20.105,20.105,0,0,1,3.708,0,1.742,1.742,0,0,1,5.235,1.256,5.857,5.857,0,0,1,5.53,3.04l.413,7.05c0,.083.013.181.02.257a4.174,4.174,0,0,1-.03,1.325c-.085.306-.285,1.021-.967,1.138a14.669,14.669,0,0,1-2.364.154H2.588c-.463,0-.845.007-1.193.035A.376.376,0,0,1,1.35,13ZM3.705.971a20.463,20.463,0,0,0-2.461.212L1.134,1.2A69.989,69.989,0,0,1,1.888,12c.19-.005.38-.007.582-.01h.11a13.676,13.676,0,0,0,2.2-.137s0-.015.01-.034a2.311,2.311,0,0,0,.142-.4,3.881,3.881,0,0,0,0-.991v-.013c-.009-.1-.016-.2-.021-.276L4.5,3.093a5.126,5.126,0,0,0-.235-1.507C4.115,1.2,3.863.972,3.705.971Z" transform="translate(67 1)" fill="#020303"/>
  <path id="Fill_17" data-name="Fill 17" d="M3.041,6a3.074,3.074,0,0,1-1.9-.635A3.109,3.109,0,0,1,.149,2.02,2.883,2.883,0,0,1,2.53.026,3.02,3.02,0,0,1,2.923,0,3.082,3.082,0,0,1,5.477,1.394,3.026,3.026,0,0,1,5.66,4.483,2.924,2.924,0,0,1,4.638,5.559,3.022,3.022,0,0,1,3.041,6ZM2.92.842a2.1,2.1,0,0,0-.28.019A2.054,2.054,0,0,0,.95,2.29,2.243,2.243,0,0,0,1.667,4.7a2.219,2.219,0,0,0,1.371.458A2.177,2.177,0,0,0,4.19,4.845a2.071,2.071,0,0,0,.727-.763A2.205,2.205,0,0,0,4.774,1.86,2.238,2.238,0,0,0,2.92.842Z" transform="translate(45 4)" fill="#020303"/>
  <path id="Fill_19" data-name="Fill 19" d="M.482,16a.525.525,0,0,1-.056,0A.5.5,0,0,1,0,15.438C.539,10.579,1.283,5.1,2.043.42A.483.483,0,0,1,2.6.007a.5.5,0,0,1,.394.581C2.235,5.257,1.494,10.712.96,15.554A.49.49,0,0,1,.482,16" transform="translate(3 9)" fill="#020303"/>
  <path id="Fill_21" data-name="Fill 21" d="M2.471,15a.516.516,0,0,1-.525-.442C1.427,9.841.774,5.134.006.568A.5.5,0,0,1,.446.006a.526.526,0,0,1,.6.41C1.82,5,2.475,9.724,3,14.457a.5.5,0,0,1-.471.54.51.51,0,0,1-.054,0" transform="translate(88 10)" fill="#020303"/>
  <path id="Fill_23" data-name="Fill 23" d="M2.263,1C1.878,1,1.526.973,1.132.943.915.926.682.908.42.893A.447.447,0,0,1,.471,0C.739.016.978.034,1.2.051A8.557,8.557,0,0,0,3.487.005a.447.447,0,0,1,.135.883A8.7,8.7,0,0,1,2.263,1" transform="translate(45 62)" fill="#020303"/>
  <path id="Fill_25" data-name="Fill 25" d="M.782,99c0-3.358,0-56.623-.021-59.766-.015-2.565-.2-6.69-.376-10.679C.2,24.307,0,19.913,0,17.272a.506.506,0,0,1,.1-.3c3.7-5.012,10.2-9.7,15.946-13.84C17.521,2.067,18.916,1.061,20.192.1A.5.5,0,0,1,20.8.909c-1.283.966-2.683,1.975-4.165,3.043C11,8.009,4.629,12.6,1.009,17.439c.008,2.636.2,6.922.384,11.071.178,4,.362,8.133.377,10.718.019,3.145.02,56.413.021,59.772" transform="translate(0 10)" fill="#020303"/>
  <path id="Fill_27" data-name="Fill 27" d="M17.557,97.982c.078-4.439.152-53.487.273-56.832.087-2.432.288-5.961.5-9.7.318-5.6.648-11.394.659-14.506C15.227,11.918,9.062,7.41,3.616,3.429,2.42,2.554,1.29,1.728.2.909A.505.505,0,1,1,.809.1c1.083.815,2.21,1.639,3.4,2.512C9.765,6.673,16.057,11.274,19.9,16.482a.5.5,0,0,1,.1.3c0,3.1-.336,9.011-.661,14.729-.212,3.73-.412,7.253-.5,9.675-.12,3.336-.194,52.379-.272,56.813" transform="translate(74 11)" fill="#020303"/>
  <path id="Fill_29" data-name="Fill 29" d="M3,.239c.067.19-.591.813-1.516.757S-.071.254.006.073C.077-.133.712.16,1.5.193,2.287.248,2.935.027,3,.239" transform="translate(46 7)" fill="#020303"/>
  <path id="Fill_31" data-name="Fill 31" d="M13,.055c.024.17-2.865.834-6.485.93S-.017.595,0,.424C.015.231,2.921.432,6.5.322S12.977-.137,13,.055" transform="translate(49 62)" fill="#020303"/>
  <path id="Fill_33" data-name="Fill 33" d="M19,4.931a10.087,10.087,0,0,1-2.908-.053,44.894,44.894,0,0,1-6.9-1.228A44.7,44.7,0,0,1,2.561,1.377,9.978,9.978,0,0,1,0,.015c.09-.2,4.117,1.612,9.368,2.954C14.611,4.34,19.019,4.715,19,4.931" transform="translate(50 63)" fill="#020303"/>
  <path id="Fill_35" data-name="Fill 35" d="M0,.051A46.387,46.387,0,0,1,6.005.386C9.305.632,11.984.5,12,.65a5.141,5.141,0,0,1-1.754.284A31.158,31.158,0,0,1,5.968.919,26.939,26.939,0,0,1,0,.051" transform="translate(33 62)" fill="#020303"/>
  <path id="Fill_37" data-name="Fill 37" d="M0,5.954C-.03,5.73,4.173,5.081,9.136,3.429,14.107,1.8,17.9-.187,18,.014a9.256,9.256,0,0,1-2.394,1.5A42.687,42.687,0,0,1,9.352,4.137,42.361,42.361,0,0,1,2.789,5.743,8.982,8.982,0,0,1,0,5.954" transform="translate(28 62)" fill="#020303"/>
  <path id="Fill_39" data-name="Fill 39" d="M1.626,1H1.595A5.893,5.893,0,0,1,.258.727.373.373,0,1,1,.491.019,5.136,5.136,0,0,0,1.658.257.372.372,0,0,1,1.626,1" transform="translate(44 54)" fill="#020303"/>
  <path id="Fill_41" data-name="Fill 41" d="M.355,1A.35.35,0,0,1,.011.779.294.294,0,0,1,.268.422,6.093,6.093,0,0,0,1.478.035a.4.4,0,0,1,.481.121.27.27,0,0,1-.147.4A6.924,6.924,0,0,1,.442.991.434.434,0,0,1,.355,1" transform="translate(47 54)" fill="#020303"/>
  <path id="Fill_43" data-name="Fill 43" d="M.256,1A.256.256,0,0,1,.087.551,4.757,4.757,0,0,0,.551.087.256.256,0,0,1,.937.425,5.579,5.579,0,0,1,.425.937.259.259,0,0,1,.256,1" transform="translate(49 53)" fill="#020303"/>
  <path id="Fill_45" data-name="Fill 45" d="M.271,2a.219.219,0,0,1-.134-.047.425.425,0,0,1-.1-.488q.088-.2.167-.416Q.351.649.477.227C.532.043.69-.048.828.025A.4.4,0,0,1,.981.491Q.847.938.69,1.364.6,1.6.507,1.818A.268.268,0,0,1,.271,2" transform="translate(49 52)" fill="#020303"/>
  <path id="Fill_47" data-name="Fill 47" d="M.356,2a.43.43,0,0,1-.075-.007.3.3,0,0,1-.273-.354C.121,1.2.216.739.292.258A.347.347,0,0,1,.691,0,.312.312,0,0,1,1,.337C.919.832.82,1.313.7,1.764A.348.348,0,0,1,.356,2" transform="translate(50 48)" fill="#020303"/>
  <path id="Fill_49" data-name="Fill 49" d="M.469,2H.445C.186,1.993-.013,1.883,0,1.754A13.353,13.353,0,0,0,.062.236C.06.106.268,0,.527,0h0C.787,0,1,.1,1,.233A13.835,13.835,0,0,1,.936,1.778C.923,1.9.716,2,.469,2" transform="translate(50 46)" fill="#020303"/>
  <path id="Fill_51" data-name="Fill 51" d="M.512,2C.245,2,.026,1.892.024,1.757L0,.247C0,.112.215,0,.485,0,.791,0,.973.108.976.243L1,1.753C1,1.888.785,2,.516,2Z" transform="translate(50 43)" fill="#020303"/>
  <path id="Fill_53" data-name="Fill 53" d="M.512,2C.245,2,.028,1.9.025,1.767L0,.236C0,.107.214,0,.483,0h0C.754,0,.972.1.974.232L1,1.764C1,1.893.785,2,.516,2Z" transform="translate(50 40)" fill="#020303"/>
  <path id="Fill_55" data-name="Fill 55" d="M.51,2C.241,2,.023,1.88.02,1.73L0,.286C0,.135.215,0,.486,0h0C.759,0,.976.11.979.259L1,1.726C1,1.876.785,2,.514,2Z" transform="translate(50 37)" fill="#020303"/>
  <path id="Fill_57" data-name="Fill 57" d="M.511,2C.242,2,.023,1.88.02,1.731L0,.273C0,.123.216,0,.486,0s.49.119.493.269L1,1.727C1,1.877.785,2,.515,2Z" transform="translate(50 34)" fill="#020303"/>
  <path id="Fill_59" data-name="Fill 59" d="M.512,2C.245,2,.026,1.892.024,1.757L0,.247C0,.112.215,0,.485,0h0C.756,0,.973.108.976.243L1,1.753C1,1.888.785,2,.516,2Z" transform="translate(50 32)" fill="#020303"/>
  <path id="Fill_61" data-name="Fill 61" d="M.512,2C.245,2,.026,1.892.024,1.756L0,.248C0,.112.215,0,.485,0h0C.756,0,.973.108.976.244L1,1.753C1,1.888.785,2,.516,2Z" transform="translate(50 29)" fill="#020303"/>
  <path id="Fill_63" data-name="Fill 63" d="M.512,2C.245,2,.027,1.895.024,1.764L0,.24C0,.108.214,0,.483,0h0C.755,0,.972.105.975.236L1,1.76C1,1.892.785,2,.516,2Z" transform="translate(50 26)" fill="#020303"/>
  <path id="Fill_65" data-name="Fill 65" d="M.512,2C.245,2,.026,1.891.024,1.756L0,.248C0,.112.215,0,.485,0h0C.756,0,.973.109.976.244L1,1.753C1,1.888.785,2,.516,2Z" transform="translate(50 22)" fill="#020303"/>
  <path id="Fill_67" data-name="Fill 67" d="M.511,2C.244,2,.026,1.892.024,1.756L0,.248C0,.112.215,0,.484,0h0C.755,0,.973.108.976.244L1,1.753C1,1.888.785,2,.515,2Z" transform="translate(50 20)" fill="#020303"/>
  <path id="Fill_69" data-name="Fill 69" d="M.511,2c-.268,0-.487-.116-.49-.26L0,.264C0,.119.216,0,.486,0h0C.758,0,.976.116.978.26L1,1.736C1,1.881.785,2,.515,2Z" transform="translate(50 17)" fill="#020303"/>
  <path id="Fill_71" data-name="Fill 71" d="M.509,2C.241,2,.021,1.876.02,1.722L0,.283C0,.127.216,0,.487,0,.74.013.977.123.98.278L1,1.717C1,1.873.784,2,.513,2Z" transform="translate(50 14)" fill="#020303"/>
  <path id="Fill_73" data-name="Fill 73" d="M.359,2A.351.351,0,0,1,.1,1.885a.382.382,0,0,1,.013-.526Q.749.729,1.4.1A.351.351,0,0,1,1.9.118a.382.382,0,0,1-.016.525Q1.242,1.27.607,1.9A.353.353,0,0,1,.359,2" transform="translate(1 28)" fill="#020303"/>
  <path id="Fill_75" data-name="Fill 75" d="M.3,2a.291.291,0,0,1-.22-.1A.335.335,0,0,1,.1,1.446Q.794.763,1.5.082A.287.287,0,0,1,1.923.1.334.334,0,0,1,1.9.556Q1.2,1.235.5,1.916A.289.289,0,0,1,.3,2" transform="translate(3 26)" fill="#020303"/>
  <path id="Fill_77" data-name="Fill 77" d="M.285,2a.272.272,0,0,1-.213-.1A.333.333,0,0,1,.1,1.455Q.808.764,1.529.078a.266.266,0,0,1,.4.03A.333.333,0,0,1,1.9.547Q1.184,1.233.473,1.922A.272.272,0,0,1,.285,2" transform="translate(6 24)" fill="#020303"/>
  <path id="Fill_79" data-name="Fill 79" d="M.325,2a.31.31,0,0,1-.247-.126.39.39,0,0,1,.035-.509Q.787.723,1.466.085a.3.3,0,0,1,.458.043.388.388,0,0,1-.039.507Q1.207,1.273.536,1.913A.3.3,0,0,1,.325,2" transform="translate(8 22)" fill="#020303"/>
  <path id="Fill_81" data-name="Fill 81" d="M.293,2a.279.279,0,0,1-.225-.12.367.367,0,0,1,.038-.47Q.811.741,1.522.076a.268.268,0,0,1,.412.047.367.367,0,0,1-.041.47Q1.184,1.255.48,1.923A.269.269,0,0,1,.293,2" transform="translate(10 20)" fill="#020303"/>
  <path id="Fill_83" data-name="Fill 83" d="M.312,2a.3.3,0,0,1-.244-.136.4.4,0,0,1,.048-.51Q.8.713,1.494.078a.285.285,0,0,1,.439.06.4.4,0,0,1-.052.51Q1.193,1.28.508,1.92a.284.284,0,0,1-.2.08" transform="translate(12 18)" fill="#020303"/>
  <path id="Fill_85" data-name="Fill 85" d="M.274,2a.259.259,0,0,1-.216-.127.374.374,0,0,1,.048-.461Q.831.735,1.56.068a.245.245,0,0,1,.384.061A.373.373,0,0,1,1.892.59q-.726.665-1.45,1.341A.246.246,0,0,1,.274,2" transform="translate(15 17)" fill="#020303"/>
  <path id="Fill_87" data-name="Fill 87" d="M.284,2a.267.267,0,0,1-.227-.139.4.4,0,0,1,.057-.487Q.83.715,1.548.068a.251.251,0,0,1,.4.074.4.4,0,0,1-.061.486q-.716.645-1.431,1.3A.252.252,0,0,1,.284,2" transform="translate(17 15)" fill="#020303"/>
  <path id="Fill_89" data-name="Fill 89" d="M.277,2a.264.264,0,0,1-.225-.144.409.409,0,0,1,.062-.487Q.839.71,1.563.065a.242.242,0,0,1,.386.083.408.408,0,0,1-.066.485q-.721.644-1.444,1.3A.238.238,0,0,1,.277,2" transform="translate(20 13)" fill="#020303"/>
  <path id="Fill_91" data-name="Fill 91" d="M1.641,2a.352.352,0,0,1-.248-.1Q.758,1.27.113.643A.381.381,0,0,1,.1.117.351.351,0,0,1,.605.1Q1.25.729,1.888,1.359a.382.382,0,0,1,.013.526A.353.353,0,0,1,1.641,2" transform="translate(91 27)" fill="#020303"/>
  <path id="Fill_93" data-name="Fill 93" d="M1.7,2a.287.287,0,0,1-.2-.084Q.8,1.235.1.556A.335.335,0,0,1,.077.1.287.287,0,0,1,.5.083q.706.68,1.4,1.364a.335.335,0,0,1,.018.451A.289.289,0,0,1,1.7,2" transform="translate(89 26)" fill="#020303"/>
  <path id="Fill_95" data-name="Fill 95" d="M1.715,2a.268.268,0,0,1-.188-.078Q.817,1.233.1.547A.333.333,0,0,1,.07.107a.267.267,0,0,1,.4-.03Q1.192.764,1.9,1.455a.333.333,0,0,1,.024.44.272.272,0,0,1-.213.1" transform="translate(86 23)" fill="#020303"/>
  <path id="Fill_97" data-name="Fill 97" d="M1.675,2a.3.3,0,0,1-.211-.087Q.792,1.272.115.636A.388.388,0,0,1,.077.128.3.3,0,0,1,.534.085q.679.638,1.353,1.281a.389.389,0,0,1,.034.509A.309.309,0,0,1,1.675,2" transform="translate(85 22)" fill="#020303"/>
  <path id="Fill_99" data-name="Fill 99" d="M1.707,2a.27.27,0,0,1-.187-.077Q.816,1.256.107.593A.366.366,0,0,1,.066.123.267.267,0,0,1,.478.076q.71.664,1.416,1.333a.367.367,0,0,1,.038.47A.279.279,0,0,1,1.707,2" transform="translate(82 20)" fill="#020303"/>
  <path id="Fill_101" data-name="Fill 101" d="M1.687,2a.284.284,0,0,1-.2-.08Q.807,1.28.119.648A.4.4,0,0,1,.068.138.284.284,0,0,1,.506.078Q1.2.712,1.883,1.354a.4.4,0,0,1,.048.51A.3.3,0,0,1,1.687,2" transform="translate(80 17)" fill="#020303"/>
  <path id="Fill_103" data-name="Fill 103" d="M1.726,2a.245.245,0,0,1-.168-.069Q.833,1.256.107.59A.374.374,0,0,1,.056.129.245.245,0,0,1,.44.068q.728.667,1.454,1.345a.374.374,0,0,1,.048.461A.26.26,0,0,1,1.726,2" transform="translate(77 16)" fill="#020303"/>
  <path id="Fill_105" data-name="Fill 105" d="M1.716,2a.251.251,0,0,1-.17-.069Q.832,1.274.115.628A.4.4,0,0,1,.055.142a.251.251,0,0,1,.4-.074q.718.647,1.435,1.306a.4.4,0,0,1,.057.488A.268.268,0,0,1,1.716,2" transform="translate(75 14)" fill="#020303"/>
  <path id="Fill_107" data-name="Fill 107" d="M.781,1A.2.2,0,0,1,.653.951L.091.47A.292.292,0,0,1,.041.108.2.2,0,0,1,.347.049L.91.53A.292.292,0,0,1,.958.893.209.209,0,0,1,.781,1" transform="translate(73 13)" fill="#020303"/>
  <path id="Fill_109" data-name="Fill 109" d="M1.673,1a.283.283,0,0,1-.041,0L.287.794A.39.39,0,0,1,0,.35.348.348,0,0,1,.368,0l1.345.2A.39.39,0,0,1,2,.651.357.357,0,0,1,1.673,1" transform="translate(7 2)" fill="#020303"/>
  <path id="Fill_111" data-name="Fill 111" d="M1.719,1a.2.2,0,0,1-.033,0L.248.764A.376.376,0,0,1,0,.338C.02.128.163-.023.315,0L1.752.237A.374.374,0,0,1,2,.662C1.982.856,1.86,1,1.719,1" transform="translate(10 2)" fill="#020303"/>
  <path id="Fill_113" data-name="Fill 113" d="M1.709,1,1.676,1,.259.782A.382.382,0,0,1,0,.347C.02.132.164-.023.325,0L1.741.218A.382.382,0,0,1,2,.652C1.982.852,1.855,1,1.709,1" transform="translate(12 2)" fill="#020303"/>
  <path id="Fill_115" data-name="Fill 115" d="M1.7,1,1.668,1Q.968.9.269.8A.39.39,0,0,1,0,.359C.019.137.169-.019.333,0q.7.1,1.4.2A.389.389,0,0,1,2,.639.35.35,0,0,1,1.7,1" transform="translate(16 2)" fill="#020303"/>
  <path id="Fill_117" data-name="Fill 117" d="M1.718,1H1.692C1.212.934.733.869.254.8.1.779-.014.582,0,.362S.151-.019.309,0L1.745.2C1.9.219,2.013.416,2,.636S1.862,1,1.718,1" transform="translate(18 2)" fill="#020303"/>
  <path id="Fill_119" data-name="Fill 119" d="M.983,1,.179.849C.071.829-.009.622,0,.388S.107-.022.214,0L1,.15V.576Z" transform="translate(22 3)" fill="#020303"/>
  <path id="Fill_121" data-name="Fill 121" d="M1.623,1H1.6L.351.9A.431.431,0,0,1,0,.419.4.4,0,0,1,.4,0L1.647.1A.429.429,0,0,1,2,.579.413.413,0,0,1,1.623,1" transform="translate(28 3)" fill="#020303"/>
  <path id="Fill_123" data-name="Fill 123" d="M1.762,1H1.749Q.987.927.224.845C.093.832-.007.632,0,.4S.121-.021.253,0q.761.081,1.522.154C1.906.168,2.006.367,2,.6s-.112.4-.238.4" transform="translate(29 3)" fill="#020303"/>
  <path id="Fill_125" data-name="Fill 125" d="M1.746,1H1.735Q.989.947.242.886C.1.874-.006.666,0,.422S.13,0,.266,0q.745.061,1.49.114c.14.01.249.216.244.461S1.882,1,1.746,1" transform="translate(33 4)" fill="#020303"/>
  <path id="Fill_127" data-name="Fill 127" d="M1.7,1H1.689Q.991.971.293.935C.126.927-.005.711,0,.452S.158,0,.313,0q.7.035,1.392.065c.167.007.3.222.295.48S1.861,1,1.7,1" transform="translate(36 4)" fill="#020303"/>
  <path id="Fill_129" data-name="Fill 129" d="M1.738,1h0Q1,.986.257.962C.113.957,0,.739,0,.472S.1,0,.266,0Q1,.023,1.741.038c.144,0,.261.22.259.485S1.882,1,1.738,1" transform="translate(38 4)" fill="#020303"/>
  <path id="Fill_131" data-name="Fill 131" d="M1.673,1a.283.283,0,0,1-.041,0L.287.794A.389.389,0,0,1,0,.349.35.35,0,0,1,.369,0l1.343.2A.391.391,0,0,1,2,.651.358.358,0,0,1,1.673,1" transform="translate(7 7)" fill="#020303"/>
  <path id="Fill_133" data-name="Fill 133" d="M1.719,1a.2.2,0,0,1-.034,0L.248.764A.377.377,0,0,1,0,.337C.021.127.164-.02.315,0L1.752.236A.375.375,0,0,1,2,.662C1.981.857,1.86,1,1.719,1" transform="translate(9 8)" fill="#020303"/>
  <path id="Fill_135" data-name="Fill 135" d="M1.709,1,1.676,1,.259.782A.382.382,0,0,1,0,.348C.02.133.166-.025.325,0L1.741.218A.382.382,0,0,1,2,.651C1.982.852,1.855,1,1.709,1" transform="translate(12 8)" fill="#020303"/>
  <path id="Fill_137" data-name="Fill 137" d="M1.7,1,1.668,1,.27.8A.389.389,0,0,1,0,.359C.019.139.169-.02.333,0l1.4.2A.389.389,0,0,1,2,.64.35.35,0,0,1,1.7,1" transform="translate(15 8)" fill="#020303"/>
  <path id="Fill_139" data-name="Fill 139" d="M1.718,1H1.692L.255.8C.1.779-.013.583,0,.362S.156-.018.309,0L1.745.2C1.9.219,2.013.415,2,.636S1.862,1,1.718,1" transform="translate(18 9)" fill="#020303"/>
  <path id="Fill_141" data-name="Fill 141" d="M1.672,1H1.644L.3.848A.406.406,0,0,1,0,.388C.017.154.176-.022.357,0L1.7.153A.406.406,0,0,1,2,.612.375.375,0,0,1,1.672,1" transform="translate(21 9)" fill="#020303"/>
  <path id="Fill_143" data-name="Fill 143" d="M1.621,1H1.6L.364.9A.439.439,0,0,1,0,.42.405.405,0,0,1,.4,0l1.25.1A.43.43,0,0,1,2,.579.414.414,0,0,1,1.621,1" transform="translate(27 10)" fill="#020303"/>
  <path id="Fill_145" data-name="Fill 145" d="M1.762,1H1.749Q.987.927.224.845C.093.832-.007.631,0,.4S.121-.018.253,0q.761.081,1.522.154C1.906.168,2.006.367,2,.6s-.112.4-.238.4" transform="translate(29 10)" fill="#020303"/>
  <path id="Fill_147" data-name="Fill 147" d="M1.746,1H1.735Q.989.947.242.886C.1.874-.006.666,0,.422S.128.013.266,0q.746.061,1.49.114c.14.01.249.216.244.461S1.882,1,1.746,1" transform="translate(32 10)" fill="#020303"/>
  <path id="Fill_149" data-name="Fill 149" d="M1.7,1H1.689Q.991.971.293.935C.126.927-.005.711,0,.452S.157.01.313,0q.7.035,1.392.065c.167.007.3.222.295.48S1.861,1,1.7,1" transform="translate(35 10)" fill="#020303"/>
  <path id="Fill_151" data-name="Fill 151" d="M1.738,1h0Q1,.986.257.961C.113.956,0,.737,0,.472S.112.017.266,0Q1,.024,1.741.039c.144,0,.261.22.259.485S1.882,1,1.738,1" transform="translate(38 10)" fill="#020303"/>
  <path id="Fill_153" data-name="Fill 153" d="M1.691,1H1.676Q.984.952.293.9C.122.885-.008.673,0,.425S.156,0,.325,0q.69.053,1.38.1c.17.012.3.223.294.47S1.855,1,1.691,1" transform="translate(43 3)" fill="#020303"/>
  <path id="Fill_155" data-name="Fill 155" d="M1.671,1H1.658L.315.922C.133.911-.008.7,0,.441A.416.416,0,0,1,.343,0L1.684.078C1.865.088,2.007.3,2,.557S1.847,1,1.671,1" transform="translate(44 3)" fill="#020303"/>
  <path id="Fill_157" data-name="Fill 157" d="M1.625,1H1.616L.366.964A.444.444,0,0,1,0,.471C.005.206.18-.023.385,0L1.632.038A.444.444,0,0,1,2,.529.436.436,0,0,1,1.625,1" transform="translate(49 4)" fill="#020303"/>
  <path id="Fill_159" data-name="Fill 159" d="M1.672,1h0L.323.972C.142.968,0,.747,0,.478S.135-.018.333,0L1.676.029C1.857.032,2,.251,2,.52S1.851,1,1.672,1" transform="translate(52 4)" fill="#020303"/>
  <path id="Fill_161" data-name="Fill 161" d="M1.738,1h0Q1,1,.26.989C.115.988,0,.765,0,.492S.118,0,.262,0h0Q1,.01,1.738.011c.145,0,.262.221.262.5S1.883,1,1.738,1" transform="translate(54 4)" fill="#020303"/>
  <path id="Fill_163" data-name="Fill 163" d="M.272,1C.122,1,0,.782,0,.512S.121.022.271.021Q1,.016,1.727,0C1.879-.034,2,.218,2,.489s-.119.492-.269.494Q1,1,.272,1Z" transform="translate(57 4)" fill="#020303"/>
  <path id="Fill_165" data-name="Fill 165" d="M.254,1C.115,1,0,.792,0,.533S.11.056.25.052Q1,.03,1.741,0C1.872-.023,2,.2,2,.466s-.108.479-.248.485Q1,.979.258,1Z" transform="translate(59 4)" fill="#020303"/>
  <path id="Fill_167" data-name="Fill 167" d="M.262,1C.12,1,0,.8,0,.549S.11.081.255.074Q.993.04,1.73,0C1.877-.006,2,.192,2,.449s-.109.47-.253.477Q1.007.966.269,1Z" transform="translate(63 4)" fill="#020303"/>
  <path id="Fill_169" data-name="Fill 169" d="M.281,1C.131,1,.006.807,0,.561S.116.1.271.09Q.99.048,1.707,0c.161.005.286.184.292.436S1.885.9,1.73.91Q1.011.958.292,1Z" transform="translate(65 3)" fill="#020303"/>
  <path id="Fill_171" data-name="Fill 171" d="M.373,1A.411.411,0,0,1,0,.579.429.429,0,0,1,.349.1L1.6,0A.4.4,0,0,1,2,.42.428.428,0,0,1,1.653.9L.4,1H.373" transform="translate(72 3)" fill="#020303"/>
  <path id="Fill_173" data-name="Fill 173" d="M.29,1C.139,1,.012.831,0,.609S.109.175.269.158Q.978.081,1.687,0c.165-.011.3.156.312.388s-.107.435-.266.453Q1.023.924.312,1H.29" transform="translate(75 3)" fill="#020303"/>
  <path id="Fill_175" data-name="Fill 175" d="M.281,1C.136,1,.014.839,0,.627S.1.2.258.186Q.976.1,1.693,0c.16-.024.292.145.306.369s-.1.423-.255.444Q1.025.91.306,1H.281" transform="translate(78 2)" fill="#020303"/>
  <path id="Fill_177" data-name="Fill 177" d="M.346,1A.358.358,0,0,1,0,.661.368.368,0,0,1,.313.252Q1.466.132,2.618,0A.356.356,0,0,1,3,.337a.369.369,0,0,1-.309.412Q1.536.877.379,1H.346" transform="translate(80 2)" fill="#020303"/>
  <path id="Fill_179" data-name="Fill 179" d="M.314,1A.356.356,0,0,1,0,.64.391.391,0,0,1,.281.2L1.65,0c.176-.02.328.135.348.357A.393.393,0,0,1,1.721.8L.348,1,.314,1" transform="translate(84 2)" fill="#020303"/>
  <path id="Fill_181" data-name="Fill 181" d="M.212,1C.106,1,.014.838,0,.619-.012.383.071.169.188.142L.762,0C.875-.025.985.142,1,.379S.929.83.813.859L.237,1A.1.1,0,0,1,.212,1" transform="translate(86 2)" fill="#020303"/>
  <path id="Fill_183" data-name="Fill 183" d="M1.692,1h-.01Q.99.967.3.93C.127.92-.005.7,0,.449S.147-.015.32,0Q1.011.038,1.7.071c.17.009.3.222.3.479S1.857,1,1.692,1" transform="translate(43 10)" fill="#020303"/>
  <path id="Fill_185" data-name="Fill 185" d="M1.671,1H1.663L.32.951C.138.944,0,.726,0,.463S.144.015.337,0L1.679.049C1.861.056,2,.273,2,.536S1.849,1,1.671,1" transform="translate(45 10)" fill="#020303"/>
  <path id="Fill_187" data-name="Fill 187" d="M1.672,1H1.663Q.992.977.32.951C.138.945-.005.725,0,.463S.162-.011.338,0q.67.027,1.341.049C1.86.055,2,.273,2,.535S1.849,1,1.672,1" transform="translate(48 10)" fill="#020303"/>
  <path id="Fill_189" data-name="Fill 189" d="M1.624,1h0L.372.989A.45.45,0,0,1,0,.491.447.447,0,0,1,.375,0h0L1.626.011A.449.449,0,0,1,2,.507.448.448,0,0,1,1.624,1" transform="translate(50 10)" fill="#020303"/>
  <path id="Fill_191" data-name="Fill 191" d="M.328,1C.147,1,0,.778,0,.5s.146-.5.328-.5L1.67,0c.2.013.329.221.33.5s-.145.5-.327.5L.328,1Z" transform="translate(53 10)" fill="#020303"/>
  <path id="Fill_193" data-name="Fill 193" d="M.262,1C.119,1,0,.787,0,.522S.115.037.259.035Q1,.02,1.734,0h0C1.881,0,2,.212,2,.476s-.113.486-.258.49Q1,.986.265,1Z" transform="translate(55 10)" fill="#020303"/>
  <path id="Fill_195" data-name="Fill 195" d="M.271,1C.124,1,0,.8,0,.539S.116.066.266.061Q.994.035,1.722,0C1.856-.028,2,.2,2,.46s-.114.476-.264.482C1.25.963.763.984.277,1Z" transform="translate(58 10)" fill="#020303"/>
  <path id="Fill_197" data-name="Fill 197" d="M.254,1C.118,1,0,.806,0,.56S.106.1.246.092Q.992.05,1.737,0c.14.005.258.186.263.438S1.9.9,1.756.908Q1.009.957.262,1Z" transform="translate(61 10)" fill="#020303"/>
  <path id="Fill_199" data-name="Fill 199" d="M.262,1C.122,1,.006.814,0,.575S.107.124.251.113Q.989.06,1.726,0c.136,0,.267.178.274.423s-.1.453-.249.464Q1.012.946.273,1Z" transform="translate(64 10)" fill="#020303"/>
  <path id="Fill_201" data-name="Fill 201" d="M.281,1C.133,1,.009.819,0,.586S.111.138.267.125Q.984.066,1.7,0c.151-.02.288.17.3.412s-.11.449-.265.462Q1.015.94.3,1Z" transform="translate(66 10)" fill="#020303"/>
  <path id="Fill_203" data-name="Fill 203" d="M.373,1A.4.4,0,0,1,0,.6.422.422,0,0,1,.343.124L1.6,0A.39.39,0,0,1,2,.4a.423.423,0,0,1-.341.474L.4,1H.373" transform="translate(73 9)" fill="#020303"/>
  <path id="Fill_205" data-name="Fill 205" d="M.291,1C.141,1,.015.842,0,.63S.1.208.264.188Q.974.1,1.683,0c.161-.024.3.144.316.367a.393.393,0,0,1-.261.445Q1.028.908.317,1H.291" transform="translate(75 9)" fill="#020303"/>
  <path id="Fill_207" data-name="Fill 207" d="M.282,1C.139,1,.017.849,0,.646S.1.235.253.213Q.971.109,1.688,0c.151-.021.294.134.31.351a.384.384,0,0,1-.25.435Q1.03.9.311,1L.282,1" transform="translate(79 9)" fill="#020303"/>
  <path id="Fill_209" data-name="Fill 209" d="M.346,1A.351.351,0,0,1,0,.68a.358.358,0,0,1,.306-.4Q1.461.146,2.612,0A.35.35,0,0,1,3,.317a.358.358,0,0,1-.3.4Q1.54.861.385,1L.346,1" transform="translate(81 8)" fill="#020303"/>
  <path id="Fill_211" data-name="Fill 211" d="M.314,1A.348.348,0,0,1,0,.658.383.383,0,0,1,.276.22L1.645,0c.168-.033.33.123.353.337A.384.384,0,0,1,1.725.78L.354,1a.273.273,0,0,1-.04,0" transform="translate(85 8)" fill="#020303"/>
  <path id="Fill_213" data-name="Fill 213" d="M.212,1C.107,1,.016.846,0,.633-.014.4.068.191.185.16L.759,0C.874-.031.982.135,1,.366S.932.81.816.842L.241,1A.1.1,0,0,1,.212,1" transform="translate(86 8)" fill="#020303"/>
  <path id="Fill_215" data-name="Fill 215" d="M1.693,1a.225.225,0,0,1-.041,0Q.956.88.262.753A.375.375,0,0,1,0,.322.329.329,0,0,1,.353,0q.689.128,1.381.243A.373.373,0,0,1,2,.671a.337.337,0,0,1-.3.329" transform="translate(55 107)" fill="#020303"/>
  <path id="Fill_217" data-name="Fill 217" d="M1.73,1H1.7Q.971.9.24.777C.091.752-.015.559,0,.345S.155-.015.3,0q.726.119,1.455.22C1.9.242,2.013.433,2,.648S1.868,1,1.73,1" transform="translate(59 107)" fill="#020303"/>
  <path id="Fill_219" data-name="Fill 219" d="M1.686,1H1.668Q.98.946.293.881C.12.864-.011.654,0,.411S.155-.024.336,0Q1.018.067,1.7.121c.173.012.306.221.3.464S1.851,1,1.686,1" transform="translate(62 107)" fill="#020303"/>
  <path id="Fill_221" data-name="Fill 221" d="M1.708,1H1.7Q.992.978.282.938C.121.929-.005.712,0,.453S.144-.014.3,0q.706.04,1.412.062C1.875.067,2,.281,2,.54S1.867,1,1.708,1" transform="translate(64 108)" fill="#020303"/>
  <path id="Fill_223" data-name="Fill 223" d="M.291,1C.131,1,0,.784,0,.516S.129.031.29.03Q1,.025,1.7,0C1.879-.027,2,.21,2,.477s-.125.49-.286.5Q1,.994.293,1Z" transform="translate(68 108)" fill="#020303"/>
  <path id="Fill_225" data-name="Fill 225" d="M.261,1C.122,1,.006.817,0,.582S.106.137.25.128Q.987.075,1.723,0c.147-.028.268.169.276.41S1.9.86,1.755.873Q1.014.949.272,1Z" transform="translate(71 107)" fill="#020303"/>
  <path id="Fill_227" data-name="Fill 227" d="M.3,1C.145,1,.014.836,0,.617A.4.4,0,0,1,.277.17Q.975.093,1.671,0c.171-.021.312.146.328.375A.4.4,0,0,1,1.728.83Q1.027.922.325,1H.3" transform="translate(74 107)" fill="#020303"/>
  <path id="Fill_229" data-name="Fill 229" d="M.114,0C.249.024.349.268.337.544.326.8.218,1,.093,1A.1.1,0,0,1,.071,1" transform="translate(16.796 107)" fill="#020303"/>
  <path id="Fill_231" data-name="Fill 231" d="M1.7,1h-.02Q.979.935.281.861C.114.842-.012.635,0,.4S.156-.015.327,0q.694.075,1.39.139C1.883.155,2.01.36,2,.6s-.144.4-.3.4" transform="translate(17 107)" fill="#020303"/>
  <path id="Fill_233" data-name="Fill 233" d="M1.688,1H1.675Q.985.957.3.9C.124.89-.009.677,0,.427A.408.408,0,0,1,.329,0Q1.015.053,1.7.1c.172.011.306.222.3.472S1.854,1,1.688,1" transform="translate(20 108)" fill="#020303"/>
  <path id="Fill_235" data-name="Fill 235" d="M1.722,1H1.715Q.992.973.27.933C.116.925,0,.709,0,.451S.129-.006.288,0q.72.04,1.44.067C1.882.073,2,.286,2,.544S1.873,1,1.722,1" transform="translate(23 108)" fill="#020303"/>
  <path id="Fill_237" data-name="Fill 237" d="M1.517,1Q.913,1,.309.992C.137.99,0,.767,0,.492S.14,0,.311,0h0c.458.006.917.006,1.374.007h0C1.861.007,2,.228,2,.5s-.139.5-.311.5H1.517" transform="translate(25 108)" fill="#020303"/>
  <path id="Fill_239" data-name="Fill 239" d="M.294,1C.133,1,0,.79,0,.528S.127.047.29.043Q1,.027,1.7,0c.141-.018.3.2.3.468s-.125.484-.287.489Q1.005.984.3,1Z" transform="translate(28 108)" fill="#020303"/>
  <path id="Fill_241" data-name="Fill 241" d="M.293,1C.135,1,.005.8,0,.554S.122.088.284.079Q.989.045,1.695,0c.163-.006.3.188.305.442s-.12.469-.282.478Q1.01.966.3,1Z" transform="translate(30 108)" fill="#020303"/>
  <path id="Fill_243" data-name="Fill 243" d="M.293,1C.138,1,.008.814,0,.576S.118.121.279.11Q.986.059,1.691,0c.163-.018.3.174.309.42S1.884.877,1.722.89Q1.015.949.307,1Z" transform="translate(33 108)" fill="#020303"/>
  <path id="Fill_245" data-name="Fill 245" d="M.257,1C.122,1,.009.829,0,.607S.1.177.241.163Q.983.087,1.725,0c.137-.027.265.158.275.389S1.9.823,1.761.84Q1.017.925.274,1H.257" transform="translate(35 107)" fill="#020303"/>
  <path id="Fill_247" data-name="Fill 247" d="M.33,1A.38.38,0,0,1,0,.6a.409.409,0,0,1,.3-.461Q.974.076,1.642,0c.181-.026.341.155.357.392a.412.412,0,0,1-.3.464Q1.026.931.355,1H.33" transform="translate(38 107)" fill="#020303"/>
  <path id="Fill_249" data-name="Fill 249" d="M6.513,0A.52.52,0,0,0,5.939.46C4.916,11.921,3.287,23.732,1.71,35.156,1.134,39.332.555,43.536,0,47.755A2.588,2.588,0,0,1,1.038,48c.56-4.257,1.144-8.5,1.726-12.715C4.342,23.851,5.973,12.027,7,.544A.511.511,0,0,0,6.513,0" transform="translate(38 62)" fill="#020303"/>
  <path id="Fill_251" data-name="Fill 251" d="M7,47.591C5.437,31.239,3.243,15.234,1.037.431A.52.52,0,0,0,.447,0,.506.506,0,0,0,.005.574C2.223,15.458,4.429,31.558,5.992,48A2.176,2.176,0,0,1,7,47.591" transform="translate(49 62)" fill="#020303"/>
  <path id="Fill_253" data-name="Fill 253" d="M38.633,1.339A.69.69,0,0,0,39,.654c-.015-.38-.248-.675-.535-.653C30.305.584,7.933,1.04.562,0,.282-.037.031.24,0,.619a.667.667,0,0,0,.454.757C3.686,1.83,20.318,2,24.024,2,28.437,2,33,1.757,37.3,1.463a1.471,1.471,0,0,1,1.335-.125" transform="translate(1 109)" fill="#020303"/>
  <path id="Fill_255" data-name="Fill 255" d="M14.679,2A112.324,112.324,0,0,1,.447,1.286.513.513,0,0,1,.575.268C7.9,1.2,29.813,1.119,37.416.005a.513.513,0,0,1,.147,1.015c-2.773.406-20.2.98-22.884.98" transform="translate(54 108)" fill="#020303"/>
  <path id="Fill_257" data-name="Fill 257" d="M1.693,1a.225.225,0,0,1-.041,0Q.956.88.262.753A.375.375,0,0,1,0,.322.329.329,0,0,1,.353,0q.689.128,1.381.243A.373.373,0,0,1,2,.671a.337.337,0,0,1-.3.329" transform="translate(55 107)" fill="#020303"/>
  <path id="Fill_259" data-name="Fill 259" d="M1.73,1H1.7Q.971.9.24.777C.091.752-.015.559,0,.345S.155-.015.3,0q.726.119,1.455.22C1.9.242,2.013.433,2,.648S1.868,1,1.73,1" transform="translate(58 107)" fill="#020303"/>
  <path id="Fill_261" data-name="Fill 261" d="M1.686,1H1.668Q.98.946.293.881C.12.864-.011.654,0,.411S.155-.024.336,0Q1.018.067,1.7.121c.173.012.306.221.3.464S1.851,1,1.686,1" transform="translate(61 108)" fill="#020303"/>
  <path id="Fill_263" data-name="Fill 263" d="M1.708,1H1.7Q.992.978.282.938C.121.929-.005.712,0,.453S.144-.014.3,0q.706.04,1.412.062C1.875.067,2,.281,2,.54S1.867,1,1.708,1" transform="translate(64 108)" fill="#020303"/>
  <path id="Fill_265" data-name="Fill 265" d="M.291,1C.131,1,0,.784,0,.516S.129.031.29.03Q1,.025,1.7,0C1.879-.027,2,.21,2,.477s-.125.49-.286.5Q1,.994.293,1Z" transform="translate(67 108)" fill="#020303"/>
  <path id="Fill_267" data-name="Fill 267" d="M.261,1C.122,1,.006.817,0,.582S.106.137.25.128Q.987.075,1.723,0c.147-.028.268.169.276.41S1.9.86,1.755.873Q1.014.949.272,1Z" transform="translate(70 108)" fill="#020303"/>
  <path id="Fill_269" data-name="Fill 269" d="M.3,1C.145,1,.014.836,0,.617A.4.4,0,0,1,.277.17Q.975.093,1.671,0c.171-.021.312.146.328.375A.4.4,0,0,1,1.728.83Q1.027.922.325,1H.3" transform="translate(74 107)" fill="#020303"/>
  <path id="Fill_271" data-name="Fill 271" d="M1.7,1h-.02Q.979.935.281.861C.114.842-.012.635,0,.4S.156-.015.327,0q.694.075,1.39.139C1.883.155,2.01.36,2,.6s-.144.4-.3.4" transform="translate(17 108)" fill="#020303"/>
  <path id="Fill_273" data-name="Fill 273" d="M1.688,1H1.675Q.985.957.3.9C.124.89-.009.677,0,.427A.408.408,0,0,1,.329,0Q1.015.053,1.7.1c.172.011.306.222.3.472S1.854,1,1.688,1" transform="translate(19 108)" fill="#020303"/>
  <path id="Fill_275" data-name="Fill 275" d="M1.722,1H1.715Q.992.973.27.933C.116.925,0,.709,0,.451S.129-.006.288,0q.72.04,1.44.067C1.882.073,2,.286,2,.544S1.873,1,1.722,1" transform="translate(22 108)" fill="#020303"/>
  <path id="Fill_277" data-name="Fill 277" d="M1.517,1Q.913,1,.309.992C.137.99,0,.767,0,.492S.14,0,.311,0h0c.458.006.917.006,1.374.007h0C1.861.007,2,.228,2,.5s-.139.5-.311.5H1.517" transform="translate(25 108)" fill="#020303"/>
  <path id="Fill_279" data-name="Fill 279" d="M.294,1C.133,1,0,.79,0,.528S.127.047.29.043Q1,.027,1.7,0c.141-.018.3.2.3.468s-.125.484-.287.489Q1.005.984.3,1Z" transform="translate(28 108)" fill="#020303"/>
  <path id="Fill_281" data-name="Fill 281" d="M.293,1C.135,1,.005.8,0,.554S.122.088.284.079Q.989.045,1.695,0c.163-.006.3.188.305.442s-.12.469-.282.478Q1.01.966.3,1Z" transform="translate(30 108)" fill="#020303"/>
  <path id="Fill_283" data-name="Fill 283" d="M.293,1C.138,1,.008.814,0,.576S.118.121.28.11Q.986.059,1.691,0c.163-.018.3.174.309.42S1.885.877,1.723.89Q1.015.949.307,1Z" transform="translate(33 108)" fill="#020303"/>
  <path id="Fill_285" data-name="Fill 285" d="M.257,1C.122,1,.009.829,0,.607S.1.177.241.163Q.983.087,1.725,0c.137-.027.265.158.275.389S1.9.823,1.761.84Q1.017.925.274,1H.257" transform="translate(35 107)" fill="#020303"/>
  <path id="Fill_287" data-name="Fill 287" d="M.33,1A.38.38,0,0,1,0,.6a.409.409,0,0,1,.3-.461Q.974.076,1.642,0c.181-.026.341.155.357.392a.412.412,0,0,1-.3.464Q1.026.931.355,1H.33" transform="translate(38 107)" fill="#020303"/>
  <path id="Fill_289" data-name="Fill 289" d="M1.75.916a.188.188,0,0,1-.041.008C1.244.953.778.98.314,1,.146,1.007,0,.807,0,.551S.13.09.3.076Q.989.046,1.682,0C1.85-.01,1.993.187,2,.442a.458.458,0,0,1-.25.474" transform="translate(76 107)" fill="#020303"/>
  <path id="Fill_291" data-name="Fill 291" d="M1.778.828,1.752.834Q1.02.925.288,1C.138,1.014.01.839,0,.61S.107.189.252.165Q.981.093,1.709,0c.148-.019.278.152.29.382a.422.422,0,0,1-.221.445" transform="translate(80 107)" fill="#020303"/>
  <path id="Fill_293" data-name="Fill 293" d="M1.74.792,1.723.8C1.266.866.809.934.35,1,.177,1.022.021.863,0,.644A.377.377,0,0,1,.282.2Q.964.109,1.646,0c.173-.028.331.128.352.347A.4.4,0,0,1,1.74.792" transform="translate(83 106)" fill="#020303"/>
  <path id="Fill_295" data-name="Fill 295" d="M1.758.727H1.753Q1.045.869.335,1A.312.312,0,0,1,0,.685.361.361,0,0,1,.252.271Q.958.144,1.66,0A.309.309,0,0,1,2,.309a.367.367,0,0,1-.238.418" transform="translate(85 106)" fill="#020303"/>
  <path id="Fill_297" data-name="Fill 297" d="M.347.995A.3.3,0,0,1,0,.721a.34.34,0,0,1,.237-.4Q.946.175,1.648.012c.172-.056.315.083.347.268a.342.342,0,0,1-.232.4Q1.056.844.349.995h0" transform="translate(89 105)" fill="#020303"/>
  <path id="Fill_299" data-name="Fill 299" d="M1.487.978Q.884.9.281.822A.4.4,0,0,1,0,.37C.019.145.171-.019.342,0h0C.8.063,1.26.12,1.716.178h0A.4.4,0,0,1,2,.626c-.016.227-.168.394-.34.372L1.487.978" transform="translate(2 107)" fill="#020303"/>
  <path id="Fill_301" data-name="Fill 301" d="M.267.846C.107.824-.012.622,0,.39S.156-.018.318,0q.7.081,1.408.153c.141,0,.284.22.273.453s-.153.41-.315.392Q.977.927.271.846h0" transform="translate(6 107)" fill="#020303"/>
  <path id="Fill_303" data-name="Fill 303" d="M.266.875C.109.853-.009.648,0,.411S.15-.014.312,0q.7.065,1.41.122c.163.017.286.22.278.462s-.147.427-.309.414Q.982.942.276.876H.266" transform="translate(8 107)" fill="#020303"/>
  <path id="Fill_305" data-name="Fill 305" d="M.265.905C.11.882-.007.676,0,.432S.145-.012.306,0q.706.05,1.412.093c.163.005.288.22.282.47S1.858,1.01,1.7,1C1.223.972.751.941.28.907l-.014,0" transform="translate(11 107)" fill="#020303"/>
  <path id="Fill_307" data-name="Fill 307" d="M.233.924C.1.9,0,.695,0,.449S.123-.008.265,0q.742.043,1.484.073C1.886.067,2,.292,2,.548s-.121.459-.263.452Q.993.969.249.926l-.016,0" transform="translate(13 107)" fill="#020303"/>
  <path id="Fill_309" data-name="Fill 309" d="M1.487.978Q.884.9.281.822A.4.4,0,0,1,0,.37C.019.145.171-.019.342,0h0C.8.063,1.26.12,1.716.178h0A.4.4,0,0,1,2,.626c-.016.227-.168.394-.34.372L1.487.978" transform="translate(2 107)" fill="#020303"/>
  <path id="Fill_311" data-name="Fill 311" d="M.267.845C.107.824-.012.621,0,.39S.156-.018.318,0q.7.08,1.408.152c.141,0,.284.22.273.452s-.153.409-.315.392Q.977.926.271.846h0" transform="translate(5 107)" fill="#020303"/>
  <path id="Fill_313" data-name="Fill 313" d="M.266.875C.109.853-.009.648,0,.412S.15-.014.312,0q.7.066,1.411.123c.163.017.286.22.277.462s-.147.427-.309.414Q.982.942.276.877H.266" transform="translate(7 107)" fill="#020303"/>
  <path id="Fill_315" data-name="Fill 315" d="M.265.905C.11.882-.007.676,0,.433S.145-.011.306,0q.706.051,1.412.094c.163.005.288.22.282.47S1.858,1.01,1.7,1Q.988.959.28.907l-.014,0" transform="translate(10 107)" fill="#020303"/>
  <path id="Fill_317" data-name="Fill 317" d="M.233.923C.1.9,0,.694,0,.448S.123-.008.265,0q.742.042,1.484.073C1.886.067,2,.291,2,.548s-.121.458-.263.452Q.993.969.249.925l-.016,0" transform="translate(12 108)" fill="#020303"/>
  <path id="Fill_319" data-name="Fill 319" d="M1,1Q.595.99.194.974l-.015,0C.077.948,0,.735,0,.478S.092,0,.2,0C.467.011.734.02,1,.027" transform="translate(16 108)" fill="#020303"/>
</svg>
