<svg xmlns="http://www.w3.org/2000/svg" xmlns:xlink="http://www.w3.org/1999/xlink" width="188.542" height="238.961" viewBox="0 0 188.542 238.961">
  <defs>
    <clipPath id="clip-path">
      <path id="Clip_4" data-name="Clip 4" d="M0,0H60.384V21.753H0Z" transform="translate(0.46 0.039)" fill="none"/>
    </clipPath>
    <clipPath id="clip-path-2">
      <path id="Clip_63" data-name="Clip 63" d="M0,0H65.305V125.483H0Z" transform="translate(0.236 0.26)" fill="none"/>
    </clipPath>
  </defs>
  <g id="Group_87" data-name="Group 87" transform="translate(0 -0.039)">
    <path id="Fill_1" data-name="Fill 1" d="M.423,10a.447.447,0,0,1-.177-.037.387.387,0,0,1-.208-.526A36.716,36.716,0,0,1,6.262.13.444.444,0,0,1,6.861.1a.379.379,0,0,1,.03.56A35.909,35.909,0,0,0,.809,9.77.427.427,0,0,1,.423,10" transform="translate(67 5)"/>
    <g id="Group_5" data-name="Group 5" transform="translate(63)">
      <path id="Clip_4-2" data-name="Clip 4" d="M0,0H60.384V21.753H0Z" transform="translate(0.46 0.039)" fill="none"/>
      <g id="Group_5-2" data-name="Group 5" clip-path="url(#clip-path)">
        <path id="Fill_3" data-name="Fill 3" d="M33.22,21.753c-.831,0-1.729-.012-2.679-.026h-.117c-1.008-.015-2.049-.03-3.036-.03-.337,0-.645,0-.94.005H26.4l-.659-.046c-5.575-.384-11.34-.781-16.291-2.882C5.2,16.969,2.065,14.312.615,11.289c-1.439-3-.27-7.088,2.66-9.312A8.4,8.4,0,0,1,5.335.832a14.265,14.265,0,0,1,5.1-.758,62.843,62.843,0,0,1,7.84.687l.019,0c.927.12,1.8.233,2.649.328a73.824,73.824,0,0,0,8.334.513A107.287,107.287,0,0,0,42.165.581L42.847.5A60,60,0,0,1,49.64,0a18.147,18.147,0,0,1,5.483.711,7.362,7.362,0,0,1,4.541,4.116,8.4,8.4,0,0,1,0,6.808c-1.567,3.41-5.347,6.295-10.373,7.915-4.347,1.4-9.222,1.783-13.937,2.151h-.01l-.2.016C34.633,21.742,34,21.753,33.22,21.753Zm-5.858-1.308c1.039,0,2.135.016,3.1.031H30.5c.977.014,1.9.027,2.738.027.747,0,1.344-.011,1.825-.033l.184-.014c4.646-.363,9.45-.738,13.66-2.1,4.693-1.514,8.2-4.156,9.62-7.248a7.13,7.13,0,0,0-.009-5.782A6.124,6.124,0,0,0,54.744,1.9a16.92,16.92,0,0,0-5.1-.653,58.909,58.909,0,0,0-6.651.494l-.682.079A108.5,108.5,0,0,1,29.281,2.856a75.074,75.074,0,0,1-8.48-.522c-.862-.1-1.763-.213-2.688-.333h-.007a62.136,62.136,0,0,0-7.686-.677A13.035,13.035,0,0,0,5.784,2a7.127,7.127,0,0,0-1.753.975C1.556,4.85.55,8.266,1.741,10.748,3.06,13.5,5.97,15.938,9.935,17.62c4.758,2.019,10.416,2.409,15.889,2.785l.634.044C26.789,20.447,27.085,20.445,27.362,20.445Z" transform="translate(0.46 0.039)"/>
      </g>
    </g>
    <path id="Fill_6" data-name="Fill 6" d="M33.543,27q-1.961,0-4.061-.077h0A57.724,57.724,0,0,1,11.7,23.573C6.612,21.625,2.778,18.325.9,14.282-1.1,9.946.186,3.078,5.249.154A.62.62,0,0,1,6.1.387a.63.63,0,0,1-.231.856C1.39,3.828.253,9.91,2.033,13.752,3.767,17.5,7.359,20.568,12.145,22.4A57.24,57.24,0,0,0,29.5,25.669c18.306.665,28.3-3.009,32.43-11.917a12.839,12.839,0,0,0,.038-8.936,6.041,6.041,0,0,0-3.484-3.6.629.629,0,0,1-.367-.807.621.621,0,0,1,.8-.369,7.335,7.335,0,0,1,4.2,4.3,14.062,14.062,0,0,1-.061,9.941C59.019,23.011,49.843,27,33.543,27" transform="translate(62 2)"/>
    <path id="Fill_8" data-name="Fill 8" d="M.621,7a.585.585,0,0,1-.173-.026.665.665,0,0,1-.423-.815C.925,2.856,7.172-.2,11.032.01A31.155,31.155,0,0,1,16.17.867c.8.18,1.624.366,2.443.517a56.524,56.524,0,0,0,7.61.869,56.407,56.407,0,0,0,7.624-.166c1.31-.118,2.638-.338,3.923-.55,1.071-.177,2.179-.36,3.282-.485C41.57.993,42.122.92,42.7.845,48.01.148,56.034-.9,58.947,6.075a.675.675,0,0,1-.316.869.607.607,0,0,1-.817-.335C55.273.522,48.1,1.464,42.854,2.151c-.586.077-1.146.15-1.67.21-1.073.122-2.167.3-3.224.478-1.306.216-2.655.439-4.009.561a57.707,57.707,0,0,1-7.781.17A57.654,57.654,0,0,1,18.4,2.681c-.843-.155-1.68-.343-2.49-.526a29.75,29.75,0,0,0-4.945-.83c-3.529-.2-9.088,2.769-9.751,5.2A.627.627,0,0,1,.621,7" transform="translate(64 5)"/>
    <path id="Fill_10" data-name="Fill 10" d="M9.194,5A49.156,49.156,0,0,1,.278,4.181a.3.3,0,0,1-.25-.326,14.541,14.541,0,0,0,0-1.748V2.1a15.4,15.4,0,0,1,0-1.822A.312.312,0,0,1,.135.072.313.313,0,0,1,.336,0H.358C3.435.259,6.191.294,8.71.294c.8,0,1.589,0,2.422-.008h.032c.754,0,1.607-.008,2.448-.008,1.164,0,2.141.008,3.076.025A.3.3,0,0,1,16.9.4a.308.308,0,0,1,.084.221c-.02.551-.012,1.115,0,1.742.01.55.022,1.174,0,1.768a.307.307,0,0,1-.259.292A49.636,49.636,0,0,1,9.194,5ZM.619.637C.6,1.1.62,1.593.638,2.066v.025c.02.506.04,1.029.016,1.537a48.544,48.544,0,0,0,8.536.759,49.043,49.043,0,0,0,7.193-.534c.011-.478,0-.973-.008-1.48V2.324c-.008-.463-.016-.942-.006-1.414C15.556.9,14.66.891,13.629.891c-.817,0-1.631,0-2.462.008h-.029c-.79,0-1.606.008-2.4.008C6.286.907,3.607.874.619.637Z" transform="translate(85 8)"/>
    <path id="Fill_12" data-name="Fill 12" d="M11,.093C11.021.31,8.568.98,5.5,1,2.439,1.032-.019.4,0,.187.018-.053,2.474.2,5.5.166,8.527.148,10.981-.146,11,.093" transform="translate(88 10)"/>
    <path id="Fill_14" data-name="Fill 14" d="M5.6,10a.4.4,0,0,1-.379-.271A33.674,33.674,0,0,0,.092.653.4.4,0,0,1,.708.144,34.638,34.638,0,0,1,5.979,9.473a.4.4,0,0,1-.25.506A.413.413,0,0,1,5.6,10" transform="translate(115 5)"/>
    <path id="Fill_16" data-name="Fill 16" d="M25,.019a23.047,23.047,0,0,1-3.612.526c-2.254.235-5.4.441-8.882.455S5.876.825,3.619.606A23.168,23.168,0,0,1,0,.1C.015.037,1.412.152,3.67.287S9.05.558,12.5.548s6.575-.168,8.83-.321S24.984-.049,25,.019" transform="translate(81 15)"/>
    <path id="Fill_18" data-name="Fill 18" d="M25,0a2.506,2.506,0,0,1-.609.924,9.07,9.07,0,0,1-2.3,1.841,24.445,24.445,0,0,1-3.908,1.747A40.74,40.74,0,0,1,13.19,5.985,40.471,40.471,0,0,1,3.866,7c-1.2-.02-2.169-.088-2.836-.164A3.059,3.059,0,0,1,0,6.635,38.442,38.442,0,0,1,3.86,6.5a50.992,50.992,0,0,0,9.2-1.2,48.374,48.374,0,0,0,4.932-1.4,28.746,28.746,0,0,0,3.884-1.574A13.34,13.34,0,0,0,25,0" transform="translate(94 19)"/>
    <path id="Fill_20" data-name="Fill 20" d="M19,5.971a16.551,16.551,0,0,1-2.984-.225A63.46,63.46,0,0,1,8.87,4.663,20.429,20.429,0,0,1,2.178,1.977,6.568,6.568,0,0,1,0,.005C.083-.07.88.71,2.436,1.6A23.932,23.932,0,0,0,9.028,4.051c2.713.613,5.24.934,7.057,1.254A12.275,12.275,0,0,1,19,5.971" transform="translate(68 20)"/>
    <path id="Fill_22" data-name="Fill 22" d="M12,.947c-.038.2-2.7-.222-6-.26C2.7.631.033.976,0,.777-.037.6,2.638-.053,6.012,0,9.386.043,12.042.776,12,.947" transform="translate(69 3)"/>
    <path id="Fill_24" data-name="Fill 24" d="M21,.13a26.191,26.191,0,0,1-3.071.307c-1.892.175-4.482.556-7.364.964-1.443.2-2.827.361-4.092.468S4.058,2.016,3.093,2A11,11,0,0,1,0,1.682c.012-.094,1.191-.022,3.086-.1.947-.031,2.073-.123,3.32-.247s2.615-.311,4.053-.51C13.333.421,15.966.1,17.89.028A11.975,11.975,0,0,1,21,.13" transform="translate(94 3)"/>
    <path id="Fill_26" data-name="Fill 26" d="M12,.153c.013.227-2.665.676-5.987.807S0,.863,0,.636,2.686.258,5.994.123s5.993-.2,6.006.03" transform="translate(88 18)"/>
    <path id="Fill_28" data-name="Fill 28" d="M74.7,164c-20.157,0-44.649-1.209-48.3-1.7l-1.824-.245c-4.962-.669-10.093-1.36-15.217-1.891-3.349-.347-7.463-1.59-8.847-3.294a2,2,0,0,1-.507-1.508,30.34,30.34,0,0,1,.951-5.036c.213-.816.433-1.661.675-2.854a5.657,5.657,0,0,0-.486-2.866c-.124-.363-.248-.727-.35-1.089-.415-1.481.081-3.2.519-4.724.178-.616.345-1.2.44-1.714.351-1.9.6-2.891.8-3.689a24.1,24.1,0,0,0,.736-4.96c.408-4.962,1.238-9.926,2.042-14.726.8-4.775,1.626-9.713,2.029-14.624.127-1.546.1-3.174.064-4.9-.076-4.018-.154-8.174,1.909-11.247a4.09,4.09,0,0,0,.312-4.165c-1.478-2.83-1.331-3.492-.644-5.157a17.7,17.7,0,0,0,.7-1.936,6.477,6.477,0,0,0-.535-4.461,15.12,15.12,0,0,1-.836-2.787,9.6,9.6,0,0,1,.7-4.533,9.143,9.143,0,0,0,.686-3.825c-1.17-9-2.6-18.493-3.982-27.672S2.926,9.715,1.755.7A.627.627,0,0,1,3,.543c1.17,9,2.6,18.493,3.982,27.672S9.8,46.9,10.966,55.911a10.164,10.164,0,0,1-.734,4.362,8.583,8.583,0,0,0-.658,3.942,14.173,14.173,0,0,0,.775,2.566,7.644,7.644,0,0,1,.563,5.242,18.734,18.734,0,0,1-.742,2.061c-.554,1.341-.685,1.659.6,4.113a5.326,5.326,0,0,1-.382,5.428c-1.846,2.749-1.772,6.706-1.7,10.534.032,1.678.064,3.413-.068,5.021-.408,4.963-1.239,9.926-2.042,14.727-.8,4.775-1.626,9.712-2.029,14.623a25.357,25.357,0,0,1-.769,5.159c-.2.781-.44,1.753-.784,3.613-.107.577-.282,1.186-.467,1.831a8.146,8.146,0,0,0-.517,4.049c.1.34.213.681.33,1.022a6.644,6.644,0,0,1,.528,3.511c-.249,1.227-.484,2.127-.691,2.921a29.323,29.323,0,0,0-.919,4.862.829.829,0,0,0,.237.59c1,1.23,4.514,2.476,8,2.838,5.144.533,10.284,1.225,15.256,1.9l1.823.245c5.335.716,55.451,2.98,70.852.7,7.347-1.086,12.557-2.344,16-3.176,1.7-.41,2.921-.705,3.771-.829.752-.108.992-.4,1.108-.607.614-1.108-.464-3.82-1.472-6.058a6.388,6.388,0,0,1-.6-4.433,7.315,7.315,0,0,1,.967-1.836,8.011,8.011,0,0,0,.715-1.238,3,3,0,0,0-.4-2.412,7.927,7.927,0,0,1-.562-1.564,26.967,26.967,0,0,1-.41-4.295c-.03-.715-.058-1.389-.113-2.053-.168-2.041-.331-3.033-.5-4.083-.169-1.029-.343-2.092-.515-4.182l-2.122-25.825c-.12-1.463-.128-2.955-.136-4.4a35.7,35.7,0,0,0-.467-6.774,22.579,22.579,0,0,0-.84-2.855,20.82,20.82,0,0,1-.961-3.447A8.817,8.817,0,0,1,111.281,78a10.739,10.739,0,0,0,.425-2.345,5.319,5.319,0,0,0-.852-2.984,7.82,7.82,0,0,1-1-2.734,6.122,6.122,0,0,1,1.094-3.542,8.19,8.19,0,0,0,.93-2.174,10.13,10.13,0,0,0-.436-4.013,11.953,11.953,0,0,1-.493-4.3c1.171-9.015,2.6-18.514,3.986-27.7,1.32-8.758,2.684-17.813,3.82-26.429a.631.631,0,0,1,.7-.536.623.623,0,0,1,.54.7c-1.138,8.627-2.5,17.688-3.823,26.451-1.383,9.181-2.813,18.674-3.983,27.676a10.91,10.91,0,0,0,.469,3.849,11.174,11.174,0,0,1,.451,4.514,9.028,9.028,0,0,1-1.059,2.546,5.384,5.384,0,0,0-.959,2.783,6.619,6.619,0,0,0,.87,2.325,6.483,6.483,0,0,1,1,3.605,11.889,11.889,0,0,1-.463,2.615,7.765,7.765,0,0,0-.369,3.206,19.7,19.7,0,0,0,.91,3.242,23.839,23.839,0,0,1,.883,3.01,36.683,36.683,0,0,1,.492,7.01c.008,1.42.016,2.889.132,4.3l2.122,25.824c.168,2.041.331,3.033.5,4.083.169,1.029.344,2.092.515,4.182.057.688.087,1.407.116,2.1a26.037,26.037,0,0,0,.386,4.1,6.853,6.853,0,0,0,.483,1.316,4.068,4.068,0,0,1,.4,3.394,9.088,9.088,0,0,1-.821,1.435,6.292,6.292,0,0,0-.819,1.522,5.051,5.051,0,0,0,.551,3.559c1.452,3.225,2.25,5.678,1.425,7.165A2.576,2.576,0,0,1,117.383,159c-.793.114-1.994.4-3.657.806-3.469.838-8.712,2.1-16.115,3.2-4.946.732-13.451,1-22.908,1" transform="translate(33 75)"/>
    <path id="Fill_30" data-name="Fill 30" d="M.619,54a.615.615,0,0,1-.195-.032.627.627,0,0,1-.393-.79C5.729,35.8,18.158,11.787,31.984.145a.615.615,0,0,1,.872.08.63.63,0,0,1-.079.881C19.137,12.591,6.851,36.353,1.207,53.571A.621.621,0,0,1,.619,54" transform="translate(35 22)"/>
    <path id="Fill_32" data-name="Fill 32" d="M33.367,55a.633.633,0,0,1-.6-.424C27.526,39.107,13.966,12.287.227,1.093A.609.609,0,0,1,.147.222.643.643,0,0,1,1.038.144c13.93,11.35,27.642,38.436,32.93,54.043a.616.616,0,0,1-.4.782.648.648,0,0,1-.2.032" transform="translate(119 22)"/>
    <path id="Fill_34" data-name="Fill 34" d="M.012,42a8.5,8.5,0,0,1,.405-1.915c.154-.611.357-1.353.632-2.2S1.606,36.053,2,35l.6-1.662c.21-.577.458-1.165.7-1.781.474-1.235,1.058-2.522,1.66-3.882,1.249-2.7,2.741-5.609,4.485-8.56,1.761-2.941,3.6-5.637,5.373-8.014.906-1.173,1.755-2.3,2.611-3.3.424-.5.821-1,1.226-1.457l1.171-1.308c.736-.842,1.455-1.554,2.071-2.192s1.165-1.169,1.626-1.59A8.217,8.217,0,0,1,25,0c.1.106-1.843,2.061-4.72,5.45L19.155,6.788c-.389.465-.77.969-1.179,1.479-.826,1.013-1.647,2.143-2.528,3.32-1.719,2.384-3.525,5.068-5.27,7.982-1.727,2.925-3.227,5.8-4.505,8.453-.616,1.339-1.219,2.6-1.718,3.818-.254.6-.516,1.182-.741,1.748s-.438,1.111-.644,1.63C.954,39.383.152,42.041.012,42" transform="translate(36 26)"/>
    <path id="Fill_36" data-name="Fill 36" d="M24.989,45a9.3,9.3,0,0,1-.791-1.886c-.224-.617-.5-1.371-.838-2.239s-.693-1.866-1.142-2.948c-.433-1.088-.909-2.279-1.461-3.541-.525-1.273-1.145-2.606-1.781-4.016-1.311-2.8-2.83-5.843-4.555-8.965s-3.516-6.009-5.2-8.6c-.859-1.283-1.662-2.512-2.462-3.628-.778-1.132-1.536-2.162-2.229-3.1S3.2,4.3,2.638,3.554,1.588,2.181,1.184,1.666A9.226,9.226,0,0,1,0,0,9.133,9.133,0,0,1,1.441,1.446c.446.481.979,1.08,1.572,1.8s1.29,1.52,2,2.451S6.534,7.63,7.342,8.751c.831,1.1,1.66,2.325,2.543,3.6,1.73,2.582,3.54,5.485,5.292,8.62,1.736,3.144,3.244,6.219,4.524,9.057.62,1.428,1.22,2.781,1.72,4.073.526,1.281.971,2.491,1.37,3.6.415,1.1.733,2.12,1.027,3.007s.526,1.659.7,2.295A9.244,9.244,0,0,1,24.989,45" transform="translate(128 24)"/>
    <path id="Fill_38" data-name="Fill 38" d="M88,11.012a3.723,3.723,0,0,1-.912.14c-.6.063-1.487.143-2.629.236-2.285.179-5.6.375-9.7.5-4.1.107-8.984.174-14.406.025s-11.379-.449-17.614-.98S30.583,9.71,25.216,8.96,15.04,7.424,11,6.643a27.877,27.877,0,0,1-5.321-1.62A13.23,13.23,0,0,1,2.1,2.829,9.139,9.139,0,0,1,.4.826,3.52,3.52,0,0,1,0,0,13.469,13.469,0,0,0,2.327,2.576,13.536,13.536,0,0,0,5.872,4.583,28.589,28.589,0,0,0,11.126,6.05c4.013.7,8.843,1.424,14.2,2.129s11.271,1.376,17.49,1.9,12.157.861,17.562,1.043,10.278.188,14.369.159c4.092-.047,7.4-.151,9.691-.227,1.144-.042,2.034-.068,2.637-.076a3.749,3.749,0,0,1,.924.031" transform="translate(40 221)"/>
    <path id="Fill_40" data-name="Fill 40" d="M0,3.225c.012-.12,2.38.008,6.2.073,1.912.037,4.188.033,6.714-.018s5.3-.188,8.2-.4,5.66-.527,8.161-.845,4.742-.674,6.619-1C39.656.385,41.965-.1,42,.017a6.643,6.643,0,0,1-1.571.514c-.513.143-1.144.308-1.883.477s-1.578.376-2.516.561c-1.87.4-4.116.8-6.624,1.171s-5.285.683-8.21.912-5.722.319-8.265.346S8.1,3.956,6.18,3.849c-.961-.04-1.826-.115-2.587-.171S2.18,3.557,1.647,3.494A6.865,6.865,0,0,1,0,3.225" transform="translate(105 220)"/>
    <path id="Fill_42" data-name="Fill 42" d="M0,.54C.012.353,4.04.469,9,.33s8.977-.46,9-.275a10.052,10.052,0,0,1-2.608.473C13.769.722,11.515.9,9.02.972S4.263.978,2.631.872A10.087,10.087,0,0,1,0,.54" transform="translate(129 225)"/>
    <path id="Fill_44" data-name="Fill 44" d="M19,2.944A12.038,12.038,0,0,1,16.165,2.9c-1.744-.119-4.148-.367-6.782-.772S4.389,1.242,2.7.832A11.773,11.773,0,0,1,0,.021a14.275,14.275,0,0,1,2.8.39c1.711.3,4.073.715,6.692,1.119s5,.717,6.723.945A14.178,14.178,0,0,1,19,2.944" transform="translate(38 228)"/>
    <path id="Fill_46" data-name="Fill 46" d="M36,5.806a5.883,5.883,0,0,1-1.439.139c-.927.051-2.27.069-3.93.043S27,5.87,24.806,5.694s-4.589-.468-7.1-.866-4.873-.9-7.014-1.406S6.648,2.372,5.06,1.871,2.2.934,1.329.594A6.036,6.036,0,0,1,0,.009,5.967,5.967,0,0,1,1.407.343C2.3.606,3.588.974,5.186,1.411s3.509.919,5.642,1.4,4.494.94,6.983,1.346,4.874.691,7.048.914,4.137.355,5.788.437,2.989.142,3.914.172A5.952,5.952,0,0,1,36,5.806" transform="translate(43 216)"/>
    <path id="Fill_48" data-name="Fill 48" d="M83,0a3.225,3.225,0,0,1-.749.365c-.5.228-1.262.5-2.254.846a48.9,48.9,0,0,1-8.728,1.9,114.411,114.411,0,0,1-13.279.809c-5,.076-10.5.1-16.267.047-11.541-.1-21.982-.514-29.528-.944C8.42,2.816,5.37,2.6,3.263,2.432c-1.052-.087-1.87-.161-2.423-.22A3.457,3.457,0,0,1,0,2.082a3.5,3.5,0,0,1,.853-.028c.557.008,1.378.033,2.433.073l8.941.344c7.548.288,17.979.61,29.5.714,5.763.056,11.254.051,16.246.014a124.787,124.787,0,0,0,13.206-.635,55.829,55.829,0,0,0,8.7-1.639c1-.3,1.777-.523,2.3-.7A3.478,3.478,0,0,1,83,0" transform="translate(57 86)"/>
    <path id="Fill_50" data-name="Fill 50" d="M0,5.994a1.971,1.971,0,0,1,.544-.228c.362-.128.9-.306,1.6-.529L3.3,4.871l1.394-.378c1-.266,2.14-.586,3.416-.856l2-.448,2.179-.419c1.5-.305,3.126-.538,4.828-.81,3.413-.485,7.18-.9,11.142-1.207C36.186.174,43.379.064,48.58.017c2.6-.022,4.705-.019,6.16-.008.727.007,1.292.017,1.675.032A1.937,1.937,0,0,1,57,.1a1.961,1.961,0,0,1-.583.078c-.382.029-.946.061-1.673.094-1.453.069-3.557.138-6.155.222-5.2.168-12.378.353-20.283.93-3.951.3-7.705.7-11.109,1.15-1.7.255-3.315.465-4.816.746L10.2,3.7l-2,.4c-1.278.239-2.418.525-3.424.756l-1.4.324L2.208,5.49C1.5,5.673.955,5.81.581,5.9a1.978,1.978,0,0,1-.581.1" transform="translate(46 93)"/>
    <path id="Fill_52" data-name="Fill 52" d="M14,2.584c.031.188-3.215.8-7.179.06C2.854,1.933-.077.192,0,.024.077-.2,3.055,1.186,6.924,1.876c3.864.724,7.062.47,7.076.707" transform="translate(47 145)"/>
    <path id="Fill_54" data-name="Fill 54" d="M11,.162C11,.355,8.29.312,5.233,1.4,2.161,2.446.136,4.139,0,3.991c-.056-.056.376-.556,1.238-1.205A14.163,14.163,0,0,1,5,.815,14.723,14.723,0,0,1,9.222.007,4.075,4.075,0,0,1,11,.162" transform="translate(46 151)"/>
    <path id="Fill_56" data-name="Fill 56" d="M0,5.769C0,5.475,6.008,5.516,13.2,3.9,20.4,2.333,25.891-.251,26,.02a13.778,13.778,0,0,1-3.518,1.868,51.052,51.052,0,0,1-9.1,2.923A50.44,50.44,0,0,1,3.936,5.989,13.344,13.344,0,0,1,0,5.769" transform="translate(115 141)"/>
    <path id="Fill_58" data-name="Fill 58" d="M13,1.975c-.061.175-2.886-.622-6.465-1.091C2.957.4.007.424,0,.239-.017.082,2.976-.225,6.628.271,10.281.75,13.062,1.829,13,1.975" transform="translate(129 149)"/>
    <path id="Fill_60" data-name="Fill 60" d="M22.258,125c-1.071,0-2.283-.082-3.568-.184-.673-.053-1.255-.1-1.648-.105A84.047,84.047,0,0,1,.785,123.065a.623.623,0,0,1-.486-.711,6.846,6.846,0,0,0-.117-2.169,8.68,8.68,0,0,1-.147-2.391,15.105,15.105,0,0,1,.517-2.324,9.766,9.766,0,0,0,.515-2.967,8.9,8.9,0,0,0-.192-1.426A6.093,6.093,0,0,1,.8,108.444a8.186,8.186,0,0,1,.866-2.056,9.812,9.812,0,0,0,.487-.994,10.805,10.805,0,0,0,.349-3.361c0-.607.009-1.181.053-1.694.355-4.159.663-7.655,1.008-11.2.621-6.384,1.523-14.8,3-23.292.407-2.343.806-4.773,1.186-7.222a12.865,12.865,0,0,0,.076-2.11,8.322,8.322,0,0,1,.509-3.771c.123-.254.259-.5.395-.755a5.222,5.222,0,0,0,.754-1.929A5.2,5.2,0,0,0,9.2,48.276c-.09-.327-.183-.664-.248-1.012a8.431,8.431,0,0,1,.867-4.153,13.425,13.425,0,0,0,.735-2.322l.04-.244c1.125-6.811,2.187-13.244,6.979-18.386,5.764-6.184,14.106-9.345,22.261-11.839C45.965,8.447,57.749,3.732,63.02.11a.624.624,0,1,1,.709,1.028C58.284,4.879,46.567,9.568,40.2,11.515c-7.989,2.443-16.149,5.526-21.712,11.5-4.535,4.866-5.568,11.119-6.661,17.739l-.04.243a14.364,14.364,0,0,1-.8,2.56,7.761,7.761,0,0,0-.807,3.482c.056.3.138.6.225.913a6.208,6.208,0,0,1,.322,2.227,6.234,6.234,0,0,1-.9,2.412c-.126.233-.253.465-.367.7A7.343,7.343,0,0,0,9.077,56.5a13.973,13.973,0,0,1-.09,2.322c-.382,2.457-.782,4.894-1.19,7.244C6.328,74.513,5.429,82.9,4.81,89.262,4.466,92.8,4.159,96.291,3.8,100.446c-.04.465-.044,1.015-.048,1.6a11.56,11.56,0,0,1-.432,3.8,10.772,10.772,0,0,1-.55,1.132,7.22,7.22,0,0,0-.746,1.723A4.859,4.859,0,0,0,2.1,110.84a10.063,10.063,0,0,1,.213,1.616,10.833,10.833,0,0,1-.56,3.348,13.944,13.944,0,0,0-.479,2.132,7.635,7.635,0,0,0,.14,2.054,9.974,9.974,0,0,1,.176,1.969,84.072,84.072,0,0,0,15.47,1.5c.433.007,1.033.054,1.727.109,1.9.151,5.448.431,6.352-.334.589-.5.588-1.6.587-2.769a7.641,7.641,0,0,1,.3-2.669,16.125,16.125,0,0,1,.806-1.7,13.918,13.918,0,0,0,.782-1.659,20.521,20.521,0,0,0,.843-4.387,28.591,28.591,0,0,1,.6-3.657c1.343-5.169,2.766-14.953,4.021-23.586.776-5.341,1.51-10.386,2.128-13.668a.625.625,0,0,1,1.229.231c-.614,3.257-1.345,8.289-2.12,13.617-1.259,8.664-2.688,18.484-4.047,23.72a27.61,27.61,0,0,0-.57,3.493,21.341,21.341,0,0,1-.911,4.667,14.976,14.976,0,0,1-.848,1.809,14.815,14.815,0,0,0-.746,1.564,6.847,6.847,0,0,0-.22,2.222c0,1.4,0,2.85-1.028,3.723a5.979,5.979,0,0,1-3.692.81" transform="translate(0 6)"/>
    <g id="Group_64" data-name="Group 64" transform="translate(123 5)">
      <path id="Clip_63-2" data-name="Clip 63" d="M0,0H65.305V125.483H0Z" transform="translate(0.236 0.26)" fill="none"/>
      <g id="Group_64-2" data-name="Group 64" clip-path="url(#clip-path-2)">
        <path id="Fill_62" data-name="Fill 62" d="M44.53,125.483c-5.409,0-5.433-.169-5.523-.77-.024-.16-.05-.321-.076-.484a12.383,12.383,0,0,1-.191-1.6,5,5,0,0,1,.054-.789,1.924,1.924,0,0,0-.023-.941,2.113,2.113,0,0,0-.649-.7,4.12,4.12,0,0,1-.811-.815,2.936,2.936,0,0,1-.444-1.966,4.173,4.173,0,0,1,.215-.877,2.514,2.514,0,0,0,.161-.684,2.787,2.787,0,0,0-.185-.709c-.056-.161-.108-.316-.146-.456l-.606-2.265q-.7-2.615-1.383-5.234c-1.377-5.295-2.822-14.9-4.1-23.381-.754-5.018-1.468-9.758-2.068-12.937a.625.625,0,0,1,1.228-.23c.6,3.2,1.319,7.952,2.076,12.982,1.271,8.447,2.71,18.022,4.071,23.254q.68,2.615,1.381,5.225l.606,2.268c.03.114.074.24.119.369a2.623,2.623,0,0,1,.03,2.181,3.187,3.187,0,0,0-.159.618,1.707,1.707,0,0,0,.229,1.136,3.121,3.121,0,0,0,.58.563,3.118,3.118,0,0,1,1.009,1.19,2.957,2.957,0,0,1,.106,1.564,3.98,3.98,0,0,0-.045.6,11.63,11.63,0,0,0,.175,1.441c.005.032.01.065.016.1.521.055,1.873.122,5.42.11h.34c2.138.011,4.353-.052,6.589-.177,2.147-.12,4.276-.3,6.329-.528.423-.047.857-.088,1.3-.129a25.086,25.086,0,0,0,3.742-.539c-.023-.109-.051-.222-.079-.336a4.356,4.356,0,0,1-.175-1.284,5.434,5.434,0,0,1,.231-1.189,2.285,2.285,0,0,0,.107-1.408,3.9,3.9,0,0,0-.469-.854c-.134-.2-.268-.41-.383-.626a6.769,6.769,0,0,1-.462-4.037l.028-.3a9.821,9.821,0,0,0-.15-2.2c-.049-.354-.1-.706-.132-1.054q-.269-2.786-.53-5.571l-.2-2.1c-.59-6.24-1.105-11.472-1.7-16.725C59.152,77.891,58.33,72,57.394,66.621c-.481-2.764-.915-5.483-1.353-8.258-.066-.418-.109-.853-.155-1.312a9.651,9.651,0,0,0-.548-2.81,1.513,1.513,0,0,0-.472-.5,2.4,2.4,0,0,1-1.049-1.658,7.137,7.137,0,0,1,.132-2.091c.039-.236.077-.472.106-.708a3.59,3.59,0,0,0-.88-2.583,5.713,5.713,0,0,1-1.146-2.689,13.437,13.437,0,0,1,.283-3.608,10.5,10.5,0,0,0,.182-3.94c-1.194-5.847-2.98-9.8-5.792-12.808C41.141,17.7,32.983,14.626,25,12.188,20.748,10.892,6.411,6.261.224,1.1A.621.621,0,0,1,.146.223a.627.627,0,0,1,.88-.078C7.034,5.156,21.171,9.718,25.361,11c8.155,2.489,16.494,5.643,22.257,11.814,3.816,4.086,5.265,9.312,6.1,13.408a11.594,11.594,0,0,1-.174,4.4,12.317,12.317,0,0,0-.271,3.278,4.59,4.59,0,0,0,.942,2.121A4.746,4.746,0,0,1,55.3,49.436c-.03.253-.072.506-.113.759a6.078,6.078,0,0,0-.125,1.732c.05.392.238.561.594.848a2.587,2.587,0,0,1,.828.961,10.516,10.516,0,0,1,.649,3.191c.044.442.086.859.146,1.242.438,2.77.87,5.484,1.349,8.239.941,5.4,1.766,11.318,2.6,18.628.6,5.263,1.115,10.5,1.706,16.748l.2,2.1q.262,2.785.529,5.568c.032.33.079.664.127,1a10.9,10.9,0,0,1,.157,2.487l-.028.306a5.744,5.744,0,0,0,.32,3.337c.1.182.213.356.326.529a4.9,4.9,0,0,1,.608,1.142,3.414,3.414,0,0,1-.088,2.135,4.29,4.29,0,0,0-.188.921,3.336,3.336,0,0,0,.142.923,4.97,4.97,0,0,1,.178,1.067.621.621,0,0,1-.437.612,22.322,22.322,0,0,1-4.5.732c-.432.04-.859.081-1.274.127-2.076.234-4.229.413-6.4.534-2.261.126-4.5.187-6.664.179H45.6l-1.073,0" transform="translate(0.236 0.26)"/>
      </g>
    </g>
    <path id="Fill_65" data-name="Fill 65" d="M0,4.993c-.026-.018.048-.191.3-.391a3.533,3.533,0,0,1,1.216-.579c.539-.165,1.191-.29,1.886-.451A6.927,6.927,0,0,0,4.45,3.26a1.794,1.794,0,0,0,.816-.576.727.727,0,0,0-.045-.807,2.168,2.168,0,0,0-.7-.671A6.654,6.654,0,0,0,2.809.545,6.627,6.627,0,0,1,1.1.057,4.439,4.439,0,0,1,2.9.123a5.979,5.979,0,0,1,1.917.6,2.625,2.625,0,0,1,.931.843A1.505,1.505,0,0,1,6,2.245,1.213,1.213,0,0,1,5.806,3a2.3,2.3,0,0,1-1.122.812,6.622,6.622,0,0,1-1.149.307c-.728.137-1.373.215-1.9.32A4.937,4.937,0,0,0,.441,4.8c-.266.119-.4.228-.436.192" transform="translate(3 116)"/>
    <path id="Fill_67" data-name="Fill 67" d="M16,1.646c.018.171-3.616.61-8.086.149C3.441,1.353-.047.194,0,.029c.046-.2,3.563.655,7.974,1.09,4.41.456,8.015.324,8.025.527" transform="translate(4 123)"/>
    <path id="Fill_69" data-name="Fill 69" d="M8.184,3.791a11.189,11.189,0,0,1-2.714.188C4.632,3.994,3.635,4,2.527,4l-.861-.006A2.964,2.964,0,0,1,.686,3.8a1.258,1.258,0,0,1-.5-.345.815.815,0,0,1-.166-.7.966.966,0,0,1,.4-.551,2.1,2.1,0,0,1,.507-.253c.346-.118.642-.172.944-.252l.891-.217,1.688-.4C5.524.84,6.5.623,7.314.45A11.192,11.192,0,0,1,10,.023,11.063,11.063,0,0,1,7.435.9c-.8.231-1.763.494-2.83.777l-3.444.9c-.264.087-.475.242-.479.332a.176.176,0,0,0,.033.146.624.624,0,0,0,.237.158,2.385,2.385,0,0,0,.747.157l.839.027c1.107.035,2.1.076,2.94.119a11.185,11.185,0,0,1,2.706.278" transform="translate(175 120)"/>
    <path id="Fill_71" data-name="Fill 71" d="M0,2.983A10.781,10.781,0,0,1,2.52,2.135,63.571,63.571,0,0,1,8.842.786,64.528,64.528,0,0,1,15.3.063a11.38,11.38,0,0,1,2.7,0c.013.169-4.078.468-9.038,1.28C4,2.141.059,3.144,0,2.983" transform="translate(167 125)"/>
    <path id="Fill_73" data-name="Fill 73" d="M5.983.01C6.189.178,4.5,2.2,2.889,4.938,1.253,7.667.314,10.072.052,10c-.237-.054.324-2.655,2.017-5.485C3.745,1.675,5.808-.149,5.983.01" transform="translate(153 67)"/>
    <path id="Fill_75" data-name="Fill 75" d="M4.93,10c-.122.025-.329-.573-.7-1.5s-.917-2.2-1.605-3.563C1.261,2.2-.163.175.015.011s1.947,1.673,3.361,4.5A17.277,17.277,0,0,1,4.8,8.3c.237,1.021.237,1.68.129,1.7" transform="translate(31 66)"/>
    <path id="Fill_77" data-name="Fill 77" d="M.016,11A6.615,6.615,0,0,1,.947,8.843,19.44,19.44,0,0,1,4.259,4.232,17.853,17.853,0,0,1,8.8.834,5.225,5.225,0,0,1,11,.021c.125.244-3.148,1.705-6.138,4.805a28.467,28.467,0,0,0-3.4,4.328C.66,10.346.116,11.056.016,11" transform="translate(163 56)"/>
    <path id="Fill_79" data-name="Fill 79" d="M5,4.931c-.039.117-.586.08-1.438-.075-.426-.078-.928-.185-1.481-.317-.279-.07-.555-.126-.894-.236A1.826,1.826,0,0,1,.178,3.6,1.22,1.22,0,0,1,.17,2.35a2.428,2.428,0,0,1,.686-.759,4.323,4.323,0,0,1,.735-.435c.216-.11.406-.211.569-.312A1.992,1.992,0,0,0,2.8.29C2.909.129,2.952,0,3.024,0s.155.122.136.389a1.557,1.557,0,0,1-.556.935c-.321.321-.825.58-1.154.88a1.794,1.794,0,0,0-.421.52.419.419,0,0,0-.008.437c.127.255.785.419,1.32.594s1.02.344,1.42.5c.8.309,1.275.559,1.236.676" transform="translate(169 51)"/>
    <path id="Fill_81" data-name="Fill 81" d="M.005,4.99c-.118-.114,1.72-1.907,4.558-3.306C7.394.267,9.973-.127,10,.033c.048.185-2.391.842-5.135,2.218C2.11,3.607.132,5.137.005,4.99" transform="translate(167 60)"/>
    <path id="Fill_83" data-name="Fill 83" d="M13.987,15a13,13,0,0,1-1.963-2.3c-1.155-1.447-2.779-3.427-4.671-5.53A71.247,71.247,0,0,0,2.28,2C1.588,1.384,1.009.908.6.58.191.267-.028.065,0,.013S.313.064.8.3A14.867,14.867,0,0,1,2.7,1.535,40.45,40.45,0,0,1,8.038,6.6a51.978,51.978,0,0,1,4.51,5.745A8.421,8.421,0,0,1,13.987,15" transform="translate(13 52)"/>
    <path id="Fill_85" data-name="Fill 85" d="M0,5.5c.039-.108.745,0,1.856.263l.9.225a9.977,9.977,0,0,0,.974.234c.318.026.374-.047.391-.169a.838.838,0,0,0-.093-.369,3.111,3.111,0,0,0-.277-.465C1.92,2.458.6.125.81,0S2.678,2.022,4.515,4.779A2.123,2.123,0,0,1,5,6.132a.967.967,0,0,1-.56.759,1.409,1.409,0,0,1-.825.082A7.544,7.544,0,0,1,2.53,6.637l-.871-.321C.6,5.91-.037,5.605,0,5.5" transform="translate(12 56)"/>
  </g>
</svg>
