<svg xmlns="http://www.w3.org/2000/svg" xmlns:xlink="http://www.w3.org/1999/xlink" width="187.959" height="105.81" viewBox="0 0 187.959 105.81">
  <defs>
    <clipPath id="clip-path">
      <path id="Clip_176" data-name="Clip 176" d="M0,0H31.493V28.569H0Z" transform="translate(0.466 0.218)" fill="none"/>
    </clipPath>
    <clipPath id="clip-path-2">
      <path id="Clip_205" data-name="Clip 205" d="M0,0H18.355V21.21H0Z" transform="translate(0.556 0.19)" fill="none"/>
    </clipPath>
  </defs>
  <g id="Group_323" data-name="Group 323" transform="translate(0 -0.19)">
    <path id="Fill_1" data-name="Fill 1" d="M100.966,63a97.125,97.125,0,0,1-10.98-.575A107.244,107.244,0,0,1,65.207,56.21c-2.479-.911-4.961-1.926-7.363-2.909a113.458,113.458,0,0,0-14.02-5.031,61.519,61.519,0,0,0-10.61-1.485,77.032,77.032,0,0,1-8.907-1.076c-8.94-1.793-19.753-8.491-22.4-11.959C-.537,30.554-.113,26.961.378,22.8l.043-.367A82.6,82.6,0,0,1,6.217.49.79.79,0,0,1,7.256.063a.808.808,0,0,1,.42,1.054A80.938,80.938,0,0,0,2,22.624l-.044.369c-.468,3.965-.837,7.1,1.207,9.772C5.4,35.695,15.751,42.353,24.615,44.131a75.783,75.783,0,0,0,8.725,1.05,62.685,62.685,0,0,1,10.88,1.532,114.684,114.684,0,0,1,14.216,5.1c2.388.977,4.857,1.987,7.309,2.888a105.713,105.713,0,0,0,24.418,6.13c20.859,2.4,53.051-3.034,63.231-10.6A8.041,8.041,0,0,0,151.52,45.9a17.386,17.386,0,0,0-4.156-3.483c-5.987-3.834-13.834-6.254-21.422-8.594a139.1,139.1,0,0,1-13.971-4.833.808.808,0,0,1-.419-1.055.791.791,0,0,1,1.04-.426,138.2,138.2,0,0,0,13.81,4.774c7.689,2.371,15.64,4.822,21.807,8.772a18.871,18.871,0,0,1,4.533,3.819A9.462,9.462,0,0,1,155,50.606a.81.81,0,0,1-.308.648C146.244,57.884,121.385,63,100.966,63" transform="translate(1 26)"/>
    <path id="Fill_3" data-name="Fill 3" d="M26.653,22a35.314,35.314,0,0,1-10.72-1.582C8.636,18.1,3.676,14.533,1.188,9.81A9.165,9.165,0,0,1,0,5.723,5.425,5.425,0,0,1,1.647,1.571C3.6-.212,6.484-.056,8.805.069l.222.011a56.779,56.779,0,0,1,8.254,1.067A80.864,80.864,0,0,1,32.349,5.932l1.026.432A55.883,55.883,0,0,0,39,8.5a.792.792,0,1,1-.459,1.515A57.368,57.368,0,0,1,32.753,7.82l-1.022-.429A79.33,79.33,0,0,0,16.963,2.7,55.248,55.248,0,0,0,8.943,1.66l-.224-.011C6.7,1.539,4.181,1.405,2.727,2.734A3.91,3.91,0,0,0,1.595,5.69,7.659,7.659,0,0,0,2.6,9.078c2.285,4.341,6.934,7.649,13.816,9.833a36.986,36.986,0,0,0,16.649,1.021c1.555-.229,3.128-.54,4.672-.925a27.186,27.186,0,0,0,6.225-2.786c1.271-.7,2.586-1.421,3.908-1.99a.8.8,0,0,1,.76.067,26.861,26.861,0,0,0,5.838,3.091.79.79,0,0,1,.486,1.01.8.8,0,0,1-1.017.482,27.5,27.5,0,0,1-5.824-3.025c-1.116.507-2.218,1.112-3.378,1.75a28.343,28.343,0,0,1-6.609,2.935c-1.594.4-3.219.72-4.826.957a45.646,45.646,0,0,1-6.648.5" transform="translate(7 24)"/>
    <path id="Fill_5" data-name="Fill 5" d="M107.694,51A209.252,209.252,0,0,1,78.65,48.633C69.173,47.3,59.98,44.1,51.088,41c-8.568-2.985-17.429-6.073-26.472-7.446l-1.552-.233A64.64,64.64,0,0,1,12.695,31.2a20.8,20.8,0,0,1-10.348-6.7C-.369,21.01-.585,4.5.969.508a.8.8,0,1,1,1.485.578C.977,4.881,1.459,20.763,3.6,23.514a19.508,19.508,0,0,0,9.579,6.167A63.387,63.387,0,0,0,23.3,31.745l1.558.232c9.188,1.4,18.12,4.508,26.758,7.517,8.819,3.072,17.937,6.25,27.259,7.559,17.345,2.438,37.638,4.205,56.635-1.152,7.031-1.983,15.786-4.992,17.318-6.953,3.513-4.494,4.342-12.687,2.911-17.519a.8.8,0,1,1,1.528-.453c1.537,5.191.757,13.913-3.184,18.955-2.164,2.767-13.407,6.17-18.141,7.5A103.924,103.924,0,0,1,107.694,51" transform="translate(0 55)"/>
    <path id="Fill_7" data-name="Fill 7" d="M3.133,19a.65.65,0,0,1-.305-.077c-1.327-.7-2.149-2.272-2.512-4.8A30.9,30.9,0,0,1,.367,4.972C.766,2.405,1.615.8,2.963.079a.692.692,0,0,1,.968.4.884.884,0,0,1-.348,1.1C2.692,2.059,2.108,3.263,1.8,5.262a29.035,29.035,0,0,0-.049,8.594c.28,1.944.832,3.109,1.69,3.562a.882.882,0,0,1,.353,1.1.727.727,0,0,1-.66.481" transform="translate(86 86)"/>
    <path id="Fill_9" data-name="Fill 9" d="M0,0C.075-.062.892.846,2.542,2.277a38.38,38.38,0,0,0,7.648,5.1A57.623,57.623,0,0,0,23,11.957c4.994,1.222,10.6,2.062,16.486,3.067a204.348,204.348,0,0,1,29.68,7.4c3.717,1.242,6.689,2.35,8.722,3.171A18.735,18.735,0,0,1,81,26.99a20.821,20.821,0,0,1-3.258-.98c-2.073-.693-5.077-1.682-8.81-2.822A243.369,243.369,0,0,0,39.3,16.136c-5.866-1-11.5-1.876-16.543-3.168a55.125,55.125,0,0,1-12.93-4.88A34.441,34.441,0,0,1,2.253,2.6c-.4-.378-.737-.742-1.027-1.056S.7.964.518.734C.152.279-.026.03,0,0" transform="translate(3 68)"/>
    <path id="Fill_11" data-name="Fill 11" d="M1.321,31a.824.824,0,0,1-.813-.647,26.469,26.469,0,0,1,3.141-18.53A27.666,27.666,0,0,1,17.874.052a.842.842,0,0,1,1.072.463.8.8,0,0,1-.478,1.036A26.375,26.375,0,0,0,5.089,12.619,24.888,24.888,0,0,0,2.136,30.043a.8.8,0,0,1-.654.942A.92.92,0,0,1,1.321,31" transform="translate(107 57)"/>
    <path id="Fill_13" data-name="Fill 13" d="M7.2,4a.908.908,0,0,1-.344-.067L5.42,3.349C3.759,2.675,2.042,1.978.435,1.28A.632.632,0,0,1,.087.37a.868.868,0,0,1,1.072-.3c1.589.688,3.3,1.382,4.948,2.052l1.441.586a.636.636,0,0,1,.373.9A.819.819,0,0,1,7.2,4" transform="translate(84 55)"/>
    <path id="Fill_15" data-name="Fill 15" d="M7.4,5a1.793,1.793,0,0,1-.639-.181l-.008.01L6.707,4.8C6.139,4.55,5.224,4.06,3.671,3.226c-.622-.333-3.166-1.7-3.315-1.8A.772.772,0,0,1,.129.352.793.793,0,0,1,1.2.117C1.51.3,6.586,3.035,7.417,3.444a.785.785,0,0,1,.235.111.8.8,0,0,1,.22,1.089C7.722,4.86,7.627,5,7.4,5" transform="translate(73 49)"/>
    <path id="Fill_17" data-name="Fill 17" d="M6.2,4a.825.825,0,0,1-.279-.048A46.228,46.228,0,0,1,.407,1.434.751.751,0,0,1,.1.389.818.818,0,0,1,1.189.1,45.336,45.336,0,0,0,6.481,2.516a.757.757,0,0,1,.468.986A.8.8,0,0,1,6.2,4" transform="translate(64 43)"/>
    <path id="Fill_19" data-name="Fill 19" d="M3,20a4.186,4.186,0,0,1-1.019-.111c-1.791-.441-2.06-1.318-1.97-1.976.5-3.671,3.329-6.479,5.826-8.957l.618-.616c1.563-1.566,3.3-3.165,5.164-4.753l.22-.186C13.572,1.926,15.205.533,17.452.064A3.069,3.069,0,0,1,18.079,0a3.409,3.409,0,0,1,1.4.306l.076.034A2.43,2.43,0,0,1,21,2.466,2.461,2.461,0,0,1,19.675,4.72,24.871,24.871,0,0,0,16.032,7.3l-.021.017-.362.289c-1.443,1.147-2.834,2.436-4.18,3.682l-.068.063-.091.084c-.553.512-1.123,1.041-1.689,1.551C7.85,14.586,5.947,16.5,5.257,18.6a2.01,2.01,0,0,1-1.8,1.386C3.3,20,3.15,20,3,20ZM18.079,1.561a1.432,1.432,0,0,0-.288.029c-1.833.383-3.245,1.586-4.879,2.978l0,0-.221.188C10.86,6.314,9.155,7.883,7.618,9.425L7,10.044c-2.311,2.293-4.93,4.892-5.377,8.031a1.93,1.93,0,0,0,.763.3,2.706,2.706,0,0,0,.631.063c.108,0,.221,0,.345-.012a.422.422,0,0,0,.365-.3c.8-2.441,2.878-4.544,4.8-6.279.6-.539,1.191-1.089,1.765-1.621C11.677,8.935,13.113,7.6,14.628,6.4l.36-.287a26.556,26.556,0,0,1,3.907-2.759.9.9,0,0,0,.494-.834.854.854,0,0,0-.523-.765L18.8,1.722A1.764,1.764,0,0,0,18.079,1.561Z" transform="translate(95 51)"/>
    <path id="Fill_21" data-name="Fill 21" d="M4.361,7A4.828,4.828,0,0,1,.8,5.353,2.964,2.964,0,0,1,.435,1.791,4,4,0,0,1,3.7,0a.651.651,0,0,1,.718.6.663.663,0,0,1-.6.719A2.74,2.74,0,0,0,1.58,2.459,1.672,1.672,0,0,0,1.807,4.5,3.294,3.294,0,0,0,5.125,5.545,2.213,2.213,0,0,0,6.635,3.17a.889.889,0,0,0-.195-.4.663.663,0,0,1,1.014-.855,2.216,2.216,0,0,1,.474.96A3.558,3.558,0,0,1,5.594,6.787,3.5,3.5,0,0,1,4.361,7" transform="translate(71 57)"/>
    <path id="Fill_23" data-name="Fill 23" d="M4.358,6A5.15,5.15,0,0,1,.795,4.564a2.339,2.339,0,0,1-.36-3.108A3.813,3.813,0,0,1,3.828.013a.607.607,0,0,1,.6.63.637.637,0,0,1-.721.523,2.4,2.4,0,0,0-2.126.873,1.322,1.322,0,0,0,.227,1.777,3.6,3.6,0,0,0,3.317.915c.924-.306,1.742-1.164,1.509-2.072a.582.582,0,0,1,.5-.691.67.67,0,0,1,.792.438c.4,1.579-.9,2.934-2.334,3.408A3.963,3.963,0,0,1,4.358,6" transform="translate(82 62)"/>
    <path id="Fill_25" data-name="Fill 25" d="M4.36,6A5.075,5.075,0,0,1,.8,4.522a2.456,2.456,0,0,1-.362-3.2A3.3,3.3,0,0,1,2.482.022.678.678,0,0,1,3.3.432a.591.591,0,0,1-.455.737,1.938,1.938,0,0,0-1.265.754,1.389,1.389,0,0,0,.227,1.829,3.534,3.534,0,0,0,3.318.941,1.987,1.987,0,0,0,1.51-2.132.774.774,0,0,0-.194-.355.555.555,0,0,1,.078-.84.713.713,0,0,1,.934.07,1.909,1.909,0,0,1,.475.862c.39,1.568-.88,3.014-2.335,3.508A3.844,3.844,0,0,1,4.36,6" transform="translate(93 66)"/>
    <path id="Fill_27" data-name="Fill 27" d="M4.417,7A4.882,4.882,0,0,1,.937,5.327a3.08,3.08,0,0,1-.608-3.56A3.823,3.823,0,0,1,4.227.041a.67.67,0,1,1-.175,1.329A2.532,2.532,0,0,0,1.51,2.4a1.851,1.851,0,0,0,.438,2.04,3.169,3.169,0,0,0,3.141,1.1,2.235,2.235,0,0,0,1.529-2.4A.932.932,0,0,0,6.577,3a.671.671,0,0,1,1.256-.473,2.4,2.4,0,0,1,.095.319A3.593,3.593,0,0,1,5.564,6.8,3.226,3.226,0,0,1,4.417,7" transform="translate(49 45)"/>
    <path id="Fill_29" data-name="Fill 29" d="M4.552,6A5.273,5.273,0,0,1,.559,4.182,2.285,2.285,0,0,1,.81.942,3.665,3.665,0,0,1,3.884.034.607.607,0,0,1,4.458.7a.663.663,0,0,1-.755.5,2.252,2.252,0,0,0-1.881.516A1.238,1.238,0,0,0,1.67,3.524a3.772,3.772,0,0,0,3.614,1.2,2,2,0,0,0,1.183-.93,1.484,1.484,0,0,0,.076-1.3.571.571,0,0,1,.4-.754.7.7,0,0,1,.86.351A2.52,2.52,0,0,1,7.68,4.3,3.309,3.309,0,0,1,5.725,5.835,4.041,4.041,0,0,1,4.552,6" transform="translate(61 51)"/>
    <path id="Fill_31" data-name="Fill 31" d="M.948,11a.824.824,0,0,1-.807-.705A12.34,12.34,0,0,1,2.622,1.05,2.424,2.424,0,0,1,5.4.131c.333.116.7.25,1.081.4a2.424,2.424,0,0,1,1.4,1.55,2.562,2.562,0,0,1-.3,2.151A6.425,6.425,0,0,0,6.277,8.673a.835.835,0,0,1-.647.981.82.82,0,0,1-.959-.66c-.4-2.115.62-4.26,1.551-5.686a.862.862,0,0,0,.1-.724.763.763,0,0,0-.446-.494c-.352-.143-.7-.268-1.005-.375a.8.8,0,0,0-.915.3c-1.974,2.864-2.632,5.263-2.2,8.019a.833.833,0,0,1-.679.957A.781.781,0,0,1,.948,11" transform="translate(97 45)"/>
    <path id="Fill_33" data-name="Fill 33" d="M2.733,15a3.029,3.029,0,0,1-1.519-.411,2.122,2.122,0,0,1-1.2-1.616c-.129-1.253,1.074-2.321,1.952-3.1.108-.1.209-.185.3-.269a35.042,35.042,0,0,1,7.5-5.121,31.92,31.92,0,0,1,8.6-3.151c.394-.071.89-.2,1.462-.343A32.458,32.458,0,0,1,25.127,0,.8.8,0,0,1,26,.738a.807.807,0,0,1-.727.877,30.532,30.532,0,0,0-5.059.945c-.6.153-1.124.286-1.573.366a30.75,30.75,0,0,0-8.146,3A33.453,33.453,0,0,0,3.342,10.8c-.1.089-.207.186-.321.288-.437.388-1.46,1.3-1.416,1.717.008.076.116.213.4.373a1.742,1.742,0,0,0,1.964-.256,11.042,11.042,0,0,0,1.153-1.017c.164-.157.323-.311.474-.449a18.926,18.926,0,0,1,4.5-3.063C13.325,6.78,17.743,4.73,20.413,4.133a.809.809,0,0,1,.346,1.581A53.633,53.633,0,0,0,10.8,9.846a17.354,17.354,0,0,0-4.125,2.8c-.146.133-.3.278-.45.426A12.214,12.214,0,0,1,4.883,14.25a3.741,3.741,0,0,1-2.15.75" transform="translate(84 52)"/>
    <path id="Fill_35" data-name="Fill 35" d="M2.827,16A3.047,3.047,0,0,1,.239,14.562a2.307,2.307,0,0,1,.649-2.727c.078-.088.154-.175.224-.262a27.089,27.089,0,0,1,3.058-3.2A30.952,30.952,0,0,1,11.1,3.692C15.39,1.578,21.981-.455,26.315.09a.815.815,0,0,1,.68.915.785.785,0,0,1-.86.722C22.1,1.227,15.85,3.168,11.749,5.188A29.451,29.451,0,0,0,5.166,9.639,25.438,25.438,0,0,0,2.29,12.646c-.084.1-.176.209-.27.316-.508.577-.5.661-.428.795a1.562,1.562,0,0,0,1.51.549,2.882,2.882,0,0,0,.544-.66,6.337,6.337,0,0,1,.425-.571,17.285,17.285,0,0,1,1.729-1.7A31.135,31.135,0,0,1,13.52,6.821a40.977,40.977,0,0,1,10.816-2.89.8.8,0,0,1,.841.749.811.811,0,0,1-.7.894A39.879,39.879,0,0,0,14.117,8.343a29.751,29.751,0,0,0-7.343,4.316A15.741,15.741,0,0,0,5.2,14.2a4.895,4.895,0,0,0-.307.419,3.206,3.206,0,0,1-1.191,1.205,2.139,2.139,0,0,1-.88.175" transform="translate(73 46)"/>
    <path id="Fill_37" data-name="Fill 37" d="M1.207,21a.773.773,0,0,1-.75-.6C-1.653,11.3,3.893,3.961,9.787.124a.765.765,0,0,1,1.019.168,41.031,41.031,0,0,0,7.823,6.331.783.783,0,0,1,.26,1.069.766.766,0,0,1-1.058.263A46.234,46.234,0,0,1,10.074,1.8C4.832,5.436.1,12.013,1.958,20.045A.773.773,0,0,1,1.207,21" transform="translate(44 23)"/>
    <path id="Fill_39" data-name="Fill 39" d="M.878,10a.761.761,0,0,1-.726-.692A15.236,15.236,0,0,1,1.014,1.5,2.51,2.51,0,0,1,4.43.277c.076.04.154.078.231.116A1.925,1.925,0,0,1,6,2.195a9.407,9.407,0,0,1-.268,1.955c-.065.31-.129.614-.171.9a10.111,10.111,0,0,0-.107,2.819.8.8,0,0,1-.61.925A.745.745,0,0,1,4,8.126,11.69,11.69,0,0,1,4.11,4.8c.048-.325.118-.667.191-1.014A8.162,8.162,0,0,0,4.531,2.2c-.042-.131-.313-.262-.459-.332-.1-.047-.192-.093-.285-.143a1.117,1.117,0,0,0-1.47.511,13.641,13.641,0,0,0-.712,6.834.8.8,0,0,1-.622.916A.66.66,0,0,1,.878,10" transform="translate(87 40)"/>
    <path id="Fill_41" data-name="Fill 41" d="M6.233,4a.74.74,0,0,1-.3-.064L.466,1.524A.8.8,0,0,1,.062.482.758.758,0,0,1,1.067.063L6.533,2.475a.805.805,0,0,1,.405,1.041A.767.767,0,0,1,6.233,4" transform="translate(104 48)"/>
    <path id="Fill_43" data-name="Fill 43" d="M8.363,5a1.544,1.544,0,0,1-.642-.172C3.384,2.771,1.378,1.854.459,1.446A.745.745,0,0,1,.073.439.807.807,0,0,1,1.124.07c.928.411,2.947,1.335,7.3,3.4l.217.1-.346.682h0L9,4.6a.688.688,0,0,1-.637.4" transform="translate(92 43)"/>
    <path id="Fill_45" data-name="Fill 45" d="M6.16,4a.82.82,0,0,1-.284-.05C4.4,3.417,2.987,2.761,1.739,2.183,1.314,1.986.9,1.793.5,1.612A.842.842,0,0,1,1.184.074c.408.183.828.378,1.261.579,1.275.591,2.594,1.2,4,1.712A.843.843,0,0,1,6.16,4" transform="translate(82 39)"/>
    <path id="Fill_47" data-name="Fill 47" d="M6.253,4a.724.724,0,0,1-.3-.066C4.8,3.4,4,3.058,3.219,2.726S1.617,2.042.446,1.5A.8.8,0,0,1,.063.468a.733.733,0,0,1,.984-.4C2.2.6,3,.942,3.781,1.274s1.6.684,2.773,1.225a.8.8,0,0,1,.383,1.033A.746.746,0,0,1,6.253,4" transform="translate(72 34)"/>
    <path id="Fill_49" data-name="Fill 49" d="M2.221,7A.778.778,0,0,1,1.5,6.5,23.268,23.268,0,0,1,0,.887.811.811,0,0,1,.721,0a.791.791,0,0,1,.835.76A21.742,21.742,0,0,0,2.937,5.85a.842.842,0,0,1-.409,1.083A.726.726,0,0,1,2.221,7" transform="translate(92 51)"/>
    <path id="Fill_51" data-name="Fill 51" d="M2.1,6a.886.886,0,0,1-.872-.6c-.137-.485-.37-1.349-.6-2.214S.163,1.466.027.986A.792.792,0,0,1,.682.024.911.911,0,0,1,1.771.6c.137.485.37,1.349.6,2.214s.463,1.717.6,2.2a.792.792,0,0,1-.655.962A1.023,1.023,0,0,1,2.1,6" transform="translate(87 52)"/>
    <path id="Fill_53" data-name="Fill 53" d="M3.1,14a3.566,3.566,0,0,1-1.523-.444C1.507,13.523-.094,12.717,0,11.6c.052-.581.566-1.029,1.287-1.6.109-.087.2-.159.26-.211,1-.923,2.019-1.8,3.034-2.6a40.782,40.782,0,0,1,6.334-4.16A27.1,27.1,0,0,1,19.853.135l.619-.12a.8.8,0,1,1,.306,1.562l-.62.122a25.5,25.5,0,0,0-8.5,2.741,39.209,39.209,0,0,0-6.084,4c-.982.776-1.972,1.624-2.941,2.519-.078.072-.2.174-.354.292-.134.106-.394.311-.57.476a2.808,2.808,0,0,0,.572.405c.639.318.825.283.855.273C8.714,7.656,17.873,3.882,24.015,2.387a.8.8,0,1,1,.377,1.547c-5.966,1.451-14.843,5.1-20.236,9.688A1.588,1.588,0,0,1,3.1,14" transform="translate(63 42)"/>
    <path id="Fill_55" data-name="Fill 55" d="M.758,9C.735,9,.712,9,.688,9A.786.786,0,0,1,0,8.132C.2,5.849.629,2.969,2.2.935A2.353,2.353,0,0,1,4.751.1,8.271,8.271,0,0,1,6.023.584c.424.2,1.352.867.814,2.672a.75.75,0,0,1-.948.521.8.8,0,0,1-.5-1c.073-.245.171-.667.005-.745a6.71,6.71,0,0,0-1.06-.4.9.9,0,0,0-.962.31C2.046,3.659,1.674,6.38,1.511,8.276A.773.773,0,0,1,.758,9" transform="translate(76 35)"/>
    <path id="Fill_57" data-name="Fill 57" d="M2.154,6a.851.851,0,0,1-.783-.478A17.613,17.613,0,0,1,.008.878.788.788,0,0,1,.733.008a.833.833,0,0,1,.954.661,16.127,16.127,0,0,0,1.25,4.264.751.751,0,0,1-.46,1.01A.917.917,0,0,1,2.154,6" transform="translate(81 45)"/>
    <path id="Fill_59" data-name="Fill 59" d="M1.048,5,.969,5C.393,4.968-.04,4.616,0,4.211A13.072,13.072,0,0,1,.831.841C.856.758.9.646.945.535A1.152,1.152,0,0,1,2.238.029c.556.11.879.517.722.907-.034.085-.07.171-.1.26a12.048,12.048,0,0,0-.772,3.124C2.05,4.706,1.591,5,1.048,5" transform="translate(81 37)"/>
    <path id="Fill_61" data-name="Fill 61" d="M2.627,12a2.75,2.75,0,0,1-1.616-.641C-.467,10.181.055,9.167.25,8.884a6.276,6.276,0,0,1,.929-1c.106-.1.211-.2.308-.291A43.7,43.7,0,0,1,7.811,3.834C14.953.634,18.36-.158,24.4.024a.783.783,0,0,1-.022,1.565h-.023c-5.752-.162-9.02.591-15.9,3.674A44.358,44.358,0,0,0,2.585,8.71c-.109.107-.226.215-.345.326a5.719,5.719,0,0,0-.659.677,1.683,1.683,0,0,0,.4.421,1.236,1.236,0,0,0,.647.3c5.675-4.2,14.957-7.624,22.517-8.3A.783.783,0,0,1,25.288,3.7c-7.3.649-16.261,3.948-21.784,8.023A1.446,1.446,0,0,1,2.627,12" transform="translate(51 38)"/>
    <path id="Fill_63" data-name="Fill 63" d="M.79,10a.8.8,0,0,1-.761-.777A15.18,15.18,0,0,1,2.124,1.055,2.061,2.061,0,0,1,4.164.017l.221.027A2.781,2.781,0,0,1,6.837,1.368c.363.736.064,1.6-.349,2.794A13.806,13.806,0,0,0,5.538,8.5a.831.831,0,0,1-.782.832.816.816,0,0,1-.747-.871A15.6,15.6,0,0,1,5.06,3.548a7.816,7.816,0,0,0,.409-1.405c-.193-.283-.773-.351-1.244-.406l-.239-.029A.592.592,0,0,0,3.4,2,13.4,13.4,0,0,0,1.553,9.074.83.83,0,0,1,.859,10c-.023,0-.046,0-.069,0" transform="translate(67 31)"/>
    <path id="Fill_65" data-name="Fill 65" d="M2.04,5a1,1,0,0,1-.9-.462A15.484,15.484,0,0,1,0,.713.87.87,0,0,1,.959,0h.01c.53,0,.956.33.951.728A15.851,15.851,0,0,0,2.936,4.021c.19.371-.058.789-.553.931A1.228,1.228,0,0,1,2.04,5" transform="translate(77 47)"/>
    <path id="Fill_67" data-name="Fill 67" d="M2.08,5a.943.943,0,0,1-.832-.452A7.771,7.771,0,0,1,.269,1.985C.206,1.707.132,1.381.023.965a.8.8,0,0,1,.7-.946.935.935,0,0,1,1.1.6c.113.434.191.774.257,1.064a6.444,6.444,0,0,0,.835,2.188.747.747,0,0,1-.436,1.054A1.05,1.05,0,0,1,2.08,5" transform="translate(70 42)"/>
    <path id="Fill_69" data-name="Fill 69" d="M3.234,3a.666.666,0,0,1-.3-.072L.466,1.707A.948.948,0,0,1,.061.541a.729.729,0,0,1,1-.469L3.535,1.294a.946.946,0,0,1,.4,1.166.771.771,0,0,1-.7.54" transform="translate(96 59)"/>
    <path id="Fill_71" data-name="Fill 71" d="M4.267,4a.562.562,0,0,1-.248-.058C3.582,3.732,2.7,3.205,1.845,2.7,1.32,2.383.811,2.078.447,1.874A1.114,1.114,0,0,1,.058.6c.158-.5.587-.729.96-.519S1.909.6,2.445.916c.79.471,1.685,1.006,2.07,1.19a1.086,1.086,0,0,1,.441,1.248A.777.777,0,0,1,4.267,4" transform="translate(91 44)"/>
    <path id="Fill_73" data-name="Fill 73" d="M5.269,4a.648.648,0,0,1-.3-.073C4.625,3.746,3.7,3.278,2.758,2.805,1.781,2.313.793,1.816.432,1.627A.913.913,0,0,1,.064.5.693.693,0,0,1,1.029.074c.358.187,1.339.68,2.31,1.17.945.476,1.88.947,2.229,1.128A.912.912,0,0,1,5.936,3.5a.733.733,0,0,1-.667.5" transform="translate(72 36)"/>
    <path id="Fill_75" data-name="Fill 75" d="M1.262,5a.741.741,0,0,1-.688-.5A18.012,18.012,0,0,1,.1,1.633C.063,1.325.032,1.069.01.92A.789.789,0,0,1,.621.01a.748.748,0,0,1,.847.657c.024.157.057.431.1.759a24.142,24.142,0,0,0,.383,2.49.813.813,0,0,1-.418,1.029A.691.691,0,0,1,1.262,5" transform="translate(67 42)"/>
    <path id="Fill_77" data-name="Fill 77" d="M6.43,8a.853.853,0,0,1-.289-.05C1.452,6.253-.453,2.992.09.649A.837.837,0,0,1,.551.08a.846.846,0,0,1,.736.007l1.5.744a57.491,57.491,0,0,0,5.652,2.6A.835.835,0,0,1,8.952,4.5a.844.844,0,0,1-1.075.512A57.792,57.792,0,0,1,2.029,2.328l-.21-.1c.426,1.362,1.923,3.074,4.9,4.151A.837.837,0,0,1,6.43,8" transform="translate(62 28)"/>
    <path id="Fill_79" data-name="Fill 79" d="M.058,8c-.108-.028-.077-.612.2-1.509A11.161,11.161,0,0,1,1.944,3.236,11.327,11.327,0,0,1,4.588.668c.787-.531,1.344-.739,1.4-.646.142.212-1.731,1.515-3.348,3.716C1,5.919.307,8.067.058,8" transform="translate(50 28)"/>
    <path id="Fill_81" data-name="Fill 81" d="M.047,3.988c-.211-.114.284-1.352,1.433-2.5S3.869-.161,3.988.045s-.818,1.009-1.869,2.07S.267,4.116.047,3.988" transform="translate(56 32)"/>
    <path id="Fill_83" data-name="Fill 83" d="M6.177,4a.759.759,0,0,1-.357-.09,25.57,25.57,0,0,0-3.4-1.436c-.607-.222-1.229-.451-1.886-.719A.934.934,0,0,1,.051.592.8.8,0,0,1,1.108.058c.639.26,1.243.481,1.834.7A26.856,26.856,0,0,1,6.535,2.279a.948.948,0,0,1,.383,1.21A.818.818,0,0,1,6.177,4" transform="translate(81 40)"/>
    <path id="Fill_85" data-name="Fill 85" d="M3.1,26a.473.473,0,0,1-.074-.005.8.8,0,0,1-.591-.907c.712-7.976-.245-17.6-2.381-23.95A.9.9,0,0,1,.412.063a.631.631,0,0,1,.873.445C3.5,7.091,4.5,17.041,3.761,25.268A.737.737,0,0,1,3.1,26" transform="translate(102 63)"/>
    <path id="Fill_87" data-name="Fill 87" d="M0,7.8c0-.134,2.241-.176,5.842-.433,1.8-.123,3.94-.331,6.307-.622C14.513,6.433,17.1,6.03,19.805,5.5s5.247-1.168,7.552-1.791c2.3-.64,4.358-1.27,6.071-1.848C36.858.711,38.949-.111,39,.012a5.76,5.76,0,0,1-1.4.752c-.919.44-2.278,1.012-3.978,1.661s-3.754,1.348-6.06,2.036c-2.311.67-4.876,1.321-7.6,1.871s-5.341.92-7.729,1.188c-2.39.251-4.55.4-6.365.444s-3.284.045-4.3-.008A5.68,5.68,0,0,1,0,7.8" transform="translate(112 75)"/>
    <path id="Fill_89" data-name="Fill 89" d="M59.524,32a.445.445,0,0,1-.071-.006C36.981,28.6,9.095,12.424.1.771A.479.479,0,0,1,.184.1.474.474,0,0,1,.852.185C9.739,11.7,37.335,27.687,59.594,31.049a.478.478,0,0,1-.07.951" transform="translate(39 51)"/>
    <path id="Fill_91" data-name="Fill 91" d="M2.557,1A.589.589,0,0,1,2.48.994Q1.422.848.355.68C.115.642-.04.461.009.274A.457.457,0,0,1,.532.006q1.056.167,2.1.311c.242.033.4.212.359.4A.427.427,0,0,1,2.557,1" transform="translate(95 79)"/>
    <path id="Fill_93" data-name="Fill 93" d="M3.573,2a.345.345,0,0,1-.1-.015C2.447,1.695,1.385,1.371.317,1.024a.541.541,0,0,1-.3-.637A.425.425,0,0,1,.538.018C1.6.363,2.65.683,3.669.972a.532.532,0,0,1,.32.624.454.454,0,0,1-.416.4" transform="translate(91 79)"/>
    <path id="Fill_95" data-name="Fill 95" d="M3.579,2a.4.4,0,0,1-.119-.019C2.433,1.649,1.367,1.286.291.9A.472.472,0,0,1,.021.318.414.414,0,0,1,.553.024C1.621.406,2.679.766,3.7,1.1a.469.469,0,0,1,.285.573.429.429,0,0,1-.4.331" transform="translate(85 77)"/>
    <path id="Fill_97" data-name="Fill 97" d="M3.534,2a.5.5,0,0,1-.156-.026Q1.838,1.444.3.875A.448.448,0,0,1,.031.292a.468.468,0,0,1,.6-.261Q2.159.593,3.69,1.122a.448.448,0,0,1,.282.577.464.464,0,0,1-.438.3" transform="translate(80 75)"/>
    <path id="Fill_99" data-name="Fill 99" d="M3.558,2a.491.491,0,0,1-.166-.03Q1.824,1.39.266.775A.392.392,0,0,1,.036.245.458.458,0,0,1,.617.033Q2.163.644,3.724,1.221a.393.393,0,0,1,.244.526A.444.444,0,0,1,3.558,2" transform="translate(75 73)"/>
    <path id="Fill_101" data-name="Fill 101" d="M2.625,2a.343.343,0,0,1-.154-.038Q1.336,1.389.214.8A.44.44,0,0,1,.036.239a.359.359,0,0,1,.5-.2Q1.651.63,2.78,1.2a.438.438,0,0,1,.187.552A.375.375,0,0,1,2.625,2" transform="translate(70 71)"/>
    <path id="Fill_103" data-name="Fill 103" d="M3.6,3a.349.349,0,0,1-.177-.051C2.351,2.293,1.27,1.613.213.926A.552.552,0,0,1,.046.262.365.365,0,0,1,.584.056c1.052.684,2.127,1.361,3.2,2.012a.55.55,0,0,1,.18.658A.4.4,0,0,1,3.6,3" transform="translate(66 68)"/>
    <path id="Fill_105" data-name="Fill 105" d="M3.513,2a.614.614,0,0,1-.233-.045Q1.743,1.325.245.681a.321.321,0,0,1-.18-.5A.582.582,0,0,1,.728.048q1.49.64,3.019,1.267c.236.1.323.318.194.5A.531.531,0,0,1,3.513,2" transform="translate(62 66)"/>
    <path id="Fill_107" data-name="Fill 107" d="M2.6,2a.415.415,0,0,1-.2-.053Q1.275,1.326.19.7A.363.363,0,0,1,.06.178.42.42,0,0,1,.614.056Q1.692.683,2.8,1.3a.362.362,0,0,1,.14.515A.407.407,0,0,1,2.6,2" transform="translate(58 64)"/>
    <path id="Fill_109" data-name="Fill 109" d="M3.522,3a.476.476,0,0,1-.26-.077Q1.7,1.906.207.876A.48.48,0,0,1,.748.084Q2.229,1.1,3.782,2.117a.483.483,0,0,1,.141.665.477.477,0,0,1-.4.218" transform="translate(53 61)"/>
    <path id="Fill_111" data-name="Fill 111" d="M2.591,3a.363.363,0,0,1-.24-.094Q1.225,1.9.16.9A.582.582,0,0,1,.084.2.361.361,0,0,1,.657.1Q1.712,1.1,2.831,2.092a.579.579,0,0,1,.091.7A.389.389,0,0,1,2.591,3" transform="translate(49 58)"/>
    <path id="Fill_113" data-name="Fill 113" d="M2.582,3a.383.383,0,0,1-.26-.1C1.57,2.21.838,1.519.146.841A.526.526,0,0,1,.1.167.382.382,0,0,1,.69.116C1.375.786,2.1,1.47,2.843,2.15a.524.524,0,0,1,.065.67A.4.4,0,0,1,2.582,3" transform="translate(46 55)"/>
    <path id="Fill_115" data-name="Fill 115" d="M2.583,3A.412.412,0,0,1,2.3,2.888C1.526,2.157.79,1.43.118.725a.434.434,0,0,1,.007-.6A.408.408,0,0,1,.715.129c.661.693,1.385,1.41,2.151,2.13a.435.435,0,0,1,.025.6A.41.41,0,0,1,2.583,3" transform="translate(42 52)"/>
    <path id="Fill_117" data-name="Fill 117" d="M1.584,2a.437.437,0,0,1-.313-.126C.854,1.447.456,1.02.089.6A.348.348,0,0,1,.158.08.45.45,0,0,1,.742.142C1.1.547,1.488.964,1.9,1.381a.348.348,0,0,1-.038.527A.447.447,0,0,1,1.584,2" transform="translate(40 49)"/>
    <path id="Fill_119" data-name="Fill 119" d="M.029,4.6a1.994,1.994,0,0,1,.358-1.44A5.9,5.9,0,0,1,3.649.776,17.708,17.708,0,0,1,9.575.008a28.77,28.77,0,0,1,7.184,1.211,62.606,62.606,0,0,1,6.8,2.492C25.6,4.57,27.422,5.37,28.967,6,32.05,7.273,34.032,7.858,34,7.984a4.479,4.479,0,0,1-1.445-.243c-.914-.224-2.221-.613-3.8-1.179s-3.439-1.306-5.492-2.123-4.31-1.7-6.738-2.4A30.263,30.263,0,0,0,9.546.794a18.462,18.462,0,0,0-5.708.556A5.938,5.938,0,0,0,.668,3.337,9,9,0,0,0,.029,4.6" transform="translate(9 28)"/>
    <path id="Fill_121" data-name="Fill 121" d="M.438,4H.407A.459.459,0,0,1,0,3.5C.063,2.576.1,1.553.124.459A.454.454,0,0,1,.561,0H.57A.456.456,0,0,1,1,.477C.98,1.588.938,2.627.874,3.565A.451.451,0,0,1,.438,4" transform="translate(101 83)"/>
    <path id="Fill_123" data-name="Fill 123" d="M.57,4a.4.4,0,0,1-.43-.356C.124,2.566.077,1.468,0,.381A.389.389,0,0,1,.4,0,.406.406,0,0,1,.859.339c.077,1.1.125,2.207.141,3.3A.4.4,0,0,1,.575,4Z" transform="translate(101 78)"/>
    <path id="Fill_125" data-name="Fill 125" d="M.661,4a.363.363,0,0,1-.338-.358C.236,2.522.13,1.448,0,.45A.389.389,0,0,1,.291,0,.353.353,0,0,1,.675.336C.8,1.349.912,2.437,1,3.572A.381.381,0,0,1,.691,4H.661" transform="translate(101 73)"/>
    <path id="Fill_127" data-name="Fill 127" d="M.68,3C.531,3,.4,2.855.367,2.645.257,1.888.138,1.186.012.558A.478.478,0,0,1,.234.016C.4-.049.58.088.628.323c.131.649.254,1.372.366,2.15a.456.456,0,0,1-.251.519A.235.235,0,0,1,.68,3" transform="translate(101 69)"/>
    <path id="Fill_129" data-name="Fill 129" d="M2.544,2a.46.46,0,0,1-.232-.061C1.685,1.58.989,1.205.242.826A.431.431,0,0,1,.053.234.463.463,0,0,1,.668.051c.759.386,1.47.768,2.109,1.134a.429.429,0,0,1,.159.6A.457.457,0,0,1,2.544,2" transform="translate(94 63)"/>
    <path id="Fill_131" data-name="Fill 131" d="M2.537,2a.449.449,0,0,1-.2-.05C1.628,1.586.932,1.243.273.931A.5.5,0,0,1,.041.288.45.45,0,0,1,.652.044C1.319.359,2.025.707,2.74,1.075a.5.5,0,0,1,.213.652A.461.461,0,0,1,2.537,2" transform="translate(91 62)"/>
    <path id="Fill_133" data-name="Fill 133" d="M2.548,2a.418.418,0,0,1-.174-.039q-1.055-.49-2.1-1A.525.525,0,0,1,.038.3a.435.435,0,0,1,.6-.26q1.041.5,2.089.991a.525.525,0,0,1,.243.657A.455.455,0,0,1,2.548,2" transform="translate(86 59)"/>
    <path id="Fill_135" data-name="Fill 135" d="M3.574,2A.474.474,0,0,1,3.4,1.967Q1.816,1.349.244.7a.351.351,0,0,1-.2-.492A.455.455,0,0,1,.607.035Q2.171.677,3.749,1.293a.352.352,0,0,1,.214.489A.435.435,0,0,1,3.574,2" transform="translate(82 57)"/>
    <path id="Fill_137" data-name="Fill 137" d="M2.563,2a.43.43,0,0,1-.2-.048Q1.3,1.4.236.84a.449.449,0,0,1-.187-.6A.433.433,0,0,1,.637.049Q1.7.609,2.761,1.158a.45.45,0,0,1,.192.6A.436.436,0,0,1,2.563,2" transform="translate(75 54)"/>
    <path id="Fill_139" data-name="Fill 139" d="M2.567,2a.43.43,0,0,1-.2-.05Q1.295,1.385.229.815A.433.433,0,0,1,.637.051Q1.7.621,2.769,1.183a.434.434,0,0,1-.2.817" transform="translate(70 52)"/>
    <path id="Fill_141" data-name="Fill 141" d="M2.572,2a.43.43,0,0,1-.2-.052L.222.792A.419.419,0,0,1,.053.22.43.43,0,0,1,.633.052L2.777,1.208a.419.419,0,0,1,.17.573A.429.429,0,0,1,2.572,2" transform="translate(63 48)"/>
    <path id="Fill_143" data-name="Fill 143" d="M3.539,2a.576.576,0,0,1-.221-.044L.24.663A.316.316,0,0,1,.056.184.538.538,0,0,1,.681.043l3.08,1.292a.317.317,0,0,1,.183.48.5.5,0,0,1-.4.184" transform="translate(59 46)"/>
    <path id="Fill_145" data-name="Fill 145" d="M2.546,1a.646.646,0,0,1-.16-.02A12.454,12.454,0,0,0,.393.62C.144.6-.03.44,0,.27A.455.455,0,0,1,.515,0,13.746,13.746,0,0,1,2.706.4c.235.061.353.24.264.4a.483.483,0,0,1-.425.2" transform="translate(54 43)"/>
    <path id="Fill_147" data-name="Fill 147" d="M.39,2a.384.384,0,0,1-.335-.2.427.427,0,0,1,.136-.567A12.082,12.082,0,0,1,2.485.022a.385.385,0,0,1,.494.259.421.421,0,0,1-.244.525A11.5,11.5,0,0,0,.589,1.942.366.366,0,0,1,.39,2" transform="translate(49 43)"/>
    <path id="Fill_149" data-name="Fill 149" d="M.387,2a.4.4,0,0,1-.366-.316A.491.491,0,0,1,.263,1.1,19.024,19.024,0,0,0,2.448.045a.362.362,0,0,1,.515.222.509.509,0,0,1-.186.619A19.943,19.943,0,0,1,.512,1.975.34.34,0,0,1,.387,2" transform="translate(45 45)"/>
    <path id="Fill_151" data-name="Fill 151" d="M.463,1A.448.448,0,0,1,.006.746C-.035.582.137.426.389.4,1.449.289,2.472.157,3.43.008a.509.509,0,0,1,.557.225c.059.162-.094.325-.343.364C2.664.748,1.619.883.537,1,.511,1,.487,1,.463,1" transform="translate(39 47)"/>
    <path id="Fill_153" data-name="Fill 153" d="M.454,1A.434.434,0,0,1,0,.607.428.428,0,0,1,.438.188c.854-.025,1.7-.072,2.522-.14L3.5,0A.442.442,0,0,1,4,.366.42.42,0,0,1,3.592.81L3.043.857C2.207.926,1.341.974.469,1Z" transform="translate(34 48)"/>
    <path id="Fill_155" data-name="Fill 155" d="M3.549,1H3.537C2.533.976,1.483.923.415.84A.43.43,0,0,1,0,.387.434.434,0,0,1,.489,0C1.54.084,2.574.137,3.56.161A.434.434,0,0,1,4,.591.437.437,0,0,1,3.549,1" transform="translate(29 48)"/>
    <path id="Fill_157" data-name="Fill 157" d="M3.577,1,3.524,1C2.5.9,1.433.781.351.639.121.609-.033.443.006.268A.419.419,0,0,1,.5.006C1.563.146,2.618.265,3.628.36c.232.022.4.183.368.359A.4.4,0,0,1,3.577,1" transform="translate(24 48)"/>
    <path id="Fill_159" data-name="Fill 159" d="M3.565,2a.4.4,0,0,1-.1-.013C2.409,1.7,1.344,1.366.3.985A.525.525,0,0,1,.02.353.427.427,0,0,1,.567.024c1.018.374,2.06.7,3.1.98a.512.512,0,0,1,.326.606A.454.454,0,0,1,3.565,2" transform="translate(19 46)"/>
    <path id="Fill_161" data-name="Fill 161" d="M3.52,2a.539.539,0,0,1-.174-.029C2.288,1.61,1.253,1.215.27.8A.4.4,0,0,1,.048.237.511.511,0,0,1,.69.043c.96.408,1.971.794,3,1.147a.4.4,0,0,1,.273.542A.484.484,0,0,1,3.52,2" transform="translate(15 44)"/>
    <path id="Fill_163" data-name="Fill 163" d="M2.573,2a.46.46,0,0,1-.217-.053C1.6,1.549.867,1.124.177.685A.352.352,0,0,1,.08.157a.463.463,0,0,1,.6-.086C1.344.5,2.056.911,2.791,1.3a.355.355,0,0,1,.149.518A.44.44,0,0,1,2.573,2" transform="translate(11 42)"/>
    <path id="Fill_165" data-name="Fill 165" d="M1.653,3a.3.3,0,0,1-.236-.136C.944,2.217.5,1.539.086.85A.693.693,0,0,1,.118.127a.277.277,0,0,1,.49.047c.395.664.825,1.316,1.28,1.94a.693.693,0,0,1,.018.723A.308.308,0,0,1,1.653,3" transform="translate(8 38)"/>
    <path id="Fill_167" data-name="Fill 167" d="M1.544,2a.506.506,0,0,1-.37-.146A16.282,16.282,0,0,1,.062.53.312.312,0,0,1,.227.048.534.534,0,0,1,.85.176,15.784,15.784,0,0,0,1.914,1.442a.3.3,0,0,1-.1.493A.55.55,0,0,1,1.544,2" transform="translate(5 36)"/>
    <path id="Fill_169" data-name="Fill 169" d="M.794,34a.8.8,0,0,1-.048-1.6C18.806,31.294,36.59,26.91,43.391,21.928a7.679,7.679,0,0,0-1.813-4.14,16.883,16.883,0,0,0-4.032-3.345c-5.813-3.686-13.434-6.013-20.8-8.263A136.237,136.237,0,0,1,3.173,1.533.8.8,0,0,1,3.8.063,135.178,135.178,0,0,0,17.2,4.652c7.471,2.28,15.2,4.639,21.19,8.44A18.306,18.306,0,0,1,42.8,16.771,9.068,9.068,0,0,1,45,22.3a.8.8,0,0,1-.308.642C37.925,28.2,19.484,32.852.843,34H.794" transform="translate(141 31)"/>
    <path id="Fill_171" data-name="Fill 171" d="M.848,26,.787,26A.821.821,0,0,1,0,25.137c.072-.961.2-1.941.326-2.977L.373,21.8a76.276,76.276,0,0,1,6-21.311A.863.863,0,0,1,7.484.065a.792.792,0,0,1,.449,1.057A74.694,74.694,0,0,0,2.055,21.993l-.045.358c-.128,1.017-.249,1.978-.317,2.9A.831.831,0,0,1,.848,26" transform="translate(35 4)"/>
    <path id="Fill_173" data-name="Fill 173" d="M25.684,21a34.358,34.358,0,0,1-10.329-1.508C8.325,17.284,3.545,13.882,1.147,9.378A8.684,8.684,0,0,1,0,5.474,5.163,5.163,0,0,1,1.593,1.5C3.478-.2,6.263-.052,8.5.065l.215.012a55.348,55.348,0,0,1,7.95,1.016A78.526,78.526,0,0,1,31.178,5.651l1,.417a54.008,54.008,0,0,0,5.394,2.026.775.775,0,0,1,.53.968.794.794,0,0,1-.986.521A55.618,55.618,0,0,1,31.563,7.5l-1-.415A76.91,76.91,0,0,0,16.351,2.616a53.726,53.726,0,0,0-7.717-.987l-.217-.012c-1.942-.1-4.357-.231-5.749,1.028a3.681,3.681,0,0,0-1.083,2.8A7.2,7.2,0,0,0,2.55,8.657c2.2,4.128,6.668,7.276,13.288,9.354a35.966,35.966,0,0,0,16.017.972c1.493-.218,3.005-.514,4.5-.881a26.317,26.317,0,0,0,5.988-2.651c1.224-.665,2.49-1.354,3.763-1.9a.8.8,0,0,1,.755.067,25.975,25.975,0,0,0,5.615,2.941.774.774,0,0,1,.482.992.8.8,0,0,1-1.01.474,26.6,26.6,0,0,1-5.6-2.877c-1.07.481-2.126,1.055-3.237,1.66a27.482,27.482,0,0,1-6.37,2.8c-1.54.379-3.1.686-4.648.911a44.528,44.528,0,0,1-6.4.479" transform="translate(41 2)"/>
    <g id="Group_177" data-name="Group 177" transform="translate(156 51)">
      <path id="Clip_176-2" data-name="Clip 176" d="M0,0H31.493V28.569H0Z" transform="translate(0.466 0.218)" fill="none"/>
      <g id="Group_177-2" data-name="Group 177" clip-path="url(#clip-path)">
        <path id="Fill_175" data-name="Fill 175" d="M.8,28.569a.806.806,0,0,1-.132-1.6,84.488,84.488,0,0,0,8.906-2c6.839-1.94,15.352-4.885,16.84-6.8,3.414-4.394,4.219-12.407,2.829-17.133A.8.8,0,1,1,30.776.576c1.5,5.09.737,13.642-3.1,18.584-2.111,2.717-13.058,6.051-17.666,7.358A85.686,85.686,0,0,1,.933,28.557a.787.787,0,0,1-.134.012" transform="translate(0.466 0.218)"/>
      </g>
    </g>
    <path id="Fill_178" data-name="Fill 178" d="M1.094,29a.8.8,0,0,1-.8-.681A26,26,0,0,1,3.457,11.459,26.319,26.319,0,0,1,16.9.052a.812.812,0,0,1,1.044.463.8.8,0,0,1-.466,1.034,25.036,25.036,0,0,0-12.62,10.7A24.409,24.409,0,0,0,1.893,28.079a.8.8,0,0,1-.678.912A.869.869,0,0,1,1.094,29" transform="translate(139 35)"/>
    <path id="Fill_180" data-name="Fill 180" d="M7.182,4a.938.938,0,0,1-.354-.068L5.365,3.339C3.727,2.676,2.033,1.992.446,1.307A.645.645,0,0,1,.089.377a.893.893,0,0,1,1.1-.3C2.756.751,4.44,1.432,6.069,2.091l1.467.594a.648.648,0,0,1,.382.923A.839.839,0,0,1,7.182,4" transform="translate(116 32)"/>
    <path id="Fill_182" data-name="Fill 182" d="M7.38,5a1.831,1.831,0,0,1-.654-.185l-.007.01-.042-.03c-.57-.248-1.481-.734-3.016-1.554C3.043,2.909.514,1.554.365,1.458A.786.786,0,0,1,.132.359a.815.815,0,0,1,1.1-.241C1.539.3,6.578,3,7.4,3.41a.8.8,0,0,1,.238.112.809.809,0,0,1,.225,1.111C7.715,4.856,7.616,5,7.38,5" transform="translate(105 26)"/>
    <path id="Fill_184" data-name="Fill 184" d="M6.183,4A.857.857,0,0,1,5.9,3.951,46.138,46.138,0,0,1,.417,1.462.764.764,0,0,1,.1.4.838.838,0,0,1,1.217.1,45.31,45.31,0,0,0,6.468,2.487a.772.772,0,0,1,.48,1.005A.817.817,0,0,1,6.183,4" transform="translate(96 21)"/>
    <path id="Fill_186" data-name="Fill 186" d="M2.883,19a4.029,4.029,0,0,1-.978-.107C.187,18.472-.071,17.629.014,17,.49,13.512,3.18,10.848,5.553,8.5l.006-.006.586-.581c1.505-1.505,3.11-2.979,4.907-4.5l.211-.179c1.645-1.4,3.2-2.72,5.338-3.165A2.946,2.946,0,0,1,17.2,0a3.268,3.268,0,0,1,1.337.292l.069.032A2.329,2.329,0,0,1,20,2.36a2.356,2.356,0,0,1-1.27,2.156,23.71,23.71,0,0,0-3.471,2.455l-.009.007-.342.272c-1.379,1.1-2.711,2.326-4,3.516l-.034.031c-.5.467-1.1,1.017-1.693,1.552C7.5,13.86,5.7,15.673,5.042,17.656a1.935,1.935,0,0,1-1.733,1.331C3.183,18.993,3.037,19,2.883,19ZM17.206,1.526a1.322,1.322,0,0,0-.273.028c-1.736.36-3.074,1.5-4.623,2.814l-.006,0-.211.18c-1.762,1.5-3.337,2.941-4.814,4.419l-.591.587,0,0c-2.188,2.166-4.667,4.621-5.1,7.578a1.93,1.93,0,0,0,.706.272,2.528,2.528,0,0,0,.6.059c.126,0,.245-.006.323-.01a.374.374,0,0,0,.323-.272c.766-2.319,2.739-4.314,4.568-5.961.552-.5,1.086-.989,1.677-1.536C11.1,8.477,12.459,7.219,13.906,6.07l.34-.271.014-.011a25.18,25.18,0,0,1,3.7-2.606.83.83,0,0,0,.457-.77.783.783,0,0,0-.483-.7L18.2.984l-.335.692A1.607,1.607,0,0,0,17.206,1.526Z" transform="translate(126 28)"/>
    <path id="Fill_188" data-name="Fill 188" d="M3.814,6A4.259,4.259,0,0,1,.7,4.592,2.5,2.5,0,0,1,.381,1.536,3.516,3.516,0,0,1,3.236,0a.587.587,0,0,1,.645.529.587.587,0,0,1-.54.633,2.382,2.382,0,0,0-1.931.957,1.385,1.385,0,0,0,.2,1.715,2.881,2.881,0,0,0,2.866.887,1.864,1.864,0,0,0,1.3-2,.735.735,0,0,0-.164-.33.575.575,0,0,1,.07-.822.6.6,0,0,1,.839.069,1.871,1.871,0,0,1,.417.827A3.042,3.042,0,0,1,4.894,5.817,3.115,3.115,0,0,1,3.814,6" transform="translate(104 35)"/>
    <path id="Fill_190" data-name="Fill 190" d="M3.815,6A4.228,4.228,0,0,1,.7,4.566a2.58,2.58,0,0,1-.316-3.11A3.174,3.174,0,0,1,3.353.013.594.594,0,1,1,3.244,1.2a1.964,1.964,0,0,0-1.835.858,1.428,1.428,0,0,0,.2,1.745,2.857,2.857,0,0,0,2.868.9,1.9,1.9,0,0,0,1.3-2.037.6.6,0,0,1,1.161-.26A3.1,3.1,0,0,1,4.894,5.814,3.079,3.079,0,0,1,3.815,6" transform="translate(115 39)"/>
    <path id="Fill_192" data-name="Fill 192" d="M3.815,6A4.178,4.178,0,0,1,.7,4.525a2.714,2.714,0,0,1-.316-3.2A2.862,2.862,0,0,1,2.173.024a.594.594,0,0,1,.736.419A.613.613,0,0,1,2.5,1.2,1.663,1.663,0,0,0,1.41,1.94a1.5,1.5,0,0,0,.2,1.8,2.809,2.809,0,0,0,2.867.93,1.955,1.955,0,0,0,1.3-2.1.781.781,0,0,0-.165-.346.622.622,0,0,1,.072-.861.584.584,0,0,1,.838.073,2.014,2.014,0,0,1,.417.865A3.2,3.2,0,0,1,4.894,5.809,3,3,0,0,1,3.815,6" transform="translate(125 43)"/>
    <path id="Fill_194" data-name="Fill 194" d="M3.863,6A4.3,4.3,0,0,1,.821,4.567,2.6,2.6,0,0,1,.289,1.514,3.378,3.378,0,0,1,3.7.034.592.592,0,0,1,4.219.7a.6.6,0,0,1-.676.508,2.2,2.2,0,0,0-2.193.87,1.537,1.537,0,0,0,.378,1.718,2.769,2.769,0,0,0,2.713.93A1.884,1.884,0,0,0,5.76,2.7a.8.8,0,0,0-.034-.113.587.587,0,0,1,.349-.761.606.606,0,0,1,.778.341,1.914,1.914,0,0,1,.084.275A3.075,3.075,0,0,1,4.868,5.825a2.889,2.889,0,0,1-1,.175" transform="translate(83 23)"/>
    <path id="Fill_196" data-name="Fill 196" d="M3.978,6a4.4,4.4,0,0,1-3.5-1.815A2.542,2.542,0,0,1,.7.943,2.96,2.96,0,0,1,3.4.034a.6.6,0,0,1-.163,1.195,1.766,1.766,0,0,0-1.622.505A1.332,1.332,0,0,0,1.481,3.51,3.035,3.035,0,0,0,4.609,4.7a1.789,1.789,0,0,0,1.02-.915,1.643,1.643,0,0,0,.065-1.276.6.6,0,0,1,1.133-.413A2.839,2.839,0,0,1,6.719,4.3,3,3,0,0,1,5.006,5.835,3.141,3.141,0,0,1,3.978,6" transform="translate(94 28)"/>
    <path id="Fill_198" data-name="Fill 198" d="M.968,11a.845.845,0,0,1-.827-.724,12.324,12.324,0,0,1,2.47-9.22A2.432,2.432,0,0,1,5.4.132c.333.116.7.249,1.077.4a2.431,2.431,0,0,1,1.41,1.558,2.579,2.579,0,0,1-.306,2.164,6.371,6.371,0,0,0-1.294,4.4.858.858,0,0,1-.663,1.007.843.843,0,0,1-.984-.679A8.145,8.145,0,0,1,6.186,3.3a.834.834,0,0,0,.1-.7.737.737,0,0,0-.427-.474c-.35-.142-.69-.267-1-.373a.766.766,0,0,0-.88.287C2.025,4.889,1.372,7.27,1.8,10.006a.856.856,0,0,1-.7.983A.8.8,0,0,1,.968,11" transform="translate(129 22)"/>
    <path id="Fill_200" data-name="Fill 200" d="M2.647,14a3.012,3.012,0,0,1-1.47-.386A1.989,1.989,0,0,1,.009,12.093c-.126-1.179,1.035-2.176,1.882-2.905.1-.088.2-.172.287-.25a33.77,33.77,0,0,1,7.2-4.767,31.274,31.274,0,0,1,8.259-2.933c.377-.066.85-.182,1.4-.318A31.966,31.966,0,0,1,24.136,0a.794.794,0,0,1,.861.7.782.782,0,0,1-.72.843,30.1,30.1,0,0,0-4.853.879c-.579.142-1.078.265-1.509.34A30.132,30.132,0,0,0,10.1,5.553a32.177,32.177,0,0,0-6.857,4.535c-.093.084-.2.173-.308.268-.417.358-1.391,1.2-1.351,1.577.007.066.124.193.369.328a1.7,1.7,0,0,0,1.858-.237,10.618,10.618,0,0,0,1.1-.943c.157-.147.31-.29.455-.418A18.232,18.232,0,0,1,9.7,7.809a55.96,55.96,0,0,1,9.911-3.966.8.8,0,0,1,.947.59.778.778,0,0,1-.6.927A52.318,52.318,0,0,0,10.4,9.2a16.647,16.647,0,0,0-3.953,2.606c-.14.124-.283.258-.431.4A11.686,11.686,0,0,1,4.724,13.3a3.689,3.689,0,0,1-2.077.7" transform="translate(115 29)"/>
    <path id="Fill_202" data-name="Fill 202" d="M2.848,15A3.119,3.119,0,0,1,.243,13.644a2.093,2.093,0,0,1,.652-2.578c.077-.081.153-.162.223-.242A26.143,26.143,0,0,1,4.172,7.832a31.131,31.131,0,0,1,6.92-4.38C15.38,1.475,21.964-.426,26.295.084a.795.795,0,1,1-.186,1.578C22.087,1.192,15.853,3.009,11.763,4.9A29.5,29.5,0,0,0,5.2,9.051,24.464,24.464,0,0,0,2.33,11.858c-.084.1-.176.2-.269.294-.5.528-.489.6-.424.715a1.586,1.586,0,0,0,1.477.5,2.763,2.763,0,0,0,.532-.609,5.99,5.99,0,0,1,.427-.536A16.844,16.844,0,0,1,5.8,10.635a31.608,31.608,0,0,1,7.711-4.259,43.167,43.167,0,0,1,10.8-2.7.806.806,0,0,1,.866.722.8.8,0,0,1-.725.862,41.951,41.951,0,0,0-10.33,2.585A30.213,30.213,0,0,0,6.8,11.872a15.308,15.308,0,0,0-1.564,1.439,4.41,4.41,0,0,0-.305.39,3.122,3.122,0,0,1-1.2,1.134A2.3,2.3,0,0,1,2.848,15" transform="translate(105 24)"/>
    <g id="Group_206" data-name="Group 206" transform="translate(77)">
      <path id="Clip_205-2" data-name="Clip 205" d="M0,0H18.355V21.21H0Z" transform="translate(0.556 0.19)" fill="none"/>
      <g id="Group_206-2" data-name="Group 206" clip-path="url(#clip-path-2)">
        <path id="Fill_204" data-name="Fill 204" d="M1.187,21.21a.776.776,0,0,1-.745-.624C-1.595,11.405,3.755,4,9.44.129A.74.74,0,0,1,10.454.3a39.928,39.928,0,0,0,7.532,6.375.835.835,0,0,1,.258,1.111.744.744,0,0,1-1.052.273,45.079,45.079,0,0,1-7.464-6.19C4.69,5.533.143,12.144,1.934,20.217a.812.812,0,0,1-.571.972.746.746,0,0,1-.175.021" transform="translate(0.556 0.189)"/>
      </g>
    </g>
    <path id="Fill_207" data-name="Fill 207" d="M.894,10a.78.78,0,0,1-.743-.71A15.225,15.225,0,0,1,1.008,1.5,2.51,2.51,0,0,1,4.429.278c.074.04.151.077.228.114A1.961,1.961,0,0,1,6,2.209a9.41,9.41,0,0,1-.266,1.949c-.064.307-.128.611-.169.9a10.037,10.037,0,0,0-.106,2.8.823.823,0,0,1-.626.949.764.764,0,0,1-.86-.69A11.658,11.658,0,0,1,4.079,4.8c.047-.323.117-.664.189-1.01A8.135,8.135,0,0,0,4.5,2.219C4.45,2.1,4.2,1.983,4.054,1.912c-.1-.046-.191-.092-.283-.141a1.083,1.083,0,0,0-1.428.5,13.578,13.578,0,0,0-.7,6.783A.822.822,0,0,1,1,9.991.674.674,0,0,1,.894,10" transform="translate(118 18)"/>
    <path id="Fill_209" data-name="Fill 209" d="M6.214,4a.76.76,0,0,1-.307-.065L.478,1.554A.819.819,0,0,1,.063.491.779.779,0,0,1,1.094.064L6.522,2.446a.818.818,0,0,1,.415,1.062A.785.785,0,0,1,6.214,4" transform="translate(135 25)"/>
    <path id="Fill_211" data-name="Fill 211" d="M8.347,5a1.58,1.58,0,0,1-.659-.177C3.376,2.789,1.384,1.88.471,1.477A.76.76,0,0,1,.075.449.83.83,0,0,1,1.154.072c.921.407,2.927,1.32,7.255,3.363l.223.105-.355.7h0L9,4.595A.705.705,0,0,1,8.347,5" transform="translate(123 20)"/>
    <path id="Fill_213" data-name="Fill 213" d="M5.263,4a.632.632,0,0,1-.249-.051C3.754,3.422,2.549,2.773,1.485,2.2c-.36-.194-.71-.382-1.05-.56A.92.92,0,0,1,.065.507.7.7,0,0,1,1.039.075c.344.18.7.371,1.065.567,1.086.585,2.211,1.19,3.408,1.692a.9.9,0,0,1,.444,1.1A.752.752,0,0,1,5.263,4" transform="translate(115 16)"/>
    <path id="Fill_215" data-name="Fill 215" d="M6.235,4a.746.746,0,0,1-.308-.067c-1.141-.525-1.939-.863-2.71-1.191S1.623,2.065.457,1.529A.812.812,0,0,1,.065.477.751.751,0,0,1,1.073.069C2.219.6,3.02.935,3.794,1.263s1.588.675,2.749,1.207a.813.813,0,0,1,.392,1.053.765.765,0,0,1-.7.476" transform="translate(105 12)"/>
    <path id="Fill_217" data-name="Fill 217" d="M2.209,6a.8.8,0,0,1-.727-.438A17.731,17.731,0,0,1,0,.779.747.747,0,0,1,.732,0,.764.764,0,0,1,1.58.671a16.534,16.534,0,0,0,1.356,4.32.7.7,0,0,1-.414.95A.841.841,0,0,1,2.209,6" transform="translate(123 28)"/>
    <path id="Fill_219" data-name="Fill 219" d="M2.089,6a.9.9,0,0,1-.882-.616C1.073,4.9.844,4.046.615,3.188S.16,1.486.027,1.008A.81.81,0,0,1,.69.025a.92.92,0,0,1,1.1.592c.135.481.363,1.338.592,2.2s.454,1.7.588,2.18a.81.81,0,0,1-.663.984A1.025,1.025,0,0,1,2.089,6" transform="translate(119 29)"/>
    <path id="Fill_221" data-name="Fill 221" d="M3.117,13a3.787,3.787,0,0,1-1.532-.413C1.517,12.556-.095,11.8,0,10.751c.052-.547.569-.964,1.3-1.5.108-.079.2-.145.258-.194C2.55,8.209,3.57,7.4,4.585,6.655A41.166,41.166,0,0,1,10.91,2.8,28.578,28.578,0,0,1,19.834.125L20.45.014a.821.821,0,0,1,.962.6.765.765,0,0,1-.648.892l-.617.111a26.891,26.891,0,0,0-8.477,2.534A39.542,39.542,0,0,0,5.6,7.848c-.983.721-1.969,1.5-2.933,2.33-.078.067-.205.162-.354.271-.129.094-.373.273-.547.422a2.787,2.787,0,0,0,.545.355c.619.286.8.26.834.251,5.561-4.39,14.705-7.884,20.838-9.267a.828.828,0,0,1,.99.559.759.759,0,0,1-.6.919C18.423,5.029,9.569,8.4,4.189,12.646A1.685,1.685,0,0,1,3.117,13Z" transform="translate(95 20)"/>
    <path id="Fill_223" data-name="Fill 223" d="M.776,9C.752,9,.729,9,.7,9A.806.806,0,0,1,0,8.109C.2,5.835.625,2.967,2.194.939A2.361,2.361,0,0,1,4.748.1,8.258,8.258,0,0,1,6.015.583c.427.2,1.361.874.822,2.688a.769.769,0,0,1-.972.535.826.826,0,0,1-.508-1.024c.056-.189.171-.638.019-.71a6.7,6.7,0,0,0-1.049-.4.867.867,0,0,0-.93.3c-1.319,1.7-1.687,4.4-1.849,6.287A.792.792,0,0,1,.776,9" transform="translate(109 13)"/>
    <path id="Fill_225" data-name="Fill 225" d="M2.142,6a.862.862,0,0,1-.794-.489A17.615,17.615,0,0,1,.008.9.805.805,0,0,1,.743.008a.848.848,0,0,1,.966.677A16.1,16.1,0,0,0,2.935,4.907.77.77,0,0,1,2.469,5.94.909.909,0,0,1,2.142,6" transform="translate(114 22)"/>
    <path id="Fill_227" data-name="Fill 227" d="M1.058,5,.979,5C.4,4.967-.04,4.607,0,4.192A13.1,13.1,0,0,1,.815.844C.837.769.878.662.92.556A1.165,1.165,0,0,1,2.225.028c.562.113.893.521.736.921-.036.093-.069.174-.095.257a12.118,12.118,0,0,0-.755,3.1c-.041.4-.5.7-1.053.7" transform="translate(113 15)"/>
    <path id="Fill_229" data-name="Fill 229" d="M2.648,11a2.914,2.914,0,0,1-1.629-.591C-.473,9.323.057,8.382.255,8.119a6,6,0,0,1,.928-.913c.106-.09.211-.178.307-.266A44.8,44.8,0,0,1,7.812,3.5C14.86.613,18.418-.142,24.377.021a.769.769,0,0,1,.782.758.758.758,0,0,1-.828.716c-5.734-.142-9,.539-15.862,3.352A45.4,45.4,0,0,0,2.623,7.99c-.109.1-.226.2-.345.3a5.764,5.764,0,0,0-.644.6,1.636,1.636,0,0,0,.389.365,1.405,1.405,0,0,0,.6.268c5.725-3.849,14.968-6.962,22.5-7.575a.789.789,0,0,1,.874.67.759.759,0,0,1-.731.8c-7.286.593-16.221,3.6-21.729,7.321a1.561,1.561,0,0,1-.889.26" transform="translate(85 16)"/>
    <path id="Fill_231" data-name="Fill 231" d="M.809,9a.785.785,0,0,1-.78-.717A12.586,12.586,0,0,1,2.113.956a2.134,2.134,0,0,1,2.05-.94L4.38.039a2.876,2.876,0,0,1,2.455,1.2c.366.669.068,1.446-.346,2.52a11.342,11.342,0,0,0-.941,3.878A.783.783,0,1,1,3.981,7.6,12.824,12.824,0,0,1,5.027,3.192a6.787,6.787,0,0,0,.4-1.242c-.191-.238-.756-.3-1.215-.347L3.98,1.578a.6.6,0,0,0-.562.249A11.064,11.064,0,0,0,1.591,8.144.786.786,0,0,1,.879,9C.856,9,.832,9,.809,9" transform="translate(100 9)"/>
    <path id="Fill_233" data-name="Fill 233" d="M2.029,5a1,1,0,0,1-.906-.473A15.068,15.068,0,0,1,0,.729.881.881,0,0,1,.97,0H.981a.873.873,0,0,1,.961.745A15.788,15.788,0,0,0,2.935,4c.192.38-.058.806-.559.952A1.234,1.234,0,0,1,2.029,5" transform="translate(109 25)"/>
    <path id="Fill_235" data-name="Fill 235" d="M2.069,5a.951.951,0,0,1-.842-.462A7.828,7.828,0,0,1,.265,2C.2,1.721.13,1.4.023.986a.814.814,0,0,1,.7-.967A.945.945,0,0,1,1.84.63c.112.431.188.768.253,1.055a6.386,6.386,0,0,0,.817,2.16.765.765,0,0,1-.441,1.077,1.054,1.054,0,0,1-.4.078" transform="translate(103 19)"/>
    <path id="Fill_237" data-name="Fill 237" d="M3.219,3a.683.683,0,0,1-.306-.073L.474,1.728A.955.955,0,0,1,.063.548.745.745,0,0,1,1.087.073l2.439,1.2a.955.955,0,0,1,.412,1.18A.785.785,0,0,1,3.219,3" transform="translate(127 36)"/>
    <path id="Fill_239" data-name="Fill 239" d="M4.251,4A.578.578,0,0,1,4,3.941c-.434-.206-1.308-.725-2.153-1.226C1.323,2.405.818,2.106.458,1.9a1.128,1.128,0,0,1-.4-1.3C.22.1.66-.135,1.041.079S1.925.59,2.458.907c.782.464,1.667.989,2.047,1.17a1.1,1.1,0,0,1,.451,1.268.793.793,0,0,1-.7.656" transform="translate(123 22)"/>
    <path id="Fill_241" data-name="Fill 241" d="M5.252,4a.667.667,0,0,1-.3-.075c-.351-.182-1.3-.659-2.253-1.135S.795,1.838.443,1.657A.925.925,0,0,1,.065.513.712.712,0,0,1,1.053.075C1.4.256,2.344.727,3.288,1.2S5.2,2.16,5.557,2.343a.927.927,0,0,1,.378,1.145A.75.75,0,0,1,5.252,4" transform="translate(104 14)"/>
    <path id="Fill_243" data-name="Fill 243" d="M1.256,5a.748.748,0,0,1-.693-.515A18.033,18.033,0,0,1,.1,1.648C.062,1.341.031,1.087.01.94A.8.8,0,0,1,.626.01.755.755,0,0,1,1.48.682c.024.156.057.428.1.754a24.015,24.015,0,0,0,.372,2.457.835.835,0,0,1-.421,1.051A.688.688,0,0,1,1.256,5" transform="translate(100 20)"/>
    <path id="Fill_245" data-name="Fill 245" d="M5.705,7a.79.79,0,0,1-.263-.045C1.286,5.475-.4,2.629.08.582A.754.754,0,0,1,.5.072a.785.785,0,0,1,.671.007L2.513.734A50.819,50.819,0,0,0,7.486,2.983a.747.747,0,0,1,.47.958.774.774,0,0,1-.981.459A51.447,51.447,0,0,1,1.824,2.077L1.671,2c.4,1.168,1.712,2.621,4.3,3.542a.746.746,0,0,1,.459.963A.767.767,0,0,1,5.705,7" transform="translate(94 6)"/>
    <path id="Fill_247" data-name="Fill 247" d="M.051,8c-.093-.029-.07-.614.158-1.513a12.065,12.065,0,0,1,1.4-3.258A10.437,10.437,0,0,1,3.818.661C4.476.131,4.941-.073,4.993.023c.121.218-1.434,1.524-2.778,3.723C.847,5.925.265,8.068.051,8" transform="translate(84 6)"/>
    <path id="Fill_249" data-name="Fill 249" d="M.05,3.988c-.217-.119.273-1.36,1.421-2.5S3.865-.165,3.987.048,3.178,1.067,2.129,2.125.276,4.119.05,3.988" transform="translate(90 9)"/>
    <path id="Fill_251" data-name="Fill 251" d="M6.157,4a.776.776,0,0,1-.366-.092A25.628,25.628,0,0,0,2.422,2.493C1.819,2.274,1.2,2.05.55,1.785A.948.948,0,0,1,.052.6.824.824,0,0,1,1.135.058c.633.256,1.232.474,1.818.687a26.686,26.686,0,0,1,3.571,1.5.96.96,0,0,1,.392,1.23A.839.839,0,0,1,6.157,4" transform="translate(113 18)"/>
    <path id="Fill_253" data-name="Fill 253" d="M3.267,22H3.233a.767.767,0,0,1-.649-.844C2.87,14.178,1.877,6.311.052,1.113A.862.862,0,0,1,.422.062.651.651,0,0,1,1.314.5c1.925,5.484,2.934,13.43,2.634,20.737A.745.745,0,0,1,3.267,22" transform="translate(133 41)"/>
    <path id="Fill_255" data-name="Fill 255" d="M0,7.789a56.982,56.982,0,0,1,5.691-.441c1.755-.124,3.839-.333,6.144-.624,2.3-.308,4.829-.712,7.46-1.243s5.112-1.166,7.357-1.788c2.24-.638,4.246-1.267,5.915-1.844C35.911.7,37.948-.114,38,.013a5.385,5.385,0,0,1-1.36.757c-.9.441-2.219,1.014-3.875,1.663s-3.657,1.349-5.9,2.037c-2.252.67-4.752,1.321-7.4,1.87s-5.205.919-7.532,1.186c-2.329.25-4.433.4-6.2.441s-3.2.042-4.188-.013A5.242,5.242,0,0,1,0,7.789" transform="translate(144 51)"/>
    <path id="Fill_257" data-name="Fill 257" d="M7.493,8a.507.507,0,0,1-.325-.118A47.823,47.823,0,0,1,.107.815.506.506,0,0,1,.908.2,46.791,46.791,0,0,0,7.819,7.107.506.506,0,0,1,7.493,8" transform="translate(71 28)"/>
    <path id="Fill_259" data-name="Fill 259" d="M2.547,1A.609.609,0,0,1,2.468.994Q1.421.852.363.687C.118.649-.041.465.009.278A.466.466,0,0,1,.543.007Q1.59.17,2.626.311c.247.033.411.213.367.4A.436.436,0,0,1,2.547,1" transform="translate(127 56)"/>
    <path id="Fill_261" data-name="Fill 261" d="M3.562,2a.391.391,0,0,1-.1-.014C2.443,1.7,1.388,1.382.325,1.04A.548.548,0,0,1,.015.392.438.438,0,0,1,.551.018c1.054.34,2.1.655,3.11.937a.541.541,0,0,1,.328.635A.464.464,0,0,1,3.562,2" transform="translate(122 55)"/>
    <path id="Fill_263" data-name="Fill 263" d="M3.568,2a.413.413,0,0,1-.122-.02Q1.875,1.477.3.915A.478.478,0,0,1,.021.323a.425.425,0,0,1,.545-.3Q2.13.579,3.69,1.08a.476.476,0,0,1,.292.583A.439.439,0,0,1,3.568,2" transform="translate(117 54)"/>
    <path id="Fill_265" data-name="Fill 265" d="M2.624,3a.31.31,0,0,1-.2-.081Q1.266,1.92.163.913a.612.612,0,0,1-.1-.7A.323.323,0,0,1,.589.088q1.093,1,2.24,1.991a.61.61,0,0,1,.11.694A.363.363,0,0,1,2.624,3" transform="translate(86 38)"/>
    <path id="Fill_267" data-name="Fill 267" d="M2.582,3a.372.372,0,0,1-.245-.1Q1.22,1.91.163.918A.594.594,0,0,1,.086.2.37.37,0,0,1,.672.106q1.046.983,2.155,1.967a.59.59,0,0,1,.093.715A.4.4,0,0,1,2.582,3" transform="translate(83 35)"/>
    <path id="Fill_269" data-name="Fill 269" d="M2.572,3a.392.392,0,0,1-.266-.107C1.574,2.227.848,1.542.15.859A.537.537,0,0,1,.1.171a.392.392,0,0,1,.6-.054C1.4.793,2.114,1.47,2.839,2.131a.535.535,0,0,1,.068.685A.409.409,0,0,1,2.572,3" transform="translate(79 33)"/>
    <path id="Fill_271" data-name="Fill 271" d="M2.574,3a.421.421,0,0,1-.288-.114C1.521,2.167.793,1.445.121.743A.445.445,0,0,1,.128.125a.418.418,0,0,1,.6.007c.66.692,1.377,1.4,2.131,2.11a.444.444,0,0,1,.026.617A.419.419,0,0,1,2.574,3" transform="translate(76 30)"/>
    <path id="Fill_273" data-name="Fill 273" d="M1.576,2a.443.443,0,0,1-.318-.129C.842,1.445.449,1.022.091.615A.353.353,0,0,1,.162.082.455.455,0,0,1,.756.145c.349.4.732.808,1.139,1.225a.354.354,0,0,1-.039.537A.455.455,0,0,1,1.576,2" transform="translate(73 27)"/>
    <path id="Fill_275" data-name="Fill 275" d="M.03,4.6A2.015,2.015,0,0,1,.374,3.161,5.742,5.742,0,0,1,3.541.778,16.712,16.712,0,0,1,9.3.007,27.175,27.175,0,0,1,16.27,1.216,59.628,59.628,0,0,1,22.87,3.7c1.983.859,3.749,1.659,5.249,2.286C31.11,7.266,33.032,7.853,33,7.983a19.147,19.147,0,0,1-5.1-1.411c-1.539-.558-3.338-1.3-5.331-2.117S18.388,2.761,16.031,2.06A28.652,28.652,0,0,0,9.266.817a17.5,17.5,0,0,0-5.537.551A5.753,5.753,0,0,0,.655,3.347,9.694,9.694,0,0,0,.03,4.6" transform="translate(43 6)"/>
    <path id="Fill_277" data-name="Fill 277" d="M.569,4a.405.405,0,0,1-.431-.365C.121,2.563.075,1.472,0,.393A.4.4,0,0,1,.406,0,.4.4,0,0,1,.863.35C.937,1.44.984,2.543,1,3.626A.4.4,0,0,1,.574,4Z" transform="translate(133 55)"/>
    <path id="Fill_279" data-name="Fill 279" d="M.657,4a.369.369,0,0,1-.341-.367C.231,2.514.126,1.446,0,.461A.4.4,0,0,1,.293,0,.358.358,0,0,1,.682.344c.125,1,.231,2.083.317,3.217A.39.39,0,0,1,.688,4H.657" transform="translate(132 49)"/>
    <path id="Fill_281" data-name="Fill 281" d="M.676,3C.525,3,.39,2.851.359,2.637.252,1.887.135,1.192.012.571A.49.49,0,0,1,.237.016c.171-.066.35.074.4.314C.763.973.883,1.689.994,2.461a.468.468,0,0,1-.254.53A.235.235,0,0,1,.676,3" transform="translate(132 46)"/>
    <path id="Fill_283" data-name="Fill 283" d="M2.534,2A.472.472,0,0,1,2.3,1.938C1.678,1.584.989,1.216.249.84a.436.436,0,0,1-.195-.6A.474.474,0,0,1,.682.052C1.437.434,2.14.81,2.772,1.171a.435.435,0,0,1,.162.611.468.468,0,0,1-.4.218" transform="translate(126 40)"/>
    <path id="Fill_285" data-name="Fill 285" d="M2.527,2a.46.46,0,0,1-.207-.051c-.7-.358-1.388-.7-2.04-1A.5.5,0,0,1,.042.292.466.466,0,0,1,.666.042C1.328.353,2.026.7,2.735,1.059a.507.507,0,0,1,.217.663A.472.472,0,0,1,2.527,2" transform="translate(123 38)"/>
    <path id="Fill_287" data-name="Fill 287" d="M2.537,2a.433.433,0,0,1-.178-.04Q1.315,1.478.278.979A.532.532,0,0,1,.038.308.446.446,0,0,1,.646.043q1.032.495,2.07.976a.53.53,0,0,1,.248.668A.464.464,0,0,1,2.537,2" transform="translate(118 36)"/>
    <path id="Fill_289" data-name="Fill 289" d="M3.564,2a.5.5,0,0,1-.178-.033Q1.811,1.355.25.718a.357.357,0,0,1-.208-.5.467.467,0,0,1,.58-.18q1.553.635,3.12,1.243a.359.359,0,0,1,.219.5.446.446,0,0,1-.4.222" transform="translate(114 34)"/>
    <path id="Fill_291" data-name="Fill 291" d="M2.553,2a.442.442,0,0,1-.2-.049Q1.294,1.407.241.854A.455.455,0,0,1,.05.245.445.445,0,0,1,.652.05Q1.7.6,2.755,1.143a.456.456,0,0,1,.2.609.447.447,0,0,1-.4.248" transform="translate(107 31)"/>
    <path id="Fill_293" data-name="Fill 293" d="M2.557,2a.438.438,0,0,1-.2-.051Q1.292,1.393.235.83A.441.441,0,1,1,.651.052Q1.706.611,2.763,1.168A.441.441,0,0,1,2.557,2" transform="translate(103 29)"/>
    <path id="Fill_295" data-name="Fill 295" d="M2.562,2a.443.443,0,0,1-.209-.053L.228.806A.424.424,0,0,1,.054.223.443.443,0,0,1,.647.052L2.772,1.193a.425.425,0,0,1,.174.583A.438.438,0,0,1,2.562,2" transform="translate(97 26)"/>
    <path id="Fill_297" data-name="Fill 297" d="M3.528,2A.592.592,0,0,1,3.3,1.955L.246.678A.323.323,0,0,1,.058.187.557.557,0,0,1,.7.043L3.755,1.322a.323.323,0,0,1,.187.49A.51.51,0,0,1,3.528,2" transform="translate(92 23)"/>
    <path id="Fill_299" data-name="Fill 299" d="M2.536,1A.671.671,0,0,1,2.372.98,12.5,12.5,0,0,0,.4.626C.148.6-.03.444,0,.272S.279-.021.526,0A13.768,13.768,0,0,1,2.7.391c.24.061.36.243.27.405a.494.494,0,0,1-.434.2" transform="translate(86 20)"/>
    <path id="Fill_301" data-name="Fill 301" d="M.4,2a.393.393,0,0,1-.343-.206A.434.434,0,0,1,.2,1.217,12.049,12.049,0,0,1,2.472.023a.393.393,0,0,1,.506.263A.427.427,0,0,1,2.73.82,11.374,11.374,0,0,0,.6,1.941.376.376,0,0,1,.4,2" transform="translate(83 21)"/>
    <path id="Fill_303" data-name="Fill 303" d="M.4,2a.409.409,0,0,1-.375-.321.5.5,0,0,1,.248-.6A18.912,18.912,0,0,0,2.435.046a.37.37,0,0,1,.527.226A.517.517,0,0,1,2.773.9,19.775,19.775,0,0,1,.524,1.975.35.35,0,0,1,.4,2" transform="translate(78 23)"/>
    <path id="Fill_305" data-name="Fill 305" d="M.473,1A.459.459,0,0,1,.006.743C-.036.577.14.42.4.393,1.452.283,2.467.154,3.416.008a.527.527,0,0,1,.571.227c.061.164-.1.329-.352.368C2.664.752,1.626.884.55,1,.524,1,.5,1,.473,1" transform="translate(73 25)"/>
    <path id="Fill_307" data-name="Fill 307" d="M.465,1A.442.442,0,0,1,0,.6.435.435,0,0,1,.449.182C1.293.158,2.135.112,2.952.046L3.488,0A.458.458,0,0,1,4,.367a.428.428,0,0,1-.416.449L3.05.86C2.2.928,1.342.975.481,1Z" transform="translate(68 26)"/>
    <path id="Fill_309" data-name="Fill 309" d="M3.538,1H3.525C2.508.976,1.464.924.424.844A.436.436,0,0,1,0,.389.44.44,0,0,1,.5,0c1.023.078,2.047.13,3.048.153A.441.441,0,0,1,4,.589.444.444,0,0,1,3.538,1" transform="translate(63 26)"/>
    <path id="Fill_311" data-name="Fill 311" d="M3.567,1,3.513,1C2.49.9,1.43.785.36.646.124.616-.034.447.006.271a.433.433,0,0,1,.5-.265c1.056.136,2.1.253,3.112.347.238.022.407.185.377.363A.41.41,0,0,1,3.567,1" transform="translate(59 25)"/>
    <path id="Fill_313" data-name="Fill 313" d="M3.554,2a.417.417,0,0,1-.1-.014C2.4,1.706,1.342,1.375.312,1A.53.53,0,0,1,.021.357.437.437,0,0,1,.581.024C1.589.39,2.624.714,3.654.988a.519.519,0,0,1,.334.615.464.464,0,0,1-.434.4" transform="translate(54 24)"/>
    <path id="Fill_315" data-name="Fill 315" d="M3.509,2a.555.555,0,0,1-.178-.03C2.283,1.616,1.256,1.225.276.811A.4.4,0,0,1,.05.24a.526.526,0,0,1,.657-.2c.955.4,1.958.785,2.981,1.131a.411.411,0,0,1,.279.552A.5.5,0,0,1,3.509,2" transform="translate(49 22)"/>
    <path id="Fill_317" data-name="Fill 317" d="M2.564,2a.471.471,0,0,1-.222-.054C1.584,1.548.857,1.129.182.7a.358.358,0,0,1-.1-.538A.473.473,0,0,1,.69.073C1.346.49,2.051.9,2.787,1.284a.361.361,0,0,1,.152.528A.448.448,0,0,1,2.564,2" transform="translate(46 19)"/>
    <path id="Fill_319" data-name="Fill 319" d="M1.646,2A.358.358,0,0,1,1.4,1.907,18.216,18.216,0,0,1,.088.578.345.345,0,0,1,.12.086a.359.359,0,0,1,.5.033A17.522,17.522,0,0,0,1.887,1.4a.344.344,0,0,1,.019.492A.357.357,0,0,1,1.646,2" transform="translate(42 17)"/>
    <path id="Fill_321" data-name="Fill 321" d="M1.536,2a.517.517,0,0,1-.376-.149A16.007,16.007,0,0,1,.063.54.319.319,0,0,1,.231.049.542.542,0,0,1,.865.18,15.3,15.3,0,0,0,1.912,1.43a.312.312,0,0,1-.1.5A.554.554,0,0,1,1.536,2" transform="translate(40 14)"/>
  </g>
</svg>
