<svg xmlns="http://www.w3.org/2000/svg" xmlns:xlink="http://www.w3.org/1999/xlink" width="311.709" height="205.668" viewBox="0 0 311.709 205.668">
  <defs>
    <clipPath id="clip-path">
      <path id="Clip_66" data-name="Clip 66" d="M0,0H21.813V162.7H0Z" transform="translate(0 0.235)" fill="none"/>
    </clipPath>
    <clipPath id="clip-path-2">
      <path id="Clip_107" data-name="Clip 107" d="M0,0H76.63V45.574H0Z" transform="translate(0.368 0.332)" fill="none"/>
    </clipPath>
    <clipPath id="clip-path-3">
      <path id="Clip_214" data-name="Clip 214" d="M0,0H29.652V55.746H0Z" transform="translate(0.057 0.212)" fill="none"/>
    </clipPath>
  </defs>
  <g id="Group_272" data-name="Group 272" transform="translate(0 -0.332)">
    <path id="Fill_1" data-name="Fill 1" d="M.019,2.988c-.136-.1.494-.671.974-1.475.5-.8.66-1.518.852-1.513.176-.006.313.8-.238,1.7S.132,3.084.019,2.988" transform="translate(91 40)"/>
    <path id="Fill_3" data-name="Fill 3" d="M.015,3.99C-.1,3.883.425,3.054.943,1.973S1.807-.041,1.95,0A3.726,3.726,0,0,1,1.4,2.24C.849,3.389.116,4.094.015,3.99" transform="translate(92 43)"/>
    <path id="Fill_5" data-name="Fill 5" d="M.008,3.986c-.1-.125.632-.949,1.436-2.034S2.848-.074,2.978,0A4.678,4.678,0,0,1,1.848,2.313C1.007,3.446.095,4.105.008,3.986" transform="translate(91 47)"/>
    <path id="Fill_7" data-name="Fill 7" d="M.007,2.988c-.081-.1.582-.771,1.4-1.587S2.887-.076,2.988.007,2.565.9,1.729,1.734.084,3.087.007,2.988" transform="translate(90 54)"/>
    <path id="Fill_9" data-name="Fill 9" d="M0,2.974c-.06-.144.634-.754,1.443-1.562S2.894-.1,2.989.011A4.076,4.076,0,0,1,1.725,1.863C.879,2.706.059,3.111,0,2.974" transform="translate(90 58)"/>
    <path id="Fill_11" data-name="Fill 11" d="M0,2.965C-.051,2.811.7,2.3,1.5,1.5S2.869-.087,2.983.008A3.493,3.493,0,0,1,1.806,1.946C.941,2.812.046,3.11,0,2.965" transform="translate(88 64)"/>
    <path id="Fill_13" data-name="Fill 13" d="M.005,2.976c-.072-.136.638-.734,1.443-1.541S2.869-.086,2.984.008,2.636,1,1.783,1.847.07,3.106.005,2.976" transform="translate(86 70)"/>
    <path id="Fill_15" data-name="Fill 15" d="M0,2.971c-.058-.135,1-.582,2.07-1.4S3.842-.071,3.98,0c.13.057-.382,1.083-1.551,1.95A4.072,4.072,0,0,1,0,2.971" transform="translate(84 75)"/>
    <path id="Fill_17" data-name="Fill 17" d="M.006,2.988c-.08-.1.633-.718,1.442-1.533S2.874-.064,2.985,0,2.634.91,1.79,1.754A3.986,3.986,0,0,1,.006,2.988" transform="translate(83 80)"/>
    <path id="Fill_19" data-name="Fill 19" d="M.009,3.989A8.548,8.548,0,0,1,1.4,1.915C2.218.829,2.863-.077,2.983.005A5.236,5.236,0,0,1,1.79,2.262C.957,3.382.1,4.1.009,3.989" transform="translate(83 86)"/>
    <path id="Fill_21" data-name="Fill 21" d="M.014,3.99c-.125-.107.624-.939,1.421-2.025S2.8-.054,2.964,0s-.178,1.12-1.02,2.254S.126,4.092.014,3.99" transform="translate(82 91)"/>
    <path id="Fill_23" data-name="Fill 23" d="M.018,3.992A6.687,6.687,0,0,1,.877,1.926C1.408.842,1.83-.055,1.964,0a4.278,4.278,0,0,1-.643,2.2C.775,3.329.127,4.086.018,3.992" transform="translate(83 96)"/>
    <path id="Fill_25" data-name="Fill 25" d="M.022,2.995C-.1,2.925.315,2.25.842,1.434S1.822-.043,1.962,0s-.1.8-.645,1.637S.142,3.062.022,2.995" transform="translate(84 101)"/>
    <path id="Fill_27" data-name="Fill 27" d="M.018,2.99C-.1,2.9.366,2.253.886,1.444S1.806-.045,1.954,0s-.036.839-.591,1.692S.128,3.08.018,2.99" transform="translate(85 105)"/>
    <path id="Fill_29" data-name="Fill 29" d="M.019,1.978c-.086-.11.128-.535.363-1.053S.81-.034.93,0,1.036.6.763,1.195.1,2.086.019,1.978" transform="translate(90 38)"/>
    <path id="Fill_31" data-name="Fill 31" d="M1.982,2.981C1.874,3.1,1.058,2.65.5,1.757S-.074.02.1,0s.467.686.972,1.475,1.036,1.381.912,1.5" transform="translate(63 38)"/>
    <path id="Fill_33" data-name="Fill 33" d="M1.991,2.979C1.922,3.1,1.113,2.7.539,1.8S-.069.014.069,0,.462.727.981,1.522s1.1,1.335,1.01,1.458" transform="translate(62 41)"/>
    <path id="Fill_35" data-name="Fill 35" d="M1.987,2.988c-.091.1-.913-.374-1.473-1.26S-.068.012.078,0,.485.707,1,1.508s1.092,1.381.983,1.48" transform="translate(61 45)"/>
    <path id="Fill_37" data-name="Fill 37" d="M2,2.98c-.026.053-.225,0-.5-.178a3.3,3.3,0,0,1-.919-.95A3.73,3.73,0,0,1,.046.588C-.024.238-.006.013.047,0c.119-.027.331.776.864,1.58S2.055,2.862,2,2.98" transform="translate(61 50)"/>
    <path id="Fill_39" data-name="Fill 39" d="M2,2.973c-.049.132-.731-.226-1.31-1.107A3.072,3.072,0,0,1,.028,0C.139-.058.47.707,1,1.5S2.055,2.835,2,2.973" transform="translate(61 55)"/>
    <path id="Fill_41" data-name="Fill 41" d="M2.992,2.98c-.081.12-1.008-.308-1.858-1.167S-.109.072.026.005.751.652,1.555,1.454s1.529,1.4,1.438,1.526" transform="translate(60 59)"/>
    <path id="Fill_43" data-name="Fill 43" d="M2.994,2.97c-.067.143-.964-.228-1.82-1.086S-.1.094.022.009.746.644,1.55,1.44,3.071,2.819,2.994,2.97" transform="translate(60 64)"/>
    <path id="Fill_45" data-name="Fill 45" d="M3,2.952c-.022.071-.286.073-.681-.061A3.648,3.648,0,0,1,.962,2.019,3.617,3.617,0,0,1,.1.671C-.027.282-.022.023.05,0,.211-.046.573.83,1.375,1.622,2.162,2.431,3.047,2.794,3,2.952" transform="translate(61 69)"/>
    <path id="Fill_47" data-name="Fill 47" d="M3,1.978a3.291,3.291,0,0,1-1.8-.708C.339.7-.1.066.018.006S.734.433,1.54.963,3.063,1.875,3,1.978" transform="translate(61 75)"/>
    <path id="Fill_49" data-name="Fill 49" d="M3,2.962c-.045.149-.972-.136-1.842-1.009S-.1.08.022.007C.15-.083.691.711,1.5,1.5S3.056,2.8,3,2.962" transform="translate(61 79)"/>
    <path id="Fill_51" data-name="Fill 51" d="M3,1.974a3.17,3.17,0,0,1-1.857-.681C.266.717-.106.057.026.005S.718.457,1.519.984s1.545.882,1.477.99" transform="translate(61 83)"/>
    <path id="Fill_53" data-name="Fill 53" d="M3,1.948c-.019.06-.257.077-.624,0a3.829,3.829,0,0,1-1.3-.544A3.033,3.033,0,0,1,.158.495C-.005.222-.034.031.035,0,.187-.054.65.53,1.447,1.046s1.591.771,1.552.9" transform="translate(62 88)"/>
    <path id="Fill_55" data-name="Fill 55" d="M2,1.949c-.014.058-.185.076-.446,0a2.212,2.212,0,0,1-.9-.559A2.42,2.42,0,0,1,.069.473C-.019.2-.015.021.039,0c.119-.041.382.54.909,1.055S2.029,1.821,2,1.949" transform="translate(62 93)"/>
    <path id="Fill_57" data-name="Fill 57" d="M1.99,2.983C1.914,3.1,1.333,2.6.778,1.758A3.532,3.532,0,0,1,.018.008C.12-.081.567.574,1.1,1.381s.967,1.482.886,1.6" transform="translate(62 97)"/>
    <path id="Fill_59" data-name="Fill 59" d="M1.99,2.986c-.079.107-.7-.39-1.254-1.239A3.2,3.2,0,0,1,.024.005C.134-.066.553.616,1.087,1.421s.987,1.454.9,1.564" transform="translate(62 100)"/>
    <path id="Fill_61" data-name="Fill 61" d="M1.985,2.987c-.1.106-.705-.417-1.258-1.261S-.091.076.028.006.594.59,1.127,1.4s.959,1.481.859,1.589" transform="translate(61 104)"/>
    <path id="Fill_63" data-name="Fill 63" d="M2,1.971c-.023.05-.2.04-.463-.062a2.666,2.666,0,0,1-.889-.6A2.5,2.5,0,0,1,.072.438C-.018.188-.017.02.038,0c.121-.038.4.5.931,1.027S2.045,1.861,2,1.971" transform="translate(61 108)"/>
    <g id="Group_67" data-name="Group 67" transform="translate(0 33)">
      <path id="Clip_66-2" data-name="Clip 66" d="M0,0H21.813V162.7H0Z" transform="translate(0 0.235)" fill="none"/>
      <g id="Group_67-2" data-name="Group 67" clip-path="url(#clip-path)">
        <path id="Fill_65" data-name="Fill 65" d="M4.257,162.7a.5.5,0,0,1-.271-.08c-2.384-1.547-2.5-5.819-2.577-8.646-.007-.253-.013-.491-.021-.713-.066-1.866-.049-3.847-.033-5.762.024-2.787.048-5.668-.177-8.333-.109-1.29-.228-2.586-.348-3.886a136.889,136.889,0,0,1-.821-14.6c.006-.39.01-.785.015-1.184a35.937,35.937,0,0,1,.557-7.238,13.908,13.908,0,0,0,.075-4.7c-.066-.657-.134-1.337-.171-2.084A15.656,15.656,0,0,1,.659,102.7a14.547,14.547,0,0,0,.168-2.64,31.984,31.984,0,0,1,.194-5.016c.284-2.769.79-5.544,1.28-8.228q.17-.93.336-1.859c.379-2.128,1.544-14.284,2.67-26.04C6.547,45.985,7.829,32.607,8.244,30.583c.054-.263.1-.543.142-.829a8.443,8.443,0,0,1,.535-2.164,2.337,2.337,0,0,1,.656-.788A1.194,1.194,0,0,0,10,26.3a3.473,3.473,0,0,0-.035-1.48,3.806,3.806,0,0,1,.074-2.109,2.639,2.639,0,0,1,1.135-1.145,2.347,2.347,0,0,0,.739-.625c.319-.516.055-1.268-.2-2l-.03-.085a4.013,4.013,0,0,1,.31-3.086c.114-.283.232-.576.328-.883,2.336-7.43,5.188-12.27,8.716-14.8a.5.5,0,0,1,.686.1.474.474,0,0,1-.106.672c-3.306,2.368-6.117,7.182-8.358,14.306-.108.342-.232.652-.353.952a3.133,3.133,0,0,0-.295,2.423l.03.084a3.229,3.229,0,0,1,.114,2.808,3.137,3.137,0,0,1-1.036.928,1.85,1.85,0,0,0-.768.7,3.008,3.008,0,0,0-.015,1.6,4.222,4.222,0,0,1,.009,1.891,2.034,2.034,0,0,1-.708.954,1.536,1.536,0,0,0-.414.462A7.784,7.784,0,0,0,9.357,29.9c-.047.3-.093.6-.15.873C8.8,32.747,7.523,46.1,6.286,59.012c-1.18,12.317-2.295,23.951-2.68,26.115q-.166.932-.337,1.863C2.783,89.656,2.28,92.413,2,95.145a31.141,31.141,0,0,0-.191,4.868,15.466,15.466,0,0,1-.174,2.808,14.676,14.676,0,0,0-.17,2.605c.036.724.1,1.393.168,2.038a14.855,14.855,0,0,1-.092,4.995A35.281,35.281,0,0,0,1,119.506c0,.4-.008.8-.014,1.189a136.083,136.083,0,0,0,.818,14.5c.12,1.3.24,2.6.348,3.894.229,2.708.2,5.611.18,8.419-.016,1.905-.033,3.876.033,5.721.008.224.015.465.021.72.067,2.468.179,6.6,2.138,7.87a.474.474,0,0,1,.138.666.493.493,0,0,1-.41.215" transform="translate(0 0.235)"/>
      </g>
    </g>
    <path id="Fill_68" data-name="Fill 68" d="M2.593,115a.5.5,0,0,1-.231-.056.476.476,0,0,1-.206-.651c1.112-2.056.662-5.745.333-8.437-.113-.926-.21-1.725-.236-2.357-.105-2.572-.32-5.159-.529-7.661-.309-3.711-.628-7.548-.591-11.394.027-2.791-.239-6.356-.5-9.8C.371,71.076.1,67.391.137,64.492c.008-.534.009-1.078.01-1.628a34.048,34.048,0,0,1,.5-7.018c.585-2.705.543-3.266-.445-6-.634-1.753.39-3.329,1.294-4.719a10.758,10.758,0,0,0,1.087-1.936,28.467,28.467,0,0,0,1.2-5.915,43.122,43.122,0,0,1,.74-4.4c.494-2.008.813-3.267,1.135-4.535.314-1.236.63-2.481,1.112-4.439.633-2.572,1.518-5.6,2.454-8.812C10.726,9.918,12.288,4.567,13.018.4a.494.494,0,0,1,.571-.394.483.483,0,0,1,.4.556c-.739,4.218-2.308,9.594-3.825,14.794-.933,3.2-1.815,6.22-2.443,8.773-.483,1.962-.8,3.208-1.114,4.446C6.29,29.842,5.971,31.1,5.477,33.1a42.434,42.434,0,0,0-.721,4.3,29.09,29.09,0,0,1-1.251,6.124,11.643,11.643,0,0,1-1.179,2.119c-.859,1.322-1.671,2.571-1.2,3.882,1.05,2.9,1.1,3.633.48,6.518a33.367,33.367,0,0,0-.474,6.821c0,.554,0,1.1-.01,1.64-.041,2.856.233,6.521.5,10.065.259,3.467.526,7.051.5,9.882-.037,3.8.281,7.618.588,11.307.209,2.512.425,5.109.531,7.7.024.594.119,1.376.23,2.281.344,2.819.816,6.679-.441,9a.5.5,0,0,1-.437.257" transform="translate(20 80)"/>
    <path id="Fill_70" data-name="Fill 70" d="M17.381,163a.469.469,0,0,1-.39-.209.486.486,0,0,1,.122-.669c2.114-1.478,1.817-5.265,1.6-8.03a15.824,15.824,0,0,1-.085-2.416c.239-2.42.343-4.831.444-7.164.084-1.943.171-3.951.335-5.975.5-6.191.719-12.588.628-18.5-.006-.393-.009-.791-.014-1.193a36.706,36.706,0,0,0-.515-7.049,15.446,15.446,0,0,1-.088-5c.062-.647.126-1.315.161-2.04a15.267,15.267,0,0,0-.163-2.608,16.09,16.09,0,0,1-.167-2.81,32.41,32.41,0,0,0-.184-4.872c-.27-2.733-.754-5.491-1.221-8.158q-.164-.934-.325-1.869c-.371-2.167-1.444-13.815-2.58-26.148-1.19-12.919-2.42-26.279-2.81-28.255-.055-.277-.1-.573-.145-.874a8.03,8.03,0,0,0-.444-1.92,1.519,1.519,0,0,0-.4-.462,2.031,2.031,0,0,1-.682-.955,4.391,4.391,0,0,1,.009-1.892,3.127,3.127,0,0,0-.014-1.6,1.81,1.81,0,0,0-.739-.7,3.062,3.062,0,0,1-1-.928,3.348,3.348,0,0,1,.109-2.81l.029-.084a3.247,3.247,0,0,0-.284-2.425c-.116-.3-.236-.61-.34-.953C6.277,7.947,3.571,3.387.193.869A.487.487,0,0,1,.091.2a.467.467,0,0,1,.66-.1C4.3,2.736,7.119,7.462,9.138,14.141c.093.307.206.6.316.883a4.16,4.16,0,0,1,.3,3.089l-.029.085c-.247.729-.5,1.483-.195,2a2.292,2.292,0,0,0,.711.626,2.593,2.593,0,0,1,1.092,1.146A3.955,3.955,0,0,1,11.4,24.08a3.619,3.619,0,0,0-.033,1.482,1.187,1.187,0,0,0,.4.5,2.32,2.32,0,0,1,.632.789,8.7,8.7,0,0,1,.514,2.165c.043.287.085.568.137.831.4,2.025,1.632,15.41,2.824,28.354,1.084,11.771,2.2,23.942,2.57,26.072q.16.933.324,1.865c.471,2.685.957,5.461,1.231,8.231a33.288,33.288,0,0,1,.187,5.02,15.135,15.135,0,0,0,.162,2.642,16.289,16.289,0,0,1,.169,2.771c-.036.748-.1,1.428-.165,2.086a14.484,14.484,0,0,0,.071,4.7,37.415,37.415,0,0,1,.536,7.242c0,.4.008.8.014,1.187.091,5.944-.127,12.374-.631,18.6-.163,2.006-.249,4.005-.333,5.939-.1,2.346-.207,4.771-.448,7.217a15.526,15.526,0,0,0,.087,2.243c.236,3,.559,7.106-2.006,8.9a.464.464,0,0,1-.267.085" transform="translate(130 34)"/>
    <path id="Fill_72" data-name="Fill 72" d="M11.65,12c-3.121,0-7.7-.267-11.415-2.577A.5.5,0,0,1,0,8.976c.015-.363.105-1.466.21-2.743l.01-.126C.4,4,.633,1.11.617.513A.506.506,0,0,1,.788.122.484.484,0,0,1,1.107,0a.478.478,0,0,1,.087.008,106.841,106.841,0,0,0,18.087,1.6c.409,0,.82,0,1.222-.008h.025a.468.468,0,0,1,.366.189.507.507,0,0,1,.094.428c-.1.41-.3,2.107-.478,3.6-.314,2.63-.549,4.535-.72,5.1a.493.493,0,0,1-.406.348c-.05.007-5.046.677-6.215.708C12.646,11.992,12.136,12,11.65,12ZM1.585,1.089C1.53,2.2,1.348,4.413,1.2,6.189c-.081.985-.165,2-.2,2.535C4.466,10.766,8.741,11,11.655,11c.468,0,.954-.007,1.486-.021.932-.025,4.658-.509,5.777-.656.168-.874.426-3.041.614-4.623l.011-.095c.148-1.24.277-2.311.379-3l-.185,0h-.491A107.917,107.917,0,0,1,1.585,1.089Z" transform="translate(128 194)"/>
    <path id="Fill_74" data-name="Fill 74" d="M8.666,12c-.275,0-.555,0-.832-.011-1.172-.032-6.166-.7-6.216-.709a.5.5,0,0,1-.406-.349c-.169-.56-.4-2.468-.719-5.1C.3,4.252.11,2.622.014,2.219A.511.511,0,0,1,.107,1.79.472.472,0,0,1,.477,1.6H.5c.4.005.8.008,1.21.008a106.811,106.811,0,0,0,18.1-1.6A.474.474,0,0,1,19.893,0a.484.484,0,0,1,.319.121.5.5,0,0,1,.17.392c-.015.6.222,3.485.4,5.593l.013.158c.1,1.266.193,2.36.209,2.72a.5.5,0,0,1-.312.487A31.06,31.06,0,0,1,8.666,12ZM1.078,2.606c.107.722.244,1.877.39,3.1.2,1.678.45,3.767.614,4.627,1.118.147,4.843.632,5.777.657.278.008.558.012.83.012A30.134,30.134,0,0,0,20,8.672c-.032-.452-.1-1.24-.2-2.481l-.017-.208c-.155-1.887-.314-3.839-.365-4.892a107.484,107.484,0,0,1-17.6,1.519Q1.444,2.609,1.078,2.606Z" transform="translate(3 193)"/>
    <path id="Fill_76" data-name="Fill 76" d="M11.724,115a.484.484,0,0,1-.474-.374l-.078-.334a17.624,17.624,0,0,1-.544-2.93,47.414,47.414,0,0,1,.491-5.03c.2-1.524.414-3.1.472-4.593.271-6.989.374-12.7.324-17.961-.027-2.808.236-6.365.49-9.8.26-3.515.528-7.149.488-9.982-.007-.534-.009-1.078-.01-1.628a33.37,33.37,0,0,0-.465-6.764c-.612-2.862-.559-3.587.472-6.466.466-1.3-.332-2.539-1.176-3.85a11.536,11.536,0,0,1-1.158-2.1A29.122,29.122,0,0,1,9.328,37.11a42.366,42.366,0,0,0-.709-4.265c-.485-1.992-.8-3.24-1.115-4.5-.308-1.226-.619-2.462-1.092-4.4-.647-2.654-1.606-5.817-2.621-9.165A132.98,132.98,0,0,1,.007.559.479.479,0,0,1,.4.007.485.485,0,0,1,.964.4,132.357,132.357,0,0,0,4.723,14.505C5.741,17.866,6.7,21.041,7.357,23.72c.473,1.94.783,3.173,1.091,4.4.317,1.26.631,2.509,1.117,4.5a42.957,42.957,0,0,1,.727,4.364,28.493,28.493,0,0,0,1.177,5.867,10.7,10.7,0,0,0,1.068,1.92c.888,1.379,1.894,2.943,1.271,4.681-.971,2.71-1.012,3.266-.437,5.95a34.058,34.058,0,0,1,.486,6.96c0,.546,0,1.087.01,1.616.04,2.875-.23,6.53-.491,10.065-.253,3.42-.514,6.957-.487,9.725.05,5.28-.053,11-.325,18.006-.059,1.537-.273,3.136-.479,4.681a46.678,46.678,0,0,0-.484,4.928,20.433,20.433,0,0,0,.519,2.691l.08.341a.478.478,0,0,1-.368.571.509.509,0,0,1-.106.011" transform="translate(117 80)"/>
    <path id="Fill_78" data-name="Fill 78" d="M57.524,175c-8.005,0-16.058-.261-23.97-.778-4.694-.306-18.712-2.029-23.284-3.6a1.9,1.9,0,0,1-1.252-1.916,24.494,24.494,0,0,1,.734-3.981c.164-.647.334-1.315.521-2.26a4.6,4.6,0,0,0-.375-2.279c-.1-.287-.191-.574-.27-.861a16.309,16.309,0,0,1,.042-6.691c.058-.4.115-.791.166-1.182l.2-1.539a117.847,117.847,0,0,1,1.916-11.729c.194-.831.395-1.662.6-2.493A75.2,75.2,0,0,0,14.7,124.173c.1-1.224.075-2.513.049-3.878-.058-3.176-.119-6.46,1.471-8.887a3.323,3.323,0,0,0,.242-3.316c-1.137-2.232-1.024-2.753-.5-4.064a14.389,14.389,0,0,0,.539-1.534,5.256,5.256,0,0,0-.413-3.544,12.166,12.166,0,0,1-.644-2.2,7.743,7.743,0,0,1,.539-3.577,7.412,7.412,0,0,0,.53-3.036c-.336-2.651-.634-7.116-.98-12.286-.637-9.534-1.431-21.4-2.81-25.757a.489.489,0,0,1-.022-.123C12.007,36.381,7.986,21.649.05,5.608a.479.479,0,0,1,.185-.624A95.017,95.017,0,0,1,9.065.464L9.946.047a.481.481,0,1,1,.415.867l-.881.417C5.762,3.092,3.634,4.1,1.112,5.581,8.968,21.57,12.96,36.292,13.665,51.867c1.4,4.513,2.195,16.379,2.833,25.921.345,5.155.642,9.606.975,12.229a8.21,8.21,0,0,1-.566,3.443,6.957,6.957,0,0,0-.508,3.129,11.426,11.426,0,0,0,.6,2.034,6.169,6.169,0,0,1,.435,4.135,15.2,15.2,0,0,1-.572,1.629c-.43,1.068-.533,1.322.461,3.272a4.282,4.282,0,0,1-.294,4.275c-1.427,2.18-1.37,5.314-1.314,8.345.024,1.328.049,2.7-.053,3.972a75.96,75.96,0,0,1-2.176,11.665c-.2.829-.4,1.657-.594,2.487a117.144,117.144,0,0,0-1.9,11.633l-.2,1.541c-.052.4-.11.795-.168,1.2a15.6,15.6,0,0,0-.065,6.3c.074.27.164.54.254.81a5.363,5.363,0,0,1,.407,2.767c-.192.97-.373,1.682-.532,2.31a23.716,23.716,0,0,0-.71,3.849.944.944,0,0,0,.607.9c4.421,1.518,18.509,3.253,23.033,3.549,8.6.561,17.366.82,26.054.769a254.7,254.7,0,0,0,25.562-1.06c2.821-.308,5.648-.833,8.383-1.341,1.913-.355,3.892-.723,5.859-1.014.391-.058.634-.156.724-.292.207-.315-.044-1.233-.361-2.4-.2-.726-.445-1.63-.673-2.7-.057-.268-.135-.536-.218-.82a4.417,4.417,0,0,1-.218-2.58,4.487,4.487,0,0,1,.691-1.263,3.256,3.256,0,0,0,.582-1.088c.9-4.064.018-8.07-.688-11.29a28.685,28.685,0,0,1-.641-3.556c-.273-3.4-.7-6.84-1.1-10.172s-.835-6.8-1.108-10.213c-.093-1.157-.1-2.338-.105-3.48a29.024,29.024,0,0,0-.361-5.362,18.494,18.494,0,0,0-.65-2.26,16.835,16.835,0,0,1-.74-2.725,7.132,7.132,0,0,1,.3-2.925,8.705,8.705,0,0,0,.329-1.86,4.3,4.3,0,0,0-.659-2.371,6.271,6.271,0,0,1-.773-2.157,4.915,4.915,0,0,1,.842-2.79,6.494,6.494,0,0,0,.72-1.726,8.228,8.228,0,0,0-.337-3.184,9.666,9.666,0,0,1-.38-3.391c.335-2.642.426-7.234.532-12.552.175-8.821.393-19.8,1.913-25.91,1.882-15.246,5.6-28.458,12.816-45.5a65.394,65.394,0,0,0-9.447-4.746.481.481,0,1,1,.365-.89,67.61,67.61,0,0,1,9.936,5.022.48.48,0,0,1,.2.6C103.673,23.195,99.931,36.422,98.047,51.7a.481.481,0,0,1-.011.057c-1.5,6-1.718,16.939-1.892,25.726-.106,5.345-.2,9.961-.539,12.653a8.833,8.833,0,0,0,.363,3.054,9.045,9.045,0,0,1,.348,3.563,7.227,7.227,0,0,1-.816,2.009,4.345,4.345,0,0,0-.742,2.214,5.33,5.33,0,0,0,.673,1.846,5.208,5.208,0,0,1,.768,2.842,9.563,9.563,0,0,1-.358,2.065,6.294,6.294,0,0,0-.285,2.545,15.818,15.818,0,0,0,.7,2.569,19.244,19.244,0,0,1,.681,2.38,29.712,29.712,0,0,1,.379,5.541c.006,1.124.012,2.287.1,3.409.272,3.4.7,6.841,1.1,10.173s.835,6.8,1.108,10.212a28.068,28.068,0,0,0,.622,3.428c.726,3.311,1.63,7.432.688,11.7a4.014,4.014,0,0,1-.732,1.431,3.705,3.705,0,0,0-.559.991,3.662,3.662,0,0,0,.22,2.035c.084.288.171.586.235.888.222,1.043.465,1.932.66,2.647.425,1.557.682,2.5.238,3.173a1.927,1.927,0,0,1-1.389.716c-1.95.289-3.919.655-5.824,1.008-2.752.511-5.6,1.04-8.454,1.351a255.439,255.439,0,0,1-25.661,1.066Q58.6,175,57.524,175" transform="translate(20 28)"/>
    <path id="Fill_80" data-name="Fill 80" d="M13,.879c-.008.18-2.927.156-6.519-.054S-.013.3,0,.12,2.932-.035,6.519.175,13.008.7,13,.879" transform="translate(48 81)"/>
    <path id="Fill_82" data-name="Fill 82" d="M18,.753c0,.238-4.033.317-9.007.178S-.008.485,0,.247,4.04-.071,9.007.069,18,.515,18,.753" transform="translate(65 82)"/>
    <path id="Fill_84" data-name="Fill 84" d="M25,.01a3.022,3.022,0,0,1-.869.45,24.308,24.308,0,0,1-2.545.894,36.733,36.733,0,0,1-3.94.883c-1.5.255-3.174.445-4.93.566-3.516.237-6.7.207-9,.172A23.242,23.242,0,0,1,0,2.79a23.3,23.3,0,0,1,3.716-.231c2.3-.072,5.469-.108,8.947-.343,1.738-.12,3.388-.292,4.874-.513s2.809-.49,3.912-.747C23.647.418,24.954-.078,25,.01" transform="translate(87 80)"/>
    <path id="Fill_86" data-name="Fill 86" d="M0,.9A8.4,8.4,0,0,1,2.48.472C4.017.311,6.143.164,8.492.081s4.475-.095,6.015-.069A8.608,8.608,0,0,1,17,.206a8.67,8.67,0,0,1-2.487.322C12.975.634,10.85.727,8.5.81L2.5.987A8.923,8.923,0,0,1,0,.9" transform="translate(65 85)"/>
    <path id="Fill_88" data-name="Fill 88" d="M0,3.988A14.875,14.875,0,0,1,2.964,2.9a65.306,65.306,0,0,1,7.39-1.752c2.917-.523,5.581-.83,7.511-.992A16.143,16.143,0,0,1,21,.037a20.243,20.243,0,0,1-3.1.5c-1.916.259-4.561.624-7.463,1.145S4.933,2.794,3.056,3.269A23.5,23.5,0,0,1,0,3.988" transform="translate(39 86)"/>
    <path id="Fill_90" data-name="Fill 90" d="M.007,15a15.129,15.129,0,0,1,1.555-2.785c.516-.836,1.14-1.826,1.842-2.919A25.519,25.519,0,0,1,5.948,5.879a21.077,21.077,0,0,1,6.08-4.732A9.286,9.286,0,0,1,15,.009c.042.1-1.08.563-2.744,1.554A24.415,24.415,0,0,0,6.442,6.329,29.524,29.524,0,0,0,3.91,9.644c-.728,1.073-1.392,2.034-1.958,2.836A15.06,15.06,0,0,1,.007,15" transform="translate(123 60)"/>
    <path id="Fill_92" data-name="Fill 92" d="M4,4.972c-.03.081-.482-.017-1.19-.242-.353-.113-.771-.257-1.231-.425-.231-.088-.465-.164-.736-.291a1.454,1.454,0,0,1-.747-.707A1.248,1.248,0,0,1,.171,2.2a2.226,2.226,0,0,1,.59-.672,3.74,3.74,0,0,1,.63-.388,5.618,5.618,0,0,0,.5-.295A1.677,1.677,0,0,0,2.454.287C2.547.12,2.576,0,2.621,0s.093.126.053.369A1.548,1.548,0,0,1,2.15,1.2a4.263,4.263,0,0,1-.509.393,4.133,4.133,0,0,0-.535.39C.772,2.275.48,2.72.642,3.046c.135.34.694.513,1.136.717s.85.386,1.184.551c.668.331,1.066.576,1.036.657" transform="translate(134 54)"/>
    <path id="Fill_94" data-name="Fill 94" d="M0,4.988c-.116-.129,1.957-2.027,5.079-3.423A20.174,20.174,0,0,1,9.206.208,4.081,4.081,0,0,1,11,.047c.039.2-2.615.776-5.636,2.153C2.333,3.552.128,5.155,0,4.988" transform="translate(129 64)"/>
    <path id="Fill_96" data-name="Fill 96" d="M12.994,15a15.063,15.063,0,0,1-1.944-2.171C9.9,11.453,8.28,9.58,6.485,7.509S3.112,3.529,1.911,2.2A17.97,17.97,0,0,1,0,0,9.739,9.739,0,0,1,2.263,1.878C3.565,3.136,5.215,5,7.005,7.077s3.366,4.006,4.426,5.46A10.67,10.67,0,0,1,12.994,15" transform="translate(15 55)"/>
    <path id="Fill_98" data-name="Fill 98" d="M0,5.819a5.813,5.813,0,0,1,1.9.224l.94.185a8.21,8.21,0,0,0,1.024.183c.329.01.48-.1.475-.334a1.059,1.059,0,0,0-.148-.44,3.685,3.685,0,0,0-.333-.483C1.778,2.412.215.105.367,0s1.961,2.04,4.04,4.783A2.3,2.3,0,0,1,5,6.067a.885.885,0,0,1-.4.758A1.221,1.221,0,0,1,3.827,7a3.2,3.2,0,0,1-.612-.116L2.7,6.739l-.92-.26A5.683,5.683,0,0,1,0,5.819" transform="translate(12 56)"/>
    <path id="Fill_100" data-name="Fill 100" d="M5.988,10c-.1.047-.459-.674-1.339-1.583A8.086,8.086,0,0,0,2.906,7.064a7.377,7.377,0,0,0-1.182-.546c-.216-.078-.455-.153-.7-.271a1.851,1.851,0,0,1-.7-.542A1.839,1.839,0,0,1,.1,4.06a3.589,3.589,0,0,1,.75-1.242A15.576,15.576,0,0,1,2.5,1.188,5.167,5.167,0,0,1,4.287.007c.06.076-.559.6-1.463,1.51-.45.457-.971,1.02-1.5,1.672a3.166,3.166,0,0,0-.6,1.048A1.261,1.261,0,0,0,.857,5.325a2.356,2.356,0,0,0,1.1.6,7.217,7.217,0,0,1,1.272.631A7.288,7.288,0,0,1,5,8.116,3.614,3.614,0,0,1,5.988,10" transform="translate(108 122)"/>
    <path id="Fill_102" data-name="Fill 102" d="M0,9.995A6.757,6.757,0,0,1,2.175,7.83,11.761,11.761,0,0,1,5.124,6.3c.586-.218,1.25-.35,1.847-.531A1.784,1.784,0,0,0,8.3,4.738a1.555,1.555,0,0,0-.579-1.519,4.428,4.428,0,0,0-1.618-.743A31.411,31.411,0,0,1,3.019,1.4,9.952,9.952,0,0,1,.332.012,20.223,20.223,0,0,1,3.176.944c.872.293,1.914.616,3.089.926A4.813,4.813,0,0,1,8.126,2.7a2.506,2.506,0,0,1,.708.95,1.931,1.931,0,0,1,.095,1.289,1.876,1.876,0,0,1-.3.591,2.16,2.16,0,0,1-.459.425,3.7,3.7,0,0,1-1.013.454c-.678.195-1.278.3-1.845.489A12.891,12.891,0,0,0,2.426,8.236C.873,9.207.081,10.077,0,9.995" transform="translate(40 120)"/>
    <path id="Fill_104" data-name="Fill 104" d="M20,1.985a22.82,22.82,0,0,1-2.915-.526A53.156,53.156,0,0,0,10.036.6a52.9,52.9,0,0,0-7.09.136A22.647,22.647,0,0,1,0,.967,12.135,12.135,0,0,1,2.91.349a38.669,38.669,0,0,1,14.242.725A12.328,12.328,0,0,1,20,1.985" transform="translate(42 129)"/>
    <g id="Group_108" data-name="Group 108" transform="translate(38)">
      <path id="Clip_107-2" data-name="Clip 107" d="M0,0H76.63V45.574H0Z" transform="translate(0.368 0.332)" fill="none"/>
      <g id="Group_108-2" data-name="Group 108" clip-path="url(#clip-path-2)">
        <path id="Fill_106" data-name="Fill 106" d="M38.248,45.574a20.005,20.005,0,0,1-3.551-.331.482.482,0,0,1-.393-.519,12.7,12.7,0,0,1,4.5-8.621A104.163,104.163,0,0,1,8.734,24.053C5.171,21.944.969,18.886.089,13.922-.636,9.838,3.283,5.909,4.5,4.8,8.006,1.62,12.488.138,18.605.138a79.769,79.769,0,0,1,8.349.584c.952.1,1.881.2,2.782.282,2.434.226,4.937.335,7.653.335,2.022,0,4.142-.06,6.482-.183,1.844-.1,3.753-.323,5.6-.54l.063-.007.116-.014A64.539,64.539,0,0,1,57.146,0h.22c3.4.018,9.813.664,14.517,4.79,2.683,2.352,5.311,6.416,4.642,10.767-.686,4.454-4.8,6.52-8.426,8.343l-.617.31-.045.022c-3.468,1.743-6.462,3.249-10.422,5.045-4.524,2.054-9.379,3.983-14.041,5.578a11.568,11.568,0,0,0-7.666,9.518,18.81,18.81,0,0,0,2.942.24,25.125,25.125,0,0,0,3.607-.3c2.284-1.818,6.436-3.075,10.2-4.064a.48.48,0,0,1,.585.342.479.479,0,0,1-.341.585c-3.727.981-7.821,2.219-9.937,3.963a.478.478,0,0,1-.236.1A26.74,26.74,0,0,1,38.248,45.574ZM18.5,1.083c-5.782,0-10.024,1.408-13.352,4.43C2.823,7.62.524,10.892,1.032,13.755c.812,4.578,4.8,7.468,8.189,9.474a103.112,103.112,0,0,0,30.521,12.1.436.436,0,0,1,.076.023,12.359,12.359,0,0,1,2.847-1.4c4.635-1.586,9.461-3.5,13.955-5.544,3.951-1.794,6.945-3.3,10.411-5.041l.021-.01.618-.311c3.588-1.8,7.3-3.668,7.908-7.632s-1.835-7.714-4.326-9.9C66.783,1.593,60.631.977,57.361.959h-.2a64.367,64.367,0,0,0-7.414.589l-.1.012-.025,0c-1.875.221-3.813.45-5.7.55-2.355.125-4.491.185-6.53.185-2.744,0-5.276-.111-7.743-.34-.914-.085-1.861-.185-2.777-.281h-.013A80.794,80.794,0,0,0,18.5,1.083Z" transform="translate(0.368 0.331)"/>
      </g>
    </g>
    <path id="Fill_109" data-name="Fill 109" d="M.488,34a.487.487,0,0,1-.473-.365.482.482,0,0,1,.354-.585c1.072-.266,2.18-.542,3.2-.814l1.454-.388c5.272-1.4,10.251-2.728,15.243-4.58l.284-.105c2.532-.937,4.719-1.746,6.238-4.03a13.274,13.274,0,0,0,2.218-7.949c-.273-5.45-3.272-8.114-6.744-11.2C21.153,3,20,1.977,18.888.814a.478.478,0,0,1,.018-.682A.493.493,0,0,1,19.6.15c1.09,1.135,2.224,2.143,3.321,3.118C26.4,6.362,29.69,9.285,29.983,15.136a14.238,14.238,0,0,1-2.377,8.526c-1.694,2.548-4.019,3.408-6.711,4.4l-.283.1c-5.036,1.868-10.037,3.2-15.332,4.608l-1.453.387c-1.031.275-2.143.552-3.219.819A.509.509,0,0,1,.488,34" transform="translate(93 7)"/>
    <path id="Fill_111" data-name="Fill 111" d="M33.518,36a.455.455,0,0,1-.085-.008c-3.211-.578-6.66-1.066-10-1.537-2.487-.352-4.835-.684-6.945-1.033a30.372,30.372,0,0,1-9.505-2.8A14.827,14.827,0,0,1,.33,22.02C-.978,16.944,1.9,12.089,3.736,9.646,5.716,7.008,11.1,2.354,13.693.117a.48.48,0,0,1,.68.053.488.488,0,0,1-.052.685c-2.564,2.215-7.9,6.824-9.816,9.378C2.777,12.535.058,17.1,1.265,21.775A13.762,13.762,0,0,0,7.441,29.76a29.539,29.539,0,0,0,9.207,2.7c2.1.347,4.441.678,6.922,1.029,3.345.473,6.8.961,10.032,1.543a.486.486,0,0,1-.084.965" transform="translate(29 5)"/>
    <path id="Fill_113" data-name="Fill 113" d="M8.539,4A.42.42,0,0,1,8.3,3.924C6.758,2.863,4.164,1.917.367,1.032A.523.523,0,0,1,.01.416.466.466,0,0,1,.554.011c3.9.909,6.591,1.9,8.225,3.022a.562.562,0,0,1,.154.716A.451.451,0,0,1,8.539,4" transform="translate(65 40)"/>
    <path id="Fill_115" data-name="Fill 115" d="M14.747,28a.469.469,0,0,1-.206-.048c-6.193-3.01-11.816-9.18-13.473-13.169C-.324,11.428-.747,6.712,2.244,3.538,4.615,1.024,9.435-.161,16.567.018L30.606.368C34.256.459,38.34.8,40.6,3.693c1.778,2.279,1.873,5.753.241,8.849C40.28,13.6,35.176,23.025,28.183,27.27a.473.473,0,0,1-.653-.165.486.486,0,0,1,.163-.662c5.5-3.34,10.323-10.594,12.3-14.355,1.191-2.26,1.607-5.547-.148-7.8-2-2.566-5.834-2.873-9.268-2.959L16.544.982C9.692.812,5.111,1.895,2.933,4.2.259,7.041.671,11.336,1.947,14.409c1.386,3.336,6.677,9.6,13.007,12.674a.485.485,0,0,1,.223.643.476.476,0,0,1-.43.274" transform="translate(56 7)"/>
    <path id="Fill_117" data-name="Fill 117" d="M4.5,17a.475.475,0,0,1-.436-.294.5.5,0,0,1,.246-.645c1.507-.677,3.283-1.629,3.651-3.009.449-1.686-.913-4.058-1.519-5A30.2,30.2,0,0,0,.182.876.5.5,0,0,1,.1.187.466.466,0,0,1,.77.1,31.18,31.18,0,0,1,7.234,7.511c.843,1.308,2.177,3.8,1.644,5.8C8.4,15.091,6.391,16.2,4.69,16.959A.468.468,0,0,1,4.5,17" transform="translate(96 10)"/>
    <path id="Fill_119" data-name="Fill 119" d="M4.065,18a.5.5,0,0,1-.209-.045C1.59,16.929-.463,13.984.092,11.235A13.182,13.182,0,0,1,3.971,4.9l.521-.532A37.754,37.754,0,0,1,9.2.1a.507.507,0,0,1,.7.092A.488.488,0,0,1,9.8.884a36.5,36.5,0,0,0-4.59,4.164l-.523.534a12.306,12.306,0,0,0-3.617,5.846,5.624,5.624,0,0,0,3.2,5.632.49.49,0,0,1,.246.653A.5.5,0,0,1,4.065,18" transform="translate(49 10)"/>
    <path id="Fill_121" data-name="Fill 121" d="M37.521,5a.507.507,0,0,1-.213-.047A45.214,45.214,0,0,0,.682,4.579a.494.494,0,0,1-.637-.213.432.432,0,0,1,.229-.592,46.245,46.245,0,0,1,37.46.382.431.431,0,0,1,.215.6A.484.484,0,0,1,37.521,5" transform="translate(58 17)"/>
    <path id="Fill_123" data-name="Fill 123" d="M.287,12A.277.277,0,0,1,.24,12,.292.292,0,0,1,0,11.659C.693,7.429,3.532,4.117,8.215,2.08,12.376.27,15.243-.033,19.716,0A.29.29,0,0,1,20,.3a.3.3,0,0,1-.288.291C15.317.551,12.507.85,8.439,2.619,3.945,4.574,1.224,7.733.569,11.755A.288.288,0,0,1,.287,12" transform="translate(42 8)"/>
    <path id="Fill_125" data-name="Fill 125" d="M12.11,15a.286.286,0,0,1-.258-.16.281.281,0,0,1,.134-.377c2.374-1.128,2.917-4.178,2.07-6.473-.8-2.169-2.911-3.488-4.827-4.554A28.849,28.849,0,0,0,.246.563.284.284,0,0,1,0,.243.289.289,0,0,1,.326,0,29.524,29.524,0,0,1,9.51,2.942c2,1.116,4.217,2.5,5.083,4.853.934,2.532.307,5.909-2.359,7.177A.291.291,0,0,1,12.11,15" transform="translate(94 9)"/>
    <path id="Fill_127" data-name="Fill 127" d="M4.035,75h0a1.9,1.9,0,0,1-1.7-1.529,62.646,62.646,0,0,1-1.474-27.3A125.881,125.881,0,0,1,4.408,32c2.089-7.153,4.249-14.55,4.2-22.089A12.387,12.387,0,0,0,5.638,1.562.8.8,0,0,1,5.452.917a.98.98,0,0,1,.4-.685A1.512,1.512,0,0,1,6.679,0H6.75A3.054,3.054,0,0,1,8.716.847C10.866,2.492,11.971,5.538,12,9.9c.05,7.677-2.128,15.139-4.234,22.356l0,.014A124.86,124.86,0,0,0,4.238,46.339,61.639,61.639,0,0,0,5.689,73.2a1.244,1.244,0,0,1-.141,1.039,1.842,1.842,0,0,1-1.342.751A1.351,1.351,0,0,1,4.035,75ZM6.724.965H6.7a.822.822,0,0,0-.286.046A13.4,13.4,0,0,1,9.541,9.9c.05,7.677-2.128,15.139-4.234,22.356l0,.014A125.054,125.054,0,0,0,1.779,46.339,61.639,61.639,0,0,0,3.231,73.2c.113.4.413.837.8.837a.521.521,0,0,0,.065,0,.97.97,0,0,0,.672-.325.262.262,0,0,0,.024-.237,62.646,62.646,0,0,1-1.475-27.3A125.655,125.655,0,0,1,6.868,31.991l0-.01c2.087-7.149,4.245-14.541,4.2-22.074-.026-4.044-1-6.831-2.906-8.285A2.2,2.2,0,0,0,6.724.965Z" transform="translate(82 36)"/>
    <path id="Fill_129" data-name="Fill 129" d="M1.814,4a1.993,1.993,0,0,1-.452-.049A1.774,1.774,0,0,1,.1,2.865,1.756,1.756,0,0,1,.242,1.412a2.666,2.666,0,0,1,1.05-1,3.158,3.158,0,0,1,1.751-.4,2.388,2.388,0,0,1,1.646.8,1.069,1.069,0,0,1,.048,1.448.418.418,0,0,1-.554.016.339.339,0,0,1-.018-.509c.1-.094.049-.338-.1-.521A1.572,1.572,0,0,0,2.978.726a2.307,2.307,0,0,0-1.278.3,1.926,1.926,0,0,0-.759.713,1.1,1.1,0,0,0-.1.9,1.019,1.019,0,0,0,.717.616,1.474,1.474,0,0,0,.845-.09.409.409,0,0,1,.522.174.348.348,0,0,1-.19.479A2.38,2.38,0,0,1,1.814,4" transform="translate(87 36)"/>
    <path id="Fill_131" data-name="Fill 131" d="M1.545,76a1.64,1.64,0,0,1-1.193-.5,1.429,1.429,0,0,1-.32-1.251,77.863,77.863,0,0,0,1.408-12.2c.152-3.562.132-7.412-.064-12.116-.131-3.15-.326-6.341-.515-9.427q-.085-1.39-.168-2.781C.46,33.813.239,29.63.193,25.535A103.484,103.484,0,0,1,.685,13.478c.217-2.055.511-4.055.873-5.944.193-1,.407-1.994.638-2.945.1-.426.227-.848.346-1.256L2.552,3.3l0-.013c.124-.421.252-.855.353-1.284l.021-.086A2.366,2.366,0,0,1,3.994.163L4.047.137A1.39,1.39,0,0,1,4.641,0a1.262,1.262,0,0,1,.7.213A1.587,1.587,0,0,1,6,1.622,16.092,16.092,0,0,1,5.612,3.94c-.081.378-.173.805-.229,1.144-.514,3.129-.87,5.866-1.191,9.15-.293,3.01-.434,6.227-.43,9.836,0,4.254.215,8.51.42,12.112.071,1.247.148,2.511.223,3.733l.032.529c.15,2.451.32,5.229.449,7.947.226,4.788.285,8.663.185,12.192A83.933,83.933,0,0,1,3.928,72.649c-.093.53-.184,1.019-.277,1.493a2.346,2.346,0,0,1-.639,1.171,2.109,2.109,0,0,1-1.251.674A1.721,1.721,0,0,1,1.545,76ZM4.64.957A.439.439,0,0,0,4.454,1c-.34.173-.454.561-.589,1.132l-.021.089c-.113.473-.255.956-.37,1.345-.131.444-.247.844-.344,1.244-.227.936-.438,1.911-.627,2.9-.357,1.863-.648,3.836-.862,5.865a102.4,102.4,0,0,0-.487,11.947c.046,4.089.266,8.253.5,12.143q.08,1.344.163,2.687v.013l0,.08c.189,3.089.384,6.283.516,9.445.2,4.731.217,8.606.064,12.2A78.793,78.793,0,0,1,.973,74.435a.483.483,0,0,0,.088.417.66.66,0,0,0,.483.193.737.737,0,0,0,.093-.006,1.148,1.148,0,0,0,.671-.376,1.426,1.426,0,0,0,.4-.7c.1-.487.188-.982.273-1.471a82.96,82.96,0,0,0,1.131-11.93c.1-3.525.041-7.376-.184-12.12-.129-2.715-.3-5.486-.449-7.932L3.448,40c-.075-1.232-.153-2.506-.224-3.761-.206-3.614-.418-7.886-.422-12.165,0-3.637.139-6.885.435-9.929.32-3.29.679-6.045,1.2-9.212.056-.341.14-.736.229-1.154l.007-.035a15.768,15.768,0,0,0,.366-2.166.642.642,0,0,0-.23-.567A.3.3,0,0,0,4.64.957Z" transform="translate(60 36)"/>
    <path id="Fill_133" data-name="Fill 133" d="M3.333,4a.387.387,0,0,1,0-.775.9.9,0,0,0,.912-.85,1.536,1.536,0,0,0-.488-1.107A1.926,1.926,0,0,0,2.682.8a1.858,1.858,0,0,0-1.3.255A1.49,1.49,0,0,0,.756,2.275a1.074,1.074,0,0,0,.362.775.394.394,0,0,1,.068.543.37.37,0,0,1-.53.069A1.842,1.842,0,0,1,0,2.3,2.267,2.267,0,0,1,.958.41,2.553,2.553,0,0,1,2.782.03,2.656,2.656,0,0,1,4.263.693,2.31,2.31,0,0,1,5,2.384,1.658,1.658,0,0,1,3.333,4" transform="translate(62 35)"/>
    <path id="Fill_135" data-name="Fill 135" d="M7.99,0c.167.1-1.752,3.385-3.946,7.52S.194,15.074.014,15s1.208-3.626,3.424-7.783S7.837-.092,7.99,0" transform="translate(118 65)"/>
    <path id="Fill_137" data-name="Fill 137" d="M6.975,17c-.2.045-1.05-4.026-2.987-8.717C2.08,3.578-.158.116.009,0a9.166,9.166,0,0,1,1.6,2.175A39.492,39.492,0,0,1,4.584,8.02a40.266,40.266,0,0,1,1.993,6.273A9.577,9.577,0,0,1,6.975,17" transform="translate(26 60)"/>
    <path id="Fill_139" data-name="Fill 139" d="M0,.016A4.755,4.755,0,0,1,1.838.64,19.882,19.882,0,0,1,5.773,3.1,19.623,19.623,0,0,1,9.012,6.374c.713.933,1.051,1.574.979,1.622C9.82,8.114,8.1,5.808,5.335,3.612,2.588,1.392-.086.2,0,.016" transform="translate(23 72)"/>
    <path id="Fill_141" data-name="Fill 141" d="M8.465,8.984A15.832,15.832,0,0,1,5.308,8.3c-.962-.253-2.1-.564-3.369-.92-.32-.1-.625-.162-1-.3a1.411,1.411,0,0,1-.891-.911A1.749,1.749,0,0,1,.213,4.938a2.959,2.959,0,0,1,.754-.96,6.529,6.529,0,0,1,2.065-1.05,16.282,16.282,0,0,1,2.05-.479,18.8,18.8,0,0,0,3.351-.765A5.854,5.854,0,0,0,10.378.574c.393-.353.568-.6.616-.571s-.062.311-.419.744A5.17,5.17,0,0,1,8.622,2.111a16.316,16.316,0,0,1-3.413.929,17.393,17.393,0,0,0-1.957.5,6.108,6.108,0,0,0-1.83.935A1.753,1.753,0,0,0,.7,6a.76.76,0,0,0,.5.5c.268.108.621.2.927.3,1.255.387,2.382.744,3.325,1.054a15.6,15.6,0,0,1,3.012,1.13" transform="translate(9 125)"/>
    <path id="Fill_143" data-name="Fill 143" d="M.015,10A6.119,6.119,0,0,1,.722,7.561a10.379,10.379,0,0,1,.584-1.139A12.7,12.7,0,0,1,2.1,5.194,14.36,14.36,0,0,1,4.368,2.776,13.841,13.841,0,0,1,7.117,1.02,11.876,11.876,0,0,1,8.431.5c.21-.066.411-.138.608-.189L9.611.187A5,5,0,0,1,12,.087,21.655,21.655,0,0,1,9.717.671l-.54.165c-.186.062-.374.145-.572.22-.4.138-.8.352-1.235.552a15.584,15.584,0,0,0-2.6,1.723A16.067,16.067,0,0,0,2.572,5.6c-.294.393-.581.762-.809,1.14-.25.362-.446.724-.63,1.053A22.608,22.608,0,0,1,.015,10" transform="translate(7 134)"/>
    <path id="Fill_145" data-name="Fill 145" d="M.667,16a3.463,3.463,0,0,1,.27-1.169A12.571,12.571,0,0,1,2.363,11.9,13.73,13.73,0,0,1,5.633,8.4,12.444,12.444,0,0,1,8.06,6.952c.446-.195.92-.381,1.379-.535A4.329,4.329,0,0,0,10.688,5.8a1.748,1.748,0,0,0,.654-1.059,1.056,1.056,0,0,0-.411-1.006,3.71,3.71,0,0,0-1.159-.561L8.5,2.75C6.843,2.2,5.342,1.73,4.078,1.342A34.051,34.051,0,0,1,0,.015,3.74,3.74,0,0,1,1.144.169C1.871.314,2.916.55,4.2.881S7,1.636,8.678,2.156l1.284.408a4.2,4.2,0,0,1,1.363.655,1.812,1.812,0,0,1,.541.7,1.721,1.721,0,0,1,.116.926,2.4,2.4,0,0,1-.9,1.5,4.848,4.848,0,0,1-1.432.71c-.474.158-.9.324-1.336.507A12.351,12.351,0,0,0,5.98,8.9a14.172,14.172,0,0,0-3.241,3.276,15.368,15.368,0,0,0-1.566,2.751A5.444,5.444,0,0,1,.667,16" transform="translate(134 125)"/>
    <path id="Fill_147" data-name="Fill 147" d="M10,.89C9.962,1,9.364.808,8.394.7A6.953,6.953,0,0,0,7.6.647c-.285-.019-.59.008-.91.02a10.124,10.124,0,0,0-2.046.392,10.34,10.34,0,0,0-1.926.849c-.278.172-.548.328-.782.506a8.036,8.036,0,0,0-.651.5C.511,3.564.091,4.065.008,3.993c-.062-.048.231-.675.969-1.466a6.3,6.3,0,0,1,.639-.6,7.78,7.78,0,0,1,.8-.6A8.783,8.783,0,0,1,4.461.363,8.513,8.513,0,0,1,6.663,0a7.372,7.372,0,0,1,.971.048,5.455,5.455,0,0,1,.834.145c1.01.25,1.561.62,1.531.7" transform="translate(138 135)"/>
    <path id="Fill_149" data-name="Fill 149" d="M45.659,5A246.753,246.753,0,0,1,.385.867.441.441,0,0,1,.01.35.483.483,0,0,1,.579.009,255.769,255.769,0,0,0,88.433.638a.481.481,0,0,1,.559.354.443.443,0,0,1-.39.507A269.379,269.379,0,0,1,45.659,5" transform="translate(31 190)"/>
    <path id="Fill_151" data-name="Fill 151" d="M0,33a6.557,6.557,0,0,1,.992-1.147c.335-.351.75-.775,1.2-1.295S3.2,29.48,3.748,28.8s1.18-1.379,1.794-2.193c.309-.4.648-.808.963-1.25L7.486,24a70.72,70.72,0,0,0,3.936-6.331A98.062,98.062,0,0,0,16.977,5.282C17.588,3.65,18.072,2.323,18.4,1.4A6.622,6.622,0,0,1,18.991,0a6.656,6.656,0,0,1-.339,1.486c-.255.945-.672,2.3-1.228,3.959A79.8,79.8,0,0,1,12.011,18a62.8,62.8,0,0,1-4.023,6.368L6.974,25.726c-.326.441-.678.841-1,1.242-.64.806-1.289,1.51-1.873,2.159s-1.153,1.2-1.635,1.695-.927.9-1.291,1.219A6.491,6.491,0,0,1,0,33" transform="translate(40 135)"/>
    <path id="Fill_153" data-name="Fill 153" d="M76.288,59a.5.5,0,0,1-.1-.01.478.478,0,0,1-.37-.566c.611-2.874-.172-12.884-.69-19.508-.2-2.613-.368-4.706-.4-5.771C66.244,22.823,60.033,11.723,56.739,1.008,43.032,2.937,33.99,2.935,20,1A104.5,104.5,0,0,1,2.275,33.145c-.034,1.065-.2,3.158-.4,5.771-.518,6.624-1.3,16.634-.69,19.508a.48.48,0,0,1-.939.2C-.4,55.613.363,45.92.916,38.843c.215-2.742.384-4.908.4-5.883a.475.475,0,0,1,.109-.292A103.559,103.559,0,0,0,19.222.325.48.48,0,0,1,19.743,0C33.991,2,43.047,2,57.011.005a.481.481,0,0,1,.527.336c3.239,10.76,9.475,21.938,18.033,32.326a.477.477,0,0,1,.109.292c.02.976.19,3.142.4,5.883.553,7.077,1.311,16.77.673,19.779a.48.48,0,0,1-.469.378" transform="translate(37 133)"/>
    <path id="Fill_155" data-name="Fill 155" d="M19,33a6.439,6.439,0,0,1-1.145-.976c-.353-.331-.788-.734-1.261-1.237s-1.037-1.049-1.6-1.709-1.216-1.357-1.849-2.164c-.32-.4-.661-.806-.992-1.24l-1.008-1.352a65.179,65.179,0,0,1-4.046-6.338C5.8,15.643,4.712,13.335,3.8,11.2L3.15,9.639c-.206-.509-.39-1.01-.576-1.491-.376-.96-.683-1.871-.974-2.7C1.036,3.79.613,2.435.354,1.488A6.738,6.738,0,0,1,.009,0,6.72,6.72,0,0,1,.6,1.4c.334.919.823,2.246,1.44,3.878.318.813.649,1.709,1.045,2.654.2.474.389.967.6,1.469l.67,1.543c.937,2.1,2.031,4.38,3.312,6.7a73.882,73.882,0,0,0,3.962,6.3l.976,1.357c.321.437.65.846.958,1.25.609.815,1.227,1.53,1.773,2.2S16.416,30,16.86,30.521s.851.953,1.175,1.312A6.6,6.6,0,0,1,19,33" transform="translate(92 136)"/>
    <path id="Fill_157" data-name="Fill 157" d="M73,.386a2.871,2.871,0,0,1-.6.406,12.548,12.548,0,0,1-1.932.878,19.738,19.738,0,0,1-3.3.849c-1.314.235-2.829.394-4.5.528-6.673.546-15.931,1.028-26.164.943S17.025,3.317,10.36,2.637A44.457,44.457,0,0,1,2.569,1.222,10.428,10.428,0,0,1,.592.424,2.548,2.548,0,0,1,0,0,4.294,4.294,0,0,1,.66.319,12.853,12.853,0,0,0,2.651,1a50.114,50.114,0,0,0,7.765,1.216c6.651.57,15.888,1.1,26.094,1.175s19.446-.329,26.118-.766c1.667-.107,3.168-.235,4.469-.435a21.251,21.251,0,0,0,3.275-.737A27.8,27.8,0,0,0,73,.386" transform="translate(39 188)"/>
    <path id="Fill_159" data-name="Fill 159" d="M86,.974a4.031,4.031,0,0,1-.857.22c-.565.12-1.4.286-2.479.492l-1.795.338-2.143.347c-1.539.238-3.289.539-5.235.772l-3.052.393c-1.062.134-2.169.231-3.315.354-2.291.26-4.746.429-7.329.628-5.169.329-10.862.527-16.839.473-5.977-.08-11.665-.407-16.826-.852-2.578-.256-5.03-.482-7.315-.793-1.143-.148-2.249-.271-3.308-.428l-3.043-.462C10.523,2.18,8.78,1.84,7.246,1.568L5.11,1.173,3.322.794C2.248.565,1.415.38.852.247A4.09,4.09,0,0,1,0,.008,3.976,3.976,0,0,1,.877.1c.571.086,1.41.225,2.49.412l1.8.314L7.3,1.164c1.538.233,3.283.537,5.224.781l3.043.414c1.058.142,2.163.251,3.3.386,2.282.284,4.73.486,7.3.724,5.151.407,10.824.712,16.784.793,5.96.053,11.638-.124,16.8-.415,2.577-.179,5.028-.326,7.315-.559,1.144-.109,2.251-.193,3.312-.311l3.05-.346c1.946-.2,3.7-.465,5.238-.663l2.148-.287,1.8-.275c1.083-.162,1.925-.282,2.5-.356A3.959,3.959,0,0,1,86,.974" transform="translate(32 197)"/>
    <path id="Fill_161" data-name="Fill 161" d="M16,1.394a9.082,9.082,0,0,1-2.344.439,30.035,30.035,0,0,1-5.773.056A29.867,29.867,0,0,1,2.219.844,8.9,8.9,0,0,1,0,.012a69.058,69.058,0,0,0,7.929,1.4A69.153,69.153,0,0,0,16,1.394" transform="translate(130 202)"/>
    <path id="Fill_163" data-name="Fill 163" d="M16,.02A7.891,7.891,0,0,1,13.744.9,27.473,27.473,0,0,1,8.07,1.928a27.055,27.055,0,0,1-5.738-.186A7.6,7.6,0,0,1,0,1.193c.021-.191,3.607.473,8.038.13C12.47,1.015,15.959-.166,16,.02" transform="translate(6 201)"/>
    <path id="Fill_165" data-name="Fill 165" d="M2.017,27.794a12.955,12.955,0,0,1,1.745-.066,27.034,27.034,0,0,0,4.69-.551,25.04,25.04,0,0,0,3.137-.871c.555-.187,1.117-.414,1.691-.655a4.811,4.811,0,0,0,1.554-.95,1.773,1.773,0,0,0,.505-1.61,3.693,3.693,0,0,0-.967-1.69,13.868,13.868,0,0,0-1.621-1.435l-1.784-1.418a48.932,48.932,0,0,1-6.512-5.829,18.656,18.656,0,0,1-3.7-6.159A14.07,14.07,0,0,1,.1,3.852a11.275,11.275,0,0,1-.085-2.1A8.151,8.151,0,0,1,.187.442C.253.147.3,0,.32,0,.381.01.266.634.271,1.76A12.716,12.716,0,0,0,.463,3.8a14.66,14.66,0,0,0,.725,2.6A18.908,18.908,0,0,0,4.9,12.3a51.964,51.964,0,0,0,6.467,5.716l1.788,1.425a14.156,14.156,0,0,1,1.688,1.512,4.278,4.278,0,0,1,1.11,2.013,2.4,2.4,0,0,1-.695,2.162A5.294,5.294,0,0,1,13.5,26.19c-.592.238-1.171.459-1.742.639a23.805,23.805,0,0,1-3.222.809,22.593,22.593,0,0,1-4.778.348,6.691,6.691,0,0,1-1.745-.193" transform="translate(5 163)"/>
    <path id="Fill_167" data-name="Fill 167" d="M15.563,0a10.5,10.5,0,0,1,.255,1.98,50.28,50.28,0,0,1,.167,5.443,30.1,30.1,0,0,1-1.2,8.01,20.471,20.471,0,0,1-1.921,4.414A18.093,18.093,0,0,1,9.634,23.89a13.69,13.69,0,0,1-4.376,2.77l-.59.219-.6.17c-.4.123-.8.195-1.175.281a3.288,3.288,0,0,0-1.872.909,1.679,1.679,0,0,0-.408.838,1.116,1.116,0,0,0,.2.814,2.916,2.916,0,0,0,1.629.869,27.289,27.289,0,0,0,3.631.666,28.856,28.856,0,0,0,5.355.1,18.329,18.329,0,0,1,1.974-.144,1.5,1.5,0,0,1-.495.151c-.329.075-.818.167-1.453.254a24.783,24.783,0,0,1-5.429.109,26.186,26.186,0,0,1-3.716-.6,5.508,5.508,0,0,1-1.023-.338,2.441,2.441,0,0,1-.946-.72A1.723,1.723,0,0,1,.015,29a2.282,2.282,0,0,1,.537-1.161,2.8,2.8,0,0,1,1.024-.755A6.325,6.325,0,0,1,2.749,26.7c.393-.094.777-.165,1.149-.284l.567-.164.557-.211a13.207,13.207,0,0,0,4.159-2.65A17.766,17.766,0,0,0,12.3,19.51a20.328,20.328,0,0,0,1.9-4.262A31.283,31.283,0,0,0,15.512,7.4c.117-2.277.07-4.13.046-5.41A12.408,12.408,0,0,1,15.563,0" transform="translate(131 161)"/>
    <path id="Fill_169" data-name="Fill 169" d="M49,.017A9.381,9.381,0,0,1,47.113.55c-.611.15-1.361.32-2.237.485s-1.87.377-2.977.544c-1.106.183-2.318.376-3.624.532-1.3.185-2.7.314-4.174.46-2.946.251-6.192.42-9.6.428-3.409-.009-6.655-.177-9.6-.429-1.471-.146-2.87-.275-4.174-.46C9.419,1.955,8.206,1.762,7.1,1.579,5.994,1.412,5,1.2,4.124,1.035S2.5.7,1.887.55A9.357,9.357,0,0,1,0,.016,9.086,9.086,0,0,1,1.93.244c.617.1,1.371.227,2.249.349s1.874.3,2.981.425c1.106.147,2.316.307,3.62.434,1.3.156,2.7.259,4.162.385,2.935.209,6.165.355,9.558.364,3.393-.009,6.623-.154,9.558-.364,1.466-.126,2.861-.229,4.162-.385,1.3-.127,2.514-.287,3.62-.434,1.107-.13,2.1-.3,2.981-.425S46.453.347,47.07.244A9.063,9.063,0,0,1,49,.017" transform="translate(52 178)"/>
    <path id="Fill_171" data-name="Fill 171" d="M23,.118a14.73,14.73,0,0,1-3.347.516C17.574.84,14.688,1.008,11.5,1S5.422.8,3.344.587A14.7,14.7,0,0,1,0,.051,18.9,18.9,0,0,1,3.379.1C5.458.2,8.328.3,11.5.313S17.542.23,19.621.15A18.867,18.867,0,0,1,23,.118" transform="translate(66 171)"/>
    <path id="Fill_173" data-name="Fill 173" d="M37.991,5A7.154,7.154,0,0,0,37.4,3.633a6.58,6.58,0,0,0-3.309-2.515A10.249,10.249,0,0,0,32.711.7,13.066,13.066,0,0,0,31.145.481a24.339,24.339,0,0,0-3.528.028c-1.247.082-2.562.216-3.942.259s-2.8.009-4.254-.061c-2.9-.146-5.651-.35-8.144-.233A21.081,21.081,0,0,0,4.849,1.707,12.339,12.339,0,0,0,1.127,3.859a11.147,11.147,0,0,0-.827.8c-.181.191-.283.288-.3.279s.06-.124.216-.335a7.169,7.169,0,0,1,.767-.87A11.553,11.553,0,0,1,4.7,1.408,20.691,20.691,0,0,1,11.25.05a80.427,80.427,0,0,1,8.2.2c1.445.07,2.854.111,4.211.07S26.324.156,27.584.085a23.9,23.9,0,0,1,3.6.015,13.134,13.134,0,0,1,1.622.257,10.337,10.337,0,0,1,1.433.462,6.489,6.489,0,0,1,3.339,2.73,3.6,3.6,0,0,1,.385,1.062A1.106,1.106,0,0,1,37.991,5" transform="translate(58 11)"/>
    <path id="Fill_175" data-name="Fill 175" d="M0,17.994a5.6,5.6,0,0,1,1.221-.546A35.56,35.56,0,0,1,4.7,16.378c1.485-.391,3.268-.78,5.229-1.261a36.516,36.516,0,0,0,6.211-2.03,16.621,16.621,0,0,0,5.34-3.653A12.606,12.606,0,0,0,24.221,4.9a10.293,10.293,0,0,0,.538-3.562c-.012-.214-.022-.4-.031-.571s-.036-.3-.046-.417A.939.939,0,0,1,24.669,0c.017,0,.055.11.113.333.027.112.066.25.1.416s.05.361.079.578a9.586,9.586,0,0,1-.393,3.688A12.551,12.551,0,0,1,21.82,9.762a16.589,16.589,0,0,1-5.475,3.8,34.562,34.562,0,0,1-6.31,2.02c-1.978.458-3.764.809-5.252,1.152s-2.681.661-3.5.906A8.011,8.011,0,0,1,0,17.994" transform="translate(95 20)"/>
    <path id="Fill_177" data-name="Fill 177" d="M26,16.991a7.286,7.286,0,0,1-1.382-.169c-.884-.141-2.161-.362-3.736-.646l-5.53-1.022-3.262-.621c-1.13-.222-2.3-.428-3.5-.711a15.781,15.781,0,0,1-3.422-1.178,8.831,8.831,0,0,1-2.714-2.075A10.28,10.28,0,0,1,.129,5.283,11.948,11.948,0,0,1,.2,1.375c.047-.225.09-.425.127-.6S.413.461.448.345C.52.114.566,0,.583,0A1.089,1.089,0,0,1,.546.37Q.513.55.467.807t-.08.6a13.05,13.05,0,0,0,.09,3.819,10.13,10.13,0,0,0,2.312,5.028,8.486,8.486,0,0,0,2.588,1.941A15.692,15.692,0,0,0,8.7,13.324l12.249,2.5c1.567.329,2.833.6,3.707.806A7.308,7.308,0,0,1,26,16.991" transform="translate(32 20)"/>
    <path id="Fill_179" data-name="Fill 179" d="M6,.115c.03.223-1.3.807-2.986.876S-.021.6,0,.379C.02.138,1.359.218,3,.14S5.971-.124,6,.115" transform="translate(74 44)"/>
    <path id="Fill_181" data-name="Fill 181" d="M6,.115c.029.223-1.3.807-2.986.876S-.021.6,0,.379C.02.138,1.358.217,3,.14S5.971-.124,6,.115" transform="translate(73 47)"/>
    <path id="Fill_183" data-name="Fill 183" d="M0,4.987C-.06,4.856,1.96,4.074,4.155,2.692S7.875-.091,7.994,0a10.934,10.934,0,0,1-3.53,3.074A12.328,12.328,0,0,1,0,4.987" transform="translate(95 23)"/>
    <path id="Fill_185" data-name="Fill 185" d="M9,5.988a5.39,5.39,0,0,1-1.58-.456A21.744,21.744,0,0,1,3.838,3.87a11.483,11.483,0,0,1-3.013-2.5A3.264,3.264,0,0,1,.007,0C.076-.036.421.459,1.1,1.149A14.84,14.84,0,0,0,4.11,3.463C5.4,4.228,6.66,4.794,7.565,5.221A5.661,5.661,0,0,1,9,5.988" transform="translate(51 24)"/>
    <path id="Fill_187" data-name="Fill 187" d="M22,.53c-.006.082-1.449-.021-3.774-.085A38.626,38.626,0,0,0,14.153.54a21.226,21.226,0,0,0-4.871.935A16.44,16.44,0,0,0,4.841,3.725a13.779,13.779,0,0,0-2.96,2.869A13.377,13.377,0,0,0,.444,9.035,4.928,4.928,0,0,1,.006,10a3.986,3.986,0,0,1,.26-1.044A11.308,11.308,0,0,1,1.6,6.37,13.312,13.312,0,0,1,4.58,3.329,16.07,16.07,0,0,1,9.134.975,20.232,20.232,0,0,1,14.122.058,32.115,32.115,0,0,1,18.24.076C19.409.15,20.349.256,21,.34a3.783,3.783,0,0,1,1,.19" transform="translate(41 3)"/>
    <path id="Fill_189" data-name="Fill 189" d="M18.988,11a18.446,18.446,0,0,0-1.356-3.165,12.764,12.764,0,0,0-2.345-2.87A15.927,15.927,0,0,0,11.527,2.4,21.791,21.791,0,0,0,3.486.383C1.342.223,0,.248,0,.164A3.169,3.169,0,0,1,.937.045C1.542.008,2.42-.02,3.506.018a24.534,24.534,0,0,1,3.8.425,17.766,17.766,0,0,1,4.453,1.493,15.47,15.47,0,0,1,3.856,2.682,12.179,12.179,0,0,1,2.336,3.038A10.777,10.777,0,0,1,18.56,9c.137.411.239.771.314,1.064a3.269,3.269,0,0,1,.115.937" transform="translate(95 3)"/>
    <path id="Fill_191" data-name="Fill 191" d="M5.457,7C3.9,7,2.273,6.934.259,6.748A.283.283,0,0,1,0,6.463c.016-.829.027-1.96.038-3.09S.059,1.107.075.276A.289.289,0,0,1,.366,0a.283.283,0,0,1,.28.286C.63,1.116.619,2.247.609,3.377.6,4.4.589,5.413.576,6.212a63.593,63.593,0,0,0,9.673.08c.677-.031,1.393-.063,2.168-.094.024-.848.007-1.831-.009-2.784-.018-1.06-.037-2.157,0-3.075a.286.286,0,0,1,.571.022c-.037.9-.018,1.991,0,3.044s.037,2.156,0,3.075a.284.284,0,0,1-.274.27c-.876.034-1.677.07-2.43.1C8.533,6.932,7.034,7,5.457,7" transform="translate(70 17)"/>
    <path id="Fill_193" data-name="Fill 193" d="M5,.234A7.593,7.593,0,0,1,2.5.422,7.594,7.594,0,0,1,0,.19,7.593,7.593,0,0,1,2.5,0,7.59,7.59,0,0,1,5,.234" transform="translate(74 18.788)"/>
    <path id="Fill_195" data-name="Fill 195" d="M9,.252c.021.172-1.989.807-4.508.744C1.973.948-.024.224,0,.053c.022-.2,2.022.216,4.5.262C6.975.379,8.982.053,9,.252" transform="translate(72 21)"/>
    <path id="Fill_197" data-name="Fill 197" d="M15,.9a6.174,6.174,0,0,1-2.2.078C11.44.933,9.568.868,7.5.854S3.56.883,2.2.907A6.174,6.174,0,0,1,0,.8,5.66,5.66,0,0,1,2.187.3,40.461,40.461,0,0,1,7.5,0a40.391,40.391,0,0,1,5.313.371A5.7,5.7,0,0,1,15,.9" transform="translate(69 28)"/>
    <path id="Fill_199" data-name="Fill 199" d="M6,.5C6,.776,4.657,1,3,1S0,.776,0,.5,1.343,0,3,0,6,.223,6,.5" transform="translate(74 31)"/>
    <path id="Fill_201" data-name="Fill 201" d="M0,1.977a4.434,4.434,0,0,1,1.741-.945A14.808,14.808,0,0,1,3.8.4,17.376,17.376,0,0,1,6.407.028,17.363,17.363,0,0,1,9.041.079a14.773,14.773,0,0,1,2.116.37A4.421,4.421,0,0,1,13,1.172c-.056.213-2.93-.687-6.55-.439C2.827.936.083,2.182,0,1.977" transform="translate(100 134)"/>
    <path id="Fill_203" data-name="Fill 203" d="M.041,41a8.362,8.362,0,0,1-.028-1.68c.01-.54.032-1.2.084-1.966s.092-1.639.189-2.6.184-2.015.33-3.141c.125-1.129.311-2.328.5-3.591.408-2.52.939-5.276,1.627-8.137s1.488-5.545,2.278-7.962c.412-1.2.793-2.348,1.2-3.4C6.605,7.461,7,6.486,7.362,5.6s.713-1.679,1.019-2.375.585-1.288.823-1.766A8.029,8.029,0,0,1,10,0a8.3,8.3,0,0,1-.563,1.571c-.2.494-.45,1.1-.721,1.808s-.6,1.506-.927,2.4-.7,1.874-1.063,2.938c-.382,1.056-.743,2.2-1.137,3.4-.754,2.414-1.521,5.089-2.216,7.928S2.139,25.631,1.7,28.13c-.2,1.253-.407,2.441-.554,3.561C.979,32.808.854,33.852.741,34.807s-.2,1.82-.283,2.579S.312,38.8.265,39.337A8.385,8.385,0,0,1,.041,41" transform="translate(117 35)"/>
    <path id="Fill_205" data-name="Fill 205" d="M11.974,40a7.508,7.508,0,0,1-.321-1.621c-.078-.524-.172-1.165-.3-1.906s-.244-1.589-.421-2.519S10.59,32,10.364,30.911c-.2-1.093-.47-2.253-.736-3.475C9.064,25,8.383,22.332,7.56,19.562s-1.728-5.375-2.6-7.727c-.45-1.171-.865-2.288-1.3-3.318-.411-1.038-.823-1.994-1.2-2.866S1.737,3.994,1.432,3.3.855,2.019.63,1.536A7.6,7.6,0,0,1,.005,0a7.649,7.649,0,0,1,.871,1.42c.263.466.574,1.042.911,1.722s.74,1.446,1.136,2.315S3.77,7.271,4.207,8.305c.457,1.026.894,2.142,1.364,3.313.907,2.354,1.825,4.971,2.664,7.755s1.493,5.475,2.026,7.933c.251,1.232.5,2.4.676,3.5.2,1.1.354,2.129.487,3.07s.231,1.794.319,2.543.146,1.4.181,1.926a7.434,7.434,0,0,1,.05,1.65" transform="translate(24 35)"/>
    <path id="Fill_207" data-name="Fill 207" d="M0,.022a16.714,16.714,0,0,1,2.788.42c1.709.291,4.083.611,6.717.924s5.025.61,6.746.919A10.045,10.045,0,0,1,19,2.969a15,15,0,0,1-2.814-.22c-1.727-.188-4.118-.409-6.76-.725A61.112,61.112,0,0,1,2.7.9,9.415,9.415,0,0,1,0,.022" transform="translate(39 39)"/>
    <path id="Fill_209" data-name="Fill 209" d="M18,.012A10.745,10.745,0,0,1,15.54,1.279c-1.566.693-3.776,1.567-6.272,2.4S4.462,5.126,2.774,5.512A11.369,11.369,0,0,1,0,5.98c-.05-.18,4.075-1.247,9.033-2.9S17.912-.155,18,.012" transform="translate(99 35)"/>
    <path id="Fill_211" data-name="Fill 211" d="M20.95,5C12.8,5,4.669,3.662.249.985A.55.55,0,0,1,.062.27a.466.466,0,0,1,.66-.2c8.446,5.113,31.948,5.116,40.56,0A.467.467,0,0,1,41.94.28a.55.55,0,0,1-.193.714C37.248,3.665,29.089,5,20.95,5" transform="translate(217 26)"/>
    <g id="Group_215" data-name="Group 215" transform="translate(282 43)">
      <path id="Clip_214-2" data-name="Clip 214" d="M0,0H29.652V55.746H0Z" transform="translate(0.057 0.212)" fill="none"/>
      <g id="Group_215-2" data-name="Group 215" clip-path="url(#clip-path-3)">
        <path id="Fill_213" data-name="Fill 213" d="M3.109,55.746a.472.472,0,0,1-.184-.038.477.477,0,0,1-.27-.3c-.5-1.677-.917-2.813-1.282-3.816A24.677,24.677,0,0,1,.007,46.705a.479.479,0,0,1,.386-.555.476.476,0,0,1,.549.39,23.615,23.615,0,0,0,1.322,4.718c.328.9.7,1.909,1.131,3.318a198.663,198.663,0,0,1,25.27-11.21c-.65-6.132-1.337-11.548-1.682-13.25-.057-.28-.1-.58-.151-.885a7.946,7.946,0,0,0-.464-1.948,1.565,1.565,0,0,0-.418-.471,2.057,2.057,0,0,1-.709-.965,4.326,4.326,0,0,1,.009-1.919,3.079,3.079,0,0,0-.015-1.624,1.873,1.873,0,0,0-.775-.719,3.152,3.152,0,0,1-1.037-.937A3.306,3.306,0,0,1,23.54,17.8l.029-.085a3.2,3.2,0,0,0-.3-2.457c-.121-.3-.246-.619-.354-.966C21.3,9.1,19.234,3.885,15.068.869A.483.483,0,0,1,14.958.2.472.472,0,0,1,15.62.09C20.014,3.27,22.16,8.656,23.825,14c.1.311.215.609.33.9a4.11,4.11,0,0,1,.311,3.132l-.03.086c-.257.738-.524,1.5-.2,2.026a2.381,2.381,0,0,0,.746.638,2.656,2.656,0,0,1,1.136,1.157,3.9,3.9,0,0,1,.075,2.141,3.559,3.559,0,0,0-.035,1.5,1.214,1.214,0,0,0,.422.51,2.359,2.359,0,0,1,.657.8,8.643,8.643,0,0,1,.537,2.2c.045.29.089.575.143.841.358,1.764,1.072,7.405,1.736,13.718a.48.48,0,0,1-.314.5A198.057,198.057,0,0,0,3.328,55.692a.469.469,0,0,1-.219.054" transform="translate(0.057 0.212)"/>
      </g>
    </g>
    <path id="Fill_216" data-name="Fill 216" d="M71.094,175c-15.6,0-34.543-.972-37.365-1.365l-1.449-.2c-3.826-.535-7.782-1.089-11.734-1.514-3.048-.329-7.455-1.775-7.234-3.836a25.189,25.189,0,0,1,.736-4.043c.165-.657.335-1.336.523-2.3a4.729,4.729,0,0,0-.377-2.322c-.1-.292-.191-.583-.27-.875a7.537,7.537,0,0,1,.4-3.778c.137-.5.267-.963.341-1.381l.285-1.589c.789-4.4,2.11-11.757,2.373-14.962.1-1.244.078-2.553.051-3.938-.061-3.227-.123-6.564,1.53-9.029a3.308,3.308,0,0,0,.252-3.369c-1.183-2.268-1.066-2.8-.516-4.129a14.371,14.371,0,0,0,.561-1.558,5.222,5.222,0,0,0-.43-3.6,12.126,12.126,0,0,1-.67-2.237,7.7,7.7,0,0,1,.56-3.634,7.372,7.372,0,0,0,.551-3.084c-.35-2.693-.66-7.228-1.02-12.479-.663-9.686-1.489-21.742-2.923-26.167a.479.479,0,0,1-.023-.125C14.446,45.937,7.151,31.54.1,17.616l-.044-.087a.478.478,0,0,1,.187-.63C7.246,12.812,31.392,2.6,39.085.025a.485.485,0,0,1,.612.3.479.479,0,0,1-.3.608C31.87,3.453,8.555,13.3,1.12,17.5,8.161,31.4,15.39,45.789,16.211,63.382c1.458,4.585,2.284,16.64,2.948,26.334.359,5.235.668,9.757,1.014,12.422a8.159,8.159,0,0,1-.589,3.5,6.921,6.921,0,0,0-.529,3.179,11.358,11.358,0,0,0,.624,2.066,6.138,6.138,0,0,1,.452,4.2,15.345,15.345,0,0,1-.6,1.654c-.448,1.084-.554,1.342.48,3.323a4.263,4.263,0,0,1-.306,4.343c-1.486,2.215-1.426,5.4-1.368,8.479.025,1.348.051,2.742-.055,4.034-.267,3.251-1.593,10.639-2.385,15.053l-.284,1.587c-.082.462-.218.951-.361,1.468a6.811,6.811,0,0,0-.4,3.275c.074.275.165.549.256.824a5.505,5.505,0,0,1,.407,2.8c-.192.985-.373,1.708-.534,2.346a24.369,24.369,0,0,0-.712,3.913c-.11,1.025,3.108,2.428,6.377,2.779,3.967.427,7.931.982,11.765,1.518l1.449.2c4.126.576,42.891,2.4,54.81.565a126.111,126.111,0,0,0,12.379-2.552c1.313-.329,2.261-.567,2.92-.666a1.023,1.023,0,0,0,.849-.477c.5-.893-.341-3.1-1.129-4.914a5.28,5.28,0,0,1-.466-3.539,5.929,5.929,0,0,1,.745-1.468,6.589,6.589,0,0,0,.556-1,2.522,2.522,0,0,0-.308-1.967,6.457,6.457,0,0,1-.433-1.25,22.438,22.438,0,0,1-.317-3.447c-.024-.574-.045-1.117-.088-1.651-.116-1.461-.328-4.39-.53-7.174-.2-2.724-.385-5.3-.461-6.229-.1-1.176-.1-2.375-.11-3.536a28.744,28.744,0,0,0-.375-5.447,18.458,18.458,0,0,0-.676-2.3,16.776,16.776,0,0,1-.771-2.769,7.08,7.08,0,0,1,.315-2.972,8.656,8.656,0,0,0,.342-1.889,4.291,4.291,0,0,0-.686-2.408,6.271,6.271,0,0,1-.8-2.192,4.912,4.912,0,0,1,.876-2.835,6.628,6.628,0,0,0,.749-1.753,8.158,8.158,0,0,0-.351-3.234,9.621,9.621,0,0,1-.4-3.446c.348-2.684.443-7.349.553-12.751.182-8.962.409-20.11,1.991-26.321,2.093-16.535,8-30.193,14.852-45.944C110.421,12.936,87.608,3.459,79.951.941a.48.48,0,1,1,.3-.911c7.821,2.571,31.4,12.381,38.5,16.472a.479.479,0,0,1,.2.605c-6.9,15.859-12.866,29.556-14.956,46.106a.583.583,0,0,1-.011.059c-1.562,6.1-1.787,17.207-1.969,26.134-.11,5.43-.206,10.119-.561,12.854a8.767,8.767,0,0,0,.377,3.1,8.987,8.987,0,0,1,.362,3.621,7.244,7.244,0,0,1-.848,2.04,4.346,4.346,0,0,0-.772,2.249,5.336,5.336,0,0,0,.7,1.876,5.2,5.2,0,0,1,.8,2.887,9.5,9.5,0,0,1-.372,2.1,6.262,6.262,0,0,0-.3,2.585,15.827,15.827,0,0,0,.731,2.61,19.153,19.153,0,0,1,.709,2.417,29.459,29.459,0,0,1,.394,5.629c.007,1.143.013,2.324.107,3.463.077.938.264,3.512.462,6.239.2,2.781.414,5.708.53,7.167.044.552.067,1.129.09,1.687a21.793,21.793,0,0,0,.3,3.3,5.668,5.668,0,0,0,.375,1.064,3.356,3.356,0,0,1,.313,2.7,7.4,7.4,0,0,1-.633,1.149,5.154,5.154,0,0,0-.637,1.231,4.234,4.234,0,0,0,.427,2.886c1.129,2.605,1.746,4.582,1.086,5.76a2,2,0,0,1-1.549.96c-.613.092-1.542.325-2.828.648a127,127,0,0,1-12.468,2.57,138.057,138.057,0,0,1-17.727.8" transform="translate(179 27)"/>
    <path id="Fill_218" data-name="Fill 218" d="M68,9.189a2.813,2.813,0,0,1-.706.114c-.464.052-1.15.118-2.035.195-1.769.148-4.334.309-7.507.413-3.173.088-6.956.141-11.153.016S37.789,9.548,32.963,9.1,23.555,8.078,19.4,7.451s-7.871-1.28-10.994-1.94a20.139,20.139,0,0,1-4.1-1.364A10.028,10.028,0,0,1,1.582,2.312,7.314,7.314,0,0,1,.3.669,2.917,2.917,0,0,1,0,0,11.159,11.159,0,0,0,1.758,2.115,10.226,10.226,0,0,0,4.461,3.8,20.574,20.574,0,0,0,8.51,5.038c3.1.591,6.837,1.194,10.981,1.788s8.72,1.153,13.533,1.595,9.409.723,13.594.875,7.957.156,11.125.13,5.73-.128,7.5-.194c.886-.036,1.574-.058,2.041-.066A2.824,2.824,0,0,1,68,9.189" transform="translate(197 187)"/>
    <path id="Fill_220" data-name="Fill 220" d="M0,3.236a46.958,46.958,0,0,1,4.877.084c1.5.039,3.292.036,5.278-.015S14.321,3.118,16.6,2.9s4.448-.53,6.412-.85,3.724-.679,5.2-1.007A46.774,46.774,0,0,1,33,.016a4.654,4.654,0,0,1-1.231.509c-.4.143-.9.307-1.477.476s-1.237.375-1.974.56c-1.468.4-3.231.8-5.2,1.172s-4.153.686-6.451.915-4.5.322-6.5.35-3.8-.039-5.308-.146c-.755-.039-1.436-.113-2.034-.169S1.713,3.563,1.294,3.5A4.485,4.485,0,0,1,0,3.236" transform="translate(248 187)"/>
    <path id="Fill_222" data-name="Fill 222" d="M0,.545C.009.362,3.143.486,7,.344s6.982-.473,7-.292a6.429,6.429,0,0,1-2.028.471A43.845,43.845,0,0,1,7.016.972a43.648,43.648,0,0,1-4.97-.1A6.349,6.349,0,0,1,0,.545" transform="translate(266 191)"/>
    <path id="Fill_224" data-name="Fill 224" d="M15,2.948A7.814,7.814,0,0,1,12.759,2.9,53.6,53.6,0,0,1,7.4,2.122,54.248,54.248,0,0,1,2.126.823,8.18,8.18,0,0,1,0,.02a9.4,9.4,0,0,1,2.209.4c1.35.3,3.214.72,5.281,1.125s3.947.717,5.31.944a9.515,9.515,0,0,1,2.2.461" transform="translate(196 192)"/>
    <path id="Fill_226" data-name="Fill 226" d="M67,0a2.575,2.575,0,0,1-.606.364c-.4.227-1.02.5-1.82.846a33.056,33.056,0,0,1-7.045,1.9,74.548,74.548,0,0,1-10.718.808c-4.036.076-8.473.1-13.131.046-9.316-.1-17.744-.514-23.836-.943C6.8,2.817,4.335,2.6,2.635,2.435c-.85-.087-1.51-.16-1.956-.218A2.4,2.4,0,0,1,0,2.09a2.388,2.388,0,0,1,.688-.025c.449.009,1.112.035,1.964.076l7.217.351c6.093.292,14.513.617,23.817.722,4.652.056,9.085.05,13.115.012a81.136,81.136,0,0,0,10.661-.641A37.3,37.3,0,0,0,64.489.935c.806-.3,1.434-.528,1.852-.708A2.442,2.442,0,0,1,67,0" transform="translate(209 90)"/>
    <path id="Fill_228" data-name="Fill 228" d="M0,5a1.614,1.614,0,0,1,.439-.188c.293-.106.727-.254,1.289-.439l.936-.305,1.125-.315c.808-.222,1.727-.488,2.757-.712l1.613-.373,1.758-.35c1.214-.254,2.523-.447,3.9-.674,2.754-.4,5.793-.753,8.992-1.006C29.2.15,35.008.057,39.2.016,41.3,0,43,0,44.176.006c.587,0,1.043.013,1.352.025A1.6,1.6,0,0,1,46,.075a1.586,1.586,0,0,1-.47.063c-.308.023-.764.049-1.35.076C43.006.271,41.309.328,39.212.4c-4.194.139-9.989.292-16.369.773-3.189.252-6.218.585-8.965.961-1.37.213-2.676.389-3.887.623L8.233,3.07,6.62,3.409c-1.031.2-1.951.439-2.763.632l-1.132.271L1.78,4.57c-.568.153-1.01.269-1.312.341A1.613,1.613,0,0,1,0,5" transform="translate(201 96)"/>
    <path id="Fill_230" data-name="Fill 230" d="M.006,12A11.968,11.968,0,0,1,1.639,9.659c.539-.7,1.19-1.518,1.92-2.424a22.5,22.5,0,0,1,2.618-2.8A19.563,19.563,0,0,1,12.168.765,8.439,8.439,0,0,1,15,.015a26.892,26.892,0,0,1-2.637,1.177,23.006,23.006,0,0,0-5.72,3.725,26.4,26.4,0,0,0-2.6,2.7C3.29,8.5,2.6,9.3,2.015,9.953A12.2,12.2,0,0,1,.006,12" transform="translate(290 65)"/>
    <path id="Fill_232" data-name="Fill 232" d="M4,4.972c-.04.087-.5-.036-1.21-.3-.355-.134-.773-.3-1.232-.5-.231-.1-.464-.194-.735-.339A1.54,1.54,0,0,1,.079,3.07a1.175,1.175,0,0,1-.063-.612A1.3,1.3,0,0,1,.23,1.942,2.216,2.216,0,0,1,.9,1.319,3.809,3.809,0,0,1,1.581.992c.2-.081.381-.16.537-.241A1.714,1.714,0,0,0,2.742.264C2.853.112,2.9,0,2.948,0s.1.133.036.376a1.526,1.526,0,0,1-.609.791,4.435,4.435,0,0,1-.554.347,4.061,4.061,0,0,0-.573.339c-.364.256-.678.663-.534.958.111.317.672.539,1.108.772s.841.448,1.17.639c.657.383,1.044.663,1,.749" transform="translate(301 59)"/>
    <path id="Fill_234" data-name="Fill 234" d="M0,3.982C-.1,3.829,1.856,2.145,4.7,1.047,7.534-.07,10-.1,10,.089c.021.222-2.34.584-5.083,1.668C2.166,2.818.109,4.171,0,3.982" transform="translate(296 69)"/>
    <path id="Fill_236" data-name="Fill 236" d="M16,18a24.038,24.038,0,0,1-2.3-2.7c-1.378-1.693-3.335-3.984-5.486-6.535C7.142,7.488,6.125,6.273,5.172,5.2S3.33,3.185,2.554,2.43C1.005.915-.058.093,0,0A11.437,11.437,0,0,1,2.869,2.068a37.4,37.4,0,0,1,2.752,2.7c.988,1.062,2.026,2.273,3.1,3.552,2.15,2.549,4.061,4.9,5.351,6.682A15.232,15.232,0,0,1,16,18" transform="translate(173 62)"/>
    <path id="Fill_238" data-name="Fill 238" d="M0,6.654a5.122,5.122,0,0,1,1.885.255l.934.211a8.765,8.765,0,0,0,1.025.215c.338.024.516-.111.519-.361a1.261,1.261,0,0,0-.136-.5,3.891,3.891,0,0,0-.33-.555C1.8,2.768.223.12.368,0S2.328,2.347,4.422,5.5A2.683,2.683,0,0,1,5,6.992a1.043,1.043,0,0,1-.445.846,1.139,1.139,0,0,1-.758.153,7.184,7.184,0,0,1-1.109-.3L1.773,7.4A5.334,5.334,0,0,1,0,6.654" transform="translate(172 66)"/>
    <path id="Fill_240" data-name="Fill 240" d="M0,10c-.022-.02.166-.268.576-.656A12,12,0,0,1,2.489,7.878a14.019,14.019,0,0,1,3.3-1.5c.653-.214,1.384-.341,2.065-.524S9.231,5.36,9.417,4.76a1.562,1.562,0,0,0-.7-1.625,5.484,5.484,0,0,0-1.858-.748C5.541,2.047,4.37,1.677,3.4,1.331S1.673.666,1.153.429A2.814,2.814,0,0,1,.372.007C.4-.062,1.583.392,3.53,1c.974.3,2.14.631,3.454.945a5.818,5.818,0,0,1,2.049.8,2.457,2.457,0,0,1,.78.917A1.669,1.669,0,0,1,9.925,4.91a1.752,1.752,0,0,1-.328.568,2.292,2.292,0,0,1-.5.406A4.366,4.366,0,0,1,8,6.325c-.745.191-1.425.3-2.063.493A15.074,15.074,0,0,0,2.69,8.179C.945,9.17.068,10.064,0,10" transform="translate(201 139)"/>
    <path id="Fill_242" data-name="Fill 242" d="M5.989,11c-.094.052-.456-.747-1.339-1.749A8.252,8.252,0,0,0,2.906,7.765a7.163,7.163,0,0,0-1.178-.6,7.33,7.33,0,0,1-.7-.292,1.88,1.88,0,0,1-.7-.583A2.184,2.184,0,0,1,.1,4.468,4.028,4.028,0,0,1,.851,3.1,16.463,16.463,0,0,1,2.5,1.3C3.515.368,4.237-.065,4.284.008A11.967,11.967,0,0,1,2.813,1.664c-.452.5-.975,1.122-1.5,1.84A3.592,3.592,0,0,0,.7,4.663a1.5,1.5,0,0,0,.141,1.2,2.381,2.381,0,0,0,1.108.66,7,7,0,0,1,1.264.689A7.586,7.586,0,0,1,4.99,8.922a4.269,4.269,0,0,1,1,2.076" transform="translate(271 138)"/>
    <path id="Fill_244" data-name="Fill 244" d="M21,1.985a25.723,25.723,0,0,1-3.06-.531,58.2,58.2,0,0,0-7.4-.86A58.026,58.026,0,0,0,3.092.733,25.559,25.559,0,0,1,0,.964,2.534,2.534,0,0,1,.809.729C1.335.609,2.1.476,3.057.348a42.566,42.566,0,0,1,14.949.727c.939.22,1.693.427,2.207.6A2.578,2.578,0,0,1,21,1.985" transform="translate(204 148)"/>
    <path id="Fill_246" data-name="Fill 246" d="M21,.01A17.973,17.973,0,0,1,17.975,1.6L10.552,5.115,3.136,8.649A17.9,17.9,0,0,1,0,9.991,16.452,16.452,0,0,1,2.928,8.219C4.779,7.21,7.37,5.88,10.273,4.5s5.568-2.547,7.515-3.345A16.291,16.291,0,0,1,21,.01" transform="translate(184 34)"/>
    <path id="Fill_248" data-name="Fill 248" d="M25,9.993a24.856,24.856,0,0,1-3.665-1.484c-2.229-.981-5.294-2.357-8.72-3.786C10.9,4.012,9.256,3.361,7.752,2.786S4.884,1.724,3.729,1.334A33.292,33.292,0,0,1,0,.012,18.942,18.942,0,0,1,3.883.9c1.182.336,2.57.793,4.1,1.33s3.186,1.186,4.909,1.9c3.442,1.436,6.483,2.882,8.659,3.968A22.481,22.481,0,0,1,25,9.993" transform="translate(268 34)"/>
    <path id="Fill_250" data-name="Fill 250" d="M28.354,56a.491.491,0,0,1-.228-.056C18.868,51.148,8.987,46.567.3,43.046a.479.479,0,0,1-.3-.492A60.166,60.166,0,0,1,2.08,31.622c.191-.688.342-1.231.438-1.689.056-.266.1-.551.147-.841a8.437,8.437,0,0,1,.553-2.2,2.375,2.375,0,0,1,.676-.8c.236-.2.384-.336.435-.51a3.459,3.459,0,0,0-.036-1.5,3.8,3.8,0,0,1,.077-2.141,2.691,2.691,0,0,1,1.17-1.158,2.439,2.439,0,0,0,.768-.638c.33-.523.056-1.287-.209-2.026l-.031-.086a4.006,4.006,0,0,1,.32-3.132c.118-.287.239-.585.339-.9C8.442,8.659,10.652,3.271,15.176.09A.5.5,0,0,1,15.858.2a.474.474,0,0,1-.113.669C11.455,3.887,9.324,9.105,7.661,14.3c-.111.347-.24.662-.365.966a3.125,3.125,0,0,0-.3,2.458l.03.085a3.223,3.223,0,0,1,.118,2.85,3.217,3.217,0,0,1-1.067.938,1.908,1.908,0,0,0-.8.719,3,3,0,0,0-.016,1.625,4.208,4.208,0,0,1,.009,1.92,2.065,2.065,0,0,1-.73.965,1.585,1.585,0,0,0-.43.471,7.769,7.769,0,0,0-.477,1.949c-.049.306-.1.605-.155.886-.1.488-.257,1.044-.452,1.749A58.994,58.994,0,0,0,1.013,42.3c8.461,3.444,18.023,7.874,27.032,12.521.972-3.484,1.605-6.118,1.985-8.253a.487.487,0,0,1,.566-.39.48.48,0,0,1,.4.555c-.407,2.283-1.1,5.116-2.167,8.918a.482.482,0,0,1-.277.312.5.5,0,0,1-.194.04" transform="translate(164 43)"/>
    <path id="Fill_252" data-name="Fill 252" d="M21,39a.489.489,0,0,1-.324-.121C9.361,28.95,1.245,13.893,0,.519A.478.478,0,0,1,.441,0a.482.482,0,0,1,.527.43C2.179,13.453,10.026,28.106,21,37.885,31.974,28.106,39.821,13.453,41.032.433A.485.485,0,0,1,42,.519c-1.243,13.374-9.359,28.431-20.674,38.36A.489.489,0,0,1,21,39" transform="translate(217 27)"/>
    <path id="Fill_254" data-name="Fill 254" d="M37,.014a5.83,5.83,0,0,1-1.367.64c-.447.185-1,.4-1.647.615s-1.382.488-2.212.707c-.826.236-1.731.5-2.717.708-.98.245-2.039.431-3.154.631a54.656,54.656,0,0,1-7.316.676,57.135,57.135,0,0,1-7.332-.355L9.617,3.426c-.531-.07-1.042-.169-1.538-.249-.993-.154-1.909-.36-2.746-.537s-1.586-.384-2.246-.547S1.865,1.755,1.406,1.61A5.75,5.75,0,0,1,0,1.087C.027.963,2.076,1.493,5.418,2.1c.837.143,1.751.316,2.74.442.494.066,1,.152,1.53.209l1.626.176a65.4,65.4,0,0,0,7.26.292,62.15,62.15,0,0,0,7.242-.609c1.105-.179,2.157-.339,3.133-.555.981-.182,1.884-.411,2.711-.611,3.3-.835,5.3-1.56,5.34-1.434" transform="translate(221 30)"/>
    <path id="Fill_256" data-name="Fill 256" d="M8.828,7A38.783,38.783,0,0,1,.3,6a.3.3,0,0,1-.228-.274A39.7,39.7,0,0,1,.034,1.72V1.69C.046,1.282.059.8.067.3A.312.312,0,0,1,.17.071.28.28,0,0,1,.356,0,.286.286,0,0,1,.4,0,46.261,46.261,0,0,0,8.192.66,58.35,58.35,0,0,0,16.625,0l.039,0a.284.284,0,0,1,.184.069.311.311,0,0,1,.1.219c.078,1.5.043,3.283.014,4.716v.041l-.014.666a.3.3,0,0,1-.218.29A30.921,30.921,0,0,1,8.828,7ZM.638.66C.632.981.623,1.324.612,1.707.579,2.958.547,4.139.628,5.456a38.151,38.151,0,0,0,8.2.936,30.449,30.449,0,0,0,7.552-.925l.009-.435c.027-1.314.06-2.949,0-4.381a58.44,58.44,0,0,1-8.2.619A46.677,46.677,0,0,1,.638.66Z" transform="translate(230 35)"/>
    <path id="Fill_258" data-name="Fill 258" d="M7,.06C7.026.242,5.474,1,3.5,1,1.529,1.016-.025.268,0,.085c.023-.212,1.576.2,3.5.182C5.424.27,6.977-.153,7,.06" transform="translate(235 38)"/>
    <path id="Fill_260" data-name="Fill 260" d="M11,.024A4.737,4.737,0,0,1,9.431.533,20.02,20.02,0,0,1,5.514,1a19.969,19.969,0,0,1-3.929-.3A4.716,4.716,0,0,1,0,.246C.023.1,2.468.581,5.506.509,8.545.459,10.973-.123,11,.024" transform="translate(233 39)"/>
    <path id="Fill_262" data-name="Fill 262" d="M18,.022a12.309,12.309,0,0,1-2.6.5,54.909,54.909,0,0,1-6.386.47,55.091,55.091,0,0,1-6.4-.267A12.392,12.392,0,0,1,0,.307,18.111,18.111,0,0,1,2.646.393C4.274.479,6.523.559,9.007.521S13.735.329,15.359.192A18.225,18.225,0,0,1,18,.022" transform="translate(230 47)"/>
    <path id="Fill_264" data-name="Fill 264" d="M10,.1c.02.222-2.21.89-5,.9S-.019.381,0,.158c.018-.246,2.25.01,5-.014C7.75.136,9.981-.145,10,.1" transform="translate(233 51)"/>
    <path id="Fill_266" data-name="Fill 266" d="M5,.126c.03.23-1.074.816-2.488.869S-.023.564,0,.332C.022.083,1.136.175,2.5.112S4.971-.121,5,.126" transform="translate(236 54)"/>
    <path id="Fill_268" data-name="Fill 268" d="M.006,21a23.294,23.294,0,0,1,1.986-2.963c1.257-1.8,2.933-4.329,4.59-7.227s2.97-5.616,3.875-7.6A23.161,23.161,0,0,1,11.988,0a14.619,14.619,0,0,1-1.073,3.383,59.767,59.767,0,0,1-3.72,7.749,60.787,60.787,0,0,1-4.8,7.178A15.313,15.313,0,0,1,.006,21" transform="translate(248 39)"/>
    <path id="Fill_270" data-name="Fill 270" d="M14,24c-.035.032-.34-.224-.864-.716-.264-.244-.579-.55-.928-.921s-.759-.783-1.176-1.269-.887-1.008-1.356-1.6c-.484-.578-.963-1.224-1.473-1.9C7.2,16.228,6.166,14.682,5.18,13s-1.809-3.344-2.5-4.877c-.333-.772-.657-1.5-.918-2.2-.279-.694-.507-1.351-.711-1.952S.679,2.817.534,2.335.279,1.434.2,1.088A3.416,3.416,0,0,1,.014,0a39.086,39.086,0,0,1,1.5,3.808c.232.586.484,1.227.784,1.905.281.685.621,1.4.967,2.158.718,1.5,1.557,3.132,2.522,4.8s1.981,3.2,2.939,4.57c.491.678.948,1.329,1.407,1.916s.88,1.139,1.278,1.634A39.757,39.757,0,0,1,14,24" transform="translate(217 38)"/>
  </g>
</svg>
