<svg xmlns="http://www.w3.org/2000/svg" xmlns:xlink="http://www.w3.org/1999/xlink" width="65.788" height="203" viewBox="0 0 65.788 203">
  <defs>
    <clipPath id="clip-path">
      <path id="Clip_314" data-name="Clip 314" d="M0,0H-11.973V195.677H0Z" transform="translate(0 -0.244) rotate(-180)" fill="none"/>
    </clipPath>
    <clipPath id="clip-path-2">
      <path id="Clip_325" data-name="Clip 325" d="M0,0H-10.672V194.933H0Z" transform="translate(0.117 -0.06) rotate(-180)" fill="none"/>
    </clipPath>
  </defs>
  <g id="Group_333" data-name="Group 333" transform="translate(65.788) rotate(180)">
    <path id="Fill_1" data-name="Fill 1" d="M-12,6.957A1.553,1.553,0,0,0-11.442,7a5.206,5.206,0,0,0,.655-.028c.255-.025.547-.04.864-.1l.5-.084c.174-.031.351-.08.537-.122.373-.079.76-.209,1.17-.337A15.373,15.373,0,0,0-5.161,5.163,15.978,15.978,0,0,0-2.852,3.506c.325-.3.639-.575.906-.867.135-.143.271-.275.391-.415l.341-.4c.222-.252.394-.506.554-.721A6.028,6.028,0,0,0-.278.527,1.855,1.855,0,0,0,0,0c-.052-.04-.514.654-1.4,1.631l-.351.378c-.122.131-.261.256-.4.391-.27.276-.585.538-.908.822a17.855,17.855,0,0,1-2.273,1.6A17.263,17.263,0,0,1-7.821,5.985c-.4.134-.775.273-1.137.363-.181.048-.353.1-.522.142l-.487.107c-1.244.258-2.036.291-2.034.359" transform="translate(9 -180) rotate(-180)"/>
    <path id="Fill_3" data-name="Fill 3" d="M-11.759,9.991a4.248,4.248,0,0,0,1.047-.185c.665-.151,1.623-.387,2.8-.689s2.585-.67,4.143-1.086l1.2-.321c.406-.114.823-.206,1.262-.373A2.28,2.28,0,0,0-.135,6.419c.032-.068.062-.136.091-.2A2.092,2.092,0,0,0,0,5.978a1.517,1.517,0,0,0-.02-.243A1.651,1.651,0,0,0-.1,5.513a1.79,1.79,0,0,0-.547-.6A5.854,5.854,0,0,0-1.93,4.25c-.433-.167-.865-.3-1.292-.425-.854-.242-1.686-.423-2.479-.58l-1.16-.217c-.378-.064-.724-.139-1.071-.228A14.081,14.081,0,0,1-9.8,2.2,8.294,8.294,0,0,1-12.232.737C-12.736.284-12.963-.025-13,0a2.63,2.63,0,0,0,.631.88A7.571,7.571,0,0,0-9.942,2.534a13.372,13.372,0,0,0,1.9.679c.345.1.722.188,1.094.259l1.15.238c.784.168,1.6.357,2.437.6.416.122.835.257,1.247.418a5.5,5.5,0,0,1,1.168.6,1.33,1.33,0,0,1,.391.415.421.421,0,0,1-.021.426,1.616,1.616,0,0,1-.387.416,2.3,2.3,0,0,1-.528.285c-.381.15-.806.25-1.21.369l-1.191.338C-5.438,8.016-6.832,8.42-8,8.766s-2.113.636-2.763.847a4.267,4.267,0,0,0-1,.378" transform="translate(43 -180) rotate(-180)"/>
    <path id="Fill_5" data-name="Fill 5" d="M-10,.019A3.8,3.8,0,0,0-8.639.8,14.834,14.834,0,0,0-5.107,1.821a14.264,14.264,0,0,0,3.627.112A3.406,3.406,0,0,0,0,1.6c-.014-.176-2.285.1-5.046-.35C-7.81.824-9.949-.147-10,.019" transform="translate(45 -194) rotate(-180)"/>
    <path id="Fill_7" data-name="Fill 7" d="M0,2.994A4.687,4.687,0,0,0-1.249,1.9a10.772,10.772,0,0,0-1.517-.875A11.725,11.725,0,0,0-4.746.317,11.245,11.245,0,0,0-6.8.01,9.63,9.63,0,0,0-8.486.076,3.945,3.945,0,0,0-10,.467,9.739,9.739,0,0,0-8.467.382,12.862,12.862,0,0,1-6.818.411a13.542,13.542,0,0,1,2,.332A14.013,14.013,0,0,1-2.887,1.4a14.172,14.172,0,0,1,1.515.772A10.924,10.924,0,0,0,0,2.994" transform="translate(41 -190) rotate(-180)"/>
    <path id="Fill_9" data-name="Fill 9" d="M-12,5.995A18.222,18.222,0,0,1-9.381,4.928,18.663,18.663,0,0,1-6.387,4.36c1.143-.136,2.411-.212,3.749-.328A4.22,4.22,0,0,0-.653,3.5a1.369,1.369,0,0,0,.645-.934A1.126,1.126,0,0,0-.1,1.979a1.6,1.6,0,0,0-.3-.441A2.361,2.361,0,0,0-1.175,1,4.865,4.865,0,0,0-1.967.737C-2.481.609-2.95.529-3.382.444A15.613,15.613,0,0,0-6.2.015,15.826,15.826,0,0,0-3.454.8c.424.107.9.211,1.385.35a2.875,2.875,0,0,1,1.345.716.828.828,0,0,1,.254.64.9.9,0,0,1-.438.575,3.912,3.912,0,0,1-1.771.44c-1.328.115-2.6.207-3.762.371a16.19,16.19,0,0,0-3.039.69A5.758,5.758,0,0,0-12,5.995" transform="translate(12 -192) rotate(-180)"/>
    <path id="Fill_11" data-name="Fill 11" d="M0,2.992c.044-.048-.284-.4-.919-.865A11.4,11.4,0,0,0-3.659.7,11.759,11.759,0,0,0-6.7.025,2.839,2.839,0,0,0-8,.085c-.01.152,1.944.261,4.152,1.076C-1.632,1.954-.1,3.11,0,2.992" transform="translate(9 -188) rotate(-180)"/>
    <path id="Fill_13" data-name="Fill 13" d="M-4.032,38c.01.013.131-.069.354-.241a4.334,4.334,0,0,0,.4-.331l.5-.5a10.513,10.513,0,0,0,2.14-3.958,15.9,15.9,0,0,0,.492-6.653,24.231,24.231,0,0,0-2.606-7.741c-1.329-2.582-2.845-4.886-4.153-7.009a52.339,52.339,0,0,1-3.184-5.791c-.385-.857-.694-1.648-.944-2.352s-.423-1.323-.558-1.831l-.17-.679-.112-.5A1.393,1.393,0,0,0-11.991,0a1.406,1.406,0,0,0,.022.426c.016.139.034.311.065.513s.079.433.127.694c.107.52.263,1.151.482,1.874s.517,1.53.886,2.406A47.631,47.631,0,0,0-7.294,11.8c1.292,2.144,2.789,4.447,4.1,7a31.167,31.167,0,0,1,1.66,3.827A19.953,19.953,0,0,1-.6,26.376a16.006,16.006,0,0,1-.376,6.492A11,11,0,0,1-2.923,36.8l-.46.522c-.13.155-.266.26-.361.361-.2.193-.3.3-.288.316" transform="translate(48 -136) rotate(-180)"/>
    <path id="Fill_15" data-name="Fill 15" d="M-.285,0a1.653,1.653,0,0,0,0,.482c.007.157.026.35.034.579s.011.493.017.789A22.132,22.132,0,0,1-.816,6.833a42.068,42.068,0,0,1-2.422,7.1c-1.11,2.613-2.5,5.434-3.694,8.51A27.413,27.413,0,0,0-9,31.452,16.213,16.213,0,0,0-7.474,38.84a12.009,12.009,0,0,0,3.183,4.106l.668.5c.2.139.381.235.522.321A1.912,1.912,0,0,0-2.651,44a1.878,1.878,0,0,0-.389-.315c-.13-.1-.3-.207-.486-.356l-.626-.525a12.441,12.441,0,0,1-2.977-4.1A16.251,16.251,0,0,1-8.5,31.464,27.758,27.758,0,0,1-6.431,22.61c1.182-3.048,2.557-5.872,3.65-8.51A39.6,39.6,0,0,0-.447,6.9a19.885,19.885,0,0,0,.42-5.059c-.025-.3-.047-.564-.066-.795S-.154.627-.178.471A1.642,1.642,0,0,0-.285,0" transform="translate(7 -130) rotate(-180)"/>
    <path id="Fill_17" data-name="Fill 17" d="M-.841,1h.006A1.338,1.338,0,0,0-.106.691a.549.549,0,0,0,.1-.454c-.03-.184-.12-.282-.2-.216A1.167,1.167,0,0,1-.847.289C-.934.3-1,.461-1,.657S-.926,1-.841,1" transform="translate(31 -38) rotate(-180)"/>
    <path id="Fill_19" data-name="Fill 19" d="M-.162,1C-.1,1-.033.937-.01.836a.293.293,0,0,0-.1-.315A3,3,0,0,1-.751.039C-.826-.035-.927,0-.974.114a.33.33,0,0,0,.05.34,3.281,3.281,0,0,0,.708.53A.113.113,0,0,0-.162,1" transform="translate(33 -38) rotate(-180)"/>
    <path id="Fill_21" data-name="Fill 21" d="M-.219,1A.237.237,0,0,0-.066.946a.174.174,0,0,0,0-.27A3.647,3.647,0,0,1-.595.089.241.241,0,0,0-.9.028a.176.176,0,0,0-.07.263,4.06,4.06,0,0,0,.59.651A.238.238,0,0,0-.219,1" transform="translate(34 -37) rotate(-180)"/>
    <path id="Fill_23" data-name="Fill 23" d="M-.3,2A.349.349,0,0,0-.2,1.987a.246.246,0,0,0,.189-.318A7.673,7.673,0,0,1-.41.214.3.3,0,0,0-.747,0,.262.262,0,0,0-1,.289,8.151,8.151,0,0,0-.578,1.826.3.3,0,0,0-.3,2" transform="translate(35 -34) rotate(-180)"/>
    <path id="Fill_25" data-name="Fill 25" d="M-.173,2h.009C-.069,1.993,0,1.877,0,1.741-.017,1.3-.024.856-.03.418l0-.175C-.033.108-.11,0-.2,0h0c-.1,0-.171.113-.17.25l0,.175c.006.446.013.894.029,1.342C-.339,1.9-.263,2-.173,2" transform="translate(35.812 -33) rotate(-180)"/>
    <path id="Fill_27" data-name="Fill 27" d="M-.172,2h0C-.075,2,0,1.892,0,1.762Q-.009,1-.015.232C-.016.1-.093,0-.187,0h0c-.1,0-.171.107-.17.237Q-.353,1-.344,1.769c0,.128.078.231.172.231" transform="translate(35.821 -30) rotate(-180)"/>
    <path id="Fill_29" data-name="Fill 29" d="M-.172,2h0C-.076,2,0,1.888,0,1.753Q0,1-.007.244C-.007.109-.084,0-.179,0h0C-.275,0-.352.111-.351.247q0,.755.007,1.509c0,.135.078.244.172.244" transform="translate(35.825 -28) rotate(-180)"/>
    <path id="Fill_31" data-name="Fill 31" d="M-.172,2h0C-.077,2,0,1.889,0,1.754Q0,1,0,.246C0,.11-.077,0-.173,0S-.345.11-.345.246q0,.754,0,1.509c0,.136.077.245.172.245" transform="translate(35.827 -27) rotate(-180)"/>
    <path id="Fill_33" data-name="Fill 33" d="M-.178,2c.095,0,.172-.109.172-.245L0,.247C0,.112-.076,0-.171,0h0C-.267,0-.343.109-.344.244L-.35,1.754c0,.135.076.246.172.246Z" transform="translate(35.825 -24) rotate(-180)"/>
    <path id="Fill_35" data-name="Fill 35" d="M-.184,2c.094,0,.171-.1.172-.232Q-.007,1,0,.237C0,.108-.075,0-.17,0S-.343.1-.344.232Q-.351,1-.356,1.764c0,.13.075.235.17.236Z" transform="translate(35.822 -22) rotate(-180)"/>
    <path id="Fill_37" data-name="Fill 37" d="M-.186,2c.094,0,.171-.1.172-.244L0,.262C0,.12-.074,0-.169,0A.245.245,0,0,0-.344.255L-.359,1.727c0,.143.075.271.17.273Z" transform="translate(35.821 -20) rotate(-180)"/>
    <path id="Fill_39" data-name="Fill 39" d="M-.19,2c.094,0,.171-.112.172-.253L0,.261C0,.12-.074,0-.169,0h0c-.094,0-.17.112-.172.252L-.362,1.739c0,.142.074.259.169.261Z" transform="translate(35.819 -18) rotate(-180)"/>
    <path id="Fill_41" data-name="Fill 41" d="M-.188,1A.163.163,0,0,0-.016.852L0,.155A.162.162,0,0,0-.168,0,.162.162,0,0,0-.344.148l-.016.7A.162.162,0,0,0-.192,1Z" transform="translate(35.82 -17) rotate(-180)"/>
    <path id="Fill_43" data-name="Fill 43" d="M-.195,2c.093,0,.17-.112.172-.252L0,.264C0,.122-.073,0-.168,0S-.342.11-.344.252L-.367,1.737c0,.143.073.26.168.263Z" transform="translate(35.817 -15) rotate(-180)"/>
    <path id="Fill_45" data-name="Fill 45" d="M-.192,1A.17.17,0,0,0-.02.838L0,.027-.172,0-.343,0-.364.83A.169.169,0,0,0-.2,1Z" transform="translate(35.818 -13) rotate(-180)"/>
    <path id="Fill_47" data-name="Fill 47" d="M-.19,1A.167.167,0,0,0-.018.844L0,.165A.166.166,0,0,0-.168,0h0A.167.167,0,0,0-.344.156L-.362.835A.166.166,0,0,0-.195,1Z" transform="translate(35.819 -11) rotate(-180)"/>
    <path id="Fill_49" data-name="Fill 49" d="M-.192,1A.165.165,0,0,0-.02.849L0,.159A.163.163,0,0,0-.168,0,.16.16,0,0,0-.344.151l-.02.69A.163.163,0,0,0-.2,1Z" transform="translate(35.818 -9) rotate(-180)"/>
    <path id="Fill_51" data-name="Fill 51" d="M-.172,1h.01A.166.166,0,0,0,0,.828C-.014.6-.025.377-.031.159A.164.164,0,0,0-.207,0,.167.167,0,0,0-.375.167q.009.332.031.68A.168.168,0,0,0-.172,1" transform="translate(18.812 -9) rotate(-180)"/>
    <path id="Fill_53" data-name="Fill 53" d="M-.173,1h.021A.18.18,0,0,0,0,.8Q-.039.478-.067.165A.177.177,0,0,0-.255,0,.18.18,0,0,0-.41.2c.019.213.042.427.067.642A.176.176,0,0,0-.173,1" transform="translate(18.795 -11) rotate(-180)"/>
    <path id="Fill_55" data-name="Fill 55" d="M-.375,1C-.35,1-.327,1-.3,1c.2-.019.334-.11.295-.2Q-.144.469-.256.146C-.289.051-.481-.012-.685,0s-.343.1-.31.2Q-.88.53-.741.86c.036.083.192.14.367.14" transform="translate(18 -13) rotate(-180)"/>
    <path id="Fill_57" data-name="Fill 57" d="M-.348,1a.627.627,0,0,0,.1-.008C-.067.963.04.857-.014.755q-.159-.3-.3-.61A.418.418,0,0,0-.736.006c-.186.026-.3.13-.253.232.1.209.2.417.307.624A.384.384,0,0,0-.348,1" transform="translate(18 -14) rotate(-180)"/>
    <path id="Fill_59" data-name="Fill 59" d="M-.317,1A.49.49,0,0,0-.194.984C-.033.941.043.823-.025.72-.152.528-.272.332-.386.133A.383.383,0,0,0-.792.013c-.165.038-.249.154-.189.258.118.2.242.407.372.605A.355.355,0,0,0-.317,1" transform="translate(17 -15) rotate(-180)"/>
    <path id="Fill_61" data-name="Fill 61" d="M-.244,1A.309.309,0,0,0-.113.972.153.153,0,0,0-.039.724C-.213.526-.381.314-.54.1A.292.292,0,0,0-.87.021c-.119.046-.165.155-.1.242.165.228.34.448.521.655A.276.276,0,0,0-.244,1" transform="translate(16 -16) rotate(-180)"/>
    <path id="Fill_63" data-name="Fill 63" d="M-.217,1A.231.231,0,0,0-.072.95.183.183,0,0,0-.056.673c-.2-.195-.382-.4-.555-.6a.233.233,0,0,0-.3-.035A.183.183,0,0,0-.955.315c.18.21.374.418.577.62A.228.228,0,0,0-.217,1" transform="translate(16 -18) rotate(-180)"/>
    <path id="Fill_65" data-name="Fill 65" d="M-.179,1A.172.172,0,0,0-.038.925.21.21,0,0,0-.068.649C-.288.458-.5.257-.7.053a.167.167,0,0,0-.252.01.211.211,0,0,0,.01.278c.207.212.427.42.654.617A.167.167,0,0,0-.179,1" transform="translate(15 -19) rotate(-180)"/>
    <path id="Fill_67" data-name="Fill 67" d="M-.154,1A.154.154,0,0,0-.02.892.256.256,0,0,0-.078.606C-.313.426-.543.234-.761.036A.131.131,0,0,0-.974.094.261.261,0,0,0-.932.385c.225.2.461.4.7.588A.124.124,0,0,0-.154,1" transform="translate(14 -20) rotate(-180)"/>
    <path id="Fill_69" data-name="Fill 69" d="M-.192,1C-.117,1-.046.932-.015.821a.36.36,0,0,0-.1-.381Q-.425.244-.727.028c-.1-.069-.21-.006-.255.139A.371.371,0,0,0-.89.555q.309.222.625.422A.14.14,0,0,0-.192,1" transform="translate(12 -21) rotate(-180)"/>
    <path id="Fill_71" data-name="Fill 71" d="M-.155,1C-.089,1-.028.922-.007.8a.368.368,0,0,0-.1-.357C-.339.312-.568.169-.791.018c-.08-.055-.17.02-.2.168A.385.385,0,0,0-.9.552c.228.155.462.3.7.435A.094.094,0,0,0-.155,1" transform="translate(10 -22) rotate(-180)"/>
    <path id="Fill_73" data-name="Fill 73" d="M-.177,1C-.1,1-.023.89,0,.729.017.542-.043.356-.139.314-.266.259-.393.2-.518.141L-.778.012c-.1-.051-.192.062-.217.248A.439.439,0,0,0-.867.682Q-.735.75-.6.814c.129.062.258.121.387.177A.1.1,0,0,0-.177,1" transform="translate(9 -22) rotate(-180)"/>
    <path id="Fill_75" data-name="Fill 75" d="M-.144,1C-.073,1-.012.872,0,.695.01.5-.045.321-.123.293-.365.208-.6.111-.829.005-.908-.028-.983.1-1,.289S-.961.668-.883.7c.232.108.473.206.718.292A.064.064,0,0,0-.144,1" transform="translate(8 -22) rotate(-180)"/>
    <path id="Fill_77" data-name="Fill 77" d="M-.17.4A.17.17,0,0,0,0,.247.169.169,0,0,0-.157.064C-.375.046-.592.025-.81,0A.171.171,0,0,0-1,.15a.17.17,0,0,0,.15.187Q-.517.374-.184.4H-.17" transform="translate(7 -21.799) rotate(-180)"/>
    <path id="Fill_79" data-name="Fill 79" d="M-.252.369C-.114.369,0,.295,0,.2S-.11.032-.25.031C-.743.028-1.242.018-1.735,0-1.869,0-1.993.067-2,.161s.1.173.239.178c.5.017,1.007.027,1.506.03Z" transform="translate(5 -21.815) rotate(-180)"/>
    <path id="Fill_81" data-name="Fill 81" d="M-.855.365h0Q-.495.358-.139.339A.161.161,0,0,0,0,.161.154.154,0,0,0-.152,0Q-.5.02-.857.027A.159.159,0,0,0-1,.2.158.158,0,0,0-.855.365" transform="translate(3 -21.817) rotate(-180)"/>
    <path id="Fill_83" data-name="Fill 83" d="M-1.77,1h.017C-1.242.939-.722.861-.206.768-.079.745.012.555,0,.343S-.13-.014-.255,0c-.51.093-1.026.17-1.531.229-.127.015-.223.2-.214.411S-1.89,1-1.77,1" transform="translate(2 -22) rotate(-180)"/>
    <path id="Fill_85" data-name="Fill 85" d="M-.234,1A.169.169,0,0,0-.063.854C-.037.623-.017.4,0,.175A.166.166,0,0,0-.16,0,.17.17,0,0,0-.344.151Q-.368.479-.405.82A.166.166,0,0,0-.252,1h.018" transform="translate(45.797 -10) rotate(-180)"/>
    <path id="Fill_87" data-name="Fill 87" d="M-.605,1C-.416,1-.25.937-.217.848Q-.1.526,0,.208C.026.108-.124.016-.34,0S-.754.058-.784.158q-.1.312-.211.63c-.035.1.108.193.323.21.022,0,.045,0,.066,0" transform="translate(46 -11) rotate(-180)"/>
    <path id="Fill_89" data-name="Fill 89" d="M-.647,1A.394.394,0,0,0-.305.866C-.2.648-.1.429-.007.21.032.115-.091.023-.281,0S-.658.044-.7.139Q-.832.461-.99.784c-.046.094.07.188.259.211A.668.668,0,0,0-.647,1" transform="translate(46 -13) rotate(-180)"/>
    <path id="Fill_91" data-name="Fill 91" d="M-.668,1A.368.368,0,0,0-.353.869c.12-.205.232-.412.339-.621C.038.146-.062.038-.238.008a.411.411,0,0,0-.413.13Q-.808.444-.982.745c-.059.1.034.21.209.244A.562.562,0,0,0-.668,1" transform="translate(46 -15) rotate(-180)"/>
    <path id="Fill_93" data-name="Fill 93" d="M-.7,1A.34.34,0,0,0-.42.883c.138-.2.271-.4.4-.6C.041.178-.032.059-.187.016a.371.371,0,0,0-.4.11q-.185.3-.386.584c-.071.1-.007.223.145.271A.434.434,0,0,0-.7,1" transform="translate(47 -15) rotate(-180)"/>
    <path id="Fill_95" data-name="Fill 95" d="M-.765,1A.263.263,0,0,0-.572.923C-.386.72-.2.5-.032.274A.161.161,0,0,0-.116.025.277.277,0,0,0-.439.09C-.6.308-.778.518-.957.713A.158.158,0,0,0-.9.967.287.287,0,0,0-.765,1" transform="translate(48 -17) rotate(-180)"/>
    <path id="Fill_97" data-name="Fill 97" d="M-.789,1A.218.218,0,0,0-.639.941c.205-.2.4-.4.589-.611A.194.194,0,0,0-.075.047a.219.219,0,0,0-.3.024c-.178.2-.369.4-.567.588a.193.193,0,0,0,0,.283A.218.218,0,0,0-.789,1" transform="translate(49 -18) rotate(-180)"/>
    <path id="Fill_99" data-name="Fill 99" d="M-.825,1a.158.158,0,0,0,.1-.038c.229-.193.452-.4.662-.6A.227.227,0,0,0-.042.072.158.158,0,0,0-.287.048c-.2.2-.419.4-.64.584a.226.226,0,0,0-.04.284A.167.167,0,0,0-.825,1" transform="translate(49 -19) rotate(-180)"/>
    <path id="Fill_101" data-name="Fill 101" d="M-.849,1A.114.114,0,0,0-.781.976C-.537.8-.3.606-.073.407a.282.282,0,0,0,.051-.3C-.065,0-.158-.031-.229.032c-.22.193-.451.38-.688.553A.273.273,0,0,0-.984.879.156.156,0,0,0-.849,1" transform="translate(51 -20) rotate(-180)"/>
    <path id="Fill_103" data-name="Fill 103" d="M-.81,1A.133.133,0,0,0-.745.981c.211-.125.421-.257.629-.4a.39.39,0,0,0,.1-.4C-.055.032-.166-.041-.263.023q-.3.2-.613.387A.376.376,0,0,0-.988.8c.028.124.1.2.178.2" transform="translate(53 -21) rotate(-180)"/>
    <path id="Fill_105" data-name="Fill 105" d="M-.846,1A.083.083,0,0,0-.807.989c.24-.124.475-.258.7-.4a.41.41,0,0,0,.1-.38C-.033.051-.119-.037-.2.015c-.22.138-.45.27-.685.392A.386.386,0,0,0-.995.775C-.977.91-.915,1-.846,1" transform="translate(54 -22) rotate(-180)"/>
    <path id="Fill_107" data-name="Fill 107" d="M-.824,1A.094.094,0,0,0-.792.994Q-.6.921-.4.841C-.316.8-.227.766-.139.726S.017.488,0,.29-.119-.037-.214.009s-.173.076-.26.113c-.127.053-.254.1-.381.15C-.95.307-1.014.5-1,.7c.015.178.09.3.174.3" transform="translate(56 -22) rotate(-180)"/>
    <path id="Fill_109" data-name="Fill 109" d="M-.857,1h.014A6.826,6.826,0,0,0-.123.766C-.045.736.01.541,0,.33S-.086-.024-.164,0A6.441,6.441,0,0,1-.87.231C-.949.252-1.007.44-1,.652S-.93,1-.857,1" transform="translate(56 -22) rotate(-180)"/>
    <path id="Fill_111" data-name="Fill 111" d="M-.83.373h.006Q-.49.361-.158.338A.17.17,0,0,0,0,.157.173.173,0,0,0-.182,0Q-.508.023-.836.035A.17.17,0,0,0-1,.211.17.17,0,0,0-.83.373" transform="translate(58 -21.813) rotate(-180)"/>
    <path id="Fill_113" data-name="Fill 113" d="M-.537.353H-.25C-.111.351,0,.275,0,.181S-.118.007-.254.013c-.494,0-.993,0-1.486-.013C-1.874,0-2,.07-2,.163s.1.172.243.175c.4.009.813.014,1.219.014" transform="translate(59 -21.824) rotate(-180)"/>
    <path id="Fill_115" data-name="Fill 115" d="M-.145.4A.157.157,0,0,0,0,.242.162.162,0,0,0-.137.063Q-.49.038-.841,0A.153.153,0,0,0-1,.154.164.164,0,0,0-.868.338Q-.512.376-.154.4h.009" transform="translate(61 -21.799) rotate(-180)"/>
    <path id="Fill_117" data-name="Fill 117" d="M-.231,1C-.115,1-.015.87,0,.694S-.078.332-.205.311C-.708.224-1.223.122-1.734,0c-.129-.031-.245.1-.264.29S-1.93.66-1.8.689C-1.287.807-.767.911-.257,1l.027,0" transform="translate(62 -22) rotate(-180)"/>
    <path id="Fill_119" data-name="Fill 119" d="M-.855.419h.014l.709-.08A.165.165,0,0,0,0,.153.159.159,0,0,0-.159,0l-.71.08A.165.165,0,0,0-1,.266.156.156,0,0,0-.855.419" transform="translate(5 -1.791) rotate(-180)"/>
    <path id="Fill_121" data-name="Fill 121" d="M-1.746,1h.025L-.229.777C-.09.756.012.565,0,.351S-.144-.007-.278,0L-1.771.222C-1.91.243-2.012.433-2,.648S-1.875,1-1.746,1" transform="translate(7 -2) rotate(-180)"/>
    <path id="Fill_123" data-name="Fill 123" d="M-.834.4h.016L-.15.339A.169.169,0,0,0,0,.154.165.165,0,0,0-.182,0L-.85.066A.169.169,0,0,0-1,.25.167.167,0,0,0-.834.4" transform="translate(9 -1.798) rotate(-180)"/>
    <path id="Fill_125" data-name="Fill 125" d="M-1.767,1h.022L-.212.768C-.083.747.011.56,0,.349S-.123-.02-.255,0L-1.788.234C-1.916.253-2.011.44-2,.651S-1.886,1-1.767,1" transform="translate(10 -2) rotate(-180)"/>
    <path id="Fill_127" data-name="Fill 127" d="M-.821.391h.016L-.164.338A.173.173,0,0,0,0,.155.177.177,0,0,0-.195,0L-.836.053A.172.172,0,0,0-1,.237.175.175,0,0,0-.821.391" transform="translate(13 -2.804) rotate(-180)"/>
    <path id="Fill_129" data-name="Fill 129" d="M-1.737.416h.021L-.242.339C-.1.332.011.25,0,.157S-.141-.012-.284,0L-1.757.078C-1.9.085-2.01.167-2,.26s.126.156.262.156" transform="translate(15 -2.792) rotate(-180)"/>
    <path id="Fill_131" data-name="Fill 131" d="M-1.762.417h.017L-.22.338C-.089.331.009.25,0,.157S-.131,0-.256,0L-1.778.079C-1.91.085-2.009.166-2,.26a.22.22,0,0,0,.237.158" transform="translate(16 -2.791) rotate(-180)"/>
    <path id="Fill_133" data-name="Fill 133" d="M-.842.371h.007L-.151.339A.165.165,0,0,0,0,.161.173.173,0,0,0-.165,0L-.849.032A.165.165,0,0,0-1,.209.164.164,0,0,0-.842.371" transform="translate(23 -2.815) rotate(-180)"/>
    <path id="Fill_135" data-name="Fill 135" d="M-.854.366h0L-.14.339A.161.161,0,0,0,0,.163.158.158,0,0,0-.151,0L-.859.027A.161.161,0,0,0-1,.2.158.158,0,0,0-.854.366" transform="translate(24 -2.817) rotate(-180)"/>
    <path id="Fill_137" data-name="Fill 137" d="M-1.769.36h0Q-1,.352-.226.339C-.1.336,0,.259,0,.165S-.119,0-.236,0q-.769.013-1.536.022C-1.9.023-2,.1-2,.193s.105.167.231.167" transform="translate(26 -2.82) rotate(-180)"/>
    <path id="Fill_139" data-name="Fill 139" d="M-.843.342h0l.686,0A.164.164,0,0,0,0,.168.164.164,0,0,0-.157,0h0L-.843,0A.163.163,0,0,0-1,.173.164.164,0,0,0-.843.342" transform="translate(29 -2.829) rotate(-180)"/>
    <path id="Fill_141" data-name="Fill 141" d="M-.855.418h.014l.709-.08A.165.165,0,0,0,0,.153.158.158,0,0,0-.159,0l-.71.08A.165.165,0,0,0-1,.265.156.156,0,0,0-.855.418" transform="translate(4 -5.791) rotate(-180)"/>
    <path id="Fill_143" data-name="Fill 143" d="M-1.746,1h.025L-.229.777C-.09.757.012.567,0,.352S-.137-.02-.278,0L-1.771.223C-1.91.244-2.012.434-2,.648S-1.875,1-1.746,1" transform="translate(6 -5) rotate(-180)"/>
    <path id="Fill_145" data-name="Fill 145" d="M-.834.4h.016L-.15.339A.169.169,0,0,0,0,.154.165.165,0,0,0-.182,0L-.85.066A.168.168,0,0,0-1,.251.167.167,0,0,0-.834.4" transform="translate(9 -5.798) rotate(-180)"/>
    <path id="Fill_147" data-name="Fill 147" d="M-1.767,1h.021Q-.98.885-.212.768C-.083.748.011.561,0,.349S-.123-.02-.255,0q-.767.117-1.533.231C-1.916.252-2.01.439-2,.65s.113.35.232.35" transform="translate(9 -6) rotate(-180)"/>
    <path id="Fill_149" data-name="Fill 149" d="M-.821.391h.016L-.164.338A.173.173,0,0,0,0,.155.178.178,0,0,0-.195,0L-.836.053A.172.172,0,0,0-1,.236.175.175,0,0,0-.821.391" transform="translate(12 -5.804) rotate(-180)"/>
    <path id="Fill_151" data-name="Fill 151" d="M-1.737.416h.022L-.241.339C-.1.331.011.249,0,.156S-.132-.011-.285,0L-1.758.078C-1.9.085-2.011.167-2,.26s.126.156.262.156" transform="translate(14 -6.792) rotate(-180)"/>
    <path id="Fill_153" data-name="Fill 153" d="M-1.762.417h.017L-.22.338C-.089.331.009.25,0,.157S-.124,0-.256,0L-1.778.079C-1.91.085-2.009.167-2,.26a.22.22,0,0,0,.237.158" transform="translate(16 -6.791) rotate(-180)"/>
    <path id="Fill_155" data-name="Fill 155" d="M-.842.371h.007L-.15.339A.165.165,0,0,0,0,.161.16.16,0,0,0-.165,0L-.849.033A.166.166,0,0,0-1,.209.164.164,0,0,0-.842.371" transform="translate(22 -6.814) rotate(-180)"/>
    <path id="Fill_157" data-name="Fill 157" d="M-.854.366h0L-.14.339A.161.161,0,0,0,0,.164.152.152,0,0,0-.151,0L-.859.028A.161.161,0,0,0-1,.2.158.158,0,0,0-.854.366" transform="translate(23 -6.817) rotate(-180)"/>
    <path id="Fill_159" data-name="Fill 159" d="M-1.769.36h0Q-1,.351-.226.339C-.1.336,0,.259,0,.165S-.124,0-.236,0q-.769.013-1.536.022C-1.9.023-2,.1-2,.193s.105.167.231.167" transform="translate(25 -6.82) rotate(-180)"/>
    <path id="Fill_161" data-name="Fill 161" d="M-1.464.342q.61,0,1.22,0C-.108.338,0,.261,0,.168S-.111,0-.245,0h0Q-1,0-1.754,0h0C-1.89,0-2,.078-2,.172s.11.17.245.17h.291" transform="translate(27 -6.829) rotate(-180)"/>
    <path id="Fill_163" data-name="Fill 163" d="M-.854.364h0L-.141.339A.161.161,0,0,0,0,.164.158.158,0,0,0-.146,0h0L-.858.025A.16.16,0,0,0-1,.2.158.158,0,0,0-.854.364" transform="translate(30 -2.818) rotate(-180)"/>
    <path id="Fill_165" data-name="Fill 165" d="M-.829.344h0L-.169.339A.169.169,0,0,0,0,.168.17.17,0,0,0-.171,0h0L-.83.006A.17.17,0,0,0-1,.176.17.17,0,0,0-.829.344" transform="translate(35 -2.828) rotate(-180)"/>
    <path id="Fill_167" data-name="Fill 167" d="M-.31.34h.17A.157.157,0,0,0,0,.17.156.156,0,0,0-.14,0H-.86A.157.157,0,0,0-1,.169a.157.157,0,0,0,.14.17h.55" transform="translate(36 -2.83) rotate(-180)"/>
    <path id="Fill_169" data-name="Fill 169" d="M-.262.348C-.118.348,0,.273,0,.18S-.115.01-.26.009L-1.735,0h0C-1.882,0-2,.074-2,.167s.114.17.259.171L-.264.348Z" transform="translate(38 -2.826) rotate(-180)"/>
    <path id="Fill_171" data-name="Fill 171" d="M-.218.362A.2.2,0,0,0,0,.2.2.2,0,0,0-.214.024Q-1,.014-1.777,0h-.005A.2.2,0,0,0-2,.165a.2.2,0,0,0,.213.173Q-1,.352-.222.362Z" transform="translate(40 -2.819) rotate(-180)"/>
    <path id="Fill_173" data-name="Fill 173" d="M-.187.355A.18.18,0,0,0,0,.191.178.178,0,0,0-.182.017L-.807,0A.174.174,0,0,0-1,.164.178.178,0,0,0-.818.339l.626.017Z" transform="translate(42 -2.822) rotate(-180)"/>
    <path id="Fill_175" data-name="Fill 175" d="M-.253.386C-.119.386-.007.315,0,.224S-.1.051-.242.047L-1.734,0C-1.856,0-1.993.067-2,.161s.1.173.241.178L-.264.386Z" transform="translate(46 -2.807) rotate(-180)"/>
    <path id="Fill_177" data-name="Fill 177" d="M-.14.388A.155.155,0,0,0,0,.228.161.161,0,0,0-.132.049L-.852,0A.151.151,0,0,0-1,.16.16.16,0,0,0-.869.338l.721.049Z" transform="translate(48 -2.806) rotate(-180)"/>
    <path id="Fill_179" data-name="Fill 179" d="M-.246.406C-.118.406-.009.337,0,.247S-.1.074-.231.068L-1.737,0C-1.875-.006-1.99.065-2,.158s.094.174.23.18L-.262.406h.016" transform="translate(49 -2.797) rotate(-180)"/>
    <path id="Fill_181" data-name="Fill 181" d="M-.145.4A.157.157,0,0,0,0,.243.163.163,0,0,0-.135.062L-.843,0A.154.154,0,0,0-1,.157.163.163,0,0,0-.866.338L-.156.4h.011" transform="translate(52 -2.8) rotate(-180)"/>
    <path id="Fill_183" data-name="Fill 183" d="M-.262.416C-.126.416-.012.349,0,.26S-.1.085-.242.078L-1.716,0c-.147-.01-.272.062-.284.155s.1.175.24.183L-.283.416h.021" transform="translate(54 -2.792) rotate(-180)"/>
    <path id="Fill_185" data-name="Fill 185" d="M-.146.412A.156.156,0,0,0,0,.257.164.164,0,0,0-.133.074L-.841,0A.156.156,0,0,0-1,.154.164.164,0,0,0-.867.338l.708.073h.013" transform="translate(56 -1.794) rotate(-180)"/>
    <path id="Fill_187" data-name="Fill 187" d="M-.149.416A.158.158,0,0,0,0,.263.165.165,0,0,0-.135.078L-.837,0A.157.157,0,0,0-1,.153.165.165,0,0,0-.866.338l.7.078h.014" transform="translate(58 -1.792) rotate(-180)"/>
    <path id="Fill_189" data-name="Fill 189" d="M-.264,1C-.13,1-.015.852,0,.651S-.092.247-.237.226Q-.973.115-1.708,0C-1.85-.02-1.983.134-2,.348s.09.4.235.426Q-1.027.889-.291,1l.027,0" transform="translate(59 -1) rotate(-180)"/>
    <path id="Fill_191" data-name="Fill 191" d="M-.854.357h0L-.142.339A.161.161,0,0,0,0,.165.164.164,0,0,0-.149,0L-.857.018A.16.16,0,0,0-1,.191.158.158,0,0,0-.854.357" transform="translate(30 -7.822) rotate(-180)"/>
    <path id="Fill_193" data-name="Fill 193" d="M-.829.339h.658A.17.17,0,0,0,0,.169.17.17,0,0,0-.171,0H-.829A.17.17,0,0,0-1,.169a.17.17,0,0,0,.171.17" transform="translate(35 -7.831) rotate(-180)"/>
    <path id="Fill_195" data-name="Fill 195" d="M-.14.347A.157.157,0,0,0,0,.179.157.157,0,0,0-.14.008L-.858,0h0A.157.157,0,0,0-1,.167.158.158,0,0,0-.861.339l.72.008Z" transform="translate(36 -7.827) rotate(-180)"/>
    <path id="Fill_197" data-name="Fill 197" d="M-.262.356C-.119.356,0,.282,0,.189S-.113.019-.258.017L-1.733,0C-1.891,0-2,.073-2,.166s.111.171.256.173L-.266.356Z" transform="translate(38 -7.822) rotate(-180)"/>
    <path id="Fill_199" data-name="Fill 199" d="M-.218.372A.2.2,0,0,0,0,.207.2.2,0,0,0-.213.034Q-.994.019-1.775,0C-1.913,0-2,.071-2,.164a.194.194,0,0,0,.211.174q.782.019,1.565.034Z" transform="translate(40 -7.814) rotate(-180)"/>
    <path id="Fill_201" data-name="Fill 201" d="M-.187.36A.18.18,0,0,0,0,.2.178.178,0,0,0-.181.021L-.805,0A.177.177,0,0,0-1,.163.178.178,0,0,0-.82.339L-.194.36Z" transform="translate(42 -7.82) rotate(-180)"/>
    <path id="Fill_203" data-name="Fill 203" d="M-.253.394c.133,0,.245-.07.253-.16S-.1.061-.24.056Q-.986.029-1.732,0C-1.888-.006-1.991.066-2,.16s.1.174.238.179L-.267.394Z" transform="translate(46 -6.803) rotate(-180)"/>
    <path id="Fill_205" data-name="Fill 205" d="M-.139.395A.155.155,0,0,0,0,.236.161.161,0,0,0-.131.056L-.851,0A.151.151,0,0,0-1,.158a.162.162,0,0,0,.13.18l.721.056h.009" transform="translate(48 -6.803) rotate(-180)"/>
    <path id="Fill_207" data-name="Fill 207" d="M-.246.414C-.118.414-.01.346,0,.257S-.093.083-.229.076L-1.735,0c-.13-.005-.254.063-.264.156s.092.174.228.182L-.264.414h.018" transform="translate(49 -6.793) rotate(-180)"/>
    <path id="Fill_209" data-name="Fill 209" d="M-.145.407A.156.156,0,0,0,0,.251.163.163,0,0,0-.134.069L-.842,0A.153.153,0,0,0-1,.155.163.163,0,0,0-.867.339l.71.068h.012" transform="translate(52 -6.796) rotate(-180)"/>
    <path id="Fill_211" data-name="Fill 211" d="M-.262.424C-.128.424-.013.358,0,.27S-.1.094-.24.086L-1.713,0c-.141-.01-.273.06-.286.153s.093.176.238.184L-.286.424h.024" transform="translate(54 -6.788) rotate(-180)"/>
    <path id="Fill_213" data-name="Fill 213" d="M-.146.418A.156.156,0,0,0,0,.265.165.165,0,0,0-.132.08L-.84,0A.153.153,0,0,0-1,.153.164.164,0,0,0-.868.338l.708.08h.014" transform="translate(56 -6.791) rotate(-180)"/>
    <path id="Fill_215" data-name="Fill 215" d="M-.149.423A.158.158,0,0,0,0,.271.165.165,0,0,0-.133.085L-.835,0A.157.157,0,0,0-1,.151.165.165,0,0,0-.867.338l.7.084h.016" transform="translate(58 -5.789) rotate(-180)"/>
    <path id="Fill_217" data-name="Fill 217" d="M-.264,1C-.131,1-.017.856,0,.661S-.09.264-.236.241L-1.706,0C-1.849-.027-1.982.13-2,.339s.087.4.233.421Q-1.029.882-.294,1l.03,0" transform="translate(59 -6) rotate(-180)"/>
    <path id="Fill_219" data-name="Fill 219" d="M-.854.372h.006L-.14.339A.162.162,0,0,0,0,.162.158.158,0,0,0-.146,0H-.152L-.86.033A.162.162,0,0,0-1,.209.158.158,0,0,0-.854.372" transform="translate(32 -7.814) rotate(-180)"/>
    <path id="Fill_221" data-name="Fill 221" d="M-.768.355h.009L-.222.339C-.094.335.005.256,0,.162S-.1,0-.241,0L-.778.016C-.905.02-1,.1-1,.192s.108.162.231.162" transform="translate(34 -7.823) rotate(-180)"/>
    <path id="Fill_223" data-name="Fill 223" d="M-.151.425A.159.159,0,0,0,0,.275.166.166,0,0,0-.135.087L-.832,0A.159.159,0,0,0-1,.151.166.166,0,0,0-.865.338l.7.087h.017" transform="translate(61 -5.787) rotate(-180)"/>
    <path id="Fill_225" data-name="Fill 225" d="M-.816.431l.028,0Q-.471.385-.154.337A.171.171,0,0,0,0,.142.184.184,0,0,0-.214,0c-.21.032-.419.062-.629.091A.172.172,0,0,0-1,.286.18.18,0,0,0-.816.431" transform="translate(10 -199.785) rotate(-180)"/>
    <path id="Fill_227" data-name="Fill 227" d="M-.815.411h.022Q-.476.376-.161.337A.173.173,0,0,0,0,.147.184.184,0,0,0-.21,0Q-.523.04-.837.074A.174.174,0,0,0-1,.262.18.18,0,0,0-.815.411" transform="translate(12 -199.794) rotate(-180)"/>
    <path id="Fill_229" data-name="Fill 229" d="M-.814.4H-.8Q-.482.369-.166.338A.174.174,0,0,0,0,.152.181.181,0,0,0-.206,0q-.312.03-.625.056A.175.175,0,0,0-1,.241.18.18,0,0,0-.814.4" transform="translate(13 -199.802) rotate(-180)"/>
    <path id="Fill_231" data-name="Fill 231" d="M-.833.386h.011Q-.488.365-.154.338A.169.169,0,0,0,0,.156.17.17,0,0,0-.18,0Q-.512.027-.844.048A.168.168,0,0,0-1,.228.168.168,0,0,0-.833.386" transform="translate(14 -199.807) rotate(-180)"/>
    <path id="Fill_233" data-name="Fill 233" d="M-.816.36h.006Q-.493.351-.176.339A.176.176,0,0,0,0,.162.183.183,0,0,0-.192,0q-.314.013-.63.021A.176.176,0,0,0-1,.2.178.178,0,0,0-.816.36" transform="translate(16 -199.82) rotate(-180)"/>
    <path id="Fill_235" data-name="Fill 235" d="M-.724.342q.28,0,.561,0A.168.168,0,0,0,0,.167.166.166,0,0,0-.168,0Q-.5,0-.834,0h0A.167.167,0,0,0-1,.173a.167.167,0,0,0,.166.17h.11" transform="translate(17 -199.829) rotate(-180)"/>
    <path id="Fill_237" data-name="Fill 237" d="M-.176.358A.173.173,0,0,0,0,.193.173.173,0,0,0-.172.02Q-.495.012-.817,0A.173.173,0,0,0-1,.163.173.173,0,0,0-.831.339q.325.012.65.019Z" transform="translate(19 -199.821) rotate(-180)"/>
    <path id="Fill_239" data-name="Fill 239" d="M-.155.387A.162.162,0,0,0,0,.227.164.164,0,0,0-.147.048Q-.49.028-.833,0A.159.159,0,0,0-1,.157.166.166,0,0,0-.856.338q.346.028.692.048h.009" transform="translate(20 -199.807) rotate(-180)"/>
    <path id="Fill_241" data-name="Fill 241" d="M-.2.386A.194.194,0,0,0,0,.233.182.182,0,0,0-.186.049L-.775,0A.2.2,0,0,0-1,.152.181.181,0,0,0-.816.338l.593.048H-.2" transform="translate(22 -199.807) rotate(-180)"/>
    <path id="Fill_243" data-name="Fill 243" d="M-.154,1C-.077,1-.011.857,0,.662c.01-.211-.05-.4-.134-.43C-.365.161-.595.084-.824,0-.906-.025-.987.12-1,.331s.047.406.131.435Q-.52.89-.173,1A.064.064,0,0,0-.154,1" transform="translate(23 -199) rotate(-180)"/>
    <path id="Fill_245" data-name="Fill 245" d="M-.176,1C-.091,1-.016.866,0,.677.013.467-.053.271-.149.238Q-.472.127-.794.006c-.095-.037-.187.1-.2.314s.048.407.144.443Q-.528.884-.2,1A.087.087,0,0,0-.176,1" transform="translate(24 -199) rotate(-180)"/>
    <path id="Fill_247" data-name="Fill 247" d="M-.184.431A.18.18,0,0,0,0,.286.172.172,0,0,0-.157.094C-.367.065-.576.034-.786,0A.183.183,0,0,0-1,.142.171.171,0,0,0-.846.337q.317.048.634.092l.028,0" transform="translate(55 -198.785) rotate(-180)"/>
    <path id="Fill_249" data-name="Fill 249" d="M-.185.412A.18.18,0,0,0,0,.263.174.174,0,0,0-.163.074Q-.477.04-.79,0A.181.181,0,0,0-1,.148a.173.173,0,0,0,.159.19q.315.038.632.073h.022" transform="translate(53 -199.794) rotate(-180)"/>
    <path id="Fill_251" data-name="Fill 251" d="M-.186.395A.18.18,0,0,0,0,.241.175.175,0,0,0-.169.057Q-.482.03-.795,0A.185.185,0,0,0-1,.152.174.174,0,0,0-.834.338q.315.03.63.056h.018" transform="translate(52 -199.803) rotate(-180)"/>
    <path id="Fill_253" data-name="Fill 253" d="M-.167.386A.168.168,0,0,0,0,.228.168.168,0,0,0-.157.048Q-.489.027-.82,0A.171.171,0,0,0-1,.156.169.169,0,0,0-.846.338q.334.027.669.048h.011" transform="translate(50 -199.807) rotate(-180)"/>
    <path id="Fill_255" data-name="Fill 255" d="M-.184.36A.178.178,0,0,0,0,.2.176.176,0,0,0-.178.021C-.388.015-.6.008-.808,0A.184.184,0,0,0-1,.162.176.176,0,0,0-.824.339Q-.507.351-.19.36Z" transform="translate(49 -199.82) rotate(-180)"/>
    <path id="Fill_257" data-name="Fill 257" d="M-.263.342h.1A.167.167,0,0,0,0,.173.167.167,0,0,0-.166,0h0C-.39,0-.61,0-.832,0h0A.168.168,0,0,0-1,.167.167.167,0,0,0-.836.339c.191,0,.382,0,.573,0" transform="translate(48 -199.829) rotate(-180)"/>
    <path id="Fill_259" data-name="Fill 259" d="M-.824.358h0Q-.495.351-.17.34A.173.173,0,0,0,0,.164.163.163,0,0,0-.183,0C-.4.009-.612.015-.828.02A.173.173,0,0,0-1,.193.173.173,0,0,0-.824.358" transform="translate(46 -199.821) rotate(-180)"/>
    <path id="Fill_261" data-name="Fill 261" d="M-.845.386h.009Q-.49.365-.144.338A.166.166,0,0,0,0,.157.161.161,0,0,0-.167,0Q-.51.027-.853.048A.164.164,0,0,0-1,.226a.162.162,0,0,0,.155.16" transform="translate(45 -199.807) rotate(-180)"/>
    <path id="Fill_263" data-name="Fill 263" d="M-.8.386h.019q.3-.022.593-.048A.181.181,0,0,0,0,.151.2.2,0,0,0-.226,0c-.2.017-.392.033-.588.048A.182.182,0,0,0-1,.233.194.194,0,0,0-.8.386" transform="translate(43 -199.807) rotate(-180)"/>
    <path id="Fill_265" data-name="Fill 265" d="M-.846,1A.064.064,0,0,0-.827,1C-.6.925-.364.849-.132.766-.048.736.01.541,0,.33S-.091-.023-.176,0Q-.52.125-.865.232C-.949.259-1.009.451-1,.662c.01.2.076.338.153.338" transform="translate(42 -199) rotate(-180)"/>
    <path id="Fill_267" data-name="Fill 267" d="M-.824,1A.084.084,0,0,0-.8,1q.325-.11.651-.233C-.05.727.014.528,0,.32s-.106-.354-.2-.312Q-.528.128-.851.238C-.947.27-1.013.467-1,.676-.984.865-.909,1-.824,1" transform="translate(41 -199) rotate(-180)"/>
    <path id="Fill_269" data-name="Fill 269" d="M-16.151,9h.018c4.555-.235,9.577-.62,15.806-1.213A.373.373,0,0,0,0,7.388,61.127,61.127,0,0,0-.879.669L-.938.314A.364.364,0,0,0-1.337,0C-5.622.568-11.064,1.058-16.66,1.38a.372.372,0,0,0-.339.4.361.361,0,0,0,.378.357C-11.155,1.821-5.834,1.348-1.587.8h0c.381,2.286.713,4.278.846,6.265-6.058.573-10.968.948-15.428,1.178a.371.371,0,0,0-.341.4.368.368,0,0,0,.359.36" transform="translate(3) rotate(-180)"/>
    <path id="Fill_271" data-name="Fill 271" d="M-8.623,1h0C-5.972,1-3.27.937-.362.816A.4.4,0,0,0,0,.393.382.382,0,0,0-.391,0c-2.9.12-5.59.18-8.232.183A.393.393,0,0,0-9,.593.393.393,0,0,0-8.623,1" transform="translate(22 -8) rotate(-180)"/>
    <path id="Fill_273" data-name="Fill 273" d="M-7.65,1h0C-5.488.989-3.028.916-.335.785A.378.378,0,0,0,0,.376.374.374,0,0,0-.366,0C-3.049.131-5.5.2-7.651.214A.374.374,0,0,0-8,.609.373.373,0,0,0-7.65,1" transform="translate(22 -2) rotate(-180)"/>
    <path id="Fill_275" data-name="Fill 275" d="M-6.219,8c1.952,0,3.909-.028,5.833-.082a.364.364,0,0,0,.36-.342c.054-1.394.013-2.529-.027-3.627C-.088,2.978-.125,1.975-.094.8L-.079.39A.37.37,0,0,0-.187.115.355.355,0,0,0-.464,0C-5.032.174-9.625.209-14.116.1h-.009A.364.364,0,0,0-14.5.45a.363.363,0,0,0,.362.364c4.375.1,8.848.073,13.3-.088l0,.052c-.031,1.2.006,2.214.041,3.195.036,1,.073,2.023.039,3.243-2.185.058-4.409.081-6.617.069-2.363-.01-4.8-.064-7.239-.159A.366.366,0,0,0-15,7.467a.363.363,0,0,0,.356.37c2.449.1,4.894.15,7.266.16Q-6.8,8-6.219,8" transform="translate(29 -1) rotate(-180)"/>
    <path id="Fill_277" data-name="Fill 277" d="M-.855,9a.361.361,0,0,0,.361-.341A.36.36,0,0,0-.836,8.28c-5.329-.289-10.514-.775-15.416-1.446.156-1.965.443-3.805.774-5.917l.024-.156c4.779.584,9.85.98,15.078,1.179A.363.363,0,0,0,0,1.594.361.361,0,0,0-.348,1.22C-5.684,1.018-10.853.608-15.713,0a.358.358,0,0,0-.4.3l-.078.5C-16.545,3.054-16.849,5-17,7.12a.361.361,0,0,0,.311.382C-11.666,8.2-6.346,8.7-.875,9h.02" transform="translate(46) rotate(-180)"/>
    <path id="Fill_279" data-name="Fill 279" d="M-2.787,32a3.966,3.966,0,0,0,2.439-.793.347.347,0,0,0,.138-.272L0,.357A.365.365,0,0,0-.373,0h0A.366.366,0,0,0-.751.352l-.208,30.4a3.466,3.466,0,0,1-2.78.418A4.255,4.255,0,0,1-6.666,28.76a11.945,11.945,0,0,1-.574-4.778L-6.892.364A.365.365,0,0,0-7.263,0a.36.36,0,0,0-.381.35l-.348,23.619a12.441,12.441,0,0,0,.629,5.053,5,5,0,0,0,3.436,2.836A4.842,4.842,0,0,0-2.787,32" transform="translate(29 -9) rotate(-180)"/>
    <path id="Fill_281" data-name="Fill 281" d="M-3.094,9a.2.2,0,0,0,.033,0c.987-.1,1.74-.16,2.238-.178a.922.922,0,0,0,.766-.785,3.045,3.045,0,0,0,.038-.945L-.357,2.14v-.01A4.477,4.477,0,0,0-.569.879,1.189,1.189,0,0,0-1.574,0h-.009a11.915,11.915,0,0,0-1.7.18L-3.7.244A.344.344,0,0,0-3.94.4.384.384,0,0,0-3.99.694a44.05,44.05,0,0,1,.55,7.921.379.379,0,0,0,.105.283A.336.336,0,0,0-3.094,9ZM-1.574.729h0c.1,0,.263.156.361.417a3.885,3.885,0,0,1,.165,1.047L-.71,7.142a2.43,2.43,0,0,1-.017.71.415.415,0,0,1-.133.24c-.432.014-1.063.061-1.876.14a49.1,49.1,0,0,0-.5-7.322L-3.179.9h.005A11.352,11.352,0,0,1-1.576.73Z" transform="translate(18 -1) rotate(-180)"/>
    <path id="Fill_283" data-name="Fill 283" d="M-.9,10a.324.324,0,0,0,.242-.112.414.414,0,0,0,.1-.3A56.007,56.007,0,0,1-.009.7.422.422,0,0,0-.062.394.337.337,0,0,0-.3.232C-.436.214-.569.194-.7.174l-.03,0-.015,0A11.62,11.62,0,0,0-2.45,0h-.02c-.421,0-.82.382-1.016.969a5.122,5.122,0,0,0-.2,1.364v.012l-.278,5.407c0,.059-.007.125-.013.2a3.745,3.745,0,0,0,.02,1.026c.058.237.193.791.646.879a8.41,8.41,0,0,0,1.58.116c.284,0,.553.005.8.028ZM-2.467.774A11.287,11.287,0,0,1-.823.936l.032,0,.032,0a61.149,61.149,0,0,0-.5,8.259c-.149,0-.291-.006-.461-.007h-.016a7.817,7.817,0,0,1-1.452-.105s0-.011-.007-.024a1.91,1.91,0,0,1-.092-.3,3.343,3.343,0,0,1,0-.761l0-.03c0-.065.009-.127.011-.183L-3,2.39V2.383a4.473,4.473,0,0,1,.154-1.141C-2.743.949-2.574.774-2.467.774Z" transform="translate(43) rotate(-180)"/>
    <path id="Fill_285" data-name="Fill 285" d="M-2.029,4A2.048,2.048,0,0,0-.763,3.578,2.074,2.074,0,0,0-.1,1.346,1.924,1.924,0,0,0-1.686.017,2.029,2.029,0,0,0-1.948,0,2.059,2.059,0,0,0-3.655.929a2.043,2.043,0,0,0-.122,2.06,1.941,1.941,0,0,0,.683.717A2.012,2.012,0,0,0-2.029,4ZM-1.947.527a1.5,1.5,0,0,1,.192.012A1.4,1.4,0,0,1-.6,1.515a1.532,1.532,0,0,1-.49,1.649,1.523,1.523,0,0,1-.939.313,1.5,1.5,0,0,1-.79-.218,1.416,1.416,0,0,1-.5-.521,1.5,1.5,0,0,1,.1-1.517A1.536,1.536,0,0,1-1.947.527Z" transform="translate(31 -3) rotate(-180)"/>
    <path id="Fill_287" data-name="Fill 287" d="M-1.6,3a1.653,1.653,0,0,0,.672-.145A1.493,1.493,0,0,0-.042,1.81c.009-.047.017-.083.025-.11A.474.474,0,0,0,0,1.506c0-.02-.007-.053-.011-.113A1.476,1.476,0,0,0-.748.25,1.63,1.63,0,0,0-1.6,0a1.358,1.358,0,0,0-.65.161A1.5,1.5,0,0,0-3,1.425a1.5,1.5,0,0,0,.583,1.323A1.384,1.384,0,0,0-1.6,3ZM-1.6.622a1.116,1.116,0,0,1,.576.169.874.874,0,0,1,.445.652c0,.055.008.092.011.117l-.006.027c-.005.024-.012.052-.019.089a.893.893,0,0,1-.542.6,1.153,1.153,0,0,1-.461.1.853.853,0,0,1-.5-.151.87.87,0,0,1-.328-.767A.882.882,0,0,1-2,.717.827.827,0,0,1-1.6.622Z" transform="translate(16 -8) rotate(-180)"/>
    <path id="Fill_289" data-name="Fill 289" d="M-3.036,12c.785,0,1.6-.04,2.7-.1A.355.355,0,0,0,0,11.526a.36.36,0,0,0-.373-.336,27.889,27.889,0,0,1-6.036-.138A13.083,13.083,0,0,1-13.04,8.6,8.052,8.052,0,0,1-15.555,4.75,20.892,20.892,0,0,1-16.294.322.353.353,0,0,0-16.679,0,.355.355,0,0,0-17,.389a21.407,21.407,0,0,0,.77,4.579A8.753,8.753,0,0,0-13.49,9.146a13.769,13.769,0,0,0,7,2.612A27.751,27.751,0,0,0-3.036,12" transform="translate(1 -10) rotate(-180)"/>
    <path id="Fill_291" data-name="Fill 291" d="M-1.4,3a1.381,1.381,0,0,0,.815-.252A1.5,1.5,0,0,0,0,1.427,1.521,1.521,0,0,0-.747.161,1.36,1.36,0,0,0-1.4,0a1.637,1.637,0,0,0-.864.255,1.477,1.477,0,0,0-.724,1.138c0,.049-.007.085-.011.112a.465.465,0,0,0,.013.2c.005.02.013.05.025.11h0a1.494,1.494,0,0,0,.877,1.041A1.679,1.679,0,0,0-1.4,3ZM-1.4.627a.823.823,0,0,1,.4.1.878.878,0,0,1,.428.741.862.862,0,0,1-.328.76.854.854,0,0,1-.5.15,1.142,1.142,0,0,1-.465-.1.887.887,0,0,1-.536-.6c-.008-.039-.015-.069-.02-.092l-.005-.022,0-.018c0-.026.005-.057.008-.1A.876.876,0,0,1-1.98.8,1.123,1.123,0,0,1-1.4.627Z" transform="translate(46 -8) rotate(-180)"/>
    <path id="Fill_293" data-name="Fill 293" d="M-13.338,11C-8.094,11-4.017,9.065-2.55,7.373A12.25,12.25,0,0,0,0,.387.348.348,0,0,0-.309,0,.343.343,0,0,0-.687.315,11.587,11.587,0,0,1-3.066,6.909c-1.618,1.866-7.04,4.152-13.537,3.134a.347.347,0,0,0-.393.293.35.35,0,0,0,.288.4,21.764,21.764,0,0,0,3.37.264" transform="translate(47 -10) rotate(-180)"/>
    <path id="Fill_295" data-name="Fill 295" d="M-9,.055C-9.017.225-7.016.888-4.51.985S.012.594,0,.423C-.01.231-2.023.431-4.5.322S-8.984-.137-9,.055" transform="translate(35 -43) rotate(-180)"/>
    <path id="Fill_297" data-name="Fill 297" d="M-13,2.959a7.868,7.868,0,0,0,1.99-.032A34.656,34.656,0,0,0-6.287,2.19,33.639,33.639,0,0,0-1.752.826,7.167,7.167,0,0,0,0,.009C-.062-.109-2.818.976-6.41,1.781-10,2.6-13.013,2.829-13,2.959" transform="translate(36 -44) rotate(-180)"/>
    <path id="Fill_299" data-name="Fill 299" d="M0,.05A20.764,20.764,0,0,0-4,.386C-6.2.632-7.989.5-8,.651c0,.069.44.2,1.169.284A13.918,13.918,0,0,0-3.979.919,12.6,12.6,0,0,0,0,.05" transform="translate(22 -43) rotate(-180)"/>
    <path id="Fill_301" data-name="Fill 301" d="M0,2.973a9.047,9.047,0,0,0-1.79-.379c-1.11-.2-2.64-.471-4.3-.86S-9.219.9-10.27.546A10.174,10.174,0,0,0-12,.008a6.08,6.08,0,0,0,1.593.8A28.341,28.341,0,0,0-6.219,2.127a37.607,37.607,0,0,0,4.372.752A7.572,7.572,0,0,0,0,2.973" transform="translate(18 -44) rotate(-180)"/>
    <path id="Fill_303" data-name="Fill 303" d="M-6.383,2A23.23,23.23,0,0,0-.294,1.145.472.472,0,0,0-.008.6.379.379,0,0,0-.449.24c-5.15,1.369-8.187.825-12.39.071-.559-.1-1.136-.2-1.74-.306-.2-.036-.391.142-.418.4a.455.455,0,0,0,.318.521c.6.1,1.177.206,1.734.305A36.16,36.16,0,0,0-6.383,2" transform="translate(11 -201) rotate(-180)"/>
    <path id="Fill_305" data-name="Fill 305" d="M-11,.041A4.1,4.1,0,0,0-9.669,1.517,6.819,6.819,0,0,0-5.493,3,6.833,6.833,0,0,0-1.325,1.491,4.112,4.112,0,0,0,0,.006C-.058-.066-.56.5-1.5,1.127A7.37,7.37,0,0,1-5.495,2.4a7.358,7.358,0,0,1-4-1.248C-10.438.531-10.943-.031-11,.041" transform="translate(9 -116) rotate(-180)"/>
    <path id="Fill_307" data-name="Fill 307" d="M0,2.982c.03-.077-.456-.5-1.312-1.018A14.267,14.267,0,0,0-4.815.477,13.074,13.074,0,0,0-8.482,0C-9.427.028-10,.161-10,.248c0,.206,2.318.123,5.077.892C-2.16,1.88-.07,3.168,0,2.982" transform="translate(7 -121) rotate(-180)"/>
    <path id="Fill_309" data-name="Fill 309" d="M-3.659,159a.431.431,0,0,0,.13-.02.347.347,0,0,0,.24-.451c-.747-1.92-.5-2.653-.275-3.3a2.18,2.18,0,0,0,.013-1.756l-.013-.033c-.659-1.621-1.34-3.3-.7-4.79a6.419,6.419,0,0,1,.805-1.268,8.924,8.924,0,0,0,.736-1.1c.993-1.847.289-3.038-.457-4.3-.2-.333-.4-.676-.581-1.046-.6-1.219-.52-3.144-.451-4.842.027-.677.053-1.316.036-1.875-.155-4.912-.183-9.717-.082-14.282a192.752,192.752,0,0,1,2.536-28.15c.205-1.211.429-2.324.684-3.4.079-.334.162-.668.245-1A21.243,21.243,0,0,0,0,82.736,22.744,22.744,0,0,0-.978,76.8a21.5,21.5,0,0,1-.952-5.956c.574-14.856-1.752-30.4-4-45.439C-7.169,17.145-8.446,8.607-9.219.325A.38.38,0,0,0-9.641,0,.366.366,0,0,0-10,.384c.774,8.3,2.053,16.847,3.29,25.113,2.246,15.006,4.568,30.523,4,45.319a21.969,21.969,0,0,0,.971,6.14,22.259,22.259,0,0,1,.956,5.767,20.747,20.747,0,0,1-.774,4.51c-.084.337-.167.673-.246,1.01-.259,1.093-.485,2.22-.693,3.444A193.376,193.376,0,0,0-5.043,119.93c-.1,4.576-.073,9.392.082,14.316.017.537-.009,1.165-.036,1.83-.072,1.775-.154,3.786.518,5.155.193.393.4.748.606,1.092.732,1.238,1.261,2.133.443,3.656a8.3,8.3,0,0,1-.68,1.009A7.019,7.019,0,0,0-5,148.4c-.745,1.741.021,3.625.7,5.288l.013.032a1.545,1.545,0,0,1-.026,1.3c-.244.714-.549,1.6.284,3.744a.392.392,0,0,0,.369.236" transform="translate(21 -43) rotate(-180)"/>
    <path id="Fill_311" data-name="Fill 311" d="M-2.214,1A8.82,8.82,0,0,0-.287.79.38.38,0,0,0-.008.341.364.364,0,0,0-.435.048,10.263,10.263,0,0,1-4.584,0,.365.365,0,0,0-5,.321a.377.377,0,0,0,.3.432A15.408,15.408,0,0,0-2.214,1" transform="translate(30 -43) rotate(-180)"/>
    <g id="Group_315" data-name="Group 315" transform="translate(0 -6)">
      <path id="Clip_314-2" data-name="Clip 314" d="M0,0H-11.973V195.677H0Z" transform="translate(0 -0.244) rotate(-180)" fill="none"/>
      <g id="Group_315-2" data-name="Group 315" clip-path="url(#clip-path)">
        <path id="Fill_313" data-name="Fill 313" d="M-11.608,195.677a.371.371,0,0,0,.244-.09,5.794,5.794,0,0,0,1.577-4.305c.008-.187.013-.376.019-.565a7.76,7.76,0,0,1,.672-3.593,8.157,8.157,0,0,1,.621-.9,4.5,4.5,0,0,0,1.035-1.986,4.418,4.418,0,0,0-.633-2.558,8.681,8.681,0,0,1-.479-1.144c-.522-1.7.2-3.092.975-4.567.175-.335.356-.681.523-1.034a15.015,15.015,0,0,0,1.13-4.68c.041-.314.083-.632.128-.952.652-4.57,1.182-9.075,1.575-13.391.812-8.919,1.478-17.642.718-26.3-.047-.54-.1-1.084-.15-1.629a37.272,37.272,0,0,1-.032-10.27l.054-.289a19.969,19.969,0,0,0,.514-6.088,10.967,10.967,0,0,0-.53-2,7.261,7.261,0,0,1-.54-2.663,5.08,5.08,0,0,1,.433-1.57,5.957,5.957,0,0,0,.473-1.694,10.618,10.618,0,0,0-.37-3.2,7.256,7.256,0,0,1,.065-2.779c.059-.395.119-.8.151-1.194.151-1.867.327-4.293.5-6.639.15-2.07.3-4.209.437-5.874l.1-1.216c.5-6.356,1.027-12.93,1.448-19.4A322.094,322.094,0,0,0-.394,22.95,197.333,197.333,0,0,0-2.99.294.369.369,0,0,0-3.412,0a.355.355,0,0,0-.3.407A196.621,196.621,0,0,1-1.125,22.989a321.442,321.442,0,0,1-.563,40.067c-.421,6.467-.942,13.038-1.447,19.392l-.1,1.216c-.132,1.667-.287,3.808-.437,5.879-.17,2.345-.345,4.77-.5,6.633-.03.368-.086.747-.146,1.149a7.737,7.737,0,0,0-.051,3.049,10.174,10.174,0,0,1,.351,2.976,5.364,5.364,0,0,1-.428,1.5,5.68,5.68,0,0,0-.479,1.785,7.9,7.9,0,0,0,.574,2.914,10.242,10.242,0,0,1,.5,1.875,19.464,19.464,0,0,1-.508,5.872l-.055.289a37.783,37.783,0,0,0,.024,10.46c.052.544.1,1.086.15,1.625.755,8.606.092,17.3-.718,26.182-.392,4.3-.92,8.8-1.571,13.356-.046.323-.088.643-.129.96a14.5,14.5,0,0,1-1.069,4.474c-.162.34-.34.681-.511,1.01-.8,1.533-1.628,3.118-1.023,5.085a9.277,9.277,0,0,0,.515,1.237,3.866,3.866,0,0,1,.575,2.161,3.937,3.937,0,0,1-.9,1.673,8.8,8.8,0,0,0-.673.978,8.263,8.263,0,0,0-.761,3.91c-.006.187-.011.373-.019.558-.052,1.28-.25,2.87-1.334,3.807a.344.344,0,0,0-.028.5.371.371,0,0,0,.272.117" transform="translate(0 -0.244) rotate(-180)"/>
      </g>
    </g>
    <path id="Fill_316" data-name="Fill 316" d="M-7.623,2a44.115,44.115,0,0,0,7.3-.714A.446.446,0,0,0,0,.774.394.394,0,0,0-.424.386c-5.41.9-9.422,1.1-15.125-.376a.381.381,0,0,0-.443.35A.462.462,0,0,0-15.7.9,31.375,31.375,0,0,0-7.623,2" transform="translate(40 -201) rotate(-180)"/>
    <path id="Fill_318" data-name="Fill 318" d="M0,.041C-.057-.032-.562.531-1.509,1.152a7.358,7.358,0,0,1-4,1.248A7.372,7.372,0,0,1-9.5,1.127C-10.44.5-10.942-.066-11,.006A4.119,4.119,0,0,0-9.675,1.491,6.833,6.833,0,0,0-5.506,3,6.818,6.818,0,0,0-1.331,1.517,4.1,4.1,0,0,0,0,.041" transform="translate(46 -116) rotate(-180)"/>
    <path id="Fill_320" data-name="Fill 320" d="M-10,2.982c.069.186,2.159-1.1,4.922-1.842C-2.318.37,0,.454,0,.248,0,.161-.573.028-1.517,0A13.076,13.076,0,0,0-5.185.477a14.268,14.268,0,0,0-3.5,1.487C-9.543,2.48-10.029,2.9-10,2.982" transform="translate(50 -121) rotate(-180)"/>
    <path id="Fill_322" data-name="Fill 322" d="M-6.341,159a.391.391,0,0,0,.369-.236,10.354,10.354,0,0,1,.55-1.131,4.791,4.791,0,0,0,.828-2.884,10.6,10.6,0,0,0-.246-1.2,7.033,7.033,0,0,1-.263-1.528,7.119,7.119,0,0,1,.378-2.064,7.224,7.224,0,0,0,.395-2.4,7.37,7.37,0,0,0-1.04-2.916c-.21-.4-.426-.813-.6-1.222a2.424,2.424,0,0,1,.263-2.665,8.2,8.2,0,0,0,.607-1.2,7.9,7.9,0,0,0,.164-3.564,14,14,0,0,1-.1-1.747c.155-4.924.183-9.741.082-14.317A193.376,193.376,0,0,0-7.5,91.687c-.207-1.224-.434-2.351-.693-3.444-.08-.337-.163-.673-.246-1.01a20.747,20.747,0,0,1-.774-4.51,22.259,22.259,0,0,1,.956-5.767,21.969,21.969,0,0,0,.971-6.14c-.572-14.8,1.75-30.313,4-45.319C-2.054,17.231-.775,8.684,0,.384A.366.366,0,0,0-.359,0,.38.38,0,0,0-.781.325C-1.553,8.607-2.831,17.145-4.067,25.4c-2.25,15.035-4.577,30.582-4,45.439A21.5,21.5,0,0,1-9.022,76.8,22.743,22.743,0,0,0-10,82.736a21.224,21.224,0,0,0,.793,4.652c.083.334.166.669.245,1,.256,1.079.479,2.192.685,3.4a192.748,192.748,0,0,1,2.536,28.15c.1,4.565.073,9.37-.082,14.283a14.376,14.376,0,0,0,.108,1.83,7.481,7.481,0,0,1-.123,3.266,7.522,7.522,0,0,1-.562,1.1,3.033,3.033,0,0,0-.3,3.246c.183.435.406.862.623,1.274a6.784,6.784,0,0,1,.966,2.652,6.636,6.636,0,0,1-.372,2.184,7.71,7.71,0,0,0-.4,2.253,7.636,7.636,0,0,0,.282,1.669,9.975,9.975,0,0,1,.233,1.124,4.24,4.24,0,0,1-.754,2.5,11.1,11.1,0,0,0-.585,1.2.347.347,0,0,0,.24.451.428.428,0,0,0,.13.02" transform="translate(35 -43) rotate(-180)"/>
    <g id="Group_326" data-name="Group 326" transform="translate(55 -7)">
      <path id="Clip_325-2" data-name="Clip 325" d="M0,0H-10.672V194.933H0Z" transform="translate(0.117 -0.06) rotate(-180)" fill="none"/>
      <g id="Group_326-2" data-name="Group 326" clip-path="url(#clip-path-2)">
        <path id="Fill_324" data-name="Fill 324" d="M-.353,194.933a.36.36,0,0,0,.1-.013.353.353,0,0,0,.245-.435l-1.71-6.118a7.8,7.8,0,0,1-.427-2.707,7.737,7.737,0,0,1,.523-1.952c.118-.326.239-.662.339-1,.74-2.527-.614-5.448-1.7-7.795l-.242-.525a14.948,14.948,0,0,1-1.031-4.473c-.04-.316-.08-.635-.124-.957-.626-4.554-1.136-9.045-1.514-13.346-.78-8.88-1.419-17.563-.692-26.162l.078-.913a51.158,51.158,0,0,0,.107-11.711c-.1-.689-.24-1.355-.38-2-.382-1.764-.743-3.43-.031-5.24.069-.174.145-.351.221-.529a3.818,3.818,0,0,0,.435-2.86c-.124-.325-.251-.606-.363-.854a3.167,3.167,0,0,1-.336-2.472,1.422,1.422,0,0,1,.2-.438,1.473,1.473,0,0,0,.229-1.2c-.07-.37-.154-.693-.236-1a6.134,6.134,0,0,1-.28-2.123c.023-.392.058-.785.094-1.177a17.122,17.122,0,0,0,.094-2.869Q-7,91.072-7.213,88.078q-.171-2.3-.344-4.6l-.093-1.215c-.486-6.349-.989-12.915-1.394-19.377a332.906,332.906,0,0,1-.543-40.036A182.209,182.209,0,0,1-6.9,2.482L-6.545.411A.353.353,0,0,0-6.833,0,.353.353,0,0,0-7.24.293l-.353,2.07a182.78,182.78,0,0,0-2.7,20.448,333.566,333.566,0,0,0,.543,40.119c.406,6.467.908,13.036,1.4,19.387l.093,1.215q.176,2.3.344,4.6.221,3,.452,5.99a16.6,16.6,0,0,1-.094,2.751c-.036.4-.072.8-.1,1.2a6.791,6.791,0,0,0,.3,2.344c.078.3.16.61.225.956a.8.8,0,0,1-.141.7,2.1,2.1,0,0,0-.279.639,3.852,3.852,0,0,0,.38,2.925c.113.251.231.51.347.814a3.224,3.224,0,0,1-.424,2.33c-.08.185-.158.368-.23.549-.791,2.01-.408,3.777,0,5.649.137.631.279,1.284.371,1.946a50.639,50.639,0,0,1-.111,11.553l-.078.914c-.733,8.655-.091,17.371.692,26.283.379,4.313.889,8.815,1.518,13.38.044.319.084.635.123.948a15.476,15.476,0,0,0,1.089,4.679l.244.528c1.039,2.24,2.331,5.027,1.665,7.3-.094.32-.212.646-.325.961a8.368,8.368,0,0,0-.562,2.132,8.453,8.453,0,0,0,.45,2.957l1.711,6.118a.353.353,0,0,0,.339.258" transform="translate(0.117 -0.06) rotate(-180)"/>
      </g>
    </g>
    <path id="Fill_327" data-name="Fill 327" d="M-1,1.951c0,.045.159.088.39-.013a1.075,1.075,0,0,0,.593-.79A1.137,1.137,0,0,0-.3.181C-.48,0-.64-.023-.658.018s.075.145.171.325a1.173,1.173,0,0,1,.136.738,1.117,1.117,0,0,1-.378.634c-.15.131-.277.183-.27.236" transform="translate(32 -4) rotate(-180)"/>
    <path id="Fill_329" data-name="Fill 329" d="M0,8.664c-.013-.088-.978.095-2.523-.022A11.879,11.879,0,0,1-8.144,6.735,11.628,11.628,0,0,1-12.027,2.3C-12.711.93-12.9-.02-12.984,0a1.622,1.622,0,0,0,.063.679,8.882,8.882,0,0,0,.564,1.769,10.6,10.6,0,0,0,1.42,2.38,11.016,11.016,0,0,0,2.5,2.323,11.157,11.157,0,0,0,3.12,1.429A10.946,10.946,0,0,0-2.541,9a9.246,9.246,0,0,0,1.878-.14A1.685,1.685,0,0,0,0,8.664" transform="translate(3 -11) rotate(-180)"/>
    <path id="Fill_331" data-name="Fill 331" d="M-14,7.286c-.01.031.212.142.636.281a8.994,8.994,0,0,0,1.851.376A10.676,10.676,0,0,0-8.7,7.859,11,11,0,0,0-5.423,6.778,11.128,11.128,0,0,0-2.644,4.7,10.988,10.988,0,0,0-.936,2.436,9.374,9.374,0,0,0-.156.69,1.726,1.726,0,0,0-.01,0C-.094-.031-.4.921-1.246,2.243A11.858,11.858,0,0,1-5.658,6.314a11.633,11.633,0,0,1-5.829,1.263C-13.039,7.5-13.976,7.2-14,7.286" transform="translate(49 -12) rotate(-180)"/>
  </g>
</svg>
