<svg id="Group_37" data-name="Group 37" xmlns="http://www.w3.org/2000/svg" width="120" height="95" viewBox="0 0 120 95">
  <path id="Fill_1" data-name="Fill 1" d="M9.506,38a3.451,3.451,0,0,1-3.217-2.119A80.256,80.256,0,0,1,.009,4.218,3.426,3.426,0,0,1,3.1.922C5.522.651,7.948.343,10.312.008a.635.635,0,0,1,.728.522.623.623,0,0,1-.541.7c-2.376.338-4.816.648-7.252.92A2.167,2.167,0,0,0,1.291,4.236a79.068,79.068,0,0,0,6.193,31.2,2.187,2.187,0,0,0,2.276,1.317c2.819-.318,5.678-.7,8.5-1.128a.638.638,0,0,1,.734.515.622.622,0,0,1-.534.708c-2.837.433-5.713.816-8.549,1.134a3.587,3.587,0,0,1-.4.023" transform="translate(0 37)"/>
  <path id="Fill_3" data-name="Fill 3" d="M.625,15a.618.618,0,0,1-.613-.476A.594.594,0,0,1,.5,13.83c8.752-1.635,17.722-3.751,26.663-6.288C35,5.325,42.726,2.8,50.144.042a.638.638,0,0,1,.812.333.58.58,0,0,1-.353.766C43.153,3.912,35.389,6.447,27.528,8.673,18.549,11.221,9.539,13.346.747,14.989A.716.716,0,0,1,.625,15" transform="translate(27 56)"/>
  <path id="Fill_5" data-name="Fill 5" d="M.626,15a.622.622,0,0,1-.118-1.232A269.329,269.329,0,0,0,48.143.044a.627.627,0,0,1,.813.349A.62.62,0,0,1,48.6,1.2,270.67,270.67,0,0,1,.746,14.989.655.655,0,0,1,.626,15" transform="translate(21 20)"/>
  <path id="Fill_7" data-name="Fill 7" d="M9.177,49a.616.616,0,0,1-.286-1.161c8.1-4.237,18.015-11.005,22-16.616,2.833-9.691-1.538-22.828-7.315-29.791A162.886,162.886,0,0,1,.859,13.374a.616.616,0,1,1-.486-1.132A159.473,159.473,0,0,0,23.351.1a.616.616,0,0,1,.807.107c6.181,7.114,10.954,21.164,7.887,31.459a.593.593,0,0,1-.086.177c-4.067,5.8-14.229,12.756-22.5,17.081a.61.61,0,0,1-.285.07" transform="translate(87)"/>
  <path id="Fill_9" data-name="Fill 9" d="M14.28,46a2.368,2.368,0,0,1-1.45-.48,4.468,4.468,0,0,1-1.405-3.53.625.625,0,0,1,.618-.628h0A.626.626,0,0,1,12.66,42a3.289,3.289,0,0,0,.9,2.5,1.363,1.363,0,0,0,1.324.127c.955-.312,1.631-2.706-.569-12.342-.1-.419-.173-.758-.222-.995-1.117-5.4-2.208-10.007-3.362-14.889-.342-1.446-.693-2.889-1.044-4.333-.412-1.694-.824-3.389-1.221-5.087C8,5,6.652,1.266,4.845,1.266h-.03A4.154,4.154,0,0,0,1.781,2.93a3.713,3.713,0,0,0-.273,3.393.637.637,0,0,1-.388.8.613.613,0,0,1-.782-.4A4.935,4.935,0,0,1,.769,2.2,5.33,5.33,0,0,1,4.787,0h.06c3.1,0,4.56,5.565,4.822,6.687.4,1.695.808,3.385,1.219,5.076q.528,2.169,1.046,4.341C13.091,21,14.183,25.615,15.3,31.028c.048.231.124.561.216.969,1.446,6.328,2.545,12.92-.258,13.835A3.156,3.156,0,0,1,14.28,46" transform="translate(62 17)"/>
  <path id="Fill_11" data-name="Fill 11" d="M14.077,52a4.312,4.312,0,0,1-2.19-.562.615.615,0,0,1-.227-.848.636.636,0,0,1,.862-.224c1.5.859,3.486.149,5.409-.748.912-.425,1.822-.841,2.727-1.255A94.71,94.71,0,0,0,30.993,43.12c1.233-.755.988-4.8-.732-12.032-.1-.409-.177-.742-.226-.973-1.141-5.29-2.254-9.81-3.432-14.6-.348-1.415-.706-2.828-1.064-4.241-.421-1.663-.842-3.327-1.248-4.994-.672-2.758-1.453-5.041-4.211-5.042h-.008c-3.275,0-6.356,1.332-9.336,2.62l-.636.274A38.367,38.367,0,0,0,1.032,9.189a.637.637,0,0,1-.888-.082.613.613,0,0,1,.084-.873A39.451,39.451,0,0,1,9.6,3l.634-.273C13.329,1.386,16.533,0,20.072,0h.009c3.976,0,4.855,3.608,5.436,5.994.406,1.663.826,3.323,1.246,4.983q.538,2.124,1.066,4.249c1.18,4.8,2.3,9.324,3.439,14.631.049.226.126.549.221.948,1.383,5.815,2.485,11.951.169,13.368A95.857,95.857,0,0,1,21.19,49.488q-1.354.619-2.719,1.251A10.892,10.892,0,0,1,14.077,52" transform="translate(63 10)"/>
  <path id="Fill_13" data-name="Fill 13" d="M1.874,34a.632.632,0,0,1-.622-.529C.847,31.008.483,28.435.17,25.824c-.467-3.9.025-6.686,1.551-8.756,1.887-2.561,5.024-3.595,8.346-4.51,3.994-1.1,8.03-2.223,12.066-3.345C26,8.14,29.858,7.066,33.684,6.011A20.958,20.958,0,0,0,32.334.864.631.631,0,1,1,33.508.4,21.8,21.8,0,0,1,35,6.419a.632.632,0,0,1-.461.668c-3.994,1.1-8.03,2.223-12.066,3.345S14.4,12.675,10.4,13.777c-3.1.854-6.018,1.806-7.665,4.042-1.323,1.8-1.74,4.291-1.314,7.855.311,2.593.672,5.147,1.075,7.592a.632.632,0,0,1-.52.726.6.6,0,0,1-.1.009" transform="translate(21 18)"/>
  <path id="Fill_15" data-name="Fill 15" d="M17.7,65a9.765,9.765,0,0,1-2.792-.373c-3.932-1.171-5.615-4.1-6.931-8.145A179.99,179.99,0,0,1,2.807,36.944c-.218-1.06-.448-2.116-.678-3.171C1.569,31.209.991,28.558.617,25.891l-.076-.54C-.08,20.968-.931,14.966,2.906,11.627A16.344,16.344,0,0,1,8.936,8.636c1.018-.317,2.025-.643,3.029-.967,2.027-.656,4.124-1.334,6.246-1.912C26.531,3.488,35.04,1.722,43.269.014a.625.625,0,0,1,.252,1.224c-8.21,1.705-16.7,3.467-24.983,5.726-2.094.571-4.177,1.245-6.191,1.9-1.008.326-2.019.653-3.042.971a15.245,15.245,0,0,0-5.583,2.741C.4,15.465,1.161,20.849,1.774,25.175l.077.542c.367,2.62.94,5.248,1.495,7.789.231,1.061.463,2.121.681,3.186a178.8,178.8,0,0,0,5.131,19.4c1.2,3.668,2.69,6.319,6.1,7.335,2.531.755,5.67.023,8.439-.622.748-.174,1.455-.339,2.146-.476a114.218,114.218,0,0,0,11.08-2.8c3.43-1.048,6.948-2.281,10.756-3.77.16-.063.532-.2,1.046-.39a77.663,77.663,0,0,0,8.992-3.646,28.906,28.906,0,0,0-1.04-4.955,174.711,174.711,0,0,1-28.85,9.325c-2.223.494-4.573.908-6.716.106-4.618-1.729-5.76-7.235-6.678-11.661-.138-.665-.271-1.3-.41-1.9l-.082-.35c-.052-.223-.078-.333-.161-.713A.623.623,0,1,1,15,41.3c.082.371.107.478.158.7l.083.353c.141.607.276,1.257.415,1.932.856,4.124,1.921,9.256,5.894,10.744,1.828.683,3.887.317,6.012-.156a173.966,173.966,0,0,0,29.274-9.524.622.622,0,0,1,.836.392,31.067,31.067,0,0,1,1.319,6.128c.074.67.111,1.007-9.831,4.674-.5.186-.868.32-1.024.382-3.837,1.5-7.385,2.744-10.846,3.8-3.781,1.155-7.549,2.108-11.2,2.834-.671.133-1.368.3-2.106.468A28.474,28.474,0,0,1,17.7,65" transform="translate(10 18)"/>
  <path id="Fill_17" data-name="Fill 17" d="M1.362,4a.634.634,0,0,1-.618-.462L.019.759A.609.609,0,0,1,.483.019a.639.639,0,0,1,.773.444l.724,2.779a.609.609,0,0,1-.464.74A.679.679,0,0,1,1.362,4" transform="translate(45 26)"/>
  <path id="Fill_19" data-name="Fill 19" d="M1.395,4a.606.606,0,0,1-.581-.442L.024.78A.612.612,0,0,1,.437.024a.6.6,0,0,1,.748.418L1.976,3.22a.612.612,0,0,1-.414.756A.6.6,0,0,1,1.395,4" transform="translate(48 25)"/>
  <path id="Fill_21" data-name="Fill 21" d="M1.4,4a.6.6,0,0,1-.562-.4C.554,2.857.042.866.02.782A.625.625,0,0,1,.448.021a.6.6,0,0,1,.737.442c0,.02.516,2.008.773,2.689a.629.629,0,0,1-.342.806A.587.587,0,0,1,1.4,4" transform="translate(54 64)"/>
  <path id="Fill_23" data-name="Fill 23" d="M1.364,4A.635.635,0,0,1,.75,3.524C.744,3.5.213,1.456.026.814A.635.635,0,1,1,1.245.457c.194.661.712,2.664.735,2.749A.635.635,0,0,1,1.364,4" transform="translate(59 62)"/>
  <path id="Fill_25" data-name="Fill 25" d="M4.1,12a3.521,3.521,0,0,1-2.025-.538C.851,10.638.512,9.155.212,7.846L.137,7.522A4.753,4.753,0,0,1,.518,4.183,3.81,3.81,0,0,1,3.3,2.7c1.978-.364,3.981-.8,5.919-1.227l.06-.013,1.345-.293.057-.013C11.5.979,12.335.8,13.158.608c.239-.055.483-.12.775-.2l.1-.026c.258-.069.525-.141.79-.2A6.267,6.267,0,0,1,16.224,0a3.228,3.228,0,0,1,2.627,1.223,7.327,7.327,0,0,1,1.11,3.613c.419,3.407-2.677,4.064-4,4.345-1.925.409-3.879.948-5.768,1.47l-.035.01c-1.034.286-1.968.543-2.916.79l-.106.028A12.483,12.483,0,0,1,4.1,12ZM16.231,1.284h0a5.186,5.186,0,0,0-1.151.155c-.285.065-.571.142-.841.215l-.061.016c-.263.071-.511.137-.758.193-.827.189-1.67.374-2.485.552l-.057.012-1.343.293c-1.965.431-4,.876-6.018,1.248a2.824,2.824,0,0,0-1.967.911,3.4,3.4,0,0,0-.22,2.333l.077.331c.27,1.177.525,2.289,1.332,2.832a2.384,2.384,0,0,0,1.357.335,11.6,11.6,0,0,0,2.746-.485l.106-.027c.946-.247,1.873-.5,2.9-.786,1.91-.528,3.886-1.075,5.872-1.5,2.434-.517,3.226-1.278,3.026-2.911a6.522,6.522,0,0,0-.82-2.939,2.054,2.054,0,0,0-1.695-.783Z" transform="translate(18 48)"/>
  <path id="Fill_27" data-name="Fill 27" d="M3.067,7a2.572,2.572,0,0,1-.843-.143A3.593,3.593,0,0,1,.053,4.077,3.63,3.63,0,0,1,1.2.767,2.86,2.86,0,0,1,3.122,0,2.731,2.731,0,0,1,4.163.208,3.006,3.006,0,0,1,5.871,2.38a4.253,4.253,0,0,1-.615,3.486A2.768,2.768,0,0,1,3.067,7ZM3.12,1.359h0a1.66,1.66,0,0,0-1.109.451,2.275,2.275,0,0,0,.6,3.75,1.33,1.33,0,0,0,.438.074A1.568,1.568,0,0,0,4.277,5a2.859,2.859,0,0,0,.367-2.273A1.758,1.758,0,0,0,3.71,1.48a1.547,1.547,0,0,0-.59-.119Z" transform="translate(47 45)"/>
  <path id="Fill_29" data-name="Fill 29" d="M3.092,7a2.6,2.6,0,0,1-.767-.116A3.54,3.54,0,0,1,.071,4.208,3.863,3.863,0,0,1,1.228.667,2.569,2.569,0,0,1,2.937,0,2.786,2.786,0,0,1,4.08.255,3.335,3.335,0,0,1,5.873,2.563a4,4,0,0,1-.536,3.244A2.784,2.784,0,0,1,3.092,7ZM2.939,1.346a1.356,1.356,0,0,0-.9.357A2.455,2.455,0,0,0,1.313,3.92,2.225,2.225,0,0,0,2.681,5.592a1.35,1.35,0,0,0,.4.059,1.572,1.572,0,0,0,1.252-.667A2.6,2.6,0,0,0,4.642,2.9a2.039,2.039,0,0,0-1.058-1.41A1.576,1.576,0,0,0,2.939,1.346Z" transform="translate(64 40)"/>
  <path id="Fill_31" data-name="Fill 31" d="M8.2,13c-2.556,0-5.1-.124-7.6-.246A.642.642,0,0,1,.65,11.473a77.3,77.3,0,0,0,15.093-.25A11.518,11.518,0,0,0,20.506,9.66a4.778,4.778,0,0,0,2.249-3.972,4.926,4.926,0,0,0-3.043-3.934,9.6,9.6,0,0,0-4.04-.458c-.59.012-1.2.025-1.773,0a.633.633,0,0,1-.591-.67.634.634,0,0,1,.649-.611c.532.026,1.094.013,1.689,0a10.443,10.443,0,0,1,4.566.566,6.141,6.141,0,0,1,3.782,5.043,6,6,0,0,1-2.81,5.109,12.6,12.6,0,0,1-5.266,1.76A52.412,52.412,0,0,1,8.2,13" transform="translate(82 48)"/>
  <path id="Fill_33" data-name="Fill 33" d="M46.444,42c-11.544,0-23.363-.433-36.238-1.641-1.484-.139-6.467-.712-8.293-2.247C-.822,35.812.176,20.818.186,20.667a.625.625,0,0,1,1.246.084c-.348,5.054-.327,15.057,1.288,16.415,1.231,1.035,4.865,1.7,7.6,1.96,25.6,2.4,47.045,1.73,70.437.685,2.691-.12,6.041-.27,8.428-2.035,2.665-1.971,3.541-5.469,3.806-8.056.325-3.162,1.761-25.8,1.757-29.1A.622.622,0,0,1,95.375,0h0A.622.622,0,0,1,96,.619c0,3.461-1.426,25.939-1.763,29.226-.291,2.835-1.273,6.684-4.3,8.924-2.694,1.993-6.256,2.152-9.118,2.28C69.129,41.571,57.922,42,46.444,42" transform="translate(10 53)"/>
  <path id="Fill_35" data-name="Fill 35" d="M2.411,5Q1.493,5,.579,4.953A.589.589,0,0,1,0,4.35.6.6,0,0,1,.647,3.81a34.98,34.98,0,0,0,4.725-.081A4.93,4.93,0,0,0,6.987,3.4a1.274,1.274,0,0,0,.782-.885C7.831,2,7.313,1.5,6.776,1.317a4.777,4.777,0,0,0-1.908-.143.607.607,0,0,1-.656-.53A.587.587,0,0,1,4.779.031,6.032,6.032,0,0,1,7.207.244a2.436,2.436,0,0,1,1.78,2.4,2.371,2.371,0,0,1-1.454,1.78,5.994,5.994,0,0,1-2.049.448C4.464,4.956,3.437,5,2.411,5" transform="translate(90 52)"/>
</svg>
