<svg id="Group_5" data-name="Group 5" xmlns="http://www.w3.org/2000/svg" width="1258" height="53" viewBox="0 0 1258 53">
  <text id="Basics" transform="translate(0 49)" fill="#c6a07a" font-size="16" font-family="SegoeUI, Segoe UI"><tspan x="0" y="0">Basics</tspan></text>
  <text id="Sizing" transform="translate(612 49)" fill="#c6a07a" font-size="16" font-family="SegoeUI, Segoe UI"><tspan x="0" y="0">Sizing</tspan></text>
  <text id="Style" transform="translate(1224 49)" font-size="16" font-family="SegoeUI, Segoe UI"><tspan x="0" y="0">Style</tspan></text>
  <g id="Oval" transform="translate(12)" fill="#02bfaf" stroke="#c6a07a" stroke-miterlimit="10" stroke-width="1">
    <circle cx="13.5" cy="13.5" r="13.5" stroke="none"/>
    <circle cx="13.5" cy="13.5" r="13" fill="none"/>
  </g>
  <g id="Oval_Copy" data-name="Oval Copy" transform="translate(621)" fill="#02bfaf">
    <path d="M 13.5 26.5 C 10.02758026123047 26.5 6.76298999786377 25.14776039123535 4.307610034942627 22.69239044189453 C 1.852239966392517 20.23700904846191 0.5 16.97241973876953 0.5 13.5 C 0.5 10.02758026123047 1.852239966392517 6.76298999786377 4.307610034942627 4.307610034942627 C 6.76298999786377 1.852239966392517 10.02758026123047 0.5 13.5 0.5 C 16.97241973876953 0.5 20.23700904846191 1.852239966392517 22.69239044189453 4.307610034942627 C 25.14776039123535 6.76298999786377 26.5 10.02758026123047 26.5 13.5 C 26.5 16.97241973876953 25.14776039123535 20.23700904846191 22.69239044189453 22.69239044189453 C 20.23700904846191 25.14776039123535 16.97241973876953 26.5 13.5 26.5 Z" stroke="none"/>
    <path d="M 13.5 1 C 10.16113090515137 1 7.022109985351563 2.300230026245117 4.661169052124023 4.661169052124023 C 2.300230026245117 7.022109985351563 1 10.16113090515137 1 13.5 C 1 16.83887100219727 2.300230026245117 19.97789001464844 4.661169052124023 22.33882904052734 C 7.022109985351563 24.69976997375488 10.16113090515137 26 13.5 26 C 16.83887100219727 26 19.97789001464844 24.69976997375488 22.33882904052734 22.33882904052734 C 24.69976997375488 19.97789001464844 26 16.83887100219727 26 13.5 C 26 10.16113090515137 24.69976997375488 7.022109985351563 22.33882904052734 4.661169052124023 C 19.97789001464844 2.300230026245117 16.83887100219727 1 13.5 1 M 13.5 0 C 20.95584106445313 0 27 6.044160842895508 27 13.5 C 27 20.95584106445313 20.95584106445313 27 13.5 27 C 6.044160842895508 27 0 20.95584106445313 0 13.5 C 0 6.044160842895508 6.044160842895508 0 13.5 0 Z" stroke="none" fill="#c6a07a"/>
  </g>
  <g id="Oval_Copy_2" data-name="Oval Copy 2" transform="translate(1230)" fill="#fd5c48" stroke="#02bfaf" stroke-miterlimit="10" stroke-width="1">
    <circle cx="13.5" cy="13.5" r="13.5" stroke="none"/>
    <circle cx="13.5" cy="13.5" r="13" fill="none"/>
  </g>
  <path id="Line" d="M.5.5h571" transform="translate(45.5 13)" fill="none" stroke="#02bfaf" stroke-linecap="square" stroke-miterlimit="10" stroke-width="1"/>
  <path id="Line_Copy" data-name="Line Copy" d="M.5.5h571" transform="translate(655.5 13)" fill="none" stroke="#c6a07a" stroke-linecap="square" stroke-miterlimit="10" stroke-width="1"/>
</svg>
