<svg xmlns="http://www.w3.org/2000/svg" xmlns:xlink="http://www.w3.org/1999/xlink" width="256.725" height="283" viewBox="0 0 256.725 283">
  <defs>
    <clipPath id="clip-path">
      <path id="Clip_66" data-name="Clip 66" d="M0,0H46V103.3H0Z" transform="translate(0 0.328)" fill="none"/>
    </clipPath>
    <clipPath id="clip-path-2">
      <path id="Clip_69" data-name="Clip 69" d="M0,0H47.368V104.348H0Z" transform="translate(0.33 0.361)" fill="none"/>
    </clipPath>
    <clipPath id="clip-path-3">
      <path id="Clip_80" data-name="Clip 80" d="M0,0H13.413V6.869H0Z" transform="translate(0.312 0.1)" fill="none"/>
    </clipPath>
    <clipPath id="clip-path-4">
      <path id="Clip_20" data-name="Clip 20" d="M0,0H19.954V33.731H0Z" transform="translate(0 0.268)" fill="none"/>
    </clipPath>
    <clipPath id="clip-path-5">
      <path id="Clip_29" data-name="Clip 29" d="M0,0H21.5V32.772H0Z" transform="translate(0.203 0.228)" fill="none"/>
    </clipPath>
  </defs>
  <g id="Group_4" data-name="Group 4" transform="translate(-998 -435)">
    <path id="Fill_1" data-name="Fill 1" d="M9.183,24c-.341,0-.682-.011-1.024-.036A8.791,8.791,0,0,1,2.112,21.3C.784,19.8.1,17.654.01,14.732A16.589,16.589,0,0,1,2.627,4.659,10.4,10.4,0,0,1,11.9.043a.311.311,0,0,1,.281.34.313.313,0,0,1-.346.276,9.752,9.752,0,0,0-8.69,4.351,16.258,16.258,0,0,0-2.507,9.7c.082,2.773.719,4.8,1.948,6.182A8.169,8.169,0,0,0,8.2,23.347a25.468,25.468,0,0,0,6.421-.637.313.313,0,0,1,.368.246.31.31,0,0,1-.251.362A30.58,30.58,0,0,1,9.183,24" transform="translate(1168 445)"/>
    <path id="Fill_3" data-name="Fill 3" d="M7.71,18a.309.309,0,0,1-.2-.074.314.314,0,0,1-.037-.441c2.492-2.961,3.841-6.047,3.9-8.925C11.438,5.538,9.784,1.937,6.5.9a13.6,13.6,0,0,0-6.1.18A.313.313,0,0,1,.23.476,14.217,14.217,0,0,1,6.686.3C10.265,1.431,12.067,5.317,12,8.573c-.065,3.066-1.428,6.2-4.05,9.316A.313.313,0,0,1,7.71,18" transform="translate(1184 450)"/>
    <path id="Fill_5" data-name="Fill 5" d="M13.107,31a14.356,14.356,0,0,1-2.2-.166A13.162,13.162,0,0,1,1.5,24.515c-2.276-4.1-1.946-9.606.862-14.363A14.447,14.447,0,0,1,7.051,5.776C9.2,4.3,11.237,2.912,12.211.212a.323.323,0,0,1,.412-.193.317.317,0,0,1,.2.407C11.774,3.318,9.56,4.834,7.418,6.3a13.764,13.764,0,0,0-4.5,4.173C.227,15.038-.1,20.3,2.067,24.209a12.506,12.506,0,0,0,8.944,6A15.775,15.775,0,0,0,21.74,27.771a36.022,36.022,0,0,0,3.075-2.3,28.455,28.455,0,0,1,4.067-2.893c2.595-1.422,6.52-1.816,9,.183a.316.316,0,0,1,.046.448.325.325,0,0,1-.454.045c-2.234-1.8-5.933-1.405-8.279-.12a28.038,28.038,0,0,0-3.973,2.83,36.482,36.482,0,0,1-3.131,2.337A16.852,16.852,0,0,1,13.107,31" transform="translate(1154 444)"/>
    <path id="Fill_7" data-name="Fill 7" d="M33.784,45a14.787,14.787,0,0,1-7.864-2.22.314.314,0,0,1-.076-.44.321.321,0,0,1,.444-.076c2.821,1.975,8.673,2.919,11.482,1.2,1.756-1.072,2.614-3.349,3.444-5.551a24.76,24.76,0,0,1,1.279-3c.691-1.279,1.473-2.463,2.229-3.606,1.81-2.736,3.519-5.321,3.633-8.711.186-5.495-2.613-11.144-7.486-15.112-4.137-3.369-9.6-5.547-16.223-6.472C18.72.186,13.942.7,10.04,2.586,5.682,4.693.625,11.278.637,16.611a.318.318,0,0,1-.318.317h0A.317.317,0,0,1,0,16.612C-.013,11.057,5.237,4.205,9.762,2.018,13.78.076,18.678-.458,24.734.388,31.479,1.33,37.043,3.553,41.272,7c5.025,4.092,7.911,9.931,7.719,15.621-.12,3.567-1.877,6.223-3.737,9.036-.749,1.133-1.523,2.3-2.2,3.558a24.275,24.275,0,0,0-1.245,2.927c-.868,2.3-1.765,4.682-3.707,5.867A8.421,8.421,0,0,1,33.784,45" transform="translate(1160 435)"/>
    <path id="Fill_9" data-name="Fill 9" d="M13.592,15q-.731,0-1.46-.057C7.14,14.553,1.194,11.284.007,5.994a.309.309,0,0,1,.246-.368.322.322,0,0,1,.382.237c1.121,5,6.787,8.091,11.549,8.464a18.754,18.754,0,0,0,12.391-3.5A17.5,17.5,0,0,0,31.364.252a.319.319,0,0,1,.375-.246.31.31,0,0,1,.255.361,18.127,18.127,0,0,1-7.03,10.955A19.42,19.42,0,0,1,13.592,15" transform="translate(1160 468)"/>
    <path id="Fill_13" data-name="Fill 13" d="M13.722,99a.314.314,0,0,1-.258-.135c-1.739-2.486-1.759-6.029-.06-10.53A35.51,35.51,0,0,1,18.1,80.414c.306-.427.611-.853.912-1.281,2.846-4.037,6.747-10.205,7.771-17.139.828-5.606,1.325-11.494-2.408-16.431-2.661-3.52-6.467-6.039-9.824-8.261l-.086-.057c-3.579-2.369-7.28-4.818-9.986-8.238A20.937,20.937,0,0,1,.156,13.533,19.207,19.207,0,0,1,7.554.065.313.313,0,0,1,8,.127a.321.321,0,0,1-.062.447A18.59,18.59,0,0,0,.782,13.613a20.568,20.568,0,0,0,4.186,15c2.644,3.341,6.3,5.762,9.839,8.1l.086.057c3.4,2.25,7.253,4.8,9.98,8.408,3.882,5.135,3.379,11.171,2.531,16.913-1.044,7.07-5,13.325-7.881,17.415-.3.429-.609.857-.915,1.284a35.031,35.031,0,0,0-4.614,7.775c-1.619,4.29-1.624,7.632-.014,9.934a.322.322,0,0,1-.075.445.314.314,0,0,1-.182.059" transform="translate(1147 459)"/>
    <path id="Fill_15" data-name="Fill 15" d="M6.669,46a.287.287,0,0,1-.211-.094C1.3,40.348-1.061,31.249.452,22.727,1.9,14.557,5.736,7.239,9.444.163a.286.286,0,0,1,.4-.122.33.33,0,0,1,.114.433c-3.684,7.032-7.494,14.3-8.926,22.372-1.477,8.322.817,17.2,5.844,22.611a.334.334,0,0,1,0,.45A.286.286,0,0,1,6.669,46" transform="translate(1143 489)"/>
    <path id="Fill_17" data-name="Fill 17" d="M12.671,62a.316.316,0,0,1-.193-.066C4.007,55.488-.843,45.08.121,35.418c.589-5.9,3.573-11.363,6.458-16.643C9.729,13.011,12.987,7.05,13.362.3A.322.322,0,0,1,13.7,0a.318.318,0,0,1,.3.335c-.383,6.893-3.676,12.917-6.86,18.743C4.153,24.543,1.332,29.7.756,35.48c-.943,9.449,3.81,19.634,12.108,25.95a.318.318,0,0,1-.194.57" transform="translate(1149 496)"/>
    <path id="Fill_19" data-name="Fill 19" d="M5.015,36a.339.339,0,0,1-.171-.046.317.317,0,0,1-.114-.443,19.047,19.047,0,0,0,1.9-14.878A38.835,38.835,0,0,0,3.784,13.71c-.576-1.18-1.171-2.4-1.691-3.627-.136-.321-.271-.633-.4-.939C.349,6.042-.709,3.591.593.21A.336.336,0,0,1,1.021.021a.319.319,0,0,1,.2.415C.006,3.578.97,5.808,2.3,8.9c.132.307.268.621.4.943.513,1.213,1.1,2.424,1.677,3.6a39.31,39.31,0,0,1,2.887,7.038A19.678,19.678,0,0,1,5.3,35.843.335.335,0,0,1,5.015,36" transform="translate(1170 482)"/>
    <path id="Fill_21" data-name="Fill 21" d="M4.181,39a.355.355,0,0,1-.306-.166c-4.412-7.366-5.118-16.842-1.8-24.142.56-1.232,1.227-2.437,1.871-3.6.666-1.2,1.354-2.448,1.918-3.712C6.979,4.884,7.716,2.924,7.052.4A.321.321,0,0,1,7.31.009a.352.352,0,0,1,.422.237c.711,2.71-.094,4.854-1.22,7.375-.575,1.288-1.27,2.544-1.942,3.759-.639,1.155-1.3,2.349-1.85,3.559C-.52,22.066.173,31.323,4.486,38.523a.309.309,0,0,1-.137.437.378.378,0,0,1-.168.04" transform="translate(1194 473)"/>
    <path id="Fill_23" data-name="Fill 23" d="M2.556,99a.306.306,0,0,1-.123-.026.32.32,0,0,1-.165-.418c3.664-8.672,2.152-18.537.29-27.9l-.188-.943C.552,60.6-1.327,51.181,1.3,42.3,2.622,37.8,5.06,33.7,7.417,29.746q.375-.63.748-1.259c2.538-4.29,5.087-8.9,5.938-13.981C15.026,9,13.539,3.654,10.222.552A.322.322,0,0,1,10.2.1a.311.311,0,0,1,.444-.018C14.119,3.331,15.68,8.9,14.723,14.613c-.869,5.187-3.45,9.86-6.019,14.2q-.373.63-.749,1.261C5.618,34,3.2,38.059,1.9,42.479c-2.577,8.732-.714,18.074,1.088,27.109l.188.943c1.882,9.46,3.406,19.436-.328,28.276A.314.314,0,0,1,2.556,99" transform="translate(1198 459)"/>
    <path id="Fill_25" data-name="Fill 25" d="M.327,79a.331.331,0,0,1-.189-.059A.313.313,0,0,1,.06,78.5c2.654-3.657,6.362-5.924,9.634-7.924A30.29,30.29,0,0,0,22.22,54.259a47.236,47.236,0,0,0,1.718-20.648A71.894,71.894,0,0,0,10.616.5.313.313,0,0,1,10.691.06a.332.332,0,0,1,.456.073A72.545,72.545,0,0,1,24.588,33.539a47.85,47.85,0,0,1-1.747,20.92,30.929,30.929,0,0,1-12.8,16.654c-3.22,1.968-6.869,4.2-9.448,7.752A.329.329,0,0,1,.327,79" transform="translate(1201 479)"/>
    <path id="Fill_27" data-name="Fill 27" d="M7.08,27a.337.337,0,0,1-.069-.007.321.321,0,0,1-.249-.381c1.231-5.651.315-9.843-.571-13.9l-.111-.511C5.3,8.629,3.323,3.689.1.548A.318.318,0,0,1,.093.1a.327.327,0,0,1,.458,0C3.88,3.331,5.918,8.4,6.715,12.071l.111.51c.858,3.928,1.831,8.379.571,14.165A.323.323,0,0,1,7.08,27" transform="translate(1213 468)"/>
    <path id="Fill_29" data-name="Fill 29" d="M6.8,14a.2.2,0,0,1-.074-.014c-1.821-.7-4.088-1.577-5.421-3.306A7.214,7.214,0,0,1,.067,5.37,21.193,21.193,0,0,1,1.651.12.2.2,0,0,1,1.9.012.182.182,0,0,1,2.017.25,20.931,20.931,0,0,0,.455,5.412a6.867,6.867,0,0,0,1.17,5.051c1.268,1.645,3.477,2.5,5.253,3.182a.181.181,0,0,1,.107.241A.2.2,0,0,1,6.8,14" transform="translate(1158 458)"/>
    <path id="Fill_31" data-name="Fill 31" d="M1.553,17A3.039,3.039,0,0,1,.1,16.637a.2.2,0,0,1-.08-.258.178.178,0,0,1,.245-.084c1.734.93,3.95-.347,5.008-2.063a15.651,15.651,0,0,0,1.556-4.144C7,9.464,7.174,8.82,7.378,8.2A36.172,36.172,0,0,1,11.667.084.177.177,0,0,1,11.92.033.2.2,0,0,1,11.969.3,35.863,35.863,0,0,0,7.723,8.325c-.2.611-.375,1.25-.543,1.868a15.951,15.951,0,0,1-1.6,4.248A5.108,5.108,0,0,1,1.553,17" transform="translate(1193 461)"/>
    <path id="Fill_33" data-name="Fill 33" d="M2.569,3A6.176,6.176,0,0,1,.125,2.5a.263.263,0,0,1-.116-.3c.03-.126.132-.2.227-.156A6.511,6.511,0,0,0,7.7.057a.151.151,0,0,1,.254.028.3.3,0,0,1-.021.339A7.221,7.221,0,0,1,2.569,3" transform="translate(1173 478)"/>
    <path id="Fill_37" data-name="Fill 37" d="M4.808,16a.193.193,0,0,1-.151-.072A21.884,21.884,0,0,1,.586,8.5,12.777,12.777,0,0,1,.83.118a.193.193,0,0,1,.249-.1A.188.188,0,0,1,1.185.26,12.4,12.4,0,0,0,.954,8.4a21.512,21.512,0,0,0,4.005,7.3.188.188,0,0,1-.033.265.193.193,0,0,1-.118.04" transform="translate(1161 482)"/>
    <path id="Fill_39" data-name="Fill 39" d="M.238,16a.292.292,0,0,1-.1-.019.173.173,0,0,1-.109-.252A16.229,16.229,0,0,0,1.016.253.18.18,0,0,1,1.157.011a.26.26,0,0,1,.306.111A16.537,16.537,0,0,1,.452,15.894.251.251,0,0,1,.238,16" transform="translate(1208 464)"/>
    <path id="Fill_41" data-name="Fill 41" d="M.172,39a.157.157,0,0,1-.1-.038.207.207,0,0,1-.037-.269C7.14,27.877,9.494,13.145,6.177.246A.2.2,0,0,1,6.295.008a.171.171,0,0,1,.213.132c3.346,13.011.971,27.871-6.2,38.782A.166.166,0,0,1,.172,39" transform="translate(1211 505)"/>
    <path id="Fill_43" data-name="Fill 43" d="M.214,22a.225.225,0,0,1-.147-.054.187.187,0,0,1-.009-.279A21.293,21.293,0,0,0,5.648.253.2.2,0,0,1,5.794.008a.218.218,0,0,1,.266.134A21.675,21.675,0,0,1,.37,21.938.223.223,0,0,1,.214,22" transform="translate(1164 516)"/>
    <path id="Fill_45" data-name="Fill 45" d="M.352,22a.212.212,0,0,1-.214-.168c-.633-3.672,1.04-7.409,2.385-10.411L7.582.123A.225.225,0,0,1,7.865.015a.194.194,0,0,1,.119.26l-5.059,11.3C1.6,14.528-.047,18.209.568,21.77A.2.2,0,0,1,.387,22L.352,22" transform="translate(1203 485)"/>
    <path id="Fill_47" data-name="Fill 47" d="M.371,12A.178.178,0,0,1,.2,11.837,23.147,23.147,0,0,1,1.678.111.161.161,0,0,1,1.9.018a.2.2,0,0,1,.081.256,22.713,22.713,0,0,0-1.446,11.5A.191.191,0,0,1,.4,12L.371,12" transform="translate(1150 467)"/>
    <path id="Fill_49" data-name="Fill 49" d="M.211,11a.183.183,0,0,1-.171-.182A26.386,26.386,0,0,1,1.67.118.166.166,0,0,1,1.9.016a.2.2,0,0,1,.09.256,25.947,25.947,0,0,0-1.6,10.522A.188.188,0,0,1,.222,11H.211" transform="translate(1197 488)"/>
    <path id="Fill_51" data-name="Fill 51" d="M5.794,17a.208.208,0,0,1-.178-.1A53.758,53.758,0,0,1,1.429,8.964,17.565,17.565,0,0,1,.127.172.2.2,0,0,1,.359,0,.2.2,0,0,1,.536.223a17.2,17.2,0,0,0,1.278,8.6A53.51,53.51,0,0,0,5.972,16.7a.193.193,0,0,1-.075.27.208.208,0,0,1-.1.027" transform="translate(1151 535)"/>
    <path id="Fill_53" data-name="Fill 53" d="M.247,13a.322.322,0,0,1-.069-.008c-.131-.03-.206-.136-.168-.237A22.536,22.536,0,0,0,1.058.22c-.021-.1.071-.2.206-.218a.247.247,0,0,1,.282.158,22.845,22.845,0,0,1-1.062,12.7A.247.247,0,0,1,.247,13" transform="translate(1214 517)"/>
    <path id="Fill_55" data-name="Fill 55" d="M1.742,15a.262.262,0,0,1-.247-.133A19.182,19.182,0,0,1,1.447.134.282.282,0,0,1,1.768.008c.136.029.214.133.174.232a18.9,18.9,0,0,0,.047,14.52c.041.1-.036.2-.173.233A.357.357,0,0,1,1.742,15" transform="translate(1146 513)"/>
    <path id="Fill_57" data-name="Fill 57" d="M.223,11a.254.254,0,0,1-.1-.019.178.178,0,0,1-.1-.253A28.576,28.576,0,0,0,3.555.17.217.217,0,0,1,3.8,0,.2.2,0,0,1,4,.21,28.913,28.913,0,0,1,.424,10.893a.229.229,0,0,1-.2.107" transform="translate(1156 499)"/>
    <g id="Group_2" data-name="Group 2" transform="translate(1115 583)">
      <path id="Fill_59" data-name="Fill 59" d="M19.4,7c-.239,0-.48-.007-.726-.022a16.346,16.346,0,0,1-5.916-1.171,11.014,11.014,0,0,1-2.744-1.859c-.059-.052-.11-.093-.154-.129-.331-.27-.423-.435-.395-1.011l.007-.122c.029-.454.006-.721-.068-.793C8.574,1.091,6.854.7,4.8.84,2.825.979,1.364,1.553.994,2.024c-.21.266-.211.485-.194.954,0,.095.007.193.008.3a.4.4,0,0,1-.392.411h0a.4.4,0,0,1-.4-.4c0-.1,0-.188-.008-.276a2.032,2.032,0,0,1,.368-1.5C1.053.652,3.06.148,4.748.029c1.088-.077,3.775-.1,5.2,1.272a1.853,1.853,0,0,1,.315,1.438l-.006.109a1.107,1.107,0,0,0,0,.266c0-.009.052.034.094.068s.11.089.179.15a10.115,10.115,0,0,0,2.548,1.731,15.689,15.689,0,0,0,5.64,1.1,8.908,8.908,0,0,0,7.589-3.16.391.391,0,0,1,.56-.028.414.414,0,0,1,.027.574A9.572,9.572,0,0,1,19.4,7" transform="translate(60 128)"/>
      <path id="Fill_61" data-name="Fill 61" d="M23.844,4A113.251,113.251,0,0,1,.309,1.53a.408.408,0,0,1-.3-.481A.387.387,0,0,1,.463.731C16.76,4.247,35.224,3.967,47.5.018a.383.383,0,0,1,.482.272A.413.413,0,0,1,47.726.8C41.111,2.926,32.724,4,23.844,4" transform="translate(46 1)"/>
      <path id="Fill_63" data-name="Fill 63" d="M22.429,11c-3.329,0-6.662-.134-9.967-.4A112.045,112.045,0,0,1,.3,8.94.362.362,0,0,1,0,8.548a40.128,40.128,0,0,0,.235-7.1C.227,1.3.216,1.16.2,1.02A.365.365,0,0,1,.543.628a.379.379,0,0,1,.418.32c.016.146.027.3.039.446a40.842,40.842,0,0,1-.2,6.91A111.564,111.564,0,0,0,12.525,9.882,119.8,119.8,0,0,0,44.082,8.311c1.051-.2,2.1-.413,3.118-.638a29.32,29.32,0,0,1-.219-6.92c.011-.137.027-.285.047-.437A.374.374,0,0,1,47.454,0a.363.363,0,0,1,.333.4c-.018.141-.033.279-.044.413A29.7,29.7,0,0,0,48,7.905a.354.354,0,0,1-.212.362.5.5,0,0,1-.065.024.516.516,0,0,1-.062.015c-1.116.25-2.268.488-3.425.706A118.239,118.239,0,0,1,22.429,11" transform="translate(46 1)"/>
      <g id="Group_67" data-name="Group 67" transform="translate(0 8)">
        <path id="Clip_66-2" data-name="Clip 66" d="M0,0H46V103.3H0Z" transform="translate(0 0.328)" fill="none"/>
        <g id="Group_67-2" data-name="Group 67" clip-path="url(#clip-path)">
          <path id="Fill_65" data-name="Fill 65" d="M.383,103.3a.384.384,0,0,1-.344-.553c1.888-3.848,3.668-7.382,5.389-10.8,6.883-13.662,12.32-24.454,17.328-40.785.7-2.275,1.393-4.619,2.065-6.886C29.5,28.506,34.332,12.2,45.334.125A.384.384,0,0,1,45.9.643C35.016,12.586,30.207,28.808,25.556,44.495c-.672,2.269-1.368,4.614-2.067,6.893C18.462,67.781,13.013,78.6,6.113,92.293c-1.72,3.415-3.5,6.946-5.385,10.79a.383.383,0,0,1-.344.215" transform="translate(0 0.328)"/>
        </g>
      </g>
      <g id="Group_70" data-name="Group 70" transform="translate(92 8)">
        <path id="Clip_69-2" data-name="Clip 69" d="M0,0H47.368V104.348H0Z" transform="translate(0.33 0.361)" fill="none"/>
        <g id="Group_70-2" data-name="Group 70" clip-path="url(#clip-path-2)">
          <path id="Fill_68" data-name="Fill 68" d="M46.984,104.348a.383.383,0,0,1-.345-.215c-5.662-11.5-13.51-28.542-18.745-44.395l-.518-1.572C20.842,38.366,9.907,5.225.222.731a.383.383,0,1,1,.324-.7C10.533,4.669,21.108,36.719,28.1,57.928l.519,1.572c5.221,15.811,13.054,32.816,18.7,44.3a.383.383,0,0,1-.344.552" transform="translate(0.33 0.361)"/>
        </g>
      </g>
      <path id="Fill_71" data-name="Fill 71" d="M12.07,8C7.469,8,3.348,5.49.075.664A.447.447,0,0,1,.146.084.344.344,0,0,1,.664.164C4.147,5.3,8.615,7.69,13.59,7.078A.386.386,0,0,1,14,7.444a.406.406,0,0,1-.327.457,13.14,13.14,0,0,1-1.6.1" transform="translate(0 111)"/>
      <path id="Fill_73" data-name="Fill 73" d="M37.866,16h-.3c-3.706-.024-8.52-1.369-10.143-3.811a1.812,1.812,0,0,1-.236-1.505l.22-.765a9.633,9.633,0,0,0-5.411-2.533,8.516,8.516,0,0,0-5.318,1.009,1.046,1.046,0,0,0-.446.532c-.069.172-.109.283-.237.692a.387.387,0,0,1-.242.249c-2.545.884-5.9,1.718-9.258.307C2.464,8.481.349,6.755.027,4.9A5.393,5.393,0,0,1,.805,2.059,12.253,12.253,0,0,0,1.514.284a.387.387,0,0,1,.747.2A12.868,12.868,0,0,1,1.51,2.381,5.142,5.142,0,0,0,.79,4.764c.27,1.556,2.289,3.136,6,4.7,3.04,1.277,6.13.553,8.52-.261.086-.269.13-.391.2-.559a1.819,1.819,0,0,1,.786-.921,9.286,9.286,0,0,1,5.805-1.1,10.274,10.274,0,0,1,6.026,2.943.386.386,0,0,1,.081.362l-.28.973a1.04,1.04,0,0,0,.137.864c1.421,2.139,5.948,3.442,9.5,3.466,4.612.039,8.064-.638,10.864-2.1a.387.387,0,1,1,.36.685C45.938,15.3,42.459,16,37.866,16" transform="translate(12 118)"/>
      <path id="Fill_75" data-name="Fill 75" d="M3.649,10A9.235,9.235,0,0,1,1.08,9.663C.76,9.571.653,9.2.6,9.008c-.013-.044-.025-.09-.041-.152A3.757,3.757,0,0,0,.117,7.6.467.467,0,0,1,.1,7a.341.341,0,0,1,.525-.019,4.414,4.414,0,0,1,.643,1.639l.026.1c.014.048.03.105.045.145C4.317,9.689,8.5,8.6,10.69,7.1A3.715,3.715,0,0,0,12.238,5.34c-.164-.547-.8-2.7-1.211-4.823A.428.428,0,0,1,11.309.01a.374.374,0,0,1,.444.32c.37,1.886.964,4,1.227,4.857a.478.478,0,0,1,.01.241,4.219,4.219,0,0,1-1.917,2.4A14.136,14.136,0,0,1,3.649,10" transform="translate(114 118)"/>
      <path id="Fill_77" data-name="Fill 77" d="M14.894,8a6.319,6.319,0,0,1-3.22-.784,1.29,1.29,0,0,1-.593-1.4l0-.042c0-.056.01-.116.017-.177a.9.9,0,0,0,.009-.251c-.841-.726-2.6-1.119-4.7-1.029A9.347,9.347,0,0,0,.8,6.12a3.057,3.057,0,0,1-.037.9.386.386,0,0,1-.444.3A.369.369,0,0,1,.006,6.9a2.173,2.173,0,0,0,.009-.827A.356.356,0,0,1,.107,5.75C1.5,4.3,4.256,3.679,6.375,3.587c2.3-.1,4.268.366,5.274,1.244a.9.9,0,0,1,.218.85c-.005.046-.011.092-.013.135l0,.043c-.025.448-.021.584.236.739a6,6,0,0,0,3.65.624,5.436,5.436,0,0,0,4.506-2.9c-.02-.121-.052-.255-.084-.4a3.019,3.019,0,0,1-.114-1.211,1.647,1.647,0,0,1,.857-.953l.157-.1A9.424,9.424,0,0,1,23.4.488,12.639,12.639,0,0,1,28.654.1.371.371,0,0,1,29,.5a.384.384,0,0,1-.422.327,11.861,11.861,0,0,0-4.921.354,8.649,8.649,0,0,0-2.149,1.069c-.055.037-.113.075-.172.113-.223.144-.5.322-.532.482a2.578,2.578,0,0,0,.11.917,5.685,5.685,0,0,1,.11.56A.349.349,0,0,1,21,4.5a6.161,6.161,0,0,1-5.171,3.448,8.622,8.622,0,0,1-.93.051" transform="translate(86 123)"/>
      <g id="Group_81" data-name="Group 81" transform="translate(126 112)">
        <path id="Clip_80-2" data-name="Clip 80" d="M0,0H13.413V6.869H0Z" transform="translate(0.312 0.1)" fill="none"/>
        <g id="Group_81-2" data-name="Group 81" clip-path="url(#clip-path-3)">
          <path id="Fill_79" data-name="Fill 79" d="M1.959,6.869A11.728,11.728,0,0,1,.308,6.752.4.4,0,0,1,0,6.294a.372.372,0,0,1,.39-.359A13.288,13.288,0,0,0,12.794.148.315.315,0,0,1,13.287.1a.463.463,0,0,1,.044.58A14.252,14.252,0,0,1,1.959,6.869" transform="translate(0.312 0.1)"/>
        </g>
      </g>
      <path id="Fill_82" data-name="Fill 82" d="M17.767,57a.233.233,0,0,1-.221-.156C16.019,52.37,1.669,5.736.01.293A.227.227,0,0,1,.166.009a.234.234,0,0,1,.29.153C2.115,5.6,16.461,52.229,17.988,56.7a.228.228,0,0,1-.147.289.249.249,0,0,1-.074.012" transform="translate(109 61)"/>
      <path id="Fill_84" data-name="Fill 84" d="M.224,51a.233.233,0,0,1-.068-.011.233.233,0,0,1-.145-.29c.338-1.1,1.043-3.188,2.017-6.078C5.513,34.285,12,15.044,15.56.176A.222.222,0,0,1,15.83.007a.231.231,0,0,1,.163.279C12.428,15.176,5.937,34.429,2.45,44.773,1.476,47.66.773,49.746.436,50.839A.224.224,0,0,1,.224,51" transform="translate(13 69)"/>
      <path id="Fill_86" data-name="Fill 86" d="M.233,74a.254.254,0,0,1-.071-.011A.228.228,0,0,1,.011,73.7C7.6,50.243,10.1,34.438,14.256,8.253c.409-2.578.834-5.259,1.282-8.059A.231.231,0,0,1,15.8,0,.229.229,0,0,1,16,.264c-.448,2.8-.873,5.481-1.281,8.058C10.559,34.529,8.051,50.348.454,73.841A.233.233,0,0,1,.233,74" transform="translate(28 53)"/>
      <path id="Fill_88" data-name="Fill 88" d="M.227,65a.223.223,0,0,1-.057-.008.231.231,0,0,1-.162-.282c.613-2.413,1.209-4.738,1.787-6.992C7.077,37.1,10.894,22.2,12.548.213A.226.226,0,1,1,13,.249C11.343,22.282,7.521,37.2,2.232,57.836c-.577,2.254-1.173,4.578-1.786,6.991A.227.227,0,0,1,.227,65" transform="translate(40 63)"/>
      <path id="Fill_90" data-name="Fill 90" d="M.252,77h0A.24.24,0,0,1,0,76.768C.211,64.557,1.072,54.325,1.9,44.43,3.173,29.348,4.269,16.323,2.775.248A.236.236,0,0,1,3.005,0,.243.243,0,0,1,3.278.21c1.5,16.112.4,29.154-.871,44.256C1.575,54.353.715,64.578.5,76.775A.242.242,0,0,1,.252,77" transform="translate(69 52)"/>
      <path id="Fill_92" data-name="Fill 92" d="M6.771,54a.228.228,0,0,1-.227-.205C5.83,46.4,4.713,38.247,3.531,29.615,2.169,19.675.761,9.4,0,.247A.227.227,0,0,1,.21,0,.226.226,0,0,1,.457.209C1.215,9.347,2.622,19.62,3.984,29.554,5.167,38.19,6.284,46.348,7,53.751A.228.228,0,0,1,6.793,54H6.771" transform="translate(80 76)"/>
      <path id="Fill_94" data-name="Fill 94" d="M10.776,66a.225.225,0,0,1-.22-.187l-.509-2.837C7.135,46.745,3.147,24.517,0,.258A.227.227,0,0,1,.195,0,.224.224,0,0,1,.446.2C3.59,24.446,7.577,46.668,10.487,62.893L11,65.731a.227.227,0,0,1-.18.265.208.208,0,0,1-.04,0" transform="translate(86 63)"/>
      <path id="Fill_96" data-name="Fill 96" d="M16.768,78a.231.231,0,0,1-.228-.187C8.224,33.466.509,2.007.03.368A.223.223,0,0,1,0,.3.252.252,0,0,1,.188.007c.091-.015.149-.026.245.2l.027,0a.225.225,0,0,1,0,.072c.187.5.515,1.873,1.39,5.525.774,3.233,2.037,8.607,3.656,15.85C8.263,33.987,12.5,53.726,17,77.729a.233.233,0,0,1-.228.271" transform="translate(89 48)"/>
      <path id="Fill_98" data-name="Fill 98" d="M11.779,55a.223.223,0,0,1-.217-.183c-.17-.876-.419-2.473-.763-4.683C9.221,40.008,5.939,18.936.011.3A.228.228,0,0,1,.153.012.219.219,0,0,1,.431.157c5.939,18.672,9.225,39.768,10.8,49.906.343,2.2.591,3.8.76,4.665a.227.227,0,0,1-.174.267.189.189,0,0,1-.043,0" transform="translate(101 69)"/>
      <path id="Fill_100" data-name="Fill 100" d="M.222,25a.227.227,0,0,1-.065-.01.229.229,0,0,1-.147-.284C2.319,16.92,8.54,1.146,11.705.012a.22.22,0,0,1,.282.14.228.228,0,0,1-.136.289C8.948,1.481,2.809,16.828.434,24.839A.223.223,0,0,1,.222,25" transform="translate(37 10)"/>
      <path id="Fill_102" data-name="Fill 102" d="M12.786,35a.216.216,0,0,1-.2-.161C8.922,22.292,3.391,3.331.078.4A.239.239,0,0,1,.049.083.206.206,0,0,1,.35.052C3.5,2.834,8.127,18.03,12.99,34.7a.233.233,0,0,1-.141.287.209.209,0,0,1-.064.01" transform="translate(89 10)"/>
      <path id="Fill_104" data-name="Fill 104" d="M.241,11H.218A.225.225,0,0,1,0,10.763c.009-.09,1.05-9.05,3.61-10.542A1.48,1.48,0,0,1,4.837.07a.213.213,0,0,1,.15.276.247.247,0,0,1-.306.135.969.969,0,0,0-.809.1C1.835,1.773.662,9.063.481,10.8a.233.233,0,0,1-.24.2" transform="translate(53 12)"/>
      <path id="Fill_106" data-name="Fill 106" d="M3.743,14a.246.246,0,0,1-.254-.189L2.131,4.857C1.87,3.143,1.478,1.242.1.391A.2.2,0,0,1,.05.088.289.289,0,0,1,.409.042C1.946,1,2.366,3,2.64,4.8L4,13.756A.227.227,0,0,1,3.776,14l-.033,0" transform="translate(78 11)"/>
      <path id="Fill_108" data-name="Fill 108" d="M.7,54h0a.238.238,0,0,1-.248-.228c.123-6.976-.034-14.662-.2-22.8C.039,20.462-.183,9.594.24.216A.254.254,0,0,1,.5,0,.237.237,0,0,1,.744.234C.322,9.6.543,20.46.757,30.964c.166,8.142.322,15.832.2,22.815A.24.24,0,0,1,.7,54" transform="translate(60 75)"/>
      <path id="Fill_110" data-name="Fill 110" d="M.255,39H.249A.244.244,0,0,1,0,38.761C.555,15.315,2.092,2.3,4.568.067a.27.27,0,0,1,.36,0,.222.222,0,0,1,0,.332C2.58,2.513,1.053,15.781.509,38.771A.246.246,0,0,1,.255,39" transform="translate(61 12)"/>
      <path id="Fill_112" data-name="Fill 112" d="M5.773,20a.225.225,0,0,1-.221-.176c-.24-1.135-1.01-4.635-1.756-8.02S2.275,4.9,2.035,3.76a8.571,8.571,0,0,0-.577-1.953A2.8,2.8,0,0,0,.134.422.218.218,0,0,1,.02.13.229.229,0,0,1,.32.019a3.235,3.235,0,0,1,1.548,1.6,8.866,8.866,0,0,1,.612,2.052c.24,1.137,1.013,4.646,1.76,8.04S5.755,18.6,6,19.734A.221.221,0,0,1,5.819,20a.247.247,0,0,1-.046,0" transform="translate(86 11)"/>
      <path id="Fill_114" data-name="Fill 114" d="M1.755,23a.24.24,0,0,1-.245-.235l-.02-12.9c0-3-.176-6.792-1.47-9.533A.232.232,0,0,1,.143.021.248.248,0,0,1,.467.138C1.8,2.961,1.976,6.819,1.98,9.865L2,22.764A.24.24,0,0,1,1.756,23Z" transform="translate(70 12)"/>
      <path id="Fill_116" data-name="Fill 116" d="M.385,2A.365.365,0,0,1,0,1.736c-.027-.166.122-.317.333-.338A252.574,252.574,0,0,1,47.658.869c.211.018.363.168.339.334a.372.372,0,0,1-.426.266A251.592,251.592,0,0,0,.434,2L.385,2" transform="translate(46)"/>
    </g>
    <g id="Group_53" data-name="Group 53" transform="translate(1013 640)">
      <path id="Fill_1-2" data-name="Fill 1" d="M27.567,43c-.738,0-1.462-.029-2.158-.057A177.121,177.121,0,0,1,.446,40.573a.284.284,0,0,1-.16-.09,1.406,1.406,0,0,1,.037-1.74A3.542,3.542,0,0,1,1.636,37.8c.995-.5,2.034-1.009,3.039-1.5a96.59,96.59,0,0,0,9.1-4.852.283.283,0,1,1,.3.477A96.982,96.982,0,0,1,4.925,36.8c-1,.491-2.041,1-3.033,1.5a3.117,3.117,0,0,0-1.115.781.9.9,0,0,0-.12.955,177.224,177.224,0,0,0,24.775,2.341,17.283,17.283,0,0,0,6.816-.647c2.246-.857,3.247-2.995,3.93-4.972a95.958,95.958,0,0,1,4.617-11.372,28.707,28.707,0,0,1,2.817-4.78,33.468,33.468,0,0,1,2.442-2.75c.431-.452.878-.918,1.3-1.388a12.763,12.763,0,0,0,2.868-4.564,8.865,8.865,0,0,0-.731-5.7,20.373,20.373,0,0,0-3.5-5.737.283.283,0,0,1,.419-.38,20.917,20.917,0,0,1,3.6,5.9,9.422,9.422,0,0,1,.751,6.086,13.284,13.284,0,0,1-2.988,4.774c-.429.476-.878.945-1.312,1.4a33.134,33.134,0,0,0-2.4,2.7A28.238,28.238,0,0,0,41.3,25.637a95.408,95.408,0,0,0-4.59,11.307c-.725,2.1-1.8,4.374-4.264,5.315A13.636,13.636,0,0,1,27.567,43" transform="translate(24 24)"/>
      <path id="Fill_3-2" data-name="Fill 3" d="M12.084,37a20.732,20.732,0,0,1-5.646-.905l-.5-.138a15.962,15.962,0,0,1-4.592-1.8C.857,33.836.024,33.217,0,32.646a.594.594,0,0,1,.245-.508.817.817,0,0,1,.515-.144,3.77,3.77,0,0,1,.659.082l.014,0a2.753,2.753,0,0,0,.318.048c.183.007.368.011.551.011A8.59,8.59,0,0,0,3.935,32,11.485,11.485,0,0,0,7.1,30.756c4.412-2.349,7.414-5.215,8.924-8.519.418-.916.822-1.921,1.179-2.808l.012-.03A45.891,45.891,0,0,1,22.3,9.8c1.079-1.515,2.275-2.948,3.432-4.334l.134-.161c.534-.642,1.086-1.3,1.614-1.964l.006-.008A11.645,11.645,0,0,1,30.572.356,2.447,2.447,0,0,1,31.722,0,1.239,1.239,0,0,1,32.4.187a1.462,1.462,0,0,1,.591,1.428,3.765,3.765,0,0,1-.5,1.317l-5.58,10.361a38.6,38.6,0,0,0-3.088,9.1,35.86,35.86,0,0,1-3.522,9.89,9.11,9.11,0,0,1-3.308,3.587A10.367,10.367,0,0,1,12.084,37ZM.761,32.562c-.127,0-.168.024-.17.027-.025.018-.025.025-.025.032.008.2.489.667,1.1,1.058a15.547,15.547,0,0,0,4.432,1.729l.5.139a20.191,20.191,0,0,0,5.494.884,9.678,9.678,0,0,0,4.639-1.064,8.624,8.624,0,0,0,3.087-3.376,35.443,35.443,0,0,0,3.459-9.736,39.069,39.069,0,0,1,3.139-9.233L31.987,2.664a3.292,3.292,0,0,0,.439-1.116.922.922,0,0,0-.33-.88.675.675,0,0,0-.374-.1,1.874,1.874,0,0,0-.869.282A11.05,11.05,0,0,0,27.923,3.7c-.588.733-1.207,1.476-1.754,2.131-1.153,1.383-2.345,2.811-3.405,4.3a45.306,45.306,0,0,0-5.03,9.478l-.012.029c-.359.892-.766,1.9-1.189,2.832-1.563,3.421-4.649,6.377-9.173,8.784a11.95,11.95,0,0,1-3.319,1.3,9.19,9.19,0,0,1-1.739.149c-.167,0-.349,0-.571-.011a3.119,3.119,0,0,1-.415-.059A3.374,3.374,0,0,0,.761,32.562Z" transform="translate(37 23)"/>
      <path id="Fill_5-2" data-name="Fill 5" d="M.58,21c-.1,0-.206,0-.308-.007A.283.283,0,1,1,.3,20.428c2.787.132,5.456-1.727,7.2-3.309a32.809,32.809,0,0,0,5-5.68A55.749,55.749,0,0,0,15.4,6.581,42.378,42.378,0,0,1,19.493.1a.288.288,0,0,1,.4-.041.282.282,0,0,1,.042.4A41.939,41.939,0,0,0,15.9,6.853a56.223,56.223,0,0,1-2.924,4.907,33.377,33.377,0,0,1-5.087,5.777C6.123,19.134,3.449,21,.58,21" transform="translate(43 38)"/>
      <path id="Fill_7-2" data-name="Fill 7" d="M1.382,21H1.368a.293.293,0,0,1-.282-.3l.018-.358C1.438,13.749,1.895,4.727.024.4A.288.288,0,0,1,.18.023.3.3,0,0,1,.569.177C2.493,4.623,2.033,13.722,1.7,20.366l-.018.358a.294.294,0,0,1-.3.276" transform="translate(67 44)"/>
      <path id="Fill_9-2" data-name="Fill 9" d="M1.284,29a.307.307,0,0,1-.193-.068,9.95,9.95,0,0,1-.8-.745l-.209-.209a.274.274,0,0,1,.008-.4.309.309,0,0,1,.421.008l.213.213c.206.208.4.406.629.6l.442-.137.422-.131c.067-1.179.13-2.371.193-3.569C2.879,15.748,3.362,6.634,5.418.2A.3.3,0,0,1,5.789.012a.281.281,0,0,1,.2.354C3.953,6.732,3.472,15.81,3.007,24.59c-.067,1.265-.134,2.524-.2,3.767a.286.286,0,0,1-.209.255c-.207.061-.408.124-.61.187s-.4.126-.611.188A.316.316,0,0,1,1.284,29" transform="translate(68 37)"/>
      <path id="Fill_11" data-name="Fill 11" d="M.262,24H.246A.278.278,0,0,1,0,23.7C.538,14.17.689,2.254.047.386A.294.294,0,0,1,.2.018.256.256,0,0,1,.537.185C1.307,2.426.984,15.56.523,23.732A.273.273,0,0,1,.262,24" transform="translate(69 42)"/>
      <path id="Fill_13-2" data-name="Fill 13" d="M27.391,5c-.773,0-1.544-.052-2.3-.1-1.462-.1-2.926-.137-4.343-.175-2.026-.053-4.12-.109-6.3-.337q-.968-.1-1.937-.2A94.319,94.319,0,0,1,2.2,2.767c-.1-.022-.207-.042-.314-.062C1.082,2.554-.024,2.347,0,.989A.223.223,0,0,1,.212.759h0A.225.225,0,0,1,.424,1c-.016.888.6,1.07,1.535,1.245.111.021.22.041.324.063A94.192,94.192,0,0,0,12.544,3.722q.97.1,1.938.2c2.166.227,4.253.282,6.271.335,1.42.037,2.889.076,4.359.175a14.839,14.839,0,0,0,5.138-.251A6.109,6.109,0,0,0,34.588.156a.206.206,0,0,1,.271-.142.241.241,0,0,1,.129.3,6.531,6.531,0,0,1-4.63,4.318A10.593,10.593,0,0,1,27.391,5" transform="translate(24 63)"/>
      <path id="Fill_15-2" data-name="Fill 15" d="M1.035,1A.184.184,0,0,1,.927.965L.079.349A.2.2,0,0,1,.034.081.185.185,0,0,1,.3.035L1.074.6c.1-.023.205-.045.313-.067.133-.028.267-.055.38-.084a.185.185,0,0,1,.227.14.192.192,0,0,1-.136.233c-.119.03-.258.059-.4.088s-.267.055-.38.084A.2.2,0,0,1,1.035,1" transform="translate(69 62)"/>
      <path id="Fill_17-2" data-name="Fill 17" d="M13.835,2h-.008C9.274,1.7,4.671,1.179.146.444A.218.218,0,0,1,0,.2C.012.074.1-.013.185,0,4.7.735,9.3,1.258,13.842,1.554A.208.208,0,0,1,14,1.788c0,.119-.078.212-.165.212" transform="translate(29 63)"/>
      <path id="Fill_19-2" data-name="Fill 19" d="M.141,11a.128.128,0,0,1-.1-.047.2.2,0,0,1-.006-.246A8.709,8.709,0,0,0,1.715,5.695,11.519,11.519,0,0,0,.486.263.2.2,0,0,1,.535.024.128.128,0,0,1,.729.085,11.914,11.914,0,0,1,2,5.7,9.107,9.107,0,0,1,.244,10.946a.129.129,0,0,1-.1.054" transform="translate(71 28)"/>
      <path id="Fill_21-2" data-name="Fill 21" d="M2.8,1A.254.254,0,0,1,2.735.992L.139.314A.157.157,0,0,1,.01.111a.216.216,0,0,1,.255-.1l2.6.677a.157.157,0,0,1,.129.2A.2.2,0,0,1,2.8,1" transform="translate(51 57)"/>
      <path id="Fill_23-2" data-name="Fill 23" d="M2.8,1H2.787A8.479,8.479,0,0,1,.119.363a.187.187,0,0,1-.1-.25.2.2,0,0,1,.261-.1A8.054,8.054,0,0,0,2.817.622.193.193,0,0,1,3,.825.2.2,0,0,1,2.8,1" transform="translate(53 55)"/>
      <path id="Fill_25-2" data-name="Fill 25" d="M1.777,1a.211.211,0,0,1-.06-.009L.163.5A.26.26,0,0,1,.008.186.221.221,0,0,1,.282.009L1.837.5a.26.26,0,0,1,.155.313A.23.23,0,0,1,1.777,1" transform="translate(55 53)"/>
      <path id="Fill_27-2" data-name="Fill 27" d="M23.433,43a13.635,13.635,0,0,1-4.883-.741c-2.464-.941-3.538-3.215-4.264-5.315A95.424,95.424,0,0,0,9.7,25.638a28.217,28.217,0,0,0-2.759-4.687,33.024,33.024,0,0,0-2.4-2.7c-.434-.454-.883-.923-1.311-1.4A13.283,13.283,0,0,1,.235,12.074,9.42,9.42,0,0,1,.986,5.989a20.91,20.91,0,0,1,3.6-5.9.283.283,0,0,1,.42.38,20.364,20.364,0,0,0-3.5,5.737,8.863,8.863,0,0,0-.731,5.7,12.762,12.762,0,0,0,2.868,4.564c.422.469.868.935,1.3,1.386a33.353,33.353,0,0,1,2.443,2.751,28.672,28.672,0,0,1,2.817,4.78A95.877,95.877,0,0,1,14.822,36.76c.683,1.977,1.684,4.114,3.93,4.972a17.284,17.284,0,0,0,6.816.647,177.179,177.179,0,0,0,24.775-2.341.9.9,0,0,0-.12-.955,3.111,3.111,0,0,0-1.115-.781c-.992-.5-2.031-1.007-3.034-1.5a96.953,96.953,0,0,1-9.15-4.881.281.281,0,0,1-.087-.39.284.284,0,0,1,.391-.087,96.506,96.506,0,0,0,9.1,4.851c1.005.492,2.045,1,3.04,1.5a3.594,3.594,0,0,1,1.312.946,1.406,1.406,0,0,1,.038,1.74.284.284,0,0,1-.16.09,177.161,177.161,0,0,1-24.963,2.37c-.7.028-1.421.057-2.158.057" transform="translate(0 1)"/>
      <path id="Fill_29-2" data-name="Fill 29" d="M20.916,37a10.374,10.374,0,0,1-4.9-1.129A9.111,9.111,0,0,1,12.7,32.284,35.88,35.88,0,0,1,9.183,22.4v-.005a38.623,38.623,0,0,0-3.087-9.1L.516,2.934a3.738,3.738,0,0,1-.5-1.319A1.462,1.462,0,0,1,.6.187,1.239,1.239,0,0,1,1.278,0,2.446,2.446,0,0,1,2.427.356,11.661,11.661,0,0,1,5.513,3.34l0,0c.566.707,1.156,1.416,1.727,2.1l.02.024.011.013C8.432,6.87,9.628,8.3,10.7,9.8A45.891,45.891,0,0,1,15.791,19.4c.36.9.769,1.913,1.191,2.838,1.508,3.3,4.511,6.17,8.923,8.519A11.461,11.461,0,0,0,29.066,32a8.59,8.59,0,0,0,1.633.139c.182,0,.367,0,.55-.011a2.81,2.81,0,0,0,.324-.049l.009,0a3.771,3.771,0,0,1,.658-.082.813.813,0,0,1,.515.144.6.6,0,0,1,.246.508c-.023.571-.859,1.193-1.354,1.512a15.972,15.972,0,0,1-4.587,1.8l-.5.139A20.763,20.763,0,0,1,20.916,37ZM1.278.568A.675.675,0,0,0,.9.668a.919.919,0,0,0-.33.88,3.264,3.264,0,0,0,.433,1.107l0,.009L6.592,13.023A39.046,39.046,0,0,1,9.73,22.252l0,.007a35.415,35.415,0,0,0,3.458,9.733,8.611,8.611,0,0,0,3.086,3.376,9.685,9.685,0,0,0,4.64,1.064,20.2,20.2,0,0,0,5.494-.884l.5-.139a15.53,15.53,0,0,0,4.428-1.726c.608-.392,1.091-.857,1.1-1.06,0-.008,0-.014-.025-.033a.323.323,0,0,0-.171-.027,3.339,3.339,0,0,0-.555.073,3.124,3.124,0,0,1-.415.059c-.222.007-.4.011-.571.011a9.177,9.177,0,0,1-1.739-.149,11.965,11.965,0,0,1-3.319-1.3c-4.524-2.407-7.61-5.363-9.173-8.784-.425-.932-.834-1.948-1.195-2.845a45.455,45.455,0,0,0-5.036-9.494C9.181,8.652,7.992,7.226,6.843,5.847l-.011-.014c-.548-.656-1.167-1.4-1.755-2.132A11.053,11.053,0,0,0,2.147.85,1.884,1.884,0,0,0,1.278.568Z" transform="translate(4)"/>
      <path id="Fill_31-2" data-name="Fill 31" d="M19.42,21c-2.869,0-5.543-1.866-7.306-3.464a33.388,33.388,0,0,1-5.086-5.777A56.117,56.117,0,0,1,4.1,6.853,41.928,41.928,0,0,0,.064.461a.282.282,0,0,1,.042-.4A.287.287,0,0,1,.506.1,42.389,42.389,0,0,1,4.6,6.581,55.8,55.8,0,0,0,7.5,11.439a32.81,32.81,0,0,0,5,5.68c1.746,1.583,4.412,3.437,7.2,3.309a.283.283,0,1,1,.027.565c-.1,0-.206.007-.308.007" transform="translate(11 15)"/>
      <path id="Fill_33-2" data-name="Fill 33" d="M.618,21a.294.294,0,0,1-.3-.276L.3,20.365C-.033,13.721-.493,4.623,1.431.177A.3.3,0,0,1,1.819.023.288.288,0,0,1,1.976.4C.105,4.727.562,13.749.9,20.336l.018.359a.293.293,0,0,1-.282.3H.618" transform="translate(6 21)"/>
      <path id="Fill_35" data-name="Fill 35" d="M4.716,29a.313.313,0,0,1-.088-.013c-.208-.061-.412-.125-.616-.189s-.4-.125-.605-.186a.286.286,0,0,1-.209-.255c-.071-1.243-.138-2.5-.2-3.765C2.528,15.812,2.047,6.733.013.366a.281.281,0,0,1,.2-.354A.3.3,0,0,1,.582.2C2.638,6.635,3.121,15.749,3.588,24.563c.063,1.2.127,2.389.193,3.567.14.042.279.086.418.129s.3.093.447.138c.226-.194.422-.392.628-.6l.214-.214a.308.308,0,0,1,.421-.008.274.274,0,0,1,.008.4l-.21.21a9.869,9.869,0,0,1-.8.744A.307.307,0,0,1,4.716,29" transform="translate(1 14)"/>
      <path id="Fill_37-2" data-name="Fill 37" d="M.738,24a.273.273,0,0,1-.261-.268C.016,15.56-.307,2.425.463.185A.257.257,0,0,1,.8.018.294.294,0,0,1,.953.386C.311,2.254.462,14.17,1,23.7a.278.278,0,0,1-.245.3H.738" transform="translate(5 19)"/>
      <path id="Fill_39-2" data-name="Fill 39" d="M7.609,5a10.571,10.571,0,0,1-2.967-.368A6.532,6.532,0,0,1,.012.313a.242.242,0,0,1,.129-.3A.207.207,0,0,1,.412.156,6.109,6.109,0,0,0,4.75,4.178a14.823,14.823,0,0,0,5.138.251c1.469-.1,2.938-.138,4.358-.175,2.018-.053,4.105-.108,6.272-.335q.97-.1,1.941-.2A94.057,94.057,0,0,0,32.717,2.306c.1-.022.213-.043.324-.063.938-.176,1.551-.357,1.535-1.245a.225.225,0,0,1,.208-.239A.229.229,0,0,1,35,.989c.025,1.359-1.081,1.566-1.888,1.717-.107.02-.213.04-.314.062A94.265,94.265,0,0,1,22.5,4.188q-.971.1-1.94.2c-2.181.228-4.275.283-6.3.337-1.416.038-2.881.076-4.343.175-.76.051-1.532.1-2.3.1" transform="translate(16 40)"/>
      <path id="Fill_41-2" data-name="Fill 41" d="M.964,1A.2.2,0,0,1,.919.994C.806.965.672.938.539.91S.261.853.142.822A.192.192,0,0,1,.006.589.186.186,0,0,1,.232.45C.346.479.48.506.613.534.72.556.827.578.926.6L1.7.035a.185.185,0,0,1,.261.046.2.2,0,0,1-.045.268L1.073.965A.183.183,0,0,1,.964,1" transform="translate(4 39)"/>
      <path id="Fill_43-2" data-name="Fill 43" d="M.165,2C.078,2,0,1.907,0,1.788a.208.208,0,0,1,.157-.234C4.7,1.258,9.3.736,13.815,0c.091-.016.173.072.184.195a.218.218,0,0,1-.145.248C9.328,1.179,4.726,1.7.173,2Z" transform="translate(32 40)"/>
      <path id="Fill_45-2" data-name="Fill 45" d="M1.859,11a.129.129,0,0,1-.1-.054A9.106,9.106,0,0,1,0,5.7,11.909,11.909,0,0,1,1.271.085.127.127,0,0,1,1.465.025a.2.2,0,0,1,.049.238A11.517,11.517,0,0,0,.285,5.695a8.709,8.709,0,0,0,1.677,5.012.2.2,0,0,1-.006.246.128.128,0,0,1-.1.047" transform="translate(2 5)"/>
      <path id="Fill_47-2" data-name="Fill 47" d="M.2,1A.2.2,0,0,1,.01.889a.157.157,0,0,1,.129-.2L2.734.008a.218.218,0,0,1,.256.1.157.157,0,0,1-.13.2L.265.992A.254.254,0,0,1,.2,1" transform="translate(21 34)"/>
      <path id="Fill_49-2" data-name="Fill 49" d="M.2,1A.2.2,0,0,1,0,.825a.193.193,0,0,1,.183-.2A8.056,8.056,0,0,0,2.722.016a.2.2,0,0,1,.261.1.186.186,0,0,1-.1.25A8.481,8.481,0,0,1,.213,1H.2" transform="translate(19 32)"/>
      <path id="Fill_51-2" data-name="Fill 51" d="M.223,1A.23.23,0,0,1,.008.814.26.26,0,0,1,.163.5L1.718.009a.222.222,0,0,1,.274.177A.26.26,0,0,1,1.837.5L.282.991A.211.211,0,0,1,.223,1" transform="translate(18 30)"/>
    </g>
    <g id="Group_111" data-name="Group 111" transform="translate(998 435)">
      <path id="Fill_1-3" data-name="Fill 1" d="M.392,3h0A.2.2,0,0,1,.24,2.934a.237.237,0,0,1-.062-.165A10.509,10.509,0,0,0,.093,1.546l0-.019A10.957,10.957,0,0,1,0,.228.24.24,0,0,1,.065.064.194.194,0,0,1,.2,0H.217C1.339.044,2.42.05,3.329.05L5.671.044c.9,0,1.977.006,3.127.049A.2.2,0,0,1,8.95.173.243.243,0,0,1,9,.348L8.744,2.743a.217.217,0,0,1-.2.2c-1.352.023-2.732.025-4.066.027H4.462C3,2.975,1.693,2.978.392,3ZM.422.465c.011.337.046.661.084,1,.034.307.077.689.089,1.069,1.284-.02,2.591-.022,3.855-.023h.024c1.271,0,2.586,0,3.875-.024L8.555.542C7.517.507,6.514.5,5.671.5l-2.342,0C2.493.507,1.494.5.422.465Z" transform="translate(54 16)"/>
      <path id="Fill_3-3" data-name="Fill 3" d="M5.8,1H5.791A41.773,41.773,0,0,0,.2.849C.09.854,0,.674,0,.448S.086.037.2.033A42.392,42.392,0,0,1,5.809.184c.11.011.2.2.191.426S5.906,1,5.8,1" transform="translate(55 17)"/>
      <path id="Fill_5-3" data-name="Fill 5" d="M.329,35a.325.325,0,0,1-.2-.068.338.338,0,0,1-.115-.367C2.248,27.318,3.857,21.1,4.446,14.324a.338.338,0,0,1,.127-.236A54.09,54.09,0,0,0,17.388.161a.325.325,0,0,1,.451-.112.338.338,0,0,1,.11.46A54.666,54.666,0,0,1,5.089,14.529,93.5,93.5,0,0,1,.923,33.85,67.3,67.3,0,0,0,6.58,29.143c2.951-2.643,6-5.376,9.662-7.1a.323.323,0,0,1,.23-.018,21.285,21.285,0,0,1,9.442,6.529.339.339,0,0,1-.022.473A.324.324,0,0,1,25.428,29a20.759,20.759,0,0,0-9.021-6.3C12.882,24.39,9.9,27.061,7.015,29.645a59.8,59.8,0,0,1-6.505,5.3A.324.324,0,0,1,.329,35" transform="translate(30 2)"/>
      <path id="Fill_7-3" data-name="Fill 7" d="M25.669,35a.328.328,0,0,1-.182-.055,47.129,47.129,0,0,1-6.138-5.179C16.429,27,13.41,24.147,9.536,22.712c-.676.387-1.321.727-1.945,1.056a18.08,18.08,0,0,0-7,5.587.329.329,0,0,1-.465.06.338.338,0,0,1-.059-.47,18.63,18.63,0,0,1,7.216-5.771c.66-.347,1.341-.706,2.055-1.119a.329.329,0,0,1,.275-.025c4.072,1.464,7.18,4.4,10.186,7.249a53.414,53.414,0,0,0,5.264,4.563l-.139-.447c-1.917-6.153-3.728-11.967-4.32-18.508A56.28,56.28,0,0,1,7.925.508a.337.337,0,0,1,.111-.46.329.329,0,0,1,.455.112A55.5,55.5,0,0,0,21.124,14.444a.334.334,0,0,1,.128.236c.572,6.528,2.385,12.349,4.305,18.512l.427,1.373a.337.337,0,0,1-.116.367.329.329,0,0,1-.2.068" transform="translate(61 2)"/>
      <path id="Fill_9-3" data-name="Fill 9" d="M6.168,153a.348.348,0,0,1-.1-.013.337.337,0,0,1-.205-.162.322.322,0,0,1-.027-.248c10.327-34.784,9.8-62.381,8.032-94.843C13.607,52.849,12.8,37.986,9.328,31.6a60.794,60.794,0,0,1-3.175-6.514c-.7-1.805-1.282-3.61-1.9-5.521l-.011-.034C3.629,17.639,3,15.687,2.227,13.661l-.148-.387C1.1,10.729-.931,5.432.488,2.566A3.245,3.245,0,0,1,2.5.869a3.846,3.846,0,0,1,.878-.14c.1-.007.181-.014.257-.023L3.874.681h.007A97.339,97.339,0,0,1,13.823,0c1.1,0,2.124.036,3.126.111a31.755,31.755,0,0,1,3.3.417c.207.039.424.062.634.084l.027,0a3.647,3.647,0,0,1,1.806.527c1.411.972,1.366,2.773,1.21,4.044-.02.154-.044.319-.074.507-1.588,9.918-6.7,21.482-10.806,30.775l-.568,1.286a.335.335,0,0,1-.255.2c1.645,7.119,2.144,16.291,2.332,19.743V57.7c1.769,32.526,2.3,60.178-8.059,95.062A.341.341,0,0,1,6.168,153ZM13.822.664a96.582,96.582,0,0,0-9.876.678L3.7,1.367c-.074.008-.149.014-.222.019l-.052,0a3.316,3.316,0,0,0-.723.11A2.555,2.555,0,0,0,1.1,2.855c-1.294,2.613.744,7.92,1.615,10.186l.148.389c.777,2.042,1.411,4,2.025,5.9.621,1.915,1.207,3.723,1.9,5.521a60.346,60.346,0,0,0,3.139,6.436,25.35,25.35,0,0,1,2.091,5.822l.4-.9,0-.005C16.511,26.943,21.6,15.423,23.178,5.589c.031-.188.053-.342.07-.482.136-1.1.188-2.654-.927-3.422a3.058,3.058,0,0,0-1.479-.409h-.008c-.231-.024-.47-.049-.713-.094A30.379,30.379,0,0,0,16.9.774C15.923.7,14.889.664,13.822.664Z" transform="translate(46 0)"/>
      <path id="Fill_11-2" data-name="Fill 11" d="M.321,3a.316.316,0,0,1-.28-.2.442.442,0,0,1,.123-.535C4.482-.7,12.4-.762,17.808,2.134a.431.431,0,0,1,.165.517.3.3,0,0,1-.422.2C12.3.045,4.643.088.478,2.95A.273.273,0,0,1,.321,3" transform="translate(49 12)"/>
      <path id="Fill_13-3" data-name="Fill 13" d="M.326,123a.325.325,0,0,1-.105-.018.332.332,0,0,1-.2-.42c.95-2.815,1.96-5.666,2.937-8.424A221.961,221.961,0,0,0,10.2,91.021c2.715-11.566,2.855-21.119.418-28.393a5.977,5.977,0,0,1-.023-3.217,6.4,6.4,0,0,0,.114-2.642,10.24,10.24,0,0,0-.944-2.394,10.105,10.105,0,0,1-1.054-2.833c-.548-3.384-1.021-6.992-1.48-10.481l-.25-1.9C6.276,33.819,5.731,27.927,5.2,22.228,4.52,14.837,3.813,7.193,2.731.384A.33.33,0,0,1,3,0a.327.327,0,0,1,.374.274C4.461,7.11,5.169,14.764,5.854,22.167,6.38,27.858,6.925,33.744,7.63,39.077l.25,1.9c.458,3.484.931,7.087,1.477,10.461a9.458,9.458,0,0,0,.994,2.644,10.909,10.909,0,0,1,1,2.552,7.027,7.027,0,0,1-.112,2.9,5.367,5.367,0,0,0,0,2.881c2.477,7.393,2.342,17.069-.4,28.759a222.385,222.385,0,0,1-7.268,23.189c-.976,2.755-1.985,5.6-2.933,8.414A.327.327,0,0,1,.326,123" transform="translate(20 23)"/>
      <path id="Fill_15-3" data-name="Fill 15" d="M.334,114H.3a.333.333,0,0,1-.3-.362c.2-2.125.322-4.24.442-6.285A105.557,105.557,0,0,1,1.487,96.319c.442-2.7.944-5.751,1.264-8.771a13.55,13.55,0,0,0-.1-2.63c-.16-1.621-.325-3.3.369-4.612.1-.186.21-.374.324-.565.42-.7.817-1.37.531-1.943a1.359,1.359,0,0,0-.416-.461,1.547,1.547,0,0,1-.62-1.71,3.927,3.927,0,0,1,.436-1.22,2.408,2.408,0,0,0,.37-1.4c-.272-2.4.486-9.732,1.154-16.205.417-4.039.812-7.855.862-9.648.206-4.884.474-10.553,1.054-16.085.317-3.022.692-5.732,1.146-8.286.046-.257.093-.595.147-.979.242-1.724.574-4.085,1.426-4.923.063-.062.132-.121.2-.179a1.224,1.224,0,0,0,.284-.3c.155-.283-.049-.7-.246-1.094-.033-.066-.065-.132-.1-.2-.4-.835.1-1.62.537-2.313a4.659,4.659,0,0,0,.479-.882,13.168,13.168,0,0,1,2.821-5.253c1.957-1.952,4.794-2.623,7.536-3.271S26.546,2.076,28.425.1a.333.333,0,0,1,.483.458c-2.016,2.116-4.958,2.811-7.8,3.484-2.775.656-5.4,1.275-7.219,3.094a12.639,12.639,0,0,0-2.662,5,5.162,5.162,0,0,1-.545,1.02c-.38.6-.738,1.169-.5,1.673l.091.186a1.825,1.825,0,0,1,.233,1.708,1.745,1.745,0,0,1-.437.482c-.056.048-.112.095-.164.146-.692.679-1.031,3.1-1.234,4.541-.055.394-.1.74-.151,1C8.068,25.436,7.7,28.13,7.38,31.137c-.578,5.513-.845,11.17-1.05,16.04-.051,1.813-.447,5.64-.865,9.692C4.8,63.308,4.046,70.606,4.309,72.931A3.048,3.048,0,0,1,3.875,74.7,3.352,3.352,0,0,0,3.5,75.719c-.1.715.08.86.379,1.1a1.987,1.987,0,0,1,.594.681c.447.9-.085,1.79-.555,2.579-.108.181-.214.359-.307.535-.6,1.14-.446,2.715-.3,4.238a14.161,14.161,0,0,1,.1,2.764c-.322,3.039-.825,6.1-1.268,8.809a104.983,104.983,0,0,0-1.036,10.965c-.12,2.05-.245,4.171-.443,6.307a.333.333,0,0,1-.332.3" transform="translate(5 17)"/>
      <path id="Fill_17-3" data-name="Fill 17" d="M.335,83a.334.334,0,0,1-.324-.418c.252-.929.514-1.869.777-2.817A113.207,113.207,0,0,0,3.7,67.613a72.449,72.449,0,0,0,.742-10.825c0-.6.023-1.19.041-1.783a20.657,20.657,0,0,0-.439-6.277,2.636,2.636,0,0,1,.167-2.2c.091-.212.195-.453.306-.762a6.952,6.952,0,0,0,.291-3.341,2.451,2.451,0,0,0-.469-.982,4.247,4.247,0,0,1-.444-.772c-.342-.827-.336-.958.075-1.56.045-.066.1-.141.153-.228l.026-.04a2.632,2.632,0,0,0,.63-2.227,8.057,8.057,0,0,1,.412-2.745c.1-.351.2-.714.275-1.083a26.267,26.267,0,0,0,.387-2.971c.051-.56.1-1.139.176-1.7.309-2.4.646-4.84.973-7.2l.295-2.135C8.154,12.541,8.956,6.429,9.331.312A.338.338,0,0,1,9.686,0,.333.333,0,0,1,10,.352c-.377,6.14-1.18,12.265-2.041,18.523L7.664,21.01C7.337,23.367,7,25.8,6.692,28.2c-.071.548-.123,1.121-.174,1.675a26.787,26.787,0,0,1-.4,3.046c-.082.389-.184.762-.284,1.122a7.431,7.431,0,0,0-.39,2.527,3.225,3.225,0,0,1-.738,2.632l-.026.04c-.059.09-.112.168-.159.237-.247.362-.247.362-.01.936a3.725,3.725,0,0,0,.38.654,3.045,3.045,0,0,1,.572,1.239,7.531,7.531,0,0,1-.32,3.676c-.118.327-.23.588-.32.8a2.038,2.038,0,0,0-.138,1.767,21.491,21.491,0,0,1,.463,6.473c-.018.588-.036,1.177-.041,1.769a73.1,73.1,0,0,1-.75,10.924A113.648,113.648,0,0,1,1.434,79.941c-.263.947-.524,1.885-.776,2.813A.335.335,0,0,1,.335,83" transform="translate(17 56)"/>
      <g id="Group_21" data-name="Group 21" transform="translate(0 126)">
        <path id="Clip_20-2" data-name="Clip 20" d="M0,0H19.954V33.731H0Z" transform="translate(0 0.268)" fill="none"/>
        <g id="Group_21-2" data-name="Group 21" clip-path="url(#clip-path-4)">
          <path id="Fill_19-3" data-name="Fill 19" d="M13.271,33.731a.336.336,0,0,1-.132-.027A40.478,40.478,0,0,0,.3,30.58a.339.339,0,0,1-.229-.128A.33.33,0,0,1,0,30.2C1.741,19.508,1.316,12.858.778,4.439V4.432l0-.073C.691,3.071.606,1.739.526.349a.328.328,0,0,1,.2-.32A.337.337,0,0,1,1.093.1c6.421,6.292,12.341,10.2,18.633,12.294a.334.334,0,0,1,.2.174.329.329,0,0,1,.008.26A116.775,116.775,0,0,0,13.6,33.466a.328.328,0,0,1-.172.228A.338.338,0,0,1,13.271,33.731ZM1.241,1.164c.067,1.122.137,2.214.2,3.227C1.979,12.775,2.4,19.4.717,29.964a40.768,40.768,0,0,1,12.309,2.975A116.8,116.8,0,0,1,19.183,12.9C13.1,10.812,7.4,7.082,1.241,1.164Z" transform="translate(0 0.268)"/>
        </g>
      </g>
      <path id="Fill_22" data-name="Fill 22" d="M12.664,125a.336.336,0,0,1-.318-.226Q11.392,122,10.405,119.2C5.019,103.8-.551,87.873.044,73.565c.1-2.368.356-4.748.606-7.049l.071-.658A6.528,6.528,0,0,1,1.4,63.6a5.186,5.186,0,0,0,.591-2.15,15.836,15.836,0,0,0-.113-2.307c-.054-.553-.11-1.125-.124-1.694A5.043,5.043,0,0,1,1.9,55.979,8.2,8.2,0,0,1,2.8,54.073a9.426,9.426,0,0,0,.736-1.433,18.058,18.058,0,0,0,.729-2.893l.094-.482c.363-1.821.649-4.362.9-6.6.133-1.178.258-2.291.387-3.241C6.783,31.009,8.848,14.743,9.921.309a.336.336,0,0,1,.669.049C9.517,14.809,7.45,31.09,6.314,39.509c-.127.943-.252,2.052-.385,3.227-.254,2.255-.543,4.81-.91,6.658l-.094.479a18.625,18.625,0,0,1-.759,3,10.146,10.146,0,0,1-.785,1.535,7.562,7.562,0,0,0-.839,1.748,4.424,4.424,0,0,0-.119,1.273c.013.545.067,1.1.121,1.645a16.4,16.4,0,0,1,.115,2.4,5.818,5.818,0,0,1-.651,2.395,5.9,5.9,0,0,0-.621,2.054l-.071.658c-.248,2.291-.5,4.659-.6,7C.125,87.774,5.674,103.637,11.04,118.977q.981,2.806,1.942,5.581a.333.333,0,0,1-.209.423.341.341,0,0,1-.108.018" transform="translate(83 22)"/>
      <path id="Fill_24" data-name="Fill 24" d="M29.583,115h-.027a.333.333,0,0,1-.3-.361c.556-6.852-1.7-18.885-2.91-25.35-.4-2.12-.684-3.651-.751-4.335-.059-.593-.085-1.207-.11-1.8-.082-1.915-.168-3.9-1.346-5.452-.054-.071-.11-.141-.166-.212a3.578,3.578,0,0,1-.522-.789,3.528,3.528,0,0,1,.315-2.783,6.612,6.612,0,0,0,.446-1.422c.728-5.063-.065-10.539-.833-15.835a90.767,90.767,0,0,1-1.1-10.252c-.224-5.444-.473-10.777-1.042-16.122q-.057-.53-.11-1.067a33.982,33.982,0,0,0-1.069-6.435c-.165-.541-.282-1.142-.4-1.723a8.178,8.178,0,0,0-1.095-3.233l-.1-.128a2.14,2.14,0,0,1-.41-.715,1.962,1.962,0,0,1,.015-.938c.042-.2.094-.4.145-.6a6.2,6.2,0,0,0,.223-1.179,7,7,0,0,0-.993-2.737c-.207-.4-.4-.787-.537-1.115a10.222,10.222,0,0,0-2.039-3.376c-2.041-2.063-4.969-2.855-7.8-3.621A20.448,20.448,0,0,1,.136.6.337.337,0,0,1,.064.137.328.328,0,0,1,.526.064,19.96,19.96,0,0,0,7.245,2.771c2.916.789,5.931,1.6,8.1,3.794a10.823,10.823,0,0,1,2.183,3.593c.125.3.314.673.514,1.065A7.162,7.162,0,0,1,19.1,14.3a6.7,6.7,0,0,1-.243,1.309c-.049.191-.1.382-.138.574a1.36,1.36,0,0,0-.026.616,1.605,1.605,0,0,0,.3.489c.035.046.071.093.105.14a8.637,8.637,0,0,1,1.213,3.5c.116.59.225,1.147.38,1.656a34.526,34.526,0,0,1,1.094,6.563q.054.534.109,1.063c.571,5.365.82,10.71,1.045,16.17a90.458,90.458,0,0,0,1.088,10.179c.774,5.343,1.575,10.868.833,16.028a7.105,7.105,0,0,1-.487,1.574,2.165,2.165,0,0,0,.107,2.9c.06.075.12.15.177.226,1.305,1.722,1.395,3.81,1.482,5.829.025.585.051,1.19.108,1.764.064.655.349,2.175.743,4.278,1.217,6.5,3.482,18.587,2.919,25.529a.332.332,0,0,1-.329.307" transform="translate(82 17)"/>
      <path id="Fill_26" data-name="Fill 26" d="M9.676,84a.325.325,0,0,1-.313-.246c-.453-1.73-1.007-3.532-1.542-5.276a72.27,72.27,0,0,1-2.541-9.89,93.792,93.792,0,0,1-.741-14.282c0-2.222,0-4.52-.086-6.736a6.371,6.371,0,0,0-.369-1.647,4.8,4.8,0,0,1-.323-2.533,4.8,4.8,0,0,1,.624-1.371c.1-.166.2-.332.285-.5a1.84,1.84,0,0,0,.175-1.6,2.186,2.186,0,0,0-.238-.315c-.063-.074-.125-.148-.183-.225-.964-1.3-.954-4.162-.946-6.464,0-.9.006-1.745-.051-2.336-.287-2.95-.629-6.11-1.11-10.244q-.376-3.231-.766-6.46C1.021,9.452.473,4.876,0,.366A.329.329,0,0,1,.289,0,.323.323,0,0,1,.646.3c.471,4.5,1.019,9.078,1.549,13.5q.387,3.23.767,6.462c.481,4.138.824,7.3,1.111,10.257.061.625.058,1.489.054,2.4-.007,2.2-.017,4.943.814,6.061.049.066.1.129.156.192a2.7,2.7,0,0,1,.309.417,2.419,2.419,0,0,1-.163,2.24c-.094.181-.2.357-.3.534a4.252,4.252,0,0,0-.548,1.179A4.241,4.241,0,0,0,4.7,45.721a6.964,6.964,0,0,1,.4,1.825c.082,2.229.084,4.533.086,6.761A93.35,93.35,0,0,0,5.92,68.485a71.783,71.783,0,0,0,2.52,9.8c.537,1.75,1.093,3.559,1.55,5.3a.332.332,0,0,1-.229.405A.309.309,0,0,1,9.676,84" transform="translate(89 55)"/>
      <g id="Group_30" data-name="Group 30" transform="translate(96 128)">
        <path id="Clip_29-2" data-name="Clip 29" d="M0,0H21.5V32.772H0Z" transform="translate(0.203 0.228)" fill="none"/>
        <g id="Group_30-2" data-name="Group 30" clip-path="url(#clip-path-5)">
          <path id="Fill_28" data-name="Fill 28" d="M5.654,32.772a.355.355,0,0,1-.173-.045A.332.332,0,0,1,5.32,32.5a145.13,145.13,0,0,0-5.3-20.857.314.314,0,0,1,.026-.257.332.332,0,0,1,.21-.159C7.1,9.475,14.448,5.516,20.936.08a.35.35,0,0,1,.37-.048.326.326,0,0,1,.19.309C21.3,4.7,20.805,8.916,20.331,13l0,.031v.007a145.345,145.345,0,0,0-1.282,17.077.331.331,0,0,1-.3.325l-.689.071c-5.3.542-7.953.814-12.289,2.246A.355.355,0,0,1,5.654,32.772Zm15.128-31.7A55.2,55.2,0,0,1,.769,11.771,144.977,144.977,0,0,1,5.919,32.014c4.195-1.35,6.984-1.636,12.049-2.155h.013l.388-.04a147.541,147.541,0,0,1,1.284-16.84l0-.022v-.008c.446-3.837.906-7.8,1.126-11.88Z" transform="translate(0.203 0.228)"/>
        </g>
      </g>
      <path id="Fill_31-3" data-name="Fill 31" d="M31.676,8h-.03A131.593,131.593,0,0,1,14.983,5.373l-1.2-.306C7.437,3.452,4.811,2.784.192.642A.34.34,0,0,1,.028.2.319.319,0,0,1,.457.03C5.023,2.147,7.632,2.811,13.936,4.415l1.2.306A130.855,130.855,0,0,0,31.706,7.33.333.333,0,0,1,32,7.7a.329.329,0,0,1-.322.3" transform="translate(20 145)"/>
      <path id="Fill_33-3" data-name="Fill 33" d="M5.032,30q-.569,0-1.145,0a.337.337,0,0,1-.329-.281C3.335,28.4,3.1,27.03,2.849,25.623,1.405,17.387-.23,8.052.027.326A.336.336,0,1,1,.7.348C.445,8,2.074,17.3,3.511,25.506c.23,1.309.453,2.586.662,3.817,14,.086,24.594-1.9,33.34-6.254a.337.337,0,0,1,.3.6C29.151,27.982,18.711,30,5.032,30" transform="translate(58 123)"/>
      <path id="Fill_35-2" data-name="Fill 35" d="M1.355,4a1.122,1.122,0,0,1-.868-.412A2.49,2.49,0,0,1,.068,1.495C.275.587.826,0,1.472,0c.58,0,1.1.459,1.383,1.227a2.353,2.353,0,0,1-.039,1.729,1.925,1.925,0,0,1-.739.832A1.425,1.425,0,0,1,1.355,4ZM1.472.523C1,.523.6.953.446,1.646A1.87,1.87,0,0,0,.747,3.2a.79.79,0,0,0,.608.283,1.1,1.1,0,0,0,.559-.167A1.468,1.468,0,0,0,2.48,2.68,1.667,1.667,0,0,0,2.5,1.457C2.282.872,1.9.523,1.472.523Z" transform="translate(54 41)"/>
      <path id="Fill_37-3" data-name="Fill 37" d="M.784,1a4.776,4.776,0,0,1-.6-.038C.077.948-.006.738,0,.493S.106.073.208.077A4.536,4.536,0,0,0,1.784,0c.106-.018.2.153.215.4S1.931.86,1.823.884A4.724,4.724,0,0,1,.784,1" transform="translate(55 42)"/>
      <path id="Fill_39-3" data-name="Fill 39" d="M1.355,4a1.122,1.122,0,0,1-.868-.412A2.49,2.49,0,0,1,.068,1.495C.275.587.826,0,1.472,0c.58,0,1.1.459,1.383,1.227a2.353,2.353,0,0,1-.039,1.729,1.915,1.915,0,0,1-.74.832A1.418,1.418,0,0,1,1.355,4ZM1.472.523C1,.523.6.953.446,1.646A1.87,1.87,0,0,0,.747,3.2a.79.79,0,0,0,.608.283,1.1,1.1,0,0,0,.558-.167,1.467,1.467,0,0,0,.567-.63A1.666,1.666,0,0,0,2.5,1.457C2.282.872,1.9.523,1.472.523Z" transform="translate(56 57)"/>
      <path id="Fill_41-3" data-name="Fill 41" d="M.784,1a4.776,4.776,0,0,1-.6-.038C.077.948-.006.738,0,.493S.1.074.208.077A4.537,4.537,0,0,0,1.784,0c.106-.018.2.153.215.4S1.931.86,1.823.884A4.724,4.724,0,0,1,.784,1" transform="translate(57 59)"/>
      <path id="Fill_43-3" data-name="Fill 43" d="M1.355,4a1.122,1.122,0,0,1-.868-.412A2.49,2.49,0,0,1,.068,1.495C.275.587.826,0,1.472,0c.58,0,1.1.459,1.383,1.227a2.353,2.353,0,0,1-.039,1.729,1.918,1.918,0,0,1-.739.832A1.417,1.417,0,0,1,1.355,4ZM1.472.523C1,.523.6.953.446,1.646A1.87,1.87,0,0,0,.747,3.2a.785.785,0,0,0,.608.283,1.1,1.1,0,0,0,.559-.167,1.459,1.459,0,0,0,.566-.63A1.666,1.666,0,0,0,2.5,1.457C2.282.872,1.9.523,1.472.523Z" transform="translate(57 78)"/>
      <path id="Fill_45-3" data-name="Fill 45" d="M.784,1a4.778,4.778,0,0,1-.6-.038C.077.948-.006.738,0,.494S.1.072.208.077A4.539,4.539,0,0,0,1.784,0c.108-.022.2.154.215.4S1.931.86,1.823.884A4.726,4.726,0,0,1,.784,1" transform="translate(58 79)"/>
      <path id="Fill_47-3" data-name="Fill 47" d="M1.355,4a1.127,1.127,0,0,1-.869-.411A2.5,2.5,0,0,1,.068,1.495C.275.587.825,0,1.471,0c.58,0,1.1.459,1.382,1.227a2.323,2.323,0,0,1-.039,1.729,1.928,1.928,0,0,1-.738.832A1.415,1.415,0,0,1,1.355,4ZM1.471.523C1,.523.6.953.445,1.646A1.874,1.874,0,0,0,.746,3.2a.785.785,0,0,0,.608.283,1.1,1.1,0,0,0,.558-.167,1.461,1.461,0,0,0,.566-.631A1.667,1.667,0,0,0,2.5,1.457C2.281.872,1.9.523,1.471.523Z" transform="translate(56 96)"/>
      <path id="Fill_49-3" data-name="Fill 49" d="M.785,1a4.668,4.668,0,0,1-.6-.039C.077.947-.006.738,0,.493S.1.064.207.076A4.484,4.484,0,0,0,1.784,0c.11-.019.2.154.215.4S1.931.86,1.823.884A4.753,4.753,0,0,1,.785,1" transform="translate(57 98)"/>
      <path id="Fill_51-3" data-name="Fill 51" d="M1.376,4A1.206,1.206,0,0,1,.361,3.438,2.6,2.6,0,0,1,.131,1.284C.395.48.9,0,1.494,0c.631,0,1.19.571,1.424,1.453a2.312,2.312,0,0,1-.192,1.719,1.741,1.741,0,0,1-.806.714A1.4,1.4,0,0,1,1.376,4ZM1.494.525c-.429,0-.8.362-1,.969A1.943,1.943,0,0,0,.654,3.086a.869.869,0,0,0,.733.386A1.062,1.062,0,0,0,1.8,3.386a1.328,1.328,0,0,0,.617-.54,1.663,1.663,0,0,0,.128-1.218C2.366.948,1.963.525,1.494.525Z" transform="translate(54 116)"/>
      <path id="Fill_53-2" data-name="Fill 53" d="M1.8,1h0A6,6,0,0,1,.163.71C.056.676-.016.489,0,.295S.127-.028.232.005A5.781,5.781,0,0,0,1.807.284c.109,0,.2.167.193.364S1.91,1,1.8,1" transform="translate(55 118)"/>
      <path id="Fill_55-2" data-name="Fill 55" d="M.209,114a.224.224,0,0,1-.047,0,.2.2,0,0,1-.157-.24,301.469,301.469,0,0,0,7.573-66.22C7.65,34.047,7.014,16.484,1.41.263A.2.2,0,0,1,1.542.01a.21.21,0,0,1,.263.127C7.428,16.413,8.067,34.018,8,47.537A301.9,301.9,0,0,1,.411,113.845a.207.207,0,0,1-.2.155" transform="translate(48 30)"/>
      <path id="Fill_57-2" data-name="Fill 57" d="M.916,5,.2,5a.181.181,0,1,1,0-.36h0A91.4,91.4,0,0,0,29.73.011a.208.208,0,0,1,.258.106.175.175,0,0,1-.118.231A91.732,91.732,0,0,1,.916,5" transform="translate(64 144)"/>
      <path id="Fill_59-2" data-name="Fill 59" d="M22.8,7,22.77,7C13.881,5.7,5.621,3.289.11.393A.211.211,0,0,1,.022.113.2.2,0,0,1,.293.023C5.767,2.9,13.98,5.292,22.826,6.587A.207.207,0,0,1,23,6.821.2.2,0,0,1,22.8,7" transform="translate(23 142)"/>
      <path id="Fill_61-2" data-name="Fill 61" d="M3.829,80a.18.18,0,0,1-.167-.16C-.723,54.673-1.158,29.358,2.294.173A.179.179,0,0,1,2.486,0a.2.2,0,0,1,.146.226C-.815,29.367-.382,54.639,4,79.76A.2.2,0,0,1,3.864,80a.151.151,0,0,1-.034,0" transform="translate(73 65)"/>
      <path id="Fill_63-2" data-name="Fill 63" d="M.2,76a.2.2,0,0,1-.065-.011.2.2,0,0,1-.127-.252C9.078,49.794,11.036,22.983,5.527.244A.2.2,0,0,1,5.678,0a.205.205,0,0,1,.245.147C11.45,22.963,9.487,49.852.4,75.866A.2.2,0,0,1,.2,76" transform="translate(35 65)"/>
      <path id="Fill_65-2" data-name="Fill 65" d="M7.9,10a10.8,10.8,0,0,1-3.155-.666C3.159,8.833,1.66,8.359.259,8.98a.182.182,0,0,1-.245-.115.215.215,0,0,1,.1-.27c1.523-.673,3.154-.158,4.732.34,1.484.469,3.018.953,4.407.405.2-.08.314-.167.351-.273a.669.669,0,0,0-.047-.394,5.341,5.341,0,0,0-2.045-2.56A16.522,16.522,0,0,0,5.375,4.891c-.252-.128-.5-.255-.756-.388-.668-.353-1.33-.742-1.966-1.158A4.144,4.144,0,0,1,1.292,2.091a1.978,1.978,0,0,1-.1-2A.178.178,0,0,1,1.456.036a.222.222,0,0,1,.05.289,1.549,1.549,0,0,0,.1,1.534A3.819,3.819,0,0,0,2.845,2.988c.627.409,1.279.793,1.937,1.141.249.131.5.258.75.385A16.818,16.818,0,0,1,7.72,5.763,5.744,5.744,0,0,1,9.914,8.527a1.076,1.076,0,0,1,.047.687.913.913,0,0,1-.577.517A4,4,0,0,1,7.9,10" transform="translate(10 93)"/>
      <path id="Fill_67" data-name="Fill 67" d="M5.815,3a.161.161,0,0,1-.128-.072A5.3,5.3,0,0,0,.219.649C.119.673.022.582,0,.442a.264.264,0,0,1,.149-.3A5.617,5.617,0,0,1,5.943,2.557a.332.332,0,0,1,.006.364A.166.166,0,0,1,5.815,3" transform="translate(10 102)"/>
      <path id="Fill_69" data-name="Fill 69" d="M11.8,7a.2.2,0,0,1-.081-.017,13.282,13.282,0,0,0-9.06-.548c-.133.04-.266.082-.4.125A5.8,5.8,0,0,1,.188,6.95.2.2,0,0,1,0,6.75,4.583,4.583,0,0,1,1.929,3.486,17.65,17.65,0,0,1,8.019.01a.2.2,0,1,1,.125.374,17.252,17.252,0,0,0-5.951,3.4A4.458,4.458,0,0,0,.409,6.561a6.2,6.2,0,0,0,1.73-.376c.135-.043.27-.086.405-.127a13.685,13.685,0,0,1,9.338.565.2.2,0,0,1,.1.26A.2.2,0,0,1,11.8,7" transform="translate(95 91)"/>
      <path id="Fill_71-2" data-name="Fill 71" d="M4.795,2a.2.2,0,0,1-.116-.038A7.867,7.867,0,0,0,.2.439.213.213,0,0,1,0,.216.212.212,0,0,1,.2,0h0a8.269,8.269,0,0,1,4.7,1.6.228.228,0,0,1,.053.3.2.2,0,0,1-.17.1" transform="translate(101 99)"/>
      <path id="Fill_73-2" data-name="Fill 73" d="M6.5,2A17.791,17.791,0,0,1,.9,1.245,1.421,1.421,0,0,1,.037.568.5.5,0,0,1,.093.09.223.223,0,0,1,.381.028.178.178,0,0,1,.45.288.157.157,0,0,0,.432.444,1.05,1.05,0,0,0,1.043.89c2.793.927,5.951.764,8.735.62A.207.207,0,0,1,10,1.689a.2.2,0,0,1-.2.2C8.742,1.942,7.628,2,6.5,2" transform="translate(99 129)"/>
      <path id="Fill_75-2" data-name="Fill 75" d="M.193,3a.193.193,0,0,1-.086-.02A.2.2,0,0,1,.02,2.717,4.07,4.07,0,0,1,2.591.928,22.944,22.944,0,0,1,6.783,0,.194.194,0,0,1,7,.172.2.2,0,0,1,6.83.39,22.559,22.559,0,0,0,2.709,1.3,3.741,3.741,0,0,0,.367,2.891.193.193,0,0,1,.193,3" transform="translate(100 133)"/>
      <path id="Fill_77-2" data-name="Fill 77" d="M8.8,7a.206.206,0,0,1-.061-.009A16.1,16.1,0,0,1,.031.307.2.2,0,0,1,.1.03a.2.2,0,0,1,.28.064A15.69,15.69,0,0,0,8.858,6.607a.2.2,0,0,1,.132.252A.2.2,0,0,1,8.8,7" transform="translate(8 126)"/>
      <path id="Fill_79-2" data-name="Fill 79" d="M5.815,2a.179.179,0,0,1-.083-.021A13.732,13.732,0,0,0,.174.393.193.193,0,0,1,0,.185.2.2,0,0,1,.2,0,14.1,14.1,0,0,1,5.9,1.627a.2.2,0,0,1,.082.264A.183.183,0,0,1,5.815,2" transform="translate(11 133)"/>
      <path id="Fill_81" data-name="Fill 81" d="M.209,6a.2.2,0,0,1-.06-.009.2.2,0,0,1-.144-.171A1.888,1.888,0,0,1,.661,4.437C2.555,2.333,4.32.547,6.75,0a.206.206,0,0,1,.244.15A.2.2,0,0,1,6.841.4C4.529.91,2.813,2.65.968,4.7c-.1.113-.2.229-.29.347A6.755,6.755,0,0,1,5,3.585h0a.2.2,0,1,1,0,.4A6.031,6.031,0,0,0,.367,5.928.206.206,0,0,1,.209,6" transform="translate(90 48)"/>
      <path id="Fill_83" data-name="Fill 83" d="M6.791,6a.205.205,0,0,1-.157-.072A6.033,6.033,0,0,0,1.99,3.985a.2.2,0,1,1,0-.4H2A6.756,6.756,0,0,1,6.321,5.049c-.087-.118-.188-.234-.289-.347C4.187,2.65,2.47.91.159.4A.2.2,0,0,1,.005.155.205.205,0,0,1,.25,0c2.43.542,4.2,2.328,6.09,4.433A1.891,1.891,0,0,1,6.994,5.82a.2.2,0,0,1-.144.171A.215.215,0,0,1,6.791,6" transform="translate(19 48)"/>
      <path id="Fill_85" data-name="Fill 85" d="M.174,4a.156.156,0,0,1-.093-.031.22.22,0,0,1-.054-.277A8.828,8.828,0,0,1,3.758.016a.166.166,0,0,1,.228.105.214.214,0,0,1-.091.264A8.46,8.46,0,0,0,.321,3.907.17.17,0,0,1,.174,4" transform="translate(95 33)"/>
      <path id="Fill_87" data-name="Fill 87" d="M.207,1A.236.236,0,0,1,.1.973.155.155,0,0,1,.032.737,2.861,2.861,0,0,1,2.26.005,7.017,7.017,0,0,1,5.913.657.154.154,0,0,1,5.962.9a.235.235,0,0,1-.288.041,6.616,6.616,0,0,0-3.4-.589A2.505,2.505,0,0,0,.382.92.22.22,0,0,1,.207,1" transform="translate(94 37)"/>
      <path id="Fill_89" data-name="Fill 89" d="M4.814,4a.18.18,0,0,1-.129-.054A23.079,23.079,0,0,0,.095.366.2.2,0,0,1,.024.1.181.181,0,0,1,.278.025,23.451,23.451,0,0,1,4.943,3.663a.2.2,0,0,1,.006.277A.182.182,0,0,1,4.814,4" transform="translate(18 32)"/>
      <path id="Fill_91" data-name="Fill 91" d="M5.8,1A.236.236,0,0,1,5.668.964,6.583,6.583,0,0,0,2.225.328C1.545.321.7.371.382.816A.235.235,0,0,1,.1.877.148.148,0,0,1,.027.653C.453.059,1.436,0,2.23,0A7.209,7.209,0,0,1,5.923.708a.143.143,0,0,1,.033.23A.225.225,0,0,1,5.8,1" transform="translate(16 36)"/>
      <path id="Fill_93" data-name="Fill 93" d="M3.423,10a.169.169,0,0,1-.137-.073.217.217,0,0,1,.025-.28A3.089,3.089,0,0,0,4.638,7.3a2.49,2.49,0,0,0-.26-.809,11.856,11.856,0,0,0-2.015-2.7A9.754,9.754,0,0,1,.01.265.207.207,0,0,1,.118.011.173.173,0,0,1,.343.132,9.318,9.318,0,0,0,2.61,3.5,12.153,12.153,0,0,1,4.689,6.3a2.886,2.886,0,0,1,.3.953,3.42,3.42,0,0,1-1.454,2.7A.164.164,0,0,1,3.423,10" transform="translate(31 73)"/>
      <path id="Fill_95" data-name="Fill 95" d="M4.276,11a.2.2,0,0,1-.125-.043L.975,8.5a2.745,2.745,0,0,1-.732-.736A1.9,1.9,0,0,1,0,6.859C-.043,5.568.77,4.3,2.419,3.074c.2-.15.41-.3.619-.447A7.613,7.613,0,0,0,5.615.111a.2.2,0,0,1,.273-.09A.2.2,0,0,1,5.979.29a7.906,7.906,0,0,1-2.7,2.663c-.207.147-.412.293-.613.442C1.126,4.532.368,5.693.408,6.845a1.506,1.506,0,0,0,.186.721,2.393,2.393,0,0,0,.632.622L4.4,10.642a.2.2,0,0,1,.035.281.2.2,0,0,1-.16.077" transform="translate(80 73)"/>
      <path id="Fill_97" data-name="Fill 97" d="M.248,18H.243A.227.227,0,0,1,0,17.792,78.285,78.285,0,0,1,2.51.161.253.253,0,0,1,2.8,0a.208.208,0,0,1,.19.242A77.966,77.966,0,0,0,.5,17.8a.231.231,0,0,1-.248.2" transform="translate(113 134)"/>
      <path id="Fill_99" data-name="Fill 99" d="M.245,18,.219,18a.191.191,0,0,1-.157-.216A64.574,64.574,0,0,0,0,.22.191.191,0,0,1,.157,0,.186.186,0,0,1,.366.164a65,65,0,0,1,.061,17.67A.187.187,0,0,1,.245,18" transform="translate(3 133)"/>
      <path id="Fill_101" data-name="Fill 101" d="M17.8,2a.181.181,0,0,1-.06-.01A27.265,27.265,0,0,0,.253,1.776a.2.2,0,0,1-.245-.149.225.225,0,0,1,.134-.273,27.624,27.624,0,0,1,17.721.216.226.226,0,0,1,.128.276A.2.2,0,0,1,17.8,2" transform="translate(49 4)"/>
      <path id="Fill_103" data-name="Fill 103" d="M2.809,14a.193.193,0,0,1-.182-.142A70.816,70.816,0,0,1,0,.223.2.2,0,0,1,.173,0,.2.2,0,0,1,.382.183,70.432,70.432,0,0,0,2.991,13.735a.206.206,0,0,1-.125.255A.182.182,0,0,1,2.809,14" transform="translate(80 17)"/>
      <path id="Fill_105" data-name="Fill 105" d="M.2,13a.2.2,0,0,1-.084-.019.205.205,0,0,1-.1-.27A28.894,28.894,0,0,0,2.6.208.2.2,0,0,1,2.791,0a.2.2,0,0,1,.2.2A29.307,29.307,0,0,1,.379,12.882.2.2,0,0,1,.2,13" transform="translate(33 18)"/>
      <path id="Fill_107" data-name="Fill 107" d="M.189,4a.177.177,0,0,1-.142-.076.256.256,0,0,1,.016-.318A18.3,18.3,0,0,1,4.734.02a.178.178,0,0,1,.25.113.244.244,0,0,1-.1.3A17.92,17.92,0,0,0,.315,3.943.172.172,0,0,1,.189,4" transform="translate(38 24)"/>
      <path id="Fill_109" data-name="Fill 109" d="M4.814,4a.174.174,0,0,1-.141-.077A9.528,9.528,0,0,0,.134.435.231.231,0,0,1,.007.16.183.183,0,0,1,.237.009,9.9,9.9,0,0,1,4.955,3.634a.253.253,0,0,1-.02.313A.169.169,0,0,1,4.814,4" transform="translate(73 23)"/>
    </g>
  </g>
</svg>
