<svg xmlns="http://www.w3.org/2000/svg" xmlns:xlink="http://www.w3.org/1999/xlink" width="55.838" height="198.821" viewBox="0 0 55.838 198.821">
  <defs>
    <clipPath id="clip-path">
      <path id="Clip_6" data-name="Clip 6" d="M0,0H-55.838V198.821H0Z" transform="translate(0 -0.179) rotate(-180)" fill="none"/>
    </clipPath>
  </defs>
  <g id="Group_34" data-name="Group 34" transform="translate(55.838 -0.179) rotate(180)">
    <path id="Fill_1" data-name="Fill 1" d="M-4.829,2a.2.2,0,0,0,.047-.006A24.3,24.3,0,0,1-.161,1.24.167.167,0,0,0,0,1.116.152.152,0,0,0-.1.946,14.2,14.2,0,0,0-3.136,0a.172.172,0,0,0-.2.119.156.156,0,0,0,.131.184A13.929,13.929,0,0,1-.842.979,25.684,25.684,0,0,0-4.876,1.7a.153.153,0,0,0-.118.191A.17.17,0,0,0-4.829,2" transform="translate(31 -40) rotate(-180)"/>
    <path id="Fill_3" data-name="Fill 3" d="M-.169,3a.17.17,0,0,0,.154-.114A.208.208,0,0,0-.1,2.629a11.17,11.17,0,0,0-4-1.373A12.184,12.184,0,0,1-1.42.386.194.194,0,0,0-1.283.162.171.171,0,0,0-1.478,0,12.524,12.524,0,0,0-4.9,1.231.2.2,0,0,0-5,1.449a.177.177,0,0,0,.164.153A9.9,9.9,0,0,1-.239,2.982.15.15,0,0,0-.169,3" transform="translate(20 -39) rotate(-180)"/>
    <g id="Group_7" data-name="Group 7" transform="translate(0 0)">
      <path id="Clip_6-2" data-name="Clip 6" d="M0,0H-55.838V198.821H0Z" transform="translate(0 -0.179) rotate(-180)" fill="none"/>
      <g id="Group_7-2" data-name="Group 7" clip-path="url(#clip-path)">
        <path id="Fill_5" data-name="Fill 5" d="M-40.623,198.821a13.766,13.766,0,0,0,3.877-.533.306.306,0,0,0,.214-.222,25.707,25.707,0,0,0,.642-8.686c-.02-.282-.038-.544-.051-.786l-.011-.2a6.562,6.562,0,0,1,.024-1.475,6.621,6.621,0,0,1,.288-1.015,4.908,4.908,0,0,0,.355-1.661,4.944,4.944,0,0,0-.138-.957c-.023-.108-.046-.215-.066-.323a29.163,29.163,0,0,1-.138-6.523.32.32,0,0,0,0-.045l.077-3.739c.343-15.676.169-31.089-.533-47.12a24.238,24.238,0,0,1,.376-3.184,26.467,26.467,0,0,0,.491-5.045c-.026-.25-.052-.483-.076-.7a6.437,6.437,0,0,1,.008-2.653,35.522,35.522,0,0,0,1.328-6.463c.13-1.663.118-3.35.106-4.982-.005-.715-.011-1.43,0-2.144.021-2.439.1-4.929.175-7.336q.053-1.705.1-3.41c.076-2.871.226-5.849.458-9.1C-32.664,74.2-31.951,67.591-31,60.879a108.144,108.144,0,0,0,.859-12.253c.007-.26.013-2.16-.017-4.037-.032-2.037-.085-3.016-.145-3.5.843.027,1.58,0,2.3-.017s1.459-.044,2.3-.015c-.067.726-.068,2.6.128,7.71.152,3.957.362,8.086.4,8.8.017.279.039.558.061.837.044.539.088,1.1.088,1.638.343,4.177.794,8.385,1.23,12.455.31,2.9.632,5.9.911,8.851.381,4.034.628,7.348.778,10.431.108,2.223.239,9.866.154,11.524-.03.587-.094,1.188-.156,1.768a15.964,15.964,0,0,0-.1,3.75,15.464,15.464,0,0,0,1.072,4.521,3.233,3.233,0,0,1,.1,1.687,7.9,7.9,0,0,0-.068.922,3.994,3.994,0,0,0,.643,2.147c.1.181.2.375.312.595a4.512,4.512,0,0,1,.3,1.857c.009.458.026.916.042,1.374.031.893.064,1.817.044,2.721-.209,9.655-.063,17.5.092,25.814.134,7.183.272,14.611.189,23.736-.013,1.475.048,3.025.189,4.737a10.022,10.022,0,0,1-.222,2.47,10.08,10.08,0,0,0-.223,2.492A2.648,2.648,0,0,0-19.308,185a2.185,2.185,0,0,1,.346.828,1.685,1.685,0,0,1-.293.876c-.044.081-.086.161-.124.238a10.192,10.192,0,0,0-.61,5.349c.03.344.058.69.087,1.036a33.693,33.693,0,0,0,.576,4.532.307.307,0,0,0,.216.231c2.741.771,4.589.517,8.269.011a.334.334,0,0,0,.278-.249A33.36,33.36,0,0,1-9.5,194.43c.77-2.243,1.567-4.562,1.545-5.774a5.873,5.873,0,0,0-.135-1.014,3.865,3.865,0,0,1-.108-1.174,3.85,3.85,0,0,1,.7-1.535,4.464,4.464,0,0,0,.79-1.76A4.479,4.479,0,0,0-6.8,181.8c-.019-.114-.039-.228-.055-.342a7.754,7.754,0,0,1,.246-2.572c.049-.238.1-.471.138-.7.579-3.213,1.031-6.521,1.469-9.719q.21-1.538.424-3.07c.554-3.925.967-7.481,1.261-10.871a142.74,142.74,0,0,0,.472-16.771c-.111-3.527-.338-7.105-.557-10.566-.1-1.639-.208-3.279-.3-4.919q-.039-.688-.075-1.376c-.058-1.094-.181-2.2-.3-3.261-.11-.982-.223-2-.284-3a13.014,13.014,0,0,1,.058-1.779,9.033,9.033,0,0,0-.08-2.836c-.11-.448-.244-.892-.374-1.321-.175-.579-.355-1.177-.476-1.786a5.715,5.715,0,0,1,.095-2.028,9.875,9.875,0,0,0,.16-1.4,13.777,13.777,0,0,0-.213-2.279,14.333,14.333,0,0,1-.21-2.075c-.02-10.539,1.3-21.271,2.573-31.649.5-4.044,1.01-8.224,1.437-12.334C.4,37.95,1.579,19.748-5.181,2.9-5.426,2.287-5.906,1.1-6.15.546a.3.3,0,0,0-.4-.157A.313.313,0,0,0-6.706.8c.241.553.718,1.727.961,2.334C.962,19.849-.213,37.963-1.991,55.084c-.427,4.1-.94,8.282-1.436,12.322C-4.7,77.8-6.025,88.555-6,99.134a14.844,14.844,0,0,0,.217,2.168,13.09,13.09,0,0,1,.207,2.174,9.251,9.251,0,0,1-.152,1.308,6.271,6.271,0,0,0-.091,2.253c.126.639.312,1.252.491,1.846.128.422.259.857.365,1.289a8.423,8.423,0,0,1,.064,2.638,13.689,13.689,0,0,0-.058,1.865c.062,1.015.176,2.039.286,3.029.118,1.057.24,2.149.3,3.224q.037.69.075,1.379c.093,1.641.2,3.282.3,4.923.219,3.456.445,7.028.556,10.546a142.132,142.132,0,0,1-.47,16.7c-.294,3.378-.7,6.923-1.258,10.837q-.216,1.532-.425,3.073c-.436,3.192-.888,6.493-1.465,9.693-.04.221-.087.449-.135.682a8.331,8.331,0,0,0-.252,2.79c.018.119.037.237.058.356a3.949,3.949,0,0,1,.084,1.185,3.943,3.943,0,0,1-.7,1.51,4.368,4.368,0,0,0-.793,1.8,4.358,4.358,0,0,0,.115,1.37,5.33,5.33,0,0,1,.123.9,24.037,24.037,0,0,1-1.511,5.559c-.436,1.27-.85,2.476-1.039,3.29-3.4.466-5.183.692-7.659.028a34.815,34.815,0,0,1-.524-4.265c-.028-.348-.056-.7-.087-1.041a9.653,9.653,0,0,1,.548-5.016c.035-.071.074-.144.114-.219a2.159,2.159,0,0,0,.364-1.242,2.692,2.692,0,0,0-.427-1.076,2.1,2.1,0,0,1-.348-.853,9.492,9.492,0,0,1,.216-2.333,10.442,10.442,0,0,0,.229-2.629c-.139-1.692-.2-3.223-.187-4.68.083-9.134-.055-16.566-.189-23.754-.155-8.3-.3-16.146-.092-25.788.02-.922-.013-1.854-.044-2.757-.016-.455-.032-.91-.041-1.365a4.994,4.994,0,0,0-.362-2.12c-.113-.229-.222-.431-.326-.62a3.394,3.394,0,0,1-.566-1.848,7.225,7.225,0,0,1,.065-.848,3.761,3.761,0,0,0-.142-2.006,14.642,14.642,0,0,1-1.027-4.354,15.487,15.487,0,0,1,.1-3.6c.063-.589.128-1.2.159-1.8.085-1.67-.046-9.355-.154-11.586-.15-3.093-.4-6.416-.78-10.46-.279-2.956-.6-5.957-.912-8.859-.436-4.066-.886-8.27-1.227-12.414,0-.541-.045-1.111-.089-1.662-.022-.275-.044-.55-.061-.825-.142-2.368-.755-15.421-.52-16.577a.312.312,0,0,0,.061-.171.308.308,0,0,0-.289-.325c-1.019-.051-1.878-.025-2.71,0s-1.666.05-2.662,0H-30.7a.307.307,0,0,0-.3.3.313.313,0,0,0,.068.205c.184.732.212,6.756.187,7.654A107.549,107.549,0,0,1-31.6,60.789c-.957,6.727-1.671,13.348-2.123,19.679-.233,3.264-.383,6.251-.46,9.132q-.045,1.7-.1,3.407c-.076,2.411-.154,4.9-.175,7.351-.006.718,0,1.436,0,2.154.012,1.619.024,3.292-.1,4.928a35.015,35.015,0,0,1-1.3,6.323,6.925,6.925,0,0,0-.033,2.912c.024.218.05.449.076.7a26.44,26.44,0,0,1-.487,4.884,23.664,23.664,0,0,0-.383,3.308c.7,16.017.876,31.416.533,47.078l-.077,3.717a30.265,30.265,0,0,0,.143,6.718c.021.113.045.226.069.339a4.406,4.406,0,0,1,.124.835,4.362,4.362,0,0,1-.322,1.448,7.274,7.274,0,0,0-.313,1.112,7.117,7.117,0,0,0-.032,1.617l.011.2c.013.246.031.511.051.8a25.187,25.187,0,0,1-.581,8.314c-2.442.658-4.413.563-8.011.075-.644-1.73-2.223-6.383-2.19-8.238a5.289,5.289,0,0,1,.123-.9,4.361,4.361,0,0,0,.115-1.37,4.364,4.364,0,0,0-.793-1.8,3.941,3.941,0,0,1-.7-1.51,3.945,3.945,0,0,1,.084-1.184c.02-.119.04-.238.058-.357a18.573,18.573,0,0,0-.315-4.09c-.137-.993-.279-2.021-.343-2.9-.066-.905-.318-2.442-.521-3.677-.062-.375-.118-.716-.161-.992-3.8-24.414-3.472-33.442-1.751-49.646a.308.308,0,0,0,0-.033,37.33,37.33,0,0,1,.267-3.837,33.621,33.621,0,0,0,.264-4.393,13.255,13.255,0,0,1,.258-2.712c.037-.22.074-.446.111-.683.046-.295.112-.621.182-.965a8.077,8.077,0,0,0,.215-3.441,6.58,6.58,0,0,1-.161-1.37,13.294,13.294,0,0,1,.192-2.426,17.355,17.355,0,0,0,.209-2.144c.03-2.023.006-4.153-.071-6.332-.135-3.825-.426-7.841-.918-12.637-.433-4.225-.97-8.508-1.489-12.649-.5-4.012-1.022-8.16-1.447-12.248-1.944-18.718-3-37,5.356-54.838A.312.312,0,0,0-48.652.03a.3.3,0,0,0-.406.146c-8.423,17.988-7.366,36.361-5.412,55.171.425,4.1.945,8.246,1.448,12.261.518,4.138,1.055,8.417,1.487,12.635.49,4.782.781,8.784.915,12.6.076,2.168.1,4.287.07,6.3a16.951,16.951,0,0,1-.2,2.066,13.927,13.927,0,0,0-.2,2.541,7.1,7.1,0,0,0,.182,1.506,7.68,7.68,0,0,1-.224,3.152c-.071.352-.138.684-.187.993-.037.235-.074.458-.11.676a13.766,13.766,0,0,0-.266,2.833,33.159,33.159,0,0,1-.261,4.31,37.875,37.875,0,0,0-.271,3.887c-1.726,16.252-2.05,25.314,1.756,49.793.043.277.1.62.162,1,.2,1.222.451,2.744.515,3.621.065.894.208,1.932.347,2.935a18.872,18.872,0,0,1,.315,3.912c-.017.114-.036.228-.055.343a4.476,4.476,0,0,0-.087,1.377,4.462,4.462,0,0,0,.79,1.761,3.85,3.85,0,0,1,.7,1.535,3.836,3.836,0,0,1-.109,1.174,5.87,5.87,0,0,0-.134,1.013c-.036,2.029,1.645,6.927,2.3,8.644a.3.3,0,0,0,.243.2,35.354,35.354,0,0,0,4.726.418" transform="translate(0 -0.179) rotate(-180)"/>
      </g>
    </g>
    <path id="Fill_8" data-name="Fill 8" d="M-1.394,3a.194.194,0,0,0,.2-.169.19.19,0,0,0-.176-.206,6.126,6.126,0,0,1-2.713-.737c-.519-.343-.517-.482-.517-.484.067-.149.954-.208,1.288-.23.21-.014.408-.027.563-.047A8.749,8.749,0,0,0-.109.356.184.184,0,0,0-.021.1.2.2,0,0,0-.285.02,8.333,8.333,0,0,1-2.807.757c-.148.019-.336.032-.538.045-.784.052-1.524.1-1.641.505-.075.259.132.534.672.891a6.476,6.476,0,0,0,2.9.8h.02" transform="translate(8 -182) rotate(-180)"/>
    <path id="Fill_10" data-name="Fill 10" d="M-3.533,3A4.637,4.637,0,0,0-.227,1.514.661.661,0,0,0,0,.988.539.539,0,0,0-.4.61.39.39,0,0,0-.689.639,6.92,6.92,0,0,1-4.7.022a.213.213,0,0,0-.27.068A.165.165,0,0,0-4.9.329,7.358,7.358,0,0,0-.57.977.2.2,0,0,0-.5.951a.211.211,0,0,1,.1.084c.012.082-.068.182-.138.26A4.056,4.056,0,0,1-4.106,2.6a.2.2,0,0,0-.237.133.176.176,0,0,0,.151.209A3.413,3.413,0,0,0-3.533,3" transform="translate(43 -183) rotate(-180)"/>
    <path id="Fill_12" data-name="Fill 12" d="M-2.814,6a.182.182,0,0,0,.143-.069L-.557,3.293a1.71,1.71,0,0,0,.533-1.4C-.155,1.332-.779,1.058-1.5.742-1.7.656-1.9.568-2.1.471-2.267.387-2.38.3-2.408.155A.187.187,0,0,0-2.627,0a.192.192,0,0,0-.146.225.848.848,0,0,0,.519.589c.2.1.41.19.607.277.63.277,1.174.515,1.262.886.06.254-.094.614-.458,1.067L-2.957,5.686a.2.2,0,0,0,.024.27A.182.182,0,0,0-2.814,6" transform="translate(15 -186) rotate(-180)"/>
    <path id="Fill_14" data-name="Fill 14" d="M-.67,7h0a.2.2,0,0,0,.214-.189A8.13,8.13,0,0,0-1.19,3.595l-.053-.116A1.918,1.918,0,0,1-1.53,2.212a1.854,1.854,0,0,1,.7-.836A1.75,1.75,0,0,0,0,.2.2.2,0,0,0-.206,0,.208.208,0,0,0-.436.176c-.026.387-.335.639-.693.932a2.15,2.15,0,0,0-.826,1.017,2.181,2.181,0,0,0,.306,1.492l.053.114A7.8,7.8,0,0,1-.888,6.818.2.2,0,0,0-.67,7" transform="translate(37 -186) rotate(-180)"/>
    <path id="Fill_16" data-name="Fill 16" d="M-.743,4a.2.2,0,0,0,.2-.142A.179.179,0,0,0-.7,3.651L-2.9,3.27a2,2,0,0,1-.407-.1.517.517,0,0,1-.23-.177c-.207-.3.115-.667.527-.9a7.476,7.476,0,0,1,1.083-.468c.226-.084.451-.169.666-.261C-.467,1.019-.032.613,0,.187A.186.186,0,0,0-.188,0,.2.2,0,0,0-.4.165c-.021.289-.389.6-1.035.881-.208.089-.427.171-.646.253a7.862,7.862,0,0,0-1.146.5c-.689.4-.95.953-.648,1.383a.91.91,0,0,0,.4.31,2.383,2.383,0,0,0,.5.126L-.782,4A.22.22,0,0,0-.743,4" transform="translate(6 -105) rotate(-180)"/>
    <path id="Fill_18" data-name="Fill 18" d="M-3.829,1A11.257,11.257,0,0,0-1.188.689L-1.11.67C-.83.6-.481.519-.131.409A.214.214,0,0,0-.006.154.176.176,0,0,0-.221.007C-.561.114-.9.2-1.18.262l-.079.019a11.191,11.191,0,0,1-2.711.3A11.3,11.3,0,0,1-6.784.213.179.179,0,0,0-7,.368a.212.212,0,0,0,.13.25A11.6,11.6,0,0,0-3.973,1h.144" transform="translate(10 -113) rotate(-180)"/>
    <path id="Fill_20" data-name="Fill 20" d="M-3.827,3a.177.177,0,0,0,.113-.04,3.013,3.013,0,0,1,1.456-.543c.17-.025.342-.045.514-.065a7.565,7.565,0,0,0,1.164-.2c.338-.094.644-.332.568-.65A.171.171,0,0,0-.15,1.379c-.125-.022-.25-.042-.376-.063a7.308,7.308,0,0,1-1.265-.281A2.072,2.072,0,0,1-2.977.1a.176.176,0,0,0-.23-.081.163.163,0,0,0-.085.219A2.342,2.342,0,0,0-1.911,1.346a7.575,7.575,0,0,0,1.328.3l.2.032a.642.642,0,0,1-.294.161,7.185,7.185,0,0,1-1.109.186c-.175.02-.351.041-.525.067a3.339,3.339,0,0,0-1.63.619.161.161,0,0,0-.018.234A.176.176,0,0,0-3.827,3" transform="translate(46 -106) rotate(-180)"/>
    <path id="Fill_22" data-name="Fill 22" d="M-20.147,2A157.8,157.8,0,0,0-.257.782.26.26,0,0,0,0,.5.3.3,0,0,0-.352.292a157.919,157.919,0,0,1-21.4,1.2c-6.577-.061-14.158-.232-20.876-1.49a.311.311,0,0,0-.365.186.251.251,0,0,0,.228.3c6.777,1.269,14.4,1.441,21.005,1.5Q-20.951,2-20.147,2" transform="translate(6 -1) rotate(-180)"/>
    <path id="Fill_24" data-name="Fill 24" d="M-22.55,3A95.331,95.331,0,0,0-.248.722.367.367,0,0,0-.005.295.315.315,0,0,0-.364.006,95.9,95.9,0,0,1-23.034,2.271c-7.835-.023-14.944-.209-22.593-2.262a.31.31,0,0,0-.366.275.371.371,0,0,0,.231.435c7.71,2.07,14.854,2.257,22.726,2.28h.485" transform="translate(5 -4) rotate(-180)"/>
    <path id="Fill_26" data-name="Fill 26" d="M-.413,35a.319.319,0,0,0,.327-.3c.179-7.738.043-14.622-.089-21.279C-.259,9.177-.346,4.791-.346.309A.318.318,0,0,0-.673,0,.318.318,0,0,0-1,.309C-1,4.8-.913,9.186-.829,13.43-.7,20.081-.56,26.958-.74,34.684A.318.318,0,0,0-.42,35Z" transform="translate(28 -6) rotate(-180)"/>
    <path id="Fill_28" data-name="Fill 28" d="M-1.563,1A3.241,3.241,0,0,0-.132.657.417.417,0,0,0-.006.25C-.03.072-.125-.035-.219.01A2.954,2.954,0,0,1-2.785.067C-2.878.025-2.973.136-3,.316s.037.359.131.4A3.191,3.191,0,0,0-1.563,1" transform="translate(12 -115) rotate(-180)"/>
    <path id="Fill_30" data-name="Fill 30" d="M-3.171,1h.144A11.6,11.6,0,0,0-.135.618.212.212,0,0,0,0,.368.178.178,0,0,0-.216.213,11.3,11.3,0,0,1-3.03.583a11.221,11.221,0,0,1-2.711-.3L-5.82.263C-6.1.2-6.439.114-6.779.007a.175.175,0,0,0-.215.148.214.214,0,0,0,.125.254c.351.11.7.194.979.261l.078.019A11.258,11.258,0,0,0-3.171,1" transform="translate(38 -113) rotate(-180)"/>
    <path id="Fill_32" data-name="Fill 32" d="M-1.437,1A3.191,3.191,0,0,0-.136.717C-.041.676.017.5,0,.316S-.122.025-.215.067A2.962,2.962,0,0,1-2.781.01c-.095-.044-.19.062-.214.24a.417.417,0,0,0,.126.407A3.24,3.24,0,0,0-1.437,1" transform="translate(41 -115) rotate(-180)"/>
  </g>
</svg>
