<svg id="Group_62" data-name="Group 62" xmlns="http://www.w3.org/2000/svg" xmlns:xlink="http://www.w3.org/1999/xlink" width="160" height="215" viewBox="0 0 160 215">
  <defs>
    <clipPath id="clip-path">
      <path id="Clip_8" data-name="Clip 8" d="M0,0H45.345V43.247H0Z" transform="translate(0.301 0.389)" fill="none"/>
    </clipPath>
  </defs>
  <path id="Fill_1" data-name="Fill 1" d="M.521,12a.522.522,0,0,1-.483-.324.513.513,0,0,1,.29-.669A116.963,116.963,0,0,1,14.394,6.95c7.521-1.859,15.3-3.781,20.829-6.883a.525.525,0,0,1,.709.194.512.512,0,0,1-.2.7c-5.654,3.171-13.5,5.111-21.09,6.986A116.189,116.189,0,0,0,.714,11.963.519.519,0,0,1,.521,12" transform="translate(26)"/>
  <path id="Fill_3" data-name="Fill 3" d="M31.479,12a.532.532,0,0,1-.182-.033c-3.077-1.141-6.573-2.12-10.275-3.156C13.758,6.777,6.247,4.674.245.958A.517.517,0,0,1,.079.245.522.522,0,0,1,.8.078C6.671,3.716,14.11,5.8,21.3,7.813,25.027,8.856,28.544,9.841,31.661,11a.518.518,0,0,1-.182,1" transform="translate(104 2)"/>
  <path id="Fill_5" data-name="Fill 5" d="M23.279,7h-.316C13.837,6.942,4.074,2.783.3,1A.524.524,0,1,1,.749.051c3.711,1.755,13.3,5.844,22.221,5.9,8.887.07,17.582-2.272,22.273-4.6a.524.524,0,0,1,.467.939C40.964,4.644,32.218,7,23.279,7" transform="translate(61 1)"/>
  <g id="Group_9" data-name="Group 9" transform="translate(61)">
    <path id="Clip_8-2" data-name="Clip 8" d="M0,0H45.345V43.247H0Z" transform="translate(0.301 0.389)" fill="none"/>
    <g id="Group_9-2" data-name="Group 9" clip-path="url(#clip-path)">
      <path id="Fill_7" data-name="Fill 7" d="M22.414,43.247a.515.515,0,0,1-.364-.15C11.155,32.283,1.471,13.605,0,.576A.517.517,0,1,1,1.031.46C2.459,13.139,11.81,31.269,22.408,41.991,32.789,31.141,40.884,13.974,44.33,1.653a.517.517,0,1,1,1,.279C41.8,14.524,33.468,32.134,22.784,43.091a.519.519,0,0,1-.366.156Z" transform="translate(0.301 0.389)"/>
    </g>
  </g>
  <path id="Fill_10" data-name="Fill 10" d="M.309,22a.31.31,0,0,1-.248-.5A80.078,80.078,0,0,0,11.4.207a.309.309,0,1,1,.584.206A80.676,80.676,0,0,1,.557,21.875.307.307,0,0,1,.309,22" transform="translate(91 17)"/>
  <path id="Fill_12" data-name="Fill 12" d="M12.688,22a.312.312,0,0,1-.245-.117C8.081,16.44,2.7,6.7.024.426a.306.306,0,0,1,.167-.4A.315.315,0,0,1,.6.188C3.262,6.423,8.6,16.1,12.933,21.5a.3.3,0,0,1-.051.432.313.313,0,0,1-.193.066" transform="translate(61 17)"/>
  <path id="Fill_14" data-name="Fill 14" d="M9.235,6A29.167,29.167,0,0,1,.213,4.64.32.32,0,0,1,0,4.33L.023.319A.336.336,0,0,1,.133.072.293.293,0,0,1,.323,0,.283.283,0,0,1,.383.006a47.675,47.675,0,0,0,10,1.075,43.876,43.876,0,0,0,8.26-.773A.281.281,0,0,1,18.7.3a.287.287,0,0,1,.193.075A.335.335,0,0,1,19,.626c-.008,1.376-.014,2.461-.042,3.843a.318.318,0,0,1-.232.306A39.128,39.128,0,0,1,9.235,6ZM.621.713.6,4.092A28.771,28.771,0,0,0,9.249,5.351,38.4,38.4,0,0,0,18.363,4.2c.021-1.137.028-2.081.035-3.2a44.552,44.552,0,0,1-8.013.717A48.169,48.169,0,0,1,.621.713Z" transform="translate(74 9)"/>
  <path id="Fill_16" data-name="Fill 16" d="M6.257,1A43.43,43.43,0,0,1,.262.584.269.269,0,0,1,0,.286.314.314,0,0,1,.367.075,42.618,42.618,0,0,0,12.629,0a.318.318,0,0,1,.366.208.266.266,0,0,1-.252.3A43.434,43.434,0,0,1,6.257,1" transform="translate(77 12)"/>
  <path id="Fill_18" data-name="Fill 18" d="M.553,168a.576.576,0,0,1-.1-.009.515.515,0,0,1-.426-.6c1.571-7.768,4.531-15.52,6.908-21.749l.148-.388C8.361,141.9,9.684,138.435,10.9,135a14.7,14.7,0,0,1,1.715-3.051c1.039-1.556,2.113-3.165,1.924-4.708a6.506,6.506,0,0,0-.443-1.495c-.1-.275-.21-.55-.3-.83a3.207,3.207,0,0,1,.225-2.872,4.069,4.069,0,0,1,.619-.658c.108-.1.216-.2.315-.3,1.208-1.283,1.006-4.7.857-7.194-.052-.866-.1-1.613-.085-2.217.264-14.334-2.664-29.177-5.495-43.53q-.393-1.993-.78-3.968C7.93,56.4,7.53,48.013,7.143,39.905,6.5,26.432,5.834,12.5.051.733A.505.505,0,0,1,.309.049.549.549,0,0,1,1.025.3C6.9,12.248,7.569,26.284,8.217,39.859,8.6,47.931,9,56.278,10.507,63.987q.385,1.973.779,3.966c2.841,14.4,5.779,29.3,5.514,43.739-.011.565.035,1.33.083,2.14.168,2.825.377,6.34-1.131,7.941-.118.124-.245.241-.373.357a3.244,3.244,0,0,0-.469.487,2.359,2.359,0,0,0-.087,2c.082.26.18.516.278.772a7.344,7.344,0,0,1,.5,1.728c.234,1.908-.945,3.674-2.085,5.382a13.794,13.794,0,0,0-1.6,2.826c-1.215,3.448-2.541,6.919-3.822,10.276l-.148.388c-2.365,6.194-5.308,13.9-6.864,21.592A.531.531,0,0,1,.553,168" transform="translate(25 12)"/>
  <path id="Fill_20" data-name="Fill 20" d="M15.311,168a.526.526,0,0,1-.521-.423c-1.321-7.094-3.644-13.8-6.319-21.2-.55-1.519-1.084-3.043-1.618-4.568-.65-1.853-1.321-3.77-2.009-5.642a16.73,16.73,0,0,0-.834-1.813,14.256,14.256,0,0,1-1-2.3,9.049,9.049,0,0,1-.305-1.9A6.235,6.235,0,0,0,2.259,128a8.349,8.349,0,0,0-.895-1.375A3.993,3.993,0,0,1,.69,121.5a9.576,9.576,0,0,0,.4-.971,3.546,3.546,0,0,0-.364-2.348A9.149,9.149,0,0,1,.3,116.864,20.841,20.841,0,0,1,0,112.41c0-.309,0-.614,0-.911C-.073,97.053,3.017,82.19,6,67.816q.413-1.984.818-3.948c1.584-7.69,2.084-16.032,2.568-24.1C10.2,26.2,11.046,12.173,16.992.29A.537.537,0,0,1,17.7.052a.507.507,0,0,1,.246.687c-5.854,11.7-6.689,25.623-7.5,39.089-.485,8.1-.988,16.482-2.586,24.242q-.4,1.965-.818,3.95C4.068,82.342.989,97.153,1.065,111.494c0,.3,0,.61,0,.922a20.142,20.142,0,0,0,.271,4.236,8.316,8.316,0,0,0,.388,1.174,4.4,4.4,0,0,1,.382,3.019,10.672,10.672,0,0,1-.442,1.074,3.06,3.06,0,0,0,.563,4.108,9.175,9.175,0,0,1,1,1.551,7.089,7.089,0,0,1,.535,2.5,8.128,8.128,0,0,0,.265,1.693,13.271,13.271,0,0,0,.935,2.133,17.514,17.514,0,0,1,.882,1.923c.691,1.879,1.364,3.8,2.014,5.656.534,1.521,1.067,3.043,1.615,4.559,2.69,7.442,5.026,14.186,6.362,21.354a.515.515,0,0,1-.428.6.548.548,0,0,1-.095.008" transform="translate(118 13)"/>
  <path id="Fill_22" data-name="Fill 22" d="M57.693,11A173.531,173.531,0,0,1,.355,1.081a.565.565,0,0,1-.329-.7A.51.51,0,0,1,.678.028C36.789,12.784,76.65,13.192,107.3,1.12a.508.508,0,0,1,.663.329.567.567,0,0,1-.307.712C92.687,8.058,75.531,11,57.693,11" transform="translate(26 179)"/>
  <path id="Fill_24" data-name="Fill 24" d="M15.561,204a.514.514,0,0,1-.173-.031c-4.238-1.527-7.394-1.6-11.39-1.693-.932-.021-1.912-.044-2.965-.085a.788.788,0,0,1-.578-.29c-.558-.65-.6-2.582-.145-6.888.027-.253.047-.442.055-.543.047-.607.141-1.239.232-1.851a16.388,16.388,0,0,0,.258-2.8,36.163,36.163,0,0,0-.363-3.658,29.46,29.46,0,0,1-.372-4.7c.031-1.035.057-2.07.082-3.1.045-1.9.093-3.865.177-5.8.268-6.113.757-12.555,1.586-20.887.717-7.2,1.559-14.23,2.214-19.551q.6-4.859,1.215-9.715c.094-.745.255-1.5.411-2.239a15,15,0,0,0,.478-3.765,7.351,7.351,0,0,0-.53-2.037,5.434,5.434,0,0,1-.4-3.769,3.53,3.53,0,0,1,.893-1.271c.453-.471.732-.786.739-1.307,0-.313-.133-.491-.4-.8a2.367,2.367,0,0,1-.621-1.154A3.963,3.963,0,0,1,7.017,103a5.787,5.787,0,0,0,.786-1.319,4.013,4.013,0,0,0-.1-2.07,6.016,6.016,0,0,1-.179-2.232,21.982,21.982,0,0,1,.7-2.7,16.424,16.424,0,0,0,.767-3.309c.44-4.766.736-8.931.906-12.731.237-5.294.273-10.692.309-15.912.056-8.295.113-16.872.977-25.271.432-4.192.884-7.645,1.423-10.868.126-.752.224-1.665.328-2.631.264-2.456.564-5.24,1.472-7a6.246,6.246,0,0,1,.467-.735,4.482,4.482,0,0,0,.449-.73,4.511,4.511,0,0,0,.2-2c-.013-.324-.028-.659-.016-.993a3.176,3.176,0,0,1,1.246-2.427,5.212,5.212,0,0,0,.728-.792,16.427,16.427,0,0,0,1.109-1.939A16.483,16.483,0,0,1,19.882,5.12a13.39,13.39,0,0,1,6.4-5.094.514.514,0,0,1,.65.327.519.519,0,0,1-.325.656,12.4,12.4,0,0,0-5.9,4.724A15.8,15.8,0,0,0,19.5,7.82a17.261,17.261,0,0,1-1.182,2.061,6.149,6.149,0,0,1-.864.95,2.173,2.173,0,0,0-.922,1.707c-.01.295,0,.6.016.914a5.336,5.336,0,0,1-.286,2.466,5.32,5.32,0,0,1-.548.907,5.421,5.421,0,0,0-.395.615c-.818,1.583-1.107,4.264-1.361,6.63-.106.982-.206,1.909-.337,2.691-.536,3.2-.985,6.633-1.414,10.8-.859,8.35-.917,16.9-.972,25.172-.035,5.229-.072,10.637-.31,15.951-.171,3.816-.468,8-.909,12.78a17.55,17.55,0,0,1-.809,3.518,21.008,21.008,0,0,0-.668,2.57A5.225,5.225,0,0,0,8.713,99.4a4.789,4.789,0,0,1,.056,2.637,6.661,6.661,0,0,1-.917,1.568,3.037,3.037,0,0,0-.874,2.27,1.432,1.432,0,0,0,.391.659,2.125,2.125,0,0,1,.643,1.491,2.879,2.879,0,0,1-1.03,2.013,2.689,2.689,0,0,0-.661.893,4.588,4.588,0,0,0,.4,3.073,8.219,8.219,0,0,1,.591,2.337,15.8,15.8,0,0,1-.5,4.034c-.158.746-.308,1.45-.4,2.153Q5.8,127.381,5.2,132.239c-.653,5.316-1.495,12.339-2.211,19.527-.827,8.313-1.314,14.737-1.582,20.83-.084,1.924-.132,3.884-.177,5.778-.025,1.037-.05,2.074-.081,3.111a28.708,28.708,0,0,0,.363,4.535,37.189,37.189,0,0,1,.372,3.765,17.266,17.266,0,0,1-.27,2.987c-.092.621-.18,1.208-.224,1.778-.009.107-.029.306-.057.572-.468,4.431-.307,5.7-.138,6.039,1,.038,1.936.06,2.826.08,3.926.091,7.06.163,11.2,1.572.226-.756.513-1.582.812-2.447a23.627,23.627,0,0,0,1.626-6.45,5.007,5.007,0,0,0-.115-.877,3.842,3.842,0,0,1-.064-1.727,3.051,3.051,0,0,1,.936-1.428,2.563,2.563,0,0,0,.6-.772,9.373,9.373,0,0,0,.56-2.937,16.037,16.037,0,0,1,.273-2.094c1.064-4.764,1.9-9.641,2.7-14.358l.022-.127c1.469-8.613,2.663-17.587,3.548-26.673.5-5.116.917-10.38,1.28-16.09.063-.99.1-2.009.136-2.995.058-1.559.117-3.171.277-4.741a16.224,16.224,0,0,0-.089-2.978,12.149,12.149,0,0,1,.126-4.38c.082-.281.176-.535.268-.78a3.262,3.262,0,0,0,.308-1.632,2.068,2.068,0,0,0-.406-.936,3.358,3.358,0,0,1-.5-1.038,3.767,3.767,0,0,1,.749-2.766c.081-.139.161-.275.231-.406a6.547,6.547,0,0,0,.424-4.433c-.068-.5-.139-1.009-.181-1.549a34.015,34.015,0,0,1,.144-5.156c.063-.8.128-1.625.162-2.411.251-5.875.494-10.648.767-15.019.72-11.532,1.754-21.7,3.162-31.087a.515.515,0,1,1,1.018.155c-1.4,9.356-2.435,19.5-3.153,31-.272,4.365-.516,9.131-.766,15-.034.8-.1,1.639-.164,2.447a33.191,33.191,0,0,0-.144,5c.039.509.108,1.005.174,1.486a7.466,7.466,0,0,1-.54,5.072c-.076.14-.16.285-.247.434a2.948,2.948,0,0,0-.639,1.986,2.4,2.4,0,0,0,.365.728,3.047,3.047,0,0,1,.565,1.378,4.235,4.235,0,0,1-.366,2.12c-.083.223-.17.455-.244.71a11.445,11.445,0,0,0-.087,3.995,17.314,17.314,0,0,1,.088,3.177c-.158,1.535-.217,3.13-.273,4.673-.036.992-.074,2.019-.137,3.023-.364,5.721-.783,11-1.283,16.125-.888,9.11-2.086,18.11-3.558,26.747l-.022.127c-.807,4.73-1.641,9.62-2.711,14.41a15.066,15.066,0,0,0-.252,1.957,10.1,10.1,0,0,1-.649,3.276,3.5,3.5,0,0,1-.822,1.083,2.083,2.083,0,0,0-.665.969,3.186,3.186,0,0,0,.085,1.254,5.8,5.8,0,0,1,.133,1.077A24.238,24.238,0,0,1,17,200.707c-.366,1.056-.711,2.053-.943,2.911a.518.518,0,0,1-.259.323.512.512,0,0,1-.238.059" transform="translate(0 11)"/>
  <path id="Fill_26" data-name="Fill 26" d="M17.9,203a.528.528,0,0,1-.512-.387,34.057,34.057,0,0,0-1.351-4.081,14.02,14.02,0,0,1-1.18-5.485,14.9,14.9,0,0,0-1.8-5.78,20.23,20.23,0,0,1-1.705-4.6c-.455-2.3-.8-4.709-1.14-7.036-.225-1.559-.459-3.17-.721-4.727-.915-5.442-1.713-10.985-2.369-16.473-.833-6.969-1.484-14.092-1.989-21.776-.213-3.241-.4-6.583-.573-10.219a24.994,24.994,0,0,1,.229-3.884,15.031,15.031,0,0,0-.016-5.354c-.074-.287-.156-.574-.237-.861a11.1,11.1,0,0,1-.595-3.53,12.029,12.029,0,0,1,.65-2.959c.443-1.43.863-2.781.362-4.016l-.286-.7a9.486,9.486,0,0,1-1-5.12,49.117,49.117,0,0,0-.111-5.018c-.046-.805-.09-1.608-.116-2.4-.192-5.814-.388-10.538-.62-14.867C2.221,62.519,1.3,52.629.005,43.488a.519.519,0,0,1,.451-.583.526.526,0,0,1,.6.441c1.3,9.17,2.224,19.088,2.826,30.32.232,4.336.43,9.068.62,14.889.026.787.071,1.582.116,2.38a49.937,49.937,0,0,1,.112,5.123,8.513,8.513,0,0,0,.927,4.685l.288.7c.637,1.569.144,3.159-.332,4.7A11.238,11.238,0,0,0,5,108.848a10.187,10.187,0,0,0,.558,3.208c.083.294.166.588.243.882a16.027,16.027,0,0,1,.041,5.72,24.3,24.3,0,0,0-.224,3.725c.171,3.629.358,6.965.572,10.2.5,7.666,1.153,14.771,1.984,21.722.655,5.472,1.449,11,2.362,16.426.264,1.569.5,3.186.725,4.75.336,2.314.682,4.708,1.132,6.986a19.164,19.164,0,0,0,1.628,4.372,15.878,15.878,0,0,1,1.892,6.17,13.027,13.027,0,0,0,1.113,5.156,35.977,35.977,0,0,1,1.274,3.773c1.713-.119,3.126-.237,4.5-.35,2.8-.232,5.221-.433,8.963-.536.149-.546.186-2.346-.317-7.5-.034-.347-.059-.607-.069-.742a28.326,28.326,0,0,1,.428-6.912,18.123,18.123,0,0,0-.069-4.839,21.979,21.979,0,0,1-.157-4.343,72.859,72.859,0,0,0,.195-10.508c-.365-7.293-1.015-15.156-2.048-24.743-.282-2.614-.642-5.266-.991-7.832-.373-2.744-.759-5.581-1.051-8.387-.06-.58-.133-1.172-.206-1.77a34.113,34.113,0,0,1-.376-5.288c.013-.367.034-.74.056-1.118A10.4,10.4,0,0,0,26.64,112a6.26,6.26,0,0,0-.855-1.218,3.963,3.963,0,0,1-1.253-3.029,2.021,2.021,0,0,1,.278-.743l.063-.116c.57-1.093.219-1.557-.363-2.326a5.024,5.024,0,0,1-.951-1.716,5.932,5.932,0,0,1,.479-3.57,9.421,9.421,0,0,0,.491-1.735,20.858,20.858,0,0,0-.219-5.458c-.1-.8-.207-1.628-.27-2.443-.313-4.058-.52-7.649-.631-10.979-.177-5.3-.146-10.7-.115-15.911.048-8.249.1-16.779-.681-25.118-.485-5.2-1.035-9.4-1.729-13.223-.092-.5-.176-1.029-.262-1.563A22.662,22.662,0,0,0,19.356,17.6a11.566,11.566,0,0,0-.71-1.33,6.517,6.517,0,0,1-1.125-3.075c-.013-.189-.019-.379-.025-.569a6.629,6.629,0,0,0-.091-1.08,3.155,3.155,0,0,0-1.591-2.132l-.142-.074a1.864,1.864,0,0,1-1.028-.951,1.768,1.768,0,0,1,.024-1.067c.017-.072.035-.144.049-.215.433-2.285-4.268-5.36-6.451-6.1A.513.513,0,0,1,7.94.347.533.533,0,0,1,8.613.029C10.892.8,16.363,4.1,15.758,7.295c-.017.089-.039.179-.061.269a1.033,1.033,0,0,0-.055.479c.049.136.292.262.526.383l.158.082a4.2,4.2,0,0,1,2.118,2.84,7.439,7.439,0,0,1,.111,1.244c.006.178.012.356.024.533a5.535,5.535,0,0,0,.984,2.627,12.362,12.362,0,0,1,.769,1.447,23.422,23.422,0,0,1,1.337,5.5c.084.526.168,1.044.258,1.542.7,3.848,1.254,8.077,1.742,13.309.782,8.388.732,16.944.684,25.217-.031,5.206-.062,10.589.114,15.871.111,3.316.316,6.892.629,10.936.061.789.165,1.6.265,2.392a21.66,21.66,0,0,1,.218,5.726,10.386,10.386,0,0,1-.539,1.929,5.13,5.13,0,0,0-.459,2.965,4.079,4.079,0,0,0,.782,1.374,2.745,2.745,0,0,1,.455,3.408l-.073.136a1.211,1.211,0,0,0-.158.369,3.039,3.039,0,0,0,1.026,2.269,7.087,7.087,0,0,1,.989,1.428,11.136,11.136,0,0,1,.615,5.558c-.022.37-.043.736-.056,1.1a33.484,33.484,0,0,0,.369,5.129c.075.6.148,1.2.209,1.789.289,2.789.674,5.618,1.046,8.355.349,2.572.711,5.232.994,7.86,1.036,9.607,1.688,17.488,2.053,24.8a73.941,73.941,0,0,1-.2,10.652,20.908,20.908,0,0,0,.156,4.146,19.219,19.219,0,0,1,.062,5.1,27.011,27.011,0,0,0-.419,6.676c.011.132.034.384.068.721.617,6.334.467,7.909.025,8.4a.693.693,0,0,1-.5.234c-3.846.1-6.3.3-9.136.539-1.49.123-3.029.252-4.95.382H17.9" transform="translate(127 12)"/>
  <path id="Fill_28" data-name="Fill 28" d="M28.126,4A117.881,117.881,0,0,1,.232.566.286.286,0,0,1,.01.215.312.312,0,0,1,.392.01a110.965,110.965,0,0,0,51.221.8.315.315,0,0,1,.378.21.287.287,0,0,1-.228.348A106.356,106.356,0,0,1,28.126,4" transform="translate(55 84)"/>
  <path id="Fill_30" data-name="Fill 30" d="M.314,10a.313.313,0,0,1-.279-.173A.32.32,0,0,1,.17,9.4,24.405,24.405,0,0,1,6.859,7.415,27.706,27.706,0,0,0,12.636,5.85c.39-.17.787-.456.732-.747-.036-.189-.262-.353-.669-.485a18.957,18.957,0,0,0-4.969-.67A28.829,28.829,0,0,1,4.2,3.638a5.208,5.208,0,0,1-2.384-.921A2.517,2.517,0,0,1,.837.241a.311.311,0,0,1,.38-.232.318.318,0,0,1,.228.385A1.888,1.888,0,0,0,2.2,2.217a4.648,4.648,0,0,0,2.1.8,28.311,28.311,0,0,0,3.456.3,19.438,19.438,0,0,1,5.132.7c.24.077.969.314,1.093.97.108.57-.292,1.1-1.1,1.451A28.171,28.171,0,0,1,6.978,8.039,23.959,23.959,0,0,0,.457,9.965.307.307,0,0,1,.314,10" transform="translate(10 111)"/>
  <path id="Fill_32" data-name="Fill 32" d="M.323,4a.339.339,0,0,1-.242-.1.275.275,0,0,1,.029-.414A16.331,16.331,0,0,1,9.663,0,.312.312,0,0,1,10,.281a.306.306,0,0,1-.31.305A15.646,15.646,0,0,0,.537,3.927.34.34,0,0,1,.323,4" transform="translate(17 122)"/>
  <path id="Fill_34" data-name="Fill 34" d="M16.569,24A79.348,79.348,0,0,1,.244,22.322a.314.314,0,0,1-.238-.37.305.305,0,0,1,.361-.244,79.935,79.935,0,0,0,40.549-2.122c5.821-1.891,10.272-4.175,13.61-6.984C58.645,9.136,61.147,4.65,61.389.3a.319.319,0,0,1,.323-.3A.31.31,0,0,1,62,.331c-.252,4.529-2.835,9.179-7.085,12.756-3.4,2.86-7.917,5.181-13.813,7.1A79.843,79.843,0,0,1,16.569,24" transform="translate(54 47)"/>
  <path id="Fill_36" data-name="Fill 36" d="M7.7,3H7.672L4.135,2.568C2.6,2.381,1.13,2.1.094.727a.547.547,0,0,1-.011-.6A.246.246,0,0,1,.509.116C1.4,1.3,2.76,1.554,4.187,1.728l3.538.431c.166.02.289.225.274.457S7.854,3,7.7,3" transform="translate(18 22)"/>
  <path id="Fill_38" data-name="Fill 38" d="M1.214,3Q.75,3,.288,2.957A.38.38,0,0,1,0,2.531a.353.353,0,0,1,.332-.369A10.579,10.579,0,0,0,7.536.053.276.276,0,0,1,7.959.2a.465.465,0,0,1-.115.544A11.236,11.236,0,0,1,1.214,3" transform="translate(17 27)"/>
  <path id="Fill_40" data-name="Fill 40" d="M1.762,2A13.582,13.582,0,0,1,.289,1.92.314.314,0,0,1,0,1.577.325.325,0,0,1,.364,1.3,12.88,12.88,0,0,0,7.516.039.335.335,0,0,1,7.96.162a.3.3,0,0,1-.13.421A13.366,13.366,0,0,1,1.762,2" transform="translate(134 22)"/>
  <path id="Fill_42" data-name="Fill 42" d="M6.763,2A19.444,19.444,0,0,1,.237.867.474.474,0,0,1,.01.331C.053.1.225-.047.395.014A18.88,18.88,0,0,0,8.66,1.022c.177-.022.326.163.339.406s-.118.453-.292.472A18.669,18.669,0,0,1,6.763,2" transform="translate(134 25)"/>
  <path id="Fill_44" data-name="Fill 44" d="M10.018,9a.3.3,0,0,1-.145-.038A10.464,10.464,0,0,0,5.15,8.026,12.952,12.952,0,0,1,.718,7.3,1.2,1.2,0,0,1,.152,6.9a.838.838,0,0,1-.123-.7A1.827,1.827,0,0,1,1,5.147,18.326,18.326,0,0,1,3.8,4.129c.687-.208,1.4-.423,2.067-.694a11.99,11.99,0,0,0,4.6-3.327A.3.3,0,0,1,10.9.078a.321.321,0,0,1,.028.444,12.611,12.611,0,0,1-4.832,3.5c-.695.282-1.419.5-2.119.712a17.909,17.909,0,0,0-2.712.982,1.245,1.245,0,0,0-.641.638.2.2,0,0,0,.03.179.7.7,0,0,0,.3.187,12.518,12.518,0,0,0,4.23.68,11.07,11.07,0,0,1,4.987,1.011.319.319,0,0,1,.124.426A.3.3,0,0,1,10.018,9" transform="translate(138 112)"/>
  <path id="Fill_46" data-name="Fill 46" d="M12.7,2a.227.227,0,0,1-.08-.015A16.866,16.866,0,0,0,.375,1.944C.217,2.005.054,1.876.011,1.66a.441.441,0,0,1,.206-.5A17.313,17.313,0,0,1,12.785,1.2a.443.443,0,0,1,.2.5A.327.327,0,0,1,12.7,2" transform="translate(136 124)"/>
  <path id="Fill_48" data-name="Fill 48" d="M10.151,27a.288.288,0,0,1-.214-.1.326.326,0,0,1,.011-.441A1.844,1.844,0,0,0,9.719,23.8a3.931,3.931,0,0,0-1.788-.513L7.8,23.272a9.8,9.8,0,0,1-5.3-2.03C.2,19.187-.05,15.854.007,14.051l.019-.664C.108,10.217.262,4.316,2.906.139A.284.284,0,0,1,3.314.053a.323.323,0,0,1,.08.433C.846,4.514.7,10.3.614,13.4L.6,14.072c-.053,1.69.173,4.807,2.29,6.692a9.283,9.283,0,0,0,4.989,1.889L8,22.668a4.341,4.341,0,0,1,2.047.614,2.49,2.49,0,0,1,.307,3.632.286.286,0,0,1-.2.086" transform="translate(4 179)"/>
  <path id="Fill_50" data-name="Fill 50" d="M.312,21A.314.314,0,0,1,.3,20.372,15.861,15.861,0,0,0,9.556,17.1a2.006,2.006,0,0,0,.782-.924c.187-.661-.377-1.318-.922-1.953l-.145-.168c-2.2-2.593-.521-11.186.85-13.889a.311.311,0,0,1,.42-.137.314.314,0,0,1,.135.423C9.223,3.326,7.847,11.412,9.747,13.651l.142.166c.593.69,1.33,1.548,1.05,2.536a2.539,2.539,0,0,1-1,1.252A16.489,16.489,0,0,1,.319,21Z" transform="translate(146 184)"/>
  <path id="Fill_52" data-name="Fill 52" d="M.305,3a.3.3,0,0,1-.264-.194.454.454,0,0,1,.111-.533A11.478,11.478,0,0,1,5.724.024c1.43-.155,3,.422,3.27,2.066a.4.4,0,0,1-.235.462c-.164.045-.326-.09-.361-.3C8.176.906,6.648.708,5.775.8A10.945,10.945,0,0,0,.457,2.947.254.254,0,0,1,.305,3" transform="translate(148 206)"/>
  <path id="Fill_54" data-name="Fill 54" d="M8.681,3a.322.322,0,0,1-.22-.087A8.831,8.831,0,0,0,.4.889.319.319,0,0,1,.011.666.312.312,0,0,1,.238.284,9.492,9.492,0,0,1,8.9,2.461a.309.309,0,0,1,.011.442.322.322,0,0,1-.232.1" transform="translate(3 204)"/>
  <path id="Fill_56" data-name="Fill 56" d="M42.279,6A166.413,166.413,0,0,1,.23.6.3.3,0,0,1,.01.227.31.31,0,0,1,.388.01,165.835,165.835,0,0,0,56.664,4.77.3.3,0,0,1,57,5.047a.305.305,0,0,1-.28.33Q49.495,6,42.279,6" transform="translate(54 144)"/>
  <path id="Fill_58" data-name="Fill 58" d="M.309,8A.318.318,0,0,1,0,7.69a.322.322,0,0,1,.292-.346A139.936,139.936,0,0,0,37.595.016a.307.307,0,0,1,.39.212.332.332,0,0,1-.2.413A140.528,140.528,0,0,1,.327,8H.309" transform="translate(63 132)"/>
  <path id="Fill_60" data-name="Fill 60" d="M29.3,4A122.944,122.944,0,0,1,.226.53.268.268,0,0,1,.011.2.315.315,0,0,1,.393.01a122.811,122.811,0,0,0,55.222.6.312.312,0,0,1,.376.2.269.269,0,0,1-.224.328A123.064,123.064,0,0,1,29.3,4" transform="translate(54 175)"/>
</svg>
