<svg xmlns="http://www.w3.org/2000/svg" xmlns:xlink="http://www.w3.org/1999/xlink" width="215" height="128.291" viewBox="0 0 215 128.291">
  <defs>
    <clipPath id="clip-path">
      <path id="Clip_60" data-name="Clip 60" d="M0,0H109.943V46.853H0Z" transform="translate(0.433 0.709)" fill="none"/>
    </clipPath>
    <clipPath id="clip-path-2">
      <path id="Clip_85" data-name="Clip 85" d="M0,0H153.474V69.686H0Z" transform="translate(0 0.233)" fill="none"/>
    </clipPath>
  </defs>
  <g id="Group_119" data-name="Group 119" transform="translate(0 -0.709)">
    <path id="Fill_1" data-name="Fill 1" d="M35.038,45a82.4,82.4,0,0,1-10.317-.645c-7.152-.907-17.372-2.966-23.53-10.336a.655.655,0,0,1-.068-.083c-.349-.422-.686-.862-1-1.309a.674.674,0,0,1-.113-.513A.682.682,0,0,1,.3,31.671a.707.707,0,0,1,.974.175c.239.34.494.678.756,1.006,17.872-.244,46.125-6.783,60.3-12.5,9.3-3.752,18.51-8.152,27.413-12.408l.048-.023c5.023-2.4,10.216-4.886,15.393-7.236A6.049,6.049,0,0,1,107.629,0a3.154,3.154,0,0,1,.436.03A3.729,3.729,0,0,1,111,3.769a8.239,8.239,0,0,1-1.5,4.239C102.613,19.327,90.51,26.649,78.458,32.876c-8.664,4.479-14.345,7.042-23.194,9.5A76.77,76.77,0,0,1,35.038,45Zm72.6-43.623a4.835,4.835,0,0,0-1.859.559C100.6,4.289,95.417,6.764,90.409,9.158c-8.926,4.268-18.156,8.682-27.542,12.467a188.365,188.365,0,0,1-28.313,8.227C22.741,32.426,11.611,33.971,3.215,34.2,9.029,40.29,17.858,42.1,24.9,42.989a79.841,79.841,0,0,0,10.008.62A75.866,75.866,0,0,0,54.883,41.05c8.782-2.438,14.17-4.867,22.924-9.391C89.679,25.524,101.59,18.327,108.3,7.3a7.083,7.083,0,0,0,1.3-3.523,2.365,2.365,0,0,0-1.731-2.385A1.78,1.78,0,0,0,107.636,1.377Z" transform="translate(97 54)"/>
    <path id="Fill_3" data-name="Fill 3" d="M.73,23H.69A.728.728,0,0,1,0,22.233,58.059,58.059,0,0,1,5.613.413a.729.729,0,0,1,1.315.629,56.578,56.578,0,0,0-5.47,21.271A.729.729,0,0,1,.73,23" transform="translate(172 65)"/>
    <path id="Fill_5" data-name="Fill 5" d="M.417,2H.387c-.23-.012-.4-.162-.386-.335Q.067.971.169.278A.407.407,0,0,1,.629,0c.229.019.394.174.368.346q-.1.68-.165,1.362A.386.386,0,0,1,.417,2" transform="translate(174 82)"/>
    <path id="Fill_7" data-name="Fill 7" d="M.376,2A.4.4,0,0,1,.318,2,.347.347,0,0,1,0,1.605Q.118.94.256.278A.373.373,0,0,1,.7.006a.345.345,0,0,1,.3.4q-.136.65-.248,1.3A.366.366,0,0,1,.376,2" transform="translate(174 79)"/>
    <path id="Fill_9" data-name="Fill 9" d="M.7,2a1.328,1.328,0,0,1-.152-.009C.17,1.949-.067,1.76.017,1.57Q.3.915.631.266A.878.878,0,0,1,1.477.012c.372.048.6.241.5.43q-.322.638-.6,1.281A.753.753,0,0,1,.7,2" transform="translate(174 75)"/>
    <path id="Fill_11" data-name="Fill 11" d="M.633,2a1.145,1.145,0,0,1-.179-.015C.119,1.93-.073,1.735.026,1.549Q.377.89.767.239a.83.83,0,0,1,.8-.222c.331.062.51.261.4.445q-.384.639-.728,1.286A.7.7,0,0,1,.633,2" transform="translate(177 73)"/>
    <path id="Fill_13" data-name="Fill 13" d="M.6,2A.97.97,0,0,1,.4,1.978C.085,1.909-.077,1.7.036,1.508Q.418.866.834.23a.783.783,0,0,1,.785-.2c.31.076.461.289.337.478q-.409.622-.785,1.255A.667.667,0,0,1,.6,2" transform="translate(177 70)"/>
    <path id="Fill_15" data-name="Fill 15" d="M.63,2a.9.9,0,0,1-.25-.036c-.319-.1-.466-.35-.328-.57Q.415.819.8.251a.771.771,0,0,1,.837-.21c.315.1.453.358.307.575q-.378.558-.733,1.123A.686.686,0,0,1,.63,2" transform="translate(177 68)"/>
    <path id="Fill_17" data-name="Fill 17" d="M16.864,38A70.492,70.492,0,0,1,.316,36.147a.4.4,0,0,1-.3-.491.422.422,0,0,1,.508-.293,71.554,71.554,0,0,0,19.052,1.784c13.145-.433,25.157-3.613,38.946-10.312C70.117,21.2,84.428,13.084,92.22.2a.428.428,0,0,1,.572-.145.4.4,0,0,1,.151.553C85.041,13.674,70.6,21.874,58.9,27.557c-13.9,6.753-26.021,9.96-39.294,10.4Q18.227,38,16.864,38" transform="translate(115 64)"/>
    <path id="Fill_19" data-name="Fill 19" d="M4.49,5a.523.523,0,0,1-.34-.123A32.948,32.948,0,0,1,.109.785.469.469,0,0,1,.2.1.525.525,0,0,1,.911.187,31.927,31.927,0,0,0,4.83,4.154a.469.469,0,0,1,.04.686A.52.52,0,0,1,4.49,5" transform="translate(95 88)"/>
    <path id="Fill_21" data-name="Fill 21" d="M.751,2a.735.735,0,0,1-.736-.426C-.067,1.287.2,1.007.6.95L.764.927A47.945,47.945,0,0,0,5.972.036a.885.885,0,0,1,.975.3c.152.273-.038.581-.424.688a48.815,48.815,0,0,1-5.464.944L.9,1.989A1.019,1.019,0,0,1,.751,2" transform="translate(93 86)"/>
    <path id="Fill_23" data-name="Fill 23" d="M.7,2A.709.709,0,0,1,.565.6C1.993.314,4.117.018,4.207.006a.708.708,0,0,1,.19,1.4c-.022,0-2.176.3-3.565.577A.667.667,0,0,1,.7,2" transform="translate(86 88)"/>
    <path id="Fill_25" data-name="Fill 25" d="M55.9,68a93.967,93.967,0,0,1-18.03-2.077c-9.858-1.935-17.359-4.264-24.322-7.549-4.424-2.089-8.89-4.567-11.6-8.528C.056,47.089-.46,44.526.41,42.227c1.428-3.773,6.34-6.651,15.458-9.058a.7.7,0,0,1,.856.488.688.688,0,0,1-.5.845C7.7,36.751,2.959,39.437,1.72,42.71c-.713,1.882-.26,3.964,1.385,6.365,2.524,3.686,6.8,6.05,11.047,8.055C21,60.363,28.4,62.658,38.143,64.57c7.931,1.557,17.267,2.932,26.382,1.341,7.76-1.354,16.109-4.332,24.947-7.483,5.5-1.961,11.181-3.987,16.776-5.617,2.477-.722,5.446-1.485,8.588-2.295,8.85-2.278,19.865-5.114,26.161-8.7,4.213-2.4,7.132-5.075,8.925-8.174,2.224-3.833,2.6-8.032,2.674-12A33.98,33.98,0,0,0,145.566,1.1a.684.684,0,0,1,.152-.964.7.7,0,0,1,.977.15,35.358,35.358,0,0,1,7.3,21.385c-.074,3.952-.472,8.546-2.859,12.66-1.918,3.316-5.007,6.156-9.44,8.684-6.46,3.679-17.575,6.541-26.507,8.84-3.131.806-6.089,1.568-8.545,2.282-5.556,1.618-11.22,3.638-16.7,5.591-8.9,3.172-17.3,6.169-25.178,7.543A51.44,51.44,0,0,1,55.9,68" transform="translate(61 57)"/>
    <path id="Fill_27" data-name="Fill 27" d="M55.435,38c-6.122,0-11.937-1.032-18.342-2.168L35.767,35.6a77.111,77.111,0,0,1-26.8-9.484,24.7,24.7,0,0,1-7.185-5.722A8.149,8.149,0,0,1,.2,13.529.693.693,0,0,1,1.021,13a.7.7,0,0,1,.52.841,6.734,6.734,0,0,0,1.317,5.669A23.047,23.047,0,0,0,9.647,24.89C18.113,29.745,25.5,32.359,36,34.213l1.327.235c9.358,1.66,17.439,3.094,27.012,1.349,8.567-1.561,19.519-5.763,28.319-9.139,1.165-.447,2.3-.881,3.39-1.3,2.883-1.1,5.732-1.958,8.488-2.791,2.433-.736,4.73-1.431,6.79-2.212a.679.679,0,0,1,.593.054.7.7,0,0,1,.33.505c0,.03.07.506.116,1.058a158.029,158.029,0,0,0,21.394-6.431c3.541-1.362,8.97-4.467,11.566-7.107,2.111-2.149,2.129-2.673,2.26-6.755l.033-1.005A.682.682,0,0,1,148.335,0,.7.7,0,0,1,149,.728l-.033,1c-.134,4.172-.167,5.162-2.664,7.7-2.724,2.773-8.378,6.015-12.052,7.428a160.065,160.065,0,0,1-22.379,6.668.674.674,0,0,1-.578-.136.711.711,0,0,1-.26-.543c0-.27-.023-.582-.049-.868-1.879.676-3.914,1.291-6.052,1.938-2.733.827-5.559,1.682-8.4,2.761-1.09.415-2.222.849-3.386,1.3-8.853,3.4-19.871,7.623-28.562,9.207a50.577,50.577,0,0,1-9.15.82" transform="translate(61 91)"/>
    <path id="Fill_29" data-name="Fill 29" d="M3.394,20Q1.912,20,.41,19.961A.426.426,0,0,1,0,19.518a.43.43,0,0,1,.43-.421C28.75,19.839,51.179,9.883,69.383.05a.416.416,0,0,1,.569.181.438.438,0,0,1-.177.583C52.118,10.351,30.5,20,3.394,20" transform="translate(104 70)"/>
    <path id="Fill_31" data-name="Fill 31" d="M.422,9A.428.428,0,0,1,.04,8.783a.359.359,0,0,1,.2-.5L18.712.575A5.072,5.072,0,0,1,21.268.022a2.178,2.178,0,0,1,1.47.841A1.233,1.233,0,0,1,22.939,2a.431.431,0,0,1-.526.25.371.371,0,0,1-.281-.469.563.563,0,0,0-.1-.509,1.333,1.333,0,0,0-.876-.5,4.343,4.343,0,0,0-2.082.488L.6,8.964A.458.458,0,0,1,.422,9" transform="translate(181 59)"/>
    <path id="Fill_33" data-name="Fill 33" d="M1.57,2H1.546a2.954,2.954,0,0,1-.925-.12c-.4-.133-.641-.388-.62-.648C.031.863.552.646.723.575A7.965,7.965,0,0,1,3.2.01c.1-.007.2-.01.294-.01.737,0,1.266.191,1.449.525a.6.6,0,0,1-.251.771,2.527,2.527,0,0,1-.842.383A8.267,8.267,0,0,1,1.57,2ZM3.489.523c-.066,0-.136,0-.208.007a6.864,6.864,0,0,0-2.123.485c-.3.125-.349.207-.352.244s.078.121.185.157a1.9,1.9,0,0,0,.554.061v.262l.02-.262A7.135,7.135,0,0,0,3.513,1.2,1.765,1.765,0,0,0,4.066.962C4.172.88,4.218.772,4.179.7,4.107.569,3.775.523,3.489.523Z" transform="translate(90 91)"/>
    <path id="Fill_35" data-name="Fill 35" d="M14.68,9a.4.4,0,0,1-.081-.008c-1.924-.364-3.876-.636-5.764-.9-.812-.113-1.621-.226-2.428-.346A27.377,27.377,0,0,1,2.067,6.7,3.181,3.181,0,0,1,0,4,3.061,3.061,0,0,1,1.454,1.51,7.652,7.652,0,0,1,4.046.516,14.513,14.513,0,0,1,8.952.062,6.541,6.541,0,0,1,13.38,2.328c.468.595,1.385,1.7,2.289,2.725a27.541,27.541,0,0,0,2.192,2.279.4.4,0,0,1,.03.579.428.428,0,0,1-.6.029A29.24,29.24,0,0,1,15.03,5.588c-.915-1.034-1.844-2.157-2.32-2.762A5.7,5.7,0,0,0,8.852.877a13.737,13.737,0,0,0-4.608.436,6.95,6.95,0,0,0-2.306.869,2.284,2.284,0,0,0-1.094,1.8A2.423,2.423,0,0,0,2.412,5.949a26.988,26.988,0,0,0,4.11.985c.817.12,1.624.233,2.433.345,1.9.265,3.861.538,5.805.907a.411.411,0,0,1,.333.481A.419.419,0,0,1,14.68,9" transform="translate(77 82)"/>
    <path id="Fill_37" data-name="Fill 37" d="M14.979,7a.488.488,0,0,1-.2-.047A22.955,22.955,0,0,0,8.658,5.308c-.843-.133-1.7-.247-2.535-.358l-.178-.024c-1.389-.184-2.7-.358-3.963-.6C.288,4,.014,3.236,0,2.809a1.7,1.7,0,0,1,.933-1.4A8.457,8.457,0,0,1,5.694,0a8.454,8.454,0,0,1,4.971,1.544A29.333,29.333,0,0,1,12.987,3.51l.021.019.322.293a.259.259,0,0,1,.035.029c.274.248.535.511.787.765l.043.044.008.008a9.235,9.235,0,0,0,1.6,1.392.4.4,0,0,1,.187.268.381.381,0,0,1-.071.3.46.46,0,0,1-.368.177.488.488,0,0,1-.175-.032l0,.005A.45.45,0,0,1,14.979,7ZM5.693.811A7.5,7.5,0,0,0,1.47,2.061c-.39.267-.584.511-.578.724.014.452.9.67,1.273.743,1.246.239,2.6.418,3.906.59.893.119,1.816.241,2.736.384a27.31,27.31,0,0,1,5.3,1.273c-.207-.2-.406-.4-.573-.568l-.024-.024c-.238-.241-.484-.489-.742-.726a.322.322,0,0,1-.034-.027l-.355-.322a28.38,28.38,0,0,0-2.272-1.926A7.506,7.506,0,0,0,5.693.811Z" transform="translate(79 84)"/>
    <path id="Fill_39" data-name="Fill 39" d="M15.579,16a7.8,7.8,0,0,1-2.864-.628A18.975,18.975,0,0,1,5.391,9.8,48.82,48.82,0,0,1,.057,1.919a.456.456,0,0,1,.137-.6.383.383,0,0,1,.55.148A47.925,47.925,0,0,0,5.981,9.215a18.192,18.192,0,0,0,7.01,5.34,6.256,6.256,0,0,0,3.243.526c1.642-.255,2.611-.914,2.879-1.961a3.852,3.852,0,0,0-.288-2.431c-1.275-2.957-4.046-5.234-8.238-6.767-.9-.327-1.776-.569-2.628-.8A17.96,17.96,0,0,1,2.335.805.456.456,0,0,1,2.2.208a.382.382,0,0,1,.55-.144,17.128,17.128,0,0,0,5.4,2.213c.867.238,1.763.484,2.687.822,4.408,1.612,7.338,4.041,8.709,7.223a4.779,4.779,0,0,1,.334,3.031c-.248.969-1.062,2.205-3.537,2.589a4.92,4.92,0,0,1-.767.058" transform="translate(93 90)"/>
    <path id="Fill_41" data-name="Fill 41" d="M15.231,14C11.9,14,9.079,11.757,6.737,9.517a30.963,30.963,0,0,1-3.672-4.5A36.531,36.531,0,0,0,.123,1.255a.476.476,0,0,1,0-.634A.389.389,0,0,1,.7.616,37.35,37.35,0,0,1,3.715,4.464a29.828,29.828,0,0,0,3.565,4.38c2.378,2.275,5.261,4.55,8.6,4.229.668-.065,1.08-.3,1.225-.709.3-.836-.405-2.387-1.258-3.4-2.116-2.522-4.469-3.3-7.193-4.194C7.96,4.538,7.248,4.3,6.517,4.032A13.639,13.639,0,0,1,.978.767a.476.476,0,0,1,0-.633A.389.389,0,0,1,1.555.128,12.763,12.763,0,0,0,6.783,3.183c.721.268,1.425.5,2.11.725,2.722.9,5.294,1.743,7.563,4.448.719.857,1.941,2.865,1.418,4.331a2.02,2.02,0,0,1-1.919,1.277c-.243.024-.486.035-.724.035" transform="translate(95 90)"/>
    <path id="Fill_43" data-name="Fill 43" d="M15.586,5H15.57a50.7,50.7,0,0,1-8.125-.907A19.749,19.749,0,0,1,.238,1.117a.706.706,0,0,1-.2-.78C.137.045.384-.082.591.056A19.119,19.119,0,0,0,7.564,2.933a49.667,49.667,0,0,0,8.037.9c.229.012.407.284.4.608S15.808,5,15.586,5" transform="translate(77 88)"/>
    <path id="Fill_45" data-name="Fill 45" d="M11.224,5A17.665,17.665,0,0,1,.206,1.089.736.736,0,0,1,.049.3c.1-.28.346-.384.537-.231A16.815,16.815,0,0,0,15.531,3.258c.218-.054.421.149.462.463a.606.606,0,0,1-.315.678,16.677,16.677,0,0,1-4.454.6" transform="translate(77 88)"/>
    <path id="Fill_47" data-name="Fill 47" d="M1.032,16c-.115,0-.223-.108-.267-.284A28.342,28.342,0,0,1,1.458.24c.073-.219.245-.3.387-.191a.583.583,0,0,1,.123.6A27,27,0,0,0,1.3,15.392a.548.548,0,0,1-.163.577.2.2,0,0,1-.1.031" transform="translate(91 93)"/>
    <path id="Fill_49" data-name="Fill 49" d="M1.01,16a.362.362,0,0,1-.317-.316A30.535,30.535,0,0,1,1.357.284c.069-.233.264-.344.434-.251a.522.522,0,0,1,.184.592,29.326,29.326,0,0,0-.648,14.782.5.5,0,0,1-.216.572.257.257,0,0,1-.1.022" transform="translate(91 93)"/>
    <path id="Fill_51" data-name="Fill 51" d="M3.365,7a1.755,1.755,0,0,1-.9-.262A3.211,3.211,0,0,1,1.5,5.729a10.84,10.84,0,0,1-1.5-4.272.5.5,0,0,1,.141-.428A.465.465,0,0,1,.475.89.455.455,0,0,1,.569.9a3.019,3.019,0,0,0,.6.06A3.326,3.326,0,0,0,3.379.122.46.46,0,0,1,3.855.03a.489.489,0,0,1,.309.387A15.7,15.7,0,0,0,4.7,2.856a5.046,5.046,0,0,1,.135,2.91,1.8,1.8,0,0,1-.78,1.057A1.381,1.381,0,0,1,3.365,7ZM1.058,1.943A9.3,9.3,0,0,0,2.287,5.172a2.384,2.384,0,0,0,.661.718.828.828,0,0,0,.418.123A.469.469,0,0,0,3.6,5.96a.881.881,0,0,0,.338-.508,4.152,4.152,0,0,0-.146-2.317A16.531,16.531,0,0,1,3.35,1.346a4.205,4.205,0,0,1-2.141.6Z" transform="translate(90 106)"/>
    <path id="Fill_53" data-name="Fill 53" d="M3.7,5a.329.329,0,0,1-.1-.015C2.221,4.516.49,3.687.089,2.4A2.045,2.045,0,0,1,.23.864,1.5,1.5,0,0,1,1.687,0,4.8,4.8,0,0,1,2.779.165l.017,0a6.992,6.992,0,0,1,1.764.8l.216.122A.477.477,0,0,1,5,1.456a.561.561,0,0,1-.117.429,3.766,3.766,0,0,0-.8,2.6.546.546,0,0,1-.135.4A.33.33,0,0,1,3.7,5ZM1.687.957c-.553,0-.732.236-.819.413a.855.855,0,0,0-.079.674c.195.628,1.119,1.3,2.536,1.846A4.878,4.878,0,0,1,3.994,1.7,5.457,5.457,0,0,0,2.66,1.11,4.418,4.418,0,0,0,1.687.957Z" transform="translate(72 86)"/>
    <path id="Fill_55" data-name="Fill 55" d="M50.382,20a89.074,89.074,0,0,1-28.161-4.831C14.838,12.8,4.508,8.715.052.624A.424.424,0,0,1,.21.053a.408.408,0,0,1,.559.16c4.312,7.832,14.45,11.831,21.7,14.158a88.205,88.205,0,0,0,29.115,4.782.4.4,0,0,1,.417.412.415.415,0,0,1-.4.424q-.611.009-1.213.01" transform="translate(66 102)"/>
    <path id="Fill_57" data-name="Fill 57" d="M.4,27a.4.4,0,0,1-.384-.306.418.418,0,0,1,.279-.511c5.727-1.636,11-5.292,13.751-9.541C16.712,12.527,17.7,7.085,16.972.463A.411.411,0,0,1,17.323,0a.407.407,0,0,1,.441.365c.747,6.825-.283,12.457-3.06,16.74C11.848,21.513,6.406,25.3.5,26.985A.426.426,0,0,1,.4,27" transform="translate(195 75)"/>
    <g id="Group_61" data-name="Group 61" transform="translate(7)">
      <path id="Clip_60-2" data-name="Clip 60" d="M0,0H109.943V46.853H0Z" transform="translate(0.433 0.709)" fill="none"/>
      <g id="Group_61-2" data-name="Group 61" clip-path="url(#clip-path)">
        <path id="Fill_59" data-name="Fill 59" d="M75.239,46.853a72.557,72.557,0,0,1-20.033-2.734c-8.763-2.556-14.391-5.225-22.974-9.888C20.294,27.747,8.307,20.123,1.483,8.339A8.852,8.852,0,0,1,0,3.926C.01,2.218,1.1.294,2.907.032A2.973,2.973,0,0,1,3.34,0a5.725,5.725,0,0,1,2.4.706l.018.009C10.907,3.174,16.041,5.755,21.006,8.25l.039.02c8.82,4.432,17.94,9.014,27.156,12.921,14.04,5.951,42.023,12.76,59.729,13.014.255-.335.507-.687.748-1.048a.688.688,0,0,1,.571-.31.677.677,0,0,1,.395.128.732.732,0,0,1,.175,1c-.314.47-.647.927-.987,1.359a.58.58,0,0,1-.072.091c-6.1,7.672-16.22,9.815-23.3,10.76A77.639,77.639,0,0,1,75.239,46.853ZM3.338,1.433A1.725,1.725,0,0,0,3.1,1.45,2.451,2.451,0,0,0,1.388,3.934,7.58,7.58,0,0,0,2.675,7.6c6.647,11.482,18.445,18.975,30.2,25.361,8.668,4.709,14,7.238,22.705,9.777a71.7,71.7,0,0,0,19.785,2.665,75.234,75.234,0,0,0,9.913-.645c6.976-.93,15.721-2.81,21.478-9.147-8.319-.243-19.343-1.853-31.04-4.531a179.77,179.77,0,0,1-28.044-8.566c-9.24-3.916-18.364-8.5-27.189-12.933L20.4,9.538C15.686,7.17,10.348,4.486,5.173,2.016A4.575,4.575,0,0,0,3.338,1.433Z" transform="translate(0.433 0.708)"/>
      </g>
    </g>
    <path id="Fill_62" data-name="Fill 62" d="M6.27,23a.729.729,0,0,1-.728-.687A56.592,56.592,0,0,0,.072,1.042.728.728,0,0,1,1.386.413,58.061,58.061,0,0,1,7,22.233.727.727,0,0,1,6.31,23H6.27" transform="translate(36 13)"/>
    <path id="Fill_64" data-name="Fill 64" d="M.583,2a.386.386,0,0,1-.415-.291Q.1,1.027,0,.347C-.023.175.142.02.371,0A.41.41,0,0,1,.83.277Q.933.969,1,1.664c.017.173-.156.323-.386.335H.583" transform="translate(40 30)"/>
    <path id="Fill_66" data-name="Fill 66" d="M.624,2a.366.366,0,0,1-.37-.29Q.144,1.057.007.407a.345.345,0,0,1,.3-.4A.371.371,0,0,1,.744.278Q.882.94,1,1.606A.348.348,0,0,1,.682,2,.4.4,0,0,1,.624,2" transform="translate(38 25)"/>
    <path id="Fill_68" data-name="Fill 68" d="M1.3,2a.754.754,0,0,1-.678-.277Q.343,1.08.022.441c-.1-.189.127-.382.5-.43a.887.887,0,0,1,.847.255q.327.65.614,1.3c.083.19-.152.38-.527.422A1.326,1.326,0,0,1,1.3,2" transform="translate(39 23)"/>
    <path id="Fill_70" data-name="Fill 70" d="M1.367,2a.7.7,0,0,1-.606-.252Q.416,1.1.033.462C-.078.278.1.079.433.018a.824.824,0,0,1,.8.222q.389.65.741,1.308c.1.186-.092.382-.427.437A1.169,1.169,0,0,1,1.367,2" transform="translate(36 21)"/>
    <path id="Fill_72" data-name="Fill 72" d="M1.4,2a.667.667,0,0,1-.568-.242Q.452,1.126.043.5C-.081.314.071.1.38.025A.782.782,0,0,1,1.165.23q.415.635.8,1.277c.114.191-.048.4-.362.47A.97.97,0,0,1,1.4,2" transform="translate(36 16)"/>
    <path id="Fill_74" data-name="Fill 74" d="M1.37,2a.687.687,0,0,1-.579-.261Q.435,1.173.058.615C-.088.4.05.141.365.041A.771.771,0,0,1,1.2.251c.254.379.5.76.745,1.143.139.22-.008.474-.328.57A.9.9,0,0,1,1.37,2" transform="translate(34 14)"/>
    <path id="Fill_76" data-name="Fill 76" d="M76.134,38q-1.361,0-2.737-.045c-13.272-.438-25.391-3.644-39.294-10.4C22.4,21.874,7.959,13.675.057.607A.4.4,0,0,1,.208.054.429.429,0,0,1,.78.2c7.792,12.884,22.1,21,33.7,26.636,13.79,6.7,25.8,9.879,38.947,10.312a71.648,71.648,0,0,0,19.053-1.784.424.424,0,0,1,.508.293.4.4,0,0,1-.3.491A70.523,70.523,0,0,1,76.134,38" transform="translate(7 9)"/>
    <path id="Fill_78" data-name="Fill 78" d="M.51,5a.52.52,0,0,1-.38-.161.469.469,0,0,1,.04-.686A31.866,31.866,0,0,0,4.089.186.526.526,0,0,1,4.8.1a.469.469,0,0,1,.087.681A32.891,32.891,0,0,1,.85,4.877.523.523,0,0,1,.51,5" transform="translate(115 34)"/>
    <path id="Fill_80" data-name="Fill 80" d="M6.251,2A1.033,1.033,0,0,1,6.1,1.99,49.935,49.935,0,0,1,.475,1C.09.9-.1.6.052.329A.888.888,0,0,1,1.025.036,48.813,48.813,0,0,0,6.4.97c.406.056.669.33.587.612A.734.734,0,0,1,6.251,2" transform="translate(115 34)"/>
    <path id="Fill_82" data-name="Fill 82" d="M4.259,2a.728.728,0,0,1-.143-.014c-.753-.148-1.292-.207-1.814-.264C1.8,1.667,1.28,1.61.6,1.477A.745.745,0,0,1,.883.014C1.5.134,1.969.186,2.463.24,3.015.3,3.586.363,4.4.523A.746.746,0,0,1,4.259,2" transform="translate(124 34)"/>
    <g id="Group_86" data-name="Group 86" transform="translate(0 2)">
      <path id="Clip_85-2" data-name="Clip 85" d="M0,0H153.474V69.686H0Z" transform="translate(0 0.233)" fill="none"/>
      <g id="Group_86-2" data-name="Group 86" clip-path="url(#clip-path-2)">
        <path id="Fill_84" data-name="Fill 84" d="M97.756,69.686a49.842,49.842,0,0,1-8.835-.749C81.07,67.529,72.7,64.458,63.83,61.207c-5.458-2-11.1-4.071-16.639-5.729-2.447-.733-5.394-1.512-8.515-2.339-8.9-2.356-19.978-5.29-26.416-9.06-4.419-2.591-7.5-5.5-9.408-8.9C.476,30.964.079,26.256.005,22.206A36.894,36.894,0,0,1,7.279.29.69.69,0,0,1,8.253.136a.713.713,0,0,1,.152.988A35.466,35.466,0,0,0,1.4,22.179c.074,4.066.448,8.37,2.664,12.3,1.787,3.175,4.7,5.915,8.9,8.377,6.274,3.675,17.25,6.581,26.07,8.916,3.131.829,6.088,1.611,8.557,2.351,5.577,1.67,11.241,3.747,16.718,5.756,8.807,3.23,17.127,6.281,24.86,7.669,9.08,1.631,18.385.221,26.289-1.374,9.706-1.96,17.079-4.312,23.909-7.626,4.23-2.054,8.492-4.476,11.008-8.255,1.642-2.465,2.1-4.6,1.4-6.517-1.2-3.286-5.828-5.993-14.139-8.276a.708.708,0,0,1-.491-.867.694.694,0,0,1,.854-.5c8.9,2.444,13.69,5.35,15.082,9.147.86,2.346.339,4.971-1.546,7.8-2.7,4.059-7.154,6.6-11.563,8.739-6.938,3.366-14.413,5.753-24.237,7.736a91.2,91.2,0,0,1-17.97,2.128" transform="translate(0 0.233)"/>
      </g>
    </g>
    <path id="Fill_87" data-name="Fill 87" d="M93.564,38a50.57,50.57,0,0,1-9.149-.82c-8.691-1.584-19.71-5.81-28.564-9.207-1.163-.447-2.295-.88-3.385-1.3-2.841-1.08-5.668-1.934-8.4-2.762-2.137-.646-4.172-1.261-6.049-1.937-.026.286-.048.6-.05.867a.709.709,0,0,1-.26.543.677.677,0,0,1-.578.137A160.2,160.2,0,0,1,14.751,16.86C11.076,15.447,5.422,12.2,2.7,9.432.2,6.892.169,5.9.034,1.731L0,.729A.7.7,0,0,1,.665,0a.673.673,0,0,1,.714.676l.033,1.007c.132,4.081.149,4.605,2.26,6.754,2.6,2.64,8.024,5.745,11.566,7.107a157.906,157.906,0,0,0,21.394,6.43c.046-.552.112-1.027.115-1.057a.7.7,0,0,1,.33-.505.676.676,0,0,1,.594-.054c2.058.781,4.354,1.475,6.786,2.211,2.756.834,5.606,1.7,8.491,2.793,1.091.415,2.224.849,3.389,1.3,8.8,3.376,19.754,7.578,28.321,9.138,9.572,1.744,17.654.31,27.012-1.349L113,34.213c10.5-1.853,17.888-4.467,26.355-9.323a23.046,23.046,0,0,0,6.789-5.381,6.74,6.74,0,0,0,1.317-5.669.7.7,0,0,1,.519-.841.691.691,0,0,1,.826.53,8.152,8.152,0,0,1-1.589,6.862,24.7,24.7,0,0,1-7.185,5.722,77.118,77.118,0,0,1-26.8,9.484l-1.326.235C105.5,36.968,99.686,38,93.564,38" transform="translate(2 36)"/>
    <path id="Fill_89" data-name="Fill 89" d="M66.608,20C39.5,20,17.882,10.352.225.814A.437.437,0,0,1,.048.231.416.416,0,0,1,.616.049C18.821,9.882,41.247,19.84,69.569,19.1h.011a.432.432,0,0,1,.01.864q-1.5.039-2.981.039" transform="translate(41 18)"/>
    <path id="Fill_91" data-name="Fill 91" d="M22.578,9a.458.458,0,0,1-.178-.036L3.93,1.253A4.326,4.326,0,0,0,1.848.766a1.333,1.333,0,0,0-.876.5.564.564,0,0,0-.1.51.371.371,0,0,1-.281.469A.434.434,0,0,1,.061,2,1.233,1.233,0,0,1,.262.862,2.178,2.178,0,0,1,1.731.021,5.126,5.126,0,0,1,4.288.574l18.47,7.71a.359.359,0,0,1,.2.5A.428.428,0,0,1,22.578,9" transform="translate(11 5)"/>
    <path id="Fill_93" data-name="Fill 93" d="M3.443,2H3.431a8.277,8.277,0,0,1-2.275-.32A2.538,2.538,0,0,1,.312,1.3.6.6,0,0,1,.061.525C.245.191.773,0,1.511,0c.1,0,.195,0,.293.01A8,8,0,0,1,4.277.575c.171.071.692.288.722.657.022.259-.222.514-.619.648A3,3,0,0,1,3.443,2ZM1.511.523C1.224.523.892.569.821.7.78.773.825.878.932.962a1.784,1.784,0,0,0,.554.241,7.113,7.113,0,0,0,1.947.274l.01.262V1.477h.031a1.8,1.8,0,0,0,.533-.06c.108-.036.19-.1.185-.157s-.052-.119-.352-.244A6.853,6.853,0,0,0,1.718.53C1.645.525,1.578.523,1.511.523Z" transform="translate(117 36)"/>
    <path id="Fill_95" data-name="Fill 95" d="M3.32,9a.419.419,0,0,1-.41-.316.408.408,0,0,1,.313-.491,77.51,77.51,0,0,1,8.109-1.253,28,28,0,0,0,4.255-.98A2.417,2.417,0,0,0,17.156,4,2.276,2.276,0,0,0,16.061,2.2a6.941,6.941,0,0,0-2.275-1.022A13.619,13.619,0,0,0,9.148.9,5.705,5.705,0,0,0,5.29,2.846C4.813,3.45,3.883,4.57,2.969,5.6A29.032,29.032,0,0,1,.7,7.942a.431.431,0,0,1-.6-.029.4.4,0,0,1,.03-.577,27.361,27.361,0,0,0,2.191-2.27C3.233,4.048,4.15,2.945,4.62,2.35A6.548,6.548,0,0,1,9.048.092a14.436,14.436,0,0,1,4.937.3,7.791,7.791,0,0,1,2.56,1.147A3.051,3.051,0,0,1,18,4.011a3.173,3.173,0,0,1-2.068,2.7,28.437,28.437,0,0,1-4.5,1.045A74.432,74.432,0,0,0,3.417,8.988.438.438,0,0,1,3.32,9" transform="translate(120 29)"/>
    <path id="Fill_97" data-name="Fill 97" d="M1.183,7A.446.446,0,0,1,.79,6.779a.38.38,0,0,1-.049-.206L.69,6.605a.462.462,0,0,1-.249.072A.45.45,0,0,1,.077,6.5a.381.381,0,0,1-.071-.3.4.4,0,0,1,.186-.267A19.261,19.261,0,0,0,2.778,3.85a.371.371,0,0,1,.035-.029l.316-.29.018-.017a29.251,29.251,0,0,1,2.3-1.969A8.306,8.306,0,0,1,10.37,0a8.292,8.292,0,0,1,4.706,1.408A1.707,1.707,0,0,1,16,2.809c-.014.427-.286,1.192-1.96,1.518-1.259.245-2.612.425-3.92.6l-.08.011c-.854.115-1.738.234-2.605.371a22.54,22.54,0,0,0-6.05,1.646A.478.478,0,0,1,1.183,7ZM10.368.811A7.366,7.366,0,0,0,6,2.183,28.4,28.4,0,0,0,3.769,4.1l-.018.016L3.4,4.431a.331.331,0,0,1-.034.028c-.5.456-1.084.984-1.724,1.476A25.392,25.392,0,0,1,7.287,4.5c.873-.138,1.764-.258,2.626-.374l.08-.011.03,0c1.352-.181,2.629-.352,3.834-.586.374-.074,1.247-.294,1.26-.743.006-.213-.186-.457-.571-.724A7.364,7.364,0,0,0,10.368.811Z" transform="translate(120 32)"/>
    <path id="Fill_99" data-name="Fill 99" d="M4.421,16a4.92,4.92,0,0,1-.767-.058C1.18,15.558.365,14.322.117,13.352a4.774,4.774,0,0,1,.334-3.031C1.821,7.14,4.752,4.71,9.159,3.1c.924-.338,1.82-.584,2.687-.822a17.122,17.122,0,0,0,5.4-2.213A.384.384,0,0,1,17.8.208a.456.456,0,0,1-.133.6,17.992,17.992,0,0,1-5.622,2.315c-.852.234-1.733.476-2.628.8-4.192,1.533-6.964,3.81-8.238,6.767a3.85,3.85,0,0,0-.288,2.429c.268,1.048,1.237,1.708,2.879,1.963a6.241,6.241,0,0,0,3.243-.526,18.09,18.09,0,0,0,7.258-5A33.751,33.751,0,0,0,19.241,1.5a.388.388,0,0,1,.537-.2.453.453,0,0,1,.181.583,34.6,34.6,0,0,1-5.1,8.26,18.885,18.885,0,0,1-7.572,5.224A7.808,7.808,0,0,1,4.421,16" transform="translate(102 38)"/>
    <path id="Fill_101" data-name="Fill 101" d="M2.768,14c-.239,0-.479-.011-.723-.035A2.023,2.023,0,0,1,.127,12.688c-.523-1.466.7-3.474,1.418-4.332,2.269-2.7,4.839-3.55,7.562-4.447.686-.225,1.389-.457,2.111-.725A12.783,12.783,0,0,0,16.445.129a.388.388,0,0,1,.582.005.476.476,0,0,1,0,.633,13.647,13.647,0,0,1-5.54,3.264c-.731.272-1.444.507-2.138.735-2.724.9-5.076,1.672-7.192,4.193C1.3,9.977.6,11.527.894,12.364c.145.406.557.644,1.225.709,3.337.327,6.223-1.954,8.6-4.228a29.8,29.8,0,0,0,3.566-4.382A37.523,37.523,0,0,1,17.3.616a.389.389,0,0,1,.582.005.477.477,0,0,1,0,.634,36.674,36.674,0,0,0-2.941,3.757,31,31,0,0,1-3.673,4.505C8.922,11.756,6.1,14,2.768,14" transform="translate(102 38)"/>
    <path id="Fill_103" data-name="Fill 103" d="M1.924,5C1.421,5,.91,4.978.386,4.927c-.229-.023-.4-.3-.385-.617s.2-.573.442-.535a24.42,24.42,0,0,0,7.484-.742L8.8,2.854C11.042,2.4,13.583,1.888,15.342.11a.346.346,0,0,1,.579.128.734.734,0,0,1-.093.807C13.9,2.99,11.255,3.526,8.919,4l-.871.178A30,30,0,0,1,1.924,5" transform="translate(122 34)"/>
    <path id="Fill_105" data-name="Fill 105" d="M5.159,5A14.688,14.688,0,0,1,.327,4.25a.616.616,0,0,1-.312-.709c.062-.31.3-.492.539-.41C5.684,4.933,13.378,3,17.344.074a.39.39,0,0,1,.6.221.683.683,0,0,1-.168.788A22.834,22.834,0,0,1,5.159,5" transform="translate(122 36)"/>
    <path id="Fill_107" data-name="Fill 107" d="M.968,16a.2.2,0,0,1-.1-.031A.548.548,0,0,1,.7,15.392,27,27,0,0,0,.032.65.583.583,0,0,1,.155.05C.3-.063.469.022.542.241a28.339,28.339,0,0,1,.694,15.476c-.044.175-.153.284-.267.284" transform="translate(122 38)"/>
    <path id="Fill_109" data-name="Fill 109" d="M.99,16a.257.257,0,0,1-.1-.022.5.5,0,0,1-.216-.572A29.318,29.318,0,0,0,.025.624.522.522,0,0,1,.209.032C.379-.06.574.051.643.284a30.532,30.532,0,0,1,.664,15.4A.362.362,0,0,1,.99,16" transform="translate(120 38)"/>
    <path id="Fill_111" data-name="Fill 111" d="M1.635,7a1.39,1.39,0,0,1-.69-.178A1.8,1.8,0,0,1,.164,5.765,5.033,5.033,0,0,1,.3,2.857,15.674,15.674,0,0,0,.837.416.488.488,0,0,1,1.146.031.455.455,0,0,1,1.31,0a.464.464,0,0,1,.312.122A3.323,3.323,0,0,0,3.828.96a3.027,3.027,0,0,0,.6-.06A.439.439,0,0,1,4.525.89a.473.473,0,0,1,.329.137.507.507,0,0,1,.141.43A10.868,10.868,0,0,1,3.5,5.729a3.218,3.218,0,0,1-.96,1.008A1.758,1.758,0,0,1,1.635,7Zm.015-5.654a16.766,16.766,0,0,1-.437,1.789,4.137,4.137,0,0,0-.145,2.317A.882.882,0,0,0,1.4,5.96a.459.459,0,0,0,.228.053.835.835,0,0,0,.419-.123,2.364,2.364,0,0,0,.661-.719A9.283,9.283,0,0,0,3.942,1.944l-.038,0H3.8a4.233,4.233,0,0,1-2.149-.6h0Z" transform="translate(120 52)"/>
    <path id="Fill_113" data-name="Fill 113" d="M1.3,5a.332.332,0,0,1-.241-.112.543.543,0,0,1-.134-.405,3.765,3.765,0,0,0-.8-2.6A.557.557,0,0,1,0,1.456.479.479,0,0,1,.223,1.1L.432.977A7.11,7.11,0,0,1,2.2.17l.012,0A4.813,4.813,0,0,1,3.312,0,1.5,1.5,0,0,1,4.771.863a2.047,2.047,0,0,1,.14,1.532C4.59,3.429,3.408,4.3,1.4,4.983A.285.285,0,0,1,1.3,5ZM3.312.957a4.32,4.32,0,0,0-.955.149l-.015,0a5.345,5.345,0,0,0-1.337.59,4.881,4.881,0,0,1,.67,2.189C3.091,3.342,4.016,2.67,4.21,2.044a.853.853,0,0,0-.079-.674C4.045,1.192,3.866.957,3.312.957Z" transform="translate(138 34)"/>
    <path id="Fill_115" data-name="Fill 115" d="M1.618,20c-.4,0-.806,0-1.213-.01a.415.415,0,0,1-.4-.424.4.4,0,0,1,.417-.412,87.917,87.917,0,0,0,29.115-4.783c7.249-2.326,17.386-6.324,21.7-14.158a.409.409,0,0,1,.559-.16.424.424,0,0,1,.157.571C47.491,8.716,37.161,12.8,29.779,15.169A89.059,89.059,0,0,1,1.618,20" transform="translate(97 50)"/>
    <path id="Fill_117" data-name="Fill 117" d="M17.6,27a.426.426,0,0,1-.106-.015c-5.9-1.686-11.343-5.471-14.2-9.878C.518,12.825-.511,7.193.236.368A.405.405,0,0,1,.677,0a.412.412,0,0,1,.351.46C.3,7.084,1.288,12.528,3.956,16.642c2.756,4.249,8.025,7.905,13.751,9.54a.418.418,0,0,1,.279.511A.4.4,0,0,1,17.6,27" transform="translate(2 20)"/>
  </g>
</svg>
