<svg id="Group_21" data-name="Group 21" xmlns="http://www.w3.org/2000/svg" xmlns:xlink="http://www.w3.org/1999/xlink" width="176" height="142" viewBox="0 0 176 142">
  <defs>
    <clipPath id="clip-path">
      <path id="Clip_2" data-name="Clip 2" d="M0,0H36.761V48.709H0Z" transform="translate(0 0.175)" fill="none"/>
    </clipPath>
    <clipPath id="clip-path-2">
      <path id="Clip_7" data-name="Clip 7" d="M0,0H157.727V55.981H0Z" transform="translate(0.168 0.019)" fill="none"/>
    </clipPath>
  </defs>
  <g id="Group_3" data-name="Group 3" transform="translate(0 89)">
    <path id="Clip_2-2" data-name="Clip 2" d="M0,0H36.761V48.709H0Z" transform="translate(0 0.175)" fill="none"/>
    <g id="Group_3-2" data-name="Group 3" clip-path="url(#clip-path)">
      <path id="Fill_1" data-name="Fill 1" d="M36.284,48.709a.467.467,0,0,1-.2-.046C26.658,44.31,17.9,42.108,9.307,41.931a.475.475,0,0,1-.433-.3A132.107,132.107,0,0,1,0,5.4a.475.475,0,0,1,.264-.473c3.64-1.78,6.656-3.445,9.2-4.866a.494.494,0,0,1,.467,0,.479.479,0,0,1,.243.4C10.94,21.039,21.521,40.07,36.5,47.813a.475.475,0,0,1-.22.9ZM9.255,1.265C6.973,2.536,4.206,4.048.985,5.63A131.115,131.115,0,0,0,9.643,40.989a63.6,63.6,0,0,1,21.286,4.465A51.141,51.141,0,0,1,15.8,26.774,65.388,65.388,0,0,1,9.255,1.265Z" transform="translate(0 0.175)" fill="#141515"/>
    </g>
  </g>
  <path id="Fill_4" data-name="Fill 4" d="M.468,49a.469.469,0,0,1-.419-.267.48.48,0,0,1,.2-.634C14.951,40.275,25.33,21.131,26.08.461a.482.482,0,0,1,.24-.4A.458.458,0,0,1,26.547,0a.465.465,0,0,1,.233.063c1.983,1.166,5.069,2.942,8.958,4.892A.48.48,0,0,1,36,5.432a135.63,135.63,0,0,1-8.641,36.449.467.467,0,0,1-.425.3c-8.5.178-17.089,2.394-26.266,6.772A.467.467,0,0,1,.468,49ZM26.982,1.283a67.041,67.041,0,0,1-6.418,25.625A51.377,51.377,0,0,1,5.728,45.71,60.8,60.8,0,0,1,26.6,41.234a134.577,134.577,0,0,0,8.431-35.57C32.4,4.34,29.769,2.906,26.982,1.283Z" transform="translate(140 89)" fill="#141515"/>
  <g id="Group_8" data-name="Group 8" transform="translate(9 86)">
    <path id="Clip_7-2" data-name="Clip 7" d="M0,0H157.727V55.981H0Z" transform="translate(0.168 0.019)" fill="none"/>
    <g id="Group_8-2" data-name="Group 8" clip-path="url(#clip-path-2)">
      <path id="Fill_6" data-name="Fill 6" d="M116.235,55.982a34.675,34.675,0,0,1-13.483-2.844,50.007,50.007,0,0,1-13.235-8.444c-2.236-2.46-6.16-3.942-10.5-3.965h-.029c-4.482,0-8.522,1.469-10.808,3.929a50.178,50.178,0,0,1-13.262,8.472A34.641,34.641,0,0,1,41.434,55.98a31.443,31.443,0,0,1-12.62-2.665C12.643,46.271.795,26.063,0,4.172,0,1.546,1.406.147,4.18.012A.4.4,0,0,1,4.244.006a.464.464,0,0,1,.431.446C7.206,36.237,25.44,49.316,41.659,49.622c.2,0,.413.006.639.006H42.3A32.71,32.71,0,0,0,74.759,20.3a.479.479,0,0,1,.322-.4.512.512,0,0,1,.145-.021.475.475,0,0,1,.351.15c.6.64,1.091,1.2,1.49,1.656l.041.047c.822.935,1.416,1.61,1.723,1.61s.9-.675,1.723-1.61c.382-.434.906-1.029,1.533-1.7a.483.483,0,0,1,.353-.15.493.493,0,0,1,.143.021.477.477,0,0,1,.322.4,32.757,32.757,0,0,0,32.47,29.329c.225,0,.453,0,.679-.007,16.2-.32,34.406-13.406,36.936-49.17a.446.446,0,0,1,.4-.453.4.4,0,0,1,.094.012c2.775.135,4.242,1.567,4.242,4.142-.793,21.892-12.652,42.105-28.84,49.155A31.53,31.53,0,0,1,116.235,55.982ZM3.765,1h0A2.772,2.772,0,0,0,.947,4.154c.783,21.531,12.4,41.389,28.246,48.29a30.937,30.937,0,0,0,12.427,2.642c8.69,0,17.406-3.738,25.907-11.111,2.436-2.628,6.689-4.2,11.377-4.2h.122c4.6.028,8.772,1.612,11.152,4.237,8.473,7.345,17.174,11.07,25.864,11.07a31.117,31.117,0,0,0,12.468-2.646c15.864-6.911,27.49-26.773,28.271-48.3,0-1.921-.915-2.919-2.88-3.141a82.7,82.7,0,0,1-4.725,22.9,48.042,48.042,0,0,1-9,15.276,34.693,34.693,0,0,1-11.594,8.579,31.887,31.887,0,0,1-12.509,2.816c-.216.006-.447.009-.685.009A33.527,33.527,0,0,1,103.4,48.387,33.26,33.26,0,0,1,93.3,42.3a33.543,33.543,0,0,1-7.384-9.233,34.217,34.217,0,0,1-3.826-11.64c-.266.3-.51.573-.724.817l-.1.114c-1.132,1.286-1.7,1.931-2.435,1.931s-1.3-.645-2.433-1.93l-.056-.063,0-.005c-.225-.256-.481-.547-.764-.861a34.129,34.129,0,0,1-3.809,11.638A33.474,33.474,0,0,1,64.391,42.3a33.23,33.23,0,0,1-10.1,6.085A33.541,33.541,0,0,1,42.3,50.58c-.205,0-.42,0-.657-.007a31.943,31.943,0,0,1-12.527-2.809,34.7,34.7,0,0,1-11.61-8.576A48.011,48.011,0,0,1,8.495,23.91,82.646,82.646,0,0,1,3.765,1Z" transform="translate(0.168 0.019)" fill="#141515"/>
    </g>
  </g>
  <path id="Fill_9" data-name="Fill 9" d="M38.584,82c-.236,0-.451,0-.658-.006C21.282,81.679,2.578,68.417,0,32.142a.472.472,0,0,1,.278-.462C13.544,25.719,20.489,15.215,20.923.46A.472.472,0,0,1,21.4,0h6.132A.474.474,0,0,1,28,.473c0,10.1,4.731,16.507,14.463,19.591,8.63,4.085,19.781,11.371,29.489,31.628a.475.475,0,0,1,.044.256,33.988,33.988,0,0,1-3.6,11.969A33.442,33.442,0,0,1,38.584,82ZM21.855.947C21.286,15.739,14.259,26.322.97,32.4,3.59,67.8,21.787,80.741,37.943,81.047c.255,0,.458.006.64.006A32.692,32.692,0,0,0,71.04,51.979c-9.563-19.89-20.48-27.035-28.922-31.037C32.277,17.828,27.211,11.1,27.058.947Z" transform="translate(13 54)" fill="#141515"/>
  <path id="Fill_11" data-name="Fill 11" d="M33.44,82A33.48,33.48,0,0,1,3.615,63.919,34.066,34.066,0,0,1,0,51.948a.454.454,0,0,1,.045-.256C9.8,31.476,20.9,24.183,29.475,20.088,39.307,16.988,44.057,10.573,44,.475a.464.464,0,0,1,.137-.334A.465.465,0,0,1,44.471,0H50.6a.472.472,0,0,1,.473.458c.5,14.756,7.443,25.261,20.646,31.222a.468.468,0,0,1,.277.462C69.423,68.4,50.745,81.663,34.124,81.991,33.927,82,33.716,82,33.44,82ZM44.944.947h0C44.852,11.1,39.764,17.835,29.822,20.965c-8.39,4.01-19.253,11.159-28.86,31.013A32.725,32.725,0,0,0,33.4,81.054c.236,0,.464,0,.7-.007C50.238,80.728,68.41,67.781,71.03,32.4,57.8,26.32,50.778,15.737,50.146.947h-5.2Z" transform="translate(91 54)" fill="#141515"/>
  <path id="Fill_13" data-name="Fill 13" d="M8.531,9H.469a.458.458,0,0,1-.364-.184A.514.514,0,0,1,.01,8.4,45.207,45.207,0,0,0,.875.485.484.484,0,0,1,1.343,0H7.406a.484.484,0,0,1,.469.5,25.82,25.82,0,0,0,1.1,7.849.523.523,0,0,1-.065.447A.463.463,0,0,1,8.531,9ZM1.8.994a46.11,46.11,0,0,1-.756,7.013H7.892A26.938,26.938,0,0,1,6.942.994Z" transform="translate(33 54)" fill="#141515"/>
  <path id="Fill_15" data-name="Fill 15" d="M8.528,9H.473a.466.466,0,0,1-.38-.2.514.514,0,0,1-.072-.44A28.164,28.164,0,0,0,1.07.5.485.485,0,0,1,1.542,0H7.647a.484.484,0,0,1,.472.474A51.459,51.459,0,0,0,8.99,8.4a.514.514,0,0,1-.1.415A.464.464,0,0,1,8.528,9ZM2.011.994A29.463,29.463,0,0,1,1.1,8.006H7.952A52.783,52.783,0,0,1,7.2.994H2.011Z" transform="translate(134 54)" fill="#141515"/>
  <path id="Fill_17" data-name="Fill 17" d="M110.008,55H103.9a.47.47,0,0,1-.472-.465l-.883-40.79a.476.476,0,0,1,.472-.488H111.9a.475.475,0,0,1,.342.148.481.481,0,0,1,.13.35l-1.89,40.79A.474.474,0,0,1,110.008,55ZM103.5,14.21h0l.861,39.837h5.2L111.4,14.21h-7.9ZM9.039,55H2.929a.473.473,0,0,1-.472-.455L.631,13.756a.477.477,0,0,1,.472-.5H9.921a.475.475,0,0,1,.472.488L9.51,54.535A.476.476,0,0,1,9.039,55ZM1.6,14.21h0L3.38,54.047h5.2L9.437,14.21H1.6ZM112.4,3.743h-9.511a.535.535,0,0,1-.535-.465L102.293.487A.475.475,0,0,1,102.765,0h9.763a.471.471,0,0,1,.341.148A.475.475,0,0,1,113,.5l-.126,2.791A.473.473,0,0,1,112.4,3.743ZM103.248.953l.041,1.838h8.662l.082-1.838ZM10.172,3.743H.6a.474.474,0,0,1-.472-.454L0,.5A.477.477,0,0,1,.472,0h9.763a.475.475,0,0,1,.472.487l-.063,2.791A.476.476,0,0,1,10.172,3.743ZM.967.953l.082,1.838H9.71L9.752.953H.967Z" transform="translate(32)" fill="#141515"/>
  <path id="Fill_19" data-name="Fill 19" d="M113.641,11h-9.547a1.418,1.418,0,0,1-1.422-1.375V1.313A1.372,1.372,0,0,1,104.094,0h9.547A1.322,1.322,0,0,1,115,1.313V9.625A1.369,1.369,0,0,1,113.641,11ZM104.094.918a.443.443,0,0,0-.474.4V9.625a.491.491,0,0,0,.474.457h9.547a.438.438,0,0,0,.411-.457V1.313a.382.382,0,0,0-.411-.4ZM10.967,11H1.421A1.417,1.417,0,0,1,0,9.625V1.313A1.372,1.372,0,0,1,1.421,0h9.546a1.372,1.372,0,0,1,1.422,1.313V9.625A1.418,1.418,0,0,1,10.967,11ZM1.421.918a.443.443,0,0,0-.473.4V9.625a.49.49,0,0,0,.473.457h9.546a.491.491,0,0,0,.475-.457V1.313a.444.444,0,0,0-.475-.4Z" transform="translate(30 3)" fill="#141515"/>
</svg>
