<svg id="Group_60" data-name="Group 60" xmlns="http://www.w3.org/2000/svg" xmlns:xlink="http://www.w3.org/1999/xlink" width="182.607" height="177" viewBox="0 0 182.607 177">
  <defs>
    <clipPath id="clip-path">
      <path id="Clip_8" data-name="Clip 8" d="M0,0H60V135.083H0Z" transform="translate(0 0.429)" fill="none"/>
    </clipPath>
    <clipPath id="clip-path-2">
      <path id="Clip_11" data-name="Clip 11" d="M0,0H62.17V136.15H0Z" transform="translate(0.434 0.472)" fill="none"/>
    </clipPath>
    <clipPath id="clip-path-3">
      <path id="Clip_22" data-name="Clip 22" d="M0,0H19.162V8.831H0Z" transform="translate(0.445 0.128)" fill="none"/>
    </clipPath>
  </defs>
  <path id="Fill_1" data-name="Fill 1" d="M24.431,9c-.3,0-.6-.009-.915-.028a20.215,20.215,0,0,1-7.45-1.505A13.855,13.855,0,0,1,12.61,5.076c-.074-.067-.138-.12-.193-.166-.417-.347-.533-.56-.5-1.3l.009-.156c.036-.584.007-.927-.086-1.02C10.8,1.4,8.631.9,6.048,1.08,3.557,1.258,1.718,2,1.252,2.6a1.618,1.618,0,0,0-.244,1.227c0,.122.009.249.01.382a.512.512,0,0,1-.494.529H.519a.512.512,0,0,1-.5-.517c0-.123-.005-.242-.009-.354A2.655,2.655,0,0,1,.473,1.946C1.326.838,3.854.19,5.98.038c1.37-.1,4.754-.135,6.549,1.636a2.422,2.422,0,0,1,.4,1.849l-.008.14a1.452,1.452,0,0,0,0,.342c0-.011.065.044.118.088s.138.115.225.193a12.725,12.725,0,0,0,3.208,2.226,19.4,19.4,0,0,0,7.1,1.417A11.109,11.109,0,0,0,33.13,3.866a.486.486,0,0,1,.706-.036.54.54,0,0,1,.034.738A11.952,11.952,0,0,1,24.431,9" transform="translate(79 168)"/>
  <path id="Fill_3" data-name="Fill 3" d="M30.8,5A150.976,150.976,0,0,1,.4,1.913a.51.51,0,0,1-.389-.6A.5.5,0,0,1,.6.914c21.05,4.4,44.9,4.045,60.758-.891a.5.5,0,0,1,.622.34A.512.512,0,0,1,61.646,1C53.1,3.658,42.268,5,30.8,5" transform="translate(59 2)"/>
  <path id="Fill_5" data-name="Fill 5" d="M29.438,15c-4.369,0-8.743-.183-13.081-.552A141.86,141.86,0,0,1,.4,12.191a.49.49,0,0,1-.4-.535A56.838,56.838,0,0,0,.312,1.97C.3,1.777.283,1.581.263,1.391A.492.492,0,0,1,.712.857a.5.5,0,0,1,.549.437c.021.2.036.4.051.608a57.852,57.852,0,0,1-.262,9.423,141.245,141.245,0,0,0,15.388,2.151,151.441,151.441,0,0,0,41.42-2.144c1.38-.27,2.755-.563,4.093-.87a41.526,41.526,0,0,1-.287-9.437c.015-.187.036-.389.062-.6a.5.5,0,0,1,.995.118q-.035.289-.058.563A42.067,42.067,0,0,0,63,10.78a.485.485,0,0,1-.279.494.634.634,0,0,1-.086.033.656.656,0,0,1-.081.02c-1.465.341-2.977.665-4.5.963A149.542,149.542,0,0,1,29.438,15" transform="translate(59 2)"/>
  <g id="Group_9" data-name="Group 9" transform="translate(0 12)">
    <path id="Clip_8-2" data-name="Clip 8" d="M0,0H60V135.083H0Z" transform="translate(0 0.429)" fill="none"/>
    <g id="Group_9-2" data-name="Group 9" clip-path="url(#clip-path)">
      <path id="Fill_7" data-name="Fill 7" d="M.5,135.083a.494.494,0,0,1-.22-.052.5.5,0,0,1-.228-.671c2.463-5.033,4.784-9.653,7.03-14.121,8.978-17.866,16.069-31.978,22.6-53.335.91-2.975,1.816-6.041,2.693-9,6.1-20.623,12.4-41.948,26.757-57.736a.5.5,0,0,1,.739.676C45.673,16.459,39.4,37.672,33.334,58.186c-.877,2.967-1.784,6.034-2.7,9.014-6.558,21.438-13.666,35.583-22.665,53.492-2.244,4.466-4.564,9.083-7.024,14.11a.5.5,0,0,1-.449.281" transform="translate(0 0.429)"/>
    </g>
  </g>
  <g id="Group_12" data-name="Group 12" transform="translate(120 12)">
    <path id="Clip_11-2" data-name="Clip 11" d="M0,0H62.17V136.15H0Z" transform="translate(0.434 0.472)" fill="none"/>
    <g id="Group_12-2" data-name="Group 12" clip-path="url(#clip-path-2)">
      <path id="Fill_10" data-name="Fill 10" d="M61.667,136.15a.5.5,0,0,1-.453-.28c-7.431-15.007-17.732-37.24-24.6-57.924l-.68-2.051C27.355,50.059,13,6.817.292.954A.5.5,0,0,1,.047.29.5.5,0,0,1,.716.047C13.825,6.093,27.7,47.91,36.888,75.582l.681,2.051c6.853,20.63,17.133,42.817,24.55,57.8a.5.5,0,0,1-.23.669.5.5,0,0,1-.222.051" transform="translate(0.434 0.472)"/>
    </g>
  </g>
  <path id="Fill_13" data-name="Fill 13" d="M16.38,10C10.136,10,4.544,6.862.1.83A.528.528,0,0,1,.2.105.492.492,0,0,1,.9.2c4.727,6.418,10.79,9.408,17.542,8.642a.518.518,0,0,1,.109,1.029A19.342,19.342,0,0,1,16.38,10" transform="translate(0 146)"/>
  <path id="Fill_15" data-name="Fill 15" d="M48.684,21,48.3,21c-4.765-.032-10.955-1.8-13.041-5a2.419,2.419,0,0,1-.3-1.975l.283-1a12.277,12.277,0,0,0-6.956-3.324,10.76,10.76,0,0,0-6.837,1.324,1.366,1.366,0,0,0-.574.7c-.088.226-.14.371-.305.908a.5.5,0,0,1-.312.327c-3.272,1.16-7.582,2.254-11.9.4C3.168,11.131.449,8.865.035,6.426c-.184-1.085.391-2.367,1-3.723A16.281,16.281,0,0,0,1.947.373.5.5,0,0,1,2.558.017.509.509,0,0,1,2.908.64a17.1,17.1,0,0,1-.967,2.485,6.853,6.853,0,0,0-.925,3.128c.347,2.043,2.943,4.117,7.718,6.163,3.909,1.676,7.882.726,10.955-.342.111-.354.168-.513.253-.733a2.374,2.374,0,0,1,1.011-1.209,11.733,11.733,0,0,1,7.464-1.445,13.1,13.1,0,0,1,7.748,3.862.514.514,0,0,1,.1.475l-.36,1.278a1.389,1.389,0,0,0,.176,1.134c1.827,2.807,7.647,4.518,12.218,4.549,5.93.052,10.368-.837,13.969-2.761a.491.491,0,0,1,.672.214.512.512,0,0,1-.21.684C59.063,20.082,54.59,21,48.684,21" transform="translate(16 155)"/>
  <path id="Fill_17" data-name="Fill 17" d="M5.053,12A14.643,14.643,0,0,1,1.5,11.6a1.049,1.049,0,0,1-.67-.786c-.018-.053-.034-.108-.057-.183a4.167,4.167,0,0,0-.607-1.51A.5.5,0,0,1,.139,8.4a.52.52,0,0,1,.728-.023,4.923,4.923,0,0,1,.89,1.967l.037.121c.02.058.042.126.062.173,4.121.991,9.909-.318,12.945-2.119a4.7,4.7,0,0,0,2.145-2.11A59.9,59.9,0,0,1,15.268.62a.508.508,0,0,1,.39-.607A.514.514,0,0,1,16.273.4a58.936,58.936,0,0,0,1.7,5.829.5.5,0,0,1,.014.289A5.24,5.24,0,0,1,15.33,9.39,21.807,21.807,0,0,1,5.053,12" transform="translate(148 154)"/>
  <path id="Fill_19" data-name="Fill 19" d="M19.517,11A7.973,7.973,0,0,1,15.3,9.922,1.813,1.813,0,0,1,14.521,8l0-.057c0-.078.013-.16.022-.243a1.3,1.3,0,0,0,.012-.346c-1.1-1-3.413-1.538-6.159-1.415C5.291,6.08,2.447,7.044,1.051,8.415A4.408,4.408,0,0,1,1,9.652a.5.5,0,0,1-.995-.169A3.133,3.133,0,0,0,.019,8.345.506.506,0,0,1,.14,7.906c1.82-2,5.436-2.848,8.213-2.974,3.011-.138,5.592.5,6.91,1.711a1.282,1.282,0,0,1,.286,1.168c-.007.063-.015.126-.018.185l0,.058c-.033.616-.028.8.309,1.016a7.543,7.543,0,0,0,4.783.858,7.118,7.118,0,0,0,5.9-3.993c-.027-.166-.068-.351-.11-.545a4.346,4.346,0,0,1-.149-1.665,2.231,2.231,0,0,1,1.123-1.31c.071-.048.14-.1.206-.142a12.126,12.126,0,0,1,3.072-1.6A15.816,15.816,0,0,1,37.547.134.5.5,0,0,1,38,.687a.509.509,0,0,1-.553.45A14.841,14.841,0,0,0,31,1.624a11.129,11.129,0,0,0-2.816,1.47c-.072.051-.148.1-.226.156-.292.2-.655.443-.7.663a3.71,3.71,0,0,0,.144,1.26c.057.258.116.524.144.769a.5.5,0,0,1-.033.245,8.083,8.083,0,0,1-6.776,4.741,10.772,10.772,0,0,1-1.218.07" transform="translate(112 163)"/>
  <g id="Group_23" data-name="Group 23" transform="translate(163 147)">
    <path id="Clip_22-2" data-name="Clip 22" d="M0,0H19.162V8.831H0Z" transform="translate(0.445 0.128)" fill="none"/>
    <g id="Group_23-2" data-name="Group 23" clip-path="url(#clip-path-3)">
      <path id="Fill_21" data-name="Fill 21" d="M2.8,8.831A18.585,18.585,0,0,1,.44,8.682.525.525,0,0,1,0,8.092.513.513,0,0,1,.56,7.63,19.852,19.852,0,0,0,18.278.19a.481.481,0,0,1,.7-.067.551.551,0,0,1,.063.745A21.045,21.045,0,0,1,2.8,8.831" transform="translate(0.445 0.128)"/>
    </g>
  </g>
  <path id="Fill_24" data-name="Fill 24" d="M22.7,75a.3.3,0,0,1-.282-.205C20.468,68.908,2.133,7.548.013.386a.3.3,0,0,1,.2-.374.3.3,0,0,1,.37.2C2.7,7.375,21.034,68.722,22.985,74.6a.3.3,0,0,1-.188.38A.309.309,0,0,1,22.7,75" transform="translate(141 80)"/>
  <path id="Fill_26" data-name="Fill 26" d="M.307,66a.339.339,0,0,1-.093-.014.3.3,0,0,1-.2-.375c.465-1.422,1.434-4.125,2.773-7.866C7.58,44.368,16.5,19.469,21.394.228A.306.306,0,0,1,21.767.01a.3.3,0,0,1,.224.361C17.089,19.639,8.163,44.555,3.369,57.941,2.03,61.678,1.063,64.377.6,65.792A.307.307,0,0,1,.307,66" transform="translate(18 90)"/>
  <path id="Fill_28" data-name="Fill 28" d="M.305,97a.334.334,0,0,1-.093-.014.3.3,0,0,1-.2-.376c9.956-30.751,13.246-51.469,18.7-85.792.537-3.379,1.095-6.893,1.682-10.564A.3.3,0,0,1,20.742,0,.3.3,0,0,1,21,.346c-.588,3.671-1.146,7.185-1.682,10.563C13.859,45.262,10.567,66,.6,96.791A.306.306,0,0,1,.305,97" transform="translate(36 69)"/>
  <path id="Fill_30" data-name="Fill 30" d="M.3,84a.3.3,0,0,1-.075-.01.3.3,0,0,1-.212-.364c.8-3.119,1.581-6.123,2.336-9.036C9.255,47.946,14.246,28.7,16.409.276A.3.3,0,1,1,17,.322C14.833,28.795,9.835,48.067,2.918,74.742c-.755,2.912-1.534,5.916-2.336,9.034A.3.3,0,0,1,.3,84" transform="translate(52 84)"/>
  <path id="Fill_32" data-name="Fill 32" d="M.315,101h0a.307.307,0,0,1-.31-.3C.264,84.678,1.34,71.257,2.38,58.279,3.966,38.5,5.336,21.411,3.469.325A.315.315,0,0,1,4.1.275c1.871,21.134.5,38.241-1.088,58.05C1.968,71.294.893,84.706.63,100.7a.308.308,0,0,1-.315.3" transform="translate(91 69)"/>
  <path id="Fill_34" data-name="Fill 34" d="M8.706,71a.3.3,0,0,1-.292-.27C7.5,61.008,6.06,50.288,4.54,38.938,2.789,25.869.978,12.355,0,.324A.3.3,0,0,1,.27,0,.292.292,0,0,1,.587.275C1.563,12.29,3.372,25.8,5.122,38.858,6.643,50.213,8.08,60.939,9,70.673A.3.3,0,0,1,8.734,71H8.706" transform="translate(103 100)"/>
  <path id="Fill_36" data-name="Fill 36" d="M14.694,87a.3.3,0,0,1-.3-.247l-.693-3.74C9.729,61.618,4.292,32.318,0,.34A.3.3,0,0,1,.266,0,.3.3,0,0,1,.608.262C4.9,32.224,10.332,61.517,14.3,82.9L15,86.645a.3.3,0,0,1-.246.349.293.293,0,0,1-.055.006" transform="translate(112 83)"/>
  <path id="Fill_38" data-name="Fill 38" d="M21.7,102a.3.3,0,0,1-.3-.245C10.643,43.763.659,2.625.039.481A.294.294,0,0,1,.005.388.33.33,0,0,1,.243.009C.36-.011.436-.025.56.276L.6.273a.3.3,0,0,1,0,.094c.242.657.667,2.45,1.8,7.225,1,4.228,2.636,11.255,4.732,20.726,3.569,16.126,9.046,41.939,14.87,73.328a.3.3,0,0,1-.241.349A.29.29,0,0,1,21.7,102" transform="translate(116 64)"/>
  <path id="Fill_40" data-name="Fill 40" d="M15.7,73a.3.3,0,0,1-.289-.243c-.227-1.163-.559-3.282-1.018-6.215C12.295,53.1,7.919,25.134.015.4A.3.3,0,0,1,.2.016.292.292,0,0,1,.575.208c7.918,24.783,12.3,52.784,14.405,66.239.458,2.926.789,5.04,1.014,6.192a.3.3,0,0,1-.231.354A.253.253,0,0,1,15.7,73" transform="translate(133 91)"/>
  <path id="Fill_42" data-name="Fill 42" d="M.3,33a.305.305,0,0,1-.086-.013.3.3,0,0,1-.2-.374C3.092,22.334,11.386,1.513,15.607.016A.3.3,0,0,1,15.983.2.3.3,0,0,1,15.8.583C11.931,1.955,3.745,22.213.578,32.787A.3.3,0,0,1,.3,33" transform="translate(49 14)"/>
  <path id="Fill_44" data-name="Fill 44" d="M17.7,46a.3.3,0,0,1-.283-.211C12.353,29.3,4.7,4.377.108.532A.3.3,0,0,1,.068.109.3.3,0,0,1,.485.068C4.848,3.725,11.253,23.7,17.987,45.61A.3.3,0,0,1,17.7,46" transform="translate(117 13)"/>
  <path id="Fill_46" data-name="Fill 46" d="M.289,15H.262A.3.3,0,0,1,0,14.677C.012,14.554,1.262,2.336,4.333.3A1.593,1.593,0,0,1,5.8.1a.3.3,0,0,1,.18.376.286.286,0,0,1-.367.184A1.043,1.043,0,0,0,4.647.8C2.2,2.418.794,12.358.577,14.732A.292.292,0,0,1,.289,15" transform="translate(70 15)"/>
  <path id="Fill_48" data-name="Fill 48" d="M4.679,19a.312.312,0,0,1-.318-.256L2.663,6.592C2.338,4.265,1.848,1.686.131.53A.278.278,0,0,1,.062.12.341.341,0,0,1,.511.057C2.432,1.351,2.958,4.07,3.3,6.517L5,18.669A.3.3,0,0,1,4.72,19a.3.3,0,0,1-.041,0" transform="translate(103 16)"/>
  <path id="Fill_50" data-name="Fill 50" d="M.7,72h0a.281.281,0,0,1-.248-.3c.123-9.3-.034-19.55-.2-30.4C.039,27.283-.183,12.792.24.288A.287.287,0,0,1,.5,0,.284.284,0,0,1,.744.312C.322,12.8.543,27.28.757,41.285c.166,10.856.322,21.109.2,30.42A.278.278,0,0,1,.7,72" transform="translate(79 98)"/>
  <path id="Fill_52" data-name="Fill 52" d="M.306,50H.3a.3.3,0,0,1-.3-.307C.666,19.635,2.51,2.944,5.481.086a.309.309,0,0,1,.432,0,.3.3,0,0,1-.005.425C3.1,3.222,1.264,20.231.611,49.706A.3.3,0,0,1,.306,50" transform="translate(80 16)"/>
  <path id="Fill_54" data-name="Fill 54" d="M7.7,27a.3.3,0,0,1-.3-.238C7.083,25.23,6.056,20.5,5.062,15.935S3.034,6.614,2.713,5.076a11.68,11.68,0,0,0-.77-2.637A3.754,3.754,0,0,0,.178.57.3.3,0,0,1,.027.176a.3.3,0,0,1,.4-.149A4.343,4.343,0,0,1,2.49,2.186,12.082,12.082,0,0,1,3.3,4.956c.319,1.535,1.35,6.272,2.347,10.854s2.022,9.3,2.342,10.831a.3.3,0,0,1-.234.352A.326.326,0,0,1,7.7,27" transform="translate(111 15)"/>
  <path id="Fill_56" data-name="Fill 56" d="M1.755,29a.274.274,0,0,1-.245-.3l-.02-16.265C1.487,8.658,1.315,3.876.022.42A.325.325,0,0,1,.143.027.228.228,0,0,1,.467.174C1.8,3.734,1.976,8.6,1.98,12.438L2,28.7a.275.275,0,0,1-.244.3Z" transform="translate(93 16)"/>
  <path id="Fill_58" data-name="Fill 58" d="M.5,3A.483.483,0,0,1,0,2.6.463.463,0,0,1,.435,2.1,281.16,281.16,0,0,1,61.558,1.3.464.464,0,0,1,62,1.8a.486.486,0,0,1-.55.4A280.068,280.068,0,0,0,.56,3,.607.607,0,0,1,.5,3" transform="translate(59)"/>
</svg>
