<svg id="Group_38" data-name="Group 38" xmlns="http://www.w3.org/2000/svg" xmlns:xlink="http://www.w3.org/1999/xlink" width="108.857" height="215" viewBox="0 0 108.857 215">
  <defs>
    <clipPath id="clip-path">
      <path id="Clip_12" data-name="Clip 12" d="M0,0H37.63V132.657H0Z" transform="translate(0.226 0.263)" fill="none"/>
    </clipPath>
  </defs>
  <path id="Fill_1" data-name="Fill 1" d="M4.78,2A26.01,26.01,0,0,1,.16,1.6.173.173,0,0,1,0,1.44L.083.152A.148.148,0,0,1,.155.039.246.246,0,0,1,.292,0H.311c2.079.166,3.764.244,5.3.244a35.983,35.983,0,0,0,4.1-.216l.03,0a.25.25,0,0,1,.133.037.149.149,0,0,1,.075.118L10,1.471a.178.178,0,0,1-.172.162A38.365,38.365,0,0,1,4.78,2ZM.486.335h0l-.063.987a25.424,25.424,0,0,0,4.336.362,37.659,37.659,0,0,0,4.82-.343L9.541.369A36.763,36.763,0,0,1,5.614.563C4.114.563,2.485.491.486.335Z" transform="translate(50 7)"/>
  <path id="Fill_3" data-name="Fill 3" d="M17.058,4A43,43,0,0,1,.2.635.329.329,0,0,1,.028.2.341.341,0,0,1,.474.028c10.394,4.414,22.492,4.412,34.064,0a.342.342,0,0,1,.439.188.329.329,0,0,1-.192.429A49.753,49.753,0,0,1,17.058,4" transform="translate(38)"/>
  <path id="Fill_5" data-name="Fill 5" d="M17.378,16a17.681,17.681,0,0,1-8.169-1.976A17.411,17.411,0,0,1,0,.514.335.335,0,0,1,.3.148a.34.34,0,0,1,.371.3,16.964,16.964,0,0,0,8.85,12.987,17.424,17.424,0,0,0,15.867-.083A17.075,17.075,0,0,0,34.324.3.338.338,0,0,1,35,.363a17.757,17.757,0,0,1-9.283,13.574A17.7,17.7,0,0,1,17.378,16" transform="translate(38)"/>
  <path id="Fill_7" data-name="Fill 7" d="M37.594,187a146.694,146.694,0,0,1-29.509-3.159.331.331,0,0,1-.268-.318A194.717,194.717,0,0,0,4.211,146.81c-.817-4.569-1.589-8.885-2.166-14.022q-.207-1.842-.409-3.589C.314,117.675-.729,108.572.654,96.209,1.96,84.529,6.5,74.6,11.3,64.081c.987-2.162,2.009-4.4,3-6.64,1.436-3.265,1.774-6.952,1.062-11.6-.335-2.191-.805-4.4-1.26-6.539-.146-.689-.293-1.377-.435-2.066-.792-3.831-1.983-7.635-3.136-11.314C9.5,22.646,8.442,19.261,7.664,15.863A38.685,38.685,0,0,1,6.727,4.489a25.48,25.48,0,0,1,.586-4.1.336.336,0,0,1,.4-.257.329.329,0,0,1,.263.387A24.938,24.938,0,0,0,7.4,4.534a38.05,38.05,0,0,0,.923,11.185c.772,3.373,1.828,6.745,2.849,10.006,1.157,3.694,2.354,7.514,3.152,11.376q.213,1.032.434,2.062c.456,2.146.928,4.366,1.266,6.576.731,4.778.379,8.579-1.11,11.961-.988,2.246-2.011,4.484-3,6.648C7.134,74.816,2.618,84.7,1.323,96.281c-1.375,12.291-.335,21.362.981,32.846q.2,1.75.409,3.59c.575,5.116,1.345,9.421,2.16,13.98A195.072,195.072,0,0,1,8.487,183.25c19.343,3.9,36.131,4.1,54.35.638.025-16.631,2.361-27.944,4.621-38.886a187.325,187.325,0,0,0,3.318-19.6c.12-1.182.237-2.316.351-3.41,1.094-10.548,1.816-17.517.456-28.934C70.267,82.019,63.694,68.368,58.412,57.4l-.322-.668a18.185,18.185,0,0,1-1.584-10.978A132.3,132.3,0,0,1,61.83,23.971c2.136-6.755,3.824-12.092,3.3-19.424A33.856,33.856,0,0,0,64.64.388.329.329,0,0,1,64.91.006.334.334,0,0,1,65.3.27a34.494,34.494,0,0,1,.5,4.24c.53,7.446-1.173,12.833-3.331,19.655a131.719,131.719,0,0,0-5.3,21.685A17.561,17.561,0,0,0,58.7,56.45l.322.669c5.3,11.012,11.9,24.717,13.231,35.862,1.369,11.488.644,18.485-.455,29.076-.113,1.094-.231,2.227-.35,3.409a187.758,187.758,0,0,1-3.329,19.666c-2.265,10.97-4.608,22.314-4.608,39.027a.331.331,0,0,1-.272.323A134.748,134.748,0,0,1,37.594,187" transform="translate(18 28)"/>
  <path id="Fill_9" data-name="Fill 9" d="M6.382,132a.349.349,0,0,1-.151-.034c-3.167-1.507-4.038-1.354-5.62-1.076l-.21.037a.348.348,0,0,1-.28-.072A.323.323,0,0,1,0,130.6a10.221,10.221,0,0,1,.065-1.76c.016-.087.053-.4.115-1.515a233.338,233.338,0,0,1,4-30.684c.626-3.324,1.295-6.7,1.942-9.958q.535-2.7,1.065-5.4c.083-.425.17-.85.256-1.275.193-.951.393-1.934.55-2.9a3.108,3.108,0,0,0-.076-1.333,5.468,5.468,0,0,1-.141-.883,4.226,4.226,0,0,1,.664-2.3,2.731,2.731,0,0,0,.416-2.439c-.431-1.137-.371-2,.179-2.552a2.629,2.629,0,0,1,.365-.295,1.418,1.418,0,0,0,.338-.294,5.854,5.854,0,0,0-.125-2.5,9.657,9.657,0,0,1-.181-1.48c.016-.925.042-1.849.068-2.773.03-1.078.061-2.193.076-3.288.02-1.546.03-3.093.04-4.639.017-2.561.034-5.21.1-7.815.146-5.9.506-11.166,1.1-16.1.166-1.38.4-2.772.622-4.118.22-1.319.447-2.682.611-4.025a14.867,14.867,0,0,0,.079-1.485,9.034,9.034,0,0,1,.321-2.667,8.339,8.339,0,0,1,.715-1.5,5.779,5.779,0,0,0,.781-1.86c.039-.232.069-.465.1-.7a6.088,6.088,0,0,1,.546-2.142,15.332,15.332,0,0,1,4.683-4.651C22.218,3.156,25.8,2.32,28.936,1.7,32.738.954,35.63.446,38.607,0A.34.34,0,0,1,39,.279a.331.331,0,0,1-.286.376c-2.965.44-5.847.947-9.638,1.695S22.228,3.97,19.682,5.8A14.776,14.776,0,0,0,15.2,10.226a5.52,5.52,0,0,0-.477,1.924c-.031.243-.061.486-.1.726a6.352,6.352,0,0,1-.855,2.068,7.743,7.743,0,0,0-.663,1.38,8.436,8.436,0,0,0-.29,2.481,15.3,15.3,0,0,1-.083,1.55c-.165,1.357-.394,2.727-.615,4.053s-.454,2.723-.619,4.089c-.592,4.909-.951,10.154-1.1,16.035-.066,2.6-.083,5.245-.1,7.8-.01,1.548-.02,3.1-.04,4.644-.015,1.1-.046,2.217-.076,3.3-.026.922-.052,1.844-.068,2.766a9.637,9.637,0,0,0,.172,1.365c.236,1.421.375,2.466.016,2.977a1.974,1.974,0,0,1-.5.454,2.051,2.051,0,0,0-.276.219c-.442.448-.261,1.264-.032,1.871A3.314,3.314,0,0,1,9.05,72.89a3.673,3.673,0,0,0-.592,1.963,4.868,4.868,0,0,0,.127.786,3.726,3.726,0,0,1,.083,1.573c-.159.98-.36,1.97-.555,2.927-.086.424-.172.847-.255,1.271q-.528,2.7-1.065,5.4c-.646,3.26-1.315,6.631-1.94,9.952a232.738,232.738,0,0,0-3.991,30.6,8.4,8.4,0,0,1-.169,1.757c0,.138-.005.464-.008,1.09,1.5-.26,2.533-.364,5.489,1,1.287-4.032,2.308-7.1,3.133-9.58a177.282,177.282,0,0,0,5.035-17.255c.426-1.75.876-3.489,1.311-5.169a121.412,121.412,0,0,0,4.283-23.513c.02-.28.047-.563.075-.849a11.46,11.46,0,0,0,.065-2.4,2.221,2.221,0,0,0-.169-.576,1.821,1.821,0,0,1-.062-1.483c.063-.173.136-.345.21-.516a2.28,2.28,0,0,0,.212-2.033c-.026-.093-.052-.185-.074-.278a5.529,5.529,0,0,1,.4-3.482c.063-.18.128-.364.191-.555a13.6,13.6,0,0,0,.5-3.071c.028-.327.056-.653.091-.975.346-3.231.7-6.221,1.093-9.141.871-6.523,1.763-11.764,2.808-16.494a.342.342,0,0,1,.4-.254.33.33,0,0,1,.263.391c-1.04,4.712-1.93,9.937-2.8,16.441-.389,2.914-.746,5.9-1.091,9.124-.034.318-.062.639-.089.962a14.049,14.049,0,0,1-.529,3.217c-.064.195-.13.382-.194.566a4.962,4.962,0,0,0-.383,3.117c.022.087.046.174.07.262a2.876,2.876,0,0,1-.241,2.455c-.069.161-.138.322-.2.484a1.2,1.2,0,0,0,.057,1.028,2.813,2.813,0,0,1,.209.735,11.92,11.92,0,0,1-.064,2.539c-.027.28-.054.559-.073.833a121.941,121.941,0,0,1-4.3,23.628c-.434,1.679-.883,3.414-1.308,5.16a177.806,177.806,0,0,1-5.049,17.306c-.85,2.553-1.907,5.73-3.247,9.94a.334.334,0,0,1-.191.206.348.348,0,0,1-.135.027" transform="translate(0 1)"/>
  <g id="Group_13" data-name="Group 13" transform="translate(71)">
    <path id="Clip_12-2" data-name="Clip 12" d="M0,0H37.63V132.657H0Z" transform="translate(0.226 0.263)" fill="none"/>
    <g id="Group_13-2" data-name="Group 13" clip-path="url(#clip-path)">
      <path id="Fill_11" data-name="Fill 11" d="M31.285,132.657a.343.343,0,0,1-.134-.027.334.334,0,0,1-.19-.206c-1.333-4.229-2.385-7.42-3.229-9.984a179.933,179.933,0,0,1-5.02-17.381c-.423-1.753-.869-3.5-1.3-5.183a123.6,123.6,0,0,1-4.278-23.731c-.043-.605-.155-1.281-.265-1.935a15.2,15.2,0,0,1-.3-2.8,2.968,2.968,0,0,1,.148-.79,1.316,1.316,0,0,0,.055-.849.837.837,0,0,0-.289-.308,1.285,1.285,0,0,1-.569-.821,8.071,8.071,0,0,1,.1-2.051,9.561,9.561,0,0,0,.121-1.76c-.077-1.174-.221-2.371-.36-3.528-.047-.388-.094-.776-.138-1.165-.374-3.267-.783-6.5-1.216-9.6-1-7.136-1.938-12.589-3.051-17.679a.331.331,0,0,1,.261-.393.337.337,0,0,1,.4.254c1.117,5.107,2.06,10.574,3.06,17.728.434,3.105.844,6.339,1.218,9.613q.067.579.137,1.16c.14,1.166.285,2.371.363,3.563a10.034,10.034,0,0,1-.125,1.884,7.524,7.524,0,0,0-.1,1.88c.02.144.138.246.329.4a1.329,1.329,0,0,1,.506.629,1.941,1.941,0,0,1-.053,1.219,2.374,2.374,0,0,0-.122.627,14.718,14.718,0,0,0,.288,2.671c.112.669.227,1.36.272,2a123.07,123.07,0,0,0,4.259,23.615c.432,1.688.879,3.434,1.3,5.192a179.507,179.507,0,0,0,5.006,17.33c.82,2.491,1.836,5.572,3.115,9.623,2.94-1.368,3.969-1.264,5.457-1,0-.629,0-.957-.008-1.1A8.52,8.52,0,0,1,36.774,128c-.8-14.742-3.148-26.71-5.867-40.568-.62-3.162-1.261-6.43-1.9-9.8-.261-1.386-.493-2.89-.709-4.6a6.71,6.71,0,0,0-.362-1.274,4.867,4.867,0,0,1-.412-1.931,3.764,3.764,0,0,1,.152-.688c.04-.136.079-.273.106-.412a2.2,2.2,0,0,0-.429-1.753l-.04-.05a1.1,1.1,0,0,1-.332-1.07,1.035,1.035,0,0,1,.212-.314l.043-.049c.451-.533.371-1.882.313-2.867-.019-.33-.038-.642-.036-.9.008-1.128-.022-2.28-.052-3.393-.021-.8-.043-1.606-.051-2.408q-.016-1.632-.025-3.264c-.017-2.573-.034-5.234-.1-7.849-.146-5.917-.5-11.2-1.095-16.14-.319-2.664-.718-5.334-1.185-7.935-.1-.568-.175-1.241-.252-1.954A13.489,13.489,0,0,0,23.729,14.1a3.225,3.225,0,0,0-.457-.557,3.982,3.982,0,0,1-.521-.633,2.2,2.2,0,0,1-.233-1.243,2.587,2.587,0,0,0-.1-.909,5.315,5.315,0,0,0-.843-1.28c-.1-.132-.2-.257-.291-.374a15.1,15.1,0,0,0-3.247-3.2c-2.873-2.08-6.485-2.94-9.311-3.456-1.526-.279-2.937-.6-4.3-.91C3.1,1.232,1.72.918.277.656A.332.332,0,0,1,.006.27.34.34,0,0,1,.4.005C1.859.271,3.243.585,4.582.89c1.357.309,2.761.628,4.272.9,2.9.529,6.606,1.413,9.591,3.575a15.78,15.78,0,0,1,3.391,3.342c.083.111.179.231.279.358a5.724,5.724,0,0,1,.948,1.469,3.159,3.159,0,0,1,.132,1.133,1.684,1.684,0,0,0,.137.9,3.411,3.411,0,0,0,.438.524,3.763,3.763,0,0,1,.55.682,13.844,13.844,0,0,1,1.113,4.939c.076.7.148,1.364.246,1.909.47,2.614.871,5.3,1.191,7.973.594,4.965.953,10.264,1.1,16.2.065,2.621.083,5.285.1,7.861q.011,1.631.025,3.262c.008.8.029,1.6.05,2.4.03,1.119.06,2.277.052,3.415,0,.233.016.535.035.854.068,1.155.153,2.593-.467,3.326l-.055.062a.594.594,0,0,0-.091.117c-.034.087.128.291.235.426l.042.053a2.856,2.856,0,0,1,.557,2.278c-.031.158-.075.314-.12.469a3.238,3.238,0,0,0-.13.571,4.492,4.492,0,0,0,.378,1.655,7.246,7.246,0,0,1,.394,1.407c.215,1.694.445,3.185.7,4.558.634,3.37,1.275,6.638,1.9,9.8,2.61,13.3,5.075,25.871,5.877,40.658.061,1.12.1,1.434.114,1.522a10.368,10.368,0,0,1,.065,1.768.327.327,0,0,1-.121.254.34.34,0,0,1-.278.072l-.208-.037c-1.573-.278-2.439-.432-5.588,1.08a.34.34,0,0,1-.15.034" transform="translate(0.226 0.263)"/>
    </g>
  </g>
  <path id="Fill_14" data-name="Fill 14" d="M24.8,6h-.011A72.225,72.225,0,0,1,.117.361.185.185,0,0,1,.019.11.208.208,0,0,1,.286.017a71.834,71.834,0,0,0,24.524,5.6.194.194,0,0,1,.19.2A.2.2,0,0,1,24.8,6" transform="translate(41 56)"/>
  <path id="Fill_16" data-name="Fill 16" d="M21.921,4C13.358,4,4.826,2.813.13.5A.29.29,0,0,1,.013.168C.052.034.168-.034.271.017,9,4.307,31.1,4.7,41.745.747c.106-.038.217.041.247.18a.278.278,0,0,1-.138.322C36.868,3.1,29.382,4,21.921,4" transform="translate(33 46)"/>
  <path id="Fill_18" data-name="Fill 18" d="M.3,6a.2.2,0,0,1-.181-.167A.221.221,0,0,1,.26,5.572l4.128-1.14a2.315,2.315,0,0,0,.89-.386.97.97,0,0,0,.345-.609,7.886,7.886,0,0,1-4.015-.692,3,3,0,0,1-1.225-.9A1.856,1.856,0,0,1,.1.126.177.177,0,0,1,.349.019.233.233,0,0,1,.44.307,1.374,1.374,0,0,0,.666,1.559a2.668,2.668,0,0,0,1.079.783,7.558,7.558,0,0,0,4.036.644.193.193,0,0,1,.2.172A1.369,1.369,0,0,1,5.494,4.4a2.62,2.62,0,0,1-1.02.455L.346,5.994A.162.162,0,0,1,.3,6" transform="translate(11 68)"/>
  <path id="Fill_20" data-name="Fill 20" d="M1.23,5a1.471,1.471,0,0,1-.285-.027,1.23,1.23,0,0,1-.787-.557,1.012,1.012,0,0,1-.142-.722,1.413,1.413,0,0,1,.746-.906,13.858,13.858,0,0,1,2.021-.947A7.819,7.819,0,0,0,5.805.065a.188.188,0,0,1,.287,0,.244.244,0,0,1,0,.319A8.238,8.238,0,0,1,2.923,2.266a13.554,13.554,0,0,0-1.965.919,1.036,1.036,0,0,0-.543.6.536.536,0,0,0,.08.376.823.823,0,0,0,.52.366,2.241,2.241,0,0,0,1.057-.155l.157-.048a8.064,8.064,0,0,1,4.621.008.23.23,0,0,1,.143.277.2.2,0,0,1-.249.159,7.689,7.689,0,0,0-4.41-.008l-.154.046A3.269,3.269,0,0,1,1.23,5" transform="translate(91 66)"/>
  <path id="Fill_22" data-name="Fill 22" d="M3.016,11a7.71,7.71,0,0,1-2.883-.549.173.173,0,0,1-.1-.261.292.292,0,0,1,.34-.079,7.143,7.143,0,0,0,3.043.493,4.318,4.318,0,0,0-.27-2.38l-.071-.236A18.768,18.768,0,0,1,2.439.173.246.246,0,0,1,2.714,0c.138.01.239.105.225.211A18.472,18.472,0,0,0,3.561,7.9l.071.235a4.272,4.272,0,0,1,.224,2.7.243.243,0,0,1-.216.141c-.207.017-.415.025-.624.025" transform="translate(1 118)"/>
  <path id="Fill_24" data-name="Fill 24" d="M.9,16a.1.1,0,0,1-.026,0,1.089,1.089,0,0,1-.822-.727,2.92,2.92,0,0,1,.289-1.748L.4,13.37a20.334,20.334,0,0,0,.975-4.143A55.47,55.47,0,0,0,1.685.215C1.682.1,1.741,0,1.816,0s.138.086.141.2A55.994,55.994,0,0,1,1.64,9.315a20.92,20.92,0,0,1-1,4.259l-.056.152A2.61,2.61,0,0,0,.3,15.094a.821.821,0,0,0,.626.493.221.221,0,0,1,.108.244C1.023,15.93.966,16,.9,16" transform="translate(103 113)"/>
  <path id="Fill_26" data-name="Fill 26" d="M.21,4a.205.205,0,0,1-.18-.114.261.261,0,0,1,.022-.279A11.528,11.528,0,0,1,4.722.013.2.2,0,0,1,4.989.16a.246.246,0,0,1-.131.3A10.922,10.922,0,0,0,.8,3.394a7.083,7.083,0,0,1,2.745.1.238.238,0,0,1,.161.281.212.212,0,0,1-.249.182,6.613,6.613,0,0,0-3.2.033A.181.181,0,0,1,.21,4" transform="translate(82 26)"/>
  <path id="Fill_28" data-name="Fill 28" d="M3.81,4a.18.18,0,0,1-.1-.032A6.445,6.445,0,0,0,1.4,3.018a.2.2,0,0,1-.152-.237.191.191,0,0,1,.222-.163A6.943,6.943,0,0,1,3.374,3.3,6.172,6.172,0,0,0,.127.4.208.208,0,0,1,.011.136.188.188,0,0,1,.254.012,6.559,6.559,0,0,1,3.985,3.718a.214.214,0,0,1-.053.234A.182.182,0,0,1,3.81,4" transform="translate(22 26)"/>
  <path id="Fill_30" data-name="Fill 30" d="M44.8,13a.216.216,0,0,1-.059-.008,89.624,89.624,0,0,0-13.579-2.543l-1.784-.22c-8.825-1.084-17.949-2.2-25.147-6.647A24.249,24.249,0,0,1,.058.332a.189.189,0,0,1,0-.275.209.209,0,0,1,.287,0,23.838,23.838,0,0,0,4.1,3.2c7.12,4.395,16.2,5.51,24.979,6.588l1.784.221a89.994,89.994,0,0,1,13.644,2.556.194.194,0,0,1,.136.243A.2.2,0,0,1,44.8,13" transform="translate(34 123)"/>
  <path id="Fill_32" data-name="Fill 32" d="M3.87,18q-1.842,0-3.682-.119A.2.2,0,0,1,0,17.67a.2.2,0,0,1,.215-.185C17.522,18.614,35.373,11.615,44.64.076a.2.2,0,0,1,.284-.033.2.2,0,0,1,.034.278C36.269,11.14,20.108,18,3.87,18" transform="translate(34 150)"/>
  <path id="Fill_34" data-name="Fill 34" d="M21.291,4A63.4,63.4,0,0,1,.134.383.2.2,0,0,1,.013.129.207.207,0,0,1,.275.012a63.165,63.165,0,0,0,28.5,3.149A.2.2,0,0,1,29,3.333a.2.2,0,0,1-.177.22A63.477,63.477,0,0,1,21.291,4" transform="translate(38 180)"/>
  <path id="Fill_36" data-name="Fill 36" d="M23.585,6A52.268,52.268,0,0,1,.111.394.213.213,0,0,1,.019.118.189.189,0,0,1,.277.02a51.516,51.516,0,0,0,30.5,5.042A.2.2,0,0,1,31,5.239a.205.205,0,0,1-.166.234A49.691,49.691,0,0,1,23.585,6" transform="translate(39 24)"/>
</svg>
