<svg xmlns="http://www.w3.org/2000/svg" xmlns:xlink="http://www.w3.org/1999/xlink" width="92.011" height="269.171" viewBox="0 0 92.011 269.171">
  <defs>
    <clipPath id="clip-path">
      <path id="Clip_10" data-name="Clip 10" d="M0,0H30.8V32.445H0Z" transform="translate(0.155 0.364)" fill="none"/>
    </clipPath>
  </defs>
  <g id="Group_12" data-name="Group 12" transform="translate(0.505 -0.364)">
    <path id="Fill_1" data-name="Fill 1" d="M59.286,16.87c2.25.345-.749,8.825-1.742,8.418-.239.941-.511,1.928-.788,2.917a9.315,9.315,0,0,1-1.726,2.1c.118,3.548.68,7.884,1.747,10.078,2.9,5.956,18.026,4.957,23.259,12.445C86.588,62.208,86.4,83.6,86.7,94.85c.421,1.488,2.295,6.905,2.387,11.87.112,6.089-1.792,11.7-1.931,17.719.981,1.261.6,1.9.04,2.928,1.379,3.488,3.521,7.121,3.8,10.771a15.135,15.135,0,0,1-4.1,6.636c-3.664,1.282-5.576,2.431-9.239,3.713-.559-1.122.772-2.967,1.634-4.569-1.757-1.108-1.218-4.495-1.584-7.769.066-2.635.7-5.615,1.149-9.529-.657-6.4-1.822-9.935-3.411-20.13-.435-2.794-.8-6.122-1.245-8.915-.862-3.88-1.751-10.2-2.613-14.082.076,8.934,1.246,17.9,2.119,27.245A173.607,173.607,0,0,1,72.7,150.755c-1.061,7.781-4.787,21.768-4.993,24.435,0,0,.113,5.48-.149,9.4.781,4.249,1.687,7.8,1.8,11.34.373,11.631-6.818,25.442-10.366,38.954a3.476,3.476,0,0,0-.035,2.1c.806,1.587.979,1.8.42,2.911,2.121,2.57,5.481,5.655,7.566,6.636.571.269,1.039.9.791,1.446-.275.435-.573.971-1.875.515.248.6-.284.676-1.079.794a5.212,5.212,0,0,1-2.484-.159c.131.542-.744.639-1.675.693a4.169,4.169,0,0,1-2.314-.312c-.17.469-.88.5-1.8.488-1.045-.011-1.921.126-2.148-.474-.175.964-6.4.455-6.109-1.571a22.957,22.957,0,0,0,.409-3.432c0-2.405-.043-4.187-.038-6.785a100.4,100.4,0,0,0,.636-23.412,93.555,93.555,0,0,1-.267-18.546c.642-7.611-.9-12.266-1.11-22.232-.112-5.246-1.818-13.989-2.112-35.112-.173,0-.446.009-.53.012-.237,20.287-2.007,29.865-2.119,35.1-.212,9.966-1.752,14.621-1.11,22.232a93.409,93.409,0,0,1-.268,18.546,100.443,100.443,0,0,0,.636,23.412c.005,2.6-.041,4.38-.038,6.785a22.985,22.985,0,0,0,.408,3.432c.287,2.026-5.934,2.535-6.109,1.571-.227.6-1.1.463-2.147.474-.922.009-1.632-.019-1.8-.488a4.171,4.171,0,0,1-2.314.312c-.931-.054-1.807-.15-1.675-.693a5.213,5.213,0,0,1-2.484.159c-.8-.118-1.328-.2-1.08-.794-1.3.456-1.6-.079-1.875-.515-.249-.55.22-1.177.79-1.446,2.085-.981,5.532-4.121,7.582-6.623-.647-1.081-.551-1.164.4-2.924a3.472,3.472,0,0,0-.035-2.1c-3.547-13.512-10.738-27.323-10.365-38.954.113-3.538,1.02-7.091,1.8-11.34-.262-3.917-.149-9.4-.149-9.4-.205-2.667-3.932-16.654-4.993-24.435a173.639,173.639,0,0,1-1.006-40.019c.873-9.34,2.044-18.311,2.119-27.245-.862,3.879-1.751,10.2-2.613,14.082-.442,2.794-.81,6.122-1.245,8.915-1.589,10.195-2.753,13.734-3.411,20.13.454,3.914,1.083,6.895,1.149,9.529-.368,3.274.172,6.66-1.584,7.769.862,1.6,2.192,3.447,1.633,4.569-3.663-1.282-5.575-2.431-9.239-3.713A15.135,15.135,0,0,1,0,138.137c.282-3.862,2.423-7.3,3.8-10.784a2.146,2.146,0,0,1,.04-2.928C3.7,118.406,1.8,112.809,1.911,106.72,2,101.755,3.877,96.338,4.3,94.85,4.6,83.6,4.412,62.208,10.965,52.832c5.233-7.488,20.394-6.5,23.291-12.459C35.332,38.161,35.8,33.854,35.9,30.3a9.474,9.474,0,0,1-1.6-2.018c-.253-.984-.5-1.969-.729-2.888-1.141-.157-4.347-8.557-1.7-8.416-.618-3.282-1.171-6.791-.935-8.21-.556.351-1.093.721-1.093.721.64-.875,1.258-1.748,1.874-2.574-.343.094-.9.35-1.366.491,1.669-1.785,4.525-5.025,6.816-5.421l-3.39.586A47.288,47.288,0,0,1,39.674,1.15C38.8.824,37.958.868,37.083.542c4.479.269,9.06-1.614,13.2.4,5.873.369,6.365,3.773,9.54,5.079a7.32,7.32,0,0,1-1.684-.459,13.952,13.952,0,0,0,2.421,2.425l-1.391-.46A27.03,27.03,0,0,1,59.286,16.87Z" transform="translate(0 19)" fill="none" stroke="#6d7278" stroke-miterlimit="10" stroke-width="1"/>
    <g id="Group_11" data-name="Group 11" transform="translate(29)">
      <path id="Clip_10-2" data-name="Clip 10" d="M0,0H30.8V32.445H0Z" transform="translate(0.155 0.364)" fill="none"/>
      <g id="Group_11-2" data-name="Group 11" clip-path="url(#clip-path)">
        <path id="Fill_9" data-name="Fill 9" d="M29.817,17.43a3.7,3.7,0,0,0,.7-2.29c-.058-1.347-1.1-1.42-1.739-2.841a2,2,0,0,0-2.029-1.229c-.174-.765-2.9-1.884-3.885-1.825s-1.1.059-1.914-.942-3.479-.236-5.567-1.289-1.334-4.6-1.334-4.6L13,4.534c.522-1.648-.7-3.945-.7-3.945a4.734,4.734,0,0,1-.522,3.6v-1.4a2.9,2.9,0,0,1-1.276,2.683L9.522,3.7s.58,3.6-1.334,2.187-.753-4.711-.753-4.711A14.96,14.96,0,0,0,5.986,3.7,3.846,3.846,0,0,1,7.783,0S5.347.942,3.55,5.005c-1.712,3.87.731,6.029.968,6.226A7.381,7.381,0,0,1,2.274,7.419a19.861,19.861,0,0,0,0,10.689C1,16.608.361,12.7.361,12.7s-.812,2.018,0,5.888,5.474,4.324,5.683,4.314a15.843,15.843,0,0,0,1.913-.177C5,21.434,3.55,15.988,3.55,15.988s2.262,4.5,3.827,5.858,5.16,1.413,5.16,1.413c-.985-.824-1.334-3.18-1.565-5.151s-4.349-7.744-4.349-7.744S8.3,12.542,10.683,15.6s.753,6.893,2.824,7.835a7.218,7.218,0,0,0,4.6.118c2.493-1.06,2.378-3.356,2.088-5.446s-5.625-6.5-5.625-6.5,2.088,1.586,5.451,4.384-.232,7.33-.232,7.33a7.578,7.578,0,0,1,4.581-1.589c2.493.118,4.986-3.62,4.986-3.62a6.83,6.83,0,0,1-3.363,3.856,23.97,23.97,0,0,0,2.319,1.943c1.624,1.236,1.8,8.538,1.8,8.538s.7-4.77.7-5.259a51.008,51.008,0,0,0-.287-5.576C30.23,19.255,29.817,17.43,29.817,17.43Z" transform="translate(0.155 0.363)" fill="#fff" stroke="#6d7278" stroke-miterlimit="10" stroke-width="1"/>
      </g>
    </g>
  </g>
</svg>
