<svg xmlns="http://www.w3.org/2000/svg" xmlns:xlink="http://www.w3.org/1999/xlink" width="66.767" height="275.723" viewBox="0 0 66.767 275.723">
  <defs>
    <clipPath id="clip-path">
      <path id="Clip_2" data-name="Clip 2" d="M0,0H66.767V270.816H0Z" transform="translate(0 0.121)" fill="none"/>
    </clipPath>
    <clipPath id="clip-path-2">
      <path id="Clip_9" data-name="Clip 9" d="M0,0H28.579V28.509H0Z" transform="translate(0.043 0.215)" fill="none"/>
    </clipPath>
  </defs>
  <g id="Group_11" data-name="Group 11" transform="translate(0 -0.215)">
    <g id="Group_3" data-name="Group 3" transform="translate(0 5)">
      <path id="Clip_2-2" data-name="Clip 2" d="M0,0H66.767V270.816H0Z" transform="translate(0 0.121)" fill="none"/>
      <g id="Group_3-2" data-name="Group 3" clip-path="url(#clip-path)">
        <path id="Fill_1" data-name="Fill 1" d="M42.337,26.183c.667,1.548,3.459-8.637,1.391-8.761a34.785,34.785,0,0,0,.039-9.612l1.079.478A13.355,13.355,0,0,1,42.97,5.771a4.6,4.6,0,0,0,1.305.476c-2.462-1.355-2.843-4.886-7.4-5.269C33.67-1.112,30.12.842,26.648.562c.678.339,1.33.293,2.008.631a29.208,29.208,0,0,0-4.578,1.48l2.628-.608c-1.776.411-3.989,3.772-5.283,5.624.359-.148.793-.412,1.058-.51-.477.857-.956,1.762-1.452,2.67,0,0,.417-.383.847-.748-.184,1.491.357,5.164.894,8.558-2.543-.63.763,10.28,1.343,8.675.132,1.115.293,2.148.45,3.184.592.716,1.157,1.329,1.7,1.867a83.842,83.842,0,0,1-.843,11.678c-.513,2.373-9.436,6.2-11.572,7.028-1.761.682-5.181,2.084-7.189,4.215-3.244,3.443-2.091,11.9-2.342,27.159-.167,10.172.212,16.822-.21,20.335a83.71,83.71,0,0,0-1.576,13.608c-.1,6.651.566,11.814.187,18.506a2.466,2.466,0,0,0-.034,3.2A88.349,88.349,0,0,0,0,148.788a19.2,19.2,0,0,0,3.022,6.957,45.091,45.091,0,0,0,7.208,4.347c.48-1.226-1.328-3.3-2.068-5.048,1.508-1.211,1.045-4.91,1.36-8.486-.056-2.877-1-6.133-1.388-10.409.085-7.35,2.636-12.729,3.773-21.885.379-3.051.372-6.351.751-9.4.463-4.91.287-13.926.9-19.574,2.306,22.9,1.492,36.115.106,54.372-1.225,16.145,1.624,31.656,2.551,49.355,0,0-.1,5.986.128,10.264-.171,4.817-.845,9.253-.935,13.116-.264,11.365,4.828,27.269,7.4,42.081a5.1,5.1,0,0,1,.03,2.295c-1.028,2.628-.86,1.663-.111,3.208-1.478,3.149-5.44,6-7.229,7.073a1.428,1.428,0,0,0-.679,1.58c.236.475.492,1.06,1.61.562-.213.652.244.739.926.868a2.569,2.569,0,0,0,1.8-.174c-.113.592.263.668,1.062.728a2.9,2.9,0,0,0,1.986-.341c.146.513.755.544,1.547.534.9-.011,1.648.138,1.843-.519.15,1.053,4.546.527,4.3-1.687a31.605,31.605,0,0,1-.35-3.747c0-2.627-.075-4.661-.079-7.5a133.991,133.991,0,0,1-.351-26.126c1.8-13.743.27-19.971.218-30.318.161-4.169.43-5.592.631-13.99.874-7.793,1.5-15.053,3.051-38.456a1.233,1.233,0,0,1,.69,0c1.554,23.4,2.187,30.772,3.051,38.458.2,8.4.47,9.82.631,13.99-.052,10.348-1.586,16.576.218,30.318a134.031,134.031,0,0,1-.351,26.126c0,2.837-.076,4.872-.079,7.5a31.451,31.451,0,0,1-.351,3.747c-.246,2.213,4.15,2.74,4.3,1.687.195.656.947.507,1.843.519.791.01,1.4-.021,1.546-.534a2.9,2.9,0,0,0,1.986.341c.8-.06,1.175-.135,1.062-.728a2.568,2.568,0,0,0,1.8.174c.683-.13,1.139-.216.926-.868,1.118.5,1.373-.087,1.61-.562a1.428,1.428,0,0,0-.679-1.58c-1.79-1.072-5.752-3.924-7.23-7.073.75-1.546.916-.58-.111-3.208a5.077,5.077,0,0,1,.03-2.295c2.623-14.93,7.7-30.644,7.439-42.008-.09-3.864-.833-8.2-1-13.014.225-4.278.128-10.265.128-10.265.927-17.7,3.741-34.3,2.674-49.487-1.295-18.42-2.058-35.6.027-54.651.514,4.957.478,14.9.941,19.809.379,3.052.358,6.381.737,9.432,1.137,9.155,3.7,14.506,3.787,21.855-.389,4.275-1.331,7.531-1.388,10.409.315,3.576-.148,7.275,1.36,8.486-.74,1.749-2.548,3.823-2.068,5.048a78.337,78.337,0,0,0,7.1-4.42,21.524,21.524,0,0,0,3.133-6.884,88.35,88.35,0,0,0-2.682-11.676,2.466,2.466,0,0,0-.034-3.2c-.379-6.692.284-11.972.187-18.622A81.765,81.765,0,0,0,62.662,101.8c-.422-3.513-.14-10.178-.307-20.349-.251-15.259.9-23.7-2.342-27.145-2.007-2.13-5.387-3.532-7.147-4.215-2.136-.828-11.059-4.685-11.572-7.057a86.47,86.47,0,0,1-1.064-11.9c.5-.529,1.033-1.132,1.6-1.817.157-1.03.316-2.057.509-3.138" transform="translate(0 0.121)" fill="#fff" stroke="#6d7278" stroke-miterlimit="10" stroke-width="1"/>
      </g>
    </g>
    <path id="Fill_4" data-name="Fill 4" d="M0,0C.327,7.457.563,11.542,1.063,18" transform="translate(12.762 96)" fill="#deb777"/>
    <path id="Fill_6" data-name="Fill 6" d="M1.063,0C.747,7.048.458,11.086,0,17" transform="translate(53.175 96)" fill="#deb777"/>
    <g id="Group_10" data-name="Group 10" transform="translate(19.143)">
      <path id="Clip_9-2" data-name="Clip 9" d="M0,0H28.579V28.509H0Z" transform="translate(0.043 0.215)" fill="none"/>
      <g id="Group_10-2" data-name="Group 10" clip-path="url(#clip-path-2)">
        <path id="Fill_8" data-name="Fill 8" d="M7.131,12.845A7.669,7.669,0,0,0,11.045,15.4l3.646.679S10.4,12.741,10.08,9.19c0,0,2.627,5.117,5.362,6.422a31.6,31.6,0,0,0,4.611,1.827l-2.145-3.864a14.8,14.8,0,0,0,3,2.923,6.217,6.217,0,0,1,2.627,2.193,12.767,12.767,0,0,1,.59,2.82,16.925,16.925,0,0,1,0,2.871c-.161.366-.643,4.125-.643,4.125a6.014,6.014,0,0,1,.715-2.663c.626-.783,2.127-1.827,2.288-2.767a3.758,3.758,0,0,0,0-1.514s.751,1.357,1.287,1.357a2.752,2.752,0,0,1-.536-1.723c.053-.992,0-3.707,0-3.707l1.341.522-.8-2.4-.107-1.984.912.574s-1.126-3.811-1.448-5.012S24.4,2.925,21.447,1.724s-3.11-.731-3.11-.731a10.016,10.016,0,0,1,3,4.281S18.659.68,16.675.158,11.1.576,11.1.576L9.7,1.568l-.322.992S6.7,2.037,5.362,3.291A17.7,17.7,0,0,0,2.949,6.215,8.137,8.137,0,0,0,.7,10.13a53.738,53.738,0,0,0-.215,6.579S.321,17.91,0,18.014l.911-.209L0,19.894l1.073-.313a6.012,6.012,0,0,0-.322,2.245c.161.783,1.662,2.4,1.823,2.715s1.073-1.2,1.073-1.2a2.781,2.781,0,0,0,.161,2.245c.643.835,1.609,1.932,1.662,2.924a25.388,25.388,0,0,0-.161-4.176c-.268-1.358-.643-3.812,0-4.7A13.786,13.786,0,0,1,7.56,17.544s-.376-1.253-.59-2.3a6.4,6.4,0,0,1,.161-2.4" transform="translate(0.043 0.215)" fill="#fff" stroke="#6d7278" stroke-miterlimit="10" stroke-width="1"/>
      </g>
    </g>
  </g>
</svg>
