<svg xmlns="http://www.w3.org/2000/svg" xmlns:xlink="http://www.w3.org/1999/xlink" width="70.02" height="266.452" viewBox="0 0 70.02 266.452">
  <defs>
    <clipPath id="clip-path">
      <path id="Clip_9" data-name="Clip 9" d="M0,0H1.506V1.487H0Z" transform="translate(0.25 0.045)" fill="none"/>
    </clipPath>
  </defs>
  <g id="Group_13" data-name="Group 13" transform="translate(0.51 -0.045)">
    <g id="Group_4" data-name="Group 4" transform="translate(0 4)">
      <path id="Fill_1" data-name="Fill 1" d="M43.324,41.773c.5,2.22,8.169,5.766,10.3,6.436,1.633.44,7.762,1.648,10.045,4.352,4.753,5.628,3.7,15.74,1.073,25.319.182,9.417.49,15.313.9,18.6A56.447,56.447,0,0,1,67.661,108.6c.1,6.677-.744,12.59-.864,18.081.96,1.318.717,1.938.019,3.01A77.064,77.064,0,0,1,69,140.7a16.215,16.215,0,0,1-3.459,6.779c-3.088,1.309-4.1,2.483-7.188,3.792-.471-1.146.65-3.031,1.377-4.667-1.645-1.542-1.027-4.592-1.336-7.936.056-2.692,1.825-5.846,2.208-9.844-.083-6.874-2.725-11.892-3.843-20.454-.371-2.854.235-6.036-.137-8.89-.727-3.964-1.943-7.6-2.67-11.563-.327,11.654.034,15.031-.184,20.195-.143,6.776.783,13.652,1.476,20.293a129.479,129.479,0,0,1,.564,25.6c-.733,7.984-1.715,17.49-2.95,24.695.02,1.8.1,4.718-.133,9.43.783,4.839,1.653,7.831,1.851,11.345.664,11.827-5.35,24.987-8.771,40.088a4.2,4.2,0,0,0-.029,2.146c1.009,2.458.845,1.555.109,3a18.86,18.86,0,0,0,6.528,6.751,1.312,1.312,0,0,1,.666,1.478,1.085,1.085,0,0,1-1.689.539c.257.405-.42.729-1.094.86a2.617,2.617,0,0,1-1.76-.2c.2.371-.459.612-1.061.677a2.509,2.509,0,0,1-1.838-.356c-.006.345-.8.518-1.493.539-.89.027-1.831,0-2.027-.511-.011.992-4.765.41-4.523-1.659a28.3,28.3,0,0,0,.344-3.505c0-2.457-.036-4.277-.032-6.931a134.461,134.461,0,0,0,1.084-24.536c-.6-4.235-1.8-8.828-.743-18.373.469-4.227.876-4.1.907-9.99-.181-2.016-1.895-5.5-1.274-12.675-.845-6.861-2.006-14.016-2.983-36.23a.827.827,0,0,0-.5,0c-.3,22.16-2.391,28.777-3.061,36.068.566,7.062-1.143,11.153-1.274,12.948.032,5.889.66,5.755,1.129,9.982,1.06,9.545-.143,14.139-.743,18.374a126.75,126.75,0,0,0,.753,24.434c0,2.654-.035,4.474-.032,6.931a28.3,28.3,0,0,0,.344,3.505c.242,2.069-4.375,2.644-4.523,1.659-.191.614-.929.474-1.811.485-.777.009-1.375-.019-1.518-.5a2.969,2.969,0,0,1-1.951.319c-.785-.056-1.346-.14-1.235-.694a3.214,3.214,0,0,1-1.958.177c-.67-.121-1.119-.2-.91-.813-1.1.467-1.349-.08-1.58-.525a1.311,1.311,0,0,1,.666-1.478,18.86,18.86,0,0,0,6.528-6.751c-.737-1.446-.9-.543.109-3a4.268,4.268,0,0,0-.03-2.146c-2.991-13.8-9.271-27.94-8.955-39.821.1-3.615,1.377-7.271,2.036-11.612-.221-4-.126-9.6-.126-9.6-1.234-7.2-2.36-16.595-3.093-24.579a127.29,127.29,0,0,1,.473-25.2c.7-6.762,1.739-13.754,1.594-20.637-.218-5.163.143-8.323-.184-20.195-.727,3.963-1.943,7.6-2.67,11.563-.372,2.854.235,6.036-.138,8.89-1.117,8.562-3.759,13.58-3.842,20.454.382,4,2.152,7.153,2.208,9.844-.309,3.345.146,6.8-1.336,7.936.727,1.636,1.848,3.521,1.377,4.667-3.088-1.309-4.1-2.483-7.188-3.792A16.209,16.209,0,0,1,0,140.7a76.994,76.994,0,0,1,2.184-11,2.223,2.223,0,0,1,.034-2.991c-.117-6.149-.974-11.879-.879-18.1A56.447,56.447,0,0,1,3.351,96.478c.414-3.285.723-9.181.9-18.6C1.629,68.3.576,58.189,5.328,52.561c2.283-2.7,8.412-3.912,10.045-4.352,2.134-.669,9.961-4.107,10.466-6.327a72.939,72.939,0,0,0,1.136-11.614,24.343,24.343,0,0,1-1.9-1.912c-.176-1.056-.352-2.108-.508-3.124-1.021-1.015-3.179-8.3-1.228-8.307-.473-3.27-.923-6.767-.732-8.182-.451.351-.888.719-.888.719.519-.873,1.022-1.742,1.522-2.565-.278.093-.734.348-1.11.489,1.357-1.779,3.677-5.008,5.539-5.4l-2.755.585a32.667,32.667,0,0,1,4.8-1.422C29.006.821,28.322.865,27.611.54c3.64.269,7.362-1.608,10.728.4C43.112,1.307,43.511,4.7,46.092,6a5.131,5.131,0,0,1-1.368-.458,12.949,12.949,0,0,0,1.967,2.418L45.561,7.5a33.994,33.994,0,0,1,.12,9.294c1.686.489-.454,8.144-1.346,8.449-.159.992-.328,1.995-.495,3-.658.73-1.257,1.356-1.81,1.947A68.542,68.542,0,0,0,43.324,41.773Z" transform="translate(0 7)" fill="none" stroke="#6d7278" stroke-miterlimit="10" stroke-width="1"/>
      <path id="Fill_11" data-name="Fill 11" d="M24.856,27.693h0c-.046-1.229-.221-5.372-.526-7.082-.025-.139-.052-.294-.082-.462-.391-2.218-1.2-6.832-2.053-7.384a10.712,10.712,0,0,0-4.308-.892,3.2,3.2,0,0,0-1.172.162,6.719,6.719,0,0,1-1.982.173c-2.4,0-6-.306-6.04-.309,0,0-.508-.055-1.149-.055-1.062,0-2.424.144-2.883.831a11.571,11.571,0,0,0-1.837,7.343c.4,3.293-.306,4.684-.313,4.7l.172,2.96L.807,22.482l0,0c-.009.016-.032.059-.065.059-.072,0-.182-.193-.291-1.114-.065-.55-.141-1.054-.215-1.541A15.48,15.48,0,0,1,0,17.737c0-.606.019-3.664.4-4.333.16-.279.3-.543.444-.8a6.41,6.41,0,0,1,1.706-2.3,5.662,5.662,0,0,0,3.02,1.131,3.081,3.081,0,0,0,.475-.036l-.009,0c-.357-.151-3.491-1.53-3.575-3.41A8.442,8.442,0,0,1,3.13,4.31,4.471,4.471,0,0,1,6.317,1.591a8.047,8.047,0,0,1,1.447-.162,1.832,1.832,0,0,1,.883.162A9.031,9.031,0,0,1,13.653,0a8.284,8.284,0,0,1,3.06.592l2.551,1.957c.03,0,3.014.45,3.719,2.737.176.159,4.311,3.931,4.838,6.659a13.559,13.559,0,0,1-.306,5.631c-.036.425-.213,2.182-.5,4.631a.476.476,0,0,0,0,.087c.014.214.048.716-1.076,2.65A6.968,6.968,0,0,0,24.856,27.693ZM7.975,2.366A7.34,7.34,0,0,0,6.116,3.8a3.43,3.43,0,0,0-.784,3.86c1.12,2.531,1.667,2.8,1.85,2.8a.117.117,0,0,0,.076-.022A4.857,4.857,0,0,1,6.07,8.216C5.764,6.926,5.846,4.864,7.975,2.366ZM19.555,6.1a3.981,3.981,0,0,1,1.546.319l.43.18.017.007c2.8,1.171,3.746,1.566,5.019,3.656-.014-.035-1.439-3.633-4.577-4.162l-.521-.089a14.718,14.718,0,0,0-2.359-.291c-1.294,0-2.364.441-3.691,2.633C15.626,8.093,17.315,6.1,19.555,6.1Zm-4.6-4.6a5.9,5.9,0,0,0-2.41.552C9.265,3.516,8.71,7.469,8.692,7.609L8.7,7.594a14.169,14.169,0,0,1,1.526-2.143,7.11,7.11,0,0,1,3.887-2.538,22.433,22.433,0,0,1,3.343-.351,2.472,2.472,0,0,1,.51.032A4.567,4.567,0,0,0,14.954,1.5ZM17.07,3.735a4.59,4.59,0,0,0-1.21.153,3.163,3.163,0,0,0-2.33,2.526l0-.006A7.635,7.635,0,0,1,18.481,4.2a5.577,5.577,0,0,1,1.949.355A8.644,8.644,0,0,0,17.07,3.735Z" transform="translate(20 0)" fill="#fff" stroke="#6d7278" stroke-miterlimit="10" stroke-width="1"/>
    </g>
    <g id="Group_10" data-name="Group 10" transform="translate(53)">
      <path id="Clip_9-2" data-name="Clip 9" d="M0,0H1.506V1.487H0Z" transform="translate(0.25 0.045)" fill="none"/>
      <g id="Group_10-2" data-name="Group 10" clip-path="url(#clip-path)">
        <path id="Fill_8" data-name="Fill 8" d="M0,.809A.9.9,0,0,1,.815,0a.634.634,0,0,1,.69.65.893.893,0,0,1-.854.837A.653.653,0,0,1,0,.809" transform="translate(0.25 0.045)" fill="#020303"/>
      </g>
    </g>
  </g>
</svg>
